<svg id="圖層_1" data-name="圖層 1" xmlns="http://www.w3.org/2000/svg" viewBox="0 0 151.56 623.52"><defs><style>.cls-1{fill:#003f57;}</style></defs><path class="cls-1" d="M0,0H5.94l5,22,.54,4.14L11,47.88H5ZM2.16,19.44,135.9,20l.72,6.84L66.78,27.9H3.06ZM7.56,72,128.34,23.4l-.18-1.26h7.92L139,48.6l-100.44,40L38,83.7,41.22,85,146.7,123.3l1.08,9.9h-7.92l-.54-5.22-6.3-2.16L8.46,80.82Zm3.78,35.1h5.94L23,135.18l.36,5,.36,28.26H17.64ZM13,123.3q15.84.54,31.05.54t27.81.18l75.06.72,2.88,27.36q-15.48-.54-31.23-.63t-31.59-.09H78.66q-15.84,0-31.59.09t-31,.63Zm115-121h6.12L137,30.06h-8.46l-.36-2.52Zm11.88,135.18h8.46l3.24,30.6h-6.12L140,140.4Z"/><path class="cls-1" d="M4,250.74Q2.16,235.62,6.39,224t15.84-18.18q11.61-6.57,32.49-6.57H105q15.39,0,30.69-.54l3.06,28.62q-15.3-.18-30.6-.27T77.4,227H60.3q-16.38,0-26,3.69T21.06,241.56q-3.6,7.2-2.52,17.46Q20.34,275.22,32,284t36.45,8.37l77-.54,1.08,8.82-78.3-.54q-30.6-.36-46.17-13T4,250.74Zm124-67.68h6.12L140.58,245h-6.12l-5.4-28.62-.54-5.22Zm9.36,87.84h5.94l5,48.06h-5.94l-4.86-20.16-.54-5.4Z"/><path class="cls-1" d="M1.26,371.34a83,83,0,0,1,.45-22.14,61,61,0,0,1,5.85-19.08l30.24,1.26,1.08,9.9-34,9.9,3.78-11.7,6.66-2.16Q10.08,346.14,8.82,353a60,60,0,0,0-.54,15.66q1.44,13.68,8.37,21.15t17.91,7.47a24.31,24.31,0,0,0,10.35-2,18.18,18.18,0,0,0,7.29-6.48,49,49,0,0,0,5.58-12.24l2.88-8.46q6.12-17.64,15-26.91t24.57-9.27A36.54,36.54,0,0,1,121.32,338,44.13,44.13,0,0,1,135.81,355a69.91,69.91,0,0,1,6.93,24.66,68.79,68.79,0,0,1-.63,19.71,52.2,52.2,0,0,1-5.67,16.11l-29-1.26-1.08-9.9L139,394.74l-4.14,12.6L127.44,409q5.4-7.74,7.2-13.14a31.59,31.59,0,0,0,1.08-13Q134.46,371,128,363.6t-16.92-7.38q-9.54,0-14.67,5.22T88,376.56l-3.24,9q-4.5,13.5-9.63,21.6T63.09,418.77q-6.93,3.51-17,3.51a39.24,39.24,0,0,1-21.33-5.94Q15.3,410.4,9.09,399.06T1.26,371.34Z"/><path class="cls-1" d="M.18,437.22H6.12l5.76,28.26.54,5.22.18,28.44H6.66ZM1.8,453.78q15.48.54,31.23.63t31.59.09H72.9q15.84,0,31.5-.09t31.32-.63l3.06,29q-15.48-.36-31.32-.45t-31.68-.09h-8.1q-15.66,0-31.41.09t-31.41.45ZM128,437.22h5.94l6.48,61.92h-5.94l-5.58-28.44-.54-5.22Z"/><path class="cls-1" d="M4.14,583A89.37,89.37,0,0,1,5.49,555.3,53.39,53.39,0,0,1,16,532.89,51.07,51.07,0,0,1,36.18,518q12.42-5.31,29.88-5.31A87.7,87.7,0,0,1,97.74,518a70,70,0,0,1,24,15.12,73.87,73.87,0,0,1,15.84,22.59,86.37,86.37,0,0,1,7.29,27.45,78,78,0,0,1-.36,21.42,69,69,0,0,1-5.76,17.64l-32-.54-1.08-10.08,35.82-10.26-3.06,13.86h-5.94a47.13,47.13,0,0,0,5.4-13.32,45.84,45.84,0,0,0,.72-14.22,44.87,44.87,0,0,0-9.27-23.4q-8-10.44-22.77-16.56T70.2,541.62q-21.78,0-35.28,6.21T15.75,564.48q-5.67,10.44-4.23,23.76a42.82,42.82,0,0,0,3.78,14.13,66,66,0,0,0,9.18,14H17.82l-5.94-13.5L49.5,612.9,50.58,623l-31.5.54a80.28,80.28,0,0,1-9.9-18.27A85.82,85.82,0,0,1,4.14,583Z"/></svg>