<svg id="圖層_1" data-name="圖層 1" xmlns="http://www.w3.org/2000/svg" viewBox="0 0 135.5 25.1"><defs><style>.cls-1{fill:#003f57;}</style></defs><path class="cls-1" d="M2.76,23.57c0,.11-.1.27-.31.47a3.74,3.74,0,0,1-.83.56,3.23,3.23,0,0,1-1.14.34L0,25V2.81l2.88.81,5.06-.69V3.6l-5.18.72ZM8,5.35V6L1.27,7V6.29ZM8,7.8v.67l-6.72.94V8.74Zm-2.4,9.38.46.22v2.06h.21L5.5,20.62l-2.31-1A2.83,2.83,0,0,1,3.77,19a3.1,3.1,0,0,1,.69-.41l-.38.89V17.4ZM8.42,9.62A.79.79,0,0,1,8,10a1.38,1.38,0,0,1-.92,0l.72-.22a13.43,13.43,0,0,1-1.06,1c-.41.36-.85.7-1.32,1.05a10.36,10.36,0,0,1-1.32.85l0-.29.77-.12a3,3,0,0,1-.29,1.09,1.07,1.07,0,0,1-.48.52l-.79-1.66L3.72,12a5.08,5.08,0,0,0,.95-1,13.36,13.36,0,0,0,.9-1.27,6.45,6.45,0,0,0,.57-1.08ZM10.06,11a.93.93,0,0,1-.46.31,1.25,1.25,0,0,1-.89-.12l.7-.17c-.35.38-.82.84-1.41,1.37a23.67,23.67,0,0,1-1.86,1.53,20.67,20.67,0,0,1-1.92,1.32l0-.28.77-.1A2.39,2.39,0,0,1,4.68,16a1.63,1.63,0,0,1-.48.54l-.82-1.68a3.77,3.77,0,0,0,.53-.24,8.93,8.93,0,0,0,1.51-1.39c.53-.6,1-1.2,1.48-1.83a12.5,12.5,0,0,0,1-1.56ZM3.62,12.17c.42-.05,1-.13,1.82-.25s1.58-.26,2.36-.4l0,.41-.91.39c-.4.19-.83.38-1.31.57l-1.4.55Zm6.8,3.36a.69.69,0,0,1-.2.42,1.08,1.08,0,0,1-.57.27v1.42a6.19,6.19,0,0,1-.25,1.49,5,5,0,0,1-.84,1.55A7.45,7.45,0,0,1,6.82,22.2a14.85,14.85,0,0,1-2.93,1.42l-.19-.24a9.56,9.56,0,0,0,2.46-1.82,5,5,0,0,0,1.11-1.87,6.26,6.26,0,0,0,.29-1.81V15.65Zm-6.58-.77C4.3,14.7,5,14.57,6,14.38l2.94-.6,0,.38-1.17.54-1.62.76c-.59.27-1.19.53-1.8.79Zm3,1.46a.64.64,0,0,1-.2.41,1.54,1.54,0,0,1-.59.29v.94l-2,.28V16.3Zm1.8,2.21v.7l-3.48.48v-.67ZM6,3.19l1.2-1.44L9.7,3.29a2.77,2.77,0,0,1-.33.29,2.25,2.25,0,0,1-.56.28V8.74s-.13.14-.37.27a9,9,0,0,1-.87.41,3.18,3.18,0,0,1-.92.25l-.43.05V3.17ZM7.9,12.6a3.51,3.51,0,0,1,1.48.73,1.65,1.65,0,0,1,.53.9,1.06,1.06,0,0,1-.13.78.9.9,0,0,1-.56.42.78.78,0,0,1-.72-.19,4.6,4.6,0,0,0-.33-1.34,7,7,0,0,0-.56-1.16Zm6.57-3.72A.92.92,0,0,1,14,9.2a1.36,1.36,0,0,1-.94,0L13.85,9c-.27.28-.61.6-1,.94s-.8.68-1.23,1a14.65,14.65,0,0,1-1.25.85v-.31l.77-.09a2.58,2.58,0,0,1-.3,1.06,1.85,1.85,0,0,1-.47.54L9.55,11.3l.46-.19a4.46,4.46,0,0,0,.84-.91A14.73,14.73,0,0,0,11.65,9a7.1,7.1,0,0,0,.52-1Zm2.28,1.2a.83.83,0,0,1-.47.32,1.2,1.2,0,0,1-.9-.1l.72-.2a16.57,16.57,0,0,1-1.46,1.29c-.61.49-1.26,1-2,1.44a23,23,0,0,1-2,1.23l0-.26.77-.12a2.84,2.84,0,0,1-.3,1.09,1.28,1.28,0,0,1-.47.52l-.84-1.66a4.45,4.45,0,0,0,.53-.24A8.26,8.26,0,0,0,12,12.06c.57-.57,1.1-1.14,1.59-1.73a11.77,11.77,0,0,0,1.09-1.47ZM9.82,11.3q.62,0,1.86-.24c.82-.12,1.65-.26,2.48-.4V11c-.21.11-.52.25-.94.42L11.86,12c-.5.21-1,.4-1.47.58Zm.33,2.31,1.39-.27,2-.38c.73-.14,1.46-.3,2.2-.48l0,.38-1.29.62-1.79.79-2,.83Zm3.31,1.46a.73.73,0,0,1-.21.47,1.53,1.53,0,0,1-.67.35v5.76c0,.09-.19.23-.57.41a5.18,5.18,0,0,1-1.21.38l-.38,0V15.24Zm.1-7.25c0,.08-.12.21-.35.38a4.37,4.37,0,0,1-.87.46A5.53,5.53,0,0,1,11.26,9l-.41,0V1.42l2.83.72,5.06-.72v.69l-5.18.72Zm1.68,9.68v.69l-3.6.51V18ZM18.65,3.84v.7l-6.48.91v-.7Zm0,2.42V7l-6.48.91V7.18ZM17,1.68,18.26,0,21,1.73a1.37,1.37,0,0,1-.37.33,2.3,2.3,0,0,1-.61.29V18.67a5.54,5.54,0,0,1-.24,1.72,2.42,2.42,0,0,1-1,1.25,8,8,0,0,1-2.42.9,8.9,8.9,0,0,0-.2-1.16,1.56,1.56,0,0,0-.45-.76,2.53,2.53,0,0,0-.8-.44A5.4,5.4,0,0,0,13.42,20v-.33c.56-.05,1-.09,1.42-.11l1.11-.1.73-.08a.69.69,0,0,0,.43-.19.61.61,0,0,0,.12-.39V1.63Zm-.09,13a.74.74,0,0,1-.18.39,1.37,1.37,0,0,1-.57.28V18.6c0,.06-.17.18-.53.36a3.31,3.31,0,0,1-1.08.34l-.36,0V14.83Zm-2.16-3.07a3.54,3.54,0,0,1,1.45.8,1.67,1.67,0,0,1,.48.94,1.26,1.26,0,0,1-.18.79,1,1,0,0,1-.58.41.81.81,0,0,1-.72-.2A4.91,4.91,0,0,0,14.94,13a6.34,6.34,0,0,0-.49-1.17Z"/><path class="cls-1" d="M28.54,6.74c0,1.62-.1,3.25-.23,4.9a31.57,31.57,0,0,1-.79,4.86,20.71,20.71,0,0,1-1.74,4.57,15.35,15.35,0,0,1-3.12,4l-.22-.16a20.87,20.87,0,0,0,1.69-4.23A28.49,28.49,0,0,0,25,16.22c.16-1.52.25-3,.26-4.54s0-3-.06-4.48ZM32.35,4l1,.65.89.62c.31.23.59.44.83.65-.06.26-.29.42-.67.48L22.94,8l-.19-.65,8.09-1.13ZM26,2a7.15,7.15,0,0,1,2.7.44,2.92,2.92,0,0,1,1.35,1,1.74,1.74,0,0,1,.29,1.23,2,2,0,0,1-.52,1.08,1.85,1.85,0,0,1-1,.57A1.63,1.63,0,0,1,27.53,6a5.31,5.31,0,0,0-.31-1.44,8.7,8.7,0,0,0-.63-1.34,7.54,7.54,0,0,0-.77-1.09Zm4,8.49,1.49-1.68,2.57,1.8a1.4,1.4,0,0,1-.38.34,2.39,2.39,0,0,1-.63.26c0,1.91-.12,3.52-.21,4.84s-.2,2.41-.33,3.28A9.43,9.43,0,0,1,32,21.38a3.89,3.89,0,0,1-.8,1.28,3.94,3.94,0,0,1-1.29.93,5.53,5.53,0,0,1-1.67.46,7.61,7.61,0,0,0-.07-1.15,1.33,1.33,0,0,0-.29-.72,1.58,1.58,0,0,0-.6-.45,3.24,3.24,0,0,0-1-.25v-.31l1.1-.1,1-.09a1.33,1.33,0,0,0,.74-.36,3.38,3.38,0,0,0,.57-1.52A27,27,0,0,0,30,15.83c.08-1.42.16-3.22.22-5.41Zm1.13-.16V11l-4.23.6V10.9Zm9.29-8.93a25.73,25.73,0,0,1-1.6,3.9,29.31,29.31,0,0,1-2.41,4,21.57,21.57,0,0,1-3.12,3.47l-.22-.12a24.25,24.25,0,0,0,1.49-2.93c.46-1.07.88-2.17,1.25-3.29s.67-2.21.91-3.26a25.11,25.11,0,0,0,.5-2.86l4.16.43a.75.75,0,0,1-.27.42A1.61,1.61,0,0,1,40.42,1.37Zm-6,14.78a17.88,17.88,0,0,1,4.68.35A7.73,7.73,0,0,1,42,17.71a3.77,3.77,0,0,1,1.32,1.61,2.2,2.2,0,0,1,.06,1.55,1.85,1.85,0,0,1-.91,1.05A2,2,0,0,1,40.9,22a11,11,0,0,0-1.29-1.62A17.51,17.51,0,0,0,38,18.84c-.6-.5-1.22-1-1.84-1.38a14.17,14.17,0,0,0-1.85-1.07Zm2-6.31a9.53,9.53,0,0,1,2.91-.1,3.33,3.33,0,0,1,1.64.68,1.69,1.69,0,0,1,.61,1.06,1.65,1.65,0,0,1-.21,1.08,1.84,1.84,0,0,1-.87.75,1.73,1.73,0,0,1-1.29,0,5.91,5.91,0,0,0-.8-1.24,14.44,14.44,0,0,0-1.06-1.15,8.39,8.39,0,0,0-1.1-.9ZM40.3,1.06a10.09,10.09,0,0,0,1.29,2.82,10.33,10.33,0,0,0,1.92,2.17,11.92,11.92,0,0,0,2.21,1.49l0,.33a6.62,6.62,0,0,0-1.45,1.38,3.49,3.49,0,0,0-.68,1.62,11,11,0,0,1-1.68-2.6A20.07,20.07,0,0,1,40.66,5a33.4,33.4,0,0,1-.77-3.63Z"/><path class="cls-1" d="M46.37,22.87v-.79l2.37-.6.46-.05,2.62.07v.8ZM48,22.7,54,4.15l2.28-.26,6.1,17.28-3.77.41-5-15.12.48-.08L54,6.74l-4.8,15.82Zm2.69-6,.19-.82L58.56,15l.19.8Zm5.18,5.2v-.81l3.27-.67,1.32-.15,3.38,0V21Z"/><path class="cls-1" d="M65,5.83V5l4.13-.44V5.71l-.36,0Zm0,17v-.81l3.77-.75.36,0v1.16Zm2.21-.26c0-1.41,0-2.83.06-4.27s0-2.89,0-4.35v-.93c0-1.4,0-2.78,0-4.16s0-2.75-.06-4.12L71,4.39C71,5.75,71,7.12,71,8.51s0,2.79,0,4.23v.51c0,1.61,0,3.16,0,4.64s0,2.93.08,4.33Zm1.92-.19v-.87l3.24-.33a5,5,0,0,0,3.12-1.36,4.24,4.24,0,0,0,1.13-3.11,3.56,3.56,0,0,0-1.08-2.93,4.64,4.64,0,0,0-3.39-.62l-3,.31v-.84L72,12.38a4.2,4.2,0,0,0,2.9-1.29,4.31,4.31,0,0,0,1-2.93A3.16,3.16,0,0,0,75,5.74a3.38,3.38,0,0,0-2.76-.58l-3.09.31V4.58l4-.43a9.55,9.55,0,0,1,3.62.16,3.45,3.45,0,0,1,2,1.27,3.59,3.59,0,0,1,.62,2.12,3.83,3.83,0,0,1-.56,1.94A5,5,0,0,1,77,11.36a11.81,11.81,0,0,1-3.58,1.26l0-.24a13,13,0,0,1,4,.32A4.09,4.09,0,0,1,79.74,14a3.59,3.59,0,0,1,.71,2.26,4.66,4.66,0,0,1-1.63,3.52,7.7,7.7,0,0,1-2.44,1.42,15.14,15.14,0,0,1-3.85.84Z"/><path class="cls-1" d="M90.67,22.44a8,8,0,0,1-3.17-.25,6.87,6.87,0,0,1-2.68-1.51A7.33,7.33,0,0,1,83,17.93a10.68,10.68,0,0,1-.67-4A11.75,11.75,0,0,1,83,9.84a9.44,9.44,0,0,1,1.85-3.13A9.23,9.23,0,0,1,87.5,4.63a9.45,9.45,0,0,1,3.17-1A8.18,8.18,0,0,1,93.85,4a6.79,6.79,0,0,1,2.68,1.5A7.21,7.21,0,0,1,98.38,8.2a10.93,10.93,0,0,1,.67,4,12.05,12.05,0,0,1-.67,4.11,9.72,9.72,0,0,1-1.85,3.13,9.33,9.33,0,0,1-2.68,2.07A8.66,8.66,0,0,1,90.67,22.44Zm0-.89a3.54,3.54,0,0,0,2-.84,5.5,5.5,0,0,0,1.4-1.93A11.8,11.8,0,0,0,94.88,16a19.1,19.1,0,0,0,.28-3.4,18.11,18.11,0,0,0-.28-3.34,9.81,9.81,0,0,0-.82-2.6A4.09,4.09,0,0,0,92.66,5a2.94,2.94,0,0,0-2-.44,3.55,3.55,0,0,0-2,.86,5.44,5.44,0,0,0-1.41,1.94,11.72,11.72,0,0,0-.82,2.77,18.9,18.9,0,0,0-.28,3.39,18.07,18.07,0,0,0,.28,3.33,9.77,9.77,0,0,0,.82,2.61,4.2,4.2,0,0,0,1.41,1.65A2.82,2.82,0,0,0,90.67,21.55Z"/><path class="cls-1" d="M100.58,5.83V5l8.26-.87V5L105,5.69l-.69.07Zm9,16.54A7.65,7.65,0,0,1,106,22a4.48,4.48,0,0,1-2.42-2.11,8.89,8.89,0,0,1-.88-4.33V8.89c0-1.37,0-2.73-.07-4.09l3.82-.41c0,1.36,0,2.72,0,4.08s0,2.73,0,4.11v2.28a9.85,9.85,0,0,0,.49,3.46,3.09,3.09,0,0,0,1.45,1.77,4.14,4.14,0,0,0,2.33.33A4.6,4.6,0,0,0,114,18.64a8,8,0,0,0,1.11-4.86L115.08,3.5l1.18-.14-.08,10.44q0,4.08-1.72,6.16A6.91,6.91,0,0,1,109.61,22.37ZM112.3,4.58V3.79l6.4-.67v.79L116,4.56l-.72.07Z"/><path class="cls-1" d="M119.71,10.1,119.83,5l15.55-1.66.12,5-1.32.15-1.36-4.9,1.72.72L120.62,5.86l1.78-1.11L121.06,10Zm3.51,12.39V21.7l3.84-.77,1-.1,3.94,0v.8Zm2.47-.24q0-2.07.06-4.17c0-1.4,0-2.8,0-4.21v-1.1c0-1.41,0-2.81,0-4.2s0-2.79-.06-4.18L129.53,4c0,1.36-.05,2.74-.06,4.15s0,2.82,0,4.22v1.08c0,1.41,0,2.81,0,4.2s0,2.79.06,4.18Z"/></svg>