<svg id="圖層_1" data-name="圖層 1" xmlns="http://www.w3.org/2000/svg" viewBox="0 0 130.8 24.72"><defs><style>.cls-1{fill:#003f57;}</style></defs><path class="cls-1" d="M19.08,6.89l1.12.69,1,.68q.53.36.93.69a.41.41,0,0,1-.21.31,1.09,1.09,0,0,1-.46.15l-21.29,3L0,11.76,17.4,9.31Zm-.82-5.5c.4.26.76.49,1.06.7l1,.65c.35.22.65.44.93.64-.07.26-.29.42-.68.48L1.27,6.58l-.19-.65L16.63,3.74ZM7.13,23.3c0,.1-.13.25-.4.45a5.18,5.18,0,0,1-1,.57,3.8,3.8,0,0,1-1.26.35l-.46,0V13l3.29.84L17,12.48v.7L7.13,14.54Zm9.43-6.84v.68l-11.4,1.6v-.67Zm0,4v.67L5.16,22.75v-.67ZM5.42,5.88a6.44,6.44,0,0,1,2.6.7A2.94,2.94,0,0,1,9.24,7.75,2,2,0,0,1,9.41,9a2.08,2.08,0,0,1-.6,1.06,1.81,1.81,0,0,1-1.09.5,1.7,1.7,0,0,1-1.26-.45,5.66,5.66,0,0,0-.2-1.47A11.36,11.36,0,0,0,5.8,7.25,10.47,10.47,0,0,0,5.21,6ZM8.78,1.42a6.84,6.84,0,0,1,2.58,0,2,2,0,0,1,1.26.68,1.23,1.23,0,0,1,.24,1,1.77,1.77,0,0,1-.52,1,2,2,0,0,1-1.05.54A1.89,1.89,0,0,1,10,4.3a4.53,4.53,0,0,0-.53-1.55,5.3,5.3,0,0,0-.86-1.19ZM18.1,5.28a.77.77,0,0,1-.29.36,1.38,1.38,0,0,1-.63.19q-.53.6-1.29,1.38c-.51.52-1.05,1-1.6,1.55s-1.1,1-1.64,1.42l-.31.07c.22-.55.44-1.15.64-1.83s.41-1.34.6-2,.36-1.28.48-1.83Zm-3.46,7.54L16.13,11l3,1.92a1.47,1.47,0,0,1-.36.33,3.19,3.19,0,0,1-.62.34V22.8c0,.08-.15.22-.45.43a7.26,7.26,0,0,1-1.06.61,4,4,0,0,1-1.23.38l-.55.07V12.77Z"/><path class="cls-1" d="M35.4,16a16.56,16.56,0,0,1-2.92,3.31,24.93,24.93,0,0,1-4,2.87,38.69,38.69,0,0,1-4.79,2.34l-.17-.24a21.63,21.63,0,0,0,3.18-2.44A24.92,24.92,0,0,0,29.35,19,20.9,20.9,0,0,0,31.3,16.2l4.1-.58ZM30.58,3.26a.81.81,0,0,1-.46.4,1.6,1.6,0,0,1-1,0L30,3.41c-.37.49-.83,1-1.37,1.64S27.49,6.24,26.88,6.8A18,18,0,0,1,25.2,8.21l0-.24L26.4,7.8A6.17,6.17,0,0,1,26,9.66a1.81,1.81,0,0,1-.71.83L23.86,7.87l.87-.33a2.67,2.67,0,0,0,.47-.22,5.09,5.09,0,0,0,.58-1c.19-.42.38-.88.56-1.39s.34-1,.48-1.47a10.87,10.87,0,0,0,.3-1.28Zm1.58,3.2a1,1,0,0,1-.49.32,1.45,1.45,0,0,1-1-.06l.77-.26c-.32.49-.72,1-1.19,1.65s-1,1.23-1.57,1.87S27.57,11.24,27,11.83a19.23,19.23,0,0,1-1.73,1.54l0-.22L26.28,13a4.5,4.5,0,0,1-.38,1.65,2,2,0,0,1-.68.8L23.9,13c.37-.11.66-.21.88-.3a1.21,1.21,0,0,0,.44-.25A9.49,9.49,0,0,0,26.32,11c.39-.62.77-1.29,1.15-2s.71-1.44,1-2.14S29,5.5,29.18,5Zm11.23,5.59,1.11.69c.32.2.65.41,1,.65l.95.65c-.06.27-.3.43-.7.48L24.1,17.57l-.2-.65L41.74,14.4ZM24.67,7.82l2.07-.42,2.9-.58,0,.31-1,.73-1.49,1L25.46,9.94Zm0,5.12L26,12.67c.58-.11,1.23-.25,2-.42l2.23-.49.05.29-1.26.8L27.3,13.92l-2,1.18Zm3.75-3.08a5.74,5.74,0,0,1,1.94,1,2.84,2.84,0,0,1,.88,1.22,2,2,0,0,1,0,1.19,1.79,1.79,0,0,1-.54.9,1.32,1.32,0,0,1-.87.37,1.21,1.21,0,0,1-.95-.43,6.42,6.42,0,0,0,0-1.45,10.94,10.94,0,0,0-.29-1.45A6.07,6.07,0,0,0,28.13,10Zm5.64,3q0,.12-.3.36a4.12,4.12,0,0,1-.77.46,3.36,3.36,0,0,1-1,.28l-.36.05V3.36L34.18,4l3.38-.48v.7l-3.5.48Zm3.21-5.52V8l-4.65.67V8Zm0,3.89v.69l-4.65.65v-.67Zm.24,2a.7.7,0,0,1-.21.45,1.7,1.7,0,0,1-.68.34v8.71q0,.12-.42.36a6.75,6.75,0,0,1-1,.47,6,6,0,0,1-1.28.32l-.55.08V13.46ZM37.2,1.1c-.06.4-.36.66-.89.77-.24.34-.55.73-.93,1.19s-.72.85-1,1.19l-.65.07c0-.4.06-.92.09-1.55s0-1.18,0-1.64ZM35.86,3.79,37,2.42l2.35,1.47a1.68,1.68,0,0,1-.77.5V11.9c0,.07-.12.17-.36.32a8,8,0,0,1-.83.42,3.24,3.24,0,0,1-.92.25l-.41.07V3.77Zm.69,11.67a7.42,7.42,0,0,0,2.61,1.6,15.77,15.77,0,0,0,3.55.9,24.52,24.52,0,0,0,3.78.26l0,.28a3.57,3.57,0,0,0-1.52,1.2,5,5,0,0,0-.88,2,12.15,12.15,0,0,1-3.33-1.22,9.6,9.6,0,0,1-2.56-2,11.75,11.75,0,0,1-1.86-2.86ZM44.78,1a.76.76,0,0,1-.45.37,1.73,1.73,0,0,1-1,0l.86-.24c-.33.46-.76,1-1.27,1.58S41.87,4,41.33,4.5s-1,1-1.51,1.4l0-.26L41,5.45a5.66,5.66,0,0,1-.46,1.87,2.08,2.08,0,0,1-.69.84L38.52,5.52l.85-.32A1.43,1.43,0,0,0,39.79,5a3.47,3.47,0,0,0,.49-1c.16-.41.3-.86.44-1.36s.25-1,.36-1.45S41.26.34,41.3,0Zm1.8,3.15a.82.82,0,0,1-.49.33,1.6,1.6,0,0,1-1-.07l.77-.26c-.29.48-.67,1-1.13,1.64s-1,1.24-1.52,1.87-1.12,1.25-1.71,1.84-1.14,1.11-1.67,1.56l0-.24,1.08-.17a5.06,5.06,0,0,1-.41,1.69,1.71,1.71,0,0,1-.67.78l-1.3-2.45c.36-.12.64-.23.86-.32a1.87,1.87,0,0,0,.44-.23,9.19,9.19,0,0,0,1-1.46c.37-.63.73-1.3,1.08-2s.67-1.44,1-2.12.51-1.29.67-1.8Zm-7.2,1.36,2.07-.42,2.83-.58,0,.33-1,.72c-.44.31-.92.63-1.46,1L40.18,7.66Zm0,5.07,1.31-.27L42.59,10l2-.45,0,.29c-.29.18-.67.43-1.15.76s-1,.68-1.62,1.07-1.21.76-1.82,1.12Zm3.6-3a5.93,5.93,0,0,1,2.11,1,3.11,3.11,0,0,1,1,1.26,2.17,2.17,0,0,1,.16,1.23,1.76,1.76,0,0,1-.48,1,1.41,1.41,0,0,1-.87.44,1.37,1.37,0,0,1-1-.36,7.64,7.64,0,0,0-.17-1.58A10.92,10.92,0,0,0,43.36,9a8.31,8.31,0,0,0-.59-1.26Z"/><path class="cls-1" d="M47.66,23.18v-.79l2.93-.67.55-.07,2.91.07v.79ZM48,6.12V5.3l3.69-.38V6.05l-.33,0ZM50.26,22.9l.07-17.84L51.24,5l.14,9.31v8.5Zm7-.72L50.78,6.07l-.16,0V5l3.52-.38,5.33,13.39-.65.07.17-.43L64.1,3.62l1.32-.14V4.54l-.69.07-.29.84-6,16.61Zm4.68-.51v-.79l3.75-.77.67-.05,3.77,0v.81Zm2.16-.21c.05-1.41.08-2.79.08-4.14s0-2.59,0-3.71l.1-10,3.64-.38c0,1.37-.07,2.76-.08,4.16s0,2.8,0,4.21V12.7c0,1.4,0,2.81,0,4.21s0,2.78.08,4.14ZM66,4.54V3.41L70.08,3v.81l-3.7.72Z"/><path class="cls-1" d="M72.07,6.12V5.3l8.26-.86v.82L76.51,6l-.69.07Zm9,16.54a7.64,7.64,0,0,1-3.57-.33,4.48,4.48,0,0,1-2.42-2.11,8.8,8.8,0,0,1-.88-4.33V9.18c0-1.37,0-2.73-.07-4.09L78,4.68c0,1.36,0,2.72,0,4.08s0,2.73,0,4.1v2.28a9.87,9.87,0,0,0,.49,3.47,3.09,3.09,0,0,0,1.45,1.77,4.14,4.14,0,0,0,2.33.33,4.54,4.54,0,0,0,3.32-1.79,7.9,7.9,0,0,0,1.12-4.86L86.57,3.79l1.17-.14-.07,10.44q0,4.08-1.73,6.15A6.86,6.86,0,0,1,81.1,22.66ZM83.78,4.87V4.08l6.41-.67V4.2l-2.69.65-.72.07Z"/><path class="cls-1" d="M97.18,23a11.31,11.31,0,0,1-3-.06,8.54,8.54,0,0,1-2.54-.78l.17-4L93.17,18l1.32,4.54L92.93,22l-.29-.89a6.39,6.39,0,0,0,2.09.87,8.29,8.29,0,0,0,2.09.07A4.78,4.78,0,0,0,99.64,21a3.1,3.1,0,0,0,1-2.38,3.3,3.3,0,0,0-.26-1.38,2.52,2.52,0,0,0-.87-1,6.42,6.42,0,0,0-1.63-.74l-1.13-.38a9.85,9.85,0,0,1-3.58-2,4.3,4.3,0,0,1-1.24-3.27A4.82,4.82,0,0,1,92.74,7,5.77,5.77,0,0,1,95,5.08a9.35,9.35,0,0,1,3.29-.93,9.11,9.11,0,0,1,2.63.09,7,7,0,0,1,2.15.75l-.17,3.87L101.57,9,100.3,4.66l1.68.55.21,1a7.31,7.31,0,0,0-1.75-1,4.13,4.13,0,0,0-1.73-.14,4.49,4.49,0,0,0-2.57,1,2.89,2.89,0,0,0-1,2.26,2.59,2.59,0,0,0,.7,1.95,5,5,0,0,0,2,1.12l1.2.43A13.67,13.67,0,0,1,102,13.16a4.23,4.23,0,0,1,1.55,1.61A5,5,0,0,1,104,17a5.28,5.28,0,0,1-.79,2.84A6.11,6.11,0,0,1,100.87,22,9.77,9.77,0,0,1,97.18,23Z"/><path class="cls-1" d="M106,6.12V5.33l8.26-.87v.8l-3.8.74-.69.07Zm0,17v-.79l3.77-.77.69-.07,3.8,0v.8Zm2.21-.22c0-1.37.07-2.76.08-4.16s0-2.8,0-4.21V13.46c0-1.4,0-2.8,0-4.2s0-2.78-.08-4.17L112,4.68c0,1.38,0,2.77-.06,4.18s0,2.81,0,4.22v1.08c0,1.39,0,2.79,0,4.19s0,2.79.06,4.19Z"/><path class="cls-1" d="M125.4,22.63a11.82,11.82,0,0,1-3.7-.18,7.08,7.08,0,0,1-3-1.4,6.91,6.91,0,0,1-2-2.69,10.12,10.12,0,0,1-.7-4,11.73,11.73,0,0,1,.72-4.23,9.37,9.37,0,0,1,2-3.2,9.92,9.92,0,0,1,3-2.11,11.67,11.67,0,0,1,3.66-1,10.66,10.66,0,0,1,2.86.05,9.37,9.37,0,0,1,2.35.77L130.56,9l-1.34.15-1.37-4.78,1.85.41v.79a6.4,6.4,0,0,0-1.78-.72,6.2,6.2,0,0,0-1.9-.1,6.09,6.09,0,0,0-3.12,1.24,7.16,7.16,0,0,0-2.2,3,12.52,12.52,0,0,0-.82,4.84,11.39,11.39,0,0,0,.83,4.71,5,5,0,0,0,5.39,3.12,5.63,5.63,0,0,0,1.88-.51,9.05,9.05,0,0,0,1.86-1.22v.89l-1.8.79,1.34-5,1.35-.14.07,4.2A10.83,10.83,0,0,1,128.36,22,11.19,11.19,0,0,1,125.4,22.63Z"/></svg>