<svg id="圖層_1" data-name="圖層 1" xmlns="http://www.w3.org/2000/svg" viewBox="0 0 172.44 401.22"><defs><style>.cls-1{fill:#003f57;}</style></defs><path class="cls-1" d="M1.44,61.2q12.6-1.44,20.16.54t11,5.76a11.16,11.16,0,0,1,3.24,8.1A14.24,14.24,0,0,1,33,83.52a12.28,12.28,0,0,1-6.93,4.77q-4.32,1.17-9.54-1.17a34,34,0,0,0-3.69-9.45,50.22,50.22,0,0,0-6-8.46A53.31,53.31,0,0,0,0,62.64ZM10.8,133a10.62,10.62,0,0,0,3.15-.9,10.77,10.77,0,0,0,2.79-3.42l2.52-4.32q1.26-2.16,3.33-6.21t5.94-12q3.87-7.92,10.53-21.78t17.1-35.64l2.7.36q-2.34,6.3-5,14.49t-5.4,16.83q-2.7,8.64-5.13,16.47T39,110.7q-1.89,5.94-2.61,9-1.26,4.5-2.25,9.18a32.64,32.64,0,0,0-.81,8.28,20,20,0,0,0,1.44,6.66Q36,146.88,37.53,150a40.19,40.19,0,0,1,2.61,7.2A36.11,36.11,0,0,1,41,167.4a17.27,17.27,0,0,1-4.86,11.79,19.9,19.9,0,0,1-11.88,6,10.06,10.06,0,0,1-6.48-1.17q-3.24-1.71-4.5-6.57a108.12,108.12,0,0,0,2.25-17.91,72,72,0,0,0-.63-13.68q-.9-5.49-3.06-6.57a12.3,12.3,0,0,0-4.32-1.71,16.7,16.7,0,0,0-5.22-.09v-3.24q3.42-.54,5.49-.81T10.8,133Zm4-113q13.32-1.62,21.24.27T47.61,26a12.33,12.33,0,0,1,3.78,8.37,12.63,12.63,0,0,1-2.52,8,14.38,14.38,0,0,1-7,5,13.25,13.25,0,0,1-9.63-.63,43.09,43.09,0,0,0-4.68-9.63,70.89,70.89,0,0,0-6.75-8.91,60.57,60.57,0,0,0-7.29-7ZM51.48,71.46,139,59,151,41q4.32,3.24,7.74,5.49t7.11,5q3.69,2.79,6.57,5.13A3.18,3.18,0,0,1,170.82,59a9.65,9.65,0,0,1-3.42,1.26l-114.48,16ZM142.38,0l22.5,18.54a9.49,9.49,0,0,1-4.77,2,19.35,19.35,0,0,1-7.65-.54q-12.24,4-28.8,8.37T89.1,36.72q-18,4-34.74,6.66L53.82,41q11.34-4.14,23.76-9.36T102.06,21q12.06-5.49,22.5-10.89T142.38,0Zm-81,109.62v-9.36l23.94,5.94,57.78-8.1v5l-58.86,8.28v57.42q0,.9-2.88,3.06A40.79,40.79,0,0,1,74,176.13a30.26,30.26,0,0,1-9.36,2.61l-3.24.36Zm13,46.62,68.58-9.72v5l-68.58,9.72ZM97.56,25.38l23.76-6.66V103.5a36.61,36.61,0,0,1-5.22.81q-5,.63-14,2.07l-4.5.54Zm38.34,73.8-2,.18,10.8-13,21.6,13.32a14.24,14.24,0,0,1-2.7,2.7,14.45,14.45,0,0,1-4.5,2.34v53.46q0,.72-3.24,2.7a60.27,60.27,0,0,1-7.65,3.87,27.71,27.71,0,0,1-8.37,2.25l-4,.72Z"/><path class="cls-1" d="M76.32,223.56l19.26,17.1q-3.6,3.42-11.7,1.08-10.44,2.7-24.3,5.85t-28.89,5.85q-15,2.7-29.07,4.68l-.36-2.7q9.36-3.06,19.8-7.2t20.7-8.46Q52,235.44,61,231.3T76.32,223.56ZM1.44,270.72l68-9.54L80.1,246.24q6.84,4.32,11.34,7.2a94.64,94.64,0,0,1,8.1,5.76q-.54,2.88-4.86,3.42l-91.8,13Zm.72,105.12q7.92-1.44,22.32-4.41t32.67-6.93q18.27-4,37.53-8.1l.18,2q-12.24,7-31.14,16.29T17.28,396.18a9.15,9.15,0,0,1-5.58,5Zm2.16-21.6,62.46-8.82,10.08-13.68q6.3,3.78,10.53,6.48t7.83,5.4q-.72,2.88-4.86,3.42L5.76,359.1Zm2.34-66.42v-8.28l21.6,5.22L68.94,279l9.72-12.24L97,278.1a6.2,6.2,0,0,1-2.25,2.43,18.51,18.51,0,0,1-4.41,1.89v42.84q0,.72-4.59,3.24t-12.51,3.6l-3.78.72V284l-43,6.12V337.5q0,1.08-4.41,3.51a33.22,33.22,0,0,1-12,3.33l-3.42.54Zm11.52,20.52,59.58-8.28v5l-59.58,8.28Zm0,22.32,59.58-8.28v5l-59.58,8.46ZM37.62,247l20-6.84V369.18q-.18.9-4.59,3.87a30.12,30.12,0,0,1-11.79,4.23l-3.6.36Zm69.84-25.2,28.8-1.26a6,6,0,0,1-2,3.6,12.17,12.17,0,0,1-4.68,2.34q-.18,22.86-.54,42.84t-2.43,37.44a143.59,143.59,0,0,1-7.74,32.85,104.38,104.38,0,0,1-16.38,28.89Q91.8,382,74.34,394.2l-2-2.34a115,115,0,0,0,19.08-27.09A131.17,131.17,0,0,0,102,335a210.85,210.85,0,0,0,4.59-33.12q1.08-17.46,1-37.35T107.46,221.76ZM91.08,267.84l61-8.64v5.22L92.7,272.7Zm52.56-7.38-2.16.36,11.7-13.5,19.26,14.22a7.36,7.36,0,0,1-2.61,2.7,15.2,15.2,0,0,1-5,2q-.54,27.36-1.26,46t-2.07,30.6a96.48,96.48,0,0,1-3.69,19A32.53,32.53,0,0,1,151.92,373a31.45,31.45,0,0,1-10.26,7.92,45.32,45.32,0,0,1-13,4,53.83,53.83,0,0,0-.36-9.27,10.34,10.34,0,0,0-2.16-5.49,12,12,0,0,0-5-3.69,25.42,25.42,0,0,0-7.74-1.71v-2.34q2.52-.18,5.58-.45l6-.54a38.58,38.58,0,0,0,4.59-.63,8.72,8.72,0,0,0,3.33-.9,11.12,11.12,0,0,0,2.61-2q2.88-3.24,4.41-14t2.34-31.23Q143.1,292.14,143.64,260.46Z"/></svg>