<svg id="圖層_1" data-name="圖層 1" xmlns="http://www.w3.org/2000/svg" viewBox="0 0 147.96 1143.35"><defs><style>.cls-1{fill:#003f57;}</style></defs><path class="cls-1" d="M0,0H5.94L11.7,28.26l.54,5.22.18,28.44H6.48ZM1.62,16.56q15.48.54,31.23.63t31.59.09h8.28q15.84,0,31.5-.09t31.32-.63l3.06,29q-15.48-.36-31.32-.45T75.6,45H67.5q-15.66,0-31.41.09t-31.41.45ZM127.8,0h5.94l6.48,61.92h-5.94L128.7,33.48l-.54-5.22Z"/><path class="cls-1" d="M.18,76.5H6.12l4.5,18.9.72,5.22-.18,25H5.22ZM2,94h128.7l.72,6.84L47.34,103H2.88Zm8.28,85.14L118.44,98.82l.54-.54,9.18-6.48L128,77.22h5.94l4.32,41.94L43,189.9l-1.62-3.6,53.1-.54h50.76l.72,7.56H11.7ZM136.8,161.82h6.12l5,49.32H142l-4.5-18.9-.72-5Z"/><path class="cls-1" d="M5.4,275.4l129.42-47.34,3.06,29.7L30.42,294.3l-.18-2.88,2.7.72,112.14,34.92,1.08,10.08L7,290.34Zm122.4-57.06h5.94l6.66,61.56h-5.58l-5.94-28.26-.72-5.94Zm9.54,86.76h5.58l4.68,44.1h-5.4L137,330.12l-.36-2.7Z"/><path class="cls-1" d="M0,357.66H5.94l5.76,28.26.54,5.22.18,28.44H6.48Zm1.62,16.56q15.48.54,31.23.63t31.59.09h8.28q15.84,0,31.5-.09t31.32-.63l3.06,29q-15.48-.36-31.32-.45t-31.68-.09H67.5q-15.66,0-31.41.09t-31.41.45ZM127.8,357.66h5.94l6.48,61.92h-5.94l-5.58-28.44-.54-5.22Z"/><path class="cls-1" d="M2.88,457.92H8.82l5.76,28.8.72,7.56.36,29.52H9.72Zm1.8,18.54q15.48.36,31.23.45T67.5,477h8.28q15.84,0,31.5-.09t31.32-.45l2.88,28.8q-15.3-.36-31.14-.45t-31.68-.09h-8.1q-15.84,0-31.5.09t-31.32.45Zm91.08-44.82,38,.9,12.42,116.64-37.8.9-1.08-9.9L144,529.92l-5.4,13-11-104.4,8.28,13.32L96.84,441.72Z"/><path class="cls-1" d="M0,542.33H5.94l4.5,17.83.36,3.42-.54,19.62H4.32Zm1.26,12.25,139.14,45,2,17.1L12.78,662.4,9.72,634.14l113.4-37.44.54,3.6-2.7-.54-118.62-36Zm6.3,59h6.12l5,24.48L19.8,648,20,673.38H13.86Zm39.06-38.88,6.12,1.44,6.12,57.6-5.94,1.44Z"/><path class="cls-1" d="M2.88,691.92H8.82l5.76,28.79.72,7.57.36,29.51H9.72Zm1.8,18.54q15.48.35,31.23.45T67.5,711h8.28q15.84,0,31.5-.09t31.32-.45l2.88,28.79q-15.3-.36-31.14-.45t-31.68-.09h-8.1q-15.84,0-31.5.09t-31.32.45Zm91.08-44.83,38,.91,12.42,116.63-37.8.91-1.08-9.91L144,763.92l-5.4,13-11-104.4,8.28,13.31L96.84,675.71Z"/><path class="cls-1" d="M0,795.77H5.94L11.7,824l.54,5.22.18,28.44H6.48Zm1.62,16.56q15.48.54,31.23.63t31.59.09h8.28q15.84,0,31.5-.09t31.32-.63l3.06,29q-15.48-.36-31.32-.45t-31.68-.09H67.5q-15.66,0-31.41.09t-31.41.45ZM127.8,795.77h5.94l6.48,61.92h-5.94l-5.58-28.44-.54-5.22Z"/><path class="cls-1" d="M3.24,934a59.27,59.27,0,0,1,1.89-23.76,51,51,0,0,1,11.34-20.16,54.78,54.78,0,0,1,20.61-13.86q12.6-5,29.88-5a88.56,88.56,0,0,1,30.78,5,71.83,71.83,0,0,1,23.49,13.86,69,69,0,0,1,15.57,20.16A69.85,69.85,0,0,1,144,934a61.67,61.67,0,0,1-2.07,23.85,51.63,51.63,0,0,1-11.25,20.07,53.85,53.85,0,0,1-20.61,13.86q-12.69,5-30,5a88.56,88.56,0,0,1-30.78-5,71.83,71.83,0,0,1-23.49-13.86,69.37,69.37,0,0,1-15.57-20.07A66.37,66.37,0,0,1,3.24,934Zm6.66,0A26.63,26.63,0,0,0,16.2,949a41.19,41.19,0,0,0,14.49,10.44,86.33,86.33,0,0,0,20.88,6.21A147.43,147.43,0,0,0,77,967.67a139.72,139.72,0,0,0,25-2.07,71.87,71.87,0,0,0,19.53-6.21A31,31,0,0,0,133.92,949q4.14-6.3,3.24-14.94a26.76,26.76,0,0,0-6.39-15,41.55,41.55,0,0,0-14.58-10.53,86.39,86.39,0,0,0-20.79-6.21A145.87,145.87,0,0,0,70,900.17a139.72,139.72,0,0,0-25,2.07,71.87,71.87,0,0,0-19.53,6.21A31.46,31.46,0,0,0,13.05,919,21.52,21.52,0,0,0,9.9,934Z"/><path class="cls-1" d="M.18,1008.71H6.12l4.5,18.9.72,5.22-.18,25H5.22ZM2,1026.17h128.7l.72,6.84-84.06,2.16H2.88Zm8.28,85.14L118.44,1031l.54-.54,9.18-6.48-.18-14.58h5.94l4.32,41.94L43,1122.11l-1.62-3.6,53.1-.54h50.76l.72,7.56H11.7ZM136.8,1094h6.12l5,49.32H142l-4.5-18.9-.72-5Z"/></svg>