<svg id="圖層_1" data-name="圖層 1" xmlns="http://www.w3.org/2000/svg" viewBox="0 0 147.96 634.68"><defs><style>.cls-1{fill:#003f57;}</style></defs><path class="cls-1" d="M0,0H5.94L11.7,28.26l.36,2.7H3.24ZM1.8,16.56q15.48.36,31.14.45t31.68.09H72.9q15.84,0,31.5-.09t31.14-.45l3.06,28.8q-15.3-.36-31.23-.45T74.7,44.82H69.48q-17.1,0-33,.09t-31.59.45ZM3.24,31h6.84l7.38,69.12L9.54,86.22l36.9,9.36,1.08,9.54L11,105.3Zm51.3,42.3,19.8-2.7h3.78l20,2.7L99,81.9H55.44ZM68.22,31H74.7l4.5,44.46H72.9ZM108.36,91.8l33.84-9.18L137,96.3,130.14,31H137l7.56,70.56-35.1.18ZM127.8,0h5.94L137,31h-8.46l-.36-2.7Z"/><path class="cls-1" d="M5.4,169.56l129.42-47.34,3.06,29.7L30.42,188.46l-.18-2.88,2.7.72,112.14,34.92,1.08,10.08L7,184.5ZM127.8,112.5h5.94l6.66,61.56h-5.58l-5.94-28.26-.72-5.94Zm9.54,86.76h5.58l4.68,44.1h-5.4L137,224.28l-.36-2.7Z"/><path class="cls-1" d="M0,251.82H5.94l5.76,28.26.36,2.7H3.24Zm1.8,16.56q15.48.36,31.14.45t31.68.09H72.9q15.84,0,31.5-.09t31.14-.45l3.06,28.8q-15.3-.36-31.23-.45t-32.67-.09H69.48q-17.1,0-33,.09t-31.59.45Zm1.44,14.4h6.84l7.38,69.12L9.54,338l36.9,9.36,1.08,9.54L11,357.12Zm51.3,42.3,19.8-2.7h3.78l20,2.7.9,8.64H55.44Zm13.68-42.3H74.7l4.5,44.46H72.9Zm40.14,60.84,33.84-9.18L137,348.12l-6.84-65.34H137l7.56,70.56-35.1.18Zm19.44-91.8h5.94l3.24,31h-8.46l-.36-2.7Z"/><path class="cls-1" d="M.18,371.34H6.12l4.5,18.9.72,5.22-.18,25H5.22ZM2,388.8h128.7l.72,6.84L47.34,397.8H2.88Zm8.28,85.14,108.18-80.28.54-.54,9.18-6.48L128,372.06h5.94L138.24,414,43,484.74l-1.62-3.6,53.1-.54h50.76l.72,7.56H11.7ZM136.8,456.66h6.12L148,506H142l-4.5-18.9-.72-5Z"/><path class="cls-1" d="M2.88,542.52H8.82l5.76,28.8.72,7.56.36,29.52H9.72Zm1.8,18.54q15.48.36,31.23.45t31.59.09h8.28q15.84,0,31.5-.09t31.32-.45l2.88,28.8q-15.3-.36-31.14-.45t-31.68-.09h-8.1q-15.84,0-31.5.09t-31.32.45Zm91.08-44.82,38,.9,12.42,116.64-37.8.9-1.08-9.9L144,614.52l-5.4,13-11-104.4,8.28,13.32L96.84,526.32Z"/></svg>