<svg id="圖層_1" data-name="圖層 1" xmlns="http://www.w3.org/2000/svg" viewBox="0 0 173.16 831.06"><defs><style>.cls-1{fill:#003f57;}</style></defs><path class="cls-1" d="M2,61.2q12.6-1.44,20.16.54t11,5.76a11.16,11.16,0,0,1,3.24,8.1,14.24,14.24,0,0,1-2.79,7.92,12.28,12.28,0,0,1-6.93,4.77q-4.32,1.17-9.54-1.17a34,34,0,0,0-3.69-9.45,50.22,50.22,0,0,0-6-8.46A53.31,53.31,0,0,0,.54,62.64ZM11.34,133a10.62,10.62,0,0,0,3.15-.9,10.77,10.77,0,0,0,2.79-3.42l2.52-4.32q1.26-2.16,3.33-6.21t5.94-12q3.87-7.92,10.53-21.78T56.7,48.78l2.7.36q-2.34,6.3-5,14.49T49,80.46q-2.7,8.64-5.13,16.47T39.51,110.7q-1.89,5.94-2.61,9-1.26,4.5-2.25,9.18a32.64,32.64,0,0,0-.81,8.28,20,20,0,0,0,1.44,6.66q1.26,3.06,2.79,6.21a40.19,40.19,0,0,1,2.61,7.2,36.11,36.11,0,0,1,.9,10.17,17.27,17.27,0,0,1-4.86,11.79,19.9,19.9,0,0,1-11.88,6,10.06,10.06,0,0,1-6.48-1.17q-3.24-1.71-4.5-6.57a108.12,108.12,0,0,0,2.25-17.91,72,72,0,0,0-.63-13.68q-.9-5.49-3.06-6.57a12.3,12.3,0,0,0-4.32-1.71,16.7,16.7,0,0,0-5.22-.09v-3.24q3.42-.54,5.49-.81T11.34,133Zm4-113q13.32-1.62,21.24.27T48.15,26a12.33,12.33,0,0,1,3.78,8.37,12.63,12.63,0,0,1-2.52,8,14.38,14.38,0,0,1-7,5,13.25,13.25,0,0,1-9.63-.63,43.09,43.09,0,0,0-4.68-9.63,70.89,70.89,0,0,0-6.75-8.91,60.57,60.57,0,0,0-7.29-7ZM52,71.46,139.5,59l12.06-18q4.32,3.24,7.74,5.49t7.11,5q3.69,2.79,6.57,5.13A3.18,3.18,0,0,1,171.36,59a9.65,9.65,0,0,1-3.42,1.26l-114.48,16ZM142.92,0l22.5,18.54a9.49,9.49,0,0,1-4.77,2A19.35,19.35,0,0,1,153,20q-12.24,4-28.8,8.37T89.64,36.72q-18,4-34.74,6.66L54.36,41Q65.7,36.9,78.12,31.68T102.6,21q12.06-5.49,22.5-10.89T142.92,0Zm-81,109.62v-9.36l23.94,5.94,57.78-8.1v5l-58.86,8.28v57.42q0,.9-2.88,3.06a40.79,40.79,0,0,1-7.38,4.23,30.26,30.26,0,0,1-9.36,2.61l-3.24.36Zm13,46.62,68.58-9.72v5l-68.58,9.72ZM98.1,25.38l23.76-6.66V103.5a36.61,36.61,0,0,1-5.22.81q-5,.63-14,2.07l-4.5.54Zm38.34,73.8-2,.18,10.8-13,21.6,13.32a14.24,14.24,0,0,1-2.7,2.7,14.45,14.45,0,0,1-4.5,2.34v53.46q0,.72-3.24,2.7a60.27,60.27,0,0,1-7.65,3.87A27.71,27.71,0,0,1,140.4,167l-4,.72Z"/><path class="cls-1" d="M76.86,223.56l19.26,17.1q-3.6,3.42-11.7,1.08-10.44,2.7-24.3,5.85t-28.89,5.85q-15,2.7-29.07,4.68l-.36-2.7q9.36-3.06,19.8-7.2t20.7-8.46q10.26-4.32,19.26-8.46T76.86,223.56ZM2,270.72l68-9.54,10.62-14.94q6.84,4.32,11.34,7.2a94.64,94.64,0,0,1,8.1,5.76q-.54,2.88-4.86,3.42l-91.8,13ZM2.7,375.84q7.92-1.44,22.32-4.41t32.67-6.93q18.27-4,37.53-8.1l.18,2q-12.24,7-31.14,16.29T17.82,396.18a9.15,9.15,0,0,1-5.58,5Zm2.16-21.6,62.46-8.82L77.4,331.74q6.3,3.78,10.53,6.48t7.83,5.4Q95,346.5,90.9,347L6.3,359.1ZM7.2,287.82v-8.28l21.6,5.22L69.48,279l9.72-12.24L97.56,278.1a6.2,6.2,0,0,1-2.25,2.43,18.51,18.51,0,0,1-4.41,1.89v42.84q0,.72-4.59,3.24T73.8,332.1l-3.78.72V284l-43,6.12V337.5q0,1.08-4.41,3.51a33.22,33.22,0,0,1-12,3.33l-3.42.54Zm11.52,20.52,59.58-8.28v5l-59.58,8.28Zm0,22.32,59.58-8.28v5l-59.58,8.46ZM38.16,247l20-6.84V369.18q-.18.9-4.59,3.87a30.12,30.12,0,0,1-11.79,4.23l-3.6.36ZM108,221.76l28.8-1.26a6,6,0,0,1-2,3.6,12.17,12.17,0,0,1-4.68,2.34q-.18,22.86-.54,42.84t-2.43,37.44a143.59,143.59,0,0,1-7.74,32.85,104.38,104.38,0,0,1-16.38,28.89Q92.34,382,74.88,394.2l-2-2.34A115,115,0,0,0,92,364.77,131.17,131.17,0,0,0,102.51,335a210.85,210.85,0,0,0,4.59-33.12q1.08-17.46,1-37.35T108,221.76ZM91.62,267.84l61-8.64v5.22l-59.4,8.28Zm52.56-7.38-2.16.36,11.7-13.5L173,261.54a7.36,7.36,0,0,1-2.61,2.7,15.2,15.2,0,0,1-5,2q-.54,27.36-1.26,46t-2.07,30.6a96.48,96.48,0,0,1-3.69,19A32.53,32.53,0,0,1,152.46,373a31.45,31.45,0,0,1-10.26,7.92,45.32,45.32,0,0,1-13,4,53.83,53.83,0,0,0-.36-9.27,10.34,10.34,0,0,0-2.16-5.49,12,12,0,0,0-5-3.69,25.42,25.42,0,0,0-7.74-1.71v-2.34q2.52-.18,5.58-.45l6-.54a38.58,38.58,0,0,0,4.59-.63,8.72,8.72,0,0,0,3.33-.9,11.12,11.12,0,0,0,2.61-2q2.88-3.24,4.41-14t2.34-31.23Q143.64,292.14,144.18,260.46Z"/><path class="cls-1" d="M35.1,572.4a13.42,13.42,0,0,1,4,.18,8.66,8.66,0,0,1,3,1.62,43.89,43.89,0,0,0,17,8.37q9.63,2.43,23.4,2a318.16,318.16,0,0,0,33-3.15q15.12-2.16,28.62-4.32t28.8-5v2a20.11,20.11,0,0,0-10.26,8.28,31.16,31.16,0,0,0-4.5,12.6q-6.3.9-14.85,2.07l-17.55,2.43q-9,1.26-17.28,2.52-18.9,2.7-31.41,1.35t-21.24-6.84A60.61,60.61,0,0,1,39.78,581Q38,578.52,36.36,579t-3.06,3q-1.8,3.42-4.68,8.73L22.41,602.1q-3.33,6.12-5.85,11.52a4.09,4.09,0,0,1-1.8,4.32L0,598l9.81-7.38q5.49-4.14,10.62-8.28t9.18-6.93Q33.66,572.58,35.1,572.4Zm7.74,2.88-20.16,8.28v-65l-20,2.88L1.62,516.6,20,514.08l10.26-15.3L52,513.36A14.16,14.16,0,0,1,48.78,516a35.07,35.07,0,0,1-5.94,2.79Zm-33.12-122q13.5,1.44,21.42,5.67t11.43,9.54A17.59,17.59,0,0,1,45.9,478.8a15.41,15.41,0,0,1-3,8.82,12,12,0,0,1-7.29,4.77q-4.5,1-9.54-2.07a60.15,60.15,0,0,0-4.14-13,102,102,0,0,0-6.57-12.42,105.51,105.51,0,0,0-7.47-10.62Zm93.06,56.7q5.76,3.42,9.72,5.58a85.93,85.93,0,0,1,7.38,4.5q-.54,2.88-4.86,3.42l-68.76,9.72-1.44-4.86,48.78-6.84Zm-21.06,13.5a99.48,99.48,0,0,1-3.33,20.16,70,70,0,0,1-9.54,20.61q-6.75,10.17-19.53,19.17l-2.34-2a68,68,0,0,0,10-19.08,82.53,82.53,0,0,0,3.69-18.54q.72-9.18.9-17.46ZM70.92,509q0,.9-2.43,2.61A35.51,35.51,0,0,1,62.37,515a28.53,28.53,0,0,1-7.65,2.16l-2.7.36V457.92l19.62,5,26.64-3.78v5.22l-27.36,3.78Zm28.62-11.88v5.22l-34,4.68v-5Zm-.72-18.54v5l-33.12,4.5v-5Zm-29.34,29q9.36-.9,14.31.54t6.39,4.05a6.48,6.48,0,0,1,.36,5.58,11.17,11.17,0,0,1-4,5.13A12.2,12.2,0,0,1,80,525.33a11.8,11.8,0,0,1-7.47-2.25,16.73,16.73,0,0,0-1-8.19A19.23,19.23,0,0,0,68,508.68ZM98.1,440.82a6,6,0,0,1-1.89,3.24,8.61,8.61,0,0,1-4.41,2q-3.6,4.32-8.82,9.45t-9.9,9.45l-2.7.36q.72-5.22,1.08-12.24t.36-12.42ZM88.38,537.3,97.92,527l16.92,11.34a7.37,7.37,0,0,1-2.34,2.07,16.88,16.88,0,0,1-4.14,1.71,143.52,143.52,0,0,1-3.15,21.24q-1.89,7.38-6.57,11.34a20.79,20.79,0,0,1-6.75,3.6,56.35,56.35,0,0,1-8.19,2,26.68,26.68,0,0,0-.54-5.58,7.74,7.74,0,0,0-2-4,9,9,0,0,0-4.05-3,21.92,21.92,0,0,0-6.21-1.53v-2.16q3.42-.36,7.2-.72t5.58-.72a3.88,3.88,0,0,0,1.53-.27,2,2,0,0,0,1-1q1.26-1.62,2.25-7.65t1.71-16.65ZM97.74,536v5.22l-26.64,3.6v-5Zm-8.82-75.42,8.28-9.9,17.1,10.44q-1.26,2.16-5.22,3.42v36.36q0,.54-2.61,2.16a39.94,39.94,0,0,1-6.21,3.06A26.42,26.42,0,0,1,93.6,508l-3.24.36V460.26Zm73.08,4.5a220.49,220.49,0,0,1-7.74,43.74A131.77,131.77,0,0,1,136,547.47Q123.66,565.38,102.42,580L101,578.34a127.86,127.86,0,0,0,23.22-33.57,153.72,153.72,0,0,0,11.88-37.08,251.9,251.9,0,0,0,4.14-39.33Zm-14.94-29a6.77,6.77,0,0,1-1.8,3.33,8.82,8.82,0,0,1-4.5,2.25A206.53,206.53,0,0,1,129.06,481a108.81,108.81,0,0,1-18.9,30.6l-2.7-1.08A204.11,204.11,0,0,0,116.28,475a258.47,258.47,0,0,0,3.42-39.42Zm-26.82,56.34q15.66,8.82,25.38,18.18a85.58,85.58,0,0,1,14.76,18,48.82,48.82,0,0,1,6.3,15.84q1.26,7.2-.36,12t-5.22,5.94q-3.6,1.17-8.46-1.89a83.61,83.61,0,0,0-5.49-16.74q-3.87-8.82-8.82-17.64t-10.26-17q-5.31-8.19-10.17-15Zm34.56-40.32q6.12,4.5,10.35,7.65a83,83,0,0,1,7.29,6q-.72,2.88-4.68,3.42l-41,5.94V470l18.36-2.52Z"/><path class="cls-1" d="M23,784.44q5.22,14,4.14,24.93t-5.94,17a11.4,11.4,0,0,1-6,4,12.93,12.93,0,0,1-7.38.18,8.51,8.51,0,0,1-5.31-4.23,10.09,10.09,0,0,1-.09-9,21.15,21.15,0,0,1,6-7.92A32.84,32.84,0,0,0,14,803a48.3,48.3,0,0,0,4.77-9.09,25,25,0,0,0,2-9.27ZM62.82,671a6.17,6.17,0,0,1-3.42,2.79q-2.7,1.17-7-.09l5.76-1.8q-3.78,5.4-9.27,12.06t-12,13.41q-6.48,6.75-13,12.78a143.68,143.68,0,0,1-12.51,10.35l-.18-2.16,10.62-1.44q-.54,9.18-3.15,14.76t-6.21,7.74l-9.9-22.68a34.33,34.33,0,0,0,6.12-3.06,60.88,60.88,0,0,0,7.83-10.26A155.68,155.68,0,0,0,24.57,689q3.87-7.83,6.93-15.39A102.57,102.57,0,0,0,36,660.24Zm20.52,33.12a6.13,6.13,0,0,1-3.69,2.52q-2.79.9-7.11-.54l5.58-1.62a140.24,140.24,0,0,1-12.06,14.67Q58.5,727.38,49.32,736T30.51,752.4a219.63,219.63,0,0,1-18.27,13.32l-.18-2,10.26-1.44q-.9,9.54-3.69,15.21t-6.57,7.65L2.7,761.94a40.57,40.57,0,0,0,7.38-3.42A90.06,90.06,0,0,0,23.4,745.38q7.2-8.46,14-18.27t12.42-19.44a133.38,133.38,0,0,0,8.46-16.83ZM4.68,716.58q5-.54,13.41-1.71T37,712.08q10.53-1.62,21.51-3.42v2.52Q52,715.14,40,722t-27,14.4Zm3.06,44.64q5.4-.9,15.12-2.79L45,754.11q12.42-2.43,25.2-5.31l.18,2.16q-8.1,4.86-22.77,13.14t-33,17.46Zm30.6,18.18q8.82,4.5,13.14,10a22.58,22.58,0,0,1,5,10.8,20,20,0,0,1-.9,9.72,14.07,14.07,0,0,1-5,6.84,10.83,10.83,0,0,1-7.2,2.16q-3.78-.27-7.38-4.23a87.58,87.58,0,0,0,1.71-18.09,91,91,0,0,0-1.53-16.47ZM54.9,733.86q10.8,2.7,16.83,6.84t8.1,8.82a14.84,14.84,0,0,1,1.26,8.91,13.66,13.66,0,0,1-3.6,7.11,10.77,10.77,0,0,1-6.66,3.33q-3.87.45-8-2.61A51.15,51.15,0,0,0,61.2,755.1a81.41,81.41,0,0,0-3.6-10.8,72.86,72.86,0,0,0-4.5-9.18Zm2.7,39.6q11,1.44,17.19,5.13t8.46,8.1a14.34,14.34,0,0,1,1.62,8.73,13.13,13.13,0,0,1-3.42,7.29,11.46,11.46,0,0,1-6.66,3.6q-3.87.63-8-2.25a43.82,43.82,0,0,0-1.71-10.71,59.56,59.56,0,0,0-4-10.17,47.51,47.51,0,0,0-5.31-8.46ZM126.9,657a6.32,6.32,0,0,1-2.25,3.15,10.59,10.59,0,0,1-4.77,1.89,258.5,258.5,0,0,1-12.51,28.89,178.17,178.17,0,0,1-15.3,24.93A163.18,163.18,0,0,1,74,736.56l-2.34-1.08a196.14,196.14,0,0,0,9.9-24.12q4.68-13.68,8.55-28.71a284.87,284.87,0,0,0,6-29.79ZM97.38,717.12q12.6,3.6,19.71,9.09t9.72,11.61a21.38,21.38,0,0,1,1.8,11.61,17.29,17.29,0,0,1-4,9.09,11.46,11.46,0,0,1-7.74,4.05q-4.59.45-9.45-3.33a53.6,53.6,0,0,0-1.62-14.4,103.75,103.75,0,0,0-4.59-14,120.57,120.57,0,0,0-5.85-12.42Zm56.7-37.44v5l-55.44,7.74,2.52-5.4ZM141.3,681.3l12.06-13.86,19.8,14.94a13.13,13.13,0,0,1-3.24,2.61,21.93,21.93,0,0,1-5.22,2.07q-.72,27.72-2.16,48.15t-3.6,34.47a136.26,136.26,0,0,1-5.22,23q-3.06,8.91-7.38,13.77a39.69,39.69,0,0,1-11.79,9.09,47,47,0,0,1-15,4.23,44.84,44.84,0,0,0-.81-9.09,11.37,11.37,0,0,0-2.79-5.85,13.69,13.69,0,0,0-6.57-3.87A51.92,51.92,0,0,0,98.82,799v-2.34q4-.36,8.55-.54t8.64-.63q4-.45,6.39-.63a11.83,11.83,0,0,0,4-1.26,13.84,13.84,0,0,0,3.06-2.34q4-4,6.66-17.46t4.5-36.72q1.8-23.22,2.88-56Z"/></svg>