<svg id="圖層_1" data-name="圖層 1" xmlns="http://www.w3.org/2000/svg" viewBox="0 0 172.98 390.43"><defs><style>.cls-1{fill:#003f57;}</style></defs><path class="cls-1" d="M146.7,42.13q4.68,2.88,8.37,5.22t7.65,5q4,2.7,7,5.22A3.18,3.18,0,0,1,168.12,60,7.67,7.67,0,0,1,164.7,61L5,83.53,3.6,78.67,134.1,60.31ZM140.58.91q4.5,2.88,7.92,5.22T155.79,11q3.87,2.52,6.93,4.86-.72,2.88-5,3.6L13.14,39.79,11.7,34.93,128.34,18.55ZM57.06,165.25q0,1.08-3,3.33a41.34,41.34,0,0,1-7.38,4.32,29.46,29.46,0,0,1-9.45,2.61l-3.42.36V88l24.66,6.3L131,84.07v5.22l-74,10.26ZM127.8,114v5L42.3,131.05v-5Zm0,30.06v5L42.3,161.11v-5ZM44.28,34.57q12.6,1.26,19.44,5.22t9.18,8.82a14.37,14.37,0,0,1,1.26,9.63,15.48,15.48,0,0,1-4.5,8,13.41,13.41,0,0,1-8.19,3.69q-4.77.45-9.45-3.33a43.46,43.46,0,0,0-1.44-11.07,93.11,93.11,0,0,0-3.51-10.71,75.93,75.93,0,0,0-4.41-9.36ZM69.48,1.09Q81.9-.89,88.83.73t9.45,5.13a9.47,9.47,0,0,1,1.8,7.47,13.07,13.07,0,0,1-4,7.11,15.16,15.16,0,0,1-7.83,4,14.28,14.28,0,0,1-9.63-1.8,33.75,33.75,0,0,0-4-11.61,40.24,40.24,0,0,0-6.48-8.91Zm69.84,29a5.2,5.2,0,0,1-2.16,2.7,10.77,10.77,0,0,1-4.68,1.44q-4,4.5-9.72,10.35t-12,11.61q-6.21,5.76-12.33,10.62l-2.34.54q2.52-6.12,4.86-13.68t4.5-15.12q2.16-7.56,3.6-13.68ZM113.4,86.59l11.16-13.86,22.68,14.4a11.1,11.1,0,0,1-2.7,2.52,27.43,27.43,0,0,1-4.68,2.52v69.3q0,.9-3.33,3.24a56.76,56.76,0,0,1-8,4.59,29.23,29.23,0,0,1-9.18,2.79l-4.14.54V86.23Z"/><path class="cls-1" d="M89.1,326.53a125,125,0,0,1-21.87,24.84,188.43,188.43,0,0,1-30.06,21.51A280.79,280.79,0,0,1,1.26,390.43L0,388.63a168.54,168.54,0,0,0,23.85-18.27,192.33,192.33,0,0,0,19.89-21.15A156.83,156.83,0,0,0,58.32,328l30.78-4.32ZM52.92,231a5.93,5.93,0,0,1-3.42,3q-2.7,1.17-7.38.09l6.3-2q-4.14,5.58-10.26,12.33t-13,13.14A129.91,129.91,0,0,1,12.6,268l-.18-1.8L21.6,265q-1.08,9.36-3.33,13.95T13,285.13L2.52,265.51q4.14-1.62,6.57-2.52a18.1,18.1,0,0,0,3.51-1.62,35.67,35.67,0,0,0,4.32-7.47q2.16-4.77,4.23-10.44t3.6-11.07A95.8,95.8,0,0,0,27,222.85ZM64.8,254.89a6.92,6.92,0,0,1-3.69,2.43q-2.79,1-7.11-.45l5.76-2q-3.6,5.58-8.91,12.42t-11.79,14q-6.48,7.2-13.14,13.86a135.8,135.8,0,0,1-13,11.52l-.18-1.62L20.7,304q-.72,8.28-2.88,12.42a14.86,14.86,0,0,1-5,5.94l-9.9-18.54Q7,302.59,9.45,301.6a10.57,10.57,0,0,0,3.33-1.89A71.86,71.86,0,0,0,21,288.82q4.41-6.93,8.64-15.12t7.56-16.11q3.33-7.92,5.31-13.86ZM149,296.83q4.68,3.06,8.28,5.22t7.47,4.86q3.87,2.7,7.11,4.86-.72,3.06-5.22,3.6L4.32,338.23l-1.44-4.86,133.74-18.9ZM8.64,265.15q5-1.08,15.48-3.15t21.78-4.41l.18,2.34q-2.7,2-7.74,5.49t-11.16,7.47q-6.12,4-12.6,8.1Zm0,38.34,10.26-2q6.48-1.26,14.76-3.15t16.74-3.69l.36,2.16q-3.6,2.34-9.45,6t-13,8q-7.11,4.32-14.67,8.82Zm28.08-23q9.54,3.06,14.58,7.47a21.06,21.06,0,0,1,6.57,9.18,15.19,15.19,0,0,1,.36,8.91,14,14,0,0,1-4,6.75,10.29,10.29,0,0,1-6.57,2.79q-3.69.18-7.11-3.24a47.49,47.49,0,0,0-.18-10.89,77.72,77.72,0,0,0-2.16-10.89,43.06,43.06,0,0,0-3.6-9.18ZM79,302.77q0,.9-2.25,2.7A28.06,28.06,0,0,1,71,308.89a26.13,26.13,0,0,1-7.29,2.16l-2.7.36V231.67l18.9,5,25.38-3.6v5.22L79,241.93Zm24.12-41.4v5l-34.92,5v-5Zm0,29.16v5.22l-34.92,4.86v-5Zm1.8,15.3a5.4,5.4,0,0,1-1.62,3.42,12.19,12.19,0,0,1-5,2.52v65.34q0,.9-3.15,2.7a53.15,53.15,0,0,1-7.74,3.51,46.22,46.22,0,0,1-9.63,2.43l-4.14.54V307.45Zm-2.34-91.08q-.72,4.5-6.66,5.76-2.7,3.78-7,8.91t-7.38,8.91l-4.86.54q.36-4.5.63-11.61t.09-12.33ZM92.52,234.91l8.64-10.26,17.64,11q-1.62,2.16-5.76,3.78v56.34q0,.72-2.7,2.34a54.2,54.2,0,0,1-6.21,3.15,23.47,23.47,0,0,1-6.93,1.89l-3.06.54V234.73Zm5.22,87.48q7.38,7.38,19.53,12.06a121.91,121.91,0,0,0,26.64,6.75,183.46,183.46,0,0,0,28.35,1.89l-.18,2.16a27,27,0,0,0-11.43,9,37,37,0,0,0-6.57,15.3,90.83,90.83,0,0,1-25-9.18,73.31,73.31,0,0,1-19.17-15.3,88.56,88.56,0,0,1-14-21.42Zm61.74-108.18a6.17,6.17,0,0,1-3.42,2.79q-2.7,1.17-7.56.27l6.48-1.8q-3.78,5.22-9.54,11.88t-11.88,12.87a154.47,154.47,0,0,1-11.34,10.53l-.18-2,9.36-1.44q-1.08,9.54-3.42,14a15.75,15.75,0,0,1-5.22,6.3l-10.26-19.8q4-1.44,6.39-2.43a10.61,10.61,0,0,0,3.15-1.71,26.73,26.73,0,0,0,3.69-7.11q1.71-4.59,3.24-10.17t2.7-10.89q1.17-5.31,1.71-9.09ZM173,237.79a6.13,6.13,0,0,1-3.69,2.52q-2.79.9-7.29-.54l5.76-2a144.93,144.93,0,0,1-8.46,12.33q-5.22,6.93-11.43,14t-12.78,13.77q-6.57,6.66-12.51,11.7l-.18-1.8,8.1-1.26q-.9,8.46-3.06,12.69a13.42,13.42,0,0,1-5,5.85l-9.72-18.36q4-1.44,6.39-2.43a14.74,14.74,0,0,0,3.33-1.71,67.69,67.69,0,0,0,7.74-11q4.14-7,8.1-15.21t7.2-15.93q3.24-7.74,5-13.5Zm-54,10.26q5.22-1.08,15.48-3.15t21.24-4.41l.18,2.52q-2.7,2-7.56,5.4t-10.89,7.38q-6,4-12.51,8.1Zm.36,38,9.81-2q6.21-1.26,13.86-3t15.39-3.33l.36,2.16q-3.24,2-8.64,5.67t-12.15,8q-6.75,4.32-13.59,8.46Zm27-22.68q10.26,2.88,15.84,7.38t7.56,9.45a16.53,16.53,0,0,1,1.17,9.27,13.71,13.71,0,0,1-3.6,7.2,10.21,10.21,0,0,1-6.48,3.24q-3.69.36-7.47-2.7a55.84,55.84,0,0,0-1.26-11.79,79.6,79.6,0,0,0-3.33-11.34,60.87,60.87,0,0,0-4.41-9.45Z"/></svg>