<?xml version="1.0" ?><svg width="64px" height="64px" viewBox="0 0 64 64" xmlns="http://www.w3.org/2000/svg"><title/><path d="M44,7H20A13,13,0,0,0,7,20V44A13,13,0,0,0,20,57H44A13,13,0,0,0,57,44V20A13,13,0,0,0,44,7ZM33,55V38a1,1,0,0,0-1-1H27V31h5a1,1,0,0,0,1-1V22a5,5,0,0,1,5-5h8v6H42a3,3,0,0,0-3,3v4a1,1,0,0,0,1,1h6v6H40a1,1,0,0,0-1,1V55ZM55,44A11,11,0,0,1,44,55H41V39h6a1,1,0,0,0,1-1V30a1,1,0,0,0-1-1H41V26a1,1,0,0,1,1-1h5a1,1,0,0,0,1-1V16a1,1,0,0,0-1-1H38a7,7,0,0,0-7,7v7H26a1,1,0,0,0-1,1v8a1,1,0,0,0,1,1h5V55H20A11,11,0,0,1,9,44V20A11,11,0,0,1,20,9H44A11,11,0,0,1,55,20Z"/></svg>