<svg id="圖層_1" data-name="圖層 1" xmlns="http://www.w3.org/2000/svg" viewBox="0 0 331.92 331.92"><defs><style>.cls-1{fill:none;}.cls-1,.cls-2,.cls-3{stroke:#bf0404;stroke-miterlimit:10;}.cls-2{fill:rgb(217, 222, 227);}.cls-3{fill:rgb(217, 222, 227);}.cls-4{fill:#024059;}</style></defs><rect class="cls-1" x="6.24" y="50.69" width="45.79" height="45.79"/><rect class="cls-1" x="6.24" y="4.9" width="137.36" height="45.79"/><rect class="cls-1" x="52.03" y="50.69" width="45.79" height="45.79"/><rect class="cls-1" x="97.81" y="50.69" width="45.79" height="45.79"/><rect class="cls-1" x="143.6" y="50.69" width="45.79" height="45.79"/><rect class="cls-1" x="189.38" y="50.69" width="45.79" height="45.79"/><rect class="cls-1" x="235.17" y="50.69" width="45.79" height="45.79"/><rect class="cls-1" x="280.96" y="50.69" width="45.79" height="45.79"/><rect class="cls-1" x="52.03" y="96.47" width="45.79" height="45.79"/><rect class="cls-1" x="97.81" y="96.47" width="45.79" height="45.79"/><rect class="cls-1" x="143.6" y="96.47" width="45.79" height="45.79"/><rect class="cls-1" x="189.38" y="96.47" width="45.79" height="45.79"/><rect class="cls-2" x="235.17" y="96.47" width="45.79" height="45.79"/><rect class="cls-2" x="280.96" y="96.47" width="45.79" height="45.79"/><rect class="cls-1" x="6.24" y="142.26" width="45.79" height="45.79"/><rect class="cls-1" x="52.03" y="142.26" width="45.79" height="45.79"/><rect class="cls-1" x="97.81" y="142.26" width="45.79" height="45.79"/><rect class="cls-1" x="143.6" y="142.26" width="45.79" height="45.79"/><rect class="cls-1" x="189.38" y="142.26" width="45.79" height="45.79"/><rect class="cls-1" x="235.17" y="142.26" width="45.79" height="45.79"/><rect class="cls-1" x="280.96" y="142.26" width="45.79" height="45.79"/><rect class="cls-1" x="6.24" y="188.05" width="45.79" height="45.79"/><rect class="cls-1" x="52.03" y="188.05" width="45.79" height="45.79"/><rect class="cls-1" x="97.81" y="188.05" width="45.79" height="45.79"/><rect class="cls-1" x="143.6" y="188.05" width="45.79" height="45.79"/><rect class="cls-3" x="189.38" y="188.05" width="45.79" height="45.79"/><rect class="cls-3" x="235.17" y="188.05" width="45.79" height="45.79"/><rect class="cls-3" x="280.96" y="188.05" width="45.79" height="45.79"/><rect class="cls-1" x="6.24" y="233.83" width="45.79" height="45.79"/><rect class="cls-1" x="52.03" y="233.83" width="45.79" height="45.79"/><rect class="cls-1" x="97.81" y="233.83" width="45.79" height="45.79"/><rect class="cls-1" x="143.6" y="233.83" width="45.79" height="45.79"/><rect class="cls-1" x="189.38" y="233.83" width="45.79" height="45.79"/><rect class="cls-1" x="235.17" y="233.83" width="45.79" height="45.79"/><rect class="cls-1" x="280.96" y="233.83" width="45.79" height="45.79"/><rect class="cls-1" x="6.24" y="279.62" width="45.79" height="45.79"/><rect class="cls-1" x="52.03" y="279.62" width="45.79" height="45.79"/><rect class="cls-1" x="97.81" y="279.62" width="45.79" height="45.79"/><rect class="cls-1" x="143.6" y="279.62" width="45.79" height="45.79"/><rect class="cls-1" x="189.38" y="279.62" width="45.79" height="45.79"/><rect class="cls-1" x="235.17" y="279.62" width="45.79" height="45.79"/><path class="cls-4" d="M17,27.34V26.17l14.13-9,.75,1.29L18.36,26.89v-.54l13.56,5.58-.75,1.47Z"/><path class="cls-4" d="M52.56,35.38l4.35.06v.9L43.83,37.75v-.93l4.68-1Zm-8-17.7L52.38,15l.45.27-.12,4.89v9.54c0,1.16,0,2.34,0,3.53s0,2.36.09,3.52l-4.65.48q.09-3.54.09-7.08V18l-3.69.81Z"/><path class="cls-4" d="M60.9,37.75V35.26q1.29-1.56,2.58-3l2.4-2.73q1.68-2,2.73-3.46a11.92,11.92,0,0,0,1.52-2.82,8.85,8.85,0,0,0,.46-2.84,4.74,4.74,0,0,0-1-3.24,3,3,0,0,0-2.81-.93,6.18,6.18,0,0,0-1.38.29,7.27,7.27,0,0,0-1.41.64l1.47-.84-.72,3.15a3.23,3.23,0,0,1-.86,1.95,2.21,2.21,0,0,1-1.24.6,1.68,1.68,0,0,1-1.83-1A5.54,5.54,0,0,1,62,18a7.51,7.51,0,0,1,2.67-2,11,11,0,0,1,3.54-1,8.45,8.45,0,0,1,3.81.38,4.36,4.36,0,0,1,2.24,1.83A5.63,5.63,0,0,1,75,20.14a6.39,6.39,0,0,1-.82,3.06,15.5,15.5,0,0,1-2.57,3.3,52.82,52.82,0,0,1-4.5,4c-.4.34-.84.74-1.32,1.19l-1.56,1.45q-.84.78-1.68,1.59l0-.54,13-1.38v3.36Z"/><path class="cls-4" d="M83.88,14.44V12.88l4.56.93-.6.06v9.39c0,1.18,0,2.38-.15,3.59A19.51,19.51,0,0,1,87,30.49a16.32,16.32,0,0,1-1.52,3.62,15.88,15.88,0,0,1-2.7,3.46,21.08,21.08,0,0,1-4.27,3.18l-.24-.21a18,18,0,0,0,3-3.9A18.53,18.53,0,0,0,83,32.53a23.72,23.72,0,0,0,.75-4.27c.12-1.45.18-2.92.18-4.4Zm1.74,13.35L98.91,25.9v.84L85.62,28.63Zm.06-13.62,13.26-1.83v.84L85.68,15Zm0,6.69L98.94,19v.84L85.68,21.7ZM97,12.58l-.3,0,1.8-2.28,3.72,2.37a1.54,1.54,0,0,1-.42.44,2.16,2.16,0,0,1-.78.34V34.39a7,7,0,0,1-.35,2.31,3.47,3.47,0,0,1-1.47,1.73,11.55,11.55,0,0,1-3.43,1.3,9.36,9.36,0,0,0-.29-1.68,2.08,2.08,0,0,0-.61-1,2.91,2.91,0,0,0-1.1-.66,6.84,6.84,0,0,0-2-.27v-.39l2-.16,1.55-.14q.72-.06,1-.12a.77.77,0,0,0,.55-.25.92.92,0,0,0,.14-.53Z"/><path class="cls-4" d="M131.28,24.61v1.14l-14.07,9-.78-1.29L130,25.06v.54L116.43,20l.78-1.5Z"/><path class="cls-4" d="M16.35,313.9v-2c.68-.83,1.37-1.64,2.06-2.42l1.92-2.18c.9-1.06,1.62-2,2.18-2.78a9.32,9.32,0,0,0,1.22-2.25A7.06,7.06,0,0,0,24.1,300a3.77,3.77,0,0,0-.81-2.59,2.42,2.42,0,0,0-2.24-.75,5.25,5.25,0,0,0-1.1.23,5.4,5.4,0,0,0-1.13.52l1.17-.67-.57,2.52a2.64,2.64,0,0,1-.69,1.56,1.87,1.87,0,0,1-1,.48,1.36,1.36,0,0,1-1.47-.8,4.48,4.48,0,0,1,1-2.37,6,6,0,0,1,2.13-1.65,9.31,9.31,0,0,1,2.84-.78,6.79,6.79,0,0,1,3,.3,3.47,3.47,0,0,1,1.79,1.47,4.52,4.52,0,0,1,.59,2.34,5.15,5.15,0,0,1-.66,2.45,12.32,12.32,0,0,1-2,2.64,44.77,44.77,0,0,1-3.6,3.19c-.32.27-.67.59-1.06,1L19,310.2l-1.34,1.27,0-.43,10.4-1.1v2.68Z"/><path class="cls-4" d="M36.65,312.79a2.33,2.33,0,0,0,1.78-1.29,7.27,7.27,0,0,0,.72-3.65,5.56,5.56,0,0,0-.68-3.07,2,2,0,0,0-2-.89,4.53,4.53,0,0,0-1.59.5,4.67,4.67,0,0,0-1.46,1.25l-.31-.34a6.2,6.2,0,0,1,4.66-2.8,4.55,4.55,0,0,1,2.63.38,3.65,3.65,0,0,1,1.65,1.69,6,6,0,0,1,.57,2.73,6.24,6.24,0,0,1-.74,3,6.05,6.05,0,0,1-2.07,2.23,7.15,7.15,0,0,1-3.17,1.07,6.24,6.24,0,0,1-3.44-.49A5,5,0,0,1,31,310.87a8.21,8.21,0,0,1-.79-3.81A10.84,10.84,0,0,1,31,303a13.41,13.41,0,0,1,2.33-3.75,15.13,15.13,0,0,1,3.6-3,14.21,14.21,0,0,1,4.64-1.78l.14.58a11.64,11.64,0,0,0-4.39,2.52,10.81,10.81,0,0,0-2.69,4,12.81,12.81,0,0,0-.91,4.74,12,12,0,0,0,.81,5.13C35.06,312.41,35.77,312.89,36.65,312.79Z"/><path class="cls-4" d="M62.88,313.9v-2c.69-.83,1.38-1.64,2.07-2.42s1.32-1.51,1.92-2.18c.89-1.06,1.62-2,2.18-2.78a9.26,9.26,0,0,0,1.21-2.25,6.8,6.8,0,0,0,.37-2.27,3.77,3.77,0,0,0-.8-2.59,2.43,2.43,0,0,0-2.24-.75,5.48,5.48,0,0,0-1.11.23,5.64,5.64,0,0,0-1.13.52l1.18-.67L66,299.26a2.58,2.58,0,0,1-.68,1.56,1.89,1.89,0,0,1-1,.48,1.35,1.35,0,0,1-1.46-.8,4.47,4.47,0,0,1,1-2.37,6.09,6.09,0,0,1,2.14-1.65,9.25,9.25,0,0,1,2.83-.78,6.83,6.83,0,0,1,3,.3,3.47,3.47,0,0,1,1.79,1.47,4.52,4.52,0,0,1,.59,2.34,5.15,5.15,0,0,1-.66,2.45,12.4,12.4,0,0,1-2.06,2.64,41.54,41.54,0,0,1-3.6,3.19c-.32.27-.67.59-1.05,1l-1.25,1.16c-.45.42-.9.84-1.34,1.27l0-.43,10.39-1.1v2.68Z"/><path class="cls-4" d="M78.91,313.51l8.6-16.13.07,1-10.39,1.08v-2.71l11.27-1.18v1.71l-6.07,16.08-3.24.33Z"/><path class="cls-4" d="M109.42,313.9v-2c.68-.83,1.37-1.64,2.06-2.42l1.92-2.18c.9-1.06,1.62-2,2.18-2.78a9.32,9.32,0,0,0,1.22-2.25,7.06,7.06,0,0,0,.37-2.27,3.77,3.77,0,0,0-.81-2.59,2.42,2.42,0,0,0-2.24-.75,5.25,5.25,0,0,0-1.1.23,5.4,5.4,0,0,0-1.13.52l1.17-.67-.57,2.52a2.64,2.64,0,0,1-.69,1.56,1.87,1.87,0,0,1-1,.48,1.36,1.36,0,0,1-1.47-.8,4.48,4.48,0,0,1,1-2.37,6,6,0,0,1,2.13-1.65,9.31,9.31,0,0,1,2.84-.78,6.79,6.79,0,0,1,3,.3,3.47,3.47,0,0,1,1.79,1.47,4.52,4.52,0,0,1,.59,2.34,5.15,5.15,0,0,1-.66,2.45,12.32,12.32,0,0,1-2,2.64,44.77,44.77,0,0,1-3.6,3.19c-.32.27-.67.59-1.06,1l-1.25,1.16-1.34,1.27,0-.43,10.4-1.1v2.68Z"/><path class="cls-4" d="M124,310.34a4.11,4.11,0,0,1,1.17-2.88,10,10,0,0,1,3.37-2.2l.31.09a8.57,8.57,0,0,0-1.49,2,4.65,4.65,0,0,0-.48,2.16,3.75,3.75,0,0,0,.81,2.68,2.54,2.54,0,0,0,2.22.68,3,3,0,0,0,2.11-1,3.25,3.25,0,0,0,.74-2.2,3.15,3.15,0,0,0-.38-1.53,3.78,3.78,0,0,0-1.31-1.3,11.09,11.09,0,0,0-2.53-1.13,6.81,6.81,0,0,1-3.1-1.86,4.17,4.17,0,0,1-1-2.84,4.62,4.62,0,0,1,.74-2.56,5.73,5.73,0,0,1,2-1.85,7.85,7.85,0,0,1,2.88-.9,7.17,7.17,0,0,1,2.92.23,3.4,3.4,0,0,1,1.74,1.23,3.25,3.25,0,0,1,.57,1.9,3.84,3.84,0,0,1-.95,2.42,9.11,9.11,0,0,1-3.2,2.26l-.29-.09a6.24,6.24,0,0,0,1.3-2,6.41,6.41,0,0,0,.38-2.21,3.3,3.3,0,0,0-.67-2.18,2,2,0,0,0-1.87-.67,2.73,2.73,0,0,0-1.31.44,3,3,0,0,0-1.36,2.53,3.17,3.17,0,0,0,.32,1.38,3.12,3.12,0,0,0,1.16,1.24,11.08,11.08,0,0,0,2.46,1.13,8.31,8.31,0,0,1,3.53,2,4.26,4.26,0,0,1,1.13,3,4.66,4.66,0,0,1-.74,2.58,5.46,5.46,0,0,1-2.13,1.88,9.3,9.3,0,0,1-3.42,1,6.3,6.3,0,0,1-4.23-.67A3.09,3.09,0,0,1,124,310.34Z"/><path class="cls-4" d="M151.9,313.9v-2c.68-.83,1.37-1.64,2.06-2.42l1.92-2.18c.9-1.06,1.62-2,2.18-2.78a9.32,9.32,0,0,0,1.22-2.25,7.06,7.06,0,0,0,.37-2.27,3.77,3.77,0,0,0-.81-2.59,2.42,2.42,0,0,0-2.24-.75,5.25,5.25,0,0,0-1.1.23,5.4,5.4,0,0,0-1.13.52l1.17-.67-.57,2.52a2.64,2.64,0,0,1-.69,1.56,1.87,1.87,0,0,1-1,.48,1.36,1.36,0,0,1-1.47-.8,4.48,4.48,0,0,1,1-2.37,6,6,0,0,1,2.13-1.65,9.31,9.31,0,0,1,2.84-.78,6.79,6.79,0,0,1,3,.3,3.47,3.47,0,0,1,1.79,1.47,4.52,4.52,0,0,1,.59,2.34,5.15,5.15,0,0,1-.66,2.45,12.32,12.32,0,0,1-2,2.64,44.77,44.77,0,0,1-3.6,3.19c-.32.27-.67.59-1.06,1l-1.25,1.16-1.34,1.27,0-.43,10.4-1.1v2.68Z"/><path class="cls-4" d="M169.66,301.15a5.34,5.34,0,0,0,.87,3.31,2.51,2.51,0,0,0,2.37,1,3.8,3.8,0,0,0,1.39-.46,5,5,0,0,0,1.2-1l.26.15a4.8,4.8,0,0,1-1.58,1.64,6.18,6.18,0,0,1-5.4.55,4,4,0,0,1-1.9-1.59,5.14,5.14,0,0,1-.69-2.76,5.82,5.82,0,0,1,.87-3.16,6.41,6.41,0,0,1,2.23-2.13,7.52,7.52,0,0,1,3-1,6.36,6.36,0,0,1,3.42.51,4.64,4.64,0,0,1,2.17,2.24,8.9,8.9,0,0,1,.74,3.83,12,12,0,0,1-1.32,5.39,17.07,17.07,0,0,1-3.72,4.89,19.32,19.32,0,0,1-5.69,3.66l-.12-.69A15.26,15.26,0,0,0,172,311.9a14.05,14.05,0,0,0,2.38-4.46,17.3,17.3,0,0,0,.75-5.18,13.63,13.63,0,0,0-.36-3.51,3.49,3.49,0,0,0-1-1.81,1.87,1.87,0,0,0-1.44-.42,2.34,2.34,0,0,0-1.32.6,3.73,3.73,0,0,0-1,1.52A7.23,7.23,0,0,0,169.66,301.15Z"/><path class="cls-4" d="M204.21,304.13l.85-.1a4,4,0,0,0,2.62-1.21,4.18,4.18,0,0,0,1-3,3.52,3.52,0,0,0-.78-2.52,2.49,2.49,0,0,0-2.2-.67,7.36,7.36,0,0,0-2.35.79l1.42-.72-.53,2.45a2,2,0,0,1-.63,1.21,2.19,2.19,0,0,1-1.05.47,1.78,1.78,0,0,1-.73-.12,1,1,0,0,1-.52-.46,4,4,0,0,1,.83-2.35,5,5,0,0,1,2-1.49,9.57,9.57,0,0,1,2.57-.7,5.69,5.69,0,0,1,4.12.76,3.49,3.49,0,0,1,1.35,2.92,4.15,4.15,0,0,1-.58,2.14,5.16,5.16,0,0,1-1.89,1.77,11.37,11.37,0,0,1-3.45,1.22v-.38a10.44,10.44,0,0,1,3.81.32,3.66,3.66,0,0,1,2,1.42,4.08,4.08,0,0,1,.61,2.27,4.66,4.66,0,0,1-.78,2.62,5.84,5.84,0,0,1-2.22,2,9.29,9.29,0,0,1-3.4,1,6.13,6.13,0,0,1-4-.66,3.74,3.74,0,0,1-1.62-2.86,1.6,1.6,0,0,1,.57-.82A1.81,1.81,0,0,1,202,309a1.32,1.32,0,0,1,1.05.29,2.37,2.37,0,0,1,.58,1.44l.48,2.47-1.15-.57a6,6,0,0,0,1,.31,3.76,3.76,0,0,0,1.12,0,4.29,4.29,0,0,0,2.93-1.32,4.47,4.47,0,0,0,1-3.09,3.83,3.83,0,0,0-1-2.91,3.64,3.64,0,0,0-2.91-.72l-1,.1Z"/><path class="cls-4" d="M221.37,295.7a5,5,0,0,1,3,.65,5.59,5.59,0,0,1,2.25,2.68,12.32,12.32,0,0,1,.85,5,13.67,13.67,0,0,1-.85,5.19,7.45,7.45,0,0,1-2.25,3.16,5.83,5.83,0,0,1-3,1.25,4.83,4.83,0,0,1-3-.63,5.61,5.61,0,0,1-2.24-2.69,12.41,12.41,0,0,1-.85-5,14,14,0,0,1,.85-5.22,7.55,7.55,0,0,1,2.24-3.15A5.94,5.94,0,0,1,221.37,295.7ZM218.64,305a30.68,30.68,0,0,0,.21,3.95,9.5,9.5,0,0,0,.6,2.42,2.77,2.77,0,0,0,.88,1.19,1.48,1.48,0,0,0,1,.27,1.89,1.89,0,0,0,1.06-.5,3.63,3.63,0,0,0,.89-1.39,11.91,11.91,0,0,0,.62-2.54,27.47,27.47,0,0,0,.24-4,26.85,26.85,0,0,0-.24-4,10.65,10.65,0,0,0-.62-2.45,2.61,2.61,0,0,0-.89-1.21,1.65,1.65,0,0,0-1.06-.28,2.05,2.05,0,0,0-1,.5,3.71,3.71,0,0,0-.88,1.4,11.68,11.68,0,0,0-.6,2.56A31.92,31.92,0,0,0,218.64,305Z"/><path class="cls-4" d="M246.69,304.13l.84-.1a4,4,0,0,0,2.63-1.21,4.18,4.18,0,0,0,1-3,3.52,3.52,0,0,0-.78-2.52,2.49,2.49,0,0,0-2.2-.67,7.36,7.36,0,0,0-2.35.79l1.42-.72-.53,2.45a2,2,0,0,1-.63,1.21,2.19,2.19,0,0,1-1.05.47,1.78,1.78,0,0,1-.73-.12,1,1,0,0,1-.52-.46,4,4,0,0,1,.83-2.35,4.94,4.94,0,0,1,1.95-1.49,9.47,9.47,0,0,1,2.57-.7,5.71,5.71,0,0,1,4.12.76,3.49,3.49,0,0,1,1.35,2.92,4.15,4.15,0,0,1-.58,2.14,5.16,5.16,0,0,1-1.89,1.77,11.37,11.37,0,0,1-3.45,1.22v-.38a10.44,10.44,0,0,1,3.81.32,3.66,3.66,0,0,1,2,1.42,4.08,4.08,0,0,1,.61,2.27,4.66,4.66,0,0,1-.78,2.62,5.84,5.84,0,0,1-2.22,2,9.28,9.28,0,0,1-3.41,1,6.11,6.11,0,0,1-4-.66,3.74,3.74,0,0,1-1.62-2.86,1.55,1.55,0,0,1,.57-.82,1.81,1.81,0,0,1,.83-.34,1.32,1.32,0,0,1,1,.29,2.43,2.43,0,0,1,.58,1.44l.48,2.47-1.15-.57a5.77,5.77,0,0,0,1,.31,3.76,3.76,0,0,0,1.12,0,4.24,4.24,0,0,0,2.92-1.32,4.43,4.43,0,0,0,1-3.09,3.83,3.83,0,0,0-1-2.91,3.65,3.65,0,0,0-2.91-.72l-1,.1Z"/><path class="cls-4" d="M265.73,312l3.48.05v.72l-10.47,1.13v-.75l3.75-.81Zm-6.39-14.16,6.24-2.11.36.21-.09,3.92v7.63c0,.93,0,1.87,0,2.82s0,1.89.07,2.82l-3.72.38c0-1.89.07-3.77.07-5.66v-9.79l-3,.64Z"/><path class="cls-4" d="M37.46,72.46,39,73.57l1.38,1c.48.37.92.71,1.29,1a.53.53,0,0,1-.28.35,1.52,1.52,0,0,1-.58.19L16.42,79.59l-.24-.84,18.93-2.67Z"/><path class="cls-4" d="M62.24,87.66l19-2.35,2.16-3.18c.52.38,1,.7,1.39,1l1.29.89,1.21.88q-.1.47-.78.54l-24,3ZM64.92,72l13.74-1.91L80.77,67l1.35.89,1.24.87,1.19.83q-.12.47-.81.54L65.13,72.73Z"/><path class="cls-4" d="M129.77,83.64l1.35.88,1.24.81c.44.28.83.55,1.19.82q-.11.43-.78.54l-24.63,3-.21-.76,19.74-2.4Zm-1.4-18.71,1.33.85c.39.24.8.5,1.22.78l1.17.8q-.1.44-.81.51L109.57,71l-.21-.76,17-2.37Zm-2,9.29,1.28.81,1.17.74c.42.26.79.52,1.14.77-.06.31-.32.48-.79.54l-17.82,2.51-.21-.73L124.4,77Z"/><path class="cls-4" d="M158.8,90.66c0,.13-.13.31-.4.55a4,4,0,0,1-1,.68,4.19,4.19,0,0,1-1.38.39l-.57.08V68.44l3.65,1,16.6-2.35v.79L158.8,70.22Zm16.9-5.78v.76l-18.47,2.62V87.5ZM165.33,68.52c0,1.76-.08,3.42-.18,5a20.83,20.83,0,0,1-.7,4.34,12.72,12.72,0,0,1-1.75,3.8A13.62,13.62,0,0,1,159.34,85l-.33-.32a13.32,13.32,0,0,0,1.89-3.39,15.78,15.78,0,0,0,.88-3.66,39.58,39.58,0,0,0,.26-4c0-1.42,0-2.93,0-4.53Zm5.4-.76V78a.54.54,0,0,0,.09.35c.07.07.2.09.4.05l.83-.13.45,0,.36-.06.3,0a1.26,1.26,0,0,0,.3-.08l.35-.12a2.08,2.08,0,0,1,.3-.1l.27,0,.1,0a1.51,1.51,0,0,1,.79.45,1.2,1.2,0,0,1,.21.74,1.67,1.67,0,0,1-.36,1.07,2.84,2.84,0,0,1-1.2.74,11.16,11.16,0,0,1-2.27.48l-1.43.22a4.1,4.1,0,0,1-1.61,0,1,1,0,0,1-.69-.7,5.28,5.28,0,0,1-.16-1.48V68.2Zm3.05-.43,1.62-2,3.19,2.1a1.52,1.52,0,0,1-.41.38,2.4,2.4,0,0,1-.7.33V87.74c0,.08-.15.22-.46.44a7.6,7.6,0,0,1-1.12.62,5.22,5.22,0,0,1-1.28.4l-.57.06v-22Z"/><path class="cls-4" d="M199.59,90.17l20.52-2.88L222,84.23l1.22,1c.36.27.72.56,1.1.86l1,.84c-.07.31-.33.49-.76.54L199.81,90.9Zm1.65-19.68,17-2.4,1.94-2.92,1.26.87c.37.25.76.52,1.16.81s.77.55,1.09.81q-.1.45-.78.54l-21.46,3Zm1.3,7.88L218,76.22V77L202.78,79.1Zm6.85-9,3.68-.49c-.2,1.14-.43,2.39-.69,3.76s-.55,2.8-.85,4.3-.62,3-.93,4.46-.63,2.87-.94,4.21-.59,2.54-.86,3.61l-3.67.51c.29-1.08.58-2.3.89-3.65s.62-2.76.94-4.25.64-3,.94-4.45.57-2.92.83-4.3S209.21,70.43,209.39,69.33Zm6.51,7.18-.27,0,1.68-2,3.24,2a2.43,2.43,0,0,1-.4.35,2.53,2.53,0,0,1-.68.35V87.77l-3.57.51Z"/><path class="cls-4" d="M258.08,77.27a.77.77,0,0,1-.33.36,1.83,1.83,0,0,1-.81.12,33.32,33.32,0,0,1-2,3.85,34.7,34.7,0,0,1-2.59,3.82,37,37,0,0,1-3.1,3.51,25.3,25.3,0,0,1-3.55,2.94l-.17-.13a23.5,23.5,0,0,0,2.29-3.25,40.74,40.74,0,0,0,2-4c.62-1.4,1.18-2.82,1.66-4.24a37.24,37.24,0,0,0,1.16-4.1Zm9.07-8.94,1.39,1,1.27.89q.66.48,1.2.9-.11.47-.81.54L246,75.05l-.22-.75,19.17-2.68ZM254.35,66a11.9,11.9,0,0,1,3.54.21,5.08,5.08,0,0,1,2.1,1,2.71,2.71,0,0,1,.91,1.41,2.76,2.76,0,0,1-.07,1.48,2.66,2.66,0,0,1-.8,1.21,2.31,2.31,0,0,1-2.9.17,7.59,7.59,0,0,0-.5-2,7.37,7.37,0,0,0-1-1.84,6.45,6.45,0,0,0-1.41-1.4Zm6.7,9.31a22.45,22.45,0,0,1,4.69,2.44,14.26,14.26,0,0,1,3,2.76,9.71,9.71,0,0,1,1.57,2.74,6.39,6.39,0,0,1,.39,2.4,3.56,3.56,0,0,1-.54,1.77,1.76,1.76,0,0,1-1.24.8,2.42,2.42,0,0,1-1.69-.52,17.67,17.67,0,0,0-1-3.21,29.68,29.68,0,0,0-1.57-3.21c-.59-1.06-1.23-2.09-1.9-3.07s-1.36-1.87-2-2.68Z"/><path class="cls-4" d="M295.55,70V68.39l3.92,1,12.15-1.7v.79l-12.4,1.72V90.47c0,.14-.14.34-.43.59a4.91,4.91,0,0,1-1.13.73,4.61,4.61,0,0,1-1.49.46l-.62.08Zm1.68,9,13.93-2v.78l-13.93,2Zm0,9.64,13.93-2v.78l-13.93,2ZM309.48,68l-.27,0,1.73-2.16,3.38,2.22a1.85,1.85,0,0,1-.4.38,3.33,3.33,0,0,1-.66.35v21c0,.09-.19.26-.52.49a7.18,7.18,0,0,1-1.25.67,5.06,5.06,0,0,1-1.41.41l-.6.11Z"/><path class="cls-4" d="M167,128.77l3.48,0v.72L160,130.66v-.74l3.74-.82Zm-6.38-14.16,6.24-2.12.36.22-.1,3.91v7.63q0,1.4,0,2.82c0,1,0,1.9.07,2.82l-3.72.39c0-1.89.07-3.78.07-5.67v-9.79l-3,.65Z"/><path class="cls-4" d="M206.07,130.66v-2c.69-.83,1.38-1.64,2.06-2.42l1.92-2.19c.9-1,1.63-2,2.19-2.77a9.13,9.13,0,0,0,1.21-2.26,6.74,6.74,0,0,0,.37-2.26,3.85,3.85,0,0,0-.8-2.6,2.46,2.46,0,0,0-2.24-.74,4.88,4.88,0,0,0-1.11.23,6.19,6.19,0,0,0-1.13.51l1.18-.67-.58,2.52a2.64,2.64,0,0,1-.68,1.56,1.75,1.75,0,0,1-1,.48,1.34,1.34,0,0,1-1.46-.79,4.39,4.39,0,0,1,1-2.38,6.18,6.18,0,0,1,2.14-1.64,8.72,8.72,0,0,1,2.83-.78,6.83,6.83,0,0,1,3.05.3,3.49,3.49,0,0,1,1.79,1.46,4.56,4.56,0,0,1,.58,2.34,5.1,5.1,0,0,1-.66,2.45,11.85,11.85,0,0,1-2.05,2.64,41.19,41.19,0,0,1-3.6,3.19c-.32.28-.67.59-1.05,1L208.76,127c-.45.41-.9.84-1.35,1.27l0-.43,10.39-1.11v2.69Z"/><path class="cls-4" d="M256.13,120.89l.84-.09a4.08,4.08,0,0,0,2.63-1.21,4.19,4.19,0,0,0,1-3,3.55,3.55,0,0,0-.78-2.52,2.55,2.55,0,0,0-2.2-.67,7.62,7.62,0,0,0-2.35.79l1.42-.72-.53,2.45a2,2,0,0,1-.63,1.21,2.1,2.1,0,0,1-1.05.47,1.5,1.5,0,0,1-.73-.12,1,1,0,0,1-.52-.45,4,4,0,0,1,.83-2.36,4.92,4.92,0,0,1,1.95-1.48,8.8,8.8,0,0,1,2.57-.7,5.71,5.71,0,0,1,4.12.76,3.45,3.45,0,0,1,1.35,2.91,4.16,4.16,0,0,1-.58,2.15,5.23,5.23,0,0,1-1.89,1.76,11.36,11.36,0,0,1-3.45,1.23v-.39a10.63,10.63,0,0,1,3.81.33,3.65,3.65,0,0,1,2,1.41,4.1,4.1,0,0,1,.61,2.27,4.69,4.69,0,0,1-.78,2.63,6,6,0,0,1-2.22,2,9.28,9.28,0,0,1-3.41,1,6.11,6.11,0,0,1-4-.66,3.75,3.75,0,0,1-1.62-2.87,1.56,1.56,0,0,1,.57-.81,1.62,1.62,0,0,1,.83-.34,1.29,1.29,0,0,1,1,.29,2.43,2.43,0,0,1,.58,1.44L256,130l-1.15-.58a5.84,5.84,0,0,0,1,.32,3.76,3.76,0,0,0,1.12,0,4.33,4.33,0,0,0,2.92-1.32,4.44,4.44,0,0,0,1-3.1,3.82,3.82,0,0,0-1-2.9,3.58,3.58,0,0,0-2.91-.72l-1,.1Z"/><path class="cls-4" d="M311.69,125.53l-12.81,1.36v-1.84l7.75-11.93,2.4-.27v17.24l-3.1.33V115.09l.36,0-6.52,10,0-.58,11.88-1.27Z"/><path class="cls-4" d="M24.07,169.64v-.39a11.56,11.56,0,0,1,2-.82,10.08,10.08,0,0,1,2.12-.4,6.9,6.9,0,0,1,4.67.84,4.07,4.07,0,0,1,1.72,3.65,5.65,5.65,0,0,1-.89,3.14,6.43,6.43,0,0,1-2.44,2.2,9.62,9.62,0,0,1-3.56,1,5.71,5.71,0,0,1-3.83-.71,3.67,3.67,0,0,1-1.62-2.84,2,2,0,0,1,.61-.82,1.76,1.76,0,0,1,.86-.33,1.29,1.29,0,0,1,1.06.29,2.1,2.1,0,0,1,.52,1.34l.43,2.5-.81-.53a4.59,4.59,0,0,0,1,.32,4.32,4.32,0,0,0,3.89-1.46,5.23,5.23,0,0,0,1-3.35,4.4,4.4,0,0,0-.95-3.14,3,3,0,0,0-2.6-.82,8.94,8.94,0,0,0-1.42.25,10.3,10.3,0,0,0-1.37.49l-.67-.36.58-8,9.52-1v2.71l-9,1,.57-2L25,169.54Z"/><path class="cls-4" d="M75.26,178a2.36,2.36,0,0,0,1.77-1.3,7.27,7.27,0,0,0,.72-3.65,5.59,5.59,0,0,0-.67-3.07,2,2,0,0,0-2-.89,4.53,4.53,0,0,0-3,1.75l-.31-.33a6.21,6.21,0,0,1,4.66-2.81,4.67,4.67,0,0,1,2.62.38,3.7,3.7,0,0,1,1.66,1.7,6,6,0,0,1,.56,2.72,6.21,6.21,0,0,1-.73,3,6.06,6.06,0,0,1-2.07,2.23,7.07,7.07,0,0,1-3.17,1.07,6.2,6.2,0,0,1-3.45-.49,5,5,0,0,1-2.24-2.24,8.28,8.28,0,0,1-.79-3.82,10.57,10.57,0,0,1,.83-4.09,13.42,13.42,0,0,1,2.32-3.76,15.13,15.13,0,0,1,3.6-3,14,14,0,0,1,4.65-1.77l.14.57a11.83,11.83,0,0,0-4.39,2.52,10.89,10.89,0,0,0-2.69,4,12.68,12.68,0,0,0-.91,4.74,12.2,12.2,0,0,0,.8,5.14A2.14,2.14,0,0,0,75.26,178Z"/><path class="cls-4" d="M117.67,178.69l8.59-16.13.07,1-10.39,1.08v-2.72l11.28-1.17v1.7l-6.07,16.08-3.24.34Z"/><path class="cls-4" d="M160,175.52a4.08,4.08,0,0,1,1.17-2.88,10,10,0,0,1,3.37-2.21l.31.1a8.33,8.33,0,0,0-1.49,2,4.7,4.7,0,0,0-.48,2.16,3.72,3.72,0,0,0,.81,2.68,2.54,2.54,0,0,0,2.22.68,3,3,0,0,0,2.11-1,3.24,3.24,0,0,0,.74-2.19,3.19,3.19,0,0,0-.38-1.54A3.86,3.86,0,0,0,167,172a11.12,11.12,0,0,0-2.53-1.12,6.81,6.81,0,0,1-3.1-1.86,4.2,4.2,0,0,1-1-2.85,4.61,4.61,0,0,1,.74-2.55,5.64,5.64,0,0,1,2-1.85,7.85,7.85,0,0,1,2.88-.9,7,7,0,0,1,2.92.23,3.38,3.38,0,0,1,1.74,1.22,3.28,3.28,0,0,1,.57,1.91,3.81,3.81,0,0,1-.95,2.41,9.11,9.11,0,0,1-3.2,2.27l-.29-.1a6.2,6.2,0,0,0,1.3-2,6.45,6.45,0,0,0,.38-2.21,3.35,3.35,0,0,0-.67-2.19,2,2,0,0,0-1.87-.67,2.64,2.64,0,0,0-1.31.45,2.88,2.88,0,0,0-1,1,2.92,2.92,0,0,0-.38,1.49,3.17,3.17,0,0,0,.32,1.38,3.1,3.1,0,0,0,1.16,1.23,10.65,10.65,0,0,0,2.46,1.13,8.21,8.21,0,0,1,3.53,2,4.23,4.23,0,0,1,1.13,3,4.66,4.66,0,0,1-.74,2.58,5.56,5.56,0,0,1-2.13,1.89,9.7,9.7,0,0,1-3.42,1,6.36,6.36,0,0,1-4.23-.67A3.1,3.1,0,0,1,160,175.52Z"/><path class="cls-4" d="M207.28,166.33a5.29,5.29,0,0,0,.88,3.31,2.49,2.49,0,0,0,2.36,1,3.56,3.56,0,0,0,1.39-.45,4.82,4.82,0,0,0,1.2-1l.27.14a5,5,0,0,1-1.59,1.65,5.91,5.91,0,0,1-2.64.9,5.84,5.84,0,0,1-2.76-.35,3.94,3.94,0,0,1-1.89-1.6,5,5,0,0,1-.7-2.76,5.87,5.87,0,0,1,.88-3.15,6.44,6.44,0,0,1,2.23-2.14,7.31,7.31,0,0,1,3-1,6.33,6.33,0,0,1,3.42.5,4.62,4.62,0,0,1,2.17,2.25,8.7,8.7,0,0,1,.75,3.82,12,12,0,0,1-1.32,5.39,17.25,17.25,0,0,1-3.72,4.9,19.86,19.86,0,0,1-5.69,3.66l-.12-.7a15.55,15.55,0,0,0,4.19-3.62,14,14,0,0,0,2.37-4.47,16.94,16.94,0,0,0,.76-5.18,13.55,13.55,0,0,0-.36-3.5,3.53,3.53,0,0,0-1-1.82,1.85,1.85,0,0,0-1.44-.42,2.34,2.34,0,0,0-1.32.6,3.77,3.77,0,0,0-1,1.53A7.19,7.19,0,0,0,207.28,166.33Z"/><path class="cls-4" d="M250.14,177.17l3.48.05v.72l-10.46,1.13v-.74l3.74-.82ZM243.76,163,250,160.9l.36.22-.1,3.91v7.63q0,1.4,0,2.82c0,1,0,1.89.07,2.82l-3.72.39c.05-1.89.07-3.78.07-5.67v-9.79l-3,.65Z"/><path class="cls-4" d="M262.57,160.88a5,5,0,0,1,3,.65,5.56,5.56,0,0,1,2.25,2.67,12.35,12.35,0,0,1,.85,5,13.76,13.76,0,0,1-.85,5.2,7.48,7.48,0,0,1-2.25,3.15,5.75,5.75,0,0,1-3,1.25,4.89,4.89,0,0,1-3-.62,5.66,5.66,0,0,1-2.24-2.69,12.48,12.48,0,0,1-.85-5,14,14,0,0,1,.85-5.22,7.53,7.53,0,0,1,2.24-3.16A5.92,5.92,0,0,1,262.57,160.88Zm-2.73,9.29a30.51,30.51,0,0,0,.21,3.94,9.71,9.71,0,0,0,.6,2.43,2.84,2.84,0,0,0,.88,1.19,1.47,1.47,0,0,0,1,.26,1.87,1.87,0,0,0,1.06-.49,3.71,3.71,0,0,0,.89-1.39,12,12,0,0,0,.62-2.55,27.38,27.38,0,0,0,.24-4,26.85,26.85,0,0,0-.24-4,10.65,10.65,0,0,0-.62-2.45,2.66,2.66,0,0,0-.89-1.21,1.65,1.65,0,0,0-1.06-.28,2,2,0,0,0-1,.51,3.66,3.66,0,0,0-.88,1.39,11.78,11.78,0,0,0-.6,2.57A31.81,31.81,0,0,0,259.84,170.17Z"/><path class="cls-4" d="M302.65,177.17l3.48.05v.72l-10.46,1.13v-.74l3.74-.82ZM296.27,163l6.24-2.11.36.22-.1,3.91v7.63q0,1.4,0,2.82c0,1,0,1.89.07,2.82l-3.72.39c.05-1.89.07-3.78.07-5.67v-9.79l-3,.65Z"/><path class="cls-4" d="M317,177.17l3.48.05v.72L310,179.07v-.74l3.75-.82ZM310.57,163l6.24-2.11.36.22-.09,3.91v7.63c0,.93,0,1.87,0,2.82s0,1.89.07,2.82l-3.72.39c.05-1.89.08-3.78.08-5.67v-9.79l-3,.65Z"/><path class="cls-4" d="M21.92,221.87l3.48,0v.72l-10.46,1.12V223l3.74-.82Zm-6.38-14.16,6.24-2.11.36.21-.1,3.91v7.64c0,.92,0,1.86,0,2.82s0,1.89.08,2.82l-3.72.38c0-1.89.07-3.78.07-5.66v-9.8l-2.95.65Z"/><path class="cls-4" d="M28.59,223.76v-2c.69-.83,1.38-1.64,2.06-2.42l1.92-2.19c.9-1,1.63-2,2.19-2.77A9.26,9.26,0,0,0,36,212.14a6.84,6.84,0,0,0,.37-2.27,3.8,3.8,0,0,0-.8-2.59,2.43,2.43,0,0,0-2.24-.75,4.88,4.88,0,0,0-1.11.23,5.64,5.64,0,0,0-1.13.52l1.18-.68-.58,2.52a2.58,2.58,0,0,1-.68,1.56,1.75,1.75,0,0,1-1,.48,1.34,1.34,0,0,1-1.46-.79,4.36,4.36,0,0,1,1-2.37,6.09,6.09,0,0,1,2.14-1.65,8.72,8.72,0,0,1,2.83-.78,6.83,6.83,0,0,1,3.05.3,3.46,3.46,0,0,1,1.79,1.47,4.51,4.51,0,0,1,.58,2.34,5.09,5.09,0,0,1-.66,2.44,11.85,11.85,0,0,1-2,2.64,42.81,42.81,0,0,1-3.6,3.2c-.32.27-.67.58-1,.94l-1.25,1.17c-.45.41-.9.84-1.35,1.27l0-.43,10.39-1.11v2.69Z"/><path class="cls-4" d="M68.45,221.87l3.48,0v.72l-10.46,1.12V223l3.74-.82Zm-6.38-14.16,6.24-2.11.36.21-.1,3.91v7.64q0,1.38,0,2.82c0,.95,0,1.89.07,2.82l-3.72.38c0-1.89.07-3.78.07-5.66v-9.8l-2.95.65Z"/><path class="cls-4" d="M78.51,214l.84-.1A4.1,4.1,0,0,0,82,212.69a4.22,4.22,0,0,0,1-3,3.52,3.52,0,0,0-.78-2.52,2.51,2.51,0,0,0-2.19-.68,7.33,7.33,0,0,0-2.35.8l1.41-.72L78.53,209a2.05,2.05,0,0,1-.62,1.22,2.21,2.21,0,0,1-1.06.46,1.52,1.52,0,0,1-.73-.12.94.94,0,0,1-.51-.45,4,4,0,0,1,.82-2.35,5,5,0,0,1,2-1.49,9.13,9.13,0,0,1,2.57-.7,5.67,5.67,0,0,1,4.11.76,3.45,3.45,0,0,1,1.36,2.91,4.16,4.16,0,0,1-.59,2.15A5.21,5.21,0,0,1,84,213.16a11.54,11.54,0,0,1-3.46,1.22V214a10.52,10.52,0,0,1,3.82.32,3.65,3.65,0,0,1,2,1.42A4.12,4.12,0,0,1,87,218a4.69,4.69,0,0,1-.78,2.63,5.92,5.92,0,0,1-2.22,2,9.34,9.34,0,0,1-3.41,1,6.11,6.11,0,0,1-4-.66A3.68,3.68,0,0,1,74.91,220a1.55,1.55,0,0,1,.56-.81,1.75,1.75,0,0,1,.83-.34,1.31,1.31,0,0,1,1.06.29,2.44,2.44,0,0,1,.57,1.44l.48,2.47-1.15-.57a7.16,7.16,0,0,0,1,.31,3.69,3.69,0,0,0,1.11,0,4.35,4.35,0,0,0,2.93-1.32,4.47,4.47,0,0,0,1-3.09,3.79,3.79,0,0,0-1-2.91,3.55,3.55,0,0,0-2.9-.72l-1,.1Z"/><path class="cls-4" d="M115,221.87l3.48,0v.72L108,223.76V223l3.74-.82Zm-6.38-14.16,6.24-2.11.36.21-.1,3.91v7.64c0,.92,0,1.86,0,2.82s0,1.89.08,2.82l-3.72.38c0-1.89.07-3.78.07-5.66v-9.8l-3,.65Z"/><path class="cls-4" d="M133.92,218.63,121.11,220v-1.85l7.75-11.93,2.4-.26v17.23l-3.09.33V208.19l.36-.05-6.53,10,0-.57,11.87-1.28Z"/><path class="cls-4" d="M161.52,221.87l3.48,0v.72l-10.46,1.12V223l3.74-.82Zm-6.38-14.16,6.24-2.11.36.21-.1,3.91v7.64q0,1.38,0,2.82c0,.95,0,1.89.07,2.82l-3.72.38c0-1.89.07-3.78.07-5.66v-9.8l-3,.65Z"/><path class="cls-4" d="M169.68,214.33V214a11.71,11.71,0,0,1,2-.83,10.76,10.76,0,0,1,2.12-.4,7,7,0,0,1,4.67.84,4.1,4.1,0,0,1,1.72,3.65,5.69,5.69,0,0,1-.89,3.15,6.48,6.48,0,0,1-2.44,2.19,9.82,9.82,0,0,1-3.56,1,5.77,5.77,0,0,1-3.83-.71,3.67,3.67,0,0,1-1.62-2.85,1.82,1.82,0,0,1,.61-.81,1.78,1.78,0,0,1,.85-.34,1.3,1.3,0,0,1,1.07.29,2.12,2.12,0,0,1,.52,1.34l.43,2.5-.82-.53a5.56,5.56,0,0,0,1,.33,4.31,4.31,0,0,0,1.15,0,3.91,3.91,0,0,0,2.73-1.48,5.16,5.16,0,0,0,1-3.35,4.42,4.42,0,0,0-.95-3.14,3,3,0,0,0-2.61-.82,9,9,0,0,0-1.41.26,8.68,8.68,0,0,0-1.37.49l-.67-.36.57-8,9.53-1v2.71l-9,1,.58-2-.53,7.23Z"/><path class="cls-4" d="M208.06,221.87l3.48,0v.72l-10.46,1.12V223l3.74-.82Zm-6.38-14.16,6.24-2.11.36.21-.1,3.91v7.64c0,.92,0,1.86,0,2.82s0,1.89.08,2.82l-3.72.38c0-1.89.07-3.78.07-5.66v-9.8l-2.95.65Z"/><path class="cls-4" d="M220.73,222.66a2.33,2.33,0,0,0,1.78-1.3,7.23,7.23,0,0,0,.72-3.64,5.72,5.72,0,0,0-.67-3.08,2,2,0,0,0-2-.88,4.43,4.43,0,0,0-3,1.75l-.32-.34a6.24,6.24,0,0,1,4.66-2.81,4.64,4.64,0,0,1,2.63.39,3.61,3.61,0,0,1,1.65,1.69,6,6,0,0,1,.57,2.72,6.36,6.36,0,0,1-.73,3,6.16,6.16,0,0,1-2.08,2.23,7.15,7.15,0,0,1-3.17,1.07,6.16,6.16,0,0,1-3.44-.5,4.93,4.93,0,0,1-2.25-2.24,8.38,8.38,0,0,1-.79-3.82,10.79,10.79,0,0,1,.83-4.09,13.41,13.41,0,0,1,2.33-3.75,14.67,14.67,0,0,1,3.6-3,14.3,14.3,0,0,1,4.64-1.78l.15.58a11.6,11.6,0,0,0-4.4,2.52,10.71,10.71,0,0,0-2.68,3.94,12.69,12.69,0,0,0-.92,4.74,12,12,0,0,0,.81,5.14C219.14,222.28,219.85,222.76,220.73,222.66Z"/><path class="cls-4" d="M254.59,221.87l3.48,0v.72l-10.46,1.12V223l3.75-.82Zm-6.38-14.16,6.24-2.11.36.21-.1,3.91v7.64q0,1.38,0,2.82c0,.95,0,1.89.07,2.82l-3.72.38c0-1.89.07-3.78.07-5.66v-9.8l-2.95.65Z"/><path class="cls-4" d="M263,223.38l8.6-16.13.07,1-10.39,1.08v-2.71l11.28-1.18v1.71l-6.08,16.08-3.24.33Z"/><path class="cls-4" d="M301.13,221.87l3.48,0v.72l-10.46,1.12V223l3.74-.82Zm-6.38-14.16L301,205.6l.36.21-.1,3.91v7.64c0,.92,0,1.86,0,2.82s0,1.89.08,2.82l-3.72.38c0-1.89.07-3.78.07-5.66v-9.8l-2.95.65Z"/><path class="cls-4" d="M307.63,220.21a4.08,4.08,0,0,1,1.17-2.88,10,10,0,0,1,3.37-2.21l.31.1a8.36,8.36,0,0,0-1.49,2,4.65,4.65,0,0,0-.48,2.16,3.71,3.71,0,0,0,.81,2.67,2.55,2.55,0,0,0,2.22.69,3.07,3.07,0,0,0,2.11-1,3.2,3.2,0,0,0,.74-2.2A3.11,3.11,0,0,0,316,218a3.84,3.84,0,0,0-1.31-1.29,10.89,10.89,0,0,0-2.53-1.13,6.81,6.81,0,0,1-3.1-1.86,4.22,4.22,0,0,1-1-2.84,4.55,4.55,0,0,1,.75-2.56,5.52,5.52,0,0,1,2-1.85,7.85,7.85,0,0,1,2.88-.9,7.17,7.17,0,0,1,2.92.23,3.38,3.38,0,0,1,1.74,1.22,3.31,3.31,0,0,1,.57,1.91,3.83,3.83,0,0,1-.94,2.41,9,9,0,0,1-3.21,2.27l-.29-.09a5.82,5.82,0,0,0,1.68-4.23,3.3,3.3,0,0,0-.67-2.18,1.94,1.94,0,0,0-1.87-.67,2.76,2.76,0,0,0-1.31.44,2.93,2.93,0,0,0-1.35,2.53,3.16,3.16,0,0,0,.31,1.38,3.26,3.26,0,0,0,1.16,1.24,11.08,11.08,0,0,0,2.46,1.13,8.21,8.21,0,0,1,3.53,2,4.26,4.26,0,0,1,1.13,3,4.74,4.74,0,0,1-.73,2.58,5.5,5.5,0,0,1-2.14,1.88,9.3,9.3,0,0,1-3.42,1,6.32,6.32,0,0,1-4.22-.67A3.09,3.09,0,0,1,307.63,220.21Z"/><path class="cls-4" d="M24,265.68l3.48.05v.72L17,267.58v-.75l3.74-.81Zm-6.38-14.16,6.24-2.11.36.21-.1,3.92v7.63c0,.93,0,1.87,0,2.82s0,1.89.08,2.82l-3.72.38c0-1.89.07-3.77.07-5.66v-9.79l-3,.64Z"/><path class="cls-4" d="M33.61,254.83a5.34,5.34,0,0,0,.87,3.31,2.51,2.51,0,0,0,2.37,1,3.8,3.8,0,0,0,1.39-.46,5,5,0,0,0,1.2-1l.26.15a4.8,4.8,0,0,1-1.58,1.64,6.18,6.18,0,0,1-5.4.55,4,4,0,0,1-1.9-1.59,5.14,5.14,0,0,1-.69-2.76,5.82,5.82,0,0,1,.87-3.16,6.41,6.41,0,0,1,2.23-2.13,7.52,7.52,0,0,1,3-1,6.36,6.36,0,0,1,3.42.51,4.64,4.64,0,0,1,2.17,2.24,8.9,8.9,0,0,1,.74,3.83,12,12,0,0,1-1.32,5.39,17.07,17.07,0,0,1-3.72,4.89,19.4,19.4,0,0,1-5.68,3.66l-.13-.69a15.26,15.26,0,0,0,4.19-3.63,13.85,13.85,0,0,0,2.38-4.46,17.3,17.3,0,0,0,.75-5.18,13.63,13.63,0,0,0-.36-3.51,3.49,3.49,0,0,0-1-1.81,1.87,1.87,0,0,0-1.44-.42,2.34,2.34,0,0,0-1.32.6,3.73,3.73,0,0,0-1,1.52A7.23,7.23,0,0,0,33.61,254.83Z"/><path class="cls-4" d="M62.86,267.58v-2c.69-.83,1.38-1.64,2.07-2.42s1.32-1.51,1.92-2.18c.89-1.06,1.62-2,2.18-2.78A9.26,9.26,0,0,0,70.24,256a6.8,6.8,0,0,0,.37-2.27,3.77,3.77,0,0,0-.8-2.59,2.43,2.43,0,0,0-2.24-.75,5.48,5.48,0,0,0-1.11.23,5.64,5.64,0,0,0-1.13.52l1.18-.67-.58,2.52a2.58,2.58,0,0,1-.68,1.56,1.89,1.89,0,0,1-1,.48,1.35,1.35,0,0,1-1.46-.8,4.47,4.47,0,0,1,1-2.37,6.09,6.09,0,0,1,2.14-1.65,9.25,9.25,0,0,1,2.83-.78,6.83,6.83,0,0,1,3.05.3,3.47,3.47,0,0,1,1.79,1.47,4.52,4.52,0,0,1,.59,2.34,5.15,5.15,0,0,1-.66,2.45,12.4,12.4,0,0,1-2.06,2.64,41.54,41.54,0,0,1-3.6,3.19c-.32.27-.67.59-1,1l-1.25,1.16c-.45.42-.9.84-1.34,1.27l0-.43,10.39-1.1v2.68Z"/><path class="cls-4" d="M82.93,249.38a5.06,5.06,0,0,1,3,.65,5.63,5.63,0,0,1,2.24,2.68,12.32,12.32,0,0,1,.85,5,13.67,13.67,0,0,1-.85,5.19,7.53,7.53,0,0,1-2.24,3.16,5.9,5.9,0,0,1-3,1.25,4.84,4.84,0,0,1-3-.63A5.54,5.54,0,0,1,77.71,264a12.22,12.22,0,0,1-.86-5,13.83,13.83,0,0,1,.86-5.22,7.45,7.45,0,0,1,2.23-3.15A5.94,5.94,0,0,1,82.93,249.38Zm-2.74,9.29a28.76,28.76,0,0,0,.22,3.95A8.73,8.73,0,0,0,81,265a2.69,2.69,0,0,0,.87,1.19,1.49,1.49,0,0,0,1.05.27,1.86,1.86,0,0,0,1-.5,3.63,3.63,0,0,0,.89-1.39,11.34,11.34,0,0,0,.62-2.54,27.47,27.47,0,0,0,.24-4,26.85,26.85,0,0,0-.24-4,10.15,10.15,0,0,0-.62-2.45,2.61,2.61,0,0,0-.89-1.21,1.62,1.62,0,0,0-1-.28,2,2,0,0,0-1.05.5,3.58,3.58,0,0,0-.87,1.4,10.63,10.63,0,0,0-.6,2.56A29.92,29.92,0,0,0,80.19,258.67Z"/><path class="cls-4" d="M109.4,267.58v-2c.69-.83,1.37-1.64,2.06-2.42l1.92-2.18c.9-1.06,1.63-2,2.19-2.78a9.26,9.26,0,0,0,1.21-2.25,6.8,6.8,0,0,0,.37-2.27,3.82,3.82,0,0,0-.8-2.59,2.45,2.45,0,0,0-2.25-.75,5.27,5.27,0,0,0-2.23.75l1.18-.67-.58,2.52a2.7,2.7,0,0,1-.68,1.56,1.89,1.89,0,0,1-1,.48,1.34,1.34,0,0,1-1.46-.8,4.39,4.39,0,0,1,1-2.37,6,6,0,0,1,2.14-1.65,9.17,9.17,0,0,1,2.83-.78,6.83,6.83,0,0,1,3,.3,3.44,3.44,0,0,1,1.78,1.47,4.42,4.42,0,0,1,.59,2.34,5.15,5.15,0,0,1-.66,2.45,12.32,12.32,0,0,1-2.05,2.64,44.77,44.77,0,0,1-3.6,3.19c-.32.27-.67.59-1.06,1l-1.24,1.16-1.35,1.27,0-.43,10.39-1.1v2.68Z"/><path class="cls-4" d="M131.33,265.68l3.48.05v.72l-10.46,1.13v-.75l3.74-.81ZM125,251.52l6.24-2.11.36.21-.1,3.92v7.63q0,1.4,0,2.82c0,.95,0,1.89.07,2.82l-3.72.38c0-1.89.07-3.77.07-5.66v-9.79l-3,.64Z"/><path class="cls-4" d="M155.93,267.58v-2c.69-.83,1.38-1.64,2.07-2.42s1.32-1.51,1.92-2.18c.89-1.06,1.62-2,2.18-2.78a9.26,9.26,0,0,0,1.21-2.25,6.8,6.8,0,0,0,.37-2.27,3.77,3.77,0,0,0-.8-2.59,2.43,2.43,0,0,0-2.24-.75,5.48,5.48,0,0,0-1.11.23,5.64,5.64,0,0,0-1.13.52l1.18-.67-.58,2.52a2.58,2.58,0,0,1-.68,1.56,1.89,1.89,0,0,1-1,.48,1.35,1.35,0,0,1-1.46-.8,4.47,4.47,0,0,1,1-2.37,6.09,6.09,0,0,1,2.14-1.65,9.25,9.25,0,0,1,2.83-.78,6.83,6.83,0,0,1,3.05.3,3.47,3.47,0,0,1,1.79,1.47,4.52,4.52,0,0,1,.59,2.34,5.15,5.15,0,0,1-.66,2.45,12.4,12.4,0,0,1-2.06,2.64,41.54,41.54,0,0,1-3.6,3.19c-.32.27-.67.59-1,1l-1.25,1.16c-.45.42-.9.84-1.34,1.27l0-.43,10.39-1.1v2.68Z"/><path class="cls-4" d="M170.24,267.58v-2c.68-.83,1.37-1.64,2.06-2.42l1.92-2.18c.9-1.06,1.62-2,2.18-2.78a9.32,9.32,0,0,0,1.22-2.25,7.06,7.06,0,0,0,.37-2.27,3.77,3.77,0,0,0-.81-2.59,2.42,2.42,0,0,0-2.24-.75,5.25,5.25,0,0,0-1.1.23,5.4,5.4,0,0,0-1.13.52l1.17-.67-.57,2.52a2.64,2.64,0,0,1-.69,1.56,1.87,1.87,0,0,1-1,.48,1.36,1.36,0,0,1-1.47-.8,4.48,4.48,0,0,1,1-2.37,6,6,0,0,1,2.13-1.65,9.31,9.31,0,0,1,2.84-.78,6.79,6.79,0,0,1,3,.3,3.47,3.47,0,0,1,1.79,1.47,4.52,4.52,0,0,1,.59,2.34,5.15,5.15,0,0,1-.66,2.45,12.32,12.32,0,0,1-2,2.64,44.77,44.77,0,0,1-3.6,3.19c-.32.27-.67.59-1.06,1l-1.25,1.16-1.34,1.27,0-.43,10.4-1.1v2.68Z"/><path class="cls-4" d="M202.47,267.58v-2c.69-.83,1.37-1.64,2.06-2.42l1.92-2.18c.9-1.06,1.63-2,2.19-2.78a9.26,9.26,0,0,0,1.21-2.25,6.8,6.8,0,0,0,.37-2.27,3.82,3.82,0,0,0-.8-2.59,2.45,2.45,0,0,0-2.25-.75,5.27,5.27,0,0,0-2.23.75l1.18-.67-.58,2.52a2.7,2.7,0,0,1-.68,1.56,1.89,1.89,0,0,1-1,.48,1.34,1.34,0,0,1-1.46-.8,4.39,4.39,0,0,1,1-2.37,6,6,0,0,1,2.14-1.65,9.17,9.17,0,0,1,2.83-.78,6.83,6.83,0,0,1,3.05.3,3.44,3.44,0,0,1,1.78,1.47,4.42,4.42,0,0,1,.59,2.34,5.15,5.15,0,0,1-.66,2.45,12.32,12.32,0,0,1-2.05,2.64,44.77,44.77,0,0,1-3.6,3.19c-.32.27-.67.59-1.06,1l-1.24,1.16-1.35,1.27,0-.43,10.39-1.1v2.68Z"/><path class="cls-4" d="M220.16,257.81l.84-.1a4,4,0,0,0,2.62-1.21,4.18,4.18,0,0,0,1-3,3.52,3.52,0,0,0-.78-2.52,2.49,2.49,0,0,0-2.2-.67,7.36,7.36,0,0,0-2.35.79l1.42-.72-.53,2.45a2,2,0,0,1-.62,1.21,2.27,2.27,0,0,1-1.06.47,1.78,1.78,0,0,1-.73-.12,1,1,0,0,1-.52-.46,4.07,4.07,0,0,1,.83-2.35,5,5,0,0,1,2-1.49,9.4,9.4,0,0,1,2.56-.7,5.69,5.69,0,0,1,4.12.76,3.49,3.49,0,0,1,1.36,2.92,4.16,4.16,0,0,1-.59,2.14A5.08,5.08,0,0,1,225.6,257a11.37,11.37,0,0,1-3.45,1.22v-.38a10.44,10.44,0,0,1,3.81.32,3.66,3.66,0,0,1,2,1.42,4.08,4.08,0,0,1,.61,2.27,4.66,4.66,0,0,1-.78,2.62,5.84,5.84,0,0,1-2.22,2,9.29,9.29,0,0,1-3.4,1,6.08,6.08,0,0,1-4-.66,3.68,3.68,0,0,1-1.62-2.86,1.53,1.53,0,0,1,.56-.82,1.81,1.81,0,0,1,.83-.34A1.32,1.32,0,0,1,219,263a2.37,2.37,0,0,1,.58,1.44l.48,2.47-1.15-.57a6,6,0,0,0,1,.31,3.76,3.76,0,0,0,1.12,0,4.29,4.29,0,0,0,2.93-1.32,4.47,4.47,0,0,0,1-3.09,3.79,3.79,0,0,0-1-2.91,3.63,3.63,0,0,0-2.9-.72l-1,.1Z"/><path class="cls-4" d="M249,267.58v-2c.69-.83,1.38-1.64,2.07-2.42s1.32-1.51,1.92-2.18c.89-1.06,1.62-2,2.18-2.78a9.26,9.26,0,0,0,1.21-2.25,6.8,6.8,0,0,0,.38-2.27,3.77,3.77,0,0,0-.81-2.59,2.43,2.43,0,0,0-2.24-.75,5.48,5.48,0,0,0-1.11.23,5.64,5.64,0,0,0-1.13.52l1.18-.67-.58,2.52a2.58,2.58,0,0,1-.68,1.56,1.9,1.9,0,0,1-1,.48,1.36,1.36,0,0,1-1.47-.8,4.4,4.4,0,0,1,1-2.37,6,6,0,0,1,2.13-1.65,9.33,9.33,0,0,1,2.83-.78,6.83,6.83,0,0,1,3.05.3,3.47,3.47,0,0,1,1.79,1.47,4.52,4.52,0,0,1,.59,2.34,5.15,5.15,0,0,1-.66,2.45,12.4,12.4,0,0,1-2.06,2.64,41.54,41.54,0,0,1-3.6,3.19c-.32.27-.67.59-1.05,1l-1.25,1.16c-.45.42-.9.84-1.34,1.27l0-.43,10.39-1.1v2.68Z"/><path class="cls-4" d="M275.57,262.44l-12.82,1.37V262L270.51,250l2.4-.26V267l-3.1.34V252l.36-.05-6.53,10,.05-.57,11.88-1.27Z"/><path class="cls-4" d="M295.54,267.58v-2c.69-.83,1.37-1.64,2.06-2.42l1.92-2.18c.9-1.06,1.63-2,2.19-2.78a9.26,9.26,0,0,0,1.21-2.25,6.8,6.8,0,0,0,.37-2.27,3.82,3.82,0,0,0-.8-2.59,2.45,2.45,0,0,0-2.25-.75,5.27,5.27,0,0,0-2.23.75l1.18-.67-.58,2.52a2.7,2.7,0,0,1-.68,1.56,1.89,1.89,0,0,1-1,.48,1.34,1.34,0,0,1-1.46-.8,4.39,4.39,0,0,1,1-2.37,6,6,0,0,1,2.14-1.65,9.17,9.17,0,0,1,2.83-.78,6.83,6.83,0,0,1,3.05.3,3.44,3.44,0,0,1,1.78,1.47,4.42,4.42,0,0,1,.59,2.34,5.15,5.15,0,0,1-.66,2.45,12.32,12.32,0,0,1-2.05,2.64,44.77,44.77,0,0,1-3.6,3.19c-.32.27-.67.59-1.06,1l-1.24,1.16-1.35,1.27,0-.43,10.39-1.1v2.68Z"/><path class="cls-4" d="M311.33,258.14v-.38a11.62,11.62,0,0,1,2-.83,10.3,10.3,0,0,1,2.13-.39,6.91,6.91,0,0,1,4.67.84,4.06,4.06,0,0,1,1.71,3.64,5.58,5.58,0,0,1-.89,3.15,6.45,6.45,0,0,1-2.43,2.19,9.62,9.62,0,0,1-3.57,1.05,5.74,5.74,0,0,1-3.82-.71,3.61,3.61,0,0,1-1.62-2.84,1.73,1.73,0,0,1,.61-.82,1.84,1.84,0,0,1,.85-.34A1.35,1.35,0,0,1,312,263a2.19,2.19,0,0,1,.51,1.35l.44,2.49-.82-.53a5.49,5.49,0,0,0,1,.33,4.33,4.33,0,0,0,1.15,0,3.94,3.94,0,0,0,2.74-1.48,5.14,5.14,0,0,0,1-3.34,4.4,4.4,0,0,0-.95-3.15,3,3,0,0,0-2.6-.81,7.94,7.94,0,0,0-1.42.25,9,9,0,0,0-1.36.49l-.68-.36.58-8,9.53-1v2.71l-9.05,1,.58-2-.53,7.23Z"/></svg>