<svg id="圖層_1" data-name="圖層 1" xmlns="http://www.w3.org/2000/svg" viewBox="0 0 680.31 212.71"><defs><style>.cls-1{fill:#231815;}.cls-2{fill:#2ca6e0;}.cls-3{fill:#00913a;}.cls-4{fill:none;}.cls-5{fill:#e3007f;}.cls-6{fill:#edc300;}</style></defs><path class="cls-1" d="M82.2,34.47h-23Q51.24,34.47,40,45L54,0q4.7,10.5,12.63,10.5h91.57q7.94,0,19.13-10.5L163.36,45q-4.68-10.5-12.62-10.5H127.19L122.3,50.22h18.53q7.93,0,27.07-10.5-14.44,21-17.71,31.49l-22.47,72.44a29,29,0,0,0,1.43,21H100.57l2.44-7.88H31l-2.44,7.88H0q11.19-10.5,14.45-21L36.92,71.21q3.26-10.5,1.83-31.49,12.63,10.5,20.56,10.5h18Zm27.54,100.61,5.05-16.28H98.91q-9.41,0-11.53-4.19t1.55-16.1l5-16.1q3.26-10.5-4.68-10.5h-.66q-7.9,22.05-16,33.25T48.21,128.25l-4.16-13.47-3,9.8q-3.25,10.5,4.68,10.5ZM47,105.16Q56.6,97.81,61,91.33t9.07-19.42H65.29q-8,0-11.2,10.5Zm53.68-70.69L95.84,50.22h8.07l4.88-15.75Zm20.85,62.46,7.76-25H115.57l-5.48,17.67Q108.41,95,108.9,96c.33.64,1.91,1,4.73,1Z"/><path class="cls-1" d="M226.5,100.38h36.39q-11.19,10.5-14.45,21l-11.07,35.7,15.39,4.55q-3.6,10.32-5.84,16.27t-5.23,12.16a95.22,95.22,0,0,1-4.93,9.27,26.61,26.61,0,0,1-5.67,6.13,24,24,0,0,1-6.57,4.11,50.48,50.48,0,0,1-8.43,2,70.11,70.11,0,0,1-10.58,1.05q-5,.09-13.46.09-9.12,0-14.41-.26a48,48,0,0,1-9.38-1.32,14.43,14.43,0,0,1-5.72-2.45,7.23,7.23,0,0,1-2.1-4.55,17.34,17.34,0,0,1,.34-6.64q.83-3.51,2.78-9.8l4.07-13.13q3.26-10.49-4.69-10.49h-4.49q-7.95,0-11.2,10.49l-2.06,6.65H116.74q11.19-10.5,14.45-21l11.07-35.7a28.89,28.89,0,0,0-1.43-21h36.39q-11.19,10.5-14.45,21l-1.74,5.6q-3.25,10.5,4.69,10.5h4.5q7.93,0,11.19-10.5L192.65,93.9q-22.83,1.93-45.28,2.63l6.3-24.15q21.74-.52,46.52-2.8l1.52-4.9q4.39-14.18,15.12-14.17t6.45,14.17l-.7,2.28q29.16-4,46-8.75L265.7,82.35q-20.47,5.43-50.78,9.28L203,130.12q-3.25,10.5,4.69,10.5H214q7.93,0,11.19-10.5l2.72-8.75A28.94,28.94,0,0,0,226.5,100.38ZM187,181.74q-1.62,5.25.81,6.12t17.93.88q4.89,0,6.87-.18a27.08,27.08,0,0,0,4.57-.87,7,7,0,0,0,4-2.72c.94-1.33,2-3,3.16-5.07a55,55,0,0,0,3.63-8.31H212.35l2.33-7.52H200.39q-7.94,0-11.19,10.49Z"/><path class="cls-2" d="M101.63,164h28.58a28.91,28.91,0,0,1-1.42-21l9.81-31.64L91.09,156.15h13Z"/><path class="cls-2" d="M172.56,79.39,155.29,95.66q8.4-.33,16.87-.83Z"/><path class="cls-2" d="M166.78,140q-7.93,0-4.68-10.5l1.73-5.6a42.34,42.34,0,0,1,7.93-14.06l.19-6.93H147.6l-4.22,4a28.4,28.4,0,0,1-.06,17l-11.07,35.7q-3.25,10.5-14.45,21h28.45l2.06-6.64q3.25-10.5,11.2-10.5H164q7.94,0,4.68,10.5l-4.07,13.12q-2,6.3-2.78,9.8a17.59,17.59,0,0,0-.34,6.65,7.23,7.23,0,0,0,2.1,4.54,14.27,14.27,0,0,0,5.52,2.4L171,140Z"/><path class="cls-3" d="M224.87,65.16Q229.27,51,218.42,51T203.3,65.16l-1.52,4.9-6,.53L212.82,104l3.7-11.93q18.42-2.34,33.21-5.26L256,62.09q-13.47,2.8-31.83,5.34Z"/><path class="cls-3" d="M227.78,121.41l-2.71,8.75c-.06.18-.11.35-.17.52l7.93,15.55,11.61-45.81H226.35A28.89,28.89,0,0,1,227.78,121.41Z"/><polygon class="cls-4" points="110.1 34.47 102.03 34.47 97.14 50.22 105.21 50.22 110.1 34.47"/><path class="cls-4" d="M42.59,41.75l-.21-.15,0,.15Z"/><path class="cls-4" d="M44.05,42.86Q54,50.21,60.62,50.22h18L83.5,34.47h-23q-7,0-16.42,8.08Z"/><path class="cls-5" d="M130.64,63.38,100.57,10.5H67.91Q60,10.5,55.29,0L42.38,41.6l.21.15h-.25l0-.15c-.76-.6-1.53-1.22-2.32-1.88A132.36,132.36,0,0,1,40,62.27ZM102,34.47h8.08l-4.89,15.75H97.14Zm-41.55,0h23L78.61,50.22h-18q-6.65,0-16.57-7.36v-.31Q53.52,34.48,60.47,34.47Z"/><path class="cls-1" d="M659.33,56.78h17.73l-18.49,70.94h-9.46ZM642.07,138.5h16.79l-3.51,17.37H638.56Z"/><path class="cls-1" d="M657.36,158.34H635.55l4.51-22.3h21.81Zm-15.79-4.93h11.76L655.85,141H644.09Zm18.95-23.17H646.21l10.94-76h23.16Zm-8.5-5h4.61L673.81,59.3H661.5Z"/><path class="cls-6" d="M659.33,56.78h17.73l-18.49,70.94h-9.46ZM642.07,138.5h16.79l-3.51,17.37H638.56Z"/><path class="cls-4" d="M451.34,122.71a13.9,13.9,0,0,1-1.24,1.68l.51.58C450.89,124.19,451.14,123.44,451.34,122.71Z"/><path class="cls-4" d="M476.85,47.42l-.41-5.21-2.63,1.41-10.1,6a12.41,12.41,0,0,1,2.46,4.08,18.57,18.57,0,0,1,1.11,7.52l1.89-.58c.35-.11,1.83-.83,5.89-5.34l0-.05A63.77,63.77,0,0,0,480,49.58a3.63,3.63,0,0,0-1.68-1.51Z"/><path class="cls-4" d="M439.12,104.52a35.28,35.28,0,0,1-1.47,5.41,14.44,14.44,0,0,0,3.68-1.73l.61-.38.68.09a8.24,8.24,0,0,1,1.75.41c-3.48-6.42-4.65-12.81-3.48-19.1a15.54,15.54,0,0,1,.56-2l-3.92,1.09A27,27,0,0,1,439.12,104.52Z"/><path class="cls-4" d="M451,84.42,451.6,86c-.06-.58-.12-1.16-.16-1.73Z"/><path class="cls-4" d="M468.63,80l-4.74,1.13c.54.85,1,1.69,1.51,2.53,1.08-1.1,2.22-2.23,3.4-3.36C468.74,80.14,468.69,80,468.63,80Z"/><path class="cls-4" d="M450.69,65.49h0a30.91,30.91,0,0,0,.37-8.07l-6,2.12a34.19,34.19,0,0,1,1.12,7.71l4.36-1.07C450.61,66,450.65,65.72,450.69,65.49Z"/><path class="cls-4" d="M464.63,103.5a9.37,9.37,0,0,0,3.95,1c4.31,0,6.72-2.61,7.81-8.47.12-.64.23-1.33.34-2.06a37.51,37.51,0,0,1-4.57-7.25C469.82,94.22,467.33,99.75,464.63,103.5Z"/><path class="cls-4" d="M441.33,143.38c-.66-1.22-1.28-2.42-1.88-3.59a141.65,141.65,0,0,1-17.56,19.31A94.84,94.84,0,0,0,441.33,143.38Z"/><path class="cls-4" d="M317.33,123.64l-.06.06.06,0Z"/><path class="cls-4" d="M549.42,66.41A244.65,244.65,0,0,0,562,43.18a.43.43,0,0,0,0-.07l-.22.38c-3.11,5.24-7.49,13-13,23Z"/><path class="cls-4" d="M305.34,68l.94-.11c3.65-6.39,7.93-14.69,12.77-24.71h0l-.24.41c-4.27,7.44-7.17,12.52-8.38,14.68C308.49,61.77,306.79,65,305.34,68Z"/><path class="cls-4" d="M291.19,126.13l.39-4.4a33.12,33.12,0,0,0-6.27,5.37l-.4.52a23.9,23.9,0,0,1,11,13.94c-2.25-12-3.53-14.07-3.77-14.37Z"/><path class="cls-4" d="M551.39,121.45c6.45,5.4,6.73,12.31,5.83,17.16s-2.47,8.19-4.75,10.3a20.28,20.28,0,0,0,7.77-3.9c2.09-11.14,5.46-27.63,10-49l0-.09c3.08-12.82,5-21,5.57-24.38.35-1.87.67-4,1-6.37a69.54,69.54,0,0,0-3.2-10.42,31.93,31.93,0,0,0-2,2.68c-2.56,4.49-5.18,9.12-7.79,13.77-2.06,3.68-3.82,6.79-5.33,9.42,7,8,9.53,17.24,7.64,27.44-1.27,6.87-3.37,11-6.4,12.67l-.46.25h-.5c-2.28,0-5.39-1.09-7.31-6.3l0-.12c-.53-1.61-1.07-3.27-1.6-5-3.33,1.79-6.72,3.56-10.1,5.28-.82.46-1.61.92-2.37,1.39h.13A22.37,22.37,0,0,1,551.39,121.45Z"/><path class="cls-4" d="M588.31,100.16l-.44.11-2-.45L584,109.29a64.63,64.63,0,0,0,6.35-2.63c5.4-2.52,9.25-3.76,11.76-3.79q.78-3.36,1.5-6.9C598.18,97.59,593.07,99,588.31,100.16Z"/><path class="cls-4" d="M592,70.23c-.5,3.48-1.09,7.13-1.75,10.9,1.68-.66,3.93-1.65,7-3.12a35.7,35.7,0,0,1,10.51-3.73c.56-2,1-4,1.4-6,.25-1.33.46-2.7.63-4.1-2.15.64-4.93,1.6-8.31,2.86C597.23,68.65,594.11,69.7,592,70.23Z"/><path class="cls-4" d="M597.23,124.65l-17.83,5.92-.06-.06c-.69,3.31-1.4,6.59-2.13,9.8a78.81,78.81,0,0,1,18-4.63Z"/><path d="M636.2,55.39a24.31,24.31,0,0,0-7.43-10.85l0,0c-4.81-3.81-8.54-5.65-11.4-5.65-1.3,0-4.1.59-14.28,5.19l0,0c-4.74,2.25-9.49,4.47-14.15,6.59-3-.45-5.68-1-8.06-1.59l.33-.12.68-.25.46-.66a8.77,8.77,0,0,0,1.5-3.54c.68-3.66-.81-7.19-4.42-10.49-3.21-2.94-6.07-4.26-8.73-4H569l-.58.44a32.41,32.41,0,0,1-7,4.06l-1.19.5a15.23,15.23,0,0,0-3-2.76l0,0A16.08,16.08,0,0,0,549,29l-.43,0-9.14,3.72-1,5.35,1.28,1.21a15,15,0,0,1,2.76,3.63c-4.48,12.63-8.62,22.18-12.34,28.41a10.22,10.22,0,0,1-5,2.37c-2.34.43-4.71.88-7.06,1.34l-.66.13A25.27,25.27,0,0,0,512,66.84c-4.87-5.22-9-7.75-12.74-7.75-.18,0-.3,0-5.23.76l.33-.29c3.82-3.34,6.37-6.13,7.82-8.53l.38-.65.09-.8c.52-4.75-2.62-7.74-5.35-9.41l-.06,0a16.33,16.33,0,0,0-8-2.45,16.77,16.77,0,0,0-5.9,1.58,17.39,17.39,0,0,1-3.9,1.23c1.47-1,4.09-3.11,4.31-6.48l.06-.87-.31-.77a28.64,28.64,0,0,0-11.44-13.74l-.52-.34H470a11.92,11.92,0,0,0-7.9,2.62l-.72.54-1.45,4.72c-8.37,10.45-21,20.54-37.5,30l-2.5,1.43,2.49,5.28,6.47,1A23.15,23.15,0,0,1,431,72.29L421.41,76a48.05,48.05,0,0,1-5.07-5.61l-.72-.93h-4.15L411,71.84a103.53,103.53,0,0,1-6.65,20.75l-3.9,8.29v0c-2.53,5.54-3.09,7.56-3.31,8.69a14.84,14.84,0,0,0,.61,8.24c1.15,3.18,3.27,4.93,6,4.93,5,0,9.43-4.41,13.24-13.14a80.85,80.85,0,0,0,5.24-17.73,24.68,24.68,0,0,0,3.83-.43c-.64,1.73-1.54,3.89-2.78,6.59-2.65,5.77-4.22,10.1-4.8,13.22-.76,4.08-1.23,11.35,4.12,14.11l.58.3.62-.1c3.62-.53,7-3.27,10.17-8.14l0,0c.13-.2.25-.41.38-.62l0,.92A154.23,154.23,0,0,1,410.11,148a256.92,256.92,0,0,1-20.49,17.71q.19-.81.36-1.68a42.6,42.6,0,0,0,.55-9.94V154c-.74-11-.8-13.23-.79-13.69v-.27c0-14.15-.63-18.41-1.07-20.39l-.51-2.25h-4.67l-.55,2.14c-2.79,10.88-5.49,19.17-8,24.63l0,.05c-4.18,9.38-8.79,14.13-13.7,14.13-7.25,0-10.24-1.64-11.47-3-2.25-2.73-1.68-9-.79-13.73a125.32,125.32,0,0,1,3.25-12.9,22.17,22.17,0,0,1,7.65-1.59c.32,0,.65,0,1,0a20.53,20.53,0,0,0,4.31,6.37l1,1,1.2-.49c2.73-1.11,5.31-3.89,7.89-8.51l.08-.16c.71-1.45,3.18-6.69,7.54-16,6.64-14.2,6.69-14.5,6.81-15.16.84-4.53-2.47-8.61-5-11.29-4.81-5-6.72-5.72-8.07-5.72-.71,0-1.63.26-3.86,1.52a8.45,8.45,0,0,1-2.14,1l-.13-.06L369,78.81l-3.75,3.85.75,2.17a18.42,18.42,0,0,1,1,9.41,52,52,0,0,1-3.19,10.3c-2.41.3-4.78.68-7.06,1.16,1.73-7.71,3.92-16.72,6.54-26.87,4.81-1.48,9.75-3,14.71-4.43l.08,0c9.53-3.21,14.17-6.7,15-11.31a9.42,9.42,0,0,0-4-9.76,12.53,12.53,0,0,0-7-2.4,5.7,5.7,0,0,0-1.91-.34c-.62,0-1.31,0-10.71,4.42a44.59,44.59,0,0,1,1.58-5.8c.31-.74,1.5-3,6-9.92l.43-.67.1-.85c.48-4-1.33-7.63-5.38-10.79l0,0c-3.23-2.38-6.33-3.59-9.21-3.59-1.56,0-3.48.73-6.05,2.31l-.08.05c-3.29,2.2-4.22,2.51-4.37,2.55l-1.52.41L350,34.45l1.19,1.22A14.22,14.22,0,0,1,354,41.62l-3.86,20.82a59.92,59.92,0,0,1-20.91,3.67l-2.46,0,.07,5.81.24.62c3,7.92,6.95,11.94,11.64,11.94h.2l6.7-1.4-6.93,28.07c-1.25.61-2.57,1.19-4,1.71.29-1.48.75-3.6,1.36-6.3.71-3.09,1.22-5.48,1.52-7.09.88-4.72.88-6.56.59-7.77-1.05-4.8-5.84-7.52-15.06-8.56l-2.11-.24L320,88.74l.64,1.14a12.45,12.45,0,0,1,1.11,5.29,36.19,36.19,0,0,0-6.61-12.57c2.72-5.21,4.88-9.21,6.44-11.89l.05-.09c5.34-9.9,6.79-12.38,7.18-13l0,0c2.79-4.4,5.78-7.26,8.91-8.52l.71-.28.47-.75a10.77,10.77,0,0,0,1.58-3.72c.7-3.73-.71-7.33-4.18-10.69-3.13-3-6-4.39-8.63-4.15h-1.54l-.6.48a29.39,29.39,0,0,1-7,4.19l-1.08.45A13.55,13.55,0,0,0,314.85,32a14.44,14.44,0,0,0-8.3-3.48l-.44,0L297,32.39l-1,5.32,1.28,1.21A13.54,13.54,0,0,1,300,42.79c-4.93,14.16-9.2,24.36-12.73,30.35C284.86,75.2,281,76.49,275.8,77l-1.28.12-.65,1.41a55.31,55.31,0,0,0-3.49,12.55c-.95,5.09-.81,8.3.45,10.41a4,4,0,0,0,3.24,2.09l.82,0,.68-.59A49.48,49.48,0,0,1,290.15,94c-1.17,1.73-2.34,3.48-3.53,5.23a29.29,29.29,0,0,1-8.56,8.42l-3.94-2-3.86,2.19v2a101.38,101.38,0,0,0,1,13.53c.75,6.41,1.93,12.41,5.47,13l1.18.18.84-1.07,1-1.27c.38,3.9.59,7,.62,9.1-.06,3.15-.13,6.3-.19,9.45a42.55,42.55,0,0,0-1.4-5.75l0-.07c-1.67-4.92-4.87-10.73-10.68-10.73h-2.53l-.87,4.69.09.64a40,40,0,0,1-.08,11.4l-.11.74q-1.05,7-2.09,14l0,.18V168c-.2,3.7.23,6.6,1.33,8.85a7.66,7.66,0,0,0,5.61,4.45l.86.16.74-.55c4.76-3.55,7.85-9,9.18-16.17h0a31.28,31.28,0,0,0,.52-4.86c1.48,6.07,5.06,7.08,7.28,7.08a12.7,12.7,0,0,0,2.35-.2l1-.16.61-1a31.49,31.49,0,0,0,4.32-11.27h0a30.46,30.46,0,0,0,.31-9.89c1.88,7.84,4.88,11.63,8.92,11.27h1.64l.65-.6c2.49-2.34,4.26-6.26,5.26-11.65,1.32-7.11-.51-13.14-5.3-17.43a20.76,20.76,0,0,0-13.73-5.6l-.4,0c.82-.52,1.68-1,2.59-1.58,3.32-1.88,6.65-3.81,9.95-5.74q.7,2.55,1.48,5.07c1.8,5.76,4.88,7,7.14,7h.53l.49-.28a6.64,6.64,0,0,0,.65-.43,30.3,30.3,0,0,0,.21,9.27c1.16,7.12,4.34,8.08,6.17,8h1.14l.65-.6a37.65,37.65,0,0,1,9.34-6.8c-.27,1.55-.63,3.54-1.11,6.1a94.63,94.63,0,0,0-1.55,11.33c-1.37,20.2,8.06,25.59,16.22,26.56,12.49,1.52,12.89,1.52,13.13,1.52A52.22,52.22,0,0,0,378,177.21l5.46,1.57h.28c5.37,0,11.26-1.64,17.59-4.88l1.77.95a27.59,27.59,0,0,0,13.29,3.43c5.93,0,12.36-1.89,19.09-5.6A67.7,67.7,0,0,0,451,160.93c2.65,3.75,6,7.95,9.91,12.52,8.79,10.21,12.18,11.51,14.16,11.51,9.62,0,19.07-3.4,28.08-10.12l.33-.24,2.67-3.77-2-2.06c-3.53-3.68-10.78-8.37-22.16-14.34-8-4.23-14-8.83-17.78-13.69l4.43-6.28a11.59,11.59,0,0,1,2.78-1.18,11.48,11.48,0,0,0,3.84-1.24l.87-.49.38-1.11a13.43,13.43,0,0,0,.51-1.85,13.91,13.91,0,0,0,0-5.46A44.52,44.52,0,0,0,491.49,114l.28-.27.21-.36a11.77,11.77,0,0,0,1.43-3.8c.52-2.76-.87-5.8-4.65-10.17-1.16-1.39-2-2.53-2.69-3.44a9.86,9.86,0,0,0,5.46-4.68l12-1.22A29.31,29.31,0,0,0,513,87.89c-.85,5.09-.64,8.33.67,10.42a4.07,4.07,0,0,0,3.52,2.07h.77l.63-.56a44.65,44.65,0,0,1,14.59-8.13c-2,2.82-2.86,4-3.26,4.51l0,0A30.28,30.28,0,0,1,521,104l-4.16-1.66-3.6,1.84-.05,2a70.68,70.68,0,0,0,1.12,13.41c.81,5.54,2.23,11.92,6,12.18l1,.07.76-.89,1.13-1.33a49.83,49.83,0,0,1,.71,8.58c0,3.26,0,6.61-.06,10a35.59,35.59,0,0,0-1.82-7l0-.06c-1.82-4.7-5.21-10.24-11-9.92h-2.28l-.87,4.71.1.65a36.43,36.43,0,0,1,.06,10.53l-2.1,14.22,0,.19v.19c-.52,10.6,4.91,12.25,7.28,12.47l.69.07.62-.41c4.84-3.21,8-8.4,9.26-15.41a29.24,29.24,0,0,0,.5-5.37c1.48,6.69,5.43,7.76,7.8,7.76a7.94,7.94,0,0,0,2.54-.44l.74-.25.49-.75a26.92,26.92,0,0,0,4-10.14c2.58-13.91-4.41-21.71-11.48-25.95l.41-.55a45.89,45.89,0,0,1,6.4-5.11l-.23,2.64-.15,1.55.92,1.06c.22.29,1.44,2.34,4.17,14.28,1.2,5.45,2.88,9.17,5,11.15l-1,1.61-.09.84c-1.46,12.87-.76,19.43,2.34,21.94l1.31,1.06,1.31-1.05a63.2,63.2,0,0,1,40.54-14.06c3.62,0,8.94.77,15.82,2.29,7.25,1.61,12.52,2.39,16.13,2.39,7.71,0,10.19-4.67,10.91-8.58,1.24-6.65-.48-12.07-5-15.69-3.29-2.65-7.54-4-12.65-4H614l4.56-24.61c2.91-15.66,5.31-26.08,7.14-31l0,0a66.74,66.74,0,0,1,4.32-9.79L635,60.81a10.87,10.87,0,0,0,1.35-3.44l.19-1ZM445.08,59.54l6-2.12a30.91,30.91,0,0,1-.37,8.07h0c0,.23-.08.46-.13.69l-4.36,1.07A34.19,34.19,0,0,0,445.08,59.54Zm31.31,36.54c-1.09,5.86-3.5,8.47-7.81,8.47a9.37,9.37,0,0,1-3.95-1c2.7-3.75,5.19-9.28,7.53-16.73A37.51,37.51,0,0,0,476.73,94C476.62,94.75,476.51,95.44,476.39,96.08Zm-11-12.47c-.47-.84-1-1.68-1.51-2.53L468.63,80c.06.09.11.19.17.3C467.62,81.38,466.48,82.51,465.4,83.61ZM451,84.42l.42-.15c0,.57.1,1.15.16,1.73Zm.32,38.29c-.2.73-.45,1.48-.73,2.26l-.51-.58A13.9,13.9,0,0,0,451.34,122.71ZM441.45,87.2a15.54,15.54,0,0,0-.56,2c-1.17,6.29,0,12.68,3.48,19.1a8.24,8.24,0,0,0-1.75-.41l-.68-.09-.61.38a14.44,14.44,0,0,1-3.68,1.73,35.28,35.28,0,0,0,1.47-5.41,27,27,0,0,0-1.59-16.23ZM480,49.58a63.77,63.77,0,0,1-4.91,5.71l0,.05c-4.06,4.51-5.54,5.23-5.89,5.34l-1.89.58a18.57,18.57,0,0,0-1.11-7.52,12.41,12.41,0,0,0-2.46-4.08l10.1-6,2.63-1.41.41,5.21,1.48.65A3.63,3.63,0,0,1,480,49.58Zm-40.56,90.21c.6,1.17,1.22,2.37,1.88,3.59a94.84,94.84,0,0,1-19.44,15.72A141.65,141.65,0,0,0,439.45,139.79ZM590.3,106.66a64.63,64.63,0,0,1-6.35,2.63l1.91-9.47,2,.45.44-.11c4.76-1.17,9.87-2.57,15.25-4.19q-.72,3.54-1.5,6.9C599.55,102.9,595.7,104.14,590.3,106.66Zm18.83-38.34c-.37,2-.84,4-1.4,6A35.7,35.7,0,0,0,597.22,78c-3,1.47-5.28,2.46-7,3.12.66-3.77,1.25-7.42,1.75-10.9,2.1-.53,5.22-1.58,9.44-3.15,3.38-1.26,6.16-2.22,8.31-2.86C609.59,65.62,609.38,67,609.13,68.32Zm-29.79,62.19.06.06,17.83-5.92-2.05,11a78.81,78.81,0,0,0-18,4.63C577.94,137.1,578.65,133.82,579.34,130.51Zm-39.56-15.66c3.38-1.72,6.77-3.49,10.1-5.28.53,1.68,1.07,3.34,1.6,5l0,.12c1.92,5.21,5,6.3,7.31,6.3h.5l.46-.25c3-1.65,5.13-5.8,6.4-12.67,1.89-10.2-.68-19.41-7.64-27.44,1.51-2.63,3.27-5.74,5.33-9.42,2.61-4.65,5.23-9.28,7.79-13.77a31.93,31.93,0,0,1,2-2.68,69.54,69.54,0,0,1,3.2,10.42c-.3,2.36-.62,4.5-1,6.37-.62,3.36-2.49,11.56-5.57,24.38l0,.09c-4.56,21.41-7.93,37.9-10,49a20.28,20.28,0,0,1-7.77,3.9c2.28-2.11,3.87-5.57,4.75-10.3s.62-11.76-5.83-17.16a22.37,22.37,0,0,0-13.85-5.2h-.13C538.17,115.77,539,115.31,539.78,114.85Zm22-71.36.22-.38a.43.43,0,0,1,0,.07,244.65,244.65,0,0,1-12.58,23.23l-.72.08C554.25,56.45,558.63,48.73,561.74,43.49Zm-242.94.13.24-.41h0c-4.84,10-9.12,18.32-12.77,24.71l-.94.11c1.45-3,3.15-6.27,5.08-9.74C311.63,56.14,314.53,51.06,318.8,43.62Zm-22.88,97.94a23.9,23.9,0,0,0-11-13.94l.4-.52a33.12,33.12,0,0,1,6.27-5.37l-.39,4.4,1,1.06C292.39,127.49,293.67,129.55,295.92,141.56Zm21.41-17.92v.08l-.06,0Z"/><path class="cls-6" d="M338.17,43.63A7.79,7.79,0,0,1,337,46.14q-5.42,2.18-10.07,9.53-1.1,1.66-7.33,13.2-2.72,4.68-7.64,14.21,11,12.38,8,28.41-1.56,8.37-5.25,10.53-3.3,0-4.87-5-1.23-4-2.3-8.19-6.22,3.68-12.41,7.19-8,4.68-11.53,8.86l-6.56,8.35q-2.17-.33-3.35-10.36a97.6,97.6,0,0,1-1-13l1.48-.83,4,2a31.65,31.65,0,0,0,10.32-9.77q4.26-6.27,8.31-12.46a49.87,49.87,0,0,0-22.6,11.7q-3-.17-1.42-8.69A52.76,52.76,0,0,1,276,80.07c5.91-.56,10.24-2.11,13-4.68q5.71-9.52,13.72-32.76a17.25,17.25,0,0,0-4-6.19l.31-1.67,7.44-3.17a12.31,12.31,0,0,1,7.09,3c2.68,2.11,3.78,4.51,3.28,7.18q-6.63,11.53-8.4,14.71a161,161,0,0,0-7.56,15.21l6.74-.83q6-10.36,14.18-27.41c-.62-2.34-1.59-3.74-2.91-4.18l.4-2.18a31.19,31.19,0,0,0,7.56-4.51h.92c2.06-.22,4.42.95,7.06,3.51S338.62,41.18,338.17,43.63ZM277.87,164q-1.75,9.53-8,14.21-5.34-1-4.86-10,1.09-7.35,2.2-14.71a44,44,0,0,0,.09-12.54l.31-1.67H268q5.58-.17,8.64,8.86A32.29,32.29,0,0,1,277.87,164Zm16-10.36a27.55,27.55,0,0,1-3.84,10,10.75,10.75,0,0,1-2,.17q-4.74,0-5.39-7.85.12-6.36.25-12.71-.06-4-.86-11.7l.37-2Q296.91,137.41,293.9,153.62Zm16.78-10.87q-1.31,7-4.33,9.86h-.93q-4.71.51-7-11.36-2.64-14.2-4.61-16.38l.12-1.34a18.6,18.6,0,0,1,12.38,5Q312.32,133.9,310.68,142.75Zm-3.44-46.13.22-6.85a102.85,102.85,0,0,1-6.89,10.86Zm80.42,66.69c-.7,3.79-1.91,6.29-3.63,7.52q-8.07,5.85-23.36,5.85-.54,0-12.91-1.5-15.47-1.85-14-23.24a90.43,90.43,0,0,1,1.49-10.86c1-5.57,1.66-9.19,1.89-10.86q-5.5.5-13.94,8.35h-.4c-1.87.11-3.11-1.72-3.72-5.51a25.41,25.41,0,0,1-.07-8.86c-.13.67.35-.73,1.43-4.18a89.19,89.19,0,0,0,2.3-9.53q3.11-16.71-.06-22.4l.34-1.83q11.88,1.33,12.92,6.35.31,1.17-.62,6.18-.44,2.34-1.48,6.94c-.7,3.06-1.2,5.38-1.49,6.93s-.54,3.18-.7,4.52a50.44,50.44,0,0,0,9.12-3.68l8.46-34.27L338.8,81.41q-5.54,0-9.44-10.2l0-2a60.4,60.4,0,0,0,22.95-4.35l4.35-23.4q-1.45-5.68-3.89-8.19l.37-2a23.09,23.09,0,0,0,5-2.84c2.18-1.34,3.85-2,5-2q3.69,0,8,3.17,4.71,3.68,4.24,7.69A95.38,95.38,0,0,0,369,47.73Q368.1,50,366,60q13.3-6.34,14.36-6.35a3.51,3.51,0,0,1,1.52.34,10.4,10.4,0,0,1,6.22,2,6,6,0,0,1,2.77,6.35q-.9,4.86-13.27,9-7.95,2.34-16.06,4.85Q356.4,96,353.46,109.66a79.2,79.2,0,0,1,12-2.18,59.35,59.35,0,0,0,4-12.53,22.19,22.19,0,0,0-1.19-11.37l1.14-1.17a2.25,2.25,0,0,0,1.12.34,7.9,7.9,0,0,0,3.14-1.26,8.53,8.53,0,0,1,2.86-1.25q1.73,0,6.52,5t4.22,8.19q-.1.51-6.54,14.29t-7.51,16q-3.36,6-6.64,7.35a19,19,0,0,1-4.27-6.85,17.43,17.43,0,0,0-2.47-.17,25.49,25.49,0,0,0-9.5,2.17,132.17,132.17,0,0,0-3.78,14.71q-2.26,12.21,1.51,16.72,3.38,3.84,13.13,3.84,8.82,0,15.83-15.71,4-8.52,8.24-25.24h1.06q.93,4.19,1,19.56-.09,1.17.79,14.2A38.64,38.64,0,0,1,387.66,163.31Z"/><path class="cls-6" d="M502.73,171.17l-.72,1q-13,9.69-26.84,9.69-3.3,0-12.51-10.69a152,152,0,0,1-11.28-14.55,65.14,65.14,0,0,1-16.81,13.21q-9.69,5.34-18.13,5.35A25.51,25.51,0,0,1,404.11,172l.16-.83q24.72-9.71,40.38-27.25-2.67-4.84-4.76-9.19A135.42,135.42,0,0,1,414,162.14q-17.14,13.55-30.19,13.54l-1.75-.5a298.53,298.53,0,0,0,29.63-24.74,155.49,155.49,0,0,0,25.11-31.59l.26-5.68a13.11,13.11,0,0,0,5.41-2.18q4.13.51,7.83,6.86a5.06,5.06,0,0,1-.09,1.17c-.29,1.56-1.58,3.28-3.86,5.18l5,5.68a32.11,32.11,0,0,0,2.83-8.19,24.65,24.65,0,0,0,.42-4.35q-13.71-14.2-11.26-27.41.12-.66,2.22-7l-12.08,3.35q5.19,7.51,3.33,17.55a33.46,33.46,0,0,1-4.68,11.7q-4.08,6.34-8.55,7-4.21-2.18-2.66-10.53.78-4.19,4.54-12.37c2.5-5.46,4-9.59,4.53-12.37a23.47,23.47,0,0,1-9.63,1.5L420,90.43a78.2,78.2,0,0,1-5.14,17.72q-5,11.53-11.1,11.53c-1.76,0-3-1.05-3.76-3.17a10.92,10.92,0,0,1-.43-6.19,43.88,43.88,0,0,1,3-7.85l3.93-8.36a106.64,106.64,0,0,0,6.9-21.56h1.19A49.22,49.22,0,0,0,421,79.4l12.5-4.85A27.39,27.39,0,0,0,430.37,61L424,60l-.48-1q25.67-14.7,38.59-31.09l1.34-4.35A9.9,9.9,0,0,1,470,21.4h1.05a25.77,25.77,0,0,1,10.36,12.37c-.09,1.45-1.29,2.9-3.58,4.35l-5,2.67-14.83,8.86a8.14,8.14,0,0,1,6,5.43,16.89,16.89,0,0,1,.2,10.28c1.2-.33,3.07-.89,5.58-1.67q2.1-.66,6.92-6A52.83,52.83,0,0,0,483,50q-1.15-3.67-3.84-4.84l-.12-1.51a15,15,0,0,0,5.14-1.42,15.35,15.35,0,0,1,5.14-1.42,14.41,14.41,0,0,1,7,2.17q4.38,2.68,4,6.19-1.9,3.18-7.25,7.85a93.2,93.2,0,0,0-7.83,7.36q13.86-2.18,14.12-2.17,4.61,0,11.15,7t5.25,12.53l-.12.67q-2.79,3.68-12.18,4.51-13,1.35-13.29,1.34-2.19,5.35-8.35,5.18c.4,1.67,2.17,4.41,5.34,8.19,2.89,3.35,4.21,5.74,3.94,7.19a8.41,8.41,0,0,1-1,2.67,43.22,43.22,0,0,1-16.43,9.7,9.29,9.29,0,0,1,1.14,6.69,11.41,11.41,0,0,1-.38,1.33,9.94,9.94,0,0,1-3.22,1,14.84,14.84,0,0,0-3.87,1.67l-6.26,8.86q5.83,9,20.13,16.54Q497.76,166,502.73,171.17Zm-49.59-105a37.38,37.38,0,0,0,0-12.71l-13.68,4.85L442.68,60a28.77,28.77,0,0,1,1,11l8.84-2.17Q452.89,67.54,453.14,66.2Zm3.66,34.26a96.4,96.4,0,0,1-3.11-20.22l-5.93,2.17Q452.26,96.45,456.8,100.46Zm22-3.67c.23-1.23.43-2.57.61-4-1.57-1.44-3.29-4-5.16-7.68a66.89,66.89,0,0,0-4.61-8.53l-10.49,2.51a40.13,40.13,0,0,1,5.68,9.19c1.86-2,3.92-4.07,6.16-6.18q-4.92,17.2-10.72,22.23,4.79,3.34,8.34,3.34Q476.81,107.65,478.83,96.79Zm14.25-19.23q-3.36-2.5-10.08-2.5c-1.32,0-2.78,0-4.39.16q8.14,2.36,10.67,7.19Z"/><path class="cls-6" d="M581.46,43.79a5.61,5.61,0,0,1-.93,2.18q-5.94,2.18-10.73,9.52-3.91,6.85-7.85,13.88t-6.65,11.7q11.31,11.54,8.57,26.24-1.61,8.7-5,10.53-3.43,0-5.1-4.51-1.26-3.84-2.49-7.86-6.16,3.34-12.42,6.52a55.3,55.3,0,0,0-11.73,8.53q-2.1,2.83-6.66,8.19-2.34-.17-3.73-9.7a65.81,65.81,0,0,1-1.07-12.7l1.31-.67,4.17,1.67a31.76,31.76,0,0,0,10.47-8.86q1.53-1.83,8.43-12-15,3.84-22.84,10.86-3.43,0-1.63-9.69a34.6,34.6,0,0,1,2.95-9.53l7-1.34a12.39,12.39,0,0,0,6.32-3.17q6.09-10,13.39-30.93a18.62,18.62,0,0,0-4.06-5.85l.31-1.67,7.41-3a14.09,14.09,0,0,1,7.12,2.85c2.95,2.11,4.2,4.34,3.77,6.68Q554.29,51,543.74,70.2l7-.83a244.65,244.65,0,0,0,14-25.91c-.46-2.23-1.46-3.51-3-3.84l.41-2.18a34.61,34.61,0,0,0,7.53-4.34h1c2.06-.23,4.46.92,7.21,3.42S581.89,41.45,581.46,43.79Zm-60,114q-1.7,9.19-8,13.37-5.44-.49-5-9.19,1-7,2.11-14.21a40.24,40.24,0,0,0-.07-11.7l.31-1.67h.39q5.48-.33,8.77,8.19A28.49,28.49,0,0,1,521.42,157.79Zm16.08-9.19a23.6,23.6,0,0,1-3.49,8.85,5.8,5.8,0,0,1-1.91.34q-4.87,0-5.75-7.36.09-6.18.09-12.2a52.11,52.11,0,0,0-1.16-11.2l.35-1.83Q540.41,132.88,537.5,148.6Zm17.4-10.7q-1.23,6.69-4.44,9h-1.05q-4.71.51-7.14-10.53-3.13-13.69-4.87-15.71l.12-1.33A20.23,20.23,0,0,1,550.1,124Q556.48,129.37,554.9,137.9Zm-4.23-44,0-6.52a94.42,94.42,0,0,1-6.77,10.2Zm79.13,60.17q-1.15,6.19-8.53,6.19-5.14,0-15.72-2.34t-16.24-2.34a64.91,64.91,0,0,0-41.84,14.54q-3.09-2.5-1.24-18.89l.74-1.17,4.48,2.17a22.31,22.31,0,0,0,11-5.35q3.09-16.71,10.22-50.14,4.65-19.4,5.62-24.57c.39-2.12.75-4.51,1.07-7.19a72.8,72.8,0,0,0-3.94-12.87l.64-1.34a71,71,0,0,0,13.15,3q7.35-3.33,14.72-6.85,11.07-5,13.45-5,3.55,0,10.11,5.18A21.39,21.39,0,0,1,634,56.66a7.92,7.92,0,0,1-1,2.34q-2.6,4.7-5,9a69.87,69.87,0,0,0-4.54,10.28q-2.88,7.68-7.31,31.59L611,138.4c1.25-.11,2.45-.17,3.59-.17q7,0,11.35,3.51Q631.29,146.09,629.8,154.11Zm-29.2-33.76L580,127.2l-2-1.84q-2,10.2-4.31,19.73a77.36,77.36,0,0,1,23.61-6.52ZM607,91.77q-10.22,3.17-19.05,5.34l-3.8-.83L580.75,113h.39c1.56.12,4.92-1,10.06-3.42s8.82-3.6,11-3.6a8,8,0,0,1,1.68.17Q605.57,99.29,607,91.77ZM611.57,69a76.09,76.09,0,0,0,1.09-8.69,85.14,85.14,0,0,0-11.84,3.76q-8.28,3.11-10.85,3.43-1.15,8.35-2.92,17.88,3.15-.66,11.12-4.51,7-3.51,11.36-3.68A68.06,68.06,0,0,0,611.57,69Z"/></svg>