<svg id="圖層_1" data-name="圖層 1" xmlns="http://www.w3.org/2000/svg" viewBox="0 0 166.28 43.39"><defs><style>.cls-1{fill:#fff;}</style></defs><path class="cls-1" d="M.34,14.28a13.27,13.27,0,0,1,4.7.13A5,5,0,0,1,7.6,15.75a2.61,2.61,0,0,1,.76,1.89,3.4,3.4,0,0,1-.65,1.85A2.88,2.88,0,0,1,6.09,20.6a3.33,3.33,0,0,1-2.23-.27A7.62,7.62,0,0,0,3,18.12a11.51,11.51,0,0,0-1.4-2A13.26,13.26,0,0,0,0,14.62ZM2.52,31a2.82,2.82,0,0,0,.74-.21,2.64,2.64,0,0,0,.65-.8l.58-1c.2-.33.46-.82.78-1.45S6.05,26,6.66,24.78s1.42-2.93,2.45-5.08,2.37-4.93,4-8.32l.63.09c-.36,1-.75,2.1-1.17,3.38s-.84,2.58-1.26,3.92l-1.2,3.85c-.38,1.21-.71,2.29-1,3.21s-.49,1.62-.61,2.1c-.19.7-.37,1.41-.52,2.14A7.71,7.71,0,0,0,7.77,32a4.67,4.67,0,0,0,.34,1.56c.19.47.41,1,.65,1.45a10.22,10.22,0,0,1,.61,1.68,9,9,0,0,1,.21,2.37,4,4,0,0,1-1.14,2.75,4.66,4.66,0,0,1-2.77,1.41,2.35,2.35,0,0,1-1.51-.28,2.19,2.19,0,0,1-1.05-1.53,24.68,24.68,0,0,0,.52-4.18A16.25,16.25,0,0,0,3.49,34q-.21-1.27-.72-1.53a2.78,2.78,0,0,0-1-.4,3.73,3.73,0,0,0-1.21,0v-.76l1.28-.19ZM3.44,4.66a14.47,14.47,0,0,1,5,.07,5.38,5.38,0,0,1,2.71,1.34A2.86,2.86,0,0,1,12,8a3,3,0,0,1-.59,1.87,3.33,3.33,0,0,1-1.63,1.18,3.07,3.07,0,0,1-2.25-.15A10.33,10.33,0,0,0,6.43,8.67,18.06,18.06,0,0,0,4.85,6.59,13.45,13.45,0,0,0,3.15,5Zm8.57,12,20.41-2.89,2.82-4.2c.67.5,1.27.93,1.8,1.28s1.09.74,1.66,1.17,1.09.84,1.54,1.2a.77.77,0,0,1-.38.55,2.37,2.37,0,0,1-.8.29L12.35,17.81ZM33.22,0l5.25,4.33a2.28,2.28,0,0,1-1.11.46,4.59,4.59,0,0,1-1.79-.13q-2.85.93-6.72,2t-8.06,2q-4.2.91-8.11,1.55l-.12-.54q2.64-1,5.54-2.19c1.93-.81,3.84-1.64,5.71-2.5s3.63-1.7,5.25-2.54S32.07.73,33.22,0ZM14.32,25.58V23.39l5.59,1.39,13.48-1.89v1.18L19.66,26V39.4c0,.14-.23.37-.68.71a9.45,9.45,0,0,1-1.72,1,7.31,7.31,0,0,1-2.18.61l-.76.08Zm3,10.88,16-2.27v1.17l-16,2.27ZM22.76,5.92l5.55-1.55V24.15a8.71,8.71,0,0,1-1.22.19c-.78.1-1.88.26-3.28.48l-1,.13Zm9,17.22-.46,0,2.52-3,5,3.11a3.71,3.71,0,0,1-.63.63,3.45,3.45,0,0,1-1,.54V36.92c0,.11-.25.32-.76.63a13.36,13.36,0,0,1-1.78.9,6.77,6.77,0,0,1-2,.53l-.92.16Z"/><path class="cls-1" d="M59.81,1.76l4.49,4c-.56.54-1.47.62-2.73.26q-2.43.63-5.67,1.36T49.16,8.74q-3.51.63-6.78,1.09l-.09-.63q2.19-.72,4.62-1.68c1.63-.65,3.24-1.3,4.83-2s3.1-1.33,4.5-2S58.83,2.32,59.81,1.76Zm-17.47,11,15.87-2.23,2.48-3.48,2.65,1.68a20.07,20.07,0,0,1,1.89,1.34c-.09.45-.47.71-1.14.8l-21.42,3ZM42.5,37.3c1.24-.23,3-.57,5.21-1s4.78-1,7.62-1.62l8.76-1.89,0,.46q-2.85,1.64-7.26,3.8T46,42a2.14,2.14,0,0,1-1.3,1.18Zm.51-5L57.58,30.2,59.93,27c1,.58,1.8,1.09,2.46,1.51s1.27.84,1.83,1.26c-.11.45-.49.71-1.14.8L43.34,33.39Zm.54-15.5V14.83l5,1.21,9.5-1.34,2.26-2.86,4.29,2.65a1.51,1.51,0,0,1-.53.57,4.31,4.31,0,0,1-1,.44v10c0,.12-.35.37-1.07.76a8.56,8.56,0,0,1-2.92.84l-.88.17V15.88l-10,1.42V28.35c0,.17-.34.44-1,.82a7.75,7.75,0,0,1-2.8.78l-.8.12Zm2.69,4.79,13.9-1.94v1.18l-13.9,1.93Zm0,5.2,13.9-1.93V26l-13.9,2ZM50.78,7.22l4.66-1.59V35.74c0,.14-.38.44-1.07.91a7,7,0,0,1-2.75,1l-.84.09ZM67.07,1.34l6.72-.29a1.36,1.36,0,0,1-.46.84,2.84,2.84,0,0,1-1.09.55q0,5.33-.13,10a86.82,86.82,0,0,1-.56,8.74,33.49,33.49,0,0,1-1.81,7.66,24.36,24.36,0,0,1-3.82,6.74,31.18,31.18,0,0,1-6.57,6L58.88,41a26.82,26.82,0,0,0,4.46-6.32,30.19,30.19,0,0,0,2.45-6.95A47.7,47.7,0,0,0,66.86,20c.17-2.71.25-5.62.24-8.71S67.07,4.9,67.07,1.34ZM63.25,12.1l14.24-2V11.3L63.63,13.23Zm12.27-1.73-.51.09,2.73-3.15,4.5,3.32a1.9,1.9,0,0,1-.61.63,3.69,3.69,0,0,1-1.16.46q-.12,6.37-.29,10.73t-.48,7.14A22,22,0,0,1,78.83,34a7.48,7.48,0,0,1-1.38,2.6,7.23,7.23,0,0,1-2.4,1.85,10.53,10.53,0,0,1-3,.93A12.93,12.93,0,0,0,72,37.23,2.49,2.49,0,0,0,71.44,36a2.84,2.84,0,0,0-1.17-.86,6.12,6.12,0,0,0-1.81-.4v-.54l1.3-.11,1.41-.12c.46-.05.82-.1,1.07-.15a2.12,2.12,0,0,0,.78-.21,2.79,2.79,0,0,0,.61-.46,7,7,0,0,0,1-3.28c.23-1.68.42-4.11.54-7.29S75.43,15.3,75.52,10.37Z"/><path class="cls-1" d="M92.06,32.76a3.32,3.32,0,0,1,1,0,2,2,0,0,1,.69.38,10.32,10.32,0,0,0,4,2,19.51,19.51,0,0,0,5.46.46,71.6,71.6,0,0,0,7.71-.73c2.35-.34,4.58-.67,6.68-1s4.34-.73,6.72-1.17v.46a4.66,4.66,0,0,0-2.4,1.93,7.31,7.31,0,0,0-1,2.94l-3.46.48-4.1.57c-1.4.2-2.74.39-4,.59a30.32,30.32,0,0,1-7.33.31,11.48,11.48,0,0,1-5-1.59,14.09,14.09,0,0,1-3.76-3.59c-.28-.4-.55-.56-.8-.49a1.36,1.36,0,0,0-.72.7c-.28.53-.64,1.21-1.09,2L89.1,39.69c-.52,1-1,1.85-1.36,2.69a1,1,0,0,1-.42,1l-3.45-4.67c.68-.5,1.44-1.07,2.29-1.72s1.68-1.29,2.48-1.93,1.51-1.18,2.14-1.62A4.15,4.15,0,0,1,92.06,32.76Zm1.81.67-4.7,1.93V20.2l-4.67.67-.25-1.13,4.29-.59,2.39-3.57L96,19a3.33,3.33,0,0,1-.75.61,8,8,0,0,1-1.39.65ZM86.14,5a13.74,13.74,0,0,1,5,1.32A7.25,7.25,0,0,1,93.81,8.5a4.15,4.15,0,0,1,.77,2.42A3.52,3.52,0,0,1,93.89,13a2.76,2.76,0,0,1-1.7,1.11A3,3,0,0,1,90,13.61a13.63,13.63,0,0,0-1-3,24.72,24.72,0,0,0-3.28-5.37Zm21.72,13.23c.89.53,1.65,1,2.26,1.3a18,18,0,0,1,1.73,1.05c-.09.45-.47.71-1.14.8l-16,2.26-.34-1.13,11.38-1.6Zm-4.92,3.15a23.12,23.12,0,0,1-.77,4.7,16.52,16.52,0,0,1-2.23,4.81,17.36,17.36,0,0,1-4.56,4.47l-.54-.46a15.92,15.92,0,0,0,2.33-4.45A19.31,19.31,0,0,0,98,26.08c.11-1.43.18-2.78.21-4.07ZM100.42,18q0,.21-.57.6a7.66,7.66,0,0,1-1.42.78,7,7,0,0,1-1.79.51L96,20V6.05l4.58,1.17,6.22-.88V7.56l-6.39.88Zm6.68-2.78v1.22l-7.94,1.09V16.34Zm-.17-4.32v1.17l-7.73,1V11.93Zm-6.84,6.76a9.28,9.28,0,0,1,3.34.13,2.41,2.41,0,0,1,1.49.94A1.51,1.51,0,0,1,105,20a2.65,2.65,0,0,1-.92,1.2,2.89,2.89,0,0,1-1.54.57,2.79,2.79,0,0,1-1.74-.53,3.93,3.93,0,0,0-.23-1.91,4.54,4.54,0,0,0-.82-1.45Zm6.67-15.58a1.33,1.33,0,0,1-.44.75,2,2,0,0,1-1,.47c-.56.67-1.24,1.4-2.05,2.2S101.65,7,100.93,7.69l-.63.08c.11-.81.19-1.76.25-2.86s.08-2.05.08-2.89ZM104.5,24.57l2.22-2.39,4,2.64a1.57,1.57,0,0,1-.55.48,3.6,3.6,0,0,1-1,.4,33.13,33.13,0,0,1-.74,5,4.41,4.41,0,0,1-3.11,3.49,13.34,13.34,0,0,1-1.91.46,6.46,6.46,0,0,0-.12-1.3,1.9,1.9,0,0,0-.46-.93,2.1,2.1,0,0,0-.95-.69,5.31,5.31,0,0,0-1.45-.36v-.5l1.68-.17c.59-.06,1-.11,1.3-.17a1,1,0,0,0,.36-.06.43.43,0,0,0,.23-.23,4.67,4.67,0,0,0,.53-1.79c.15-.93.28-2.23.4-3.88Zm2.18-.29v1.21l-6.22.84V25.16Zm-2.06-17.6,1.93-2.31,4,2.43a2,2,0,0,1-1.21.8v8.49c0,.08-.21.25-.61.5a9.34,9.34,0,0,1-1.45.71,5.7,5.7,0,0,1-1.56.42l-.75.09V6.59Zm17,1.05a51.73,51.73,0,0,1-1.8,10.2,30.8,30.8,0,0,1-4.27,9,29.42,29.42,0,0,1-7.83,7.58l-.33-.37a29.8,29.8,0,0,0,5.41-7.84,35.67,35.67,0,0,0,2.78-8.65,58.31,58.31,0,0,0,1-9.18ZM118.19,1a1.59,1.59,0,0,1-.42.77,2.08,2.08,0,0,1-1,.53A47.75,47.75,0,0,1,114,11.42a25.31,25.31,0,0,1-4.41,7.14l-.63-.25A47.79,47.79,0,0,0,111,10a59.84,59.84,0,0,0,.79-9.2Zm-6.26,13.14a29.1,29.1,0,0,1,5.92,4.24,20.48,20.48,0,0,1,3.45,4.2,11.65,11.65,0,0,1,1.47,3.7,5.78,5.78,0,0,1-.09,2.79,2,2,0,0,1-1.22,1.39,2.38,2.38,0,0,1-2-.44,19.53,19.53,0,0,0-1.28-3.91q-.9-2.05-2.06-4.11t-2.39-4c-.83-1.28-1.62-2.45-2.38-3.51ZM120,4.7c1,.7,1.76,1.3,2.42,1.79a19.28,19.28,0,0,1,1.7,1.41,1.13,1.13,0,0,1-1.09.79l-9.58,1.39V8.86l4.29-.59Z"/><path class="cls-1" d="M131.25,31.84a13.28,13.28,0,0,1,1,5.81,7.42,7.42,0,0,1-1.39,4,2.74,2.74,0,0,1-1.41,1,3.06,3.06,0,0,1-1.72,0,2,2,0,0,1-1.24-1,2.38,2.38,0,0,1,0-2.1,4.92,4.92,0,0,1,1.41-1.85,7.56,7.56,0,0,0,1.28-1.51A11.48,11.48,0,0,0,130.24,34a5.79,5.79,0,0,0,.46-2.16Zm9.28-26.46a1.44,1.44,0,0,1-.8.65,2.45,2.45,0,0,1-1.63,0l1.34-.42c-.59.84-1.31,1.77-2.16,2.81s-1.79,2.08-2.8,3.13-2,2-3,3a35.1,35.1,0,0,1-2.92,2.42l0-.51,2.48-.33a9.62,9.62,0,0,1-.74,3.44,4,4,0,0,1-1.45,1.81L126.46,16a7.27,7.27,0,0,0,1.43-.71,14.51,14.51,0,0,0,1.83-2.39q1-1.56,1.89-3.39c.6-1.21,1.14-2.41,1.61-3.59a22.71,22.71,0,0,0,1.05-3.1Zm4.79,7.72a1.41,1.41,0,0,1-.86.59,2.73,2.73,0,0,1-1.66-.12l1.3-.38a32.77,32.77,0,0,1-2.81,3.42c-1.18,1.28-2.48,2.58-3.91,3.93s-2.89,2.62-4.39,3.82a52,52,0,0,1-4.26,3.11l0-.46,2.39-.34a10.47,10.47,0,0,1-.86,3.55A3.73,3.73,0,0,1,128.69,32l-2.19-5.41a10.28,10.28,0,0,0,1.73-.8,21.06,21.06,0,0,0,3.1-3.07,53,53,0,0,0,3.28-4.26q1.59-2.3,2.9-4.54a30.48,30.48,0,0,0,2-3.92ZM127,16c.78-.08,1.82-.21,3.13-.4s2.77-.4,4.41-.65,3.31-.52,5-.8v.59c-1,.62-2.45,1.46-4.32,2.52s-4,2.19-6.3,3.36Zm.71,10.42c.84-.14,2-.36,3.53-.65l5.16-1q2.91-.57,5.88-1.24l.05.5q-1.89,1.14-5.32,3.07t-7.7,4.07Zm7.14,4.24A9.26,9.26,0,0,1,137.89,33a5.3,5.3,0,0,1,1.17,2.52,4.73,4.73,0,0,1-.21,2.27,3.28,3.28,0,0,1-1.17,1.6,2.38,2.38,0,0,1-3.41-.49,20,20,0,0,0,.4-4.22,21.29,21.29,0,0,0-.35-3.84ZM138.68,20a12.38,12.38,0,0,1,3.93,1.6,5.09,5.09,0,0,1,1.89,2.06,3.53,3.53,0,0,1,.3,2.08,3.25,3.25,0,0,1-.84,1.66,2.58,2.58,0,0,1-1.56.77,2.62,2.62,0,0,1-1.87-.61,11.75,11.75,0,0,0-.38-2.6,17.73,17.73,0,0,0-.84-2.52,15.26,15.26,0,0,0-1.05-2.14Zm.63,9.24a10.89,10.89,0,0,1,4,1.2,5,5,0,0,1,2,1.89,3.42,3.42,0,0,1,.38,2,3.1,3.1,0,0,1-.8,1.7,2.71,2.71,0,0,1-1.55.84,2.5,2.5,0,0,1-1.87-.53,10.6,10.6,0,0,0-.4-2.49,14,14,0,0,0-.93-2.38,10.71,10.71,0,0,0-1.24-2ZM155.48,2.1a1.4,1.4,0,0,1-.52.73,2.58,2.58,0,0,1-1.11.45A62.73,62.73,0,0,1,150.93,10a41.87,41.87,0,0,1-3.57,5.81,37.26,37.26,0,0,1-4.22,4.83l-.55-.25a46,46,0,0,0,2.31-5.63c.73-2.12,1.39-4.36,2-6.7a64.79,64.79,0,0,0,1.4-6.95Zm-6.88,14a13.8,13.8,0,0,1,4.6,2.12A7,7,0,0,1,155.46,21a4.91,4.91,0,0,1,.42,2.71,4,4,0,0,1-.92,2.12,2.66,2.66,0,0,1-1.81.94A3.11,3.11,0,0,1,151,26a12.43,12.43,0,0,0-.38-3.36,24.64,24.64,0,0,0-1.07-3.28,29.21,29.21,0,0,0-1.37-2.9Zm13.23-8.74V8.57l-12.94,1.8.59-1.26Zm-3,.38,2.82-3.23L166.28,8a3,3,0,0,1-.76.61,5.16,5.16,0,0,1-1.22.48c-.11,4.32-.28,8.06-.5,11.24s-.5,5.86-.84,8a31.8,31.8,0,0,1-1.22,5.36,8.49,8.49,0,0,1-4.47,5.33,11,11,0,0,1-3.51,1,10.17,10.17,0,0,0-.19-2.12,2.63,2.63,0,0,0-.65-1.37,3.15,3.15,0,0,0-1.53-.9,12,12,0,0,0-2.46-.44v-.55c.62,0,1.28-.1,2-.12s1.38-.08,2-.15l1.49-.15a2.61,2.61,0,0,0,.93-.29,3,3,0,0,0,.71-.55c.62-.61,1.14-2,1.56-4.07a75.82,75.82,0,0,0,1.05-8.57q.42-5.41.67-13.06Z"/></svg>