<svg id="圖層_1" data-name="圖層 1" xmlns="http://www.w3.org/2000/svg" viewBox="0 0 248.93 24.79"><defs><style>.cls-1{fill:#003f57;}</style></defs><path class="cls-1" d="M.19,8.16a7.69,7.69,0,0,1,2.69.07A2.91,2.91,0,0,1,4.34,9a1.51,1.51,0,0,1,.44,1.08,1.9,1.9,0,0,1-.38,1.06,1.61,1.61,0,0,1-.92.63,1.87,1.87,0,0,1-1.27-.15,4.52,4.52,0,0,0-.49-1.26A6.61,6.61,0,0,0,.91,9.23,6.76,6.76,0,0,0,0,8.35Zm1.25,9.58a2.26,2.26,0,0,0,.42-.12,1.42,1.42,0,0,0,.37-.46c.11-.19.23-.38.34-.58s.26-.46.44-.82.45-.9.79-1.6.82-1.67,1.41-2.9L7.49,6.5l.36,0c-.21.56-.43,1.21-.67,1.93S6.7,10,6.46,10.73l-.69,2.19c-.21.7-.41,1.31-.57,1.84s-.29.93-.35,1.2-.21.81-.3,1.22a4.16,4.16,0,0,0-.11,1.11,2.88,2.88,0,0,0,.19.89c.11.27.24.54.37.82a4.68,4.68,0,0,1,.35,1,4.58,4.58,0,0,1,.12,1.36,2.25,2.25,0,0,1-.65,1.57,2.65,2.65,0,0,1-1.58.81,1.39,1.39,0,0,1-.86-.16,1.26,1.26,0,0,1-.6-.88,15.79,15.79,0,0,0,.3-2.38A10,10,0,0,0,2,19.45c-.08-.49-.21-.78-.41-.87A1.43,1.43,0,0,0,1,18.35a2,2,0,0,0-.7,0V17.9L1,17.8ZM2,2.66a8.36,8.36,0,0,1,2.83,0,3.09,3.09,0,0,1,1.55.77,1.62,1.62,0,0,1,.5,1.11,1.68,1.68,0,0,1-.33,1.07,1.94,1.94,0,0,1-.94.67A1.74,1.74,0,0,1,4.3,6.24,6.07,6.07,0,0,0,3.67,5a8.84,8.84,0,0,0-.9-1.19,8.44,8.44,0,0,0-1-.94ZM6.86,9.53,18.53,7.87l1.61-2.4c.38.29.72.53,1,.73s.62.43.95.68.62.47.87.68a.41.41,0,0,1-.21.31,1.26,1.26,0,0,1-.46.17L7.06,10.18ZM19,0l3,2.47a1.23,1.23,0,0,1-.63.27,2.68,2.68,0,0,1-1-.08C19.24,3,18,3.39,16.49,3.78s-3,.76-4.61,1.12-3.14.64-4.63.88l-.07-.31c1-.37,2.06-.78,3.16-1.25s2.2-.94,3.27-1.42,2.07-1,3-1.46S18.33.42,19,0ZM8.18,14.62V13.37l3.2.79,7.7-1.08v.67l-7.85,1.11v7.65c0,.08-.13.22-.38.41a5.54,5.54,0,0,1-1,.56,3.9,3.9,0,0,1-1.24.35l-.44.05Zm1.73,6.21,9.15-1.29v.67L9.91,21.5ZM13,3.38l3.17-.88V13.8a4.87,4.87,0,0,1-.7.11c-.45.05-1.07.15-1.87.27l-.6.08Zm5.11,9.84-.26,0,1.44-1.73,2.88,1.78a2,2,0,0,1-.36.36,2.11,2.11,0,0,1-.6.31V21.1c0,.06-.15.18-.44.36a8,8,0,0,1-1,.51,3.55,3.55,0,0,1-1.11.3l-.53.1Z"/><path class="cls-1" d="M34.18,1l2.56,2.28a1.57,1.57,0,0,1-1.56.14q-1.38.36-3.24.78c-1.23.28-2.51.54-3.85.78s-2.63.45-3.87.63l0-.36q1.24-.42,2.64-1c.93-.37,1.85-.75,2.76-1.13S31.34,2.41,32.14,2,33.62,1.33,34.18,1Zm-10,6.29L33.26,6l1.42-2,1.51,1a12.62,12.62,0,0,1,1.08.77c-.05.26-.26.41-.65.46L24.38,7.94Zm.1,14c.7-.13,1.69-.32,3-.59s2.74-.57,4.36-.92l5-1.08,0,.26c-1.09.63-2.47,1.35-4.15,2.18S28.75,22.94,26.3,24a1.2,1.2,0,0,1-.74.68Zm.29-2.88,8.32-1.17,1.35-1.83c.56.34,1,.63,1.4.87s.73.48,1.05.72c-.07.25-.28.4-.65.45L24.77,19.08Zm.31-8.85V8.47l2.88.7,5.42-.77,1.3-1.63,2.45,1.51a.84.84,0,0,1-.3.32,2.57,2.57,0,0,1-.59.26v5.71c0,.06-.21.21-.61.43a5.13,5.13,0,0,1-1.67.48l-.51.1V9.07l-5.73.82V16.2c0,.1-.2.25-.59.47a4.52,4.52,0,0,1-1.6.44l-.45.07Zm1.53,2.73,7.95-1.1v.67L26.42,13Zm0,3,7.95-1.11v.68L26.42,16ZM29,4.13l2.66-.91v17.2c0,.08-.22.26-.61.52a4.06,4.06,0,0,1-1.57.56l-.48.05ZM38.33.77,42.17.6a.78.78,0,0,1-.27.48,1.56,1.56,0,0,1-.62.31c0,2,0,3.94-.07,5.71a48,48,0,0,1-.33,5,18.68,18.68,0,0,1-1,4.38,14,14,0,0,1-2.18,3.85,17.82,17.82,0,0,1-3.76,3.43l-.26-.31a15.33,15.33,0,0,0,2.54-3.61,17.6,17.6,0,0,0,1.41-4,28.76,28.76,0,0,0,.61-4.41c.09-1.55.14-3.21.13-5S38.33,2.8,38.33.77ZM36.14,6.91l8.14-1.15v.7l-7.92,1.1Zm7-1L42.86,6l1.56-1.8L47,6.07a.92.92,0,0,1-.35.36A2.05,2.05,0,0,1,46,6.7c0,2.43-.1,4.47-.16,6.13s-.16,3-.28,4.08a12.71,12.71,0,0,1-.49,2.53,4.44,4.44,0,0,1-.79,1.49A4.12,4.12,0,0,1,42.89,22a5.81,5.81,0,0,1-1.73.53,6.52,6.52,0,0,0,0-1.23,1.37,1.37,0,0,0-.29-.74,1.65,1.65,0,0,0-.67-.49,3.64,3.64,0,0,0-1-.23v-.31l.74-.06.81-.07a4.85,4.85,0,0,0,.61-.08,1.28,1.28,0,0,0,.44-.12,1.73,1.73,0,0,0,.35-.27A3.91,3.91,0,0,0,42.66,17c.14-1,.24-2.35.31-4.16S43.1,8.74,43.15,5.93Z"/><path class="cls-1" d="M52.61,18.72a1.75,1.75,0,0,1,.54,0,1.31,1.31,0,0,1,.39.22,6,6,0,0,0,2.27,1.12,11.69,11.69,0,0,0,3.12.26,42.57,42.57,0,0,0,4.41-.42c1.34-.19,2.61-.38,3.81-.58s2.48-.41,3.84-.67v.27A2.68,2.68,0,0,0,69.62,20a4.13,4.13,0,0,0-.6,1.68L67,22l-2.34.32c-.8.11-1.56.22-2.3.34a17.36,17.36,0,0,1-4.19.18,6.57,6.57,0,0,1-2.83-.92,8,8,0,0,1-2.15-2.05q-.24-.33-.45-.27a.75.75,0,0,0-.41.39c-.16.31-.37.69-.63,1.17l-.82,1.52c-.3.54-.56,1.06-.78,1.54a.57.57,0,0,1-.24.57l-2-2.66,1.31-1c.48-.36,1-.73,1.41-1.1s.87-.68,1.23-.92A2.35,2.35,0,0,1,52.61,18.72Zm1,.38L51,20.21V11.54l-2.66.39-.15-.65,2.45-.34L52,8.9l2.9,1.95a1.84,1.84,0,0,1-.43.35,4.59,4.59,0,0,1-.79.37ZM49.22,2.83a7.87,7.87,0,0,1,2.86.76A4,4,0,0,1,53.6,4.86a2.33,2.33,0,0,1,.45,1.38,2.09,2.09,0,0,1-.4,1.18,1.63,1.63,0,0,1-1,.63,1.7,1.7,0,0,1-1.27-.27,8.07,8.07,0,0,0-.55-1.73A13.82,13.82,0,0,0,50,4.39,12.83,12.83,0,0,0,49,3Zm12.41,7.56c.51.31.95.55,1.3.75a10.2,10.2,0,0,1,1,.6c0,.25-.26.4-.65.45l-9.16,1.3-.2-.65,6.51-.91Zm-2.81,1.8a12.56,12.56,0,0,1-.44,2.69,9.43,9.43,0,0,1-1.27,2.75,9.93,9.93,0,0,1-2.61,2.55l-.31-.26a8.77,8.77,0,0,0,1.33-2.54A11.14,11.14,0,0,0,56,14.9c.06-.81.1-1.59.12-2.32Zm-1.44-1.92c0,.08-.1.2-.32.35a4.73,4.73,0,0,1-.82.44,3.52,3.52,0,0,1-1,.29l-.36.05V3.46l2.62.67L61,3.62v.7l-3.65.5ZM61.2,8.69v.69L56.66,10V9.34Zm-.1-2.47v.67l-4.41.6V6.82Zm-3.91,3.86a5.35,5.35,0,0,1,1.91.07,1.37,1.37,0,0,1,.85.54.85.85,0,0,1,0,.75,1.49,1.49,0,0,1-.53.68,1.59,1.59,0,0,1-.87.32,1.52,1.52,0,0,1-1-.3,2.28,2.28,0,0,0-.13-1.09,2.67,2.67,0,0,0-.47-.83ZM61,1.18a.83.83,0,0,1-.25.43,1.19,1.19,0,0,1-.59.26A14.46,14.46,0,0,1,59,3.13q-.69.69-1.32,1.26l-.36.05c.07-.46.11-1,.15-1.63s0-1.18,0-1.66ZM59.71,14,61,12.67l2.26,1.51a1,1,0,0,1-.31.28,2.6,2.6,0,0,1-.55.23A21.69,21.69,0,0,1,62,17.52a2.54,2.54,0,0,1-1.78,2,8.68,8.68,0,0,1-1.09.27A4.25,4.25,0,0,0,59,19a1.07,1.07,0,0,0-.27-.53,1.15,1.15,0,0,0-.54-.39,3,3,0,0,0-.83-.21v-.28l1-.1a5.49,5.49,0,0,0,.75-.1.56.56,0,0,0,.2,0,.27.27,0,0,0,.13-.13,2.46,2.46,0,0,0,.3-1c.09-.54.17-1.28.23-2.22ZM61,13.87v.7l-3.55.48v-.67Zm-1.18-10L60.89,2.5l2.28,1.39a1.19,1.19,0,0,1-.7.45V9.19c0,.05-.11.15-.35.29a5.68,5.68,0,0,1-.82.41,3.39,3.39,0,0,1-.89.24l-.43,0V3.77Zm9.75.6a30.07,30.07,0,0,1-1,5.83,17.64,17.64,0,0,1-2.44,5.15,17.19,17.19,0,0,1-4.48,4.33l-.19-.22A17.22,17.22,0,0,0,64.49,15a20.86,20.86,0,0,0,1.58-4.95,32.67,32.67,0,0,0,.55-5.24Zm-2-3.87A1.1,1.1,0,0,1,67.3,1a1.3,1.3,0,0,1-.6.3,28.46,28.46,0,0,1-1.56,5.23,14.63,14.63,0,0,1-2.52,4.08l-.36-.15a27.83,27.83,0,0,0,1.17-4.72A34.82,34.82,0,0,0,63.89.48ZM64,8.06a16.87,16.87,0,0,1,3.38,2.43,11.2,11.2,0,0,1,2,2.4A6.43,6.43,0,0,1,70.15,15a3.23,3.23,0,0,1-.05,1.6,1.14,1.14,0,0,1-.69.79,1.37,1.37,0,0,1-1.13-.25,11.2,11.2,0,0,0-.73-2.24c-.35-.78-.74-1.56-1.18-2.35S65.48,11,65,10.28s-.92-1.39-1.35-2Zm4.61-5.37,1.38,1c.37.28.7.55,1,.8-.06.26-.27.41-.62.46l-5.48.79v-.7l2.45-.33Z"/><path class="cls-1" d="M75,18.19a7.54,7.54,0,0,1,.55,3.33,4.21,4.21,0,0,1-.79,2.26,1.47,1.47,0,0,1-.8.54,1.68,1.68,0,0,1-1,0,1.15,1.15,0,0,1-.71-.57,1.37,1.37,0,0,1,0-1.2,2.86,2.86,0,0,1,.81-1,4.5,4.5,0,0,0,.73-.87,5.77,5.77,0,0,0,.63-1.21,3.26,3.26,0,0,0,.27-1.23ZM80.3,3.07a.76.76,0,0,1-.45.37,1.37,1.37,0,0,1-.94,0l.77-.24c-.34.48-.75,1-1.24,1.61s-1,1.19-1.59,1.79-1.16,1.17-1.74,1.7a18.35,18.35,0,0,1-1.67,1.38l0-.29,1.41-.19a5.56,5.56,0,0,1-.42,2,2.23,2.23,0,0,1-.83,1l-1.32-3a4.55,4.55,0,0,0,.82-.41,7.92,7.92,0,0,0,1-1.37A18.4,18.4,0,0,0,75.2,5.46c.35-.7.66-1.38.93-2a14.35,14.35,0,0,0,.6-1.78ZM83,7.49a.82.82,0,0,1-.49.33,1.53,1.53,0,0,1-1-.07l.74-.21a19.64,19.64,0,0,1-1.6,2c-.68.73-1.42,1.48-2.24,2.25s-1.65,1.49-2.5,2.18-1.67,1.28-2.44,1.78l0-.27,1.36-.19a5.91,5.91,0,0,1-.49,2,2.26,2.26,0,0,1-.87,1l-1.25-3.1a5.66,5.66,0,0,0,1-.45A11.64,11.64,0,0,0,75.05,13c.64-.75,1.26-1.56,1.87-2.43S78.08,8.81,78.58,8A17.9,17.9,0,0,0,79.7,5.71ZM72.55,9.14c.45,0,1-.12,1.79-.22l2.52-.38,2.87-.45v.33c-.58.36-1.4.84-2.47,1.44s-2.28,1.25-3.6,1.92Zm.41,6c.48-.08,1.15-.21,2-.38l3-.57c1.1-.22,2.22-.45,3.36-.71l0,.29c-.72.43-1.73,1-3,1.75S75.5,17,73.87,17.81ZM77,17.52a5.15,5.15,0,0,1,1.75,1.33,2.93,2.93,0,0,1,.67,1.44,2.55,2.55,0,0,1-.12,1.3,1.83,1.83,0,0,1-.67.91,1.43,1.43,0,0,1-1,.29,1.52,1.52,0,0,1-1-.57A12.22,12.22,0,0,0,77,19.81a12,12,0,0,0-.21-2.19Zm2.21-6.07a6.88,6.88,0,0,1,2.24.91,2.88,2.88,0,0,1,1.08,1.18,1.93,1.93,0,0,1,.17,1.18,1.76,1.76,0,0,1-.48.95,1.42,1.42,0,0,1-.89.45,1.52,1.52,0,0,1-1.07-.35,6.37,6.37,0,0,0-.21-1.49,11.05,11.05,0,0,0-.48-1.44,9.26,9.26,0,0,0-.6-1.22Zm.36,5.28a6.1,6.1,0,0,1,2.29.68A2.88,2.88,0,0,1,83,18.49a1.89,1.89,0,0,1,.21,1.17,1.72,1.72,0,0,1-.45,1,1.6,1.6,0,0,1-.89.48,1.51,1.51,0,0,1-1.07-.3,5.41,5.41,0,0,0-.23-1.43A8.29,8.29,0,0,0,80.08,18a7,7,0,0,0-.71-1.12ZM88.85,1.2a.87.87,0,0,1-.3.42,1.45,1.45,0,0,1-.64.25,32.12,32.12,0,0,1-1.67,3.85,22.74,22.74,0,0,1-2,3.33,20.73,20.73,0,0,1-2.41,2.76l-.31-.15A27.21,27.21,0,0,0,82.8,8.45c.42-1.22.8-2.49,1.14-3.83a38.76,38.76,0,0,0,.8-4Zm-3.94,8a7.77,7.77,0,0,1,2.63,1.21A4.08,4.08,0,0,1,88.84,12a2.87,2.87,0,0,1,.24,1.54,2.39,2.39,0,0,1-.53,1.22,1.54,1.54,0,0,1-1,.54,1.75,1.75,0,0,1-1.26-.45A7.4,7.4,0,0,0,86,12.91,13.61,13.61,0,0,0,85.43,11a17.27,17.27,0,0,0-.78-1.66Zm7.56-5V4.9l-7.39,1,.34-.72Zm-1.7.22,1.61-1.85,2.64,2a1.74,1.74,0,0,1-.44.35,2.52,2.52,0,0,1-.69.28c-.07,2.46-.16,4.6-.29,6.42s-.29,3.35-.48,4.59a17.11,17.11,0,0,1-.7,3.06,5.34,5.34,0,0,1-1,1.84,5.22,5.22,0,0,1-1.57,1.21,6.41,6.41,0,0,1-2,.57,6.26,6.26,0,0,0-.1-1.22,1.59,1.59,0,0,0-.38-.78,1.83,1.83,0,0,0-.87-.51,6.39,6.39,0,0,0-1.41-.25v-.32l1.14-.07c.41,0,.8,0,1.16-.08l.85-.09a1.57,1.57,0,0,0,.53-.16,1.71,1.71,0,0,0,.4-.32,4.77,4.77,0,0,0,.89-2.32,43.47,43.47,0,0,0,.6-4.9q.24-3.09.39-7.46Z"/><path class="cls-1" d="M96.48,5.88V5.09l8.26-.87V5l-3.8.74-.69.07Zm0,17v-.79l3.77-.77.69-.07,3.8,0v.8Zm2.21-.22c0-1.37.07-2.76.08-4.16s0-2.8,0-4.21V13.22c0-1.4,0-2.8,0-4.2s0-2.78-.08-4.17l3.86-.41c0,1.38,0,2.77-.06,4.18s0,2.81,0,4.22v1.08c0,1.39,0,2.79,0,4.19s0,2.79.06,4.19Z"/><path class="cls-1" d="M106.68,22.9v-.8l2.52-.6.7-.09,3.33,0v.79Zm13.68-1.35L109.66,7.13l-.08-.07-.86-1.23-1.94,0v-.8l5.59-.57,9.43,12.69-.48.22-.07-7.08V3.55l1-.09v17.9ZM109,22.66V5.5l.91-.1.29,11.21v5.93Zm9-18V3.86l6.57-.67V4l-2.52.6-.67.1Z"/><path class="cls-1" d="M125.59,5.88V5.09l8.21-.89v.74l-3.77.8-.79.09ZM133.2,22.2,126.89,4.94l4-.4,4.87,14.32-.38,0,.09-.36,4.66-14.95,1.34-.15L135.19,22Zm4-17.59V3.86L143,3.24V4l-2.54.7-.36,0Z"/><path class="cls-1" d="M144.17,5.88V5.09l8.25-.87V5l-3.79.74-.69.07Zm0,17v-.79l3.77-.77.69-.07,3.79,0v.8Zm2.21-.22c0-1.37.07-2.76.08-4.16s0-2.8,0-4.21V13.22c0-1.4,0-2.8,0-4.2s0-2.78-.08-4.17l3.86-.41c0,1.38-.05,2.77-.06,4.18s0,2.81,0,4.22v1.08c0,1.39,0,2.79,0,4.19s0,2.79.06,4.19Z"/><path class="cls-1" d="M154,10.15l.12-5.06L169.7,3.43l.12,5-1.32.15-1.36-4.9,1.72.72L154.94,5.9l1.78-1.1L155.38,10Zm3.51,12.39v-.8l3.84-.76,1-.1,3.94-.05v.79ZM160,22.3q0-2.07.06-4.17c0-1.4,0-2.8,0-4.21v-1.1c0-1.41,0-2.81,0-4.2s0-2.79-.06-4.18l3.84-.38c0,1.36,0,2.74-.06,4.15s0,2.81,0,4.22v1.08c0,1.41,0,2.81,0,4.2s0,2.79.06,4.18Z"/><path class="cls-1" d="M168.79,22.92v-.79l2.38-.6.45-.05,2.62.07v.79Zm1.63-.17,6-18.55,2.28-.26,6.1,17.28-3.77.4L176,6.5l.48-.07-.07.36-4.8,15.82Zm2.69-6.05.19-.81,7.68-.82.2.79Zm5.19,5.21V21.1l3.26-.68,1.32-.14,3.38,0v.81Z"/><path class="cls-1" d="M185.23,10.15l.12-5.06L200.9,3.43l.12,5-1.32.15-1.37-4.9,1.73.72L186.14,5.9l1.78-1.1L186.58,10Zm3.51,12.39v-.8l3.84-.76,1-.1,3.94-.05v.79Zm2.47-.24q0-2.07.06-4.17c0-1.4,0-2.8,0-4.21v-1.1c0-1.41,0-2.81,0-4.2s0-2.79-.06-4.18l3.84-.38c0,1.36-.05,2.74-.06,4.15s0,2.81,0,4.22v1.08c0,1.41,0,2.81,0,4.2s0,2.79.06,4.18Z"/><path class="cls-1" d="M202.58,5.88V5.09l8.26-.87V5l-3.79.74-.7.07Zm0,17v-.79l3.77-.77.7-.07,3.79,0v.8Zm2.21-.22c.05-1.37.08-2.76.09-4.16s0-2.8,0-4.21V13.22c0-1.4,0-2.8,0-4.2s0-2.78-.09-4.17l3.87-.41c0,1.38-.06,2.77-.06,4.18s0,2.81,0,4.22v1.08c0,1.39,0,2.79,0,4.19s0,2.79.06,4.19Z"/><path class="cls-1" d="M221,22.49a8,8,0,0,1-3.17-.25,6.74,6.74,0,0,1-2.69-1.52A7.33,7.33,0,0,1,213.31,18a10.68,10.68,0,0,1-.67-4,11.72,11.72,0,0,1,.67-4.1,9.61,9.61,0,0,1,1.85-3.13,9,9,0,0,1,2.69-2.08,9.32,9.32,0,0,1,3.17-1A8.22,8.22,0,0,1,224.2,4a6.75,6.75,0,0,1,2.67,1.5,7.25,7.25,0,0,1,1.85,2.74,10.78,10.78,0,0,1,.67,4,11.72,11.72,0,0,1-.67,4.1,9.77,9.77,0,0,1-1.85,3.14,9.28,9.28,0,0,1-2.67,2.07A9,9,0,0,1,221,22.49Zm0-.89a3.57,3.57,0,0,0,2-.84,5.49,5.49,0,0,0,1.39-1.93,11.74,11.74,0,0,0,.83-2.79,20,20,0,0,0,.27-3.39,19.06,19.06,0,0,0-.27-3.34,9.69,9.69,0,0,0-.83-2.6A4.17,4.17,0,0,0,223,5.06a3,3,0,0,0-2-.43,3.64,3.64,0,0,0-2,.85,5.56,5.56,0,0,0-1.4,1.95,11.26,11.26,0,0,0-.83,2.77,19.84,19.84,0,0,0-.28,3.38,19,19,0,0,0,.28,3.34,9.24,9.24,0,0,0,.83,2.6,4.21,4.21,0,0,0,1.4,1.66A2.84,2.84,0,0,0,221,21.6Z"/><path class="cls-1" d="M231,22.9v-.8l2.52-.6.69-.09,3.34,0v.79Zm13.67-1.35L234,7.13l-.07-.07L233,5.83l-2,0v-.8l5.59-.57,9.43,12.69-.48.22-.07-7.08V3.55l1-.09v17.9ZM233.3,22.66V5.5l.91-.1.29,11.21v5.93Zm9-18V3.86l6.58-.67V4l-2.52.6-.68.1Z"/></svg>