<svg id="圖層_1" data-name="圖層 1" xmlns="http://www.w3.org/2000/svg" viewBox="0 0 174.6 404.28"><defs><style>.cls-1{fill:#003f57;}</style></defs><path class="cls-1" d="M32.4,176.76q0,1.26-2.34,3.51a26,26,0,0,1-6.21,4.23A24.86,24.86,0,0,1,15.3,187l-3.6.54V21.06l21.6,6.12,38-5.22v5L32.4,32.4ZM71.64,40.14v5l-50.4,7v-5Zm0,18.36v5l-50.4,7v-5Zm-18,70.38,3.42,1.62V146h1.62l-5.76,8.64-17.28-7.74A20.58,20.58,0,0,1,40,142.74a22.41,22.41,0,0,1,5.22-3.06l-2.88,6.66V130.5Zm21.24-56.7a6.09,6.09,0,0,1-3.15,2.52q-2.43,1.08-6.93-.18l5.4-1.62a99.53,99.53,0,0,1-7.92,7.38q-4.68,4-9.9,7.83a82.4,82.4,0,0,1-9.9,6.39l-.18-2.16,5.76-.9a22.1,22.1,0,0,1-2.16,8.19,8.44,8.44,0,0,1-3.6,3.87L36.36,91.08Q38.7,90,39.6,89.64a38.51,38.51,0,0,0,7.11-7.2,110.52,110.52,0,0,0,6.75-9.54,50.34,50.34,0,0,0,4.32-8.1ZM87.12,82.62A6.39,6.39,0,0,1,83.7,85q-2.52.9-6.66-.9l5.22-1.26q-4,4.32-10.53,10.26t-14,11.52q-7.38,5.58-14.4,9.9l-.18-2.16L49,111.6a17.91,17.91,0,0,1-2.16,8,11.66,11.66,0,0,1-3.6,4l-6.12-12.6a37,37,0,0,0,4-1.8A67.59,67.59,0,0,0,52.38,98.82q5.94-6.66,11.07-13.68a106.62,106.62,0,0,0,7.65-11.7ZM38.88,91.26q4.68-.54,13.59-1.89t17.73-3l.18,3.06q-2.34.9-6.84,3t-9.81,4.23q-5.31,2.16-10.53,4.14Zm50.94,25.2a5.28,5.28,0,0,1-1.44,3.15,8.53,8.53,0,0,1-4.32,2.07V132.3a44.38,44.38,0,0,1-1.89,11.16,35.27,35.27,0,0,1-6.3,11.61A54.67,54.67,0,0,1,62.82,166.5a110.47,110.47,0,0,1-22,10.62l-1.44-1.8q12.24-6.66,18.45-13.59a37.73,37.73,0,0,0,8.37-14A46.74,46.74,0,0,0,68.4,134.1V117.36ZM40.5,110.7q5.22-.72,15.93-2.88t22.05-4.5l.18,2.88q-3.24,1.44-8.73,4t-12.15,5.67q-6.66,3.06-13.5,5.94Zm22.5,11a4.7,4.7,0,0,1-1.53,3.06,11.13,11.13,0,0,1-4.41,2.16v7L42.3,136.08V122.22Zm13.5,16.56v5.22l-26.1,3.6v-5Zm-20-114.3,9-10.8,18.9,11.52A13.34,13.34,0,0,1,82,26.82,16.4,16.4,0,0,1,77.76,29V65.52q0,.54-2.79,2.07a66.65,66.65,0,0,1-6.48,3.06,25.59,25.59,0,0,1-6.93,1.89l-3.24.36V23.76ZM70.92,94.5q7.74,2.16,11.16,5.49a12.33,12.33,0,0,1,4,6.75,8.23,8.23,0,0,1-1,5.85,7,7,0,0,1-4.23,3.15,5.94,5.94,0,0,1-5.4-1.44A34.22,34.22,0,0,0,73,104.22a52.8,52.8,0,0,0-4.23-8.64Zm49.32-27.9A7.06,7.06,0,0,1,117,69q-2.52,1.17-7-.09l5.58-1.62q-3.06,3.24-7.47,7.11T98.82,82a104.41,104.41,0,0,1-9.36,6.39V86l5.76-.72a19.35,19.35,0,0,1-2.25,8,13.42,13.42,0,0,1-3.51,4l-6.12-12.6q2.52-1.08,3.42-1.44a32.38,32.38,0,0,0,6.3-6.84,108.2,108.2,0,0,0,6-9.36A51.23,51.23,0,0,0,103,59.22Zm17.1,9A6.83,6.83,0,0,1,133.83,78q-2.61,1-6.75-.81l5.4-1.44a138,138,0,0,1-11,9.63q-6.84,5.49-14.76,10.8t-15.3,9.27l-.18-2,5.76-.9a20.89,20.89,0,0,1-2.25,8.19,9.37,9.37,0,0,1-3.51,3.87L85,102.24a37,37,0,0,0,4-1.8,63.72,63.72,0,0,0,12.51-10q6.39-6.39,11.88-13a92.48,92.48,0,0,0,8.19-11.07Zm-52,9.18q4.68-.36,14-1.8t18.63-3.06V82.8a75.43,75.43,0,0,1-7,3.15q-4.68,1.89-10.26,4.23t-11,4.32Zm2.52,17.28,10.44-2q6.66-1.26,14.85-2.88t16.47-3.6l.18,2.88q-3.6,1.8-9.72,4.59T106.65,107q-7.29,3.15-14.85,6.21Zm24.84,11a5.77,5.77,0,0,1-1.62,3.51,11.48,11.48,0,0,1-5,2.61v43.2q0,1.08-4.23,3.06a37.41,37.41,0,0,1-9.09,2.88l-2.88.36V114.3Zm.72-54.36q0,.9-2.61,2.79A31.68,31.68,0,0,1,104.22,65a39,39,0,0,1-8.1,2.34l-3.06.36V10.62L114.3,16l38-5.4v5.22l-38.88,5.4ZM126,131.22v5.22l-27,3.78v-5ZM151.56,28.8V34L103,40.86V35.64Zm0,18.18V52.2L103,59V53.82ZM139.14,12.6,148.68,0,169.2,13a10.63,10.63,0,0,1-2.79,2.52,19.21,19.21,0,0,1-4.59,2.16V140a41.4,41.4,0,0,1-1.8,12.87q-1.8,5.49-7.74,9.36T134.1,169a55.22,55.22,0,0,0-1.53-8.64,11.93,11.93,0,0,0-3.33-5.76,18.49,18.49,0,0,0-6-3.24,38.7,38.7,0,0,0-10.89-1.44v-2.52q6.3-.54,10.71-.81t8.28-.72l5.49-.63a5.11,5.11,0,0,0,3.24-1.44,4.35,4.35,0,0,0,.9-2.88V12.24Zm-.72,97.74a5,5,0,0,1-1.35,2.88,9.47,9.47,0,0,1-4.23,2.16V139.5q0,.72-4,2.7a25.36,25.36,0,0,1-8.1,2.52l-2.7.36V111.24Zm-16.2-23q7.56,2.52,10.89,6t3.6,7a9.15,9.15,0,0,1-1.35,5.94,7,7,0,0,1-4.32,3.06,6.18,6.18,0,0,1-5.4-1.53,38.15,38.15,0,0,0-1.89-10.35,45.41,45.41,0,0,0-3.69-8.73Z"/><path class="cls-1" d="M45.72,266.58Q45.54,284.76,44,303.3a232,232,0,0,1-5.94,36.45A150.21,150.21,0,0,1,25,374a115.27,115.27,0,0,1-23.4,30.24L0,403a154,154,0,0,0,12.69-31.68,213.71,213.71,0,0,0,6.48-33.66,326,326,0,0,0,2-34.11q.09-17-.45-33.57Zm28.62-20.34q4.14,2.7,7.29,4.86t6.66,4.68q3.51,2.52,6.21,4.86-.72,2.88-5,3.6L3.78,276.12l-1.44-4.86L63,262.8ZM26.82,230.76q13,.18,20.25,3.33t10.17,7.65a13,13,0,0,1,2.16,9.18,15.07,15.07,0,0,1-3.87,8.1,13.94,13.94,0,0,1-7.83,4.32q-4.68.9-9.54-2.52A38.75,38.75,0,0,0,35.82,250a61.22,61.22,0,0,0-4.68-10,58.07,58.07,0,0,0-5.76-8.19ZM56.7,294.48l11.16-12.6,19.26,13.5a10.33,10.33,0,0,1-2.79,2.52,19.34,19.34,0,0,1-4.77,2Q79,321.3,78,336.15t-2.52,24.57a71.91,71.91,0,0,1-4,15.66,28.62,28.62,0,0,1-6,9.54,29.94,29.94,0,0,1-9.63,7,43,43,0,0,1-12.51,3.42,59.28,59.28,0,0,0-.54-8.64,10.21,10.21,0,0,0-2.16-5.4,12.59,12.59,0,0,0-4.5-3.33,24.41,24.41,0,0,0-7.38-1.89v-2.34q3.42-.36,8.28-.72t7.38-.72a9.81,9.81,0,0,0,5.58-2.7q2.52-2.7,4.23-11.34A198,198,0,0,0,57,334.71q1-15.93,1.71-40.59Zm8.46-1.26v5l-31.68,4.5v-5Zm69.66-67a189.33,189.33,0,0,1-12,29.25,219.61,219.61,0,0,1-18.09,29.7,159,159,0,0,1-23.4,26l-1.62-.9a187.23,187.23,0,0,0,11.16-22q5.22-12.06,9.36-24.66t6.84-24.48a198.45,198.45,0,0,0,3.78-21.42L142,221a5.45,5.45,0,0,1-2,3.15A11.91,11.91,0,0,1,134.82,226.26ZM90.18,337.14q21.24-.72,35.1,2.61t21.42,9.09q7.56,5.76,9.9,12.06a16.6,16.6,0,0,1,.45,11.61,13.93,13.93,0,0,1-6.84,7.92q-5,2.61-11.79.63a86.17,86.17,0,0,0-9.63-12.15,135.65,135.65,0,0,0-12.42-11.61q-6.75-5.58-13.77-10.35a103.85,103.85,0,0,0-13.86-8Zm14.76-47.34q13.5-2.16,21.78-.72t12.33,5a12.75,12.75,0,0,1,4.59,8,12.58,12.58,0,0,1-1.62,8.1,13.52,13.52,0,0,1-6.48,5.58,13.2,13.2,0,0,1-9.72.09,43,43,0,0,0-5.94-9.27,99.64,99.64,0,0,0-8-8.64,64.68,64.68,0,0,0-8.19-6.75Zm29-65.88A77.07,77.07,0,0,0,158,261.36a87.25,87.25,0,0,0,16.56,11.16l-.36,2.52a47.43,47.43,0,0,0-10.89,10.35,26.12,26.12,0,0,0-5.13,12.15A81.7,81.7,0,0,1,145.62,278a148.57,148.57,0,0,1-9-24.75,254,254,0,0,1-5.76-27.18Z"/></svg>