<svg id="圖層_1" data-name="圖層 1" xmlns="http://www.w3.org/2000/svg" viewBox="0 0 133.1 24.71"><defs><style>.cls-1{fill:#fff;}</style></defs><path class="cls-1" d="M.19,8.16a7.69,7.69,0,0,1,2.69.07A2.91,2.91,0,0,1,4.34,9a1.51,1.51,0,0,1,.44,1.08,1.9,1.9,0,0,1-.38,1.06,1.61,1.61,0,0,1-.92.63,1.87,1.87,0,0,1-1.27-.15,4.52,4.52,0,0,0-.49-1.26A6.61,6.61,0,0,0,.91,9.23,6.76,6.76,0,0,0,0,8.35Zm1.25,9.58a2.26,2.26,0,0,0,.42-.12,1.42,1.42,0,0,0,.37-.46c.11-.19.23-.38.34-.58s.26-.46.44-.82.45-.9.79-1.6.82-1.67,1.41-2.9L7.49,6.5l.36,0c-.21.56-.43,1.21-.67,1.93S6.7,10,6.46,10.73l-.69,2.19c-.21.7-.41,1.31-.57,1.84s-.29.93-.35,1.2-.21.81-.3,1.22a4.16,4.16,0,0,0-.11,1.11,2.88,2.88,0,0,0,.19.89c.11.27.24.54.37.82a4.68,4.68,0,0,1,.35,1,4.58,4.58,0,0,1,.12,1.36,2.25,2.25,0,0,1-.65,1.57,2.65,2.65,0,0,1-1.58.81,1.39,1.39,0,0,1-.86-.16,1.26,1.26,0,0,1-.6-.88,15.79,15.79,0,0,0,.3-2.38A10,10,0,0,0,2,19.45c-.08-.49-.21-.78-.41-.87A1.43,1.43,0,0,0,1,18.35a2,2,0,0,0-.7,0V17.9L1,17.8ZM2,2.66a8.36,8.36,0,0,1,2.83,0,3.09,3.09,0,0,1,1.55.77,1.62,1.62,0,0,1,.5,1.11,1.68,1.68,0,0,1-.33,1.07,1.94,1.94,0,0,1-.94.67A1.74,1.74,0,0,1,4.3,6.24,6.07,6.07,0,0,0,3.67,5a8.84,8.84,0,0,0-.9-1.19,8.44,8.44,0,0,0-1-.94ZM6.86,9.53,18.53,7.87l1.61-2.4c.38.29.72.53,1,.73s.62.43.95.68.62.47.87.68a.41.41,0,0,1-.21.31,1.26,1.26,0,0,1-.46.17L7.06,10.18ZM19,0l3,2.47a1.23,1.23,0,0,1-.63.27,2.68,2.68,0,0,1-1-.08C19.24,3,18,3.39,16.49,3.78s-3,.76-4.61,1.12-3.14.64-4.63.88l-.07-.31c1-.37,2.06-.78,3.16-1.25s2.2-.94,3.27-1.42,2.07-1,3-1.46S18.33.42,19,0ZM8.18,14.62V13.37l3.2.79,7.7-1.08v.67l-7.85,1.11v7.65c0,.08-.13.22-.38.41a5.54,5.54,0,0,1-1,.56,3.9,3.9,0,0,1-1.24.35l-.44.05Zm1.73,6.21,9.15-1.29v.67L9.91,21.5ZM13,3.38l3.17-.88V13.8a4.87,4.87,0,0,1-.7.11c-.45.05-1.07.15-1.87.27l-.6.08Zm5.11,9.84-.26,0,1.44-1.73,2.88,1.78a2,2,0,0,1-.36.36,2.11,2.11,0,0,1-.6.31V21.1c0,.06-.15.18-.44.36a8,8,0,0,1-1,.51,3.55,3.55,0,0,1-1.11.3l-.53.1Z"/><path class="cls-1" d="M34.18,1l2.56,2.28a1.57,1.57,0,0,1-1.56.14q-1.38.36-3.24.78c-1.23.28-2.51.54-3.85.78s-2.63.45-3.87.63l0-.36q1.24-.42,2.64-1c.93-.37,1.85-.75,2.76-1.13S31.34,2.41,32.14,2,33.62,1.33,34.18,1Zm-10,6.29L33.26,6l1.42-2,1.51,1a12.62,12.62,0,0,1,1.08.77c-.05.26-.26.41-.65.46L24.38,7.94Zm.1,14c.7-.13,1.69-.32,3-.59s2.74-.57,4.36-.92l5-1.08,0,.26c-1.09.63-2.47,1.35-4.15,2.18S28.75,22.94,26.3,24a1.2,1.2,0,0,1-.74.68Zm.29-2.88,8.32-1.17,1.35-1.83c.56.34,1,.63,1.4.87s.73.48,1.05.72c-.07.25-.28.4-.65.45L24.77,19.08Zm.31-8.85V8.47l2.88.7,5.42-.77,1.3-1.63,2.45,1.51a.84.84,0,0,1-.3.32,2.57,2.57,0,0,1-.59.26v5.71c0,.06-.21.21-.61.43a5.13,5.13,0,0,1-1.67.48l-.51.1V9.07l-5.73.82V16.2c0,.1-.2.25-.59.47a4.52,4.52,0,0,1-1.6.44l-.45.07Zm1.53,2.73,7.95-1.1v.67L26.42,13Zm0,3,7.95-1.11v.68L26.42,16ZM29,4.13l2.66-.91v17.2c0,.08-.22.26-.61.52a4.06,4.06,0,0,1-1.57.56l-.48.05ZM38.33.77,42.17.6a.78.78,0,0,1-.27.48,1.56,1.56,0,0,1-.62.31c0,2,0,3.94-.07,5.71a48,48,0,0,1-.33,5,18.68,18.68,0,0,1-1,4.38,14,14,0,0,1-2.18,3.85,17.82,17.82,0,0,1-3.76,3.43l-.26-.31a15.33,15.33,0,0,0,2.54-3.61,17.6,17.6,0,0,0,1.41-4,28.76,28.76,0,0,0,.61-4.41c.09-1.55.14-3.21.13-5S38.33,2.8,38.33.77ZM36.14,6.91l8.14-1.15v.7l-7.92,1.1Zm7-1L42.86,6l1.56-1.8L47,6.07a.92.92,0,0,1-.35.36A2.05,2.05,0,0,1,46,6.7c0,2.43-.1,4.47-.16,6.13s-.16,3-.28,4.08a12.71,12.71,0,0,1-.49,2.53,4.44,4.44,0,0,1-.79,1.49A4.12,4.12,0,0,1,42.89,22a5.81,5.81,0,0,1-1.73.53,6.52,6.52,0,0,0,0-1.23,1.37,1.37,0,0,0-.29-.74,1.65,1.65,0,0,0-.67-.49,3.64,3.64,0,0,0-1-.23v-.31l.74-.06.81-.07a4.85,4.85,0,0,0,.61-.08,1.28,1.28,0,0,0,.44-.12,1.73,1.73,0,0,0,.35-.27A3.91,3.91,0,0,0,42.66,17c.14-1,.24-2.35.31-4.16S43.1,8.74,43.15,5.93Z"/><path class="cls-1" d="M48.48,5.88V5.09l4.13-.43V5.78l-.36,0Zm0,17v-.79l3.77-.77.36-.05v1.18Zm2.21-.24c0-1.38.05-2.76.06-4.15s0-2.8,0-4.23V13.2c0-1.41,0-2.81,0-4.2s0-2.78-.06-4.15l3.84-.41c0,1.36-.05,2.75-.06,4.16s0,2.87,0,4.36v.7c0,1.52,0,3,0,4.4s0,2.82.06,4.21Zm10-14.21L59.5,4l1.82.7-8.71.91V4.66l9.41-1,0,4.68Zm-8.11,5.35V13l5.93-.6v.84Zm0,8.67v-.91l9.21-1L60,21.65l1.24-4.92,1.28-.15,0,4.88Zm5.64-6.84L57.89,13V12.5l.36-2.66,1.15-.12v5.81Z"/><path class="cls-1" d="M63.48,5.88V5.09l8.21-.89v.74l-3.77.8-.79.09ZM71.09,22.2,64.78,4.94l4-.4,4.87,14.32-.39,0,.1-.36L78,3.58l1.34-.15L73.08,22Zm4-17.59V3.86l5.88-.62V4l-2.55.7L78,4.7Z"/><path class="cls-1" d="M82.06,5.88V5.09l4.12-.43V5.78l-.36,0Zm0,17v-.79l3.76-.77.36-.05v1.18Zm2.2-.24c0-1.38.06-2.76.06-4.15s0-2.8,0-4.23V13.2c0-1.41,0-2.81,0-4.2s0-2.78-.06-4.15l3.84-.41c0,1.36,0,2.75-.06,4.16s0,2.87,0,4.36v.7c0,1.52,0,3,0,4.4s0,2.82.06,4.21Zm10-14.21L93.07,4l1.83.7-8.72.91V4.66l9.41-1,0,4.68Zm-8.12,5.35V13l5.93-.6v.84Zm0,8.67v-.91l9.22-1-1.85,1.06,1.25-4.92,1.27-.15,0,4.88Zm5.64-6.84L91.46,13V12.5l.36-2.66L93,9.72v5.81Z"/><path class="cls-1" d="M98,22.9v-.8l2.52-.6.7-.09,3.33,0v.79Zm13.68-1.35L101,7.13l-.07-.07L100,5.83l-1.94,0v-.8l5.59-.57,9.43,12.69-.48.22-.07-7.08V3.55l1-.09v17.9Zm-11.35,1.11V5.5l.91-.1.29,11.21v5.93Zm9.05-18V3.86l6.57-.67V4l-2.52.6-.67.1Z"/><path class="cls-1" d="M117.31,10.15l.12-5.06L133,3.43l.12,5-1.32.15-1.36-4.9,1.72.72L118.22,5.9,120,4.8,118.66,10Zm3.51,12.39v-.8l3.84-.76,1-.1,3.94-.05v.79Zm2.47-.24q0-2.07.06-4.17c0-1.4,0-2.8,0-4.21v-1.1c0-1.41,0-2.81,0-4.2s0-2.79-.06-4.18l3.84-.38c0,1.36,0,2.74-.06,4.15s0,2.81,0,4.22v1.08c0,1.41,0,2.81,0,4.2s0,2.79.06,4.18Z"/></svg>