<svg id="圖層_1" data-name="圖層 1" xmlns="http://www.w3.org/2000/svg" viewBox="0 0 148.14 668.52"><defs><style>.cls-1{fill:#003f57;}</style></defs><path class="cls-1" d="M0,0H5.94l4.5,17.82.36,3.42-.54,19.62H4.32ZM1.26,12.24l139.14,45,2,17.1L12.78,120.06,9.72,91.8l113.4-37.44.54,3.6-2.7-.54L2.34,21.42Zm6.3,59h6.12l5,24.48,1.08,9.9L20,131H13.86ZM46.62,32.4l6.12,1.44,6.12,57.6-5.94,1.44Z"/><path class="cls-1" d="M0,140H6.12L11.7,168.3l.36,2.7H3.42ZM2,156.6q15.84.36,32,.45t32.58.09h7q15.66,0,31.14-.09t31-.45L138.6,185q-15.3-.54-30.87-.63T76,184.32H72.18q-18.18,0-34.83.09T4.86,185ZM3.42,171H9.9l2.52,24.3Q14,210.24,22.59,218.7t23.31,8.46q15.48,0,22-8.1t4.68-25.38L70.2,171h6.3l2.16,21.24Q80.1,206.82,88.38,214t22,7.2q12.24,0,18.18-6.3t4.32-20.7L130.5,171h6.66l3.24,30.42q1.8,16.92-1.17,27.09t-9.54,14.76a27.11,27.11,0,0,1-15.93,4.59,28.49,28.49,0,0,1-14.49-4.14q-7.11-4.14-13-13.95t-9.45-26.91l1.8.36q.9,18.72-2.34,30.24T66.24,250.29q-6.84,5.31-16.92,5.31a35.56,35.56,0,0,1-13.5-2.79,36.57,36.57,0,0,1-13-9.45q-6.12-6.66-10.62-18.27T5.94,196.2ZM127.8,140h6.12l3.24,31H128.7l-.36-2.7Z"/><path class="cls-1" d="M3.24,332.28a59.27,59.27,0,0,1,1.89-23.76,50.93,50.93,0,0,1,11.34-20.16A54.66,54.66,0,0,1,37.08,274.5q12.6-5,29.88-5a88.56,88.56,0,0,1,30.78,5,71.66,71.66,0,0,1,23.49,13.86,68.82,68.82,0,0,1,15.57,20.16,69.85,69.85,0,0,1,7.2,23.76,61.69,61.69,0,0,1-2.07,23.85,51.7,51.7,0,0,1-11.25,20.07,53.85,53.85,0,0,1-20.61,13.86q-12.69,5-30,5a88.56,88.56,0,0,1-30.78-5A71.83,71.83,0,0,1,25.83,376.2a69.51,69.51,0,0,1-15.57-20.07A66.43,66.43,0,0,1,3.24,332.28Zm6.66,0a26.66,26.66,0,0,0,6.3,14.94,41.19,41.19,0,0,0,14.49,10.44,86.33,86.33,0,0,0,20.88,6.21A147.43,147.43,0,0,0,77,365.94a139.72,139.72,0,0,0,25-2.07,71.87,71.87,0,0,0,19.53-6.21,31,31,0,0,0,12.33-10.44,22.21,22.21,0,0,0,3.24-14.94,26.73,26.73,0,0,0-6.39-15,41.55,41.55,0,0,0-14.58-10.53,85.94,85.94,0,0,0-20.79-6.21A145.87,145.87,0,0,0,70,298.44a139.72,139.72,0,0,0-25,2.07,71.52,71.52,0,0,0-19.53,6.21,31.46,31.46,0,0,0-12.42,10.53A21.51,21.51,0,0,0,9.9,332.28Z"/><path class="cls-1" d="M3.78,474.29Q2,459.19,6.21,447.56t15.84-18.17q11.61-6.58,32.49-6.58h50.31q15.39,0,30.69-.54l3.06,28.63q-15.3-.19-30.6-.28t-30.78-.09H60.12q-16.38,0-26,3.7T20.88,465.11q-3.6,7.2-2.52,17.46,1.8,16.2,13.41,24.94t36.45,8.36l77-.54,1.08,8.82L68,523.61q-30.6-.36-46.17-13T3.78,474.29Zm124-67.68h6.12l6.48,61.92h-6.12l-5.4-28.62-.54-5.22Zm9.36,87.84h5.94l5,48.07H142.2l-4.86-20.17-.54-5.4Z"/><path class="cls-1" d="M2.88,576.36H8.82l5.76,28.8.72,7.56.36,29.52H9.72Zm1.8,18.54q15.48.36,31.23.45t31.59.09h8.28q15.84,0,31.5-.09t31.32-.45l2.88,28.8q-15.3-.36-31.14-.45t-31.68-.09h-8.1q-15.84,0-31.5.09t-31.32.45Zm91.08-44.82,38,.9,12.42,116.64-37.8.9-1.08-9.9L144,648.36l-5.4,13-11-104.4,8.28,13.32L96.84,560.16Z"/></svg>