<?xml version="1.0" encoding="iso-8859-1"?>
<!-- Generator: Adobe Illustrator 19.0.0, SVG Export Plug-In . SVG Version: 6.00 Build 0)  -->
<svg version="1.1" id="Layer_1" xmlns="http://www.w3.org/2000/svg" xmlns:xlink="http://www.w3.org/1999/xlink" x="0px" y="0px"
	 viewBox="0 0 512 512" style="enable-background:new 0 0 512 512;" xml:space="preserve">
<g>
	<g>
		<path d="M437.019,74.981C388.667,26.629,324.38,0,256,0S123.333,26.629,74.981,74.981C26.629,123.333,0,187.62,0,256
			c0,59.517,20.879,117.491,58.79,163.241c2.825,3.409,7.878,3.881,11.289,1.057c3.409-2.825,3.882-7.879,1.057-11.288
			C35.603,366.13,16.033,311.79,16.033,256C16.033,123.682,123.682,16.033,256,16.033S495.967,123.682,495.967,256
			S388.318,495.967,256,495.967c-60.183,0-117.745-22.376-162.081-63.007c-3.264-2.99-8.335-2.77-11.327,0.494
			c-2.991,3.264-2.771,8.335,0.494,11.327C130.387,488.127,191.796,512,256,512c68.38,0,132.667-26.629,181.019-74.981
			C485.371,388.667,512,324.38,512,256S485.371,123.333,437.019,74.981z"/>
	</g>
</g>
<g>
	<g>
		<path d="M358.228,335.866c-48.471-21.432-100.128-32.3-153.535-32.3c-31.456,0-62.739,3.857-92.977,11.462
			c-11.146,2.804-17.933,14.152-15.129,25.299c2.804,11.144,14.151,17.934,25.299,15.129c26.915-6.77,54.775-10.203,82.808-10.203
			c47.566,0,93.549,9.669,136.676,28.739c10.396,4.596,22.901-0.25,27.492-10.633C373.509,352.847,368.739,340.514,358.228,335.866z
			 M354.197,356.875c-1.06,2.398-3.946,3.515-6.345,2.454c-45.18-19.98-93.346-30.11-143.159-30.11
			c-29.35,0-58.526,3.596-86.718,10.687c-2.374,0.597-4.889-0.751-5.706-3.057c-0.934-2.636,0.647-5.59,3.358-6.272
			c28.961-7.283,58.926-10.978,89.066-10.978c51.16,0,100.635,10.407,147.05,30.931C354.169,351.602,355.27,354.449,354.197,356.875
			z"/>
	</g>
</g>
<g>
	<g>
		<path d="M386.714,259.645c-57.592-24.761-118.832-37.315-182.021-37.315c-31.279,0-62.544,3.152-92.926,9.37
			c-13.405,2.743-22.321,16.218-19.574,29.645c2.776,13.562,16.076,22.341,29.645,19.574c27.076-5.541,54.953-8.35,82.855-8.35
			c56.325,0,110.89,11.18,162.179,33.23c3.125,1.345,6.508,2.047,9.913,2.047c10.053,0,19.115-5.968,23.085-15.202
			C405.34,279.919,399.439,265.116,386.714,259.645z M385.139,286.31c-1.957,4.551-7.383,6.716-11.935,4.759
			c-53.3-22.915-109.996-34.534-168.511-34.534c-28.98,0-57.937,2.919-86.066,8.675c-4.909,1.004-9.723-2.173-10.726-7.079
			c-0.993-4.854,2.231-9.731,7.08-10.723c29.327-6.002,59.511-9.044,89.712-9.044c60.997,0,120.108,12.116,175.688,36.011
			C384.983,276.354,387.118,281.707,385.139,286.31z"/>
	</g>
</g>
<g>
	<g>
		<path d="M429.285,180.251c-12.884-5.757-26.112-11.072-39.316-15.795c-4.17-1.491-8.757,0.68-10.249,4.849
			c-1.491,4.169,0.68,8.756,4.849,10.247c12.82,4.587,25.664,9.746,38.174,15.338c6.644,2.968,9.723,10.992,6.748,17.65
			c-2.969,6.645-10.998,9.719-17.65,6.748c-65.317-29.189-135.011-43.988-207.148-43.988c-33.61,0-67.215,3.3-99.882,9.808
			c-7.152,1.429-14.29-3.357-15.712-10.493c-1.425-7.148,3.353-14.291,10.492-15.714c34.379-6.849,69.74-10.323,105.101-10.323
			c51.652,0,102.544,7.283,151.264,21.647c4.245,1.251,8.704-1.176,9.957-5.422c1.252-4.247-1.176-8.705-5.422-9.957
			c-50.193-14.798-102.612-22.301-155.799-22.301c-36.411,0-72.826,3.578-108.234,10.632c-11.786,2.348-21.187,11.95-23.236,23.813
			c-0.615,3.557-0.554,7.219,0.152,10.758c2.348,11.787,11.949,21.19,23.814,23.237c3.557,0.614,7.219,0.553,10.758-0.153
			c31.634-6.302,64.185-9.498,96.746-9.498c69.868,0,137.362,14.33,200.607,42.592c11.321,5.058,24.918,2.312,33.407-6.706
			c2.246-2.386,4.085-5.147,5.422-8.138C450.742,204.283,444.083,186.863,429.285,180.251z"/>
	</g>
</g>
<g>
</g>
<g>
</g>
<g>
</g>
<g>
</g>
<g>
</g>
<g>
</g>
<g>
</g>
<g>
</g>
<g>
</g>
<g>
</g>
<g>
</g>
<g>
</g>
<g>
</g>
<g>
</g>
<g>
</g>
</svg>
