<svg version="1.1" id="Uploaded to svgrepo.com" xmlns="http://www.w3.org/2000/svg" xmlns:xlink="http://www.w3.org/1999/xlink" x="0px" y="0px"
	 width="32px" height="32px" viewBox="0 0 32 32" style="enable-background:new 0 0 32 32;" xml:space="preserve">
<style type="text/css">
	.bentblocks_een{fill:#0B1719;}
</style>
<path class="bentblocks_een" d="M24.485,7.515c-4.686-4.686-12.284-4.686-16.971,0c-4.686,4.686-4.686,12.284,0,16.971
	c4.686,4.686,12.284,4.686,16.971,0C29.172,19.799,29.172,12.201,24.485,7.515z M23.071,23.071c-3.908,3.908-10.234,3.908-14.142,0
	c-3.899-3.899-3.899-10.243,0-14.142c3.908-3.908,10.234-3.909,14.142,0C24.96,10.818,26,13.329,26,16
	C26,18.671,24.96,21.182,23.071,23.071z M21.657,11.757L17.414,16l4.243,4.243l-1.414,1.414L16,17.414l-4.243,4.243l-1.414-1.414
	L14.586,16l-4.243-4.243l1.414-1.414L16,14.586l4.243-4.243L21.657,11.757z"/>
</svg>