<svg id="圖層_1" data-name="圖層 1" xmlns="http://www.w3.org/2000/svg" viewBox="0 0 233 161.54"><defs><style>.cls-1{fill:#d2d3d3;}.cls-2{fill:#e5564a;}.cls-3{fill:#302921;}</style></defs><path class="cls-1" d="M43.68,40.73h0c6.49,0,11,1.25,14,3.92,4.84,4.21,5.77,12.1,6.31,19.82.8,11.4.45,20.94-1.08,29.19-.91,4.88-2.55,8.58-5,11.33l-.54.58c-1.87,2-2.84,3.86-2.22,7.22,0,.16.06.35.1.59a71.42,71.42,0,0,0,3,11.09c.53,1.65,1,3.21,1.46,4.72l6.14,21.73-18,1.26L43.62,134l-1.36-5.84-1.73-7.48c0-.08,0-.18-.05-.3-.26-1.93-.59-4.34-2.64-6.09-1.58-1.36-3.38-1.63-5.77-1.63-2.2,0-4.7.17-6.58,2.16-2.47,2.61-2.13,6.28-1.74,10.53,0,.39.09.91.1,1.1v27.62c-4.78.56-9.78.77-14.66,1l-3,.12V43.09l1.22,0,1.52,0c.39,0,.71,0,.94,0l9.07-.63L28,41.83c1.67-.12,3.42-.28,5.11-.44,3.5-.32,7.12-.66,10.57-.66ZM23.85,67.21V94.69a6,6,0,0,0,6,6h.42l1.5-.07c3.7-.11,10.6-.33,13.4-7,2-4.77,1.76-10.52,1.56-15.14,0-1.14-.09-2.22-.09-3.16,0-.42,0-1.11,0-1.83.2-5.52.52-13.85-5-17.56-1.66-1.12-4.47-1.68-8.34-1.68-2.92,0-6.18.35-8.2,2.93s-1.66,5.72-1.35,9.14c0,.37.07.68.08.9ZM43.68,34.73c-5.49,0-11.11.76-16.1,1.11L9.43,37.12H8.91c-.85,0-2.31-.05-3.8-.05-2.18,0-4.43.11-4.94.69-.38.43,0,2.85,0,3.4V161.54c9.2-.64,18.82-.5,27.92-2,2.35-.37,1.76-.43,1.76-3V126.43c0-1.15-.81-6.59,0-7.45a5.25,5.25,0,0,1,2.22-.28,5.56,5.56,0,0,1,1.87.19c.43.36.59,2.53.71,3.06l3.12,13.44,5.37,23.13,30.45-2.13Q69.52,142,65.45,127.56c-1.39-4.91-3.48-10.07-4.27-15.11-.34-2.12-.56-1.5,1.19-3.45,3.61-4,5.47-9,6.45-14.25,1.85-10,1.88-20.58,1.17-30.7-.58-8.34-1.65-18.09-8.35-23.92-4.92-4.29-11.35-5.4-18-5.4Zm-13.83,60V67.14c0-1-.66-5.43,0-6.28.35-.44,1.83-.62,3.47-.62,2.1,0,4.44.29,5,.67,3.32,2.22,2.29,11.18,2.31,14.44,0,4.72.89,11.4-1,15.94-1.55,3.71-6.35,3.16-9.78,3.4Z"/><path class="cls-1" d="M133,34.23l0,.26.88,6,1,7,5.65,38.59,3,20.19,3,20.19,1.11,7.62,1.11,7.62c.16,1,.39,2.08.62,3.1l.05.26-17.8,1.25-.42-4-1.06-10.14c-.52-5-2.9-7.59-7.06-7.59-.53,0-1,0-1.48.09l-.86.08c-1.31.09-2.62.16-3.94.24-2.73.15-5.55.31-8.38.63-4.79.53-7.23,3-7.46,7.58,0,.32,0,.61-.07,1l-.42,4.06-.84,8.13c-.06.62-.07,1.34-.07,2.24v.07l-1.07,0c-.34,0-.62,0-.85,0l-15.27,1.07,2.53-17.67L89,102.88,93.93,68.8l4.58-32h.26c.44,0,.81,0,1.15,0l8.67-.61.57,0,20.6-1.45c.58,0,1.26-.14,2.28-.3l1-.15ZM108.18,61.94l-.57,5.67-1.22,12.08-2.73,27a6,6,0,0,0,6,6.6h.42l5.88-.42,5.87-.41a6,6,0,0,0,5.55-6.6L124,73.12l-1.85-18a6,6,0,0,0-4.46-5.2,7.28,7.28,0,0,0-1.85-.24c-2.92,0-6.38,1.82-7.32,6.9a26.45,26.45,0,0,0-.33,4.63c0,.3,0,.56,0,.75Zm28.45-34.11c-2.3,0-6.29.8-7.29.87l-20.6,1.45-9.24.64c-.22,0-.46,0-.73,0-.57,0-1.23,0-1.89,0a7.15,7.15,0,0,0-2.81.39c-1.24.58-.95.94-1.2,2.69Q88,68,83.1,102l-7.77,54.24L98,154.67h.43c.7,0,1.84.06,3,.06,1.48,0,2.94-.1,3.39-.52.92-.88.62-5.95.75-7.21l1.26-12.2c.27-2.66-.31-2.92,2.22-3.2,4-.44,8.07-.57,12.09-.85.89-.06,1.49-.15,1.9-.15.88,0,.91.4,1.11,2.26l2.07,19.84,29.87-2.09a5.8,5.8,0,0,1-.18-1.22c.31-2.56-.88-6-1.25-8.56q-1.11-7.62-2.23-15.24-3-20.19-5.9-40.38-2.83-19.29-5.65-38.59-.95-6.49-1.9-13c-.13-.92-.07-4.82-.8-5.49a2.64,2.64,0,0,0-1.53-.3Zm-27,79.43,2.73-27,1.8-17.8c.14-1.38-.34-6.83,1.68-6.83a1.4,1.4,0,0,1,.34.05q2.61,25.37,5.2,50.73l-11.75.82Z"/><path class="cls-1" d="M206.11,29.51h0c7.59,0,12.32,1.59,15.32,5.16,5.78,6.86,5.65,19.5,5.54,29.66,0,.67,0,1.33,0,2v.44c-.08,11.29-.18,24.09-7.49,31.27-5.73,5.63-14.41,6.24-23.6,6.89l-.29,0c-.41,0-.74,0-1,0-6.94.17-7.34,5.74-7.47,7.59-.17,2.31-.12,4.56-.07,6.73,0,1,0,2,0,2.91v20.51l-1.09,0c-.67,0-1.27,0-1.78,0s-.8,0-1.14,0l-13.67,1V42.71c0-7.36,2.52-10.43,9.29-11.33,4.73-.63,9.72-.92,14.55-1.2,2-.11,4-.23,6.06-.38s4.49-.29,6.82-.29Zm-13,62.6h.42L195,92l1.54-.11c11.82-.83,12.31-10.89,12.54-15.72.3-6.19.3-12.43,0-18.56,0-.33,0-.67,0-1A20,20,0,0,0,207.78,49c-1.19-2.77-3.87-6.06-9.85-6.06-.61,0-1.2,0-1.76,0h-.28c-.44,0-.78,0-1.06,0-5.68,0-7.07,3.68-7.63,6.45v0a27,27,0,0,0-.22,7c.05.82.1,1.6.1,2.24V86.11a6,6,0,0,0,6,6Zm13-68.6c-2.45,0-4.89.14-7.24.31-7,.49-14.06.7-21,1.62-10,1.32-14.5,7.18-14.5,17.27V150.08l20.09-1.41.72,0c1,0,2.47.07,3.91.07,1.87,0,3.72-.12,4.5-.69s.46-2.2.46-3.5V122.2c0-3-.22-6.18,0-9.21.17-2.44.12-1.88,2.92-2.08,9.77-.68,20.29-1.35,27.68-8.61,9.19-9,9.19-23.93,9.29-35.94.08-11.12.71-26.47-6.94-35.56-5-6-12.49-7.29-19.91-7.29Zm-13,62.6V58.79c0-2.53-.5-5.58,0-8.06.42-2.09.3-1.59,3.08-1.72.62,0,1.22,0,1.78,0,1.89,0,3.44.35,4.35,2.44.82,1.91.74,4.45.84,6.49.29,6,.29,12,0,18-.27,5.51-.61,9.59-7,10l-3.08.21Z"/><path class="cls-2" d="M212.61,30.71l-1.28-.1a108.71,108.71,0,0,0-12.94-.17c-1,0-2,.11-3,.17s-2.31.32-3.66.54c-2.58.37-5.58.87-8.77,1.54h0c-2.66.57-5.42,1.25-8.15,2-3.24.88-6.45,1.92-9.42,3a64.43,64.43,0,0,0-8,3.17,22.38,22.38,0,0,0-5.12,3.22A13.35,13.35,0,0,0,151,45.29l-.41.44.36-.49a15.77,15.77,0,0,1,1.13-1.31,23.31,23.31,0,0,1,4.94-3.71l1.12-.6C157,40.05,156,40.49,155,41a22.89,22.89,0,0,0-5.33,3.23,15.73,15.73,0,0,0-1.32,1.18l-.44.45.39-.5A15.12,15.12,0,0,1,149.48,44a23.1,23.1,0,0,1,5.17-3.72c1.22-.66,2.59-1.28,4-1.89l-1.84.67c-1.65.63-3.15,1.25-4.46,1.87-5.25,2.81-6.17,4.62-6.06,5s1.94,1.92,8.66,2.26a72.29,72.29,0,0,0,7.5,0c1.19-7.25,10.77-12.61,27.92-15.56A137.51,137.51,0,0,1,212.61,30.71Z"/><path class="cls-2" d="M163.06,34.91c1.77-.6,3.64-1.16,5.57-1.71,2.31-.65,4.72-1.28,7.19-1.8l3.06-.61,0-10.58,1.57,8.5c-.08-.79-.17-1.71-.25-2.73-.15-1.71-.29-3.7-.34-5.85,0-1.07,0-2.19,0-3.32a27.25,27.25,0,0,1,.35-3.45A11.8,11.8,0,0,1,181.32,10c.08-.13.13-.23.23-.37a4.08,4.08,0,0,1,.31-.39,5.52,5.52,0,0,1,.65-.63,9.62,9.62,0,0,1,1.43-.92,23.9,23.9,0,0,1,5.54-1.91c1.66-.38,3.06-.6,4-.74s1.55-.2,1.55-.2-.56.1-1.53.31-2.34.54-3.95,1a23.65,23.65,0,0,0-5.22,2.24,5.31,5.31,0,0,0-2.08,2.1,10.86,10.86,0,0,0-.68,3.07,23.77,23.77,0,0,0-.08,3.27c0,1.09.11,2.16.21,3.2.2,2.08.49,4,.75,5.68s.52,3,.7,4l.06.34.09,0c2.54-.39,5.09-.65,7.6-.86s5-.32,7.4-.33,4.73,0,6.93.18,4.26.35,6.17.6a72.35,72.35,0,0,1,8.2,1.57l.55-9.58,1.05,7.59c0-.43,0-.88,0-1.35s0-1,0-1.52,0-1.08-.07-1.64c-.07-1.12-.18-2.29-.36-3.5-.1-.6-.19-1.22-.32-1.83s-.27-1.23-.44-1.85a24.15,24.15,0,0,0-1.29-3.63,19.73,19.73,0,0,0-1.91-3.35,5.82,5.82,0,0,0-1.19-1.35,11,11,0,0,0-1.49-1,30,30,0,0,0-6.28-2.44c-1.92-.54-3.56-.89-4.7-1.12s-1.81-.33-1.81-.33.67.06,1.83.21,2.82.38,4.79.79a30.89,30.89,0,0,1,6.6,2.07,10.43,10.43,0,0,1,1.71,1,5.88,5.88,0,0,1,.82.69,4.62,4.62,0,0,1,.35.38l.32.4A20.86,20.86,0,0,1,220,13.24,25,25,0,0,1,221.65,17c.21.64.41,1.28.58,1.92s.31,1.27.45,1.9c.27,1.26.46,2.48.6,3.65.08.58.13,1.15.17,1.7s.11,1.08.12,1.59c.05,1,.11,1.95.1,2.79,0,.65,0,1.24,0,1.75a17.43,17.43,0,0,1,5.12,2.94c-.16-7.88-1-21.61-11.15-28.44A28.79,28.79,0,0,0,205.9,3.57a74.78,74.78,0,0,0-15.58.89c-1.14.2-2.19.42-3.13.66-8.76,2.24-14.47,5.67-18.17,9.41l.46-.3c.7-.39,1.45-.78,2.21-1.16s1.59-.61,2.34-.87,1.49-.4,2.11-.54,1.16-.18,1.53-.23l.59,0-.51.29c-.34.16-.81.4-1.37.7s-1.23.57-1.92.92-1.47.65-2.21,1-1.53.64-2.23,1-1.4.57-2,.82l-.66.25A21.76,21.76,0,0,0,163,34.47Zm40-28c1.52.16,2.93.35,4.12.57.6.12,1.14.25,1.62.38s.9.22,1.24.32l1.06.34L210,8.42l-1.26-.11c-.49,0-1-.07-1.64-.09-1.2-.1-2.59-.14-4.08-.15s-3.08,0-4.67.09-3.17.17-4.65.34-2.87.31-4,.52c-.6.08-1.14.16-1.62.25s-.91.15-1.25.22l-1.1.19,1-.44c.33-.13.73-.28,1.2-.44s1-.34,1.58-.52c1.17-.34,2.55-.65,4-.95s3.12-.41,4.75-.53S201.52,6.8,203,6.89Z"/><path class="cls-3" d="M195.65,34.32c24.9-2.8,31.39,3,35.2,7.18h0c4.93-15.26-.57-38.25-24.81-40-1.36-.1-3.09-.13-5-.09A2.21,2.21,0,0,0,198.8,0l-2.3.18a2.2,2.2,0,0,0-2,1.65c-1.54.16-3.08.36-4.55.61-1.15.2-2.26.43-3.29.69C154.78,11.32,161,35,161,35s-18,6.23-16.61,11.5c1.2,4.67,16,3.92,19.38,3.68v.07C167,42.07,170.74,37.13,195.65,34.32Zm-28.26-18,.66-.25c.57-.25,1.25-.53,2-.82s1.46-.66,2.23-1,1.49-.71,2.21-1,1.35-.67,1.92-.92,1-.54,1.37-.7l.51-.29-.59,0c-.37.05-.9.12-1.53.23s-1.34.33-2.11.54-1.55.56-2.34.87-1.51.77-2.21,1.16l-.46.3c3.7-3.74,9.41-7.17,18.17-9.41.94-.24,2-.46,3.13-.66a74.78,74.78,0,0,1,15.58-.89,28.79,28.79,0,0,1,11.75,3.25c10.17,6.83,11,20.56,11.15,28.44a17.43,17.43,0,0,0-5.12-2.94c0-.51,0-1.1,0-1.75,0-.84,0-1.78-.1-2.79,0-.51-.07-1.05-.12-1.59s-.09-1.12-.17-1.7c-.14-1.17-.33-2.39-.6-3.65-.14-.63-.27-1.26-.45-1.9s-.37-1.28-.58-1.92A25,25,0,0,0,220,13.24a20.86,20.86,0,0,0-2.24-3.43l-.32-.4a4.62,4.62,0,0,0-.35-.38,5.88,5.88,0,0,0-.82-.69,10.43,10.43,0,0,0-1.71-1A30.89,30.89,0,0,0,208,5.25c-2-.41-3.63-.65-4.79-.79s-1.83-.21-1.83-.21.67.1,1.81.33,2.78.58,4.7,1.12a30,30,0,0,1,6.28,2.44,11,11,0,0,1,1.49,1,5.82,5.82,0,0,1,1.19,1.35,19.73,19.73,0,0,1,1.91,3.35,24.15,24.15,0,0,1,1.29,3.63c.17.62.32,1.23.44,1.85s.22,1.23.32,1.83c.18,1.21.29,2.38.36,3.5,0,.56.05,1.11.07,1.64s0,1,0,1.52,0,.92,0,1.35l-1.05-7.59-.55,9.58a72.35,72.35,0,0,0-8.2-1.57c-1.91-.25-4-.45-6.17-.6s-4.52-.19-6.93-.18-4.88.13-7.4.33-5.06.47-7.6.86l-.09,0-.06-.34c-.18-1-.43-2.34-.7-4s-.55-3.6-.75-5.68c-.1-1-.19-2.11-.21-3.2a23.77,23.77,0,0,1,.08-3.27,10.86,10.86,0,0,1,.68-3.07,5.31,5.31,0,0,1,2.08-2.1,23.65,23.65,0,0,1,5.22-2.24c1.61-.5,3-.83,3.95-1s1.53-.31,1.53-.31-.57.06-1.55.2-2.38.36-4,.74a23.9,23.9,0,0,0-5.54,1.91,9.62,9.62,0,0,0-1.43.92,5.52,5.52,0,0,0-.65.63,4.08,4.08,0,0,0-.31.39c-.1.14-.15.24-.23.37a11.8,11.8,0,0,0-1.06,3.41,27.25,27.25,0,0,0-.35,3.45c-.06,1.13,0,2.25,0,3.32.05,2.15.19,4.14.34,5.85.08,1,.17,1.94.25,2.73l-1.57-8.5,0,10.58-3.06.61c-2.47.52-4.88,1.15-7.19,1.8-1.93.55-3.8,1.11-5.57,1.71l-.11-.44A21.76,21.76,0,0,1,167.39,16.35ZM162.5,48.19a72.29,72.29,0,0,1-7.5,0c-6.72-.34-8.53-1.75-8.66-2.26s.81-2.23,6.06-5c1.31-.62,2.81-1.24,4.46-1.87l1.84-.67c-1.46.61-2.83,1.23-4,1.89A23.1,23.1,0,0,0,149.48,44a15.12,15.12,0,0,0-1.19,1.32l-.39.5.44-.45a15.73,15.73,0,0,1,1.32-1.18A22.89,22.89,0,0,1,155,41c1-.47,2-.91,3.18-1.34l-1.12.6a23.31,23.31,0,0,0-4.94,3.71A15.77,15.77,0,0,0,151,45.24l-.36.49.41-.44a13.35,13.35,0,0,1,1.26-1.17,22.38,22.38,0,0,1,5.12-3.22,64.43,64.43,0,0,1,8-3.17c3-1.07,6.18-2.11,9.42-3,2.73-.79,5.49-1.47,8.15-2h0c3.19-.67,6.19-1.17,8.77-1.54,1.35-.22,2.58-.39,3.66-.54s2-.13,3-.17a108.71,108.71,0,0,1,12.94.17l1.28.1a137.51,137.51,0,0,0-22.19,1.92C173.27,35.58,163.69,40.94,162.5,48.19Z"/><path class="cls-3" d="M189.46,8.28c-.59.18-1.12.36-1.58.52s-.87.31-1.2.44l-1,.44,1.1-.19c.34-.07.77-.14,1.25-.22s1-.17,1.62-.25c1.18-.21,2.57-.38,4-.52s3.07-.29,4.65-.34S201.5,8,203,8.07s2.88,0,4.08.15c.6,0,1.15.06,1.64.09l1.26.11,1.11.08L210,8.16c-.34-.1-.76-.2-1.24-.32s-1-.26-1.62-.38c-1.19-.22-2.6-.41-4.12-.57s-3.15-.12-4.78-.09-3.24.3-4.75.53S190.63,7.94,189.46,8.28Z"/></svg>