<svg id="圖層_1" data-name="圖層 1" xmlns="http://www.w3.org/2000/svg" viewBox="0 0 127.05 112.65"><defs><style>.cls-1{fill:#f2921d;stroke:#020100;stroke-miterlimit:10;}</style></defs><path class="cls-1" d="M2,88.32a9.86,9.86,0,0,1,13.16-3.41l.2.11c19.21,10.66,21.2,7.13,21.95,5.8,1-1.76.45-3.85-1.81-9.66-2.17-5.59-4.87-12.54-3.15-20.52,1.81-8.37,6.37-14.75,12.83-18,6-3,13.09-2.9,20,.26A62.86,62.86,0,0,1,75.1,49c3.3,2.32,6.14,4.31,9.08,5.08l.18,0a17.39,17.39,0,0,0-2.49-6.69c-.65-1-1.39-2.09-2.14-3.17C74.94,37.31,66.28,24.77,74.19,12a26.7,26.7,0,0,1,1.94-2.7C84.56-1,99.08-2.44,110.67,6a118.65,118.65,0,0,1,12.89,10.73A9.86,9.86,0,1,1,109.8,30.85a99.17,99.17,0,0,0-10.74-8.91c-.2-.14-4.91-3.51-7.62-.17-1.31,1.61-.81,3.54,4.53,11.28.88,1.28,1.74,2.53,2.52,3.74C104,45.34,107,58.5,100.64,67.23c-2.12,2.91-8.43,9.31-21.43,5.93-6.39-1.66-11.2-5-15.45-8a48.09,48.09,0,0,0-6.86-4.29A4.15,4.15,0,0,0,54,60.31c-.75.37-1.81,1.94-2.36,4.5-.48,2.18.85,5.59,2.25,9.2,2.68,6.89,6.34,16.32.61,26.5C49.06,110.14,39,114,26.78,111.28c-8.07-1.83-15.86-6.16-21-9l-.19-.1A9.87,9.87,0,0,1,1.74,88.75C1.82,88.6,1.9,88.46,2,88.32Z"/></svg>