<?xml version="1.0" encoding="utf-8"?>
<!-- Generator: Adobe Illustrator 17.0.0, SVG Export Plug-In . SVG Version: 6.00 Build 0)  -->
<!DOCTYPE svg PUBLIC "-//W3C//DTD SVG 1.1//EN" "http://www.w3.org/Graphics/SVG/1.1/DTD/svg11.dtd">
<svg version="1.1" id="圖層_1" xmlns="http://www.w3.org/2000/svg" xmlns:xlink="http://www.w3.org/1999/xlink" x="0px" y="0px"
	 width="48px" height="48px" viewBox="0 0 48 48" enable-background="new 0 0 48 48" xml:space="preserve">
<title>70 Basic icons by Xicons.co</title>
<path fill="#CC0000" d="M41,14H7c-1.105,0-2-0.895-2-2s0.895-2,2-2h34c1.105,0,2,0.895,2,2S42.105,14,41,14z"/>
<path fill="#CC0000" d="M41,26H7c-1.105,0-2-0.895-2-2s0.895-2,2-2h34c1.105,0,2,0.895,2,2S42.105,26,41,26z"/>
<path fill="#CC0000" d="M41,38H7c-1.105,0-2-0.895-2-2s0.895-2,2-2h34c1.105,0,2,0.895,2,2S42.105,38,41,38z"/>
</svg>
