<svg id="圖層_1" data-name="圖層 1" xmlns="http://www.w3.org/2000/svg" viewBox="0 0 6495.58 202.28"><defs><style>.cls-1{fill:#fff;}</style></defs><path class="cls-1" d="M247.52,171.34q-2.09,8.58-3.9,20.28l-2.08,10.66q-66,0-108.42-16.9A198.55,198.55,0,0,1,83.2,197.6q-25.74,2.86-65.26,3.64a52.53,52.53,0,0,1-6,.26,140.28,140.28,0,0,0-4.55-22.23Q3.65,165.37,0,158.08q15.35,2.08,20.28,2.6A163.55,163.55,0,0,0,5.2,135.46q19.76-3.12,32.63-6.37a206.7,206.7,0,0,0,25.35-8.19H13.52V45.24h85.8l2.08-4.42H7.54V6.24H249.86V40.82H160.68l-2.08,4.42h85.28V120.9H124.28l-4.42,4.42h109.2l7.8,21.84a124.39,124.39,0,0,1-16.9,6.89q-9.11,3-23.4,6.89a420.38,420.38,0,0,0,56.16-2.6Q249.6,162.76,247.52,171.34ZM90.74,159.64a116.45,116.45,0,0,1-9.36-9.88,270.07,270.07,0,0,1-32.76,12.48A385.87,385.87,0,0,0,90.74,159.64ZM183.3,67.08V62.66H74.1v4.42ZM74.1,80.86v4.42H183.3V80.86Zm0,17.94v4.42H183.3V98.8Zm77,47.32H107.64a174.7,174.7,0,0,0,19.5,8.06Q142.49,150.81,151.06,146.12Z"/><path class="cls-1" d="M483.08,16.64,513.5,71.5q-16.38,36.91-32.89,59.15a132.87,132.87,0,0,1-40.95,36.27Q415,180.71,378.82,188.76t-87.36,12.48Q284.7,171.86,259.22,143q45-1,73.84-3.9t47.84-8.84a337.79,337.79,0,0,1-39.78-20.54l36.66-38.48L391,78.52Q415.48,92,428,98.54a110.88,110.88,0,0,0,17.16-30.68h-79.3q-14,24.44-31.07,41.47A277.09,277.09,0,0,1,299,139.62a181.91,181.91,0,0,0-15.73-25.48,139.13,139.13,0,0,0-20.15-21.32q29.38-16.63,43.42-38.09T325.26,0h65.26q-1.56,8.32-3.9,16.64Z"/><path class="cls-1" d="M767.52,171.34q-2.09,8.58-3.9,20.28l-2.08,10.66q-66,0-108.42-16.9A198.55,198.55,0,0,1,603.2,197.6q-25.74,2.86-65.26,3.64a52.53,52.53,0,0,1-6,.26,140.28,140.28,0,0,0-4.55-22.23q-3.76-13.9-7.41-21.19,15.35,2.08,20.28,2.6a163.55,163.55,0,0,0-15.08-25.22q19.75-3.12,32.63-6.37a206.7,206.7,0,0,0,25.35-8.19H533.52V45.24h85.8l2.08-4.42H527.54V6.24H769.86V40.82H680.68l-2.08,4.42h85.28V120.9H644.28l-4.42,4.42h109.2l7.8,21.84a124.39,124.39,0,0,1-16.9,6.89q-9.11,3-23.4,6.89a420.38,420.38,0,0,0,56.16-2.6Q769.6,162.76,767.52,171.34Zm-156.78-11.7a116.45,116.45,0,0,1-9.36-9.88,270.07,270.07,0,0,1-32.76,12.48A385.87,385.87,0,0,0,610.74,159.64ZM703.3,67.08V62.66H594.1v4.42ZM594.1,80.86v4.42H703.3V80.86Zm0,17.94v4.42H703.3V98.8Zm77,47.32H627.64a174.7,174.7,0,0,0,19.5,8.06Q662.49,150.81,671.06,146.12Z"/><path class="cls-1" d="M976.82,145.34q25.21,9.89,58.76,16.12l-4.29,4.94q-2.47,2.86-5.59,6.5-17.41,19.5-23.66,28.6A177.81,177.81,0,0,1,967.2,184a171.7,171.7,0,0,1-30.68-24.31v17.68q0,10.4-6.11,15.34t-20.8,6.63Q894.93,201,865,201l-1.56-6.24q-.53-1.56-2.08-7.54a48.29,48.29,0,0,0-3.9-10.4q-23.4,16.63-45.76,24.7-6.24-9.1-23.66-28.6-3.12-3.65-5.59-6.5c-1.65-1.91-3.08-3.55-4.29-4.94q33.54-6.24,58.76-16.12h-46V101.4h235.3v43.94Zm-35.36-72.8h90.48V97H785.46V72.54h90.48V68.12H796.12V4.42H1021v63.7H941.46Zm17.68-41.08V26.78H858.26v4.68Zm0,11.7H858.26v4.16H959.14Zm0,77.22H858.52v5.2H959.14ZM878,156.78V145.34H859Zm-2.21,11.31q2.21-1.17,2.21-4.81v-4.42q-7,7-10.92,10.4C871.43,169.26,874.34,168.87,875.81,168.09Zm60.71-22.75v10.92l18.2-10.92Z"/><path class="cls-1" d="M1339.52,171.34q-2.08,8.58-3.9,20.28l-2.08,10.66q-66,0-108.42-16.9a198.55,198.55,0,0,1-49.92,12.22q-25.74,2.86-65.26,3.64a52.53,52.53,0,0,1-6,.26,140.28,140.28,0,0,0-4.55-22.23q-3.78-13.9-7.41-21.19,15.33,2.08,20.28,2.6a163.55,163.55,0,0,0-15.08-25.22q19.75-3.12,32.63-6.37a206.7,206.7,0,0,0,25.35-8.19h-49.66V45.24h85.8l2.08-4.42h-93.86V6.24h242.32V40.82h-89.18l-2.08,4.42h85.28V120.9h-119.6l-4.42,4.42h109.2l7.8,21.84a124.92,124.92,0,0,1-16.9,6.89q-9.11,3-23.4,6.89a420.54,420.54,0,0,0,56.16-2.6Q1341.6,162.76,1339.52,171.34Zm-156.78-11.7a113.32,113.32,0,0,1-9.36-9.88,270.07,270.07,0,0,1-32.76,12.48A385.87,385.87,0,0,0,1182.74,159.64Zm92.56-92.56V62.66H1166.1v4.42ZM1166.1,80.86v4.42h109.2V80.86Zm0,17.94v4.42h109.2V98.8Zm77,47.32h-43.42a174.7,174.7,0,0,0,19.5,8.06Q1234.47,150.81,1243.06,146.12Z"/><path class="cls-1" d="M1575.08,16.64,1605.5,71.5q-16.38,36.91-32.89,59.15a132.87,132.87,0,0,1-40.95,36.27q-24.71,13.79-60.84,21.84t-87.36,12.48q-6.76-29.38-32.24-58.24,45-1,73.84-3.9t47.84-8.84a337.79,337.79,0,0,1-39.78-20.54l36.66-38.48L1483,78.52q24.43,13.52,36.92,20a110.88,110.88,0,0,0,17.16-30.68h-79.3q-14,24.44-31.07,41.47A277.77,277.77,0,0,1,1391,139.62a181.91,181.91,0,0,0-15.73-25.48,139.13,139.13,0,0,0-20.15-21.32q29.37-16.63,43.42-38.09T1417.26,0h65.26q-1.56,8.32-3.9,16.64Z"/><path class="cls-1" d="M1859.52,171.34q-2.08,8.58-3.9,20.28l-2.08,10.66q-66,0-108.42-16.9a198.55,198.55,0,0,1-49.92,12.22q-25.74,2.86-65.26,3.64a52.53,52.53,0,0,1-6,.26,140.28,140.28,0,0,0-4.55-22.23q-3.78-13.9-7.41-21.19,15.33,2.08,20.28,2.6a163.55,163.55,0,0,0-15.08-25.22q19.75-3.12,32.63-6.37a206.7,206.7,0,0,0,25.35-8.19h-49.66V45.24h85.8l2.08-4.42h-93.86V6.24h242.32V40.82h-89.18l-2.08,4.42h85.28V120.9h-119.6l-4.42,4.42h109.2l7.8,21.84a124.92,124.92,0,0,1-16.9,6.89q-9.11,3-23.4,6.89a420.54,420.54,0,0,0,56.16-2.6Q1861.6,162.76,1859.52,171.34Zm-156.78-11.7a113.32,113.32,0,0,1-9.36-9.88,270.07,270.07,0,0,1-32.76,12.48A385.87,385.87,0,0,0,1702.74,159.64Zm92.56-92.56V62.66H1686.1v4.42ZM1686.1,80.86v4.42h109.2V80.86Zm0,17.94v4.42h109.2V98.8Zm77,47.32h-43.42a174.7,174.7,0,0,0,19.5,8.06Q1754.47,150.81,1763.06,146.12Z"/><path class="cls-1" d="M2068.82,145.34q25.21,9.89,58.76,16.12c-1.22,1.39-2.65,3-4.29,4.94s-3.51,4.07-5.59,6.5q-17.43,19.5-23.66,28.6A177.53,177.53,0,0,1,2059.2,184a171.34,171.34,0,0,1-30.68-24.31v17.68q0,10.4-6.11,15.34t-20.8,6.63Q1986.91,201,1957,201l-1.56-6.24q-.53-1.56-2.08-7.54a48.29,48.29,0,0,0-3.9-10.4q-23.4,16.63-45.76,24.7-6.24-9.1-23.66-28.6-3.12-3.65-5.59-6.5l-4.29-4.94q33.54-6.24,58.76-16.12h-46V101.4h235.3v43.94Zm-35.36-72.8h90.48V97H1877.46V72.54h90.48V68.12h-79.82V4.42H2113v63.7h-79.56Zm17.68-41.08V26.78H1950.26v4.68Zm0,11.7H1950.26v4.16h100.88Zm0,77.22H1950.52v5.2h100.62ZM1970,156.78V145.34h-19Zm-2.21,11.31q2.2-1.17,2.21-4.81v-4.42q-7,7-10.92,10.4Q1965.6,169.26,1967.81,168.09Zm60.71-22.75v10.92l18.2-10.92Z"/><path class="cls-1" d="M2431.52,171.34q-2.08,8.58-3.9,20.28l-2.08,10.66q-66,0-108.42-16.9a198.55,198.55,0,0,1-49.92,12.22q-25.74,2.86-65.26,3.64a52.53,52.53,0,0,1-6,.26,140.28,140.28,0,0,0-4.55-22.23q-3.78-13.9-7.41-21.19,15.33,2.08,20.28,2.6a163.55,163.55,0,0,0-15.08-25.22q19.76-3.12,32.63-6.37a206.7,206.7,0,0,0,25.35-8.19h-49.66V45.24h85.8l2.08-4.42h-93.86V6.24h242.32V40.82h-89.18l-2.08,4.42h85.28V120.9h-119.6l-4.42,4.42h109.2l7.8,21.84a124.92,124.92,0,0,1-16.9,6.89q-9.11,3-23.4,6.89a420.54,420.54,0,0,0,56.16-2.6Q2433.6,162.76,2431.52,171.34Zm-156.78-11.7a113.32,113.32,0,0,1-9.36-9.88,270.07,270.07,0,0,1-32.76,12.48A385.87,385.87,0,0,0,2274.74,159.64Zm92.56-92.56V62.66H2258.1v4.42ZM2258.1,80.86v4.42h109.2V80.86Zm0,17.94v4.42h109.2V98.8Zm77,47.32h-43.42a174.7,174.7,0,0,0,19.5,8.06Q2326.47,150.81,2335.06,146.12Z"/><path class="cls-1" d="M2667.08,16.64,2697.5,71.5q-16.38,36.91-32.89,59.15a132.87,132.87,0,0,1-41,36.27q-24.7,13.79-60.84,21.84t-87.36,12.48q-6.77-29.38-32.24-58.24,45-1,73.84-3.9t47.84-8.84a337.79,337.79,0,0,1-39.78-20.54l36.66-38.48L2575,78.52q24.43,13.52,36.92,20a110.88,110.88,0,0,0,17.16-30.68h-79.3q-14,24.44-31.07,41.47A277.77,277.77,0,0,1,2483,139.62a181.91,181.91,0,0,0-15.73-25.48,139.13,139.13,0,0,0-20.15-21.32q29.37-16.63,43.42-38.09T2509.26,0h65.26q-1.56,8.32-3.9,16.64Z"/><path class="cls-1" d="M2951.52,171.34q-2.08,8.58-3.9,20.28l-2.08,10.66q-66,0-108.42-16.9a198.55,198.55,0,0,1-49.92,12.22q-25.74,2.86-65.26,3.64a52.53,52.53,0,0,1-6,.26,140.28,140.28,0,0,0-4.55-22.23q-3.78-13.9-7.41-21.19,15.33,2.08,20.28,2.6a163.55,163.55,0,0,0-15.08-25.22q19.76-3.12,32.63-6.37a206.7,206.7,0,0,0,25.35-8.19h-49.66V45.24h85.8l2.08-4.42h-93.86V6.24h242.32V40.82h-89.18l-2.08,4.42h85.28V120.9h-119.6l-4.42,4.42h109.2l7.8,21.84a124.92,124.92,0,0,1-16.9,6.89q-9.11,3-23.4,6.89a420.54,420.54,0,0,0,56.16-2.6Q2953.6,162.76,2951.52,171.34Zm-156.78-11.7a113.32,113.32,0,0,1-9.36-9.88,270.07,270.07,0,0,1-32.76,12.48A385.87,385.87,0,0,0,2794.74,159.64Zm92.56-92.56V62.66H2778.1v4.42ZM2778.1,80.86v4.42h109.2V80.86Zm0,17.94v4.42h109.2V98.8Zm77,47.32h-43.42a174.7,174.7,0,0,0,19.5,8.06Q2846.47,150.81,2855.06,146.12Z"/><path class="cls-1" d="M3160.82,145.34q25.21,9.89,58.76,16.12c-1.22,1.39-2.65,3-4.29,4.94s-3.51,4.07-5.59,6.5q-17.43,19.5-23.66,28.6A177.53,177.53,0,0,1,3151.2,184a171.34,171.34,0,0,1-30.68-24.31v17.68q0,10.4-6.11,15.34t-20.8,6.63Q3078.91,201,3049,201l-1.56-6.24q-.52-1.56-2.08-7.54a48.29,48.29,0,0,0-3.9-10.4q-23.4,16.63-45.76,24.7-6.24-9.1-23.66-28.6-3.12-3.65-5.59-6.5c-1.65-1.91-3.08-3.55-4.29-4.94q33.54-6.24,58.76-16.12h-46V101.4h235.3v43.94Zm-35.36-72.8h90.48V97H2969.46V72.54h90.48V68.12h-79.82V4.42H3205v63.7h-79.56Zm17.68-41.08V26.78H3042.26v4.68Zm0,11.7H3042.26v4.16h100.88Zm0,77.22H3042.52v5.2h100.62ZM3062,156.78V145.34h-19Zm-2.21,11.31q2.21-1.17,2.21-4.81v-4.42q-7,7-10.92,10.4Q3057.6,169.26,3059.81,168.09Zm60.71-22.75v10.92l18.2-10.92Z"/><path class="cls-1" d="M3523.52,171.34q-2.08,8.58-3.9,20.28l-2.08,10.66q-66,0-108.42-16.9a198.55,198.55,0,0,1-49.92,12.22q-25.74,2.86-65.26,3.64a52.53,52.53,0,0,1-6,.26,140.28,140.28,0,0,0-4.55-22.23q-3.78-13.9-7.41-21.19,15.33,2.08,20.28,2.6a163.55,163.55,0,0,0-15.08-25.22q19.76-3.12,32.63-6.37a206.7,206.7,0,0,0,25.35-8.19h-49.66V45.24h85.8l2.08-4.42h-93.86V6.24h242.32V40.82h-89.18l-2.08,4.42h85.28V120.9h-119.6l-4.42,4.42h109.2l7.8,21.84a124.92,124.92,0,0,1-16.9,6.89q-9.11,3-23.4,6.89a420.54,420.54,0,0,0,56.16-2.6Q3525.6,162.76,3523.52,171.34Zm-156.78-11.7a113.32,113.32,0,0,1-9.36-9.88,270.07,270.07,0,0,1-32.76,12.48A385.87,385.87,0,0,0,3366.74,159.64Zm92.56-92.56V62.66H3350.1v4.42ZM3350.1,80.86v4.42h109.2V80.86Zm0,17.94v4.42h109.2V98.8Zm77,47.32h-43.42a174.7,174.7,0,0,0,19.5,8.06Q3418.47,150.81,3427.06,146.12Z"/><path class="cls-1" d="M3759.08,16.64,3789.5,71.5q-16.38,36.91-32.89,59.15a132.87,132.87,0,0,1-41,36.27q-24.7,13.79-60.84,21.84t-87.36,12.48q-6.77-29.38-32.24-58.24,45-1,73.84-3.9t47.84-8.84a337.79,337.79,0,0,1-39.78-20.54l36.66-38.48L3667,78.52q24.43,13.52,36.92,20a110.88,110.88,0,0,0,17.16-30.68h-79.3q-14,24.44-31.07,41.47A277.77,277.77,0,0,1,3575,139.62a181.91,181.91,0,0,0-15.73-25.48,139.13,139.13,0,0,0-20.15-21.32q29.37-16.63,43.42-38.09T3601.26,0h65.26q-1.56,8.32-3.9,16.64Z"/><path class="cls-1" d="M4043.52,171.34q-2.08,8.58-3.9,20.28l-2.08,10.66q-66,0-108.42-16.9a198.55,198.55,0,0,1-49.92,12.22q-25.74,2.86-65.26,3.64a52.53,52.53,0,0,1-6,.26,140.28,140.28,0,0,0-4.55-22.23q-3.78-13.9-7.41-21.19,15.33,2.08,20.28,2.6a163.55,163.55,0,0,0-15.08-25.22q19.76-3.12,32.63-6.37a206.7,206.7,0,0,0,25.35-8.19h-49.66V45.24h85.8l2.08-4.42h-93.86V6.24h242.32V40.82h-89.18l-2.08,4.42h85.28V120.9h-119.6l-4.42,4.42h109.2l7.8,21.84a124.92,124.92,0,0,1-16.9,6.89q-9.11,3-23.4,6.89a420.54,420.54,0,0,0,56.16-2.6Q4045.6,162.76,4043.52,171.34Zm-156.78-11.7a113.32,113.32,0,0,1-9.36-9.88,270.07,270.07,0,0,1-32.76,12.48A385.87,385.87,0,0,0,3886.74,159.64Zm92.56-92.56V62.66H3870.1v4.42ZM3870.1,80.86v4.42h109.2V80.86Zm0,17.94v4.42h109.2V98.8Zm77,47.32h-43.42a174.7,174.7,0,0,0,19.5,8.06Q3938.47,150.81,3947.06,146.12Z"/><path class="cls-1" d="M4252.82,145.34q25.22,9.89,58.76,16.12c-1.22,1.39-2.65,3-4.29,4.94s-3.51,4.07-5.59,6.5q-17.43,19.5-23.66,28.6A177.53,177.53,0,0,1,4243.2,184a171.34,171.34,0,0,1-30.68-24.31v17.68q0,10.4-6.11,15.34t-20.8,6.63Q4170.91,201,4141,201l-1.56-6.24q-.53-1.56-2.08-7.54a48.29,48.29,0,0,0-3.9-10.4q-23.4,16.63-45.76,24.7-6.24-9.1-23.66-28.6-3.12-3.65-5.59-6.5c-1.65-1.91-3.08-3.55-4.29-4.94q33.54-6.24,58.76-16.12h-46V101.4h235.3v43.94Zm-35.36-72.8h90.48V97H4061.46V72.54h90.48V68.12h-79.82V4.42H4297v63.7h-79.56Zm17.68-41.08V26.78H4134.26v4.68Zm0,11.7H4134.26v4.16h100.88Zm0,77.22H4134.52v5.2h100.62ZM4154,156.78V145.34h-19Zm-2.21,11.31q2.2-1.17,2.21-4.81v-4.42q-7,7-10.92,10.4Q4149.6,169.26,4151.81,168.09Zm60.71-22.75v10.92l18.2-10.92Z"/><path class="cls-1" d="M4615.52,171.34q-2.09,8.58-3.9,20.28l-2.08,10.66q-66,0-108.42-16.9a198.55,198.55,0,0,1-49.92,12.22q-25.74,2.86-65.26,3.64a52.53,52.53,0,0,1-6,.26,140.28,140.28,0,0,0-4.55-22.23q-3.78-13.9-7.41-21.19,15.33,2.08,20.28,2.6a163.55,163.55,0,0,0-15.08-25.22q19.76-3.12,32.63-6.37a206.7,206.7,0,0,0,25.35-8.19h-49.66V45.24h85.8l2.08-4.42h-93.86V6.24h242.32V40.82h-89.18l-2.08,4.42h85.28V120.9h-119.6l-4.42,4.42h109.2l7.8,21.84a124.92,124.92,0,0,1-16.9,6.89q-9.1,3-23.4,6.89a420.54,420.54,0,0,0,56.16-2.6Q4617.6,162.76,4615.52,171.34Zm-156.78-11.7a113.32,113.32,0,0,1-9.36-9.88,270.07,270.07,0,0,1-32.76,12.48A385.87,385.87,0,0,0,4458.74,159.64Zm92.56-92.56V62.66H4442.1v4.42ZM4442.1,80.86v4.42h109.2V80.86Zm0,17.94v4.42h109.2V98.8Zm77,47.32h-43.42a174.7,174.7,0,0,0,19.5,8.06Q4510.47,150.81,4519.06,146.12Z"/><path class="cls-1" d="M4851.08,16.64,4881.5,71.5q-16.38,36.91-32.89,59.15a132.87,132.87,0,0,1-40.95,36.27q-24.7,13.79-60.84,21.84t-87.36,12.48q-6.77-29.38-32.24-58.24,45-1,73.84-3.9t47.84-8.84a337.79,337.79,0,0,1-39.78-20.54l36.66-38.48L4759,78.52q24.44,13.52,36.92,20a110.88,110.88,0,0,0,17.16-30.68h-79.3q-14,24.44-31.07,41.47A277.77,277.77,0,0,1,4667,139.62a181.91,181.91,0,0,0-15.73-25.48,139.13,139.13,0,0,0-20.15-21.32q29.37-16.63,43.42-38.09T4693.26,0h65.26q-1.56,8.32-3.9,16.64Z"/><path class="cls-1" d="M5135.52,171.34q-2.09,8.58-3.9,20.28l-2.08,10.66q-66,0-108.42-16.9a198.55,198.55,0,0,1-49.92,12.22q-25.74,2.86-65.26,3.64a52.53,52.53,0,0,1-6,.26,140.28,140.28,0,0,0-4.55-22.23q-3.78-13.9-7.41-21.19,15.33,2.08,20.28,2.6a163.55,163.55,0,0,0-15.08-25.22q19.76-3.12,32.63-6.37a206.7,206.7,0,0,0,25.35-8.19h-49.66V45.24h85.8l2.08-4.42h-93.86V6.24h242.32V40.82h-89.18l-2.08,4.42h85.28V120.9h-119.6l-4.42,4.42h109.2l7.8,21.84a124.92,124.92,0,0,1-16.9,6.89q-9.1,3-23.4,6.89a420.54,420.54,0,0,0,56.16-2.6Q5137.6,162.76,5135.52,171.34Zm-156.78-11.7a113.32,113.32,0,0,1-9.36-9.88,270.07,270.07,0,0,1-32.76,12.48A385.87,385.87,0,0,0,4978.74,159.64Zm92.56-92.56V62.66H4962.1v4.42ZM4962.1,80.86v4.42h109.2V80.86Zm0,17.94v4.42h109.2V98.8Zm77,47.32h-43.42a174.7,174.7,0,0,0,19.5,8.06Q5030.47,150.81,5039.06,146.12Z"/><path class="cls-1" d="M5344.82,145.34q25.22,9.89,58.76,16.12c-1.22,1.39-2.65,3-4.29,4.94s-3.51,4.07-5.59,6.5q-17.43,19.5-23.66,28.6A177.53,177.53,0,0,1,5335.2,184a171.34,171.34,0,0,1-30.68-24.31v17.68q0,10.4-6.11,15.34t-20.8,6.63Q5262.91,201,5233,201l-1.56-6.24q-.53-1.56-2.08-7.54a48.29,48.29,0,0,0-3.9-10.4q-23.4,16.63-45.76,24.7-6.24-9.1-23.66-28.6-3.12-3.65-5.59-6.5l-4.29-4.94q33.54-6.24,58.76-16.12h-46V101.4h235.3v43.94Zm-35.36-72.8h90.48V97H5153.46V72.54h90.48V68.12h-79.82V4.42H5389v63.7h-79.56Zm17.68-41.08V26.78H5226.26v4.68Zm0,11.7H5226.26v4.16h100.88Zm0,77.22H5226.52v5.2h100.62ZM5246,156.78V145.34h-19Zm-2.21,11.31q2.2-1.17,2.21-4.81v-4.42q-7,7-10.92,10.4Q5241.6,169.26,5243.81,168.09Zm60.71-22.75v10.92l18.2-10.92Z"/><path class="cls-1" d="M5707.52,171.34q-2.09,8.58-3.9,20.28l-2.08,10.66q-66,0-108.42-16.9a198.55,198.55,0,0,1-49.92,12.22q-25.74,2.86-65.26,3.64a52.53,52.53,0,0,1-6,.26,140.28,140.28,0,0,0-4.55-22.23q-3.78-13.9-7.41-21.19,15.33,2.08,20.28,2.6a163.55,163.55,0,0,0-15.08-25.22q19.76-3.12,32.63-6.37a206.7,206.7,0,0,0,25.35-8.19h-49.66V45.24h85.8l2.08-4.42h-93.86V6.24h242.32V40.82h-89.18l-2.08,4.42h85.28V120.9h-119.6l-4.42,4.42h109.2l7.8,21.84a124.92,124.92,0,0,1-16.9,6.89q-9.1,3-23.4,6.89a420.54,420.54,0,0,0,56.16-2.6Q5709.6,162.76,5707.52,171.34Zm-156.78-11.7a113.32,113.32,0,0,1-9.36-9.88,270.07,270.07,0,0,1-32.76,12.48A385.87,385.87,0,0,0,5550.74,159.64Zm92.56-92.56V62.66H5534.1v4.42ZM5534.1,80.86v4.42h109.2V80.86Zm0,17.94v4.42h109.2V98.8Zm77,47.32h-43.42a174.7,174.7,0,0,0,19.5,8.06Q5602.47,150.81,5611.06,146.12Z"/><path class="cls-1" d="M5943.08,16.64,5973.5,71.5q-16.38,36.91-32.89,59.15a132.87,132.87,0,0,1-40.95,36.27q-24.7,13.79-60.84,21.84t-87.36,12.48q-6.77-29.38-32.24-58.24,45-1,73.84-3.9t47.84-8.84a337.79,337.79,0,0,1-39.78-20.54l36.66-38.48L5851,78.52q24.44,13.52,36.92,20a110.88,110.88,0,0,0,17.16-30.68h-79.3q-14,24.44-31.07,41.47A277.77,277.77,0,0,1,5759,139.62a181.91,181.91,0,0,0-15.73-25.48,139.13,139.13,0,0,0-20.15-21.32q29.37-16.63,43.42-38.09T5785.26,0h65.26q-1.56,8.32-3.9,16.64Z"/><path class="cls-1" d="M6227.52,171.34q-2.09,8.58-3.9,20.28l-2.08,10.66q-66,0-108.42-16.9a198.55,198.55,0,0,1-49.92,12.22q-25.74,2.86-65.26,3.64a52.53,52.53,0,0,1-6,.26,140.28,140.28,0,0,0-4.55-22.23q-3.78-13.9-7.41-21.19,15.33,2.08,20.28,2.6a163.55,163.55,0,0,0-15.08-25.22q19.76-3.12,32.63-6.37a206.7,206.7,0,0,0,25.35-8.19h-49.66V45.24h85.8l2.08-4.42h-93.86V6.24h242.32V40.82h-89.18l-2.08,4.42h85.28V120.9h-119.6l-4.42,4.42h109.2l7.8,21.84a124.92,124.92,0,0,1-16.9,6.89q-9.1,3-23.4,6.89a420.54,420.54,0,0,0,56.16-2.6Q6229.6,162.76,6227.52,171.34Zm-156.78-11.7a113.32,113.32,0,0,1-9.36-9.88,270.07,270.07,0,0,1-32.76,12.48A385.87,385.87,0,0,0,6070.74,159.64Zm92.56-92.56V62.66H6054.1v4.42ZM6054.1,80.86v4.42h109.2V80.86Zm0,17.94v4.42h109.2V98.8Zm77,47.32h-43.42a174.7,174.7,0,0,0,19.5,8.06Q6122.47,150.81,6131.06,146.12Z"/><path class="cls-1" d="M6436.82,145.34q25.22,9.89,58.76,16.12c-1.22,1.39-2.65,3-4.29,4.94s-3.51,4.07-5.59,6.5q-17.43,19.5-23.66,28.6A177.53,177.53,0,0,1,6427.2,184a171.34,171.34,0,0,1-30.68-24.31v17.68q0,10.4-6.11,15.34t-20.8,6.63Q6354.91,201,6325,201l-1.56-6.24q-.53-1.56-2.08-7.54a48.29,48.29,0,0,0-3.9-10.4q-23.4,16.63-45.76,24.7-6.24-9.1-23.66-28.6-3.12-3.65-5.59-6.5l-4.29-4.94q33.54-6.24,58.76-16.12h-46V101.4h235.3v43.94Zm-35.36-72.8h90.48V97H6245.46V72.54h90.48V68.12h-79.82V4.42H6481v63.7h-79.56Zm17.68-41.08V26.78H6318.26v4.68Zm0,11.7H6318.26v4.16h100.88Zm0,77.22H6318.52v5.2h100.62ZM6338,156.78V145.34h-19Zm-2.21,11.31q2.2-1.17,2.21-4.81v-4.42q-7,7-10.92,10.4Q6333.6,169.26,6335.81,168.09Zm60.71-22.75v10.92l18.2-10.92Z"/></svg>