<svg id="圖層_1" data-name="圖層 1" xmlns="http://www.w3.org/2000/svg" viewBox="0 0 6758.9 191.62"><defs><style>.cls-1{fill:#fff;}</style></defs><path class="cls-1" d="M160.42,11.83q28.34,11.84,39.65,32.76t11.31,51.35q0,28.86-13,50.44t-39,33.41q-26,11.84-64,11.83H48.36q-23.93,0-48.36-.26,2.09-51.23,2.08-95.42Q2.08,51.22,0,2.6,30.95,0,83.2,0,132.09,0,160.42,11.83Zm-57.72,128q24.18,0,32.24-11.7T143,95.94q0-19.75-8.45-32T102.7,51.74q-25.22,0-37.7,1.56v86.58Z"/><path class="cls-1" d="M429.91,104q-11.06,15.6-37.83,22.62a63.83,63.83,0,0,1,4.42,6.5l42.12,58.5H367.9q-11.44-21.31-36.14-60.32H293.54v60.32H232.18q2.07-50.44,2.08-94.38T232.18,2.86h61.36v.26h53.3q52.52,0,73.32,16.9T441,65.78Q441,88.4,429.91,104ZM293.54,53V82.68h35.1q22.1,0,33.41-1.43t15.73-4.55a10.45,10.45,0,0,0,4.42-9.1A10.41,10.41,0,0,0,378,58.76q-4.17-3.12-15.6-4.42T328.64,53Z"/><path class="cls-1" d="M523.12,144q98.79-.53,143.26-2.86a163,163,0,0,0-2.21,22q-.39,11.31-.39,28.47h-202q2.07-50.44,2.08-94.38T461.76,2.86h202V49.92H523.12v25q12.48.25,36.92.26,41.34,0,85.54-1.56V118.3q-44.21-1.56-85.54-1.56-24.45,0-36.92.26Z"/><path class="cls-1" d="M835.63,191.62q-4.93-14.82-13.26-37.18H739.43l-13,37.18H661.17L734,2.86h95.68L903,191.62Zm-28.08-77.74q-9.88-27.3-20.28-54.6L781,42.38q-9.1,23.65-26.78,71.5Z"/><path class="cls-1" d="M1159.85,2.86l20.28,188.76h-67.34l-4.16-134.68-26,134.68h-68.12L988,58l-3.9,133.64H916.75L937,2.86h88.4l22.62,123,19.76-123Z"/><path class="cls-1" d="M1262.29,144q98.79-.53,143.26-2.86a163,163,0,0,0-2.21,22q-.39,11.31-.39,28.47h-202q2.07-50.44,2.08-94.38t-2.08-94.38h202V49.92H1262.29v25q12.48.25,36.92.26,41.34,0,85.54-1.56V118.3q-44.2-1.56-85.54-1.56-24.45,0-36.92.26Z"/><path class="cls-1" d="M1624.08,104q-11.05,15.6-37.83,22.62a63.83,63.83,0,0,1,4.42,6.5l42.12,58.5h-70.72q-11.44-21.31-36.14-60.32h-38.22v60.32h-61.36q2.07-50.44,2.08-94.38t-2.08-94.38h61.36v.26H1541q52.52,0,73.32,16.9t20.8,45.76Q1635.13,88.4,1624.08,104ZM1487.71,53V82.68h35.1q22.1,0,33.41-1.43T1572,76.7a10.45,10.45,0,0,0,4.42-9.1,10.41,10.41,0,0,0-4.16-8.84q-4.17-3.12-15.6-4.42t-33.8-1.3Z"/><path class="cls-1" d="M1868.34,11.83q28.34,11.84,39.65,32.76t11.31,51.35q0,28.86-13,50.44t-39,33.41q-26,11.84-64,11.83h-47.06q-23.92,0-48.36-.26,2.08-51.23,2.08-95.42,0-44.71-2.08-93.34Q1738.86,0,1791.12,0,1840,0,1868.34,11.83Zm-57.72,128q24.18,0,32.24-11.7t8.06-32.24q0-19.75-8.45-32t-31.85-12.22q-25.21,0-37.7,1.56v86.58Z"/><path class="cls-1" d="M2137.83,104q-11.05,15.6-37.83,22.62a63.83,63.83,0,0,1,4.42,6.5l42.12,58.5h-70.72q-11.45-21.31-36.14-60.32h-38.22v60.32H1940.1q2.09-50.44,2.08-94.38T1940.1,2.86h61.36v.26h53.3q52.51,0,73.32,16.9t20.8,45.76Q2148.88,88.4,2137.83,104ZM2001.46,53V82.68h35.1q22.09,0,33.41-1.43t15.73-4.55a10.43,10.43,0,0,0,4.42-9.1,10.41,10.41,0,0,0-4.16-8.84q-4.15-3.12-15.6-4.42t-33.8-1.3Z"/><path class="cls-1" d="M2231,144q98.8-.53,143.26-2.86a164.62,164.62,0,0,0-2.21,22q-.39,11.31-.39,28.47h-202q2.09-50.44,2.08-94.38t-2.08-94.38h202V49.92H2231v25q12.48.25,36.92.26,41.34,0,85.54-1.56V118.3q-44.2-1.56-85.54-1.56-24.43,0-36.92.26Z"/><path class="cls-1" d="M2543.56,191.62q-4.95-14.82-13.26-37.18h-82.94l-13,37.18H2369.1L2441.9,2.86h95.68l73.32,188.76Zm-28.08-77.74q-9.89-27.3-20.28-54.6L2489,42.38q-9.11,23.65-26.78,71.5Z"/><path class="cls-1" d="M2867.78,2.86l20.28,188.76h-67.34l-4.16-134.68-26,134.68h-68.12L2695.92,58,2692,191.62h-67.34L2645,2.86h88.4l22.62,123,19.76-123Z"/><path class="cls-1" d="M2970.21,144q98.8-.53,143.26-2.86a164.62,164.62,0,0,0-2.21,22q-.39,11.31-.39,28.47h-202q2.08-50.44,2.08-94.38t-2.08-94.38h202V49.92H2970.21v25q12.48.25,36.92.26,41.34,0,85.54-1.56V118.3q-44.21-1.56-85.54-1.56-24.43,0-36.92.26Z"/><path class="cls-1" d="M3332,104q-11.05,15.6-37.83,22.62a63.83,63.83,0,0,1,4.42,6.5l42.12,58.5H3270q-11.44-21.31-36.14-60.32h-38.22v60.32h-61.36q2.08-50.44,2.08-94.38t-2.08-94.38h61.36v.26h53.3q52.52,0,73.32,16.9t20.8,45.76Q3343.05,88.4,3332,104ZM3195.63,53V82.68h35.1q22.09,0,33.41-1.43t15.73-4.55a10.43,10.43,0,0,0,4.42-9.1,10.41,10.41,0,0,0-4.16-8.84q-4.15-3.12-15.6-4.42t-33.8-1.3Z"/><path class="cls-1" d="M3576.27,11.83q28.33,11.84,39.65,32.76t11.31,51.35q0,28.86-13,50.44t-39,33.41q-26,11.84-64,11.83h-47.06q-23.92,0-48.36-.26,2.07-51.23,2.08-95.42,0-44.71-2.08-93.34Q3446.78,0,3499.05,0,3547.92,0,3576.27,11.83Zm-57.72,128q24.18,0,32.24-11.7t8.06-32.24q0-19.75-8.45-32t-31.85-12.22q-25.23,0-37.7,1.56v86.58Z"/><path class="cls-1" d="M3845.76,104q-11.06,15.6-37.83,22.62a63.83,63.83,0,0,1,4.42,6.5l42.12,58.5h-70.72q-11.45-21.31-36.14-60.32h-38.22v60.32H3648q2.07-50.44,2.08-94.38T3648,2.86h61.36v.26h53.3q52.51,0,73.32,16.9t20.8,45.76Q3856.81,88.4,3845.76,104ZM3709.39,53V82.68h35.1q22.1,0,33.41-1.43t15.73-4.55a10.45,10.45,0,0,0,4.42-9.1,10.41,10.41,0,0,0-4.16-8.84q-4.17-3.12-15.6-4.42t-33.8-1.3Z"/><path class="cls-1" d="M3939,144q98.8-.53,143.26-2.86a166.29,166.29,0,0,0-2.21,22q-.39,11.31-.39,28.47h-202q2.08-50.44,2.09-94.38T3877.6,2.86h202V49.92H3939v25q12.49.25,36.93.26,41.34,0,85.53-1.56V118.3q-44.19-1.56-85.53-1.56-24.45,0-36.93.26Z"/><path class="cls-1" d="M4251.48,191.62q-4.93-14.82-13.26-37.18h-82.94l-13,37.18H4077l72.8-188.76h95.68l73.32,188.76Zm-28.08-77.74q-9.88-27.3-20.28-54.6l-6.24-16.9q-9.1,23.65-26.78,71.5Z"/><path class="cls-1" d="M4575.7,2.86,4596,191.62h-67.34l-4.16-134.68-26,134.68h-68.12L4403.84,58l-3.9,133.64H4332.6L4352.88,2.86h88.4l22.62,123,19.76-123Z"/><path class="cls-1" d="M4678.14,144q98.79-.53,143.26-2.86a163,163,0,0,0-2.21,22q-.39,11.31-.39,28.47h-202q2.07-50.44,2.08-94.38t-2.08-94.38h202V49.92H4678.14v25q12.48.25,36.92.26,41.34,0,85.54-1.56V118.3q-44.2-1.56-85.54-1.56-24.45,0-36.92.26Z"/><path class="cls-1" d="M5039.93,104q-11.06,15.6-37.83,22.62a63.83,63.83,0,0,1,4.42,6.5l42.12,58.5h-70.72q-11.44-21.31-36.14-60.32h-38.22v60.32H4842.2q2.07-50.44,2.08-94.38T4842.2,2.86h61.36v.26h53.3q52.52,0,73.32,16.9T5051,65.78Q5051,88.4,5039.93,104ZM4903.56,53V82.68h35.1q22.1,0,33.41-1.43t15.73-4.55a10.45,10.45,0,0,0,4.42-9.1,10.41,10.41,0,0,0-4.16-8.84q-4.17-3.12-15.6-4.42t-33.8-1.3Z"/><path class="cls-1" d="M5284.19,11.83q28.34,11.84,39.65,32.76t11.31,51.35q0,28.86-13,50.44t-39,33.41q-26,11.84-64,11.83h-47.06q-23.93,0-48.36-.26,2.08-51.23,2.08-95.42,0-44.71-2.08-93.34Q5154.71,0,5207,0,5255.86,0,5284.19,11.83Zm-57.72,128q24.18,0,32.24-11.7t8.06-32.24q0-19.75-8.45-32t-31.85-12.22q-25.22,0-37.7,1.56v86.58Z"/><path class="cls-1" d="M5553.68,104q-11.06,15.6-37.83,22.62a63.83,63.83,0,0,1,4.42,6.5l42.12,58.5h-70.72q-11.44-21.31-36.14-60.32h-38.22v60.32H5356q2.07-50.44,2.08-94.38T5356,2.86h61.36v.26h53.3q52.52,0,73.32,16.9t20.8,45.76Q5564.73,88.4,5553.68,104ZM5417.31,53V82.68h35.1q22.1,0,33.41-1.43t15.73-4.55a10.43,10.43,0,0,0,4.42-9.1,10.41,10.41,0,0,0-4.16-8.84q-4.16-3.12-15.6-4.42t-33.8-1.3Z"/><path class="cls-1" d="M5646.89,144q98.79-.53,143.26-2.86a164.62,164.62,0,0,0-2.21,22q-.39,11.31-.39,28.47h-202q2.09-50.44,2.08-94.38t-2.08-94.38h202V49.92H5646.89v25q12.48.25,36.92.26,41.34,0,85.54-1.56V118.3q-44.2-1.56-85.54-1.56-24.44,0-36.92.26Z"/><path class="cls-1" d="M5959.41,191.62q-5-14.82-13.26-37.18h-82.94l-13,37.18H5785l72.8-188.76h95.68l73.32,188.76Zm-28.08-77.74q-9.89-27.3-20.28-54.6l-6.24-16.9Q5895.71,66,5878,113.88Z"/><path class="cls-1" d="M6283.62,2.86l20.29,188.76h-67.34l-4.16-134.68-26,134.68h-68.12L6111.76,58l-3.89,133.64h-67.34L6060.8,2.86h88.41l22.62,123,19.75-123Z"/><path class="cls-1" d="M6386.06,144q98.8-.53,143.26-2.86a164.62,164.62,0,0,0-2.21,22q-.39,11.31-.39,28.47h-202q2.09-50.44,2.08-94.38T6324.7,2.86h202V49.92H6386.06v25q12.48.25,36.92.26,41.34,0,85.54-1.56V118.3q-44.2-1.56-85.54-1.56-24.43,0-36.92.26Z"/><path class="cls-1" d="M6747.85,104q-11.06,15.6-37.83,22.62a63.83,63.83,0,0,1,4.42,6.5l42.12,58.5h-70.72q-11.44-21.31-36.14-60.32h-38.22v60.32h-61.36q2.07-50.44,2.08-94.38t-2.08-94.38h61.36v.26h53.3q52.52,0,73.32,16.9t20.8,45.76Q6758.9,88.4,6747.85,104ZM6611.48,53V82.68h35.1q22.1,0,33.41-1.43t15.73-4.55a10.45,10.45,0,0,0,4.42-9.1,10.41,10.41,0,0,0-4.16-8.84q-4.17-3.12-15.6-4.42t-33.8-1.3Z"/></svg>