<svg id="圖層_1" data-name="圖層 1" xmlns="http://www.w3.org/2000/svg" viewBox="0 0 6599.05 203.84"><defs><style>.cls-1{fill:#fff;}</style></defs><path class="cls-1" d="M256.1,77v48.62H226.72v29.9q0,19-4.42,28T203.19,196.3q-14.69,3.9-46.93,3.9-12.22,0-19-.26.53-6.24.52-9.36,0-17.42-7.54-37.7L101.92,189l-4.68-3.9q-6.76-6.24-13-11.18-21.06,19-53.56,29.9A171.25,171.25,0,0,0,18.2,179.53,175.71,175.71,0,0,0,0,156q26.52-5.72,42.64-14.56-15.85-11.17-30.42-20,8.58-26,12.48-59H8.58V19.76H28.34L29.38,1H79.3L79,7.28q0,4.16-.52,12.48h49.4V6.24H240l12,41.6A255.42,255.42,0,0,1,229.32,77ZM73.84,62.4A247.52,247.52,0,0,1,64.48,103l7.8,4.68Q78.78,91,81.64,62.4Zm68.38,84q15.85,1.81,20,1.82,6.76,0,8.58-2.73t1.82-11.57v-8.32H131.3V77h41.34V62.4h8.84a76.48,76.48,0,0,0,10.4-9.62h-64a373.52,373.52,0,0,1-5.2,44.33,180.41,180.41,0,0,1-10.4,36l17.94,11.7Z"/><path class="cls-1" d="M515.06,161.2q0,15.08-3.38,23.66-3.65,8.32-7.8,11t-12,2.73q-20.54,0-35.62-7.54t-20.8-22.62q-6,10.4-14.82,28.08-27.82-6.5-46.28-18.46v21.58H328.12V178.36a148.49,148.49,0,0,1-46,18.2q-5.21-13.26-20-36.66,32.76-1,53.82-7H265.46v-32.5h22.62l-3.9-10.4H273V73.58h2.34q-7.8-20.8-16.64-31.72a66.57,66.57,0,0,0,20.8-17.29A50.91,50.91,0,0,0,289.9,0l56.94.52-1.82,7H502.84V38H333.58l-1.82,3.9H494.52V69.68h-182l-3.9,3.9,183.56.26L488.28,90a162.92,162.92,0,0,0,20.8,6.76Q515.07,140.15,515.06,161.2ZM318.24,110q2.08,6.24,3.12,10.4h6.76V110Zm56.16,10.4h7.8l3.12-10.4H374.4Zm10.66,32.5q19,5.2,48.1,6.76a56.18,56.18,0,0,1-.52-6.76Zm48.36-32.5.78-10.4H419.12l-3.9,10.4Zm50.44-9.1q-2.08,12.73-3.12,27v.78a9.8,9.8,0,0,0,1.43,5.2c.95,1.56,1.95,2.34,3,2.34,1.21,0,1.82-1.13,1.82-3.38A118.07,118.07,0,0,0,483.86,111.28Z"/><path class="cls-1" d="M775.06,161.2q0,15.08-3.38,23.66-3.64,8.32-7.8,11t-12,2.73q-25.74,0-42.51-11.83T692.64,152.1q0-13,.26-18.46a68.33,68.33,0,0,0-10.14,13.52v27.56q0,11.44-15.6,19.11T612.3,201.5c-.17-.52-.87-2.51-2.08-6a66.48,66.48,0,0,0-5.46-11.44q-9.36,6.49-25.35,11.57A144.29,144.29,0,0,1,549.9,202a230.6,230.6,0,0,0-11.57-21.71A121.21,121.21,0,0,0,525.2,162q19.5,0,36-1t19.11-3.12h-8.58V152.1a147.34,147.34,0,0,1-18.2,6.76,119.8,119.8,0,0,0-11-18.85A49.2,49.2,0,0,0,526,125.84q32.24-5.72,46.54-15.86H533V73.58h2.34q-7.8-20.8-16.64-31.72a66.57,66.57,0,0,0,20.8-17.29A50.91,50.91,0,0,0,549.9,0l56.94.52-1.82,7H762.84V38H593.58l-1.82,3.9H754.52V69.68h-182l-3.9,3.9,183.56.26L748.28,90a162.92,162.92,0,0,0,20.8,6.76Q775.07,140.15,775.06,161.2ZM618,117.26l16.9-7.28H599.56Zm-16.9,19.24h32.5Q623,129,618,121.68,612.31,128.7,601.12,136.5ZM630,169a4.29,4.29,0,0,0,3-3.12,53.16,53.16,0,0,0,.39-8.06h-6.5A48.25,48.25,0,0,1,620.62,170Q627.39,170,630,169Zm29.9-59q11.18,8.58,33.54,13.78c0-2.25.09-4.77.26-7.54s.35-4.85.52-6.24Zm84,1.3q-2.08,12.73-3.12,27v.78a9.8,9.8,0,0,0,1.43,5.2c1,1.56,2,2.34,3,2.34,1.21,0,1.82-1.13,1.82-3.38A118.07,118.07,0,0,0,743.86,111.28Z"/><path class="cls-1" d="M1088.1,77v48.62h-29.38v29.9q0,19-4.42,28t-19.11,12.87q-14.7,3.9-46.93,3.9-12.22,0-19-.26c.34-4.16.52-7.28.52-9.36q0-17.42-7.54-37.7L933.92,189l-4.68-3.9q-6.76-6.24-13-11.18-21.06,19-53.56,29.9a173.36,173.36,0,0,0-12.48-24.31A176.54,176.54,0,0,0,832,156q26.52-5.72,42.64-14.56-15.87-11.17-30.42-20,8.58-26,12.48-59H840.58V19.76h19.76l1-18.72H911.3L911,7.28q0,4.16-.52,12.48h49.4V6.24H1072l12,41.6A255.42,255.42,0,0,1,1061.32,77ZM905.84,62.4A247.52,247.52,0,0,1,896.48,103l7.8,4.68q6.5-16.64,9.36-45.24Zm68.38,84q15.85,1.81,20,1.82,6.75,0,8.58-2.73t1.82-11.57v-8.32H963.3V77h41.34V62.4h8.84a77.08,77.08,0,0,0,10.4-9.62h-64a375.62,375.62,0,0,1-5.2,44.33,181.07,181.07,0,0,1-10.4,36l17.94,11.7Z"/><path class="cls-1" d="M1347.06,161.2q0,15.08-3.38,23.66-3.65,8.32-7.8,11t-12,2.73q-20.55,0-35.62-7.54t-20.8-22.62q-6,10.4-14.82,28.08-27.83-6.5-46.28-18.46v21.58h-46.28V178.36a148.49,148.49,0,0,1-46,18.2q-5.2-13.26-20-36.66,32.76-1,53.82-7h-50.44v-32.5h22.62l-3.9-10.4H1105V73.58h2.34q-7.8-20.8-16.64-31.72a66.57,66.57,0,0,0,20.8-17.29A51,51,0,0,0,1121.9,0l56.94.52-1.82,7h157.82V38H1165.58l-1.82,3.9h162.76V69.68h-182l-3.9,3.9,183.56.26L1320.28,90a162.4,162.4,0,0,0,20.8,6.76Q1347.05,140.15,1347.06,161.2ZM1150.24,110q2.07,6.24,3.12,10.4h6.76V110Zm56.16,10.4h7.8l3.12-10.4H1206.4Zm10.66,32.5q19,5.2,48.1,6.76a56.18,56.18,0,0,1-.52-6.76Zm48.36-32.5.78-10.4h-15.08l-3.9,10.4Zm50.44-9.1q-2.08,12.73-3.12,27v.78a9.71,9.71,0,0,0,1.43,5.2c.95,1.56,1.95,2.34,3,2.34,1.21,0,1.82-1.13,1.82-3.38A118.07,118.07,0,0,0,1315.86,111.28Z"/><path class="cls-1" d="M1607.06,161.2q0,15.08-3.38,23.66-3.65,8.32-7.8,11t-12,2.73q-25.74,0-42.51-11.83t-16.77-34.71q0-13,.26-18.46a68.33,68.33,0,0,0-10.14,13.52v27.56q0,11.44-15.6,19.11t-54.86,7.67l-2.08-6a68,68,0,0,0-5.46-11.44q-9.36,6.49-25.35,11.57A144.29,144.29,0,0,1,1381.9,202a233,233,0,0,0-11.57-21.71A121.21,121.21,0,0,0,1357.2,162q19.5,0,36-1t19.11-3.12h-8.58V152.1a147.34,147.34,0,0,1-18.2,6.76,120.58,120.58,0,0,0-11-18.85A49.3,49.3,0,0,0,1358,125.84q32.24-5.72,46.54-15.86H1365V73.58h2.34q-7.8-20.8-16.64-31.72a66.57,66.57,0,0,0,20.8-17.29A51,51,0,0,0,1381.9,0l56.94.52-1.82,7h157.82V38H1425.58l-1.82,3.9h162.76V69.68h-182l-3.9,3.9,183.56.26L1580.28,90a162.4,162.4,0,0,0,20.8,6.76Q1607.05,140.15,1607.06,161.2Zm-157-43.94,16.9-7.28h-35.36Zm-16.9,19.24h32.5Q1455,129,1450,121.68,1444.29,128.7,1433.12,136.5ZM1462,169a4.29,4.29,0,0,0,3-3.12,53.16,53.16,0,0,0,.39-8.06h-6.5a48.25,48.25,0,0,1-6.24,12.22Q1459.37,170,1462,169Zm29.9-59q11.17,8.58,33.54,13.78c0-2.25.08-4.77.26-7.54s.34-4.85.52-6.24Zm84,1.3q-2.08,12.73-3.12,27v.78a9.71,9.71,0,0,0,1.43,5.2c.95,1.56,1.95,2.34,3,2.34,1.21,0,1.82-1.13,1.82-3.38A118.07,118.07,0,0,0,1575.86,111.28Z"/><path class="cls-1" d="M1920.1,77v48.62h-29.38v29.9q0,19-4.42,28t-19.11,12.87q-14.7,3.9-46.93,3.9-12.23,0-19-.26c.34-4.16.52-7.28.52-9.36q0-17.42-7.54-37.7L1765.92,189l-4.68-3.9q-6.77-6.24-13-11.18-21.06,19-53.56,29.9a173.36,173.36,0,0,0-12.48-24.31A176.54,176.54,0,0,0,1664,156q26.52-5.72,42.64-14.56-15.87-11.17-30.42-20,8.58-26,12.48-59h-16.12V19.76h19.76l1-18.72h49.92L1743,7.28q0,4.16-.52,12.48h49.4V6.24H1904l12,41.6A255.42,255.42,0,0,1,1893.32,77ZM1737.84,62.4a247.52,247.52,0,0,1-9.36,40.56l7.8,4.68q6.49-16.64,9.36-45.24Zm68.38,84q15.85,1.81,20,1.82,6.75,0,8.58-2.73t1.82-11.57v-8.32H1795.3V77h41.34V62.4h8.84a77.08,77.08,0,0,0,10.4-9.62h-64a375.62,375.62,0,0,1-5.2,44.33,181.07,181.07,0,0,1-10.4,36l17.94,11.7Z"/><path class="cls-1" d="M2179.06,161.2q0,15.08-3.38,23.66-3.64,8.32-7.8,11t-12,2.73q-20.55,0-35.62-7.54t-20.8-22.62q-6,10.4-14.82,28.08-27.82-6.5-46.28-18.46v21.58h-46.28V178.36a148.49,148.49,0,0,1-46,18.2q-5.2-13.26-20-36.66,32.76-1,53.82-7h-50.44v-32.5h22.62l-3.9-10.4H1937V73.58h2.34q-7.8-20.8-16.64-31.72a66.57,66.57,0,0,0,20.8-17.29A51,51,0,0,0,1953.9,0l56.94.52-1.82,7h157.82V38H1997.58l-1.82,3.9h162.76V69.68h-182l-3.9,3.9,183.56.26L2152.28,90a162.4,162.4,0,0,0,20.8,6.76Q2179.05,140.15,2179.06,161.2ZM1982.24,110q2.07,6.24,3.12,10.4h6.76V110Zm56.16,10.4h7.8l3.12-10.4H2038.4Zm10.66,32.5q19,5.2,48.1,6.76a56.18,56.18,0,0,1-.52-6.76Zm48.36-32.5.78-10.4h-15.08l-3.9,10.4Zm50.44-9.1q-2.09,12.73-3.12,27v.78a9.71,9.71,0,0,0,1.43,5.2c.95,1.56,1.95,2.34,3,2.34,1.21,0,1.82-1.13,1.82-3.38A118.07,118.07,0,0,0,2147.86,111.28Z"/><path class="cls-1" d="M2439.06,161.2q0,15.08-3.38,23.66-3.64,8.32-7.8,11t-12,2.73q-25.74,0-42.51-11.83t-16.77-34.71q0-13,.26-18.46a68.33,68.33,0,0,0-10.14,13.52v27.56q0,11.44-15.6,19.11t-54.86,7.67l-2.08-6a68,68,0,0,0-5.46-11.44q-9.36,6.49-25.35,11.57A144.29,144.29,0,0,1,2213.9,202a233,233,0,0,0-11.57-21.71A121.21,121.21,0,0,0,2189.2,162q19.5,0,36-1t19.11-3.12h-8.58V152.1a147.34,147.34,0,0,1-18.2,6.76A120.58,120.58,0,0,0,2206.49,140,49.3,49.3,0,0,0,2190,125.84q32.23-5.72,46.54-15.86H2197V73.58h2.34q-7.8-20.8-16.64-31.72a66.57,66.57,0,0,0,20.8-17.29A51,51,0,0,0,2213.9,0l56.94.52-1.82,7h157.82V38H2257.58l-1.82,3.9h162.76V69.68h-182l-3.9,3.9,183.56.26L2412.28,90a162.4,162.4,0,0,0,20.8,6.76Q2439.05,140.15,2439.06,161.2Zm-157-43.94,16.9-7.28h-35.36Zm-16.9,19.24h32.5Q2287,129,2282,121.68,2276.29,128.7,2265.12,136.5ZM2294,169a4.29,4.29,0,0,0,3-3.12,53.16,53.16,0,0,0,.39-8.06h-6.5a48.25,48.25,0,0,1-6.24,12.22Q2291.37,170,2294,169Zm29.9-59q11.17,8.58,33.54,13.78c0-2.25.08-4.77.26-7.54s.34-4.85.52-6.24Zm84,1.3q-2.09,12.73-3.12,27v.78a9.71,9.71,0,0,0,1.43,5.2c.95,1.56,1.95,2.34,3,2.34,1.21,0,1.82-1.13,1.82-3.38A118.07,118.07,0,0,0,2407.86,111.28Z"/><path class="cls-1" d="M2752.1,77v48.62h-29.38v29.9q0,19-4.42,28t-19.11,12.87q-14.7,3.9-46.93,3.9-12.23,0-19-.26c.34-4.16.52-7.28.52-9.36q0-17.42-7.54-37.7L2597.92,189l-4.68-3.9q-6.76-6.24-13-11.18-21.06,19-53.56,29.9a173.36,173.36,0,0,0-12.48-24.31A176.54,176.54,0,0,0,2496,156q26.52-5.72,42.64-14.56-15.87-11.17-30.42-20,8.58-26,12.48-59h-16.12V19.76h19.76l1-18.72h49.92L2575,7.28q0,4.16-.52,12.48h49.4V6.24H2736l12,41.6A255.42,255.42,0,0,1,2725.32,77ZM2569.84,62.4a247.52,247.52,0,0,1-9.36,40.56l7.8,4.68q6.49-16.64,9.36-45.24Zm68.38,84q15.86,1.81,20,1.82,6.75,0,8.58-2.73t1.82-11.57v-8.32H2627.3V77h41.34V62.4h8.84a77.08,77.08,0,0,0,10.4-9.62h-64a375.62,375.62,0,0,1-5.2,44.33,181.07,181.07,0,0,1-10.4,36l17.94,11.7Z"/><path class="cls-1" d="M3011.06,161.2q0,15.08-3.38,23.66-3.64,8.32-7.8,11t-12,2.73q-20.55,0-35.62-7.54t-20.8-22.62q-6,10.4-14.82,28.08-27.82-6.5-46.28-18.46v21.58h-46.28V178.36a148.49,148.49,0,0,1-46,18.2q-5.2-13.26-20-36.66,32.76-1,53.82-7h-50.44v-32.5h22.62l-3.9-10.4H2769V73.58h2.34q-7.8-20.8-16.64-31.72a66.57,66.57,0,0,0,20.8-17.29A51,51,0,0,0,2785.9,0l56.94.52-1.82,7h157.82V38H2829.58l-1.82,3.9h162.76V69.68h-182l-3.9,3.9,183.56.26L2984.28,90a162.4,162.4,0,0,0,20.8,6.76Q3011.05,140.15,3011.06,161.2ZM2814.24,110q2.07,6.24,3.12,10.4h6.76V110Zm56.16,10.4h7.8l3.12-10.4H2870.4Zm10.66,32.5q19,5.2,48.1,6.76a56.18,56.18,0,0,1-.52-6.76Zm48.36-32.5.78-10.4h-15.08l-3.9,10.4Zm50.44-9.1q-2.09,12.73-3.12,27v.78a9.71,9.71,0,0,0,1.43,5.2c.95,1.56,1.95,2.34,3,2.34,1.21,0,1.82-1.13,1.82-3.38A118.07,118.07,0,0,0,2979.86,111.28Z"/><path class="cls-1" d="M3271.06,161.2q0,15.08-3.38,23.66-3.64,8.32-7.8,11t-12,2.73q-25.74,0-42.51-11.83t-16.77-34.71q0-13,.26-18.46a68.33,68.33,0,0,0-10.14,13.52v27.56q0,11.44-15.6,19.11t-54.86,7.67l-2.08-6a68,68,0,0,0-5.46-11.44q-9.36,6.49-25.35,11.57A144.29,144.29,0,0,1,3045.9,202a233,233,0,0,0-11.57-21.71A121.21,121.21,0,0,0,3021.2,162q19.5,0,36-1t19.11-3.12h-8.58V152.1a147.34,147.34,0,0,1-18.2,6.76A120.58,120.58,0,0,0,3038.49,140,49.3,49.3,0,0,0,3022,125.84q32.23-5.72,46.54-15.86H3029V73.58h2.34q-7.8-20.8-16.64-31.72a66.57,66.57,0,0,0,20.8-17.29A51,51,0,0,0,3045.9,0l56.94.52-1.82,7h157.82V38H3089.58l-1.82,3.9h162.76V69.68h-182l-3.9,3.9,183.56.26L3244.28,90a162.4,162.4,0,0,0,20.8,6.76Q3271.05,140.15,3271.06,161.2Zm-157-43.94,16.9-7.28h-35.36Zm-16.9,19.24h32.5Q3119,129,3114,121.68,3108.29,128.7,3097.12,136.5ZM3126,169a4.29,4.29,0,0,0,3-3.12,53.16,53.16,0,0,0,.39-8.06h-6.5a48.25,48.25,0,0,1-6.24,12.22Q3123.37,170,3126,169Zm29.9-59q11.17,8.58,33.54,13.78c0-2.25.08-4.77.26-7.54s.34-4.85.52-6.24Zm84,1.3q-2.09,12.73-3.12,27v.78a9.71,9.71,0,0,0,1.43,5.2c.95,1.56,1.95,2.34,3,2.34,1.21,0,1.82-1.13,1.82-3.38A118.07,118.07,0,0,0,3239.86,111.28Z"/><path class="cls-1" d="M3584.1,77v48.62h-29.38v29.9q0,19-4.42,28t-19.11,12.87q-14.7,3.9-46.93,3.9-12.23,0-19-.26c.34-4.16.52-7.28.52-9.36q0-17.42-7.54-37.7L3429.92,189l-4.68-3.9q-6.76-6.24-13-11.18-21.06,19-53.56,29.9a173.36,173.36,0,0,0-12.48-24.31A176.54,176.54,0,0,0,3328,156q26.52-5.72,42.64-14.56-15.87-11.17-30.42-20,8.58-26,12.48-59h-16.12V19.76h19.76l1-18.72h49.92L3407,7.28q0,4.16-.52,12.48h49.4V6.24H3568l12,41.6A255.42,255.42,0,0,1,3557.32,77ZM3401.84,62.4a247.52,247.52,0,0,1-9.36,40.56l7.8,4.68q6.49-16.64,9.36-45.24Zm68.38,84q15.86,1.81,20,1.82,6.75,0,8.58-2.73t1.82-11.57v-8.32H3459.3V77h41.34V62.4h8.84a77.08,77.08,0,0,0,10.4-9.62h-64a375.62,375.62,0,0,1-5.2,44.33,181.07,181.07,0,0,1-10.4,36l17.94,11.7Z"/><path class="cls-1" d="M3843.06,161.2q0,15.08-3.38,23.66-3.64,8.32-7.8,11t-12,2.73q-20.55,0-35.62-7.54t-20.8-22.62q-6,10.4-14.82,28.08-27.82-6.5-46.28-18.46v21.58h-46.28V178.36a148.49,148.49,0,0,1-46,18.2q-5.2-13.26-20-36.66,32.76-1,53.82-7h-50.44v-32.5h22.62l-3.9-10.4H3601V73.58h2.34q-7.8-20.8-16.64-31.72a66.57,66.57,0,0,0,20.8-17.29A51,51,0,0,0,3617.9,0l56.94.52-1.82,7h157.82V38H3661.58l-1.82,3.9h162.76V69.68h-182l-3.9,3.9,183.56.26L3816.28,90a162.4,162.4,0,0,0,20.8,6.76Q3843.05,140.15,3843.06,161.2ZM3646.24,110q2.07,6.24,3.12,10.4h6.76V110Zm56.16,10.4h7.8l3.12-10.4H3702.4Zm10.66,32.5q19,5.2,48.1,6.76a56.18,56.18,0,0,1-.52-6.76Zm48.36-32.5.78-10.4h-15.08l-3.9,10.4Zm50.44-9.1q-2.09,12.73-3.12,27v.78a9.71,9.71,0,0,0,1.43,5.2c.95,1.56,1.95,2.34,3,2.34,1.21,0,1.82-1.13,1.82-3.38A118.07,118.07,0,0,0,3811.86,111.28Z"/><path class="cls-1" d="M4103.06,161.2q0,15.08-3.38,23.66-3.65,8.32-7.8,11t-12,2.73q-25.74,0-42.51-11.83t-16.77-34.71q0-13,.26-18.46a68.33,68.33,0,0,0-10.14,13.52v27.56q0,11.44-15.6,19.11t-54.86,7.67l-2.08-6a68,68,0,0,0-5.46-11.44q-9.36,6.49-25.35,11.57A144.29,144.29,0,0,1,3877.9,202a233,233,0,0,0-11.57-21.71A121.21,121.21,0,0,0,3853.2,162q19.5,0,36-1t19.11-3.12h-8.58V152.1a147.34,147.34,0,0,1-18.2,6.76A120.58,120.58,0,0,0,3870.49,140,49.3,49.3,0,0,0,3854,125.84q32.23-5.72,46.54-15.86H3861V73.58h2.34q-7.8-20.8-16.64-31.72a66.57,66.57,0,0,0,20.8-17.29A51,51,0,0,0,3877.9,0l56.94.52-1.82,7h157.82V38H3921.58l-1.82,3.9h162.76V69.68h-182l-3.9,3.9,183.56.26L4076.28,90a162.4,162.4,0,0,0,20.8,6.76Q4103.05,140.15,4103.06,161.2Zm-157-43.94,16.9-7.28h-35.36Zm-16.9,19.24h32.5Q3951,129,3946,121.68,3940.29,128.7,3929.12,136.5ZM3958,169a4.29,4.29,0,0,0,3-3.12,53.16,53.16,0,0,0,.39-8.06h-6.5a48.25,48.25,0,0,1-6.24,12.22Q3955.37,170,3958,169Zm29.9-59q11.17,8.58,33.54,13.78c0-2.25.08-4.77.26-7.54s.34-4.85.52-6.24Zm84,1.3q-2.09,12.73-3.12,27v.78a9.71,9.71,0,0,0,1.43,5.2c.95,1.56,1.95,2.34,3,2.34,1.21,0,1.82-1.13,1.82-3.38A118.07,118.07,0,0,0,4071.86,111.28Z"/><path class="cls-1" d="M4416.1,77v48.62h-29.38v29.9q0,19-4.42,28t-19.11,12.87q-14.7,3.9-46.93,3.9-12.23,0-19-.26c.34-4.16.52-7.28.52-9.36q0-17.42-7.54-37.7L4261.92,189l-4.68-3.9q-6.77-6.24-13-11.18-21.06,19-53.56,29.9a173.36,173.36,0,0,0-12.48-24.31A176.54,176.54,0,0,0,4160,156q26.52-5.72,42.64-14.56-15.87-11.17-30.42-20,8.58-26,12.48-59h-16.12V19.76h19.76l1-18.72h49.92L4239,7.28q0,4.16-.52,12.48h49.4V6.24H4400l12,41.6A255.42,255.42,0,0,1,4389.32,77ZM4233.84,62.4a247.52,247.52,0,0,1-9.36,40.56l7.8,4.68q6.49-16.64,9.36-45.24Zm68.38,84q15.85,1.81,20,1.82,6.75,0,8.58-2.73t1.82-11.57v-8.32H4291.3V77h41.34V62.4h8.84a77.08,77.08,0,0,0,10.4-9.62h-64a375.62,375.62,0,0,1-5.2,44.33,181.07,181.07,0,0,1-10.4,36l17.94,11.7Z"/><path class="cls-1" d="M4675.06,161.2q0,15.08-3.38,23.66-3.65,8.32-7.8,11t-12,2.73q-20.55,0-35.62-7.54t-20.8-22.62q-6,10.4-14.82,28.08-27.83-6.5-46.28-18.46v21.58h-46.28V178.36a148.49,148.49,0,0,1-46,18.2q-5.2-13.26-20-36.66,32.76-1,53.82-7h-50.44v-32.5h22.62l-3.9-10.4H4433V73.58h2.34q-7.8-20.8-16.64-31.72a66.57,66.57,0,0,0,20.8-17.29A51,51,0,0,0,4449.9,0l56.94.52-1.82,7h157.82V38H4493.58l-1.82,3.9h162.76V69.68h-182l-3.9,3.9,183.56.26L4648.28,90a162.4,162.4,0,0,0,20.8,6.76Q4675.05,140.15,4675.06,161.2ZM4478.24,110q2.07,6.24,3.12,10.4h6.76V110Zm56.16,10.4h7.8l3.12-10.4H4534.4Zm10.66,32.5q19,5.2,48.1,6.76a56.18,56.18,0,0,1-.52-6.76Zm48.36-32.5.78-10.4h-15.08l-3.9,10.4Zm50.44-9.1q-2.08,12.73-3.12,27v.78a9.71,9.71,0,0,0,1.43,5.2c.95,1.56,1.95,2.34,3,2.34,1.21,0,1.82-1.13,1.82-3.38A118.07,118.07,0,0,0,4643.86,111.28Z"/><path class="cls-1" d="M4935.06,161.2q0,15.08-3.38,23.66-3.65,8.32-7.8,11t-12,2.73q-25.74,0-42.51-11.83t-16.77-34.71q0-13,.26-18.46a68.33,68.33,0,0,0-10.14,13.52v27.56q0,11.44-15.6,19.11t-54.86,7.67l-2.08-6a68,68,0,0,0-5.46-11.44q-9.36,6.49-25.35,11.57A144.29,144.29,0,0,1,4709.9,202a233,233,0,0,0-11.57-21.71A121.21,121.21,0,0,0,4685.2,162q19.5,0,36-1t19.11-3.12h-8.58V152.1a147.34,147.34,0,0,1-18.2,6.76A120.58,120.58,0,0,0,4702.49,140,49.3,49.3,0,0,0,4686,125.84q32.24-5.72,46.54-15.86H4693V73.58h2.34q-7.8-20.8-16.64-31.72a66.57,66.57,0,0,0,20.8-17.29A51,51,0,0,0,4709.9,0l56.94.52-1.82,7h157.82V38H4753.58l-1.82,3.9h162.76V69.68h-182l-3.9,3.9,183.56.26L4908.28,90a162.4,162.4,0,0,0,20.8,6.76Q4935.05,140.15,4935.06,161.2Zm-157-43.94,16.9-7.28h-35.36Zm-16.9,19.24h32.5Q4783,129,4778,121.68,4772.29,128.7,4761.12,136.5ZM4790,169a4.29,4.29,0,0,0,3-3.12,53.16,53.16,0,0,0,.39-8.06h-6.5a48.25,48.25,0,0,1-6.24,12.22Q4787.37,170,4790,169Zm29.9-59q11.18,8.58,33.54,13.78c0-2.25.08-4.77.26-7.54s.34-4.85.52-6.24Zm84,1.3q-2.08,12.73-3.12,27v.78a9.71,9.71,0,0,0,1.43,5.2c.95,1.56,1.95,2.34,3,2.34,1.21,0,1.82-1.13,1.82-3.38A118.07,118.07,0,0,0,4903.86,111.28Z"/><path class="cls-1" d="M5248.09,77v48.62h-29.37v29.9q0,19-4.43,28t-19.11,12.87q-14.68,3.9-46.93,3.9-12.21,0-19-.26.52-6.24.52-9.36,0-17.42-7.54-37.7L5093.91,189l-4.68-3.9q-6.76-6.24-13-11.18-21.06,19-53.55,29.9a172.31,172.31,0,0,0-12.49-24.31A175.71,175.71,0,0,0,4992,156q26.54-5.72,42.65-14.56-15.87-11.17-30.42-20,8.56-26,12.47-59h-16.12V19.76h19.76l1-18.72h49.92L5071,7.28q0,4.16-.52,12.48h49.4V6.24H5232l12,41.6A255.42,255.42,0,0,1,5221.31,77ZM5065.83,62.4a246.49,246.49,0,0,1-9.36,40.56l7.8,4.68q6.51-16.64,9.37-45.24Zm68.39,84q15.85,1.81,20,1.82,6.77,0,8.58-2.73t1.83-11.57v-8.32h-41.35V77h41.35V62.4h8.83a76.48,76.48,0,0,0,10.4-9.62h-64a375.75,375.75,0,0,1-5.19,44.33,180.41,180.41,0,0,1-10.41,36l17.94,11.7Z"/><path class="cls-1" d="M5507.05,161.2q0,15.08-3.37,23.66-3.65,8.32-7.81,11t-12,2.73q-20.53,0-35.62-7.54t-20.8-22.62q-6,10.4-14.81,28.08-27.83-6.5-46.29-18.46v21.58h-46.28V178.36a148.49,148.49,0,0,1-46,18.2q-5.19-13.26-20-36.66,32.76-1,53.82-7h-50.44v-32.5h22.62l-3.89-10.4H5265V73.58h2.34q-7.78-20.8-16.64-31.72a66.46,66.46,0,0,0,20.8-17.29A50.81,50.81,0,0,0,5281.89,0l56.94.52-1.82,7h157.82V38H5325.57l-1.82,3.9h162.76V69.68h-182l-3.9,3.9,183.57.26L5480.27,90a163.44,163.44,0,0,0,20.8,6.76Q5507.06,140.15,5507.05,161.2ZM5310.23,110q2.09,6.24,3.12,10.4h6.76V110Zm56.16,10.4h7.8l3.12-10.4h-10.92Zm10.66,32.5q19,5.2,48.1,6.76a55.85,55.85,0,0,1-.51-6.76Zm48.36-32.5.78-10.4h-15.08l-3.89,10.4Zm50.44-9.1q-2.07,12.73-3.12,27v.78a9.8,9.8,0,0,0,1.43,5.2c1,1.56,1.95,2.34,3,2.34,1.22,0,1.82-1.13,1.82-3.38A118.07,118.07,0,0,0,5475.85,111.28Z"/><path class="cls-1" d="M5767.05,161.2q0,15.08-3.37,23.66-3.65,8.32-7.81,11t-12,2.73q-25.74,0-42.51-11.83t-16.76-34.71q0-13,.25-18.46a69.11,69.11,0,0,0-10.14,13.52v27.56q0,11.44-15.6,19.11t-54.86,7.67q-.26-.78-2.07-6a67.35,67.35,0,0,0-5.47-11.44q-9.36,6.49-25.35,11.57a144.15,144.15,0,0,1-29.51,6.37,230.6,230.6,0,0,0-11.57-21.71A120.51,120.51,0,0,0,5517.19,162q19.5,0,36-1t19.11-3.12h-8.58V152.1a146.75,146.75,0,0,1-18.2,6.76A119.8,119.8,0,0,0,5534.48,140,49.1,49.1,0,0,0,5518,125.84q32.25-5.72,46.54-15.86H5525V73.58h2.34q-7.78-20.8-16.64-31.72a66.46,66.46,0,0,0,20.8-17.29A50.81,50.81,0,0,0,5541.89,0l56.94.52-1.82,7h157.82V38H5585.57l-1.82,3.9h162.76V69.68h-182l-3.9,3.9,183.57.26L5740.27,90a163.44,163.44,0,0,0,20.8,6.76Q5767.06,140.15,5767.05,161.2Zm-157-43.94,16.9-7.28h-35.36Zm-16.9,19.24h32.5Q5615,129,5610,121.68,5604.3,128.7,5593.11,136.5ZM5622,169a4.3,4.3,0,0,0,3-3.12,55,55,0,0,0,.38-8.06h-6.5a47.61,47.61,0,0,1-6.24,12.22Q5619.38,170,5622,169Zm29.9-59q11.19,8.58,33.54,13.78c0-2.25.09-4.77.27-7.54s.34-4.85.51-6.24Zm84,1.3q-2.07,12.73-3.12,27v.78a9.8,9.8,0,0,0,1.43,5.2c1,1.56,1.95,2.34,3,2.34,1.22,0,1.82-1.13,1.82-3.38A118.07,118.07,0,0,0,5735.85,111.28Z"/><path class="cls-1" d="M6080.09,77v48.62h-29.37v29.9q0,19-4.43,28t-19.11,12.87q-14.68,3.9-46.93,3.9-12.21,0-19-.26.52-6.24.52-9.36,0-17.42-7.54-37.7L5925.91,189l-4.68-3.9q-6.76-6.24-13-11.18-21.06,19-53.55,29.9a172.31,172.31,0,0,0-12.49-24.31A175.71,175.71,0,0,0,5824,156q26.54-5.72,42.65-14.56-15.87-11.17-30.42-20,8.56-26,12.47-59h-16.12V19.76h19.76l1-18.72h49.92L5903,7.28q0,4.16-.52,12.48h49.4V6.24H6064l12,41.6A255.42,255.42,0,0,1,6053.31,77ZM5897.83,62.4a246.49,246.49,0,0,1-9.36,40.56l7.8,4.68q6.51-16.64,9.37-45.24Zm68.39,84q15.85,1.81,20,1.82,6.77,0,8.58-2.73t1.83-11.57v-8.32h-41.35V77h41.35V62.4h8.83a76.48,76.48,0,0,0,10.4-9.62h-64a375.75,375.75,0,0,1-5.19,44.33,180.41,180.41,0,0,1-10.41,36l17.94,11.7Z"/><path class="cls-1" d="M6339.05,161.2q0,15.08-3.37,23.66-3.65,8.32-7.81,11t-12,2.73q-20.53,0-35.62-7.54t-20.8-22.62q-6,10.4-14.81,28.08-27.83-6.5-46.29-18.46v21.58h-46.28V178.36a148.49,148.49,0,0,1-46,18.2q-5.19-13.26-20-36.66,32.76-1,53.82-7h-50.44v-32.5h22.62l-3.89-10.4H6097V73.58h2.34q-7.78-20.8-16.64-31.72a66.46,66.46,0,0,0,20.8-17.29A50.81,50.81,0,0,0,6113.89,0l56.94.52-1.82,7h157.82V38H6157.57l-1.82,3.9h162.76V69.68h-182l-3.9,3.9,183.57.26L6312.27,90a163.44,163.44,0,0,0,20.8,6.76Q6339.06,140.15,6339.05,161.2ZM6142.23,110q2.09,6.24,3.12,10.4h6.76V110Zm56.16,10.4h7.8l3.12-10.4h-10.92Zm10.66,32.5q19,5.2,48.1,6.76a55.85,55.85,0,0,1-.51-6.76Zm48.36-32.5.78-10.4h-15.08l-3.89,10.4Zm50.44-9.1q-2.07,12.73-3.12,27v.78a9.8,9.8,0,0,0,1.43,5.2c1,1.56,1.95,2.34,3,2.34,1.22,0,1.82-1.13,1.82-3.38A118.07,118.07,0,0,0,6307.85,111.28Z"/><path class="cls-1" d="M6599.05,161.2q0,15.08-3.37,23.66-3.65,8.32-7.81,11t-12,2.73q-25.74,0-42.51-11.83t-16.76-34.71q0-13,.25-18.46a69.11,69.11,0,0,0-10.14,13.52v27.56q0,11.44-15.6,19.11t-54.86,7.67q-.26-.78-2.07-6a67.35,67.35,0,0,0-5.47-11.44q-9.36,6.49-25.35,11.57a144.15,144.15,0,0,1-29.51,6.37,230.6,230.6,0,0,0-11.57-21.71A120.51,120.51,0,0,0,6349.19,162q19.5,0,36-1t19.11-3.12h-8.58V152.1a146.75,146.75,0,0,1-18.2,6.76A119.8,119.8,0,0,0,6366.48,140,49.1,49.1,0,0,0,6350,125.84q32.25-5.72,46.54-15.86H6357V73.58h2.34q-7.78-20.8-16.64-31.72a66.46,66.46,0,0,0,20.8-17.29A50.81,50.81,0,0,0,6373.89,0l56.94.52-1.82,7h157.82V38H6417.57l-1.82,3.9h162.76V69.68h-182l-3.9,3.9,183.57.26L6572.27,90a163.44,163.44,0,0,0,20.8,6.76Q6599.06,140.15,6599.05,161.2Zm-157-43.94,16.9-7.28h-35.36Zm-16.9,19.24h32.5Q6447,129,6442,121.68,6436.3,128.7,6425.11,136.5ZM6454,169a4.3,4.3,0,0,0,3-3.12,55,55,0,0,0,.38-8.06h-6.5a47.61,47.61,0,0,1-6.24,12.22Q6451.38,170,6454,169Zm29.9-59q11.19,8.58,33.54,13.78c0-2.25.09-4.77.27-7.54s.34-4.85.51-6.24Zm84,1.3q-2.07,12.73-3.12,27v.78a9.8,9.8,0,0,0,1.43,5.2c1,1.56,1.95,2.34,3,2.34,1.22,0,1.82-1.13,1.82-3.38A118.07,118.07,0,0,0,6567.85,111.28Z"/></svg>