<svg id="圖層_1" data-name="圖層 1" xmlns="http://www.w3.org/2000/svg" viewBox="0 0 408.63 306.47"><defs><style>.cls-1{fill:#fff;}</style></defs><path class="cls-1" d="M221.61,100.68c.69.36,1.43.75,2.23,1.15V81.93c1.52-.62,3-1.19,4.5-1.79-1-.45-1.87-.89-2.82-1.36l-.75.3c-1.05.42-2.09.82-3.16,1.26Z"/><path class="cls-1" d="M186.13,80.34v20.38c.66.31,1.42.63,2.22,1V82c1.48-.71,3-1.43,4.44-2.12l-3.15-1.23-.28.11c-1.06.53-2.16,1-3.23,1.56"/><path class="cls-1" d="M195.52,111.12c-7.94,4.56-11.75,8-12.9,9.08a29.23,29.23,0,0,1,2.7,1.66s3.61-3.91,13.54-9.57Z"/><path class="cls-1" d="M223.84,51.77c-.73-.72-1.48-1.43-2.23-2.17V74c.75.35,1.5.7,2.23,1.07Z"/><path class="cls-1" d="M220.79,121.48s4.78-4.78,18.26-10.63c-1.26-.32-2.42-.68-3.57-1-10.53,4.58-15.6,8.51-17.21,9.9a28.73,28.73,0,0,1,2.52,1.78"/><path class="cls-1" d="M201.38,49.41l-.07-.1c-4.31,4-8.62,8.13-13,12.31v-.14c-.73.72-1.49,1.4-2.22,2.14V74c.73.27,1.49.57,2.22.87V65.69c4.34-4.19,8.7-8.29,13-12.37Z"/><path class="cls-1" d="M188.35,18.24a62.91,62.91,0,0,1,1.46-13.43c-1,.89-2,1.82-3.16,2.74a62.72,62.72,0,0,0-.52,7.85V53.74c.74-.73,1.48-1.41,2.22-2.13Z"/><path class="cls-1" d="M89.89,51.35l-.93,1L87.53,52A60.41,60.41,0,0,0,75.47,50.2c-.78.69-1.6,1.34-2.43,1.94A63,63,0,0,1,91.7,54c3.68-3.8,7.39-7.57,11.1-11.27L99.12,42q-4.64,4.66-9.23,9.38"/><path class="cls-1" d="M92,116c.69.17,1.43.32,2.23.48V97.65c1.47-1,2.91-2.07,4.36-3.09-1.3-.26-2.61-.5-3.91-.72-.9.63-1.78,1.27-2.68,1.91Z"/><path class="cls-1" d="M88.72,136.31a2.11,2.11,0,0,1-.63.55,20.87,20.87,0,0,1,3.18,1.27c0,.05,4.1-5.53,15.66-14.51l-3.48-1c-8.94,7-13.22,11.84-14.73,13.69"/><path class="cls-1" d="M99.8,61.55c-2.51,2.51-5.09,5.11-7.82,7.91V89.28c.76.13,1.49.28,2.23.42V71.59c3.17-3.26,6.37-6.49,9.54-9.69,0,0-1.55-.1-4-.35"/><path class="cls-1" d="M100,162.3a134.87,134.87,0,0,0-25.87.46c-.33.49-.65,1-1,1.5l-.38.58,1.45,3.59c1-1.56,2-3.09,3-4.65A147.69,147.69,0,0,1,100,162.3"/><path class="cls-1" d="M149.89,143.72c.91-.35,1.76-.65,2.59-.93a45,45,0,0,1,7.25-2V93.42c1.5-.81,3-1.64,4.51-2.44l-3.42-1.12-3.12,1.69-.21.12v47.75l-2.82.65c-4.22,1-23.27,6.07-36.54,23.29l-.78,1c.31.09.62.16.94.24l2.38.64.07-.12a67.92,67.92,0,0,1,29.15-21.38"/><path class="cls-1" d="M137.42,120v-3.59A76.42,76.42,0,0,0,125,127a1.44,1.44,0,0,1-.33.32,19.89,19.89,0,0,1,2.93,1.44,68.56,68.56,0,0,1,9.79-8.74"/><path class="cls-1" d="M130.64,66.57l6.78-7.48V55c-2.25,2.49-4.5,5-6.78,7.48-.76.82-1.48,1.67-2.22,2.48V80.3l2.22.59Z"/><path class="cls-1" d="M159.73,82.26V54.16l-2.22-1.85v33c.73.23,1.48.49,2.22.73Z"/><path class="cls-1" d="M390.81,110.34a49.51,49.51,0,0,1-1.23,9.07,54.66,54.66,0,0,1-6.48,24.68l-.47,1.21-1.6,0c-8-.12-17.63,2.76-21.68,4.09.52.57,1,1.15,1.54,1.76,0,0,13.51-5.11,24.61-4.94a53.87,53.87,0,0,0,5.31-35.84"/><path class="cls-1" d="M369.7,85.34l-.64-.93c-2.43,1.39-4.95,2.87-7.55,4.39v21.89l2.25,1.93v-22c2-1.18,3.95-2.34,5.94-3.48Z"/><path class="cls-1" d="M385.93,102.82v0c-2.89,1.89-5.81,3.83-8.72,5.76l-.83.54v3.36l7.77-5.11,3.91-2.57,2.75-1.82v-8.7c-.73-1.15-1.5-2.26-2.24-3.39V101.1l-.92.6-.18.1h0Z"/><path class="cls-1" d="M361.51,117.22v14.2q1.11-.15,2.25-.24V118.27L368,118c-.43-.38-.84-.73-1.25-1.07l-3.06.17-2.13.12"/><path class="cls-1" d="M37.23,76.82c-5.69,8.05-11.31,16.23-16.78,24.4v40c.67,0,1.43,0,2.23,0V103.54Q29.89,92.79,37.23,82.3Z"/><path class="cls-1" d="M53.28,146.83l-.7.9a15.1,15.1,0,0,1,3.18,1c0,.06,3.7-5.47,14.06-14.78l-4.23-.26a97,97,0,0,0-12.31,13.13"/><path class="cls-1" d="M56.39,71v55.19c.69.11,1.45.21,2.26.28V73.05q2.06-1.76,4.19-3.46c-1.4-.16-2.81-.28-4.19-.42L56.39,71"/><path class="cls-1" d="M31.15,146a141.43,141.43,0,0,0-11.63,13.28l-2.88,4.14a13.56,13.56,0,0,1,3.27.76s4-6.62,15.57-18.18H31.15Z"/><path class="cls-1" d="M58.65,64.77v-48A74.6,74.6,0,0,1,60,2.87c-1,1.29-2.07,2.65-3.2,4a65.37,65.37,0,0,0-.41,7V64.55l2.26.22Z"/><path class="cls-1" d="M22.68,31.94a80.19,80.19,0,0,1,1.32-14c-1,1.43-2.07,2.93-3.23,4.46-.22,2.29-.32,4.52-.32,6.71V81.31c.74-1.09,1.49-2.16,2.23-3.24Z"/><path class="cls-1" d="M353.38,153.52,351,153c-1.5-.41-15.48-2.25-26.41,2.77a22.54,22.54,0,0,0-12.42,13.32l-.18.49c.83.58,1.67,1.17,2.5,1.79,6.7-19.06,30.46-18.77,38.85-17.82"/><path class="cls-1" d="M234.11,143c-.2-.2-.41-.41-.63-.6l-.77-.73a42.13,42.13,0,0,0-23.25,10.26,34.25,34.25,0,0,0-3.48,8.44c-.19,1,7.6-13.64,28.13-17.37"/><path class="cls-1" d="M276.46,69.22c.76.48,1.5.92,2.24,1.36V24.05c3.24-1.88,6.48-3.7,9.7-5.5,0,0-1.07-.52-2.8-1.45l-.47.29c-2.89,1.57-5.77,3.21-8.67,4.87Z"/><path class="cls-1" d="M276.46,75.62v56.11c.76.18,1.5.37,2.24.56V77c1.48-.39,3-.81,4.44-1.18-.75-.47-1.52-.93-2.26-1.4l-1.58.41c-.92.26-1.88.52-2.84.77"/><path class="cls-1" d="M242,141.28l-.86,4.17,2.34,2.22c.36-1.85.74-3.7,1.12-5.55a65.05,65.05,0,0,1,9.67.82A73.82,73.82,0,0,0,242,141.28"/><path class="cls-1" d="M128.42,86.7V107c.66.22,1.42.43,2.22.66V88.53c1.49-.9,3-1.83,4.43-2.74l-3.62-1c-1,.61-2,1.25-3,1.86"/><path class="cls-1" d="M337.73,71.88c-.74-1-1.49-1.95-2.24-2.9V88.65c.75.57,1.5,1.16,2.24,1.74Z"/><path class="cls-1" d="M308.32,121.7V103.8c1.46-.31,2.92-.62,4.36-.89-.64-.47-1.29-.89-1.94-1.35l-2,.41-2.65.55v19.77c.19.22.33.42.51.63l1.74-1.22"/><path class="cls-1" d="M335.49,94.87v17.66l-.92.6c-2.25,1.44-4.49,2.91-6.76,4.41L324.15,120c-1.16.76-2.35,1.56-3.49,2.35-4.06,2.72-7.81,5.3-11.51,7.87-2,1.4-4,2.83-6.09,4.26l1.85,2.2c2.44-1.75,4.88-3.45,7.32-5.15,3.85-2.68,7.7-5.31,11.51-7.88,1.48-1,3-2,4.46-3l2.72-1.83c2.28-1.5,4.55-3,6.81-4.43V96c1.32-.18,2.67-.36,4-.52l-1.57-1.21-2.58.3c-.7.08-1.39.17-2.09.27"/><path class="cls-1" d="M308.32,72.83c2.54-1.77,5.06-3.54,7.61-5.29V65.13l-.54-.66c-3,2-6.08,4.18-9.32,6.47V96.05l2.25,1.56Z"/><path class="cls-1" d="M288.66,174.38l-.43-.5c-4.77,3.56-9.66,7.25-14.56,11v10.52l2.24,1.34v-9.92q6.4-4.94,12.75-9.68Z"/><path class="cls-1" d="M273.69,201.77v20.35c.66.45,1.42.94,2.22,1.43V203.21c1.47-.44,2.93-.84,4.4-1.25-.78-.44-1.55-.92-2.34-1.38l-1.47.41-2.81.78"/><path class="cls-1" d="M307.78,249.09s3.29-2.68,12-5.42l-2.21-1.48a48.12,48.12,0,0,0-11.91,4.93c.71.63,1.4,1.28,2.09,2"/><path class="cls-1" d="M308.51,208.84v20.24c.68.52,1.42,1.1,2.24,1.66v-20.6c1.46-.32,2.91-.62,4.37-.9-.64-.45-1.28-.89-1.93-1.32l-2.05.38-2.63.54"/><path class="cls-1" d="M274.27,165.79a60.51,60.51,0,0,0-.58,8.23v1.6l2.3-1.75a58.86,58.86,0,0,1,1.37-10.17c-.95.71-2,1.41-3.09,2.09"/><path class="cls-1" d="M308.51,202.39c.76.53,1.49,1,2.24,1.54V180l-2.24-2.71Z"/><path class="cls-1" d="M272.9,242.45s3.34-3,12.25-6.47l-2.7-1.4a53.33,53.33,0,0,0-11.84,5.95c.78.61,1.56,1.24,2.29,1.92"/><path class="cls-1" d="M306.29,230v-22.7c1.46-.3,2.92-.62,4.38-.9l-4.38-3V177.13c-4-4.85-8-9.63-12-14.36-2.45,1.78-4.92,3.59-7.38,5.41a3.5,3.5,0,0,1-.46.35h0c-5,3.7-10,7.53-15,11.4V174a60,60,0,0,1,1.44-13.17c-5.54,4.15-14.45,8.33-18.64,9.13a8.53,8.53,0,0,1,1.55,4.76V194.3c-1.52.49-3,1-4.52,1.47,1.5.83,3,1.65,4.52,2.51V227c-2.54,1.36-4.46,2.14-4.46,2.15,6.56,3.5,12.31,5.92,17.1,10.42.05,0,4.81-4.26,18-8.53a69.9,69.9,0,0,1-15-8V200.34c1.47-.39,2.94-.81,4.38-1.23-1.44-.88-2.91-1.75-4.38-2.61V184q8.6-6.66,17.15-13c.74.89,1.52,1.78,2.25,2.67V200c-1.47.35-2.92.69-4.39,1.07,1.47.92,2.92,1.88,4.39,2.83v28.78a47.25,47.25,0,0,1-4.39,1.77c6.46,4.07,12.14,7,16.85,11.84.05,0,4.74-3.86,17.71-7A78.19,78.19,0,0,1,306.29,230M264.22,202.7l-.31,8-.4,10.92-.41-10.83-.31-7.88a3.37,3.37,0,0,0-1.29-2.82,4.19,4.19,0,0,0,1.29-3.09l.31-8,.41-10.91.4,10.84.31,7.88a3.33,3.33,0,0,0,1.28,2.81,4.17,4.17,0,0,0-1.28,3.09m35.1,2.65-.31,8-.43,10.9-.41-10.83-.28-7.88a3.37,3.37,0,0,0-1.31-2.81,4.3,4.3,0,0,0,1.31-3.09l.28-8,.41-10.92.43,10.83.31,7.89a3.3,3.3,0,0,0,1.27,2.79,4.3,4.3,0,0,0-1.27,3.11"/><path class="cls-1" d="M248.22,181.32V170c-.76-.79-1.52-1.55-2.25-2.32v11.6l-.68.6,0,0,.68,2.91.08.35,2.22-1.88"/><path class="cls-1" d="M216.62,214.61v1.63c1.86-.84,3.81-1.62,5.77-2.29l-1.89-.89-.69.27-3.19,1.28"/><path class="cls-1" d="M241.17,187.29a36.1,36.1,0,0,0,.37-4l0-.2c-4.16,3.5-8.1,6.93-12,10.32-4.93,4.27-9.07,7.89-12.93,11.33v3.57l2.22,1v-2.54q6.82-6.08,13.62-11.95c2.91-2.54,5.81-5,8.71-7.51"/><path class="cls-1" d="M242.41,223.91s7.06-13,6.9-28.32c0-1.21-.06-2.43-.17-3.67a45.09,45.09,0,0,0-.92-5.8,48.77,48.77,0,0,1-.71,6.33c-.12.63-.24,1.26-.38,1.94,0,.14-.06.27-.09.4a68.32,68.32,0,0,1-6.86,26.7v.93l-1.45.49c-10.17,3.37-22,11.06-25.17,13.16v.3c.77.5,1.51,1,2.23,1.59,0,0,14.45-10,26.62-14.05"/><path class="cls-1" d="M216.62,174.35v20.72l2.23-2V176.4c2.31-2.07,4.63-4.09,6.94-6.15v-3.56l-.22-.24c-3,2.59-6,5.23-8.95,7.9"/><path class="cls-1" d="M243.76,183.27S243.34,206,228,214.33a61.28,61.28,0,0,0-12.3,4.59l-1.3-.72v-4.82c1.49-.64,3-1.25,4.5-1.82-1.49-.73-3-1.42-4.5-2.11v-5.57q6.79-6.06,13.6-11.93c5.25-4.6,10.52-9.07,15.75-13.47V167.16q-6.13-6.41-12.24-12.67c-2.52,2.15-5,4.31-7.52,6.51-.16.14-.31.25-.47.4-3,2.65-6.06,5.34-9.12,8.07v0c-5.12,4.46-10.24,9-15.35,13.65-.08,8.73-.18,17.42-.26,26.14-1.55.69-3.13,1.37-4.68,2.09,1.54.63,3.08,1.3,4.62,1.95,0,3.61-.06,7.23-.11,10.86-2.6,1.69-4.51,2.7-4.51,2.71,6.6,2.68,12.4,4.39,17.24,8.25,0,0,14.41-10,26.59-14,0-.06,10.25-18.91,5.81-37.82m-29.35-9.74c3.77-3.35,7.51-6.67,11.28-9.92.78.77,1.55,1.54,2.32,2.33v21.94q-6.8,5.87-13.6,12Zm-6.8,34.12-.3,8-.41,10.91-.43-10.82-.3-7.89a3.36,3.36,0,0,0-1.28-2.81,4.23,4.23,0,0,0,1.28-3.09l.3-8L206.9,183l.41,10.81.3,7.89a3.36,3.36,0,0,0,1.28,2.82,4.25,4.25,0,0,0-1.28,3.09"/><path class="cls-1" d="M404.68,216.45A59.58,59.58,0,0,1,406,203.72a23.84,23.84,0,0,1-2.93,1.16,61.33,61.33,0,0,0-.59,8.71v30.56l2.23,2.28Z"/><path class="cls-1" d="M375,239.89c.76.67,1.5,1.35,2.26,2.05V221.09c-.74.59-1.47,1.16-2.26,1.73Z"/><path class="cls-1" d="M375,253.71l2.26,2.23v-7.81c1.62-.06,3.21-.12,4.84-.14l-1.05-1-3.35.09-2.7.06Z"/><path class="cls-1" d="M407.17,251.05l-3.15-.17-1.57-.07v27.58l-.07,0V303.8a18.7,18.7,0,0,1,2.24.94V277.63l.06,0V252.34l3.95.19-1.46-1.48"/><path class="cls-1" d="M383.78,269.33a41.07,41.07,0,0,0-10.24,2.47c.56.66,1.12,1.3,1.65,2,0,0,2.43-1.62,8.59-2.86Z"/><path class="cls-1" d="M366.34,304.2l.69.52c.54.44,1.1.86,1.65,1.29,7.28-5.33,16-5.78,23-4.84-6.77-1.63-17-2.62-25.37,3"/><path class="cls-1" d="M341.84,217.63v20.2c.67.6,1.43,1.25,2.23,1.9v-21l4.2-.5-1.49-1.19-2.69.3Z"/><path class="cls-1" d="M341.84,191.7c.76-.48,1.52-.94,2.29-1.41a56.06,56.06,0,0,1,1.32-10.77c-.91.52-1.92,1.07-3,1.59a58.59,58.59,0,0,0-.62,8.46Z"/><path class="cls-1" d="M377.29,201.48c-.74-1.08-1.5-2.15-2.26-3.24v10.21L374,209c-3.77,2-7.56,4.08-11.34,6.16v3l6.45-3.5,5.95-3.28,2.26-1.21Z"/><path class="cls-1" d="M341.16,257.5c0,.05,4-3,14.82-5v-1.63l-1.59.25c-8.33,1.37-13,3.32-15.09,4.4.63.65,1.26,1.29,1.86,2"/><path class="cls-1" d="M356,193.15l-.62-.89c-4.44,2.68-9,5.47-13.52,8.32v10.6c.74.58,1.5,1.19,2.23,1.78V202.44q6-3.75,11.91-7.35Z"/><path class="cls-1" d="M361.46,182.2c-2.35,1.38-4.69,2.77-7,4.17-.14.09-.31.17-.45.27q-7.14,4.31-14.35,8.86v-5.93A59.89,59.89,0,0,1,341,176.63c-5.29,3.22-13.91,5.91-18,6a9.71,9.71,0,0,1,1.52,5v19.57c-1.46.23-2.93.48-4.39.7,1.46,1.07,2.93,2.18,4.39,3.26V240c-2.48.92-4.32,1.38-4.33,1.39,6.38,4.61,11.91,8,16.5,13.3.05,0,4.66-3.43,17.26-5.46a88.56,88.56,0,0,1-14.35-10.54V215.91l4.21-.49c-1.4-1.12-2.79-2.25-4.21-3.36V199.59q8.28-5.22,16.39-10.08l2.17,3.05v22.79c4.91-2.77,9.79-5.42,14.65-8v-8.72q-5.67-8.28-11.37-16.42M333.08,218l-.3,8-.41,10.91L332,226l-.29-7.88a3.36,3.36,0,0,0-1.29-2.81,4.27,4.27,0,0,0,1.29-3.09l.29-8,.42-10.91.41,10.82.3,7.89a3.38,3.38,0,0,0,1.3,2.81,4.27,4.27,0,0,0-1.3,3.09"/><path class="cls-1" d="M400.22,244.88V213.59a59.49,59.49,0,0,1,1.29-12.72,40,40,0,0,1-14.89,3.27,14,14,0,0,1-2-.13,11.35,11.35,0,0,1,1.44,5.26v28.39H381.9l4.13,4v19.29s0,0,0,0v3.41c-.93-.16-1.85-.3-2.8-.45a104,104,0,0,1-10.35-9.41v-9.17l4.83-.15c-1.59-1.5-3.21-3-4.83-4.45V218.21a40.75,40.75,0,0,1-14.64,8v9.08l-3.48.25c1.16,1,2.32,2,3.48,3V255.4c-2,.54-3.47.78-3.47.78,6.17,5.17,11.55,9.05,16,14.77,0,0,4.2-2.82,15.26-3.84v23.56a35.32,35.32,0,0,0-6.94.4c-35.47-21.88-65.32-34.15-89.91-40.54l.39-3.5s-2.12,1.29-4.23,2.54c-59.79-14.3-87.27,6.77-87.91,7.26,23.74-11.11,53.88-6.83,82,2.67l-1.52,6.42,5-5.22c43.57,15.42,81.38,42.46,81.38,42.46,14.9-11,36-1.37,35.94-1.27V274.77l.05,0V248.74c1.32,0,2.64.09,3.94.18-1.3-1.35-2.62-2.69-3.94-4m-34.24.35-.3,5.42-.4,7.48-.43-7.42-.29-5.36a2.15,2.15,0,0,0-1.3-1.93,2.64,2.64,0,0,0,1.3-2.1l.29-5.45.43-7.46.4,7.38.3,5.42a2.18,2.18,0,0,0,1.28,1.92,2.55,2.55,0,0,0-1.28,2.1m-20,36.84c-2.9-1.56-5.79-3.11-8.7-4.65a4.38,4.38,0,0,0-3.75-.5,5.43,5.43,0,0,0-2.65-3.05q-4.23-2.5-8.47-4.7A96.71,96.71,0,0,0,310.82,264a94.2,94.2,0,0,1,11.9,4.35c2.94,1.25,5.86,2.64,8.75,4.09a4.69,4.69,0,0,0,3.76.48,5.61,5.61,0,0,0,2.65,3.1c2.83,1.73,5.62,3.5,8.44,5.26,3.86,2.4,7.71,4.76,11.57,7-4-1.93-7.94-4-11.94-6.15m48.49-29-.31,8-.43,10.92-.4-10.84-.31-7.88a3.33,3.33,0,0,0-1.28-2.81,4.17,4.17,0,0,0,1.28-3.09l.31-8,.4-10.91.43,10.83.31,7.88a3.33,3.33,0,0,0,1.28,2.81,4.21,4.21,0,0,0-1.28,3.1"/><path class="cls-1" d="M185.27,297.34A27.66,27.66,0,0,1,188,299c0,.05,4.76-5.15,18.26-12.1-1.37-.24-2.66-.51-3.92-.85-10.76,5.6-15.69,10-17,11.29"/><path class="cls-1" d="M150,165v53.47c.74-.76,1.49-1.55,2.23-2.33V167.88a65.82,65.82,0,0,1,1.44-13.59c-1,1-2,2-3.17,3.08A62.14,62.14,0,0,0,150,165"/><path class="cls-1" d="M188.76,277.88c.68.29,1.43.64,2.24.94V220.27l4.44-2.1c-1.06-.43-2.11-.84-3.15-1.24l-.29.13c-1.07.49-2.17,1-3.24,1.54Z"/><path class="cls-1" d="M168.57,217.65C162.32,224,156.1,230.4,150,236.84v44.29c.69.26,1.45.53,2.23.78V239c5.42-5.76,10.87-11.39,16.32-17Z"/><path class="cls-1" d="M191,160.45A63.15,63.15,0,0,1,192.45,147c-1,.92-2,1.84-3.15,2.75a60.94,60.94,0,0,0-.54,7.86v54.67l2.24.88Z"/><path class="cls-1" d="M163.86,291.14c-10.7,6.91-14.6,11.53-14.63,11.53a24.15,24.15,0,0,0-2.84-1.51l.2-.2c1.13-1.22,5.23-5.31,13.9-10.95Z"/><path class="cls-1" d="M186.54,279.06V217.42c1.48-.7,3-1.43,4.44-2.11q-2.22-.9-4.44-1.75V157.61A62.78,62.78,0,0,1,188,144.14c-5.62,5.25-14.6,11.19-18.79,12.81a7.06,7.06,0,0,1,1.57,4.44v38.8q-11.5,11.52-23,23.68V165a66.35,66.35,0,0,1,1.43-13.59c-5.55,5.73-14.46,12.49-18.6,14.47a6.59,6.59,0,0,1,1.54,4.33v50.09c-1.49.92-3,1.83-4.48,2.77l4.48,1.19v66.58c-2.55,2.09-4.42,3.44-4.42,3.44,6.49,1.61,12.22,2.39,17,5.49,0,0,4.76-5.62,18.14-13.72a53.74,53.74,0,0,1-15.12-3.64V236.12q11.44-12.13,23-23.68v73.64c-2.56,1.87-4.46,3-4.46,3,6.55,2.21,12.34,3.51,17.18,7.05,0,0,4.79-5.18,18.26-12.1a58.63,58.63,0,0,1-15.22-5m-45.83-48.87-.3,9.43L140,252.55l-.4-12.82-.33-9.35a4.1,4.1,0,0,0-1.28-3.32,5.41,5.41,0,0,0,1.28-3.69l.33-9.43L140,201l.41,12.82.3,9.35a4.19,4.19,0,0,0,1.29,3.3,5.66,5.66,0,0,0-1.29,3.7m38.4-14-.32,9.44-.41,12.94L178,225.73l-.29-9.35a4.33,4.33,0,0,0-1.29-3.33,5.54,5.54,0,0,0,1.29-3.68L178,200l.42-24.47.41,24.34.32,9.35a4.31,4.31,0,0,0,1.28,3.33,5.5,5.5,0,0,0-1.28,3.66"/><path class="cls-1" d="M219.41,101.76V79.05c1.47-.59,3-1.2,4.49-1.76l-4.49-2.14V48.92q-6.16-6-12.29-11.93c-2.52,2.28-5,4.57-7.54,6.9-.15.16-.31.3-.45.44q-7.6,7.1-15.23,14.43V15.39a62.53,62.53,0,0,1,1.46-13.45c-5.61,5.24-14.58,11.21-18.78,12.84A7.07,7.07,0,0,1,168.05,18a6.7,6.7,0,0,1,.1,1.2v57l-4.54,2.34q2.26.83,4.54,1.61V109c-2.59,1.88-4.47,3-4.47,3,6.55,2.21,12.35,3.48,17.16,7,.06,0,4.81-5.19,18.29-12.15a57.73,57.73,0,0,1-15.23-5V79.17c1.47-.71,3-1.41,4.44-2.11L183.9,75.3V62.82q8.7-8.37,17.39-16.41l2.32,2.2V74.85c-1.5.65-3,1.3-4.49,2,1.48.65,3,1.29,4.49,1.94v28.79c-2.61,1.67-4.48,2.66-4.48,2.67,6.59,2.75,12.38,4.49,17.2,8.43,0,0,4.83-4.81,18.27-10.66a61.29,61.29,0,0,1-15.19-6.22M177.49,69.2a8.46,8.46,0,0,0-.39,2.15l-.28,9.44-.43,12.95L176,80.91l-.29-9.36a4.31,4.31,0,0,0-1.29-3.33,5.55,5.55,0,0,0,1.29-3.67l.29-9.41.42-13L176.82,55l.28,9.36a4.38,4.38,0,0,0,1.28,3.34,3.42,3.42,0,0,0-.89,1.49m34.73,12.18-.31,9.43-.4,13-.42-12.86-.3-9.35a4.39,4.39,0,0,0-1.28-3.32,5.62,5.62,0,0,0,1.28-3.65l.3-9.43.42-12.94.4,12.82.31,9.36a4.25,4.25,0,0,0,1.29,3.32,5.43,5.43,0,0,0-1.29,3.66"/><path class="cls-1" d="M88.21,50.07q5.55-5.72,11.11-11.27s-8.69-1.56-17.51-3.67c0,0-5.61,8.28-12.26,13.16a62.58,62.58,0,0,1,18.66,1.78"/><path class="cls-1" d="M89.76,117.52V94.82c1.46-1.07,2.91-2.1,4.35-3.13-1.44-.26-2.89-.55-4.35-.81V68.72q4.76-4.86,9.56-9.69a124.94,124.94,0,0,1-19.68-3c0,.05-2.62,5.57-14.37,17l9.32-1.09V95.31c-1.42,1.12-2.87,2.2-4.31,3.31,1.44.19,2.89.39,4.31.61V128c-2.47,2.45-4.31,4-4.31,4,6.29.78,11.87.8,16.53,3.28,0,0,4.6-6.25,17.73-16.1a47.46,47.46,0,0,1-14.78-1.67m-5.61-17.27-.3,9.44-.4,12.94L83,109.8l-.3-9.36a4.2,4.2,0,0,0-1.27-3.32,5.49,5.49,0,0,0,1.27-3.68L83,84l.44-13,.4,12.83.3,9.36a4.1,4.1,0,0,0,1.29,3.3,5.38,5.38,0,0,0-1.29,3.68"/><path class="cls-1" d="M155.29,86.65V51.3q-6.1-5.16-12.19-10.14c-2.48,2.66-4.95,5.34-7.45,8.05-.13.17-.3.34-.45.51-3,3.28-6,6.58-9,9.92Q118.43,68.16,110.72,77v7.93c-1.48,1-2.94,1.94-4.41,2.94l4.41,1V117.6c-2.54,2.2-4.41,3.6-4.41,3.62,6.45,1.33,12.12,1.82,16.89,4.69,0,0,4.34-5.35,16.44-13.5v23.53a38.57,38.57,0,0,0-7.92,5.49c.13.13-27.9-3.15-57,4.75-.39-.92-.76-1.83-1.14-2.76l-2.41,3.77c-30.51,8.32-61.06,29.26-67.39,59.7,0-.07,4.81-12.81,20.92-26.12C34.4,173,48.27,165,68.2,161.61c.54,1.33,1.06,2.63,1.59,3.95,1-1.54,2-3.06,3-4.63,11.82-1.53,25.63-1.47,41.76,1v0c.59.09,1.19.18,1.76.25,15.6-20.22,39-24.39,39-24.26h0V90.56c1.5-.81,3-1.63,4.48-2.42-1.51-.51-3-1-4.48-1.49M120.08,98.52l-.32,8-.42,10.91-.4-10.83-.31-7.87a3.34,3.34,0,0,0-1.28-2.81,4.29,4.29,0,0,0,1.28-3.1l.31-8,.4-10.92.42,10.81.32,7.9a3.29,3.29,0,0,0,1.27,2.8,4.21,4.21,0,0,0-1.27,3.1m19.56-9.82-4.45,2.61,4.45,1.29v17c-1,.44-2,.89-3,1.36a51.58,51.58,0,0,1-10.41-2.54V85.69l4.43-2.76-4.43-1.16v-18c3.68-4.15,7.4-8.22,11.15-12.27l2.29,1.86Zm9.1,2-.31,9.44-.4,13-.43-12.84-.29-9.36A4.32,4.32,0,0,0,146,87.57a5.52,5.52,0,0,0,1.29-3.66l.29-9.42L148,61.55l.4,12.82.31,9.36A4.3,4.3,0,0,0,150,87.05a5.51,5.51,0,0,0-1.28,3.65"/><path class="cls-1" d="M386.36,107.48c0,.06-.33,22.59-14.43,25.7a44.72,44.72,0,0,0-11.42.39c-.41-.39-.81-.79-1.21-1.16v-17c1.4-.1,2.8-.2,4.17-.28-1.37-1.22-2.77-2.42-4.17-3.63V87.74q5.25-3.12,10.47-6.09c.72,1,1.45,2.09,2.16,3.14v24.83c4.86-3.28,9.64-6.45,14.43-9.54V91.39q-5.58-8.52-11.21-16.85l-6.94,3.92-.44.27c-2.83,1.61-5.63,3.26-8.47,4.93h0q-7.17,4.09-14.42,8.45c-.05,4.61-.1,9.25-.15,13.86l-4.54.5,4.51,3.62c-.08,7.64-.17,15.26-.23,22.89a39.39,39.39,0,0,1-4.26,1.18c6.24,4.93,11.71,8.61,16.23,14.12,0,0,13.5-5.11,24.62-5a53.78,53.78,0,0,0,5.3-35.82M353.62,115l-.3,5.45-.41,7.45-.43-7.4-.3-5.39a2.08,2.08,0,0,0-1.29-1.9,2.62,2.62,0,0,0,1.29-2.12l.3-5.44.43-7.48.41,7.42.3,5.38a2.14,2.14,0,0,0,1.29,1.94,2.46,2.46,0,0,0-1.29,2.09"/><path class="cls-1" d="M54.19,127.85V70.17l4.2-3.44c-1.4-.16-2.8-.28-4.2-.4V13.91A74.1,74.1,0,0,1,55.55,0C50.27,7,41.86,15.62,38,18.51a5.66,5.66,0,0,1,1.45,4V57.76q-10.72,15-21.2,30.67V29.08a77.62,77.62,0,0,1,1.33-14C14.44,22.51,6.38,32,2.64,35.25A5.14,5.14,0,0,1,4,39.1V89.7q-2,2-4,4.13c1.34-.08,2.69-.12,4-.2v62.66c-2.3,2.88-4,4.78-4,4.79,5.83-.37,11-1.37,15.4.26,0,0,4.29-7.07,16.68-19.26a42.06,42.06,0,0,1-13.91,1V100.69Q28.7,85,39.43,70v69.67c-2.41,2.65-4.17,4.39-4.17,4.4,6.1.22,11.51-.26,16.05,1.81,0,0,4.48-6.65,17.29-17.64a44.35,44.35,0,0,1-14.41-.4M12.51,94.65l-.3,9.42-.42,26.16-.41-26.06-.3-9.34A4.23,4.23,0,0,0,9.8,91.52a5.6,5.6,0,0,0,1.28-3.68l.3-9.44.41-8.72.42,8.61.3,9.35A4.29,4.29,0,0,0,13.8,91a5.71,5.71,0,0,0-1.29,3.69M47.52,74l-.3,9.45L46.8,109.6l-.4-26-.31-9.33a4.29,4.29,0,0,0-1.28-3.35,5.5,5.5,0,0,0,1.28-3.67l.31-9.41.4-13,.42,12.84.3,9.35a4.34,4.34,0,0,0,1.29,3.32A5.57,5.57,0,0,0,47.52,74"/><path class="cls-1" d="M334.45,135.76c-13.88-1.33-22.48,6.85-25.66,10.29a136,136,0,0,0-34.53-12.79V74.18c1.49-.4,3-.83,4.43-1.21-1.47-.91-2.94-1.8-4.43-2.71V21.17q4.85-2.79,9.68-5.47A206,206,0,0,1,263.85,4s-2.64,4.42-14.92,10.54c3.81,1.22,7,2.24,9.69,3.09V68l-4.46,1.4c1.5.82,3,1.68,4.46,2.51v58.77a97.5,97.5,0,0,0-20.12-.11c-2.24-2.16-4.5-4.35-6.78-6.5-.51,2.65-1.06,5.29-1.58,7.93-13.9,3.3-24.76,11.18-28.62,25.54-.18,1,8.58-15.47,32-17.94,1.84,1.73,3.68,3.47,5.52,5.26.37-1.86.75-3.71,1.13-5.57,16.64.19,39.44,7.2,69.91,29.23,8.09-23,41.22-17.8,41.79-17.3-.52-.62-17.25-15.42-17.44-15.42m-66.69-57.6-.3,9.42-.41,13-.42-12.85-.3-9.35A4.36,4.36,0,0,0,265,75a5.53,5.53,0,0,0,1.29-3.66l.3-9.42.42-13,.41,12.84.3,9.36A4.38,4.38,0,0,0,269,74.5a5.56,5.56,0,0,0-1.28,3.66"/><path class="cls-1" d="M333.29,89.54V69c-3.93-5.13-7.84-10.21-11.81-15.24-2.4,1.6-4.81,3.27-7.24,4.92l-.45.31h0c-3.3,2.24-6.61,4.55-9.92,6.88h0c-.41.27-.78.56-1.17.84q-2.26,1.59-4.53,3.21l-2.79,2c-.3.23-.61.44-.92.69h0c-2,1.45-4,2.89-6,4.37V93.62L284,94.7l4.43,2.84v22c4,4.72,8,9.45,12,14.25,2.43-1.74,4.89-3.43,7.32-5.14,3.85-2.69,7.67-5.31,11.51-7.89,1.49-1,3-2,4.44-3,.94-.6,1.84-1.23,2.76-1.82q3.39-2.25,6.8-4.43V93.17l4-.53-4-3.1m-36.91,11.83-.31,8-.42,10.92-.41-10.83-.3-7.89a3.4,3.4,0,0,0-1.28-2.81,4.28,4.28,0,0,0,1.28-3.08l.3-8,.41-10.92.42,10.82.31,7.89a3.36,3.36,0,0,0,1.27,2.82,4.2,4.2,0,0,0-1.27,3.08m21.74-16.62-4.64.83c1.56,1.1,3.1,2.22,4.64,3.34v28.55c-4,2.71-8,5.45-12,8.27-.75-.95-1.5-1.85-2.26-2.81v-22c1.47-.3,2.91-.62,4.37-.9-1.46-1-2.9-2-4.37-3V70c4-2.84,8-5.61,12-8.33.73,1,1.49,1.9,2.24,2.85Zm8.3,6.71-.31,8-.4,10.9-.41-10.82-.3-7.89a3.4,3.4,0,0,0-1.28-2.81A4.27,4.27,0,0,0,325,85.73l.3-8,.41-10.92.4,10.81.31,7.91a3.39,3.39,0,0,0,1.28,2.8,4.28,4.28,0,0,0-1.28,3.08"/><path class="cls-1" d="M85.65,206.91l.51,1.18c17.66-13,6.19-30.25,6.19-30.25l-.84.8c2.14,4,7.74,17.48-5.86,28.27"/><path class="cls-1" d="M100.82,252.64c13.88,4.7,18.83-23.22,18.83-23.22a49.18,49.18,0,0,1-3.63,7.67c-2.46,7.38-7.24,16.95-15.2,15.55"/><path class="cls-1" d="M103.64,243.29c-3.23-1.52-6.4-5.09-9.34-9.7l4.12-4L110.67,218V203.86l-1.53,1.35v12.34L96.91,229.26l-4.11,4c3,4.79,6.36,8.47,9.73,9.89-3.73-1-7.39-5-10.76-10.25l4.12-3.94,12.24-11.72V203.11L95.89,214v10.39l-4.48,4.29c-6.18-11.48-11-26.22-13.1-32.89l6.23-5.93c5.24,7.19-1.81,15.45-1.81,15.45l.89,2.05c.23-.17.43-.35.66-.51s.69-.51,1-.77c12-10,8-22.1,5.68-26.87a13.21,13.21,0,0,0-.64-1.23c-.31-.54-.52-.86-.52-.86l-15.09,14.4-9.77,8.95c1.93,4.73,3.8,9,5.59,13a58.78,58.78,0,0,1-12,10.3v15.33l13.18,13,.35-.33.57-.55,7.65-7.32,4.56-4.36c.21.28.38.53.56.8l-4.09,3.93-8,7.63,1,.94,8.56-8.18,3.39-3.24c4.78,6.36,8.9,9.57,12.46,10.65.45.12.87.22,1.32.31,6.57,1,11-5.43,13.63-11.84a59.78,59.78,0,0,0,2.07-5.87,55.17,55.17,0,0,0,1.46-5.92c-4.33,11.21-8.94,15.14-13.48,14.59M68,232.85l-.22,3.35-.26,4.59-.28-4.56L67,232.91a1.38,1.38,0,0,0-.86-1.19,1.57,1.57,0,0,0,.86-1.28l.21-3.36.28-4.6.26,4.55.22,3.32a1.33,1.33,0,0,0,.86,1.2,1.52,1.52,0,0,0-.86,1.3m10,8.69-2.51-2.48V223.6c.36.66.69,1.32,1,2v13.84l1.81,1.8Zm.93-.89-.88-.84V228.37c1.73,3.15,3.38,5.92,5,8.36Zm6.89-9.41-3.14-5.67a3.32,3.32,0,0,0-1.84-1.73,3.58,3.58,0,0,0-.38-2.57l-2.79-5.86-3.84-8,4.31,7.76,3.15,5.68a3.26,3.26,0,0,0,1.83,1.71,3.58,3.58,0,0,0,.38,2.56l2.8,5.88L90.08,239ZM90,230c-6.72-11.69-12.1-27.88-14.25-34.93l7.22-6.9a5.06,5.06,0,0,1,.69.7l-6.9,6.54c2.14,6.9,7.26,22.46,13.77,34.09Z"/><polygon class="cls-1" points="281.17 265.91 279.95 269.77 287.25 265.13 283.79 263.87 281.17 265.91"/><path class="cls-1" d="M258.87,257.5C244,272.35,229.69,276,213.56,273.74c-11.23-1.56-11.38-14.2,3.88-17.56a90.45,90.45,0,0,1,28.6-.9c-20-6.52-39.14.9-39.14.9s-14.45,4.52-11.8,15.15c.94,3.84,4.53,6.87,8.85,7.62,22.66,3.93,62.7-18.85,62.7-18.85Z"/><path class="cls-1" d="M233.68,276c26.29-2.53,40.59-13.05,40.59-13.05l-3.66-1.32A87.54,87.54,0,0,1,233.68,276"/><path class="cls-1" d="M35.62,185.48S40.81,222.26,20.28,221c-8.12-.56-11.19-15.51.17-29.24a88.6,88.6,0,0,1,8.68-8.17,92.68,92.68,0,0,1,38.28-18.09l-.65-1.64a90.12,90.12,0,0,0-40.62,18.36,83.62,83.62,0,0,0-12.79,13S1.74,210.79,11.6,219.2a9.7,9.7,0,0,0,1.7,1.25s0,.05.09.06h0a14.27,14.27,0,0,0,7.18,1.64c23,0,36.36-31.44,32.72-49.72,0,0-11.16,5.68-17.68,13"/><polygon class="cls-1" points="257.49 286.21 260 293.95 268.14 293.95 261.56 298.74 264.07 306.47 257.49 301.68 250.92 306.47 253.43 298.74 246.85 293.95 254.98 293.95 257.49 286.21"/><polygon class="cls-1" points="296.49 286.21 299.01 293.95 307.14 293.95 300.55 298.74 303.06 306.47 296.49 301.68 289.9 306.47 292.42 298.74 285.84 293.95 293.98 293.95 296.49 286.21"/></svg>