<?xml version="1.0" encoding="utf-8"?>
<!-- Generator: Adobe Illustrator 26.0.1, SVG Export Plug-In . SVG Version: 6.00 Build 0)  -->
<svg version="1.1" id="Layer_1" xmlns="http://www.w3.org/2000/svg" xmlns:xlink="http://www.w3.org/1999/xlink" x="0px" y="0px"
	 viewBox="0 0 512 512" style="enable-background:new 0 0 512 512;" xml:space="preserve">
<style type="text/css">
	.st0{fill:#FFFFFF;}
</style>
<g>
	<g>
		<path class="st0" d="M437,75C388.7,26.6,324.4,0,256,0C187.6,0,123.3,26.6,75,75C26.6,123.3,0,187.6,0,256s26.6,132.7,75,181
			c48.4,48.4,112.6,75,181,75c68.4,0,132.7-26.6,181-75c48.4-48.4,75-112.6,75-181S485.4,123.3,437,75z M256,491.6
			C126.1,491.6,20.4,385.9,20.4,256S126.1,20.4,256,20.4S491.6,126.1,491.6,256S385.9,491.6,256,491.6z"/>
	</g>
</g>
<g>
	<g>
		<path class="st0" d="M450.4,178.8C428.7,124.3,384.8,81.1,330,60.4c-5.3-2-11.2,0.7-13.1,5.9c-2,5.3,0.7,11.2,5.9,13.1
			c49.5,18.7,89.1,57.7,108.6,106.9c1.6,4,5.4,6.4,9.5,6.4c1.3,0,2.5-0.2,3.8-0.7C449.9,190,452.4,184,450.4,178.8z"/>
	</g>
</g>
<g>
	<g>
		<path class="st0" d="M291.4,49.9c-11.6-2-23.5-3-35.4-3c-5.6,0-10.2,4.6-10.2,10.2s4.6,10.2,10.2,10.2c10.7,0,21.5,0.9,31.9,2.7
			c0.6,0.1,1.2,0.1,1.7,0.1c4.9,0,9.2-3.5,10-8.5C300.7,56.1,296.9,50.8,291.4,49.9z"/>
	</g>
</g>
<g>
	<g>
		<path class="st0" d="M346.2,127.9H165.8c-20.9,0-37.9,17-37.9,37.9v180.3c0,20.9,17,37.9,37.9,37.9h180.3
			c20.9,0,37.9-17,37.9-37.9V165.8C384.1,144.9,367.1,127.9,346.2,127.9z M363.7,346.2c0,9.7-7.9,17.5-17.5,17.5H165.8
			c-9.7,0-17.5-7.9-17.5-17.5V165.8c0-9.7,7.9-17.5,17.5-17.5l0,0h180.3c9.7,0,17.5,7.9,17.5,17.5V346.2z"/>
	</g>
</g>
</svg>
