<svg id="圖層_1" data-name="圖層 1" xmlns="http://www.w3.org/2000/svg" viewBox="0 0 63.05 96.21"><defs><style>.cls-1{fill:#3f3f3f;}.cls-2{fill:#b31e23;}</style></defs><path class="cls-1" d="M50.08,32.28a6.12,6.12,0,0,0-1.83-3.94l-.16-.13a6.44,6.44,0,0,0-4-1.84,4.6,4.6,0,0,0-1.72.35,17.81,17.81,0,0,0-2.23,1.1,13.63,13.63,0,0,0-1.56-1.68A5.28,5.28,0,0,0,35,24.82,9.07,9.07,0,0,0,31,26a114.34,114.34,0,0,1,0-15.53c.28-4.27.12-7.27-1.51-9A4.91,4.91,0,0,0,25.67,0c-2.62,0-4,3-4.82,10.28-.59,5.4-.65,11.52-.65,13.9,0,2.78-.08,4.62-.14,6.1a50,50,0,0,0,.06,6.43c.14,1.9-.29,2.81-.54,3.1a18.56,18.56,0,0,0-11.23-5c-.32,0-.65,0-1,0-1.39,0-6,.22-7.16,3-.31.77-.56,2.3,1.18,4a6.06,6.06,0,0,0,4.33,1.86c1.13.08,2.1.16,4,1.83,4.35,3.84,12.34,15.24,12.84,20.14.3,3.05.65,5.06,1,7.19s.75,4.36,1.13,7.88l.19,1.75,1.75-.16,20.22-1.83,1.73-.15-.1-1.73a55.63,55.63,0,0,0-1.2-7.67,36.81,36.81,0,0,1-1-6.38c0-1.77,1.37-5.1,2.47-7.78a33.71,33.71,0,0,0,2-5.74,54.63,54.63,0,0,0,.66-6c.07-1,.13-1.78.21-2.43a4,4,0,0,1,.45-1.31,8.51,8.51,0,0,0,1-4.24A4.92,4.92,0,0,0,50.08,32.28Zm-.15,10.06c-.12.89-.19,2-.28,3.3-2.15,6.22-5.51,13.12-6.27,17.88-1,6.32-1.11,6,.59,15.41L26.49,80.51c-.77-7.07-1.54-9-2.15-15.06-.59-5.79-9.16-17.53-13.43-21.31s-5.55-1-8.27-3.62c-.13-.13-.24-.25-.34-.37l.48-.06A11.18,11.18,0,0,1,5,40a2.35,2.35,0,0,1,.93.23.93.93,0,0,1,.29.22l.14.21.13.2a5.17,5.17,0,0,1,.38.67A1.06,1.06,0,0,1,7,41.8a.82.82,0,0,0,.14-.3,2.22,2.22,0,0,0,0-.88c0-.09,0-.19,0-.29s0-.16-.07-.29a1.77,1.77,0,0,0-.47-.69,2.59,2.59,0,0,0-1.49-.56,4.19,4.19,0,0,0-2.53.67,3.53,3.53,0,0,0-.48.35c-1.21-2,1.91-3.24,5.32-3.24.29,0,.57,0,.86,0a13.63,13.63,0,0,1,2.57.4h0a4,4,0,0,0-.19,1.14,3.47,3.47,0,0,0,0,.49,2.77,2.77,0,0,1,.24-.41,3,3,0,0,1,.67-.73l.3-.21a17.81,17.81,0,0,1,6.49,3.82l-.3.1a8.5,8.5,0,0,0-1.16.46,5,5,0,0,0-.79.46l-.28.21h.35c.23,0,.53,0,.89,0s.77,0,1.22-.09a7,7,0,0,0,1.45-.33,3.14,3.14,0,0,0,.73-.37,2.73,2.73,0,0,0,.63-.54l.24-.31c.06-.12.11-.23.17-.33a3,3,0,0,0,.19-.63,3.58,3.58,0,0,0,.06-.53h0a8.81,8.81,0,0,0,.15-2.61c-.33-4.51.09-5.69.09-12.4s.49-22.39,3.68-22.39S29.61,4,29.19,10.34l0,.5-.35.21c-.34.19-.67.37-.93.49a2.17,2.17,0,0,1-.43.19,2.66,2.66,0,0,0,.48.09c.29,0,.68.07,1.07.1h.1c-.13,2.67-.18,5.54-.16,8.07l-.64.36c-.33.19-.66.37-.92.5a3.3,3.3,0,0,1-.43.19,3.91,3.91,0,0,0,.48.09l1.07.1.45,0a38.5,38.5,0,0,0,.35,5.51,2.57,2.57,0,0,0,.33.88,2.14,2.14,0,0,1-.13.19A18.37,18.37,0,0,0,28,30.72c-.16.42-.29.79-.37,1.06a4,4,0,0,0-.11.43,4.08,4.08,0,0,0,.39-.22,6.79,6.79,0,0,0,.92-.65A9.67,9.67,0,0,0,30,30.23a13.5,13.5,0,0,0,1-1.41l.45-.7.35-.54a7.37,7.37,0,0,1,3.23-1,3.5,3.5,0,0,1,2.37.89A10.47,10.47,0,0,1,38.75,29l-.23.21a5.8,5.8,0,0,0-.62-.27,6.33,6.33,0,0,0-1.82-.4,6.05,6.05,0,0,1,1.32,1.14,4.67,4.67,0,0,1,.35.46,9.57,9.57,0,0,0-.55.87,14.75,14.75,0,0,0-.69,1.38c-.18.42-.32.79-.42,1a3.64,3.64,0,0,0-.12.43,3.83,3.83,0,0,0,.4-.2,7.89,7.89,0,0,0,1-.64,10.29,10.29,0,0,0,1.15-1.08c.39-.42.76-.87,1.11-1.27l.53-.56c.19-.17.36-.35.56-.5l.07-.05A16.26,16.26,0,0,1,43,28.38a2.79,2.79,0,0,1,1-.22c1.15,0,2.07.8,3.05,1.58a4.39,4.39,0,0,1,1.17,2.73,2.26,2.26,0,0,0-.43.17,4.89,4.89,0,0,0-.59-.62,6.18,6.18,0,0,0-1.55-1,6,6,0,0,1,.81,1.54,5.05,5.05,0,0,1,.21.83,7.54,7.54,0,0,0-1.13,1.13,7.72,7.72,0,0,0-1,1.72,6.44,6.44,0,0,0-.42,1.36,2.67,2.67,0,0,0,0,.4v.14l.38-.38c.22-.24.56-.56,1-.93s.85-.8,1.34-1.21c.24-.22.5-.42.76-.62a9.25,9.25,0,0,1,.79-.54,3.94,3.94,0,0,1,.78-.37l.18,0a.49.49,0,0,1,.15,0h.06A3.11,3.11,0,0,1,51.32,37C51.32,40.12,50.18,40.37,49.93,42.34Z"/><path class="cls-1" d="M27.31,5.63l.09-.4a4.84,4.84,0,0,0,0-.75c0-.24-.05-.46-.08-.68s-.11-.39-.16-.57a4,4,0,0,0-.35-.81,3,3,0,0,0-.17-.29,2.47,2.47,0,0,0-.05.33c0,.21,0,.51-.08.85l-.05.54c0,.19-.05.38-.07.58s-.06.4-.12.58a2.76,2.76,0,0,0-.08.27,2.72,2.72,0,0,1-.11.25.78.78,0,0,1-.12.22,1,1,0,0,1-.15.2,1.55,1.55,0,0,1-.36.31,2.4,2.4,0,0,1-.46.21,4.43,4.43,0,0,1-.49.13c-.32.06-.6.09-.81.12l-.34,0,.28.19a3,3,0,0,0,.86.31,2.48,2.48,0,0,0,.63.07,2.54,2.54,0,0,0,.74-.14A1.66,1.66,0,0,0,26.28,7a1.31,1.31,0,0,0,.35-.27,1.18,1.18,0,0,0,.3-.33A1.79,1.79,0,0,0,27.15,6,3.2,3.2,0,0,0,27.31,5.63Z"/><path class="cls-1" d="M25.48,50.9c0-.89-.08-1.78-.13-2.66s-.14-1.75-.21-2.58S25,44,24.85,43.25s-.23-1.48-.36-2.14-.26-1.27-.39-1.8-.24-1-.35-1.37c-.22-.75-.36-1.18-.36-1.18s.05.45.12,1.23.19,1.88.3,3.21c.06.66.1,1.38.15,2.14s.08,1.57.13,2.39c.07,1.67.15,3.44.2,5.21,0,.89.07,1.78.1,2.66s.08,1.74.12,2.57c.09,1.67.2,3.23.35,4.57s.3,2.45.44,3.21l.22,1.21s0-1.78,0-4.46c0-1.33,0-2.89,0-4.56,0-.83,0-1.7,0-2.57Z"/><path class="cls-1" d="M30.25,38.11s-.07.31-.17.84-.23,1.3-.4,2.21-.37,2-.58,3.11c-.09.57-.21,1.16-.29,1.77s-.17,1.22-.24,1.84a35.63,35.63,0,0,0-.21,3.66c0,.59,0,1.15,0,1.69s.05,1,.09,1.51c.06.93.16,1.7.23,2.24s.14.85.14.85,0-.31.1-.85.13-1.32.21-2.24.16-2,.26-3.15c0-.57.11-1.16.15-1.76s.12-1.21.19-1.82.13-1.22.2-1.82.13-1.2.19-1.78c.12-1.15.2-2.24.22-3.18a21.73,21.73,0,0,0,0-2.26C30.28,38.42,30.25,38.11,30.25,38.11Z"/><path class="cls-1" d="M26.26,34.48a3.69,3.69,0,0,0-1.59-.68,3.94,3.94,0,0,0-1,0,1.85,1.85,0,0,0-.45.11,1.55,1.55,0,0,0-.39.18,1.1,1.1,0,0,0-.31.25.6.6,0,0,0-.16.23,1.72,1.72,0,0,0-.07.22l.23-.05a.93.93,0,0,1,.24,0l.26,0a1.32,1.32,0,0,1,.31.05l.34.06.77.14a8.93,8.93,0,0,0,1.57.15,4.07,4.07,0,0,0,.8-.06A2.3,2.3,0,0,0,26.26,34.48Z"/><path class="cls-1" d="M32.27,33.52a2.44,2.44,0,0,0-.48-.15,4,4,0,0,0-.5-.07,3.48,3.48,0,0,0-1,.14,4.08,4.08,0,0,0-.42.17,3.59,3.59,0,0,0-.35.21,2,2,0,0,0-.44.41,2.06,2.06,0,0,0-.14.19l.23,0c.15,0,.36,0,.58,0l1.48,0c.51,0,1,.06,1.45.11s.78.11.78.11A1.61,1.61,0,0,0,33,34,2.21,2.21,0,0,0,32.27,33.52Z"/><path class="cls-1" d="M39.2,36.14a2.32,2.32,0,0,0-.4-.3c-.14-.09-.31-.15-.46-.23a3.1,3.1,0,0,0-1-.19,3.19,3.19,0,0,0-.45,0,2.35,2.35,0,0,0-.4.09,1.79,1.79,0,0,0-.55.24l-.2.13A1.24,1.24,0,0,0,36,36c.13.07.34.12.54.21l1.39.51c.48.18.94.39,1.34.57l.7.35a1.67,1.67,0,0,0-.21-.83A2.38,2.38,0,0,0,39.2,36.14Z"/><path class="cls-1" d="M45.73,39.52a2.46,2.46,0,0,0-.4-.3,4.93,4.93,0,0,0-.46-.23,3.4,3.4,0,0,0-1-.19,3.44,3.44,0,0,0-.46,0,4,4,0,0,0-.4.09,2,2,0,0,0-.54.24l-.2.13.21.11c.13.06.34.12.54.2l1.39.51c.48.18,1,.39,1.34.57s.7.36.7.36a1.54,1.54,0,0,0-.21-.83A2,2,0,0,0,45.73,39.52Z"/><path class="cls-2" d="M11,91.12h5.12v5H14L13.77,94a2.92,2.92,0,0,1-1.29,1.7,4.36,4.36,0,0,1-2.25.55,4.28,4.28,0,0,1-2.16-.54A3.79,3.79,0,0,1,6.6,94.12a4.91,4.91,0,0,1-.54-2.35,4.51,4.51,0,0,1,1.29-3.4,5.55,5.55,0,0,1,4-1.25,6.78,6.78,0,0,1,2.73.51,4.91,4.91,0,0,1,2,1.56L14,90.29l-.3.17a2.92,2.92,0,0,0-1.09-.7,3.68,3.68,0,0,0-1.32-.24,2.26,2.26,0,0,0-1.72.61A2.12,2.12,0,0,0,9,91.62a2.07,2.07,0,0,0,.6,1.55,2.61,2.61,0,0,0,1.86.59,3.39,3.39,0,0,0,1.05-.16,1.81,1.81,0,0,0,.86-.54H11Z"/><path class="cls-2" d="M18.39,95a4.3,4.3,0,0,1-1.3-3.35,4.35,4.35,0,0,1,1.29-3.34,5.8,5.8,0,0,1,4.05-1.2,5.81,5.81,0,0,1,4.06,1.2,5,5,0,0,1,0,6.7,5.87,5.87,0,0,1-4.07,1.19A5.79,5.79,0,0,1,18.39,95Zm6-1.76a2.41,2.41,0,0,0,0-3.16,2.85,2.85,0,0,0-1.92-.52,2.85,2.85,0,0,0-1.91.52,2.43,2.43,0,0,0,0,3.15,2.85,2.85,0,0,0,1.91.52A2.9,2.9,0,0,0,24.35,93.25Z"/><path class="cls-2" d="M41.45,89.9c-1.25,0-2.48-.07-3.66-.08v6.27h-3V89.82c-1.19,0-2.41,0-3.65.08V87.38H41.45Z"/><path class="cls-2" d="M43,95a4.3,4.3,0,0,1-1.3-3.35A4.35,4.35,0,0,1,43,88.32,5.8,5.8,0,0,1,47,87.12a5.81,5.81,0,0,1,4.06,1.2,5,5,0,0,1,0,6.7A5.87,5.87,0,0,1,47,96.21,5.79,5.79,0,0,1,43,95Zm6-1.76a2.41,2.41,0,0,0,0-3.16A2.85,2.85,0,0,0,47,89.57a2.83,2.83,0,0,0-1.91.52,2.43,2.43,0,0,0,0,3.15,2.83,2.83,0,0,0,1.91.52A2.9,2.9,0,0,0,49,93.25Z"/><path class="cls-2" d="M58.79,87.39a5,5,0,0,1,3.32.84,3,3,0,0,1,.94,2.39,3.91,3.91,0,0,1-.37,1.79,2.54,2.54,0,0,1-1.31,1.15,6.41,6.41,0,0,1-2.58.42h-2.5v2.11H53.34c.07-1.55.1-3,.1-4.36s0-2.8-.1-4.35h5.45ZM58,91.66a10.69,10.69,0,0,0,1.49-.08,1.17,1.17,0,0,0,.7-.28.85.85,0,0,0,.2-.6.81.81,0,0,0-.19-.59,1.05,1.05,0,0,0-.68-.27A11,11,0,0,0,58,89.76H56.29v1.9Z"/></svg>