<svg id="圖層_1" data-name="圖層 1" xmlns="http://www.w3.org/2000/svg" viewBox="0 0 81.51 110.32"><defs><style>.cls-1{fill:#fff;}.cls-2{fill:#eccbab;}.cls-3{fill:#302921;}</style></defs><path class="cls-1" d="M41.4,107.87l-2-.16A18.23,18.23,0,0,0,41.4,107.87Z"/><path class="cls-2" d="M75.27,27H75.1c-2.88.28-7.76,13.55-9.88,18.69-.37.88-.74,1.71-1.11,2.48-.2.66-.42,1.35-.69,2.09-.34,1-.74,2-1.17,3s-.9,2-1.36,3S60,58,59.54,58.71A22.93,22.93,0,0,1,58,61.07a25.89,25.89,0,0,1,.64-2.74c.22-.81.52-1.74.87-2.71.12-.35.26-.71.39-1.07a3,3,0,0,1-1.46.86l-.12.57c-.22,1-.48,2-.76,3s-.55,1.83-.83,2.58a21,21,0,0,1-1,2.46,20.63,20.63,0,0,1,.08-2.67c.07-.79.17-1.71.33-2.69s.33-2,.56-3c.17-.78.37-1.55.57-2.3.24-1.47,1.11-3.69,1.6-7.06.77-5.36-1.49-8-3.23-8.26a17.19,17.19,0,0,0-4.36-.53,3.13,3.13,0,0,0-2.67,1.64,12.5,12.5,0,0,0-1,3.9c0,.28,0,.59,0,.94,0,.74,0,1.61-.07,2.53s-.14,1.9-.26,2.88S47,51.3,46.84,52.2s-.38,1.75-.58,2.47A19.52,19.52,0,0,1,45.47,57a18.45,18.45,0,0,1-.17-2.5c0-.74,0-1.61.06-2.53s.13-1.76.24-2.66a1.56,1.56,0,0,1-.75-.25c0,.14,0,.29,0,.43,0,.9,0,1.74,0,2.47a18,18,0,0,1-.25,2.43,17.3,17.3,0,0,1-.72-2.34c-.17-.7-.35-1.53-.49-2.42s-.28-1.84-.38-2.79-.14-1.92-.17-2.82,0-1.74,0-2.47c0-.17,0-.32,0-.48A90.56,90.56,0,0,1,42.59,20a40.17,40.17,0,0,0-.05-12.22c0,.13,0,.25-.08.37a5.6,5.6,0,0,1-.64,1.54,4.48,4.48,0,0,1-1.26,1.43,4.6,4.6,0,0,1-1.88.75l-.52.06h-.43a5.88,5.88,0,0,1-1-.1A4.28,4.28,0,0,1,35,11.05a3.76,3.76,0,0,1-1.17-1.36,4.89,4.89,0,0,1-.46-1.44,7.32,7.32,0,0,1,0-2.12,4.83,4.83,0,0,1,.11-.57l0-.2s.07.28.18.76A13.14,13.14,0,0,0,34.3,8a6.82,6.82,0,0,0,.6,1,3.09,3.09,0,0,0,.91.78,3.22,3.22,0,0,0,1.22.37,4.11,4.11,0,0,0,.69,0h.41l.3,0a3.28,3.28,0,0,0,2.15-1.33,7,7,0,0,0,.69-1.15c.18-.4.35-.8.49-1.19L42,5.83c-.87-2.24-2.3-3.46-4.38-3.39l-.5,0c-6.65.65-4.21,9.46-5,24.51-.26,5.16-.21,10.23-.21,14,0,.16.05.31.07.47.13.93.24,1.92.31,2.91s.1,2,.1,2.93,0,1.81-.08,2.56A19.29,19.29,0,0,1,32,52.36a19.7,19.7,0,0,1-.65-2.46c-.14-.65-.28-1.41-.39-2.21a1.56,1.56,0,0,1-.68.26,2.94,2.94,0,0,1-2.16-1l.15.3c.42.86.79,1.67,1.08,2.38a22.37,22.37,0,0,1,.9,2.44,17.57,17.57,0,0,1-1.73-1.94c-.49-.61-1-1.34-1.54-2.14s-1.07-1.68-1.56-2.58c-.25-.45-.49-.91-.71-1.36s-.42-.91-.62-1.35a23.4,23.4,0,0,1-.94-2.48,14.47,14.47,0,0,1-.48-1.83c-.08-.45-.11-.71-.11-.71l.1.13a180.07,180.07,0,0,1-7-17.26c-1.74-5.19-3.92-11.89-7-14a10.53,10.53,0,0,1,.93,1.33A7.56,7.56,0,0,1,10.2,9a7.66,7.66,0,0,1,.46,1.4,5.19,5.19,0,0,1,.1,1.69,3.19,3.19,0,0,1-.24.93,3,3,0,0,1-.58.93,1.21,1.21,0,0,1-.33.3l-.29.24-.11.08h0l0,0-.09.05-.17.1L8.52,15A7,7,0,0,1,7,15.5a4.33,4.33,0,0,1-1.6.07A3.37,3.37,0,0,1,4.05,15a4.34,4.34,0,0,1-1.32-1.48,2,2,0,0,1-.18-.36c.5,4.91,3.18,11.07,5,14.73,2.85,5.86,5,17.37,8.55,27.88s5.29,20.92,7.63,33.26c2,10.37,7,17.45,15.63,18.62a20.49,20.49,0,0,0,16.53-8.25C63.78,88.8,66.78,71,68.61,64.43h0A185.11,185.11,0,0,1,76.53,40a37.58,37.58,0,0,0,2-5.4,2.72,2.72,0,0,1-1.13.68,1.58,1.58,0,0,1-.44.11,1.51,1.51,0,0,1-.48,0l-.52,0-.32-.08-.08,0-.16,0-.18-.08L74.86,35a5,5,0,0,1-.68-.45,3.48,3.48,0,0,1-1-1.26,3.26,3.26,0,0,1-.35-1.41A3.64,3.64,0,0,1,73,30.62,4.9,4.9,0,0,1,73.64,29a3.43,3.43,0,0,1,.28-.38l.11-.13-.08.63a9.36,9.36,0,0,0,0,1.56,5.24,5.24,0,0,0,.16.95,2.89,2.89,0,0,0,.41.87,2.32,2.32,0,0,0,.69.67c.13.1.3.16.44.26l.26.1.1,0h0l.09,0,.32.09h.15a1.1,1.1,0,0,0,.39,0,2.07,2.07,0,0,0,.82-.42A7.88,7.88,0,0,0,79,31.88C79.23,29.27,78.36,27.24,75.27,27Zm-67-6.5c-.33.18-.63.35-.91.49a8.16,8.16,0,0,1-1,.44,5.64,5.64,0,0,1,.66-.82A6.07,6.07,0,0,1,9,19.16a4.3,4.3,0,0,1,1.24-.33,4.9,4.9,0,0,1,1.09,0,4.69,4.69,0,0,1,1,.22s-.41.13-1,.26a9.83,9.83,0,0,0-2,.62A9.4,9.4,0,0,0,8.31,20.45Zm3.47,11.48a4.84,4.84,0,0,1,1.78-1,3.4,3.4,0,0,1,1.13-.14,4.2,4.2,0,0,1,1,.15,4.15,4.15,0,0,1,.86.34,8,8,0,0,1-.9.15,9.67,9.67,0,0,0-1.81.31c-.31.08-.62.2-.92.31l-.85.31a7.32,7.32,0,0,1-.89.24A4.31,4.31,0,0,1,11.78,31.93Zm2.9,3.39a5.8,5.8,0,0,1-2.26,0,6,6,0,0,1-1-.28,8.49,8.49,0,0,1,1-.21l1-.13a7.93,7.93,0,0,0,1.07-.17,10.14,10.14,0,0,0,1.93-.65c.54-.23.95-.36.95-.36a4.76,4.76,0,0,1-.68.77,5.33,5.33,0,0,1-.86.63A4,4,0,0,1,14.68,35.32Zm6,23.18c-.21.11-.45.17-.62.28s-.35.19-.52.27l-.42.3a3.44,3.44,0,0,1-.38.25,4.43,4.43,0,0,1,.11-.44,3.62,3.62,0,0,1,.17-.49,6,6,0,0,1,.39-.61,4.2,4.2,0,0,1,.58-.63,5.54,5.54,0,0,1,.77-.54,7,7,0,0,1,.92-.42,8.56,8.56,0,0,1,1-.24,7.19,7.19,0,0,1,2,0,6.58,6.58,0,0,1,1.64.39,5,5,0,0,1,1.45.77s-.67.11-1.58.19l-1.53.15c-.55.05-1.12.12-1.67.21-.28,0-.54.11-.81.15s-.52.12-.77.2S20.9,58.39,20.7,58.5ZM33.38,98.87c-.25-.44-.54-1-.83-1.63s-.65-1.35-1-2.16-.66-1.69-1-2.64-.63-2-.9-3-.57-2.13-.83-3.23S28.34,84,28,82.9s-.57-2.2-.87-3.28-.6-2.14-.93-3.16c-.62-2-1.24-3.95-1.78-5.58l-1.29-4c-.3-1-.46-1.52-.46-1.52s.29.51.77,1.39,1.16,2.16,1.88,3.74c.37.78.77,1.64,1.14,2.56S27.29,75,27.65,76a65.76,65.76,0,0,1,2,6.49c.29,1.13.53,2.26.78,3.36s.45,2.2.69,3.25l.66,3c.25,1,.46,1.85.7,2.67.45,1.65.87,3,1.18,4s.46,1.52.46,1.52S33.86,99.76,33.38,98.87ZM38.6,84c.06,1,.07,1.89.12,2.8.07,1.81.16,3.49.27,4.93s.21,2.66.28,3.51.1,1.34.1,1.34-.16-.46-.43-1.27c-.13-.41-.29-.91-.43-1.49s-.34-1.23-.48-1.95-.31-1.5-.45-2.33-.26-1.72-.34-2.63-.2-1.85-.27-2.8l-.24-2.88c-.07-1-.17-1.92-.26-2.86s-.19-1.88-.28-2.77c-.2-1.81-.38-3.49-.54-4.93s-.28-2.67-.36-3.52-.09-1.34-.09-1.34.16.46.42,1.28.63,2,1,3.4c.19.71.38,1.48.55,2.3s.37,1.69.51,2.6c.34,1.8.57,3.75.75,5.7C38.49,82.1,38.54,83.07,38.6,84Zm1.52-27.15c-.2-.07-.43-.12-.66-.19s-.48-.12-.73-.15-.51-.07-.77-.11-.54,0-.8,0-.55,0-.82,0-.54,0-.8.06l-.78.09-.69.1c-.45,0-.86.15-1.14.17s-.45,0-.45,0l.31-.34.36-.35a2.62,2.62,0,0,1,.53-.4c.21-.13.44-.28.7-.42s.54-.23.83-.34a6,6,0,0,1,.95-.23,6.9,6.9,0,0,1,1-.08,5.47,5.47,0,0,1,2,.4,4.57,4.57,0,0,1,1.47,1,3.81,3.81,0,0,1,.74,1,2.23,2.23,0,0,1,.18.43A12.09,12.09,0,0,0,40.12,56.88Zm-.77-21a6.35,6.35,0,0,1-1.21.4,5.3,5.3,0,0,1-1.5.09,7.39,7.39,0,0,1-2.59-.81A7.08,7.08,0,0,1,33,34.9a11.16,11.16,0,0,1,1.21.16l1.19.23c.22.05.44.08.66.12s.45.07.67.08a11.12,11.12,0,0,0,2.5-.12c.71-.1,1.21-.13,1.21-.13A6,6,0,0,1,39.35,35.84Zm-.21-2.94a10.5,10.5,0,0,0-2.23-.32c-.4,0-.8,0-1.2.05s-.77.07-1.09.08a8.67,8.67,0,0,1-1.11,0,7.58,7.58,0,0,1,1-.49,6.54,6.54,0,0,1,2.41-.5,4.55,4.55,0,0,1,1.35.23,5.15,5.15,0,0,1,1,.48,5.32,5.32,0,0,1,.9.66S39.77,33.05,39.14,32.9ZM37.62,17.15l-1,.06a8.12,8.12,0,0,1-1,0,6.06,6.06,0,0,1,.94-.46,5.9,5.9,0,0,1,2.28-.47,4.26,4.26,0,0,1,1.26.22,5.19,5.19,0,0,1,1.83,1.11,9.81,9.81,0,0,1-1-.19,10.72,10.72,0,0,0-2.09-.3A10.57,10.57,0,0,0,37.62,17.15ZM51.8,38.28A6.21,6.21,0,0,1,54.12,38a3.9,3.9,0,0,1,1.25.32,4.66,4.66,0,0,1,1,.55,4.87,4.87,0,0,1,.79.7s-.42-.09-1-.27A9.92,9.92,0,0,0,54,38.83a10.84,10.84,0,0,0-1.13-.06h-1a9,9,0,0,1-1-.09A6.57,6.57,0,0,1,51.8,38.28ZM53.52,61.6c-.69-.41-1.52-1-2.33-1.42-.2-.13-.42-.22-.61-.34s-.41-.2-.61-.28-.39-.17-.58-.22-.38-.14-.55-.17l-.48-.12-.45,0a2.77,2.77,0,0,1-.39-.07s.11-.1.31-.25a2.24,2.24,0,0,1,.36-.26,4.52,4.52,0,0,1,.6-.22,3.36,3.36,0,0,1,.74-.13,3.91,3.91,0,0,1,.83,0,5.54,5.54,0,0,1,.85.21,8.41,8.41,0,0,1,.81.37,5.92,5.92,0,0,1,1.34,1.06,5.53,5.53,0,0,1,.87,1.17,4.2,4.2,0,0,1,.5,1.35A13.87,13.87,0,0,1,53.52,61.6ZM51.86,40,51,39.92l-.35-.05a5.63,5.63,0,0,1,1.26-.31,5.86,5.86,0,0,1,.63-.06,4.43,4.43,0,0,1,.72,0,6.29,6.29,0,0,1,1.51.37,14.75,14.75,0,0,1,2.5,1.3,10.64,10.64,0,0,1,1.05.74,10.16,10.16,0,0,1-1.25-.3c-.74-.21-1.68-.6-2.59-1a11.49,11.49,0,0,0-1.34-.43C52.65,40.16,52.23,40.09,51.86,40ZM65.05,71.15l-.85-1c-.24-.27-.51-.56-.8-.85L63,68.92a5.71,5.71,0,0,0-.48-.38,4,4,0,0,0-.49-.35c-.16-.13-.35-.19-.51-.3s-.36-.17-.53-.26-.33-.15-.49-.23-.3-.15-.46-.19-.29-.1-.4-.14l-.34-.15a2.9,2.9,0,0,1,.33-.18,2.59,2.59,0,0,1,.93-.3,3.06,3.06,0,0,1,.69-.06,4.13,4.13,0,0,1,.76.09,3.24,3.24,0,0,1,.79.28,3.78,3.78,0,0,1,.75.44,4.17,4.17,0,0,1,1.58,2.6A2.9,2.9,0,0,1,65.05,71.15Zm5.78-19.7a5.1,5.1,0,0,1-1.15.08,4.32,4.32,0,0,1-1.34-.27,6.49,6.49,0,0,1-2.07-1.33,6.66,6.66,0,0,1-.76-.81,7.88,7.88,0,0,1,1,.41c.3.13.63.3,1,.47a11.72,11.72,0,0,0,1.1.47,10.27,10.27,0,0,0,2.2.5c.63.09,1.08.19,1.08.19A5.16,5.16,0,0,1,70.83,51.45Zm.54-2.07a10.41,10.41,0,0,0-1.86-.78c-.34-.1-.7-.17-1.05-.24s-.68-.13-1-.2a6.92,6.92,0,0,1-1-.27,5.93,5.93,0,0,1,1-.21,5.59,5.59,0,0,1,2.23.11,4.17,4.17,0,0,1,1.13.52,4.62,4.62,0,0,1,.79.68,4.23,4.23,0,0,1,.62.81A9.94,9.94,0,0,1,71.37,49.38Zm2.35-10.89a3.48,3.48,0,0,1,1.65,1.06,3.61,3.61,0,0,1,.51.71,7.24,7.24,0,0,1-.8-.32,9.75,9.75,0,0,0-1.59-.64c-.29-.09-.6-.15-.89-.21l-.83-.19a5.52,5.52,0,0,1-.83-.27A4.87,4.87,0,0,1,73.72,38.49Z"/><path class="cls-2" d="M3.64,13.76a4.41,4.41,0,0,0,.85.39,3.31,3.31,0,0,0,1,.12A4.21,4.21,0,0,0,6.58,14a8.08,8.08,0,0,0,1.15-.56A2.82,2.82,0,0,0,8,13.29l.15-.09.07,0h0l.26-.21c.09-.08.23-.17.22-.22s.13-.15.19-.34.07-.15.1-.24l.06-.27a4.81,4.81,0,0,0,.05-1.21C9.09,10.23,9,9.81,9,9.41s-.17-.79-.26-1.14c-.19-.72-.36-1.33-.49-1.76l-.08-.29A3.17,3.17,0,0,0,6.4,5.88a3.89,3.89,0,0,0-1.68.6C2.78,7.67,2.27,10.1,2.53,13l.46.35C3.17,13.47,3.39,13.61,3.64,13.76Z"/><path class="cls-3" d="M75.49,24.52a4.42,4.42,0,0,0-.63,0c-3.39.32-6.1,5.72-10.9,17.7-.37.94-.71,1.78-1,2.47a42.8,42.8,0,0,1-2.19,4.58c.18-.81.35-1.7.49-2.68.93-6.51-2-10.53-5.28-11-.23,0-.5-.09-.8-.15A13.93,13.93,0,0,0,51,35,5.49,5.49,0,0,0,46.44,38a11.71,11.71,0,0,0-1.06,3.5v0A88.57,88.57,0,0,1,45,20.24C46.08,11,45.27,5,42.54,2.07a6.36,6.36,0,0,0-5-2.07l-.64.05c-3.35.32-5.5,2.26-6.39,5.75-.68,2.66-.66,6.17-.64,10.61,0,3.06,0,6.54-.16,10.44-.24,4.59-.23,9.09-.22,12.7,0,1.9,0,4,0,5.3a9.18,9.18,0,0,1-.95-1.25C25.36,38.91,20.17,26.37,18,19.79l-.12-.38C15.38,12,12.31,2.86,6.17,3.45a6.39,6.39,0,0,0-2.72,1C-1.71,7.56-1.08,15.84,5.32,29c1.5,3.1,2.89,8.25,4.35,13.7,1.17,4.34,2.49,9.25,4.08,13.91,3.08,9,4.75,18,6.68,28.33.28,1.51.57,3,.86,4.6,1.29,6.8,3.79,12,7.44,15.62,4.05,4,9.3,5.66,15.59,5,.75-.07,1.52-.18,2.3-.32,12.62-2.26,15-9.8,17.11-16.45.16-.53.33-1.05.5-1.58C66.41,85.2,69.32,75,70.34,68.16,71.27,62,76.47,46,78.75,41c2.93-6.5,3.5-10.66,1.85-13.49A6.21,6.21,0,0,0,75.49,24.52ZM4.72,6.48a3.89,3.89,0,0,1,1.68-.6,3.17,3.17,0,0,1,1.73.34l.08.29c.13.43.3,1,.49,1.76.09.35.17.74.26,1.14s.13.82.18,1.24a4.81,4.81,0,0,1-.05,1.21L9,12.13c0,.09-.07.16-.1.24s-.15.23-.19.34-.13.14-.22.22l-.26.21h0l-.07,0L8,13.29a2.82,2.82,0,0,1-.29.18A8.08,8.08,0,0,1,6.58,14a4.21,4.21,0,0,1-1.09.24,3.31,3.31,0,0,1-1-.12,4.41,4.41,0,0,1-.85-.39c-.25-.15-.47-.29-.65-.42L2.53,13C2.27,10.1,2.78,7.67,4.72,6.48Zm34.7,101.23,2,.16A18.23,18.23,0,0,1,39.42,107.71ZM79,31.88a7.88,7.88,0,0,1-1.27,1.38,2.07,2.07,0,0,1-.82.42,1.1,1.1,0,0,1-.39,0H76.4l-.32-.09-.09,0h0l-.1,0-.26-.1c-.14-.1-.31-.16-.44-.26a2.32,2.32,0,0,1-.69-.67,2.89,2.89,0,0,1-.41-.87,5.24,5.24,0,0,1-.16-.95,9.36,9.36,0,0,1,0-1.56l.08-.63-.11.13a3.43,3.43,0,0,0-.28.38A4.9,4.9,0,0,0,73,30.62a3.64,3.64,0,0,0-.12,1.22,3.26,3.26,0,0,0,.35,1.41,3.48,3.48,0,0,0,1,1.26,5,5,0,0,0,.68.45l.37.16.18.08.16,0,.08,0,.32.08.52,0a1.51,1.51,0,0,0,.48,0,1.58,1.58,0,0,0,.44-.11,2.72,2.72,0,0,0,1.13-.68,37.58,37.58,0,0,1-2,5.4,185.11,185.11,0,0,0-7.92,24.46h0c-1.83,6.53-4.83,24.37-12.76,35a20.49,20.49,0,0,1-16.53,8.25c-8.59-1.17-13.67-8.25-15.63-18.62-2.34-12.34-4-22.75-7.63-33.26s-5.7-22-8.55-27.88c-1.78-3.66-4.46-9.82-5-14.73a2,2,0,0,0,.18.36A4.34,4.34,0,0,0,4.05,15a3.37,3.37,0,0,0,1.34.53A4.33,4.33,0,0,0,7,15.5,7,7,0,0,0,8.52,15l.36-.19.17-.1.09-.05,0,0h0l.11-.08.29-.24a1.21,1.21,0,0,0,.33-.3,3,3,0,0,0,.58-.93,3.19,3.19,0,0,0,.24-.93,5.19,5.19,0,0,0-.1-1.69A7.66,7.66,0,0,0,10.2,9a7.56,7.56,0,0,0-.58-1.14,10.53,10.53,0,0,0-.93-1.33c3.05,2.13,5.23,8.83,7,14a180.07,180.07,0,0,0,7,17.26l-.1-.13s0,.26.11.71a14.47,14.47,0,0,0,.48,1.83,23.4,23.4,0,0,0,.94,2.48c.2.44.39.9.62,1.35s.46.91.71,1.36c.49.9,1,1.78,1.56,2.58s1.05,1.53,1.54,2.14a17.57,17.57,0,0,0,1.73,1.94,22.37,22.37,0,0,0-.9-2.44c-.29-.71-.66-1.52-1.08-2.38l-.15-.3a2.94,2.94,0,0,0,2.16,1,1.56,1.56,0,0,0,.68-.26c.11.8.25,1.56.39,2.21A19.7,19.7,0,0,0,32,52.36a19.29,19.29,0,0,0,.32-2.52c0-.75.08-1.63.08-2.56s0-1.94-.1-2.93-.18-2-.31-2.91c0-.16,0-.31-.07-.47,0-3.76-.05-8.83.21-14,.78-15-1.66-23.86,5-24.51l.5,0c2.08-.07,3.51,1.15,4.38,3.39l-.23.67c-.14.39-.31.79-.49,1.19a7,7,0,0,1-.69,1.15,3.28,3.28,0,0,1-2.15,1.33l-.3,0h-.41a4.11,4.11,0,0,1-.69,0,3.22,3.22,0,0,1-1.22-.37A3.09,3.09,0,0,1,34.9,9a6.82,6.82,0,0,1-.6-1,13.14,13.14,0,0,1-.59-1.87c-.11-.48-.18-.76-.18-.76l0,.2a4.83,4.83,0,0,0-.11.57,7.32,7.32,0,0,0,0,2.12,4.89,4.89,0,0,0,.46,1.44A3.76,3.76,0,0,0,35,11.05a4.28,4.28,0,0,0,1.77.75,5.88,5.88,0,0,0,1,.1h.43l.52-.06a4.6,4.6,0,0,0,1.88-.75,4.48,4.48,0,0,0,1.26-1.43,5.6,5.6,0,0,0,.64-1.54c0-.12,0-.24.08-.37A40.17,40.17,0,0,1,42.59,20a90.56,90.56,0,0,0,.3,21.14c0,.16,0,.31,0,.48,0,.73,0,1.57,0,2.47s.08,1.86.17,2.82.23,1.9.38,2.79.32,1.72.49,2.42a17.3,17.3,0,0,0,.72,2.34A18,18,0,0,0,44.85,52c0-.73,0-1.57,0-2.47,0-.14,0-.29,0-.43a1.56,1.56,0,0,0,.75.25c-.11.9-.19,1.81-.24,2.66s-.08,1.79-.06,2.53a18.45,18.45,0,0,0,.17,2.5,19.52,19.52,0,0,0,.79-2.37c.2-.72.4-1.56.58-2.47s.34-1.88.47-2.85.21-2,.26-2.88.08-1.79.07-2.53c0-.35,0-.66,0-.94a12.5,12.5,0,0,1,1-3.9,3.13,3.13,0,0,1,2.67-1.64,17.19,17.19,0,0,1,4.36.53c1.74.26,4,2.9,3.23,8.26-.49,3.37-1.36,5.59-1.6,7.06-.2.75-.4,1.52-.57,2.3-.23,1-.42,2.06-.56,3s-.26,1.9-.33,2.69A20.63,20.63,0,0,0,55.71,64a21,21,0,0,0,1-2.46c.28-.75.56-1.63.83-2.58s.54-2,.76-3l.12-.57a3,3,0,0,0,1.46-.86c-.13.36-.27.72-.39,1.07-.35,1-.65,1.9-.87,2.71A25.89,25.89,0,0,0,58,61.07a22.93,22.93,0,0,0,1.53-2.36c.43-.72.89-1.58,1.35-2.51s.93-1.94,1.36-3,.83-2.06,1.17-3c.27-.74.49-1.43.69-2.09.37-.77.74-1.6,1.11-2.48,2.12-5.14,7-18.41,9.88-18.69h.17C78.36,27.24,79.23,29.27,79,31.88Z"/><path class="cls-3" d="M32.51,94.76c-.24-.82-.45-1.72-.7-2.67l-.66-3c-.24-1-.43-2.14-.69-3.25s-.49-2.23-.78-3.36a65.76,65.76,0,0,0-2-6.49c-.36-1-.77-2-1.15-2.91s-.77-1.78-1.14-2.56c-.72-1.58-1.4-2.85-1.88-3.74s-.77-1.39-.77-1.39.16.56.46,1.52l1.29,4c.54,1.63,1.16,3.54,1.78,5.58.33,1,.6,2.09.93,3.16s.61,2.18.87,3.28.57,2.21.83,3.31.55,2.18.83,3.23.59,2,.9,3,.64,1.83,1,2.64.65,1.53,1,2.16.58,1.19.83,1.63c.48.89.77,1.39.77,1.39s-.16-.56-.46-1.52S33,96.41,32.51,94.76Z"/><path class="cls-3" d="M37.15,72.82c-.17-.82-.36-1.59-.55-2.3-.35-1.42-.72-2.59-1-3.4s-.42-1.28-.42-1.28,0,.49.09,1.34.21,2.07.36,3.52.34,3.12.54,4.93c.09.89.19,1.82.28,2.77s.19,1.9.26,2.86L37,84.14c.07,1,.17,1.89.27,2.8s.22,1.79.34,2.63.28,1.61.45,2.33.32,1.38.48,1.95.3,1.08.43,1.49c.27.81.43,1.27.43,1.27s0-.49-.1-1.34-.16-2.06-.28-3.51-.2-3.12-.27-4.93c0-.91-.06-1.85-.12-2.8s-.11-1.93-.19-2.91c-.18-2-.41-3.9-.75-5.7C37.52,74.51,37.33,73.64,37.15,72.82Z"/><path class="cls-3" d="M17.38,33.48s-.41.13-.95.36a10.14,10.14,0,0,1-1.93.65,7.93,7.93,0,0,1-1.07.17l-1,.13a8.49,8.49,0,0,0-1,.21,6,6,0,0,0,1,.28,5.8,5.8,0,0,0,2.26,0,4,4,0,0,0,1.16-.44,5.33,5.33,0,0,0,.86-.63A4.76,4.76,0,0,0,17.38,33.48Z"/><path class="cls-3" d="M12.87,32c.3-.11.61-.23.92-.31a9.67,9.67,0,0,1,1.81-.31,8,8,0,0,0,.9-.15,4.15,4.15,0,0,0-.86-.34,4.2,4.2,0,0,0-1-.15,3.4,3.4,0,0,0-1.13.14,4.84,4.84,0,0,0-1.78,1,4.31,4.31,0,0,0-.65.66,7.32,7.32,0,0,0,.89-.24Z"/><path class="cls-3" d="M39.22,35.37a11.12,11.12,0,0,1-2.5.12c-.22,0-.45-.05-.67-.08s-.44-.07-.66-.12l-1.19-.23A11.16,11.16,0,0,0,33,34.9a7.08,7.08,0,0,0,1.06.62,7.39,7.39,0,0,0,2.59.81,5.3,5.3,0,0,0,1.5-.09,6.35,6.35,0,0,0,1.21-.4,6,6,0,0,0,1.08-.6S39.93,35.27,39.22,35.37Z"/><path class="cls-3" d="M39.32,32.45a5.15,5.15,0,0,0-1-.48,4.55,4.55,0,0,0-1.35-.23,6.54,6.54,0,0,0-2.41.5,7.58,7.58,0,0,0-1,.49,8.67,8.67,0,0,0,1.11,0c.32,0,.7-.05,1.09-.08s.8-.06,1.2-.05a10.5,10.5,0,0,1,2.23.32c.63.15,1.08.21,1.08.21A5.32,5.32,0,0,0,39.32,32.45Z"/><path class="cls-3" d="M68.63,50.47a11.72,11.72,0,0,1-1.1-.47c-.36-.17-.69-.34-1-.47a7.88,7.88,0,0,0-1-.41,6.66,6.66,0,0,0,.76.81,6.49,6.49,0,0,0,2.07,1.33,4.32,4.32,0,0,0,1.34.27,5.1,5.1,0,0,0,1.15-.08,5.16,5.16,0,0,0,1.08-.29s-.45-.1-1.08-.19A10.27,10.27,0,0,1,68.63,50.47Z"/><path class="cls-3" d="M70.87,48.31a4.17,4.17,0,0,0-1.13-.52,5.59,5.59,0,0,0-2.23-.11,5.93,5.93,0,0,0-1,.21,6.92,6.92,0,0,0,1,.27c.29.07.62.13,1,.2s.71.14,1.05.24a10.41,10.41,0,0,1,1.86.78,9.94,9.94,0,0,0,.91.42,4.23,4.23,0,0,0-.62-.81A4.62,4.62,0,0,0,70.87,48.31Z"/><path class="cls-3" d="M70.94,38.63a5.52,5.52,0,0,0,.83.27l.83.19c.29.06.6.12.89.21a9.75,9.75,0,0,1,1.59.64,7.24,7.24,0,0,0,.8.32,3.61,3.61,0,0,0-.51-.71,3.48,3.48,0,0,0-1.65-1.06A4.87,4.87,0,0,0,70.94,38.63Z"/><path class="cls-3" d="M41.86,17.6A5.19,5.19,0,0,0,40,16.49a4.26,4.26,0,0,0-1.26-.22,5.9,5.9,0,0,0-2.28.47,6.06,6.06,0,0,0-.94.46,8.12,8.12,0,0,0,1,0l1-.06a10.57,10.57,0,0,1,1.13,0,10.72,10.72,0,0,1,2.09.3A9.81,9.81,0,0,0,41.86,17.6Z"/><path class="cls-3" d="M12.33,19.06a4.69,4.69,0,0,0-1-.22,4.9,4.9,0,0,0-1.09,0A4.3,4.3,0,0,0,9,19.16a6.07,6.07,0,0,0-1.86,1.4,5.64,5.64,0,0,0-.66.82,8.16,8.16,0,0,0,1-.44c.28-.14.58-.31.91-.49a9.4,9.4,0,0,1,1-.51,9.83,9.83,0,0,1,2-.62C11.92,19.19,12.33,19.06,12.33,19.06Z"/><path class="cls-3" d="M57,41.64a10.16,10.16,0,0,0,1.25.3,10.64,10.64,0,0,0-1.05-.74,14.75,14.75,0,0,0-2.5-1.3,6.29,6.29,0,0,0-1.51-.37,4.43,4.43,0,0,0-.72,0,5.86,5.86,0,0,0-.63.06,5.63,5.63,0,0,0-1.26.31l.35.05.91.12c.37.05.79.12,1.23.22a11.49,11.49,0,0,1,1.34.43C55.34,41,56.28,41.43,57,41.64Z"/><path class="cls-3" d="M52.91,38.77a10.84,10.84,0,0,1,1.13.06,9.92,9.92,0,0,1,2.06.46c.59.18,1,.27,1,.27a4.87,4.87,0,0,0-.79-.7,4.66,4.66,0,0,0-1-.55A3.9,3.9,0,0,0,54.12,38a6.21,6.21,0,0,0-2.32.29,6.57,6.57,0,0,0-1,.39,9,9,0,0,0,1,.09Z"/><path class="cls-3" d="M23,57.9c.55-.09,1.12-.16,1.67-.21l1.53-.15c.91-.08,1.58-.19,1.58-.19a5,5,0,0,0-1.45-.77,6.58,6.58,0,0,0-1.64-.39,7.19,7.19,0,0,0-2,0,8.56,8.56,0,0,0-1,.24,7,7,0,0,0-.92.42,5.54,5.54,0,0,0-.77.54,4.2,4.2,0,0,0-.58.63,6,6,0,0,0-.39.61,3.62,3.62,0,0,0-.17.49,4.43,4.43,0,0,0-.11.44,3.44,3.44,0,0,0,.38-.25l.42-.3c.17-.08.35-.17.52-.27s.41-.17.62-.28.46-.15.69-.25.51-.12.77-.2S22.69,57.93,23,57.9Z"/><path class="cls-3" d="M53.36,59.76A5.92,5.92,0,0,0,52,58.7a8.41,8.41,0,0,0-.81-.37,5.54,5.54,0,0,0-.85-.21,3.91,3.91,0,0,0-.83,0,3.36,3.36,0,0,0-.74.13,4.52,4.52,0,0,0-.6.22,2.24,2.24,0,0,0-.36.26c-.2.15-.31.25-.31.25a2.77,2.77,0,0,0,.39.07l.45,0,.48.12c.17,0,.37.13.55.17s.39.16.58.22.4.2.61.28.41.21.61.34c.81.46,1.64,1,2.33,1.42a13.87,13.87,0,0,0,1.21.68,4.2,4.2,0,0,0-.5-1.35A5.53,5.53,0,0,0,53.36,59.76Z"/><path class="cls-3" d="M63.51,67.19a3.78,3.78,0,0,0-.75-.44,3.24,3.24,0,0,0-.79-.28,4.13,4.13,0,0,0-.76-.09,3.06,3.06,0,0,0-.69.06,2.59,2.59,0,0,0-.93.3,2.9,2.9,0,0,0-.33.18l.34.15c.11,0,.25.1.4.14s.3.14.46.19.32.13.49.23.36.15.53.26.35.17.51.3a4,4,0,0,1,.49.35,5.71,5.71,0,0,1,.48.38l.44.42c.29.29.56.58.8.85l.85,1a2.9,2.9,0,0,0,0-1.36A4.17,4.17,0,0,0,63.51,67.19Z"/><path class="cls-3" d="M40.64,56.06a4.57,4.57,0,0,0-1.47-1,5.47,5.47,0,0,0-2-.4,6.9,6.9,0,0,0-1,.08,6,6,0,0,0-.95.23c-.29.11-.57.22-.83.34s-.49.29-.7.42a2.62,2.62,0,0,0-.53.4l-.36.35-.31.34s.17,0,.45,0,.69-.13,1.14-.17l.69-.1.78-.09c.26,0,.53,0,.8-.06s.54,0,.82,0,.53,0,.8,0,.52,0,.77.11.49.1.73.15.46.12.66.19a12.09,12.09,0,0,1,1.44.57,2.23,2.23,0,0,0-.18-.43A3.81,3.81,0,0,0,40.64,56.06Z"/></svg>