<svg id="圖層_1" data-name="圖層 1" xmlns="http://www.w3.org/2000/svg" viewBox="0 0 195.84 41.18"><defs><style>.cls-1{fill:#fff;}</style></defs><path class="cls-1" d="M4.13,41.18A3.89,3.89,0,0,1,1.18,40a4.17,4.17,0,0,1,0-5.81,3.92,3.92,0,0,1,3-1.22,4,4,0,0,1,2.93,1.22,4.12,4.12,0,0,1,0,5.81A3.93,3.93,0,0,1,4.13,41.18Z"/><path class="cls-1" d="M20.3,41.18A3.92,3.92,0,0,1,17.35,40a4.19,4.19,0,0,1,0-5.81,4.15,4.15,0,0,1,5.88,0,4.12,4.12,0,0,1,0,5.81A3.92,3.92,0,0,1,20.3,41.18Z"/><path class="cls-1" d="M36.48,41.18A3.89,3.89,0,0,1,33.53,40a4.17,4.17,0,0,1,0-5.81,3.92,3.92,0,0,1,2.95-1.22,4,4,0,0,1,2.93,1.22,4.12,4.12,0,0,1,0,5.81A3.93,3.93,0,0,1,36.48,41.18Z"/><path class="cls-1" d="M45.84,40.42V38.83l5.85-1.34,1.11-.15,5.81.15v1.58Zm.62-34.13V4.66l7.39-.77V6.14l-.67.1ZM51,39.84l.15-35.66L53,4l.29,18.63v17ZM65,38.4l-13-32.21-.34,0V4.13l7.06-.77L69.45,30.14l-1.29.15.33-.87L78.72,1.3,81.36,1V3.12L80,3.26l-.58,1.68-12,33.22Zm9.36-1V35.81l7.49-1.54,1.34-.09,7.54-.1v1.63ZM78.72,37q.14-4.23.14-8.28c0-2.7,0-5.18,0-7.42l.19-20L86.4.48c-.1,2.75-.15,5.53-.17,8.33s0,5.61,0,8.42v2.21c0,2.82,0,5.62,0,8.42s.07,5.56.17,8.28ZM82.51,3.12V.86L90.67,0V1.63L83.28,3.07Z"/><path class="cls-1" d="M111.07,39.5a15.79,15.79,0,0,1-6.34-.5,13.65,13.65,0,0,1-5.37-3,14.7,14.7,0,0,1-3.7-5.5,21.55,21.55,0,0,1-1.34-8,23.8,23.8,0,0,1,1.34-8.21A19.16,19.16,0,0,1,99.36,8,18.53,18.53,0,0,1,111.07,2a16.37,16.37,0,0,1,6.36.55,13.72,13.72,0,0,1,5.35,3,14.39,14.39,0,0,1,3.7,5.5,21.7,21.7,0,0,1,1.34,8,23.8,23.8,0,0,1-1.34,8.21,19.16,19.16,0,0,1-3.7,6.26,18.51,18.51,0,0,1-5.35,4.15A17.5,17.5,0,0,1,111.07,39.5Zm0-1.77a7.08,7.08,0,0,0,4-1.68,11,11,0,0,0,2.79-3.87,22.87,22.87,0,0,0,1.65-5.56,39.15,39.15,0,0,0,.56-6.8,37.07,37.07,0,0,0-.56-6.67,19.23,19.23,0,0,0-1.65-5.21,8.3,8.3,0,0,0-2.79-3.28,5.88,5.88,0,0,0-4-.87,7.12,7.12,0,0,0-4,1.71,11.17,11.17,0,0,0-2.81,3.88,23.51,23.51,0,0,0-1.65,5.55,38.67,38.67,0,0,0-.55,6.77,37.11,37.11,0,0,0,.55,6.67,19.58,19.58,0,0,0,1.65,5.21,8.5,8.5,0,0,0,2.81,3.31A5.76,5.76,0,0,0,111.07,37.73Z"/><path class="cls-1" d="M131.33,6.19V4.61l8.25-.91V6l-.72.1Zm0,34.08V38.69l7.53-1.54,1.49-.14,7.49,0v1.58Zm4.41-.43q.1-4.12.12-8.33t0-8.42V20.88q0-4.23,0-8.4c0-2.78-.05-5.57-.12-8.35l7.59-.82c-.1,2.75-.16,5.55-.17,8.38s0,5.85,0,9V22c0,2.91,0,5.78,0,8.59s.07,5.62.17,8.4Zm24.19-1.92a8.75,8.75,0,0,1-4.82-.53,4.27,4.27,0,0,1-2.09-3.5l-1.58-6.77a13.09,13.09,0,0,0-1-3.14,3.45,3.45,0,0,0-1.7-1.73,5.89,5.89,0,0,0-3-.31l-6,.62V20.83l6.67-.72a8.39,8.39,0,0,0,4.37-1.49,7.43,7.43,0,0,0,2.47-3.14,10.48,10.48,0,0,0,.79-4.1q0-3.56-1.92-5.26T146.35,4.8l-6.77.67V3.7l8.59-.87q6.2-.68,9.51,1.35A6.86,6.86,0,0,1,161,10.51a8.43,8.43,0,0,1-1.25,4.32,10.86,10.86,0,0,1-4.08,3.75,22.85,22.85,0,0,1-7.58,2.4v-.53a18.07,18.07,0,0,1,6.36.41,5.81,5.81,0,0,1,3.29,2.32,11.77,11.77,0,0,1,1.53,4.23l2,9.21-3.65-1.2,7.73-.33v1.63c-.93.29-1.78.54-2.55.74A16.39,16.39,0,0,1,159.93,37.92Z"/><path class="cls-1" d="M167.76,6.29V4.7L176,3.84V6.1l-.72.09Zm0,34.08V38.78l7.53-1.53.72-.1V39.5Zm4.41-.48q.11-4.12.12-8.31c0-2.78,0-5.6,0-8.44V20.93q0-4.23,0-8.4c0-2.79,0-5.55-.12-8.31l7.68-.81c-.06,2.72-.1,5.49-.12,8.33s0,5.73,0,8.71v1.39q0,4.56,0,8.81t.12,8.42Zm20.07-28.42-2.45-9,3.65,1.39L176,5.66V3.84l18.82-2,0,9.36ZM176,22.18V20.45l11.86-1.2v1.68Zm0,17.32V37.68l18.44-2-3.7,2.11,2.5-9.84,2.54-.28.05,9.74Zm11.28-13.68-.72-5.28v-1l.72-5.33L189.6,14V25.58Z"/></svg>