<svg id="圖層_1" data-name="圖層 1" xmlns="http://www.w3.org/2000/svg" viewBox="0 0 77.18 49.13"><defs><style>.cls-1{fill:#09c;stroke:#020100;stroke-miterlimit:10;}</style></defs><path class="cls-1" d="M70.35,48.6a5.63,5.63,0,0,1-5.07-5.88v-.13c.62-12.53-1.69-12.66-2.56-12.71-1.15-.07-2.09.74-4.5,3.36S53,38.91,48.51,40c-4.74,1.19-9.16.46-12.45-2a13,13,0,0,1-4.9-10.29,36.43,36.43,0,0,1,.59-6.64,17.36,17.36,0,0,0,.32-5.93l0-.1a9.91,9.91,0,0,0-2.79,3c-.36.59-.72,1.24-1.09,1.9-2.35,4.2-6.59,11.8-15.11,11a14.86,14.86,0,0,1-1.87-.31C3.74,28.85-.64,21.76.76,13.7A67,67,0,0,1,3,4.39,5.63,5.63,0,0,1,13.71,7.87a55.69,55.69,0,0,0-1.85,7.75c0,.14-.56,3.4,1.83,4,1.15.27,2-.48,4.64-5.16.43-.78.85-1.53,1.28-2.24,3-5,9-9.82,15-8.78,2,.35,6.89,2,8.44,9.48a26.8,26.8,0,0,1-.22,9.94,27.11,27.11,0,0,0-.46,4.6A2.35,2.35,0,0,0,42.88,29a4,4,0,0,0,2.9.08c1.24-.31,2.65-1.85,4.15-3.48,2.85-3.11,6.75-7.37,13.41-7,6.31.36,10.85,4.54,12.51,11.48,1.1,4.6.85,9.67.68,13v.13a5.63,5.63,0,0,1-5.9,5.35Z"/></svg>