<svg id="圖層_1" data-name="圖層 1" xmlns="http://www.w3.org/2000/svg" viewBox="0 0 178.52 58.62"><defs><style>.cls-1{fill:#fff;}.cls-2{fill:#302921;}</style></defs><path class="cls-1" d="M4.72,34.63a2.34,2.34,0,0,0-.7.59,4.67,4.67,0,0,0-.61.87,8.43,8.43,0,0,0-.57,1.27c-.07.24-.16.49-.23.75s-.13.54-.19.82a16.36,16.36,0,0,0-.23,1.8,17.54,17.54,0,0,0-.06,1.93c0,.65,0,1.31.11,2S2.4,46,2.5,46.58s.24,1.28.38,1.88a16,16,0,0,0,.51,1.73A15.14,15.14,0,0,0,4,51.69a10.69,10.69,0,0,0,1.23,2.07,3.75,3.75,0,0,0,.44.51l.16.17s-.15-.29-.36-.82a18.35,18.35,0,0,1-.72-2.2c-.24-.93-.46-2-.65-3.2C4,47.63,3.92,47,3.82,46.4s-.14-1.26-.19-1.9-.11-1.27-.16-1.9l0-.62,112.89-16c0-.75-.09-1.47-.13-2.17L3.41,40.23c0-.4,0-.79,0-1.16.05-.54.1-1,.17-1.51,0-.07,0-.12,0-.18L116.07,19.09c0-1.87.07-3,.07-3s.07.39.18,1.09c0,.22.06.56.12,1,.1.84.25,2,.42,3.46s.4,3.09.64,4.87.46,3.68.7,5.58.46,3.8.67,5.58.4,3.45.57,4.88.32,2.62.42,3.46c0,.12,0,.23,0,.34,0,.53.06.83.06.83s-.12-.4-.32-1.12l-113,9.31a2.45,2.45,0,0,0,.71.49L120.17,47.3l3.73.94-.31-2.53-3.47.29v0c0-.84.08-2,.07-3.49s-.07-3.13-.18-4.94c-.06-.9-.11-1.83-.21-2.78s-.21-1.9-.31-2.86-.27-1.91-.4-2.85-.31-1.86-.46-2.75c0-.23-.09-.46-.13-.68l2.57-.37-.27-2.16-2.73.4c-.16-.71-.31-1.4-.47-2-.23-1-.46-1.82-.66-2.53l3.29-.53-.58-4.71-3.39,1.82Z"/><path class="cls-1" d="M144.39,53.81l4.56-.56L142.73,2.78l-4.56.56ZM138.92,5.13l3.56-.44L142.77,7l-3.56.44Zm.45,3.68,3.56-.44,2.82,22.9-3.58.25Zm4.35,35.32,3.59-.23,1.09,8.87-3.56.44Z"/><path class="cls-1" d="M135.23,9.26l.54,3.47a.7.7,0,0,1,.61.73,1.17,1.17,0,0,1-.37.8l.15.92a1.23,1.23,0,0,1,.6-.57l-.48-3.95a.54.54,0,0,1-.41-.58.93.93,0,0,1,.27-.53l-.08-.67a1.56,1.56,0,0,1-.7.36Z"/><path class="cls-1" d="M125.59,34.55l-.06-.85,0-.05Z"/><path class="cls-1" d="M136.85,19.57a1,1,0,0,1,.53.84,1.27,1.27,0,0,1-.26.85l.21,1.34a1.27,1.27,0,0,1,.35-.55L137,16.54a.89.89,0,0,1-.65-.16Z"/><path class="cls-1" d="M164.24,6.18a25,25,0,0,0-6.07-1.89,34.49,34.49,0,0,0-9.36-.36c-1.12.11-2,.24-2.59.34l-.91.16.42,0,.07.57a.27.27,0,0,1,.12.18.35.35,0,0,1-.07.21l.11.92a1.37,1.37,0,0,1,.75-.33c.54-.06,1,.13,1.06.48s-.36.7-.92.77a1.24,1.24,0,0,1-.79-.14l.4,3.21a1.19,1.19,0,0,1,.71-.34,1,1,0,0,1,1.19.74,1,1,0,0,1-1,1.05,1.22,1.22,0,0,1-.77-.16l.49,4a1.16,1.16,0,0,1,.7-.34,1.11,1.11,0,0,1,1.27.92,1.13,1.13,0,0,1-1,1.23,1.12,1.12,0,0,1-.75-.16l.56,4.55a1.14,1.14,0,0,1,.68-.34,1.19,1.19,0,0,1,.29,2.37,1.16,1.16,0,0,1-.74-.16l.58,4.77a1.18,1.18,0,0,1,2,.73,1.2,1.2,0,0,1-1,1.35,1.18,1.18,0,0,1-.74-.16l.18,1.43a1.11,1.11,0,0,1,.68-.34,1.2,1.2,0,0,1,.29,2.38,1.17,1.17,0,0,1-.74-.17l.17,1.41a1.19,1.19,0,0,1,.69-.34,1.16,1.16,0,1,1,.28,2.3,1.14,1.14,0,0,1-.75-.16l.17,1.37a1.22,1.22,0,0,1,.69-.34,1.13,1.13,0,0,1,1.28,1,1.11,1.11,0,0,1-1,1.22,1.15,1.15,0,0,1-.76-.16l.16,1.32a1.16,1.16,0,0,1,.7-.34,1.08,1.08,0,0,1,1.24.89,1.06,1.06,0,0,1-1,1.13,1.15,1.15,0,0,1-.76-.17l.08.72c1.37-.17,2.73-.36,4.06-.57a1.4,1.4,0,0,1,.46-.16,1.22,1.22,0,0,1,.43,0c.69-.11,1.37-.23,2-.36a1,1,0,0,1-.08-.3,1.19,1.19,0,0,1,1-1.17.9.9,0,0,1,1.11.81.69.69,0,0,1,0,.25A44.69,44.69,0,0,0,164,40.8a.78.78,0,0,1-.6-.78,1.27,1.27,0,0,1,1-1.22.79.79,0,0,1,1,.8,1.24,1.24,0,0,1-.36.85c.41-.15.82-.3,1.21-.47a1.32,1.32,0,0,1,.86-.8.71.71,0,0,1,.63.13,19.84,19.84,0,0,0,2.59-1.53.93.93,0,0,1-.1-.42,1.31,1.31,0,0,1,.79-1.23.6.6,0,0,1,.74.49,12.78,12.78,0,0,0,1.62-1.83.93.93,0,0,1-.24-.66,1.22,1.22,0,0,1,.59-1.19.42.42,0,0,1,.49.22,18.36,18.36,0,0,1-2,5.27c-.27.51-.6,1-.9,1.45s-.66.91-1,1.32A19.3,19.3,0,0,1,168,43.54,26.24,26.24,0,0,1,163,47a39.69,39.69,0,0,1-8.55,3.29c-1.08.27-1.93.47-2.52.59l-.91.18L152,51c.6-.05,1.48-.13,2.6-.3a34.79,34.79,0,0,0,9-2.62,25.46,25.46,0,0,0,5.43-3.3,22.12,22.12,0,0,0,2.55-2.41,17.24,17.24,0,0,0,2.2-3,20.3,20.3,0,0,0,2.68-7.23,28.82,28.82,0,0,0,.12-7.93c-.1-.64-.18-1.25-.3-1.91s-.26-1.32-.45-1.95a26.71,26.71,0,0,0-1.28-3.75,20.59,20.59,0,0,0-4.35-6.36A20.29,20.29,0,0,0,164.24,6.18ZM167,10.07a1.14,1.14,0,0,1,.63.27l.07.07a1.29,1.29,0,0,1,.37.6c.14.49-.1.87-.55.85a1.33,1.33,0,0,1-1.09-.94C166.29,10.42,166.56,10,167,10.07Zm3.46,10.23c-.41,0-.84-.44-.94-1s.16-1,.58-1,.81.46.91,1S170.89,20.28,170.47,20.3Zm1.66,2.39c.08.57-.14,1-.53,1.09s-.79-.4-.87-1,.18-1.08.57-1.09S172.05,22.13,172.13,22.69Zm-7-4.81a.9.9,0,0,1-.77,1.14,1.22,1.22,0,0,1-1.18-1,.89.89,0,0,1,.78-1.13A1.23,1.23,0,0,1,165.15,17.88Zm-.71-2.48a.78.78,0,0,1,.71-1,1.26,1.26,0,0,1,1.14,1,.79.79,0,0,1-.69,1.05A1.27,1.27,0,0,1,164.44,15.4Zm-1.52-1.71a1.27,1.27,0,0,1-1.21-1,.75.75,0,0,1,.74-1,1.29,1.29,0,0,1,1.2.94A.76.76,0,0,1,162.92,13.69ZM162.56,15a.86.86,0,0,1-.8,1.09,1.26,1.26,0,0,1-1.24-1,.86.86,0,0,1,.81-1.08A1.27,1.27,0,0,1,162.56,15Zm-2.09,3.7a1.23,1.23,0,0,1-1.26-1,1,1,0,0,1,.87-1.16,1.23,1.23,0,0,1,1.25,1A1,1,0,0,1,160.47,18.71Zm1.7,4.94a1.09,1.09,0,0,1-.9,1.28A1.17,1.17,0,0,1,160,23.88a1.09,1.09,0,0,1,.92-1.27A1.17,1.17,0,0,1,162.17,23.65Zm-2.39-12.09a1.27,1.27,0,0,1-1.25-.88.74.74,0,0,1,.78-.93,1.24,1.24,0,0,1,1.23.85A.75.75,0,0,1,159.78,11.56Zm-.37,1.23a.85.85,0,0,1-.83,1.05,1.25,1.25,0,0,1-1.27-.93.86.86,0,0,1,.84-1A1.24,1.24,0,0,1,159.41,12.79Zm-3.89,3.95a1.21,1.21,0,0,1,1.29,1,1,1,0,0,1-.94,1.23,1.22,1.22,0,0,1-1.3-1A1,1,0,0,1,155.52,16.74Zm-1.93-1.91a1.18,1.18,0,0,1-1.28-.92,1,1,0,0,1,.94-1.11,1.16,1.16,0,0,1,1.27.9A1,1,0,0,1,153.59,14.83Zm2.4.51a1,1,0,0,1,.9-1.13,1.22,1.22,0,0,1,1.27,1,1,1,0,0,1-.89,1.15A1.22,1.22,0,0,1,156,15.34Zm.31-5.25a1.2,1.2,0,0,1-1.24-.8c-.11-.46.26-.85.82-.89a1.21,1.21,0,0,1,1.24.77C157.24,9.63,156.88,10.05,156.3,10.09Zm-.42,1.22a.88.88,0,0,1-.88,1,1.18,1.18,0,0,1-1.26-.87.87.87,0,0,1,.88-1A1.18,1.18,0,0,1,155.88,11.31Zm-3.23-2a1.1,1.1,0,0,1-1.21-.72c-.09-.44.3-.82.87-.87a1.09,1.09,0,0,1,1.2.69C153.62,8.83,153.23,9.24,152.65,9.29Zm-.51,1.32a.94.94,0,0,1-.92,1,1.1,1.1,0,0,1-1.24-.81.94.94,0,0,1,.93-1A1.09,1.09,0,0,1,152.14,10.61Zm-.37,4.77a1.18,1.18,0,0,1,1.29,1,1.07,1.07,0,0,1-1,1.22,1.17,1.17,0,0,1-1.3-1A1.06,1.06,0,0,1,151.77,15.38Zm2.09,7.92a1.17,1.17,0,0,1-1,1.33,1.2,1.2,0,0,1-1.33-1.05,1.18,1.18,0,0,1,1-1.33A1.22,1.22,0,0,1,153.86,23.3Zm-.79-2.59a1.12,1.12,0,0,1,1-1.28,1.22,1.22,0,0,1,1.31,1,1.12,1.12,0,0,1-1,1.29A1.22,1.22,0,0,1,153.07,20.71Zm2.24,4.57a1.21,1.21,0,0,1,1.31,1.06,1.17,1.17,0,1,1-1.31-1.06Zm.85-1.84a1.12,1.12,0,0,1,1-1.3,1.2,1.2,0,0,1,1.29,1.05,1.12,1.12,0,0,1-1,1.3A1.19,1.19,0,0,1,156.16,23.44ZM158.93,30a1.1,1.1,0,0,1,1.23,1,1.2,1.2,0,0,1-1,1.33,1.09,1.09,0,0,1-1.24-1A1.2,1.2,0,0,1,158.93,30Zm.21-1.76a1.16,1.16,0,0,1-1.26-1.05,1.13,1.13,0,1,1,1.26,1.05Zm-.1-6.75a1.22,1.22,0,0,1-1.28-1,1,1,0,0,1,.93-1.24,1.21,1.21,0,0,1,1.27,1A1.05,1.05,0,0,1,159,21.51Zm2.88,9.11a1,1,0,0,1,1.16,1,1.19,1.19,0,0,1-1,1.31,1,1,0,0,1-1.17-1A1.2,1.2,0,0,1,161.92,30.62Zm.41-1.75a1.09,1.09,0,0,1-1.2-1,1.14,1.14,0,0,1,.93-1.3,1.11,1.11,0,0,1,1.19,1A1.15,1.15,0,0,1,162.33,28.87Zm-.59-8.06a1,1,0,0,1,.86-1.21,1.21,1.21,0,0,1,1.2,1,1,1,0,0,1-.84,1.22A1.2,1.2,0,0,1,161.74,20.81Zm2.53,2.43a1.11,1.11,0,0,1,1.14,1,1,1,0,0,1-.83,1.25,1.11,1.11,0,0,1-1.16-1A1,1,0,0,1,164.27,23.24Zm.73,3.94a1,1,0,0,1,1.1,1,1.13,1.13,0,0,1-.86,1.28,1,1,0,0,1-1.12-1A1.13,1.13,0,0,1,165,27.18Zm.19-5.79a.94.94,0,0,1,.77-1.17,1.13,1.13,0,0,1,1.1,1,.93.93,0,0,1-.74,1.17A1.14,1.14,0,0,1,165.19,21.39Zm2.31,4.76a1,1,0,0,1-1.07-1,1,1,0,0,1,.78-1.22,1.05,1.05,0,0,1,1,1A1,1,0,0,1,167.5,26.15Zm1.18,2.62a1.12,1.12,0,0,1-.79,1.26,1,1,0,0,1-1-1,1.12,1.12,0,0,1,.81-1.26A1,1,0,0,1,168.68,28.77Zm-2.06-10.21c-.11-.59.2-1.07.69-1.08a1.18,1.18,0,0,1,1.05,1,.83.83,0,0,1-.66,1.09A1.19,1.19,0,0,1,166.62,18.56Zm2.24,2.38c.45,0,.88.43,1,1s-.19,1.1-.64,1.14-.92-.42-1-1S168.4,21,168.86,20.94Zm.92,3.67c.45,0,.85.4.92,1a1,1,0,0,1-.66,1.19c-.44.06-.87-.37-.95-1A1,1,0,0,1,169.78,24.61Zm-1-7.61a1.22,1.22,0,0,1-1-1c-.12-.56.16-1,.6-1a1.23,1.23,0,0,1,1,1C169.52,16.56,169.27,17,168.82,17Zm-1.56-3.92c.13.52-.14.95-.62.94a1.3,1.3,0,0,1-1.13-1c-.13-.54.16-1,.64-.94A1.29,1.29,0,0,1,167.26,13.08ZM164.1,7.87c.46.25.91.53,1.36.82a.57.57,0,0,1-.6.79,1.36,1.36,0,0,1-1.17-.85A.54.54,0,0,1,164.1,7.87Zm-.67,1.82a1.3,1.3,0,0,1,1.18.89.66.66,0,0,1-.66.9,1.32,1.32,0,0,1-1.19-.91A.65.65,0,0,1,163.43,9.69Zm-2.7-3.36c.59.22,1.18.47,1.76.74,0,.31-.25.56-.68.56a1.34,1.34,0,0,1-1.2-.74A.47.47,0,0,1,160.73,6.33Zm-.39,1.51a1.28,1.28,0,0,1,1.22.79.67.67,0,0,1-.71.86,1.29,1.29,0,0,1-1.22-.82C159.49,8.22,159.81,7.85,160.34,7.84Zm-3-2.51.55.13c.43.11.88.23,1.32.37,0,.27-.28.49-.71.51a1.3,1.3,0,0,1-1.21-.62A.41.41,0,0,1,157.37,5.33ZM157,6.6a1.21,1.21,0,0,1,1.22.68c.13.41-.2.78-.75.81a1.23,1.23,0,0,1-1.23-.72C156.13,7,156.47,6.63,157,6.6Zm-3-1.88q.88.12,1.83.3c0,.28-.26.53-.75.56A1.2,1.2,0,0,1,154,5.07.35.35,0,0,1,154.05,4.72Zm-.48,1.2a1.14,1.14,0,0,1,1.19.58c.11.38-.24.73-.8.78a1.12,1.12,0,0,1-1.19-.63C152.67,6.28,153,6,153.57,5.92Zm-2.64-1.5,1.46.11a.39.39,0,0,1,.11.15c.1.27-.25.56-.78.61s-1-.16-1.1-.43S150.7,4.53,150.93,4.42Zm.32,1.82c.09.35-.29.71-.85.76s-1.07-.2-1.14-.55.33-.66.87-.72S151.17,5.89,151.25,6.24ZM147.31,5c0-.26.35-.48.86-.54s1,.07,1,.32-.32.54-.85.6S147.34,5.25,147.31,5Zm.47,3.48c-.05-.43.36-.81.93-.87a1,1,0,0,1,1.15.63c.08.43-.33.85-.92.91A1,1,0,0,1,147.78,8.47Zm.65,5a1,1,0,0,1,1-1.11,1.09,1.09,0,0,1,1.25.85,1,1,0,0,1-1,1.14A1.1,1.1,0,0,1,148.43,13.45Zm.75,6.06a1.15,1.15,0,0,1,1-1.27,1.17,1.17,0,0,1,1.3,1,1.14,1.14,0,0,1-1,1.29A1.2,1.2,0,0,1,149.18,19.51Zm.76,7a1.19,1.19,0,0,1,1-1.35,1.21,1.21,0,1,1-1,1.35Zm1.65,3.6a1.19,1.19,0,0,1,1-1.35,1.17,1.17,0,0,1,1.31,1,1.2,1.2,0,0,1-1,1.35A1.19,1.19,0,0,1,151.59,30.11Zm2.27,2.9a1.13,1.13,0,0,1,1.28,1,1.2,1.2,0,0,1-1,1.32,1.14,1.14,0,0,1-1.28-1A1.19,1.19,0,0,1,153.86,33Zm1.1,8.87a1,1,0,0,1-1.21-.86,1.15,1.15,0,0,1,1-1.2,1,1,0,0,1,1.21.88A1.16,1.16,0,0,1,155,41.88Zm-.34-3.07a1.08,1.08,0,0,1-1.25-1,1.18,1.18,0,0,1,1-1.27,1.08,1.08,0,0,1,1.25,1A1.18,1.18,0,0,1,154.62,38.81Zm.18-8.07a1.2,1.2,0,0,1,1-1.34,1.15,1.15,0,0,1,1.28,1,1.21,1.21,0,0,1-1,1.34A1.15,1.15,0,0,1,154.8,30.74Zm2.55,3.07a1.07,1.07,0,0,1,1.23,1,1.24,1.24,0,0,1-1,1.31,1.07,1.07,0,0,1-1.23-1A1.21,1.21,0,0,1,157.35,33.81Zm.88,5.94a1,1,0,0,1-1.18-.89,1.22,1.22,0,0,1,1-1.26,1,1,0,0,1,1.18.91A1.22,1.22,0,0,1,158.23,39.75Zm1.32-4a1.21,1.21,0,0,1,1-1.3,1,1,0,0,1,1.16.94,1.22,1.22,0,0,1-1,1.29A1,1,0,0,1,159.55,35.74Zm1.91,4.62a.89.89,0,0,1-1.1-.83,1.23,1.23,0,0,1,1-1.24.89.89,0,0,1,1.08.86A1.22,1.22,0,0,1,161.46,40.36Zm2.17-3.22a.91.91,0,0,1-1.09-.89,1.24,1.24,0,0,1,1-1.28.91.91,0,0,1,1.07.9A1.24,1.24,0,0,1,163.63,37.14Zm.19-4.66a1.2,1.2,0,0,1,.92-1.3,1,1,0,0,1,1.08,1,1.2,1.2,0,0,1-.9,1.29A1,1,0,0,1,163.82,32.48Zm2.49,5.06a.82.82,0,0,1-1-.85,1.25,1.25,0,0,1,.92-1.27.83.83,0,0,1,1,.87A1.26,1.26,0,0,1,166.31,37.54ZM166.5,33a1.19,1.19,0,0,1,.86-1.27.87.87,0,0,1,1,.91,1.19,1.19,0,0,1-.84,1.27A.87.87,0,0,1,166.5,33Zm2.26,4.89c-.48.12-.88-.23-.89-.8a1.29,1.29,0,0,1,.86-1.25c.48-.11.87.26.88.82A1.27,1.27,0,0,1,168.76,37.86Zm1.09-3.58c-.46.11-.87-.27-.9-.86a1.19,1.19,0,0,1,.79-1.25c.46-.1.84.29.87.87A1.18,1.18,0,0,1,169.85,34.28Zm.42-3.74c-.45.09-.86-.32-.91-.92a1.1,1.1,0,0,1,.72-1.23c.45-.07.83.35.89.93A1.1,1.1,0,0,1,170.27,30.54Zm1.67,4.08c-.4.12-.76-.24-.79-.81a1.22,1.22,0,0,1,.7-1.23c.4-.1.73.27.76.83A1.19,1.19,0,0,1,171.94,34.62Zm.4-3.61c-.38.09-.75-.3-.79-.88a1.07,1.07,0,0,1,.63-1.19c.38-.08.71.32.76.88S172.72,30.92,172.34,31Zm-.12-3.64c-.38.07-.75-.35-.82-.93s.21-1.1.58-1.15.72.38.79.94S172.6,27.31,172.22,27.37Zm1.87,4.05c-.31.1-.62-.27-.66-.83s.2-1.07.51-1.15.58.29.63.83S174.41,31.32,174.09,31.42Zm-.29-10.61v0c.05.16.08.33.12.5a1.8,1.8,0,0,1-.12-.43A.37.37,0,0,1,173.8,20.81Zm.21,7.12c-.3.07-.62-.33-.68-.89s.16-1.05.47-1.1.57.36.63.9S174.31,27.86,174,27.93Zm0-4.49c.07.54-.1,1-.41,1s-.64-.39-.72-.95.14-1,.45-1S173.89,22.9,174,23.44Zm-.82-3.34c.09.53-.09,1-.42,1s-.7-.44-.79-1,.12-1,.46-1S173.05,19.56,173.14,20.1Zm-2.07-4.27c.38,0,.75.48.85,1s-.09.95-.46.94-.77-.47-.88-1S170.7,15.8,171.07,15.83Zm-.82-2.06c.12.52-.1.92-.51.9a1.29,1.29,0,0,1-1-1c-.13-.53.12-.92.53-.89A1.26,1.26,0,0,1,170.25,13.77Z"/><path class="cls-1" d="M137.87,26a1.19,1.19,0,0,1,.21.56,1.27,1.27,0,0,1,0,.48l1.19,7.58L137.92,24a1,1,0,0,1-.42-.33Z"/><path class="cls-1" d="M130.24,8.65a.56.56,0,0,1-.56-.09c-.52.26-1,.52-1.49.8.34,0,.56.16.5.52a1.41,1.41,0,0,1-.91,1c-.42.13-.71-.11-.65-.53a1.1,1.1,0,0,1,.2-.46,17.25,17.25,0,0,0-1.84,1.37,1.39,1.39,0,0,1-.7.81.71.71,0,0,1-.2,0,11,11,0,0,0-1,1.11c.2,0,.35.26.34.61a1.42,1.42,0,0,1-.59,1.13.33.33,0,0,1-.19,0l.36,2.88c.21,0,.39.25.4.67a1.74,1.74,0,0,1-.21.88l.43,3.55a.84.84,0,0,1,.34.74,1.69,1.69,0,0,1-.14.84l.52,4.26a.54.54,0,0,1,.25-.31l-.13-1.7a1.33,1.33,0,0,1-.23-.67,1.63,1.63,0,0,1,.12-.78l-.3-3.88-.06,0c-.3.12-.53-.2-.56-.72a1.25,1.25,0,0,1,.48-1.16l-.23-3.08c-.25,0-.43-.23-.43-.64a1.48,1.48,0,0,1,.31-.9L124,13.35l.26,1.51a.72.72,0,0,1,.15-.11c.34-.15.62.12.6.6a1.46,1.46,0,0,1-.49,1.06l.91,5.32a.61.61,0,0,1,.28-.23c.34-.12.66.23.68.78a1.21,1.21,0,0,1-.59,1.19h-.07l.71,4.17a.66.66,0,0,1,.45-.44c.36-.08.73.33.79.91s-.21,1.1-.58,1.16a.5.5,0,0,1-.41-.14l.29,1.72.11,0c.37,0,.74.39.82,1s-.17,1.07-.54,1.09h0l.26,1.55a.41.41,0,0,1,.19,0c.37,0,.78.43.87,1s-.15,1-.53,1a.71.71,0,0,1-.2,0l.91,5.33,1.38.53a1.39,1.39,0,0,1-.12-.28c-.12-.52.11-.94.55-.92a1.27,1.27,0,0,1,1,1,.8.8,0,0,1-.09.68c.89.29,1.85.56,2.85.78a.65.65,0,0,1,.65-.43,1.33,1.33,0,0,1,1.13.76c.65.1,1.32.18,2,.22V44L138,44a1.25,1.25,0,0,1-1.22-.93.78.78,0,0,1,.75-1,1.21,1.21,0,0,1,.46.08l-.17-1.85h0a1.26,1.26,0,0,1-1.23-1,.91.91,0,0,1,.81-1.14l.23,0-.23-2.61a1.3,1.3,0,0,1-.41-.75,1.11,1.11,0,0,1,.26-.93L137.1,32h0a1.13,1.13,0,0,1-1.19-1,1.1,1.1,0,0,1,.89-1.28h.13l-.16-1.77a1.12,1.12,0,0,1-.77-1,1.19,1.19,0,0,1,.58-1.18l-.36-4a1,1,0,0,1-.88-.94,1.26,1.26,0,0,1,.69-1.19l-.44-5-.17,0a.73.73,0,0,1-1-.74,1.25,1.25,0,0,1,1-1.12l-.31-3.49c-.36,0-.6-.23-.55-.54a1,1,0,0,1,.45-.6l-.06-.58a1.66,1.66,0,0,1-.81.46c-.49.1-.82-.11-.73-.44a1.32,1.32,0,0,1,1-.76c.48-.09.81.07.73.4a.76.76,0,0,1-.2.32l.09.57a1.67,1.67,0,0,1,.53-.23,1.12,1.12,0,0,1,.36,0l-.19-1.55a37.84,37.84,0,0,0-4.53,1.58A1.5,1.5,0,0,1,130.24,8.65Zm-.06,3.47a.56.56,0,0,1,.77.61,1.36,1.36,0,0,1-.91,1.12.57.57,0,0,1-.76-.64A1.31,1.31,0,0,1,130.18,12.12Zm-.6,21.24c.44,0,.89.42,1,1s-.2,1.09-.64,1.11-.85-.44-.95-1S129.15,33.39,129.58,33.36Zm-1.24-2.55a1,1,0,0,1,.63-1.16c.43-.06.85.38.93,1s-.23,1.12-.66,1.16S128.41,31.39,128.34,30.81Zm.82-2.78c-.44.07-.82-.35-.88-.93a1.1,1.1,0,0,1,.68-1.22c.44-.08.86.33.91.93A1.06,1.06,0,0,1,129.16,28Zm-1.88-6.76a1.23,1.23,0,0,1,.71-1.22c.42-.12.79.24.81.81a1.24,1.24,0,0,1-.74,1.23C127.64,22.2,127.3,21.83,127.28,21.27Zm1.57,2.15a1.2,1.2,0,0,1,.76-1.25c.45-.1.87.29.9.88a1.17,1.17,0,0,1-.78,1.25C129.27,24.4,128.88,24,128.85,23.42Zm.57-4.74c-.45.12-.81-.22-.81-.76a1.28,1.28,0,0,1,.82-1.21c.45-.13.83.2.83.75A1.29,1.29,0,0,1,129.42,18.68Zm1.49,0a.76.76,0,0,1,.92.82,1.26,1.26,0,0,1-.86,1.26c-.49.1-.88-.27-.9-.84A1.26,1.26,0,0,1,130.91,18.65Zm.32,9.72a1,1,0,0,1,1,1,1,1,0,0,1-.77,1.22,1,1,0,0,1-1-1A1,1,0,0,1,131.23,28.37Zm.48,3.85a1.1,1.1,0,0,1,1.07,1,1,1,0,0,1-.74,1.18,1.11,1.11,0,0,1-1-1A1,1,0,0,1,131.71,32.22Zm0-5.51a.93.93,0,0,1-1-1,1.14,1.14,0,0,1,.8-1.26.93.93,0,0,1,1,1A1.14,1.14,0,0,1,131.72,26.71ZM134.11,31a1.13,1.13,0,0,1,1.15,1,1,1,0,0,1-.83,1.23,1.11,1.11,0,0,1-1.12-1A1,1,0,0,1,134.11,31Zm0-1.7a1,1,0,0,1-1.1-1,1.11,1.11,0,0,1,.84-1.27A1,1,0,0,1,135,28,1.11,1.11,0,0,1,134.12,29.28ZM132.75,23a.88.88,0,0,1-1-.91,1.22,1.22,0,0,1,.87-1.27.88.88,0,0,1,1,.9A1.24,1.24,0,0,1,132.75,23Zm.13-5.5a.75.75,0,0,1-.93-.79,1.27,1.27,0,0,1,.92-1.2.74.74,0,0,1,.94.77A1.28,1.28,0,0,1,132.88,17.45Zm-1.5-1.88a.66.66,0,0,1-.85-.72,1.31,1.31,0,0,1,.92-1.15.65.65,0,0,1,.85.69A1.34,1.34,0,0,1,131.38,15.57Zm-3.23-3.85a1.36,1.36,0,0,1,.9-1c.45-.12.76.11.71.56a1.4,1.4,0,0,1-.91,1A.5.5,0,0,1,128.15,11.72Zm.73,3.91a1.35,1.35,0,0,1-.82,1.18c-.42.13-.74-.18-.72-.69a1.3,1.3,0,0,1,.79-1.17C128.56,14.81,128.9,15.11,128.88,15.63ZM127.66,14a1.38,1.38,0,0,1-.79,1.14c-.4.14-.69-.14-.66-.63a1.29,1.29,0,0,1,.77-1.12C127.39,13.2,127.7,13.47,127.66,14Zm-2.49-1a1.31,1.31,0,0,1,.76-1.09c.39-.13.69.11.64.57a1.4,1.4,0,0,1-.77,1.1C125.42,13.67,125.14,13.41,125.17,13Zm.26,5.26c-.35.13-.61-.17-.61-.67a1.27,1.27,0,0,1,.62-1.17c.36-.15.66.14.65.66A1.36,1.36,0,0,1,125.43,18.21Zm.53,1.11a1.26,1.26,0,0,1,.67-1.2c.38-.13.71.19.71.73a1.27,1.27,0,0,1-.7,1.21C126.26,20.18,126,19.85,126,19.32Zm1.33,6.34c-.39.08-.72-.31-.76-.87a1.13,1.13,0,0,1,.62-1.2c.39-.1.75.28.79.86A1.13,1.13,0,0,1,127.29,25.66Zm2,14.14a1.2,1.2,0,0,1-.92-1c-.11-.54.11-1,.51-1a1.2,1.2,0,0,1,1,1C130,39.38,129.73,39.82,129.33,39.8Zm1.89-.82a1.18,1.18,0,0,1-1-1c-.11-.56.15-1,.61-1a1.18,1.18,0,0,1,1.05,1C132,38.52,131.68,39,131.22,39Zm1.89,3.2a1.27,1.27,0,0,1-1.1-1c-.13-.54.15-1,.64-1a1.26,1.26,0,0,1,1.12,1A.72.72,0,0,1,133.11,42.18Zm.24-4.14a1.19,1.19,0,0,1-1.11-1A.87.87,0,0,1,133,35.9a1.19,1.19,0,0,1,1.13,1A.86.86,0,0,1,133.35,38Zm2,3.25a1.25,1.25,0,0,1-1.17-1,.82.82,0,0,1,.72-1.07,1.27,1.27,0,0,1,1.19,1A.81.81,0,0,1,135.37,41.29Zm1.14-5.47A.94.94,0,0,1,135.7,37a1.2,1.2,0,0,1-1.18-1,1,1,0,0,1,.8-1.18A1.19,1.19,0,0,1,136.51,35.82Zm-1.73-10.47a1,1,0,0,1-1.09-1,1.2,1.2,0,0,1,.9-1.3,1,1,0,0,1,1.11,1A1.21,1.21,0,0,1,134.78,25.35Zm.73-7.12a1.28,1.28,0,0,1-.95,1.27.86.86,0,0,1-1-.87,1.25,1.25,0,0,1,.94-1.24A.84.84,0,0,1,135.51,18.23ZM134,11.15c.51-.12.91.15.88.63a1.31,1.31,0,0,1-1,1.09.65.65,0,0,1-.88-.66A1.3,1.3,0,0,1,134,11.15Zm-.47-.86a1.38,1.38,0,0,1-1,1c-.49.12-.85-.15-.79-.59a1.29,1.29,0,0,1,1-1C133.19,9.62,133.54,9.85,133.5,10.29ZM132.3,9a1.44,1.44,0,0,1-1,.94c-.47.12-.79-.12-.72-.52a1.32,1.32,0,0,1,1-.9C132.05,8.38,132.37,8.58,132.3,9Z"/><path class="cls-1" d="M125.29,32.05a.52.52,0,0,1,.1-.11l-.11-1.55a.47.47,0,0,1-.22-.18Z"/><path class="cls-2" d="M152.3,26.22A1.21,1.21,0,0,0,151,25.16a1.21,1.21,0,1,0,1.33,1.06Z"/><path class="cls-2" d="M153.93,29.81a1.17,1.17,0,0,0-1.31-1,1.21,1.21,0,1,0,1.31,1Z"/><path class="cls-2" d="M151.52,23.58a1.2,1.2,0,0,0,1.33,1.05,1.17,1.17,0,0,0,1-1.33,1.22,1.22,0,0,0-1.32-1.05A1.18,1.18,0,0,0,151.52,23.58Z"/><path class="cls-2" d="M155.61,27.68a1.19,1.19,0,0,0,1-1.34,1.21,1.21,0,0,0-1.31-1.06,1.21,1.21,0,0,0,.3,2.4Z"/><path class="cls-2" d="M157.1,30.44a1.15,1.15,0,0,0-1.28-1,1.2,1.2,0,0,0-1,1.34,1.15,1.15,0,0,0,1.29,1A1.21,1.21,0,0,0,157.1,30.44Z"/><path class="cls-2" d="M154.11,35.34a1.2,1.2,0,0,0,1-1.32,1.13,1.13,0,0,0-1.28-1,1.19,1.19,0,0,0-1,1.32A1.14,1.14,0,0,0,154.11,35.34Z"/><path class="cls-2" d="M150.5,20.53a1.14,1.14,0,0,0,1-1.29,1.17,1.17,0,0,0-1.3-1,1.15,1.15,0,0,0-1,1.27A1.2,1.2,0,0,0,150.5,20.53Z"/><path class="cls-2" d="M155.37,20.46a1.22,1.22,0,0,0-1.31-1,1.12,1.12,0,0,0-1,1.28,1.22,1.22,0,0,0,1.32,1A1.12,1.12,0,0,0,155.37,20.46Z"/><path class="cls-2" d="M157.45,24.49a1.12,1.12,0,0,0,1-1.3,1.2,1.2,0,0,0-1.29-1.05,1.12,1.12,0,0,0-1,1.3A1.19,1.19,0,0,0,157.45,24.49Z"/><path class="cls-2" d="M160.11,26.93a1.13,1.13,0,1,0-1,1.33A1.16,1.16,0,0,0,160.11,26.93Z"/><path class="cls-2" d="M159.18,32.37a1.2,1.2,0,0,0,1-1.33,1.1,1.1,0,0,0-1.23-1,1.2,1.2,0,0,0-1,1.34A1.09,1.09,0,0,0,159.18,32.37Z"/><path class="cls-2" d="M157.56,36.1a1.24,1.24,0,0,0,1-1.31,1.07,1.07,0,0,0-1.23-1,1.21,1.21,0,0,0-1,1.31A1.07,1.07,0,0,0,157.56,36.1Z"/><path class="cls-2" d="M154.39,36.59a1.18,1.18,0,0,0-1,1.27,1.08,1.08,0,0,0,1.25,1,1.18,1.18,0,0,0,1-1.26A1.08,1.08,0,0,0,154.39,36.59Z"/><path class="cls-2" d="M152.09,17.56a1.07,1.07,0,0,0,1-1.22,1.18,1.18,0,0,0-1.29-1,1.06,1.06,0,0,0-1,1.2A1.17,1.17,0,0,0,152.09,17.56Z"/><path class="cls-2" d="M155.87,19a1,1,0,0,0,.94-1.23,1.21,1.21,0,0,0-1.29-1,1,1,0,0,0-1,1.21A1.22,1.22,0,0,0,155.87,19Z"/><path class="cls-2" d="M160,20.26a1.21,1.21,0,0,0-1.27-1,1,1,0,0,0-.93,1.24,1.22,1.22,0,0,0,1.28,1A1.05,1.05,0,0,0,160,20.26Z"/><path class="cls-2" d="M160,23.88a1.17,1.17,0,0,0,1.25,1.05,1.09,1.09,0,0,0,.9-1.28,1.17,1.17,0,0,0-1.23-1A1.09,1.09,0,0,0,160,23.88Z"/><path class="cls-2" d="M163.25,27.57a1.11,1.11,0,0,0-1.19-1,1.14,1.14,0,0,0-.93,1.3,1.09,1.09,0,0,0,1.2,1A1.15,1.15,0,0,0,163.25,27.57Z"/><path class="cls-2" d="M162.13,32.92a1.19,1.19,0,0,0,1-1.31,1,1,0,0,0-1.16-1,1.2,1.2,0,0,0-1,1.32A1,1,0,0,0,162.13,32.92Z"/><path class="cls-2" d="M161.7,35.38a1,1,0,0,0-1.16-.94,1.21,1.21,0,0,0-1,1.3,1,1,0,0,0,1.16.93A1.22,1.22,0,0,0,161.7,35.38Z"/><path class="cls-2" d="M158.07,37.6a1.22,1.22,0,0,0-1,1.26,1,1,0,0,0,1.18.89,1.22,1.22,0,0,0,1-1.24A1,1,0,0,0,158.07,37.6Z"/><path class="cls-2" d="M154.77,39.82a1.15,1.15,0,0,0-1,1.2,1,1,0,0,0,1.21.86,1.16,1.16,0,0,0,1-1.18A1,1,0,0,0,154.77,39.82Z"/><path class="cls-2" d="M135.32,34.78a1,1,0,0,0-.8,1.18,1.2,1.2,0,0,0,1.18,1,.94.94,0,0,0,.81-1.17A1.19,1.19,0,0,0,135.32,34.78Z"/><path class="cls-2" d="M134.43,33.24a1,1,0,0,0,.83-1.23,1.13,1.13,0,0,0-1.15-1,1,1,0,0,0-.8,1.23A1.11,1.11,0,0,0,134.43,33.24Z"/><path class="cls-2" d="M133.86,27a1.11,1.11,0,0,0-.84,1.27,1,1,0,0,0,1.1,1A1.11,1.11,0,0,0,135,28,1,1,0,0,0,133.86,27Z"/><path class="cls-2" d="M134.59,23.08a1.2,1.2,0,0,0-.9,1.3,1,1,0,0,0,1.09,1A1.21,1.21,0,0,0,135.7,24,1,1,0,0,0,134.59,23.08Z"/><path class="cls-2" d="M149.68,14.33a1,1,0,0,0,1-1.14,1.09,1.09,0,0,0-1.25-.85,1,1,0,0,0-1,1.11A1.1,1.1,0,0,0,149.68,14.33Z"/><path class="cls-2" d="M153.25,12.8a1,1,0,0,0-.94,1.11,1.18,1.18,0,0,0,1.28.92,1,1,0,0,0,.93-1.13A1.16,1.16,0,0,0,153.25,12.8Z"/><path class="cls-2" d="M158.16,15.17a1.22,1.22,0,0,0-1.27-1,1,1,0,0,0-.9,1.13,1.22,1.22,0,0,0,1.28,1A1,1,0,0,0,158.16,15.17Z"/><path class="cls-2" d="M160.08,16.53a1,1,0,0,0-.87,1.16,1.23,1.23,0,0,0,1.26,1,1,1,0,0,0,.86-1.17A1.23,1.23,0,0,0,160.08,16.53Z"/><path class="cls-2" d="M163.8,20.64a1.21,1.21,0,0,0-1.2-1,1,1,0,0,0-.86,1.21A1.2,1.2,0,0,0,163,21.86,1,1,0,0,0,163.8,20.64Z"/><path class="cls-2" d="M164.58,25.52a1,1,0,0,0,.83-1.25,1.11,1.11,0,0,0-1.14-1,1,1,0,0,0-.85,1.25A1.11,1.11,0,0,0,164.58,25.52Z"/><path class="cls-2" d="M165.24,29.47a1.13,1.13,0,0,0,.86-1.28,1,1,0,0,0-1.1-1,1.13,1.13,0,0,0-.88,1.29A1,1,0,0,0,165.24,29.47Z"/><path class="cls-2" d="M165.82,32.14a1,1,0,0,0-1.08-1,1.2,1.2,0,0,0-.92,1.3,1,1,0,0,0,1.1,1A1.2,1.2,0,0,0,165.82,32.14Z"/><path class="cls-2" d="M163.51,35a1.24,1.24,0,0,0-1,1.28.91.91,0,0,0,1.09.89,1.24,1.24,0,0,0,1-1.27A.91.91,0,0,0,163.51,35Z"/><path class="cls-2" d="M161.37,38.29a1.23,1.23,0,0,0-1,1.24.89.89,0,0,0,1.1.83,1.22,1.22,0,0,0,1-1.21A.89.89,0,0,0,161.37,38.29Z"/><path class="cls-2" d="M134.92,39.23a.82.82,0,0,0-.72,1.07,1.25,1.25,0,0,0,1.17,1,.81.81,0,0,0,.74-1A1.27,1.27,0,0,0,134.92,39.23Z"/><path class="cls-2" d="M134.08,36.93a1.19,1.19,0,0,0-1.13-1,.87.87,0,0,0-.71,1.12,1.19,1.19,0,0,0,1.11,1A.86.86,0,0,0,134.08,36.93Z"/><path class="cls-2" d="M132,34.42a1,1,0,0,0,.74-1.18,1.1,1.1,0,0,0-1.07-1,1,1,0,0,0-.71,1.17A1.11,1.11,0,0,0,132,34.42Z"/><path class="cls-2" d="M131.49,30.58a1,1,0,0,0,.77-1.22,1,1,0,0,0-1-1,1,1,0,0,0-.74,1.22A1,1,0,0,0,131.49,30.58Z"/><path class="cls-2" d="M132.54,25.44a.93.93,0,0,0-1-1,1.14,1.14,0,0,0-.8,1.26.93.93,0,0,0,1,1A1.14,1.14,0,0,0,132.54,25.44Z"/><path class="cls-2" d="M132.62,20.77a1.22,1.22,0,0,0-.87,1.27.88.88,0,0,0,1,.91,1.24,1.24,0,0,0,.89-1.28A.88.88,0,0,0,132.62,20.77Z"/><path class="cls-2" d="M133.54,18.63a.86.86,0,0,0,1,.87,1.28,1.28,0,0,0,.95-1.27.84.84,0,0,0-1-.84A1.25,1.25,0,0,0,133.54,18.63Z"/><path class="cls-2" d="M150,10.83a1.1,1.1,0,0,0,1.24.81.94.94,0,0,0,.92-1,1.09,1.09,0,0,0-1.23-.78A.94.94,0,0,0,150,10.83Z"/><path class="cls-2" d="M153.74,11.47a1.18,1.18,0,0,0,1.26.87.88.88,0,0,0,.88-1,1.18,1.18,0,0,0-1.26-.84A.87.87,0,0,0,153.74,11.47Z"/><path class="cls-2" d="M157.31,12.91a1.25,1.25,0,0,0,1.27.93.85.85,0,0,0,.83-1.05,1.24,1.24,0,0,0-1.26-.92A.86.86,0,0,0,157.31,12.91Z"/><path class="cls-2" d="M160.52,15.11a1.26,1.26,0,0,0,1.24,1,.86.86,0,0,0,.8-1.09,1.27,1.27,0,0,0-1.23-1A.86.86,0,0,0,160.52,15.11Z"/><path class="cls-2" d="M163.2,18a1.22,1.22,0,0,0,1.18,1,.9.9,0,0,0,.77-1.14,1.23,1.23,0,0,0-1.17-1A.89.89,0,0,0,163.2,18Z"/><path class="cls-2" d="M166.32,22.42a.93.93,0,0,0,.74-1.17,1.13,1.13,0,0,0-1.1-1,.94.94,0,0,0-.77,1.17A1.14,1.14,0,0,0,166.32,22.42Z"/><path class="cls-2" d="M167.21,23.92a1,1,0,0,0-.78,1.22,1,1,0,0,0,1.07,1,1,1,0,0,0,.75-1.22A1.05,1.05,0,0,0,167.21,23.92Z"/><path class="cls-2" d="M167.68,27.8a1.12,1.12,0,0,0-.81,1.26,1,1,0,0,0,1,1,1.12,1.12,0,0,0,.79-1.26A1,1,0,0,0,167.68,27.8Z"/><path class="cls-2" d="M168.34,32.61a.87.87,0,0,0-1-.91A1.19,1.19,0,0,0,166.5,33a.87.87,0,0,0,1,.91A1.19,1.19,0,0,0,168.34,32.61Z"/><path class="cls-2" d="M166.24,35.42a1.25,1.25,0,0,0-.92,1.27.82.82,0,0,0,1,.85,1.26,1.26,0,0,0,.91-1.25A.83.83,0,0,0,166.24,35.42Z"/><path class="cls-2" d="M132.65,40.2c-.49,0-.77.45-.64,1a1.27,1.27,0,0,0,1.1,1,.72.72,0,0,0,.66-1A1.26,1.26,0,0,0,132.65,40.2Z"/><path class="cls-2" d="M131.86,37.94a1.18,1.18,0,0,0-1.05-1c-.46,0-.72.48-.61,1a1.18,1.18,0,0,0,1,1C131.68,39,132,38.52,131.86,37.94Z"/><path class="cls-2" d="M129.92,35.48c.44,0,.74-.52.64-1.11s-.54-1-1-1-.7.53-.61,1.1S129.48,35.49,129.92,35.48Z"/><path class="cls-2" d="M129.9,30.63c-.08-.6-.5-1-.93-1a1,1,0,0,0-.63,1.16c.07.58.46,1,.9,1S130,31.23,129.9,30.63Z"/><path class="cls-2" d="M129,25.88a1.1,1.1,0,0,0-.68,1.22c.06.58.44,1,.88.93a1.06,1.06,0,0,0,.71-1.22C129.82,26.21,129.4,25.8,129,25.88Z"/><path class="cls-2" d="M130.51,23.05c0-.59-.45-1-.9-.88a1.2,1.2,0,0,0-.76,1.25c0,.58.42,1,.88.88A1.17,1.17,0,0,0,130.51,23.05Z"/><path class="cls-2" d="M131,20.73a1.26,1.26,0,0,0,.86-1.26.76.76,0,0,0-.92-.82,1.26,1.26,0,0,0-.84,1.24C130.09,20.46,130.48,20.83,131,20.73Z"/><path class="cls-2" d="M133.81,16.23a.74.74,0,0,0-.94-.77,1.27,1.27,0,0,0-.92,1.2.75.75,0,0,0,.93.79A1.28,1.28,0,0,0,133.81,16.23Z"/><path class="cls-2" d="M148.94,9.14c.59-.06,1-.48.92-.91a1,1,0,0,0-1.15-.63c-.57.06-1,.44-.93.87A1,1,0,0,0,148.94,9.14Z"/><path class="cls-2" d="M152.31,7.7c-.57,0-1,.43-.87.87a1.1,1.1,0,0,0,1.21.72c.58,0,1-.46.86-.9A1.09,1.09,0,0,0,152.31,7.7Z"/><path class="cls-2" d="M155.88,8.4c-.56,0-.93.43-.82.89a1.2,1.2,0,0,0,1.24.8c.58,0,.94-.46.82-.92A1.21,1.21,0,0,0,155.88,8.4Z"/><path class="cls-2" d="M159.31,9.75a.74.74,0,0,0-.78.93,1.27,1.27,0,0,0,1.25.88.75.75,0,0,0,.76-1A1.24,1.24,0,0,0,159.31,9.75Z"/><path class="cls-2" d="M162.45,11.75a.75.75,0,0,0-.74,1,1.27,1.27,0,0,0,1.21,1,.76.76,0,0,0,.73-1A1.29,1.29,0,0,0,162.45,11.75Z"/><path class="cls-2" d="M165.6,16.41a.79.79,0,0,0,.69-1.05,1.26,1.26,0,0,0-1.14-1,.78.78,0,0,0-.71,1A1.27,1.27,0,0,0,165.6,16.41Z"/><path class="cls-2" d="M168.36,18.5a1.18,1.18,0,0,0-1.05-1c-.49,0-.8.49-.69,1.08a1.19,1.19,0,0,0,1.08,1A.83.83,0,0,0,168.36,18.5Z"/><path class="cls-2" d="M169.19,23.09c.45,0,.73-.55.64-1.14s-.52-1-1-1-.77.53-.68,1.13S168.73,23.13,169.19,23.09Z"/><path class="cls-2" d="M170,26.78a1,1,0,0,0,.66-1.19c-.07-.58-.47-1-.92-1a1,1,0,0,0-.69,1.19C169.17,26.41,169.6,26.84,170,26.78Z"/><path class="cls-2" d="M171,29.32c-.06-.58-.44-1-.89-.93a1.1,1.1,0,0,0-.72,1.23c0,.6.46,1,.91.92A1.1,1.1,0,0,0,171,29.32Z"/><path class="cls-2" d="M169.74,32.17a1.19,1.19,0,0,0-.79,1.25c0,.59.44,1,.9.86a1.18,1.18,0,0,0,.76-1.24C170.58,32.46,170.2,32.07,169.74,32.17Z"/><path class="cls-2" d="M168.73,35.81a1.29,1.29,0,0,0-.86,1.25c0,.57.41.92.89.8a1.27,1.27,0,0,0,.85-1.23C169.6,36.07,169.21,35.7,168.73,35.81Z"/><path class="cls-2" d="M128.92,37.81c-.4,0-.62.43-.51,1a1.2,1.2,0,0,0,.92,1c.4,0,.66-.42.54-1A1.2,1.2,0,0,0,128.92,37.81Z"/><path class="cls-2" d="M127.94,24.45c0-.58-.4-1-.79-.86a1.13,1.13,0,0,0-.62,1.2c0,.56.37.95.76.87A1.13,1.13,0,0,0,127.94,24.45Z"/><path class="cls-2" d="M128.8,20.86c0-.57-.39-.93-.81-.81a1.23,1.23,0,0,0-.71,1.22c0,.56.36.93.78.82A1.24,1.24,0,0,0,128.8,20.86Z"/><path class="cls-2" d="M129.43,16.71a1.28,1.28,0,0,0-.82,1.21c0,.54.36.88.81.76a1.29,1.29,0,0,0,.84-1.22C130.26,16.91,129.88,16.58,129.43,16.71Z"/><path class="cls-2" d="M131.45,13.7a1.31,1.31,0,0,0-.92,1.15.66.66,0,0,0,.85.72,1.34,1.34,0,0,0,.92-1.18A.65.65,0,0,0,131.45,13.7Z"/><path class="cls-2" d="M133,12.21a.65.65,0,0,0,.88.66,1.31,1.31,0,0,0,1-1.09c0-.48-.37-.75-.88-.63A1.3,1.3,0,0,0,133,12.21Z"/><path class="cls-2" d="M149.26,6.45c.07.35.58.61,1.14.55s.94-.41.85-.76-.59-.56-1.12-.51S149.2,6.09,149.26,6.45Z"/><path class="cls-2" d="M154,7.28c.56,0,.91-.4.8-.78a1.14,1.14,0,0,0-1.19-.58c-.54,0-.9.36-.8.73A1.12,1.12,0,0,0,154,7.28Z"/><path class="cls-2" d="M157.48,8.09c.55,0,.88-.4.75-.81A1.21,1.21,0,0,0,157,6.6c-.54,0-.88.36-.76.77A1.23,1.23,0,0,0,157.48,8.09Z"/><path class="cls-2" d="M160.85,9.49a.67.67,0,0,0,.71-.86,1.28,1.28,0,0,0-1.22-.79c-.53,0-.85.38-.71.83A1.29,1.29,0,0,0,160.85,9.49Z"/><path class="cls-2" d="M164,11.48a.66.66,0,0,0,.66-.9,1.3,1.3,0,0,0-1.18-.89.65.65,0,0,0-.67.88A1.32,1.32,0,0,0,164,11.48Z"/><path class="cls-2" d="M165.51,13.05a1.3,1.3,0,0,0,1.13,1c.48,0,.75-.42.62-.94a1.29,1.29,0,0,0-1.11-1C165.67,12.1,165.38,12.51,165.51,13.05Z"/><path class="cls-2" d="M168.39,15c-.44,0-.72.43-.6,1a1.22,1.22,0,0,0,1,1c.45,0,.7-.44.58-1A1.23,1.23,0,0,0,168.39,15Z"/><path class="cls-2" d="M170.11,18.24c-.42,0-.69.47-.58,1s.53,1,.94,1,.65-.48.55-1S170.52,18.25,170.11,18.24Z"/><path class="cls-2" d="M170.73,22.8c.08.58.48,1,.87,1s.61-.52.53-1.09-.44-1-.83-1S170.64,22.21,170.73,22.8Z"/><path class="cls-2" d="M172,25.29c-.37.05-.65.56-.58,1.15s.44,1,.82.93.61-.57.55-1.14S172.36,25.25,172,25.29Z"/><path class="cls-2" d="M172.18,28.94a1.07,1.07,0,0,0-.63,1.19c0,.58.41,1,.79.88s.64-.62.6-1.19S172.56,28.86,172.18,28.94Z"/><path class="cls-2" d="M171.85,32.58a1.22,1.22,0,0,0-.7,1.23c0,.57.39.93.79.81a1.19,1.19,0,0,0,.67-1.21C172.58,32.85,172.25,32.48,171.85,32.58Z"/><path class="cls-2" d="M126.64,20.06a1.27,1.27,0,0,0,.7-1.21c0-.54-.33-.86-.71-.73a1.26,1.26,0,0,0-.67,1.2C126,19.85,126.26,20.18,126.64,20.06Z"/><path class="cls-2" d="M127.34,16.12c0,.51.3.82.72.69a1.35,1.35,0,0,0,.82-1.18c0-.52-.32-.82-.75-.68A1.3,1.3,0,0,0,127.34,16.12Z"/><path class="cls-2" d="M129.28,13.21a.57.57,0,0,0,.76.64,1.36,1.36,0,0,0,.91-1.12.56.56,0,0,0-.77-.61A1.31,1.31,0,0,0,129.28,13.21Z"/><path class="cls-2" d="M131.72,10.72c-.06.44.3.71.79.59a1.38,1.38,0,0,0,1-1c0-.44-.31-.67-.8-.55A1.29,1.29,0,0,0,131.72,10.72Z"/><path class="cls-2" d="M149.19,4.77c-.06-.25-.52-.38-1-.32s-.9.28-.86.54.5.44,1,.38S149.25,5,149.19,4.77Z"/><path class="cls-2" d="M151.72,5.29c.53,0,.88-.34.78-.61a.39.39,0,0,0-.11-.15l-1.46-.11c-.23.11-.36.26-.31.44S151.19,5.34,151.72,5.29Z"/><path class="cls-2" d="M155.13,5.58c.49,0,.79-.28.75-.56q-.94-.18-1.83-.3a.35.35,0,0,0-.09.35A1.2,1.2,0,0,0,155.13,5.58Z"/><path class="cls-2" d="M158.53,6.34c.43,0,.7-.24.71-.51-.44-.14-.89-.26-1.32-.37l-.55-.13a.41.41,0,0,0-.05.39A1.3,1.3,0,0,0,158.53,6.34Z"/><path class="cls-2" d="M161.81,7.63c.43,0,.7-.25.68-.56-.58-.27-1.17-.52-1.76-.74a.47.47,0,0,0-.12.56A1.34,1.34,0,0,0,161.81,7.63Z"/><path class="cls-2" d="M164.86,9.48a.57.57,0,0,0,.6-.79c-.45-.29-.9-.57-1.36-.82a.54.54,0,0,0-.41.76A1.36,1.36,0,0,0,164.86,9.48Z"/><path class="cls-2" d="M167.53,11.86c.45,0,.69-.36.55-.85a1.29,1.29,0,0,0-.37-.6l-.07-.07a1.14,1.14,0,0,0-.63-.27c-.45,0-.72.35-.57.85A1.33,1.33,0,0,0,167.53,11.86Z"/><path class="cls-2" d="M168.75,13.67a1.29,1.29,0,0,0,1,1c.41,0,.63-.38.51-.9a1.26,1.26,0,0,0-1-1C168.87,12.75,168.62,13.14,168.75,13.67Z"/><path class="cls-2" d="M171.46,17.78c.37,0,.57-.41.46-.94s-.47-1-.85-1-.61.39-.49.93S171.09,17.77,171.46,17.78Z"/><path class="cls-2" d="M171.93,20.08c.09.56.45,1,.79,1s.51-.45.42-1-.41-1-.75-1S171.83,19.53,171.93,20.08Z"/><path class="cls-2" d="M172.83,23.53c.08.56.41,1,.72.95s.48-.5.41-1-.36-1-.68-1S172.76,23,172.83,23.53Z"/><path class="cls-2" d="M173.8,25.94c-.31,0-.53.54-.47,1.1s.38,1,.68.89.48-.56.42-1.09S174.1,25.9,173.8,25.94Z"/><path class="cls-2" d="M173.94,29.44c-.31.08-.56.59-.51,1.15s.35.93.66.83.52-.61.48-1.15S174.25,29.36,173.94,29.44Z"/><path class="cls-2" d="M125.44,16.37a1.27,1.27,0,0,0-.62,1.17c0,.5.26.8.61.67a1.36,1.36,0,0,0,.66-1.18C126.1,16.51,125.8,16.22,125.44,16.37Z"/><path class="cls-2" d="M126.21,14.47c0,.49.26.77.66.63a1.38,1.38,0,0,0,.79-1.14c0-.49-.27-.76-.68-.61A1.29,1.29,0,0,0,126.21,14.47Z"/><path class="cls-2" d="M128.85,12.29a1.4,1.4,0,0,0,.91-1c.05-.45-.26-.68-.71-.56a1.36,1.36,0,0,0-.9,1A.5.5,0,0,0,128.85,12.29Z"/><path class="cls-2" d="M130.59,9.39c-.07.4.25.64.72.52a1.44,1.44,0,0,0,1-.94c.07-.39-.25-.59-.72-.48A1.32,1.32,0,0,0,130.59,9.39Z"/><path class="cls-2" d="M173.81,20.85v0a.37.37,0,0,0,0,.11,1.8,1.8,0,0,0,.12.43C173.89,21.18,173.86,21,173.81,20.85Z"/><path class="cls-2" d="M125.8,13.53a1.4,1.4,0,0,0,.77-1.1c.05-.46-.25-.7-.64-.57a1.31,1.31,0,0,0-.76,1.09C125.14,13.41,125.42,13.67,125.8,13.53Z"/><path class="cls-2" d="M165.41,4.52C160,1.77,152.81.76,145.25,1.64A2.76,2.76,0,0,0,142.4,0l-4.57.56a2.78,2.78,0,0,0-2.42,2.92c-5.13,1.41-9.15,3.36-11.94,5.81a2.77,2.77,0,0,0-2,.25l-6.16,3.3L4.25,31.89a2.71,2.71,0,0,0-1,.41C2.2,33-1,35.86.28,45.94s5,12.13,6.14,12.52a2.67,2.67,0,0,0,1.12.15l112.39-8.5,6.78,1.71a2.75,2.75,0,0,0,2-.24c3.3,1.7,7.68,2.62,13,2.74a2.77,2.77,0,0,0,3.06,2.24l4.56-.56a2.76,2.76,0,0,0,2.38-2.26c7.55-1,14.24-3.7,18.85-7.68,6.19-5.34,8.87-13,7.75-22S172.7,8.19,165.41,4.52Zm-45.18,13.9-3.29.53c.2.71.43,1.55.66,2.53.16.62.31,1.31.47,2l2.73-.4.27,2.16-2.57.37c0,.22.09.45.13.68.15.89.34,1.81.46,2.75s.27,1.89.4,2.85.21,1.92.31,2.86.15,1.88.21,2.78c.11,1.81.18,3.49.18,4.94s0,2.65-.07,3.49v0l3.47-.29.31,2.53-3.73-.94L7.33,55.84a2.45,2.45,0,0,1-.71-.49l113-9.31c.2.72.32,1.12.32,1.12s0-.3-.06-.83c0-.11,0-.22,0-.34-.1-.84-.24-2-.42-3.46s-.36-3.09-.57-4.88-.44-3.68-.67-5.58-.48-3.8-.7-5.58-.45-3.44-.64-4.87-.32-2.62-.42-3.46c-.06-.45-.09-.79-.12-1-.11-.7-.18-1.09-.18-1.09s-.07,1.16-.07,3L3.65,37.38c0,.06,0,.11,0,.18-.07.46-.12,1-.17,1.51,0,.37,0,.76,0,1.16L116.2,23.77c0,.7.08,1.42.13,2.17L3.44,42l0,.62c0,.63.07,1.26.16,1.9s.11,1.26.19,1.9.16,1.23.26,1.82c.19,1.18.41,2.27.65,3.2a18.35,18.35,0,0,0,.72,2.2c.21.53.36.82.36.82l-.16-.17a3.75,3.75,0,0,1-.44-.51A10.69,10.69,0,0,1,4,51.69a15.14,15.14,0,0,1-.59-1.5,16,16,0,0,1-.51-1.73c-.14-.6-.28-1.23-.38-1.88s-.19-1.3-.26-1.95-.08-1.32-.11-2a17.54,17.54,0,0,1,.06-1.93,16.36,16.36,0,0,1,.23-1.8c.06-.28.13-.55.19-.82s.16-.51.23-.75a8.43,8.43,0,0,1,.57-1.27A4.67,4.67,0,0,1,4,35.22a2.34,2.34,0,0,1,.7-.59l111.54-19.1,3.39-1.82Zm5.36,16.13-.11-.9,0,.05Zm-.2-2.61a.52.52,0,0,0-.1.11l-.23-1.84a.47.47,0,0,0,.22.18Zm13.84,2.72L138,27.08a1.27,1.27,0,0,0,0-.48,1.19,1.19,0,0,0-.21-.56l-.37-2.38a1,1,0,0,0,.42.33Zm-1.55-12.61a1.27,1.27,0,0,0-.35.55l-.21-1.34a1.27,1.27,0,0,0,.26-.85,1,1,0,0,0-.53-.84l-.5-3.19a.89.89,0,0,0,.65.16Zm-1.54-12.5a.93.93,0,0,0-.27.53.54.54,0,0,0,.41.58l.48,3.95a1.23,1.23,0,0,0-.6.57l-.15-.92a1.17,1.17,0,0,0,.37-.8.7.7,0,0,0-.61-.73l-.54-3.47.13,0a1.56,1.56,0,0,0,.7-.36Zm-.21-1.71a1.12,1.12,0,0,0-.36,0,1.67,1.67,0,0,0-.53.23L135,7.52a.76.76,0,0,0,.2-.32c.08-.33-.25-.49-.73-.4a1.32,1.32,0,0,0-1,.76c-.09.33.24.54.73.44a1.66,1.66,0,0,0,.81-.46l.06.58a1,1,0,0,0-.45.6c0,.31.19.53.55.54l.31,3.49a1.25,1.25,0,0,0-1,1.12.73.73,0,0,0,1,.74l.17,0,.44,5a1.26,1.26,0,0,0-.69,1.19,1,1,0,0,0,.88.94l.36,4a1.19,1.19,0,0,0-.58,1.18,1.12,1.12,0,0,0,.77,1l.16,1.77h-.13a1.1,1.1,0,0,0-.89,1.28,1.13,1.13,0,0,0,1.19,1h0l.17,1.91a1.11,1.11,0,0,0-.26.93,1.3,1.3,0,0,0,.41.75l.23,2.61-.23,0a.91.91,0,0,0-.81,1.14,1.26,1.26,0,0,0,1.23,1h0l.17,1.85a1.21,1.21,0,0,0-.46-.08.78.78,0,0,0-.75,1A1.25,1.25,0,0,0,138,44l.15,0V44c-.67,0-1.34-.12-2-.22a1.33,1.33,0,0,0-1.13-.76.65.65,0,0,0-.65.43c-1-.22-2-.49-2.85-.78a.8.8,0,0,0,.09-.68,1.27,1.27,0,0,0-1-1c-.44,0-.67.4-.55.92a1.39,1.39,0,0,0,.12.28l-1.38-.53-.91-5.33a.71.71,0,0,0,.2,0c.38,0,.63-.46.53-1s-.5-1-.87-1a.41.41,0,0,0-.19,0l-.26-1.55h0c.37,0,.62-.51.54-1.09s-.45-1-.82-1l-.11,0-.29-1.72a.5.5,0,0,0,.41.14c.37-.06.64-.58.58-1.16s-.43-1-.79-.91a.66.66,0,0,0-.45.44l-.71-4.17h.07a1.21,1.21,0,0,0,.59-1.19c0-.55-.34-.9-.68-.78a.61.61,0,0,0-.28.23l-.91-5.32a1.46,1.46,0,0,0,.49-1.06c0-.48-.26-.75-.6-.6a.72.72,0,0,0-.15.11L124,13.35,124.1,15a1.48,1.48,0,0,0-.31.9c0,.41.18.65.43.64l.23,3.08a1.25,1.25,0,0,0-.48,1.16c0,.52.26.84.56.72l.06,0,.3,3.88a1.63,1.63,0,0,0-.12.78,1.33,1.33,0,0,0,.23.67l.13,1.7a.54.54,0,0,0-.25.31l-.52-4.26a1.69,1.69,0,0,0,.14-.84.84.84,0,0,0-.34-.74l-.43-3.55a1.74,1.74,0,0,0,.21-.88c0-.42-.19-.68-.4-.67L123.18,15a.33.33,0,0,0,.19,0A1.42,1.42,0,0,0,124,13.8c0-.35-.14-.57-.34-.61a11,11,0,0,1,1-1.11.71.71,0,0,0,.2,0,1.39,1.39,0,0,0,.7-.81,17.25,17.25,0,0,1,1.84-1.37,1.1,1.1,0,0,0-.2.46c-.06.42.23.66.65.53a1.41,1.41,0,0,0,.91-1c.06-.36-.16-.55-.5-.52.46-.28,1-.54,1.49-.8a.56.56,0,0,0,.56.09,1.5,1.5,0,0,0,1-.78,37.84,37.84,0,0,1,4.53-1.58Zm13,45.41-4.56.56L138.17,3.34l4.56-.56Zm25.56-36.66a26.71,26.71,0,0,1,1.28,3.75c.19.63.3,1.3.45,1.95s.2,1.27.3,1.91a28.82,28.82,0,0,1-.12,7.93,20.3,20.3,0,0,1-2.68,7.23,17.24,17.24,0,0,1-2.2,3A22.12,22.12,0,0,1,169,44.73a25.46,25.46,0,0,1-5.43,3.3,34.79,34.79,0,0,1-9,2.62c-1.12.17-2,.25-2.6.3l-.92.07.91-.18c.59-.12,1.44-.32,2.52-.59A39.69,39.69,0,0,0,163,47a26.24,26.24,0,0,0,5-3.42,19.3,19.3,0,0,0,2.26-2.34c.36-.41.67-.88,1-1.32s.63-.94.9-1.45a18.36,18.36,0,0,0,2-5.27.42.42,0,0,0-.49-.22,1.22,1.22,0,0,0-.59,1.19.93.93,0,0,0,.24.66,12.78,12.78,0,0,1-1.62,1.83.6.6,0,0,0-.74-.49,1.31,1.31,0,0,0-.79,1.23.93.93,0,0,0,.1.42,19.84,19.84,0,0,1-2.59,1.53.71.71,0,0,0-.63-.13,1.32,1.32,0,0,0-.86.8c-.39.17-.8.32-1.21.47a1.24,1.24,0,0,0,.36-.85.79.79,0,0,0-1-.8,1.27,1.27,0,0,0-1,1.22.78.78,0,0,0,.6.78,44.69,44.69,0,0,1-4.4,1.19.69.69,0,0,0,0-.25.9.9,0,0,0-1.11-.81,1.19,1.19,0,0,0-1,1.17,1,1,0,0,0,.08.3c-.68.13-1.36.25-2,.36a1.22,1.22,0,0,0-.43,0,1.4,1.4,0,0,0-.46.16c-1.33.21-2.69.4-4.06.57l-.08-.72a1.15,1.15,0,0,0,.76.17,1.06,1.06,0,0,0,1-1.13A1.08,1.08,0,0,0,151,40.9a1.16,1.16,0,0,0-.7.34l-.16-1.32a1.15,1.15,0,0,0,.76.16,1.11,1.11,0,0,0,1-1.22,1.13,1.13,0,0,0-1.28-1,1.22,1.22,0,0,0-.69.34l-.17-1.37a1.14,1.14,0,0,0,.75.16,1.16,1.16,0,1,0-.28-2.3,1.19,1.19,0,0,0-.69.34l-.17-1.41a1.17,1.17,0,0,0,.74.17,1.2,1.2,0,0,0-.29-2.38,1.11,1.11,0,0,0-.68.34l-.18-1.43a1.18,1.18,0,0,0,.74.16,1.2,1.2,0,0,0,1-1.35,1.18,1.18,0,0,0-2-.73l-.58-4.77a1.16,1.16,0,0,0,.74.16,1.19,1.19,0,0,0-.29-2.37,1.14,1.14,0,0,0-.68.34l-.56-4.55a1.12,1.12,0,0,0,.75.16,1.13,1.13,0,0,0,1-1.23,1.11,1.11,0,0,0-1.27-.92,1.16,1.16,0,0,0-.7.34l-.49-4a1.22,1.22,0,0,0,.77.16,1,1,0,0,0,1-1.05,1,1,0,0,0-1.19-.74,1.19,1.19,0,0,0-.71.34l-.4-3.21a1.24,1.24,0,0,0,.79.14c.56-.07,1-.43.92-.77s-.52-.54-1.06-.48a1.37,1.37,0,0,0-.75.33l-.11-.92a.35.35,0,0,0,.07-.21A.27.27,0,0,0,145.8,5l-.07-.57-.42,0,.91-.16c.6-.1,1.47-.23,2.59-.34a34.49,34.49,0,0,1,9.36.36,25,25,0,0,1,6.07,1.89,20.29,20.29,0,0,1,5.92,4.05A20.59,20.59,0,0,1,174.51,16.59Z"/><polygon class="cls-2" points="147.31 43.9 143.72 44.13 144.84 53.21 148.4 52.77 147.31 43.9"/><rect class="cls-2" x="139.05" y="4.9" width="3.59" height="2.37" transform="translate(0.31 17.26) rotate(-7.02)"/><polygon class="cls-2" points="142.93 8.37 139.37 8.81 142.17 31.52 145.75 31.27 142.93 8.37"/></svg>