<?xml version="1.0" encoding="utf-8"?>
<!-- Generator: Adobe Illustrator 26.0.1, SVG Export Plug-In . SVG Version: 6.00 Build 0)  -->
<svg version="1.1" id="Uploaded_to_svgrepo.com" xmlns="http://www.w3.org/2000/svg" xmlns:xlink="http://www.w3.org/1999/xlink"
	 x="0px" y="0px" viewBox="0 0 32 32" style="enable-background:new 0 0 32 32;" xml:space="preserve">
<style type="text/css">
	.st0{fill:#FFFFFF;}
</style>
<path class="st0" d="M24.5,7.5c-4.7-4.7-12.3-4.7-17,0c-4.7,4.7-4.7,12.3,0,17c4.7,4.7,12.3,4.7,17,0C29.2,19.8,29.2,12.2,24.5,7.5z
	 M23.1,23.1c-3.9,3.9-10.2,3.9-14.1,0C5,19.2,5,12.8,8.9,8.9C12.8,5,19.2,5,23.1,8.9C25,10.8,26,13.3,26,16S25,21.2,23.1,23.1z
	 M21.7,11.8L17.4,16l4.2,4.2l-1.4,1.4L16,17.4l-4.2,4.2l-1.4-1.4l4.2-4.2l-4.2-4.2l1.4-1.4l4.2,4.2l4.2-4.2L21.7,11.8z"/>
</svg>
