<?xml version="1.0" encoding="utf-8"?>
<!-- Generator: Adobe Illustrator 26.0.1, SVG Export Plug-In . SVG Version: 6.00 Build 0)  -->
<svg version="1.1" id="Layer_1" xmlns="http://www.w3.org/2000/svg" xmlns:xlink="http://www.w3.org/1999/xlink" x="0px" y="0px"
	 viewBox="0 0 502 502" style="enable-background:new 0 0 502 502;" xml:space="preserve">
<style type="text/css">
	.st0{fill:#FFFFFF;}
</style>
<g>
	<g>
		<path class="st0" d="M251,502c-67,0-130.1-26.1-177.5-73.5C26.1,381.1,0,318,0,251S26.1,120.9,73.5,73.5C120.9,26.1,184,0,251,0
			s130.1,26.1,177.5,73.5C475.9,120.9,502,184,502,251s-26.1,130.1-73.5,177.5C381.1,475.9,318,502,251,502z M251,20
			C123.6,20,20,123.6,20,251s103.6,231,231,231s231-103.6,231-231S378.4,20,251,20z"/>
	</g>
	<g>
		<g>
			<path class="st0" d="M194.1,401c-5.6,0-11.2-1.4-16.2-4c-11.3-6-18.4-17.7-18.4-30.6V135.6c0-12.8,7-24.6,18.4-30.6
				c11.3-6,25-5.3,35.6,1.9l170.2,115.4c9.5,6.4,15.2,17.2,15.2,28.6c0,11.5-5.7,22.2-15.2,28.6L213.5,395
				C207.8,398.9,201.1,401,194.1,401z M194.1,121c-2.3,0-4.7,0.6-6.8,1.7c-4.8,2.5-7.8,7.5-7.8,12.9v230.8c0,5.4,3,10.4,7.8,12.9
				c2.1,1.1,4.5,1.7,6.8,1.7c2.9,0,5.8-0.9,8.2-2.5l170.2-115.4c4-2.7,6.4-7.2,6.4-12.1s-2.4-9.4-6.4-12.1L202.3,123.5
				C199.9,121.8,197,121,194.1,121z"/>
		</g>
	</g>
	<g>
		<path class="st0" d="M286,63c-0.6,0-1.2,0-1.7-0.2c-21.2-3.7-43.4-3.8-64.6-0.3c-5.5,0.9-10.6-2.8-11.5-8.2
			c-0.9-5.4,2.8-10.6,8.2-11.5c23.4-3.9,48-3.8,71.4,0.4c5.4,1,9.1,6.1,8.1,11.6C295,59.6,290.8,63,286,63z"/>
	</g>
	<g>
		<path class="st0" d="M439.8,192c-4.1,0-7.9-2.5-9.4-6.6c-16.4-44.8-48.7-81.7-91.1-103.8c-4.9-2.6-6.8-8.6-4.2-13.5
			c2.6-4.9,8.6-6.8,13.5-4.2c46.8,24.5,82.5,65.2,100.6,114.7c1.9,5.2-0.8,10.9-6,12.8C442.1,191.8,441,192,439.8,192z"/>
	</g>
</g>
</svg>
