<svg xmlns="http://www.w3.org/2000/svg" viewBox="0 0 262.02 77.12"><defs><style>.cls-1{isolation:isolate;}.cls-2{fill:#3f3f3f;}.cls-3{fill:#fef7f1;}.cls-4{fill:none;stroke:#1b1c1a;stroke-linecap:round;stroke-linejoin:round;}.cls-5{fill:#1b1c1a;}.cls-6{mix-blend-mode:multiply;opacity:0.75;}.cls-7{fill:#040000;}.cls-8{fill:#fff;}</style></defs><g class="cls-1"><g id="圖層_1" data-name="圖層 1"><path class="cls-2" d="M250.84,44.14c5-2,9.17-5.52,10.38-9.55a5.83,5.83,0,0,1,.18.72c1,5.47-4.15,10.71-10.62,13.26s-14,3-21.3,3.27c-26.15,1-52.36.94-78.55.83l-74.1-.29-41.95-.17c-7.82,0-16-.11-23-2.68S-.86,41.12.79,35.36a1.42,1.42,0,0,1,.07-.22c1.2,4.22,5.72,8,11.06,10,7.06,2.57,15.19,2.65,23,2.68L76.88,48l74.1.3c26.19.1,52.41.2,78.55-.84C236.84,47.12,244.37,46.7,250.84,44.14Z"/><path class="cls-3" d="M261.22,34.59c-1.21,4-5.41,7.59-10.38,9.55-6.47,2.56-14,3-21.31,3.27-26.14,1-52.36.94-78.55.84L76.88,48l-41.95-.17c-7.82,0-15.95-.11-23-2.68-5.34-1.94-9.86-5.74-11.06-10,1.1-3.46,4.64-6.28,8.78-8a51.49,51.49,0,0,1,13.85-3c15-1.69,30.3-1.56,45.5-1.43L226.83,24.1c7,.07,14.09-1,20.76.55C253.94,26.08,259.88,29.74,261.22,34.59Z"/><path class="cls-4" d="M261.22,34.59c-1.34-4.85-7.28-8.51-13.63-9.94-6.67-1.51-13.76-.48-20.76-.55L69,22.69c-15.2-.13-30.48-.26-45.5,1.43a51.49,51.49,0,0,0-13.85,3C5.5,28.86,2,31.68.86,35.14a1.42,1.42,0,0,0-.07.22c-1.65,5.76,4,11.6,11.07,14.17s15.2,2.65,23,2.68l41.95.17,74.1.29c26.19.11,52.4.21,78.55-.83,7.3-.29,14.84-.72,21.3-3.27s11.62-7.79,10.62-13.26A5.83,5.83,0,0,0,261.22,34.59Z"/><path class="cls-4" d="M.86,35.14c1.2,4.22,5.72,8,11.06,10,7.06,2.57,15.19,2.65,23,2.68L76.88,48l74.1.3c26.19.1,52.41.2,78.55-.84,7.31-.29,14.84-.71,21.31-3.27,5-2,9.17-5.52,10.38-9.55"/><path class="cls-5" d="M65,64A12.4,12.4,0,1,0,52.46,76.23,12.4,12.4,0,0,0,65,64Z"/><path class="cls-2" d="M58.17,63.9a5.57,5.57,0,1,0-5.63,5.5A5.58,5.58,0,0,0,58.17,63.9Z"/><circle class="cls-5" cx="127.33" cy="64.72" r="12.4" transform="matrix(0.92, -0.4, 0.4, 0.92, -15.29, 56.86)"/><path class="cls-2" d="M132.89,64.79a5.56,5.56,0,1,0-5.62,5.49A5.55,5.55,0,0,0,132.89,64.79Z"/><path class="cls-5" d="M217.42,63.47a12.4,12.4,0,1,0-12.55,12.25A12.41,12.41,0,0,0,217.42,63.47Z"/><path class="cls-2" d="M210.58,63.39A5.57,5.57,0,1,0,205,68.88,5.56,5.56,0,0,0,210.58,63.39Z"/><g class="cls-6"><path class="cls-7" d="M34.1,16.55H51.68v17H44.44l-.87-7.28a10,10,0,0,1-4.4,5.8A14.82,14.82,0,0,1,31.42,34,14.57,14.57,0,0,1,24,32.15,12.91,12.91,0,0,1,19,26.84a17,17,0,0,1-1.83-8.07q0-7.36,4.4-11.65T35.25,2.83a23.73,23.73,0,0,1,9.37,1.73,17.33,17.33,0,0,1,6.9,5.36c-1.24.63-3.65,1.89-7.25,3.79l-1,.57a10.51,10.51,0,0,0-3.74-2.41,12.93,12.93,0,0,0-4.53-.8q-4,0-5.89,2.08a7.26,7.26,0,0,0-1.94,5.13,7.06,7.06,0,0,0,2.08,5.31c1.39,1.34,3.51,2,6.36,2a12.19,12.19,0,0,0,3.61-.54,6.48,6.48,0,0,0,2.94-1.85h-8Z"/><path class="cls-7" d="M59.42,29.91Q55,25.82,55,18.4T59.4,7q4.43-4.11,13.9-4.12T87.24,7q4.42,4.12,4.43,11.45T87.26,29.93Q82.85,34,73.3,34T59.42,29.91Zm20.47-6.05c1.34-1.17,2-3,2-5.46a6.8,6.8,0,0,0-2-5.39c-1.35-1.18-3.54-1.77-6.59-1.77s-5.2.59-6.55,1.77-2,3-2,5.39.67,4.26,2,5.44,3.53,1.77,6.55,1.77S78.54,25,79.89,23.86Z"/><path class="cls-7" d="M136.72,24.7a8.54,8.54,0,0,1-1.28,4.76,8.34,8.34,0,0,1-4.57,3,30.2,30.2,0,0,1-9.14,1.09H103.2q.33-8,.33-14.94T103.2,3.7h9.67v0h8.77a30.49,30.49,0,0,1,8,.84A7.71,7.71,0,0,1,133.85,7a6.59,6.59,0,0,1,1.22,4.08,6.53,6.53,0,0,1-1.75,4.47q-1.75,1.95-6,3.15Q136.72,18.73,136.72,24.7ZM112.87,11.24v3.82h7.91a9.72,9.72,0,0,0,3.56-.45,1.65,1.65,0,0,0,1-1.65,1.37,1.37,0,0,0-1-1.33,11.16,11.16,0,0,0-3.52-.39Zm7.91,14.82a20.67,20.67,0,0,0,3.27-.19,3,3,0,0,0,1.63-.66,1.68,1.68,0,0,0,.49-1.29A1.61,1.61,0,0,0,125,22.37a12.94,12.94,0,0,0-4.22-.47h-7.91v4.16Z"/><path class="cls-7" d="M163.52,33.59q-.78-2.34-2.1-5.88H148.29l-2.06,5.88H135.89L147.42,3.7h15.15l11.62,29.89Zm-4.45-12.31q-1.56-4.32-3.21-8.65l-1-2.67q-1.44,3.75-4.24,11.32Z"/><path class="cls-7" d="M178.72,30.05q-4.41-3.94-4.41-11.28t4.41-11.65q4.4-4.29,13.71-4.29,13,0,17.42,8.94a68.65,68.65,0,0,0-8.69,3.83,7.36,7.36,0,0,0-3.77-3.42,13.17,13.17,0,0,0-5.25-1.11c-2.63,0-4.6.69-5.89,2.08a7.26,7.26,0,0,0-1.93,5.13,7.26,7.26,0,0,0,2.08,5.37q2.07,2.09,6.36,2.08a11.13,11.13,0,0,0,5.43-1.13,6.7,6.7,0,0,0,3-3.61q3.38,1.82,8.65,4.08a12.3,12.3,0,0,1-6.88,7,27.34,27.34,0,0,1-10.5,2Q183.12,34,178.72,30.05Z"/><path class="cls-7" d="M234.64,33.59q-1.95-3.5-6.43-10.7l-4.82,4.77v5.93H213.14q.33-8,.33-14.94T213.14,3.7h10.25V15.76A97.46,97.46,0,0,0,234.18,3.7h13.34l-13,12.85q2.88,4,6.49,8.77t6.53,8.27Z"/></g><path class="cls-8" d="M32.68,13.71H50.27V30.76H43l-.87-7.29a9.94,9.94,0,0,1-4.4,5.81A14.9,14.9,0,0,1,30,31.17a14.61,14.61,0,0,1-7.39-1.85A13,13,0,0,1,17.55,24a17,17,0,0,1-1.83-8.07q0-7.38,4.4-11.66T33.84,0A23.72,23.72,0,0,1,43.2,1.73a17.24,17.24,0,0,1,6.9,5.35c-1.23.63-3.65,1.9-7.25,3.79l-1,.58A10.5,10.5,0,0,0,38.08,9a12.71,12.71,0,0,0-4.53-.8q-4,0-5.89,2.07a7.26,7.26,0,0,0-1.94,5.13,7.07,7.07,0,0,0,2.08,5.31q2.09,2,6.37,2a12.5,12.5,0,0,0,3.6-.53,6.4,6.4,0,0,0,2.94-1.86h-8Z"/><path class="cls-8" d="M58,27.07Q53.56,23,53.56,15.56T58,4.12Q62.41,0,71.88,0T85.82,4.12q4.43,4.11,4.43,11.44T85.84,27.09q-4.4,4.08-14,4.08T58,27.07ZM78.47,21c1.35-1.17,2-3,2-5.46s-.67-4.21-2-5.39S74.93,8.4,71.88,8.4s-5.2.59-6.54,1.77-2,3-2,5.39.67,4.26,2,5.44,3.52,1.77,6.54,1.77S77.13,22.19,78.47,21Z"/><path class="cls-8" d="M135.3,21.87A8.51,8.51,0,0,1,134,26.62a8.31,8.31,0,0,1-4.57,3.05,30.15,30.15,0,0,1-9.14,1.09H101.78q.33-8,.33-14.95T101.78.86h9.68V.91h8.77a30.6,30.6,0,0,1,8,.84,7.69,7.69,0,0,1,4.16,2.45,6.57,6.57,0,0,1,1.21,4.08,6.48,6.48,0,0,1-1.75,4.46c-1.17,1.31-3.16,2.36-6,3.15Q135.3,15.89,135.3,21.87ZM111.46,8.4v3.83h7.9a9.72,9.72,0,0,0,3.56-.45,1.64,1.64,0,0,0,1-1.65,1.38,1.38,0,0,0-1.05-1.34,11.16,11.16,0,0,0-3.52-.39Zm7.9,14.82a22.48,22.48,0,0,0,3.28-.18,3,3,0,0,0,1.62-.66,1.72,1.72,0,0,0,.5-1.3,1.6,1.6,0,0,0-1.18-1.54,12.66,12.66,0,0,0-4.22-.47h-7.9v4.15Z"/><path class="cls-8" d="M162.1,30.76q-.78-2.36-2.1-5.89H146.87l-2.06,5.89H134.47L146,.86h15.16l11.61,29.9Zm-4.44-12.31q-1.57-4.33-3.21-8.65l-1-2.68q-1.44,3.75-4.24,11.33Z"/><path class="cls-8" d="M177.3,27.22q-4.41-4-4.41-11.28T177.3,4.28Q181.71,0,191,0q13,0,17.42,8.94a67.23,67.23,0,0,0-8.69,3.83A7.32,7.32,0,0,0,196,9.35a13.1,13.1,0,0,0-5.25-1.11q-3.94,0-5.88,2.07a7.22,7.22,0,0,0-1.94,5.13A7.27,7.27,0,0,0,185,20.82c1.39,1.38,3.51,2.08,6.36,2.08a11.08,11.08,0,0,0,5.44-1.14,6.67,6.67,0,0,0,3-3.6q3.38,1.82,8.65,4.08a12.22,12.22,0,0,1-6.88,7,27.34,27.34,0,0,1-10.5,2Q181.71,31.17,177.3,27.22Z"/><path class="cls-8" d="M233.22,30.76q-1.93-3.5-6.43-10.71L222,24.83v5.93H211.72q.33-8,.33-14.95T211.72.86H222V12.93A99,99,0,0,0,232.77.86h13.34l-13,12.85q2.88,4,6.48,8.77t6.53,8.28Z"/></g></g></svg>