<?xml version="1.0" encoding="utf-8"?>
<!-- Generator: Adobe Illustrator 26.0.1, SVG Export Plug-In . SVG Version: 6.00 Build 0)  -->
<svg version="1.1" id="圖層_1" xmlns="http://www.w3.org/2000/svg" xmlns:xlink="http://www.w3.org/1999/xlink" x="0px" y="0px"
	 viewBox="0 0 718.7 293.5" style="enable-background:new 0 0 718.7 293.5;" xml:space="preserve">
<style type="text/css">
	.st0{fill:#003F57;}
	.st1{fill:#FFFFFF;}
	.st2{fill:#3A3A3A;}
	.st3{fill:#686868;}
	.st4{fill:url(#SVGID_1_);}
	.st5{fill:#5A5A5A;}
	.st6{fill:#7D7D7D;}
	.st7{fill:#373838;}
	.st8{fill:#1C1D1D;}
	.st9{fill:#626363;}
	.st10{fill:#474747;}
	.st11{fill:#2D2D2D;}
	.st12{fill:#747575;}
	.st13{fill:#181818;}
	.st14{fill:#BBBBBB;}
	.st15{fill:#3C3D3D;}
	.st16{fill:#717272;}
	.st17{fill:url(#SVGID_00000023262948208198107500000016504439730269984177_);}
	.st18{fill:#272828;}
	.st19{fill:url(#SVGID_00000116928252643780663880000002044548646753841333_);}
	.st20{fill:url(#SVGID_00000032639718163349799270000004943278329101384868_);}
	.st21{fill:url(#SVGID_00000180335278404529087380000012217968261073381556_);}
	.st22{fill:url(#SVGID_00000099642338167303151760000007602399926248155320_);}
	.st23{fill:url(#SVGID_00000076587980075026687290000006636628663821380018_);}
	.st24{fill:url(#SVGID_00000137838431849494219690000001756558839236534409_);}
	.st25{fill:url(#SVGID_00000026122459864389766860000010932152798038356654_);}
	.st26{fill:url(#SVGID_00000174583281067059144220000001970078352930687883_);}
	.st27{fill:url(#SVGID_00000008859661107198968250000017193379499526849724_);}
	.st28{fill:url(#SVGID_00000085240724687453238200000004008038150455411867_);}
	.st29{fill:url(#SVGID_00000049915947615461179070000018173146707949275579_);}
	.st30{fill:url(#SVGID_00000096748490455078281890000007725762772153843114_);}
	.st31{fill:url(#SVGID_00000077297228060649423940000016431637047719925127_);}
	.st32{fill:url(#SVGID_00000180362005186084329880000012236747716934513554_);}
	.st33{fill:url(#SVGID_00000119824660402161519100000008162374419340635313_);}
	.st34{fill:url(#SVGID_00000140726404615843235550000009411518882835970722_);}
	.st35{fill:url(#SVGID_00000137096915597067437930000016125521569462333631_);}
	.st36{fill:url(#SVGID_00000157990711521430517290000008414514232296452762_);}
	.st37{fill:url(#SVGID_00000007413360367317457160000012298914282897943207_);}
	.st38{fill:url(#SVGID_00000090991883946518045660000007775527377791476130_);}
	.st39{fill:#BCAD97;}
	.st40{fill:#302921;}
	.st41{fill:#E5564A;}
	.st42{fill:#F4F4F4;}
	.st43{fill:#ECCBAB;}
	.st44{fill:#D2D3D3;}
	.st45{fill:#3F3F3F;}
	.st46{fill:#B31E23;}
	.st47{fill:#FEF7F1;}
	.st48{fill:none;stroke:#1B1C1A;stroke-linecap:round;stroke-linejoin:round;stroke-miterlimit:10;}
	.st49{fill:#1B1C1A;}
	.st50{opacity:0.75;}
	.st51{fill:#040000;}
	.st52{fill:#231815;}
	.st53{fill:#2CA6E0;}
	.st54{fill:#00913A;}
	.st55{fill:none;}
	.st56{fill:#E3007F;}
	.st57{fill:#EDC300;}
	.st58{fill:#D90416;stroke:#020100;stroke-miterlimit:10;}
	.st59{fill:#BF0404;stroke:#020100;stroke-miterlimit:10;}
	.st60{fill:#F2921D;stroke:#020100;stroke-miterlimit:10;}
	.st61{fill:#0033CC;stroke:#020100;stroke-miterlimit:10;}
	.st62{fill:#0099CC;stroke:#020100;stroke-miterlimit:10;}
	.st63{fill:#EAB945;stroke:#1B1C1A;stroke-linecap:round;stroke-linejoin:round;stroke-miterlimit:10;}
	.st64{fill:#FEF7F1;stroke:#1B1C1A;stroke-linecap:round;stroke-linejoin:round;stroke-miterlimit:10;}
	.st65{fill:#003366;stroke:#020100;stroke-miterlimit:10;}
	.st66{fill:#FFCC00;stroke:#020100;stroke-miterlimit:10;}
	.st67{fill:none;stroke:#BF0404;stroke-miterlimit:10;}
	.st68{fill:#FFFDFD;stroke:#BF0404;stroke-miterlimit:10;}
	.st69{fill:#FFFFFF;stroke:#BF0404;stroke-miterlimit:10;}
	.st70{fill:#024059;}
	.st71{fill:#048ABF;stroke:#BF0404;stroke-miterlimit:10;}
	.st72{fill:#BF0404;stroke:#FFCC00;stroke-width:10;stroke-miterlimit:10;}
	.st73{fill:#FFCC00;}
</style>
<path class="st72" d="M642.8,288.5H75.9c-39,0-70.9-31.9-70.9-70.9V75.9C5,36.9,36.9,5,75.9,5h566.9c39,0,70.9,31.9,70.9,70.9v141.7
	C713.7,256.6,681.8,288.5,642.8,288.5z"/>
<g>
	<path class="st1" d="M575.7,212.1c-0.7,3.3-1.9,6.5-3.4,9.5c-1.6,3-3.5,5.7-5.6,8.2l-0.5-0.3c0.8-1.6,1.6-3.4,2.2-5.4
		c0.6-2,1.2-4,1.7-6.1c0.5-2.1,0.9-4,1.2-5.9l4.4-0.6V212.1z M577.6,208.1c0.9,0.6,1.6,1.1,2.3,1.5c0.6,0.4,1.2,0.8,1.7,1.2
		c-0.1,0.4-0.4,0.6-1,0.7l-13.8,1.9l-0.3-1l8.9-1.3L577.6,208.1z M573.1,238.5c0,0.1-0.3,0.4-0.8,0.8c-0.6,0.4-1.3,0.6-2.3,0.8
		l-0.7,0.1v-15.6l2.1-3.2l2.2,0.5l-0.5,0.1V238.5z M577.2,234v1l-6.1,0.9v-1L577.2,234z M577.2,221.4v1l-6.1,0.9v-1L577.2,221.4z
		 M574.9,221.7l1.8-2.2l3.8,2.3c-0.1,0.1-0.3,0.3-0.5,0.5c-0.2,0.2-0.5,0.3-0.9,0.4v13.5c0,0.1-0.2,0.2-0.5,0.4
		c-0.4,0.2-0.8,0.4-1.3,0.6c-0.5,0.2-1,0.3-1.4,0.4l-0.6,0.1v-16.1L574.9,221.7z M582.9,209.8c0.5,1.6,0.7,3.1,0.4,4.4
		c-0.2,1.3-0.7,2.2-1.3,2.9c-0.3,0.3-0.7,0.5-1.1,0.6c-0.4,0.1-0.9,0.1-1.3,0s-0.7-0.4-0.9-0.8c-0.2-0.6-0.2-1.1,0.1-1.6
		c0.3-0.5,0.7-1,1.2-1.3c0.3-0.3,0.7-0.6,1-1c0.3-0.4,0.6-0.9,0.9-1.4c0.3-0.5,0.4-1,0.4-1.5L582.9,209.8z M593.5,205.8
		c0,0.2-0.2,0.4-0.3,0.6s-0.5,0.3-1,0.4c-0.5,1.6-1.2,3.2-1.9,4.9c-0.8,1.7-1.7,3.4-2.8,5.1c-1.1,1.7-2.3,3.4-3.7,5
		c-1.4,1.6-3,3-4.7,4.3l-0.3-0.3c1.2-1.5,2.4-3.1,3.3-4.8c1-1.7,1.8-3.5,2.6-5.3c0.7-1.8,1.4-3.6,1.9-5.4c0.5-1.8,0.9-3.4,1.2-5
		L593.5,205.8z M585.8,238.5c0,0.1-0.3,0.4-0.9,0.9c-0.6,0.4-1.4,0.7-2.4,0.9l-0.8,0.1V223l2.6-4.5l1.9,0.5l-0.5,0.1V238.5z
		 M597.7,209.3v1l-15.2,2.1v-1L597.7,209.3z M596.1,215.2c0.8,0.5,1.5,0.9,2,1.3c0.6,0.3,1.1,0.7,1.5,1c-0.1,0.4-0.4,0.6-0.9,0.7
		l-15,2.1v-1l10.5-1.5L596.1,215.2z M596.9,231.5c0.8,0.6,1.5,1.1,2.1,1.5c0.6,0.4,1.1,0.8,1.5,1.2c-0.1,0.4-0.4,0.6-0.9,0.7
		l-15.8,2.2v-1l11.2-1.6L596.9,231.5z M595.6,220.7c0.7,0.5,1.4,1,1.9,1.3c0.5,0.4,1,0.7,1.4,1.1c-0.1,0.4-0.4,0.6-0.9,0.7l-14.1,2
		v-1l10-1.4L595.6,220.7z M595.8,226.2c0.7,0.5,1.4,1,1.9,1.3c0.5,0.4,1,0.7,1.4,1.1c-0.1,0.4-0.4,0.6-0.9,0.7l-14.3,2v-1l10.2-1.4
		L595.8,226.2z M588.8,212.8c1.3,0.1,2.2,0.4,2.9,0.8c0.7,0.4,1.1,0.8,1.3,1.3c0.2,0.5,0.3,0.9,0.1,1.4c-0.1,0.5-0.4,0.8-0.7,1.2
		c-0.4,0.3-0.8,0.5-1.2,0.5c-0.5,0-0.9-0.1-1.4-0.5c0.1-0.8,0-1.6-0.3-2.4c-0.3-0.8-0.6-1.5-1-2L588.8,212.8z M593.2,218.4v16.8
		l-4.1,0.6V219L593.2,218.4z M595.5,209.6l1.9-2.2l3.4,2.8c-0.1,0.2-0.3,0.3-0.5,0.4c-0.2,0.1-0.5,0.2-0.8,0.2
		c-0.5,0.6-1.2,1.3-2,2.1c-0.8,0.8-1.5,1.5-2.2,2l-0.4-0.1c0.1-0.5,0.2-1,0.3-1.7c0.1-0.6,0.3-1.3,0.4-1.9c0.1-0.7,0.2-1.2,0.3-1.6
		L595.5,209.6z"/>
	<path class="st1" d="M622.1,224.5c0,0.3-0.2,0.5-0.4,0.7c-0.2,0.2-0.6,0.3-1,0.4c-0.4,2-1,3.9-1.8,5.9c-0.8,2-1.9,3.9-3.4,5.8
		s-3.3,3.6-5.7,5.1l-0.3-0.3c1.6-1.7,2.8-3.6,3.7-5.7s1.6-4.1,2-6.2s0.7-4,0.8-5.8L622.1,224.5z M614.8,211.8c0.6,1.4,0.9,2.6,1,3.8
		c0,1.2-0.1,2.2-0.5,3s-0.9,1.5-1.5,2c-0.4,0.3-0.9,0.5-1.5,0.6c-0.6,0.1-1.1,0-1.6-0.3c-0.5-0.3-0.8-0.7-1-1.2
		c-0.2-0.8-0.1-1.5,0.3-2.2c0.4-0.7,1-1.2,1.6-1.6c0.4-0.3,0.8-0.6,1.3-1c0.4-0.4,0.8-0.9,1.1-1.4c0.3-0.5,0.4-1,0.4-1.6
		L614.8,211.8z M639.2,210.5v1l-24.7,3.5v-1L639.2,210.5z M635.5,214.2c0.6,0.3,1.1,0.6,1.5,0.9c0.4,0.3,0.9,0.6,1.4,0.9
		c0.5,0.3,0.9,0.6,1.4,0.9c-0.1,0.4-0.4,0.6-1,0.7l-23.9,3.4l-0.3-1l18.6-2.6L635.5,214.2z M617.7,228.6c0.7,1.5,1.5,2.7,2.5,3.5
		c0.9,0.9,2.1,1.4,3.4,1.7c1.3,0.3,2.9,0.4,4.7,0.4c1.8-0.1,3.8-0.2,6.2-0.6c0.5-0.1,1.2-0.2,2-0.3c0.8-0.1,1.7-0.2,2.6-0.4
		c0.9-0.1,1.8-0.2,2.6-0.4c0.9-0.1,1.6-0.2,2.1-0.3v0.4c-0.8,0.3-1.4,0.9-1.8,1.7c-0.4,0.8-0.6,1.7-0.6,2.7
		c-0.4,0.1-0.9,0.2-1.5,0.2c-0.6,0.1-1.3,0.2-2,0.3c-0.7,0.1-1.4,0.2-2,0.3c-0.6,0.1-1.1,0.2-1.5,0.2c-2.4,0.3-4.6,0.4-6.4,0.4
		c-1.8-0.1-3.4-0.4-4.8-1.1s-2.5-1.7-3.4-3.1c-0.9-1.4-1.7-3.3-2.2-5.6L617.7,228.6z M623.3,206.6c1.9-0.3,3.4-0.3,4.4-0.1
		s1.8,0.7,2.2,1.2s0.5,1.1,0.4,1.8c-0.1,0.6-0.4,1.2-0.9,1.7c-0.5,0.5-1.1,0.8-1.8,1c-0.7,0.1-1.4,0-2.2-0.5c0-1-0.2-1.9-0.7-2.8
		c-0.4-0.9-1-1.6-1.7-2.1L623.3,206.6z M628.9,218v18.4l-4.6-0.5v-17.3L628.9,218z M635.5,221.9c0.6,0.4,1.1,0.7,1.5,1
		c0.4,0.3,0.9,0.6,1.4,0.9c0.5,0.3,0.9,0.6,1.3,0.9c-0.1,0.4-0.4,0.6-1,0.7l-12,1.7v-1l6.5-0.9L635.5,221.9z M637.2,210.8l2.4-2.7
		l4.2,3.3c-0.2,0.2-0.4,0.3-0.6,0.4c-0.2,0.1-0.5,0.2-0.9,0.3c-0.6,0.6-1.4,1.4-2.4,2.1c-1,0.8-1.9,1.4-2.8,1.9l-0.3-0.2
		c0.1-0.5,0.2-1,0.3-1.7c0.1-0.6,0.2-1.3,0.3-1.9c0.1-0.6,0.1-1.1,0.2-1.6L637.2,210.8z"/>
</g>
<g>
	<g>
		<path class="st1" d="M294.8,137h-41.4V133h11.2c-0.8-1.8-1.8-3.7-3-5.5h-6.5v-3.9h16.6c-0.5-1-1.2-2.1-2.1-3.4l4.6-1
			c0.9,1.4,1.7,2.9,2.5,4.4h16.6v3.9h-7.4c-0.6,1.6-1.5,3.5-2.5,5.5h11.5V137z M288.7,161.4h-4.4v-2.2h-20.5v2.2h-4.4v-21.1h29.3
			V161.4z M284.3,147.7V144h-20.5v3.8H284.3z M284.3,155.4v-3.9h-20.5v3.9H284.3z M281.1,127.5h-14.6c1.1,1.9,2.1,3.7,2.8,5.5h9.2
			C279.7,130.8,280.5,129,281.1,127.5z"/>
		<path class="st1" d="M352,160.7h-41.3v-3h18.6v-2.1h-15.8v-2.7h15.8v-2h-14.9v-11.6h33.8v11.6h-14.9v2h16.2v2.7h-16.2v2.1H352
			V160.7z M351.6,137.3H311v-3.3h40.6V137.3z M348.1,132.2h-33.8v-11.7h33.8V132.2z M344,124.9v-1.8h-25.7v1.8H344z M344,129.4v-1.9
			h-25.7v1.9H344z M329.3,143.8v-1.9h-10.9v1.9H329.3z M329.3,148.3v-1.9h-10.9l0,1.9H329.3z M344.1,143.8v-1.9h-10.8v1.9H344.1z
			 M344.1,148.3v-1.9h-10.8v1.9H344.1z"/>
		<path class="st1" d="M378.5,137.3l-2.7,3.4c-2.2-2-5-4-8.4-6.1l2.8-3.4C372.8,132.9,375.6,134.9,378.5,137.3z M379,145.8
			c-2.4,6.3-5.1,11.5-8,15.8l-3.5-2.6c2.8-3.9,5.4-9.1,7.7-15.5L379,145.8z M379.2,126.3l-2.8,3.3c-2.8-2.8-5.6-5-8.3-6.8l2.9-3.3
			C374,121.5,376.7,123.8,379.2,126.3z M409.1,160.5h-30.6v-4.2h13.1V145h-10v-4h10v-9.8h-11.9V127h12.2c-0.9-2.1-1.9-4.1-3-6.1
			l4.3-1.4c1.1,2,2.2,4.5,3.4,7.5h11.7v4.1h-12.3v9.8h10.9v4h-10.9v11.3h13.2V160.5z"/>
		<path class="st1" d="M434.1,152.8c-2,3.6-3.9,6.4-5.8,8.4l-3.5-2.4c2.1-2.1,3.9-4.8,5.6-7.9L434.1,152.8z M465.5,132.7h-40.4v-3.5
			h11.3c-0.4-0.9-1-1.8-1.7-2.7h-7.2V123h15.1c-0.3-0.7-0.8-1.6-1.4-2.6l4.4-1c0.6,1,1.2,2.2,1.8,3.5h15.9v3.4h-7
			c-0.4,0.7-1.1,1.6-1.9,2.7h11.2V132.7z M460.5,149.6H430V135h30.5V149.6z M456.3,140.5v-2h-22v2H456.3z M456.3,146.2v-2.5h-22v2.5
			H456.3z M457.5,154.7c-0.3,4.2-1.7,6.3-4,6.3l-8.8,0c-3.7,0-5.9-0.1-6.6-0.2c-0.7-0.1-1.2-0.4-1.7-0.9c-0.5-0.5-0.7-1.3-0.7-2.5
			v-6.2h4.2v4.6c0,0.9,0.3,1.3,1,1.3l10.5,0c1.3,0,1.9-1.2,1.9-3.6L457.5,154.7z M451,126.5h-11.3c0.4,0.6,0.8,1.5,1.4,2.7h7.8
			C450,128,450.6,127.1,451,126.5z M450,154.8l-4,1c-0.6-1.4-1.5-2.9-2.5-4.4l4-1.2C448.6,151.8,449.4,153.4,450,154.8z
			 M466.4,158.6l-3.6,2.3c-1.3-2.8-3.1-5.5-5.3-8.1l3.5-2.4C463.5,153.3,465.3,156,466.4,158.6z"/>
	</g>
</g>
<path class="st73" d="M526.9,101.8c-21.3,0-38.6,17.3-38.6,38.6s17.3,38.6,38.6,38.6c21.3,0,38.6-17.3,38.6-38.6
	S548.2,101.8,526.9,101.8z M526.9,168.5c-2.9,0-5.2-2.3-5.2-5.2s2.3-5.2,5.2-5.2s5.2,2.3,5.2,5.2S529.8,168.5,526.9,168.5z
	 M530,152.9h-6.3l-2.1-37.5h10.4L530,152.9z"/>
<path class="st73" d="M191.7,101.8c-21.3,0-38.6,17.3-38.6,38.6s17.3,38.6,38.6,38.6s38.6-17.3,38.6-38.6S213,101.8,191.7,101.8z
	 M191.7,168.5c-2.9,0-5.2-2.3-5.2-5.2s2.3-5.2,5.2-5.2s5.2,2.3,5.2,5.2S194.6,168.5,191.7,168.5z M194.9,152.9h-6.3l-2.1-37.5H197
	L194.9,152.9z"/>
</svg>
