<svg id="圖層_1" data-name="圖層 1" xmlns="http://www.w3.org/2000/svg" viewBox="0 0 409.13 114.19"><defs><style>.cls-1{fill:#f4f4f4;}.cls-2{fill:#bcad97;}.cls-3{fill:#302921;}</style></defs><path class="cls-1" d="M325.79,70.8a48,48,0,0,1,5.18-.65c1.29-.09,2.57-.13,3.72-.12a1.38,1.38,0,0,0,0,.2c0,.21,0,.39,0,.62a1.8,1.8,0,0,1,0,.22c-1.11.16-2.36.3-3.62.4a47.35,47.35,0,0,1-5.23.09,23.5,23.5,0,0,1-2.39-.21A22.19,22.19,0,0,1,325.79,70.8Z"/><path class="cls-1" d="M341.26,73.14a3.12,3.12,0,0,1-1.39,0,3.45,3.45,0,0,1-1.3-.68,3.34,3.34,0,0,1-.85-1.19,2.73,2.73,0,0,1-.2-.72,1.89,1.89,0,0,1,0-.31c0-.14,0-.24,0-.36a3,3,0,0,1,1.06-2.11,2.62,2.62,0,0,1,1.47-.62,3,3,0,0,1,.58,0,2.89,2.89,0,0,0-.51.21,3,3,0,0,0-1,.88,2.6,2.6,0,0,0-.46,1.62,1.05,1.05,0,0,0,0,.21,1.5,1.5,0,0,0,.05.26,3.78,3.78,0,0,0,.16.41,2.16,2.16,0,0,0,.56.72,2.12,2.12,0,0,0,.8.45,2.33,2.33,0,0,0,.92.11,2.51,2.51,0,0,0,1.51-.68,3,3,0,0,0,.73-1.12,3.44,3.44,0,0,0,.14-.54,2,2,0,0,1,.11.57,2.55,2.55,0,0,1-.4,1.54A2.92,2.92,0,0,1,341.26,73.14Z"/><path class="cls-1" d="M335.8,78.45c.54-1.12,1.12-2.19,1.67-3.16a5.92,5.92,0,0,0,1,.44c-.41,1-.9,2.17-1.45,3.29a48,48,0,0,1-2.53,4.58,21.57,21.57,0,0,1-1.38,2,22.43,22.43,0,0,1,.7-2.3A46.37,46.37,0,0,1,335.8,78.45Z"/><path class="cls-1" d="M345.55,69.32a5.11,5.11,0,0,0-.56-1.65c1.16-.64,2.54-1.46,3.88-2.37A47,47,0,0,0,353,62.14a23,23,0,0,0,1.75-1.64,23,23,0,0,0-2.17,1,47.11,47.11,0,0,0-4.48,2.7c-1.34.91-2.61,1.87-3.64,2.72a5,5,0,0,0-1.32-1.14c.69-1.14,1.47-2.54,2.17-4a47.3,47.3,0,0,0,2-4.82,23.34,23.34,0,0,0,.7-2.3,21.57,21.57,0,0,0-1.38,2,49,49,0,0,0-2.53,4.57c-.71,1.46-1.33,2.93-1.79,4.18a5.2,5.2,0,0,0-1.72-.32,45.07,45.07,0,0,0-.11-4.55,47.84,47.84,0,0,0-.65-5.19c0-.18-.07-.36-.1-.53l-.63.1c0,.15,0,.32,0,.48a50.11,50.11,0,0,0,.1,5.23c.12,1.59.31,3.16.53,4.46h.3l-.27.07a7,7,0,0,0-.74.23,5.54,5.54,0,0,0-1,.55,5.63,5.63,0,0,0-1.09,1,5,5,0,0,0-1.14,3.3,3.38,3.38,0,0,0,0,.47,3.43,3.43,0,0,0,.1.52,4.31,4.31,0,0,0,.32.91,4.59,4.59,0,0,0,1.2,1.6,4.81,4.81,0,0,0,3.71,1.13,5,5,0,0,0,3.09-1.6,5.24,5.24,0,0,0,.84-1.22,5.55,5.55,0,0,0,.4-1.1,6.25,6.25,0,0,0,.15-1l0,.27v0c1.32,0,2.89,0,4.49-.11a47.44,47.44,0,0,0,5.18-.66,22.19,22.19,0,0,0,2.34-.55,22.12,22.12,0,0,0-2.39-.2,47.35,47.35,0,0,0-5.23.09C348.45,68.9,346.86,69.1,345.55,69.32Zm-.82.5A4.17,4.17,0,1,1,340.27,66,4.16,4.16,0,0,1,344.73,69.82Z"/><path class="cls-1" d="M332.25,65.35c1.23.6,2.43,1.25,3.46,1.86a5.27,5.27,0,0,0-.52.87c-1.09-.43-2.31-1-3.52-1.54A46.47,46.47,0,0,1,327.1,64a21.14,21.14,0,0,1-2-1.37,21.43,21.43,0,0,1,2.3.69A47.3,47.3,0,0,1,332.25,65.35Z"/><path class="cls-1" d="M345.57,72c1.18.45,2.55,1,3.9,1.69A46.58,46.58,0,0,1,354,76.24a22.23,22.23,0,0,1,2,1.38,20.38,20.38,0,0,1-2.3-.7,49.39,49.39,0,0,1-4.82-2c-1.29-.64-2.56-1.32-3.63-2A4.53,4.53,0,0,0,345.57,72Z"/><path class="cls-1" d="M359.1,74.61c.18-.72.3-1.39.43-2a21.44,21.44,0,0,0,.23-2.86v-1s0,.35.05,1a17.94,17.94,0,0,1,0,2.89c-.1.62-.19,1.3-.33,2a19.43,19.43,0,0,1-.68,2.35A18,18,0,0,1,356,82.2a19.71,19.71,0,0,1-5.13,4.73,18.93,18.93,0,0,1-7.32,2.76,19.88,19.88,0,0,1-8.34-.48,19.23,19.23,0,0,1-12.75-11,14.31,14.31,0,0,1-.76-2,16.1,16.1,0,0,1-.53-2.07,19.24,19.24,0,0,1-.29-2c-.11-.72-.05-1.39-.09-2.08a18.9,18.9,0,0,1,1.33-6.7l1.51-1.18c-.1.21-.21.41-.29.63A19.22,19.22,0,0,0,321.89,70a17.56,17.56,0,0,0,.1,1.93,15.88,15.88,0,0,0,.31,2,17.32,17.32,0,0,0,1.24,3.79,18.88,18.88,0,0,0,12,10.38,18.68,18.68,0,0,0,7.88.52,19.35,19.35,0,0,0,7-2.45,19.27,19.27,0,0,0,7.95-9.26A17.4,17.4,0,0,0,359.1,74.61Z"/><path class="cls-1" d="M341.5,75.93c.17,1.13.32,2.41.41,3.69a47.57,47.57,0,0,1,.1,5.23,23.93,23.93,0,0,1-.21,2.4,23,23,0,0,1-.55-2.34,48.17,48.17,0,0,1-.65-5.19c-.09-1.27-.13-2.52-.12-3.65a5.42,5.42,0,0,0,.81-.08A1.66,1.66,0,0,0,341.5,75.93Z"/><path class="cls-1" d="M332.59,57.66a48.8,48.8,0,0,1,3.16,4.17c.83,1.24,1.61,2.51,2.23,3.62a5,5,0,0,0-.87.43c-.78-1-1.64-2.12-2.45-3.31a47.53,47.53,0,0,1-2.7-4.48c-.23-.44-.42-.83-.57-1.16l.38-.18C332,57,332.28,57.3,332.59,57.66Z"/><path class="cls-1" d="M345.39,78.42c-.75-1.11-1.44-2.24-2-3.26a6.35,6.35,0,0,0,.78-.64c.75.93,1.56,2,2.33,3.16a46.29,46.29,0,0,1,2.7,4.48,22.53,22.53,0,0,1,1,2.18,21,21,0,0,1-1.65-1.76A47,47,0,0,1,345.39,78.42Z"/><path class="cls-1" d="M318.83,70.4a23,23,0,0,0,45,4.84,23.77,23.77,0,0,1-46.86-2.72c.63-1.16,1.25-2.3,1.87-3.41C318.81,69.54,318.8,70,318.83,70.4Z"/><path class="cls-1" d="M187.84,31.09a1.92,1.92,0,0,0-1.4-.8,2.46,2.46,0,0,1,1.07-.35l4.3-.3a2.36,2.36,0,0,1,2.15,1l2.78,4.08-6,.48Z"/><path class="cls-1" d="M264.17,28.75,243.55,10l9.78,19.75Zm-5.8-.95c1.3,0,2.6,0,3.91.1-1.28.26-2.57.48-3.86.66s-2.58.34-3.88.47l-.35,0-.19-.34c-1.31-2.28-2.54-4.62-3.69-7-.59-1.18-1.14-2.38-1.68-3.59s-1-2.43-1.5-3.67c.76,1.08,1.49,2.19,2.18,3.31s1.37,2.26,2,3.41q1.86,3.29,3.52,6.68C256,27.83,257.19,27.8,258.37,27.8Z"/><path class="cls-1" d="M125.32,35.58a1.9,1.9,0,0,0-1.14-.76,2.34,2.34,0,0,1,1.19-.42l4.3-.31a2.41,2.41,0,0,1,2.15,1l1.42,2.09-6.5.36Z"/><path class="cls-1" d="M277.08,26.59h0L242.65,2.66a3.25,3.25,0,0,0-2.17,1.06l26.91,24.49,6.06-.51A18.06,18.06,0,0,0,277.08,26.59Zm-3-.85a27.07,27.07,0,0,1-2.79.83,21.66,21.66,0,0,1-2.89.55h-.14l-.13-.1L265,24.49c-1-.85-2-1.73-3.06-2.59-2-1.74-4-3.5-6-5.28S252,13,250.07,11.18s-3.86-3.7-5.71-5.63c2.14,1.6,4.23,3.27,6.29,5s4.11,3.41,6.12,5.16,4,3.53,6,5.32c1,.91,2,1.8,2.94,2.72l2.8,2.66A44.2,44.2,0,0,0,274.07,25.74Z"/><path class="cls-2" d="M270.71,42.14l11.6-.79L282.07,38a9.37,9.37,0,0,0-4.27-7.59,33.78,33.78,0,0,1-9.44,1.82c-8.1.58-56.59,5.34-84.5,7.35-1.65.11-3.19.22-4.62.3-1.26.78-3.32,2.7-3,7l.13,1.88,26-1.93ZM202,42.39a1.2,1.2,0,0,1-1.11,1.29l-14.84,1.06a1.2,1.2,0,0,1-.17-2.39l14.84-1.07A1.19,1.19,0,0,1,202,42.39Z"/><path class="cls-2" d="M284.29,79.37a17.39,17.39,0,0,0,.42-4.54l-1.83-25.46-7.22.62c-11.13.9-24.1,2.07-38,3.11l-43.59,3.3L177,57.56l1.79,24.86c.31,4.36.63,8.85,8.67,8.28l96.23-6.91A44.27,44.27,0,0,1,284.29,79.37Zm-14.58-1.46-3.14.35c-2,.19-4.85.53-8.28.83s-7.43.7-11.72,1l-13.45,1.05-13.46.88c-4.29.28-8.31.45-11.75.64s-6.31.27-8.32.36l-3.15.11,3.14-.35c2-.2,4.85-.53,8.28-.83s7.43-.71,11.72-1l13.45-1L246.49,79c4.29-.28,8.31-.45,11.75-.65s6.31-.27,8.31-.36Zm13.46,2.67s-1.55.23-4.26.56-6.6.81-11.26,1.29-10.1,1-15.94,1.54l-9,.76-9.29.71-9.3.62c-3.07.22-6.09.36-9,.54-5.84.33-11.3.58-16,.75s-8.59.24-11.32.33-4.31.06-4.31.06,1.55-.23,4.27-.56,6.59-.82,11.26-1.3,10.1-1,15.93-1.53c2.92-.24,5.93-.54,9-.76l9.29-.71,9.3-.62,9-.54c5.85-.32,11.31-.58,16-.75s8.59-.24,11.32-.33S283.17,80.58,283.17,80.58Z"/><path class="cls-1" d="M397.45,50.73h.19c2.13.66,7.47,2.54,7.64,4.92.21,3-8.13,1.55-9.34,4.1-.33.68-.81,2-1.42,3.64,0-.37,0-.74-.06-1.15-.37-3.78-.29-5.48,1.12-7.48s2.28-3.33,2.28-3.33c-4.88.35-6.28.56-6.89,4-.5,2.8-.74,13.06-.82,16.73a10.05,10.05,0,0,1-1,1.11c.14-4.23.48-13.58.91-18.39C390.4,51,392.23,50.82,397.45,50.73Z"/><path class="cls-2" d="M237.5,50.89l-43.61,3-17.07,1.29-.28-3.91,26-1.81,68.3-5.07,11.59-.87.33,4.65-7.24.42C264.42,49.25,251.41,49.94,237.5,50.89Z"/><path class="cls-1" d="M326.36,79.75a21.74,21.74,0,0,1,1.75-1.65,49,49,0,0,1,4.16-3.16c1-.69,2.09-1.34,3.06-1.9a5,5,0,0,0,.56.88C335,74.61,334,75.34,333,76a46.84,46.84,0,0,1-4.48,2.69A21.84,21.84,0,0,1,326.36,79.75Z"/><path class="cls-1" d="M112.39,92.36c.17,1.14.31,2.41.41,3.7a47.31,47.31,0,0,1,.09,5.23,22.12,22.12,0,0,1-.2,2.39,22.19,22.19,0,0,1-.55-2.34,47.64,47.64,0,0,1-.66-5.19c-.08-1.26-.12-2.52-.12-3.65a6.79,6.79,0,0,0,.81-.07Z"/><path class="cls-1" d="M103.13,81.78c1.24.61,2.44,1.26,3.47,1.86a6.25,6.25,0,0,0-.52.87c-1.1-.43-2.32-1-3.52-1.54-.93-.45-1.83-.93-2.66-1.39l2.42-.18Z"/><path class="cls-1" d="M106.68,94.88c.55-1.11,1.13-2.19,1.68-3.15a5.87,5.87,0,0,0,1,.43c-.41,1-.91,2.17-1.45,3.3a49,49,0,0,1-2.53,4.57c-.77,1.21-1.38,2-1.38,2a21.43,21.43,0,0,1,.69-2.3C105.13,98.35,105.86,96.59,106.68,94.88Z"/><path class="cls-1" d="M116.28,94.86c-.75-1.11-1.45-2.25-2-3.27A5.52,5.52,0,0,0,115,91c.74.94,1.56,2,2.33,3.17a47.11,47.11,0,0,1,2.7,4.48,23,23,0,0,1,1,2.17A23,23,0,0,1,119.44,99,47,47,0,0,1,116.28,94.86Z"/><path class="cls-1" d="M96.67,87.24a48.17,48.17,0,0,1,5.19-.65c1.29-.09,2.57-.13,3.72-.13a1.52,1.52,0,0,0,0,.21,4.32,4.32,0,0,0,0,.62c0,.07,0,.14,0,.21-1.12.17-2.36.31-3.63.4a50,50,0,0,1-5.22.1,23.93,23.93,0,0,1-2.4-.21A23,23,0,0,1,96.67,87.24Z"/><path class="cls-1" d="M5.3,80.12l9.68-.7c1-.07,2.72-.19,3,4.2l1,14.44L17.4,98c-.07-1-.7-9.78-1-13.48-.22-3-.89-3.7-2.54-3.58l-7.64.55a11.44,11.44,0,0,1,5.49,6.89,15.9,15.9,0,0,1-.28,7.09C8.7,92,7.28,86,5.28,84.87S3.54,81.33,5.3,80.12Z"/><path class="cls-1" d="M116.46,88.46c1.18.45,2.55,1,3.9,1.69a49,49,0,0,1,4.57,2.53,21.57,21.57,0,0,1,2,1.38,23.34,23.34,0,0,1-2.3-.7,47.3,47.3,0,0,1-4.82-2c-1.3-.63-2.56-1.32-3.63-2A4.75,4.75,0,0,0,116.46,88.46Z"/><path class="cls-1" d="M130,91.05c.18-.72.3-1.39.43-2a21.09,21.09,0,0,0,.22-2.85c0-.66,0-1,0-1s0,.36.05,1a19.2,19.2,0,0,1,0,2.89c-.1.61-.19,1.3-.34,2a21.93,21.93,0,0,1-.67,2.35,18,18,0,0,1-2.79,5.16,19.47,19.47,0,0,1-5.12,4.72,18.93,18.93,0,0,1-7.32,2.76,19.88,19.88,0,0,1-8.34-.47A19.34,19.34,0,0,1,93.33,94.6a16.2,16.2,0,0,1-.75-2,15.84,15.84,0,0,1-.53-2.08,16.41,16.41,0,0,1-.29-2,16.09,16.09,0,0,1-.09-2.07,17.62,17.62,0,0,1,.27-2.83l1.14-.44a20.83,20.83,0,0,0-.3,3.28,17.69,17.69,0,0,0,.1,1.93,14.09,14.09,0,0,0,.31,2,17.65,17.65,0,0,0,1.23,3.79,18.86,18.86,0,0,0,12,10.38,18.67,18.67,0,0,0,7.88.53,19.41,19.41,0,0,0,7-2.45,19.39,19.39,0,0,0,8-9.26A21.8,21.8,0,0,0,130,91.05Z"/><path class="cls-2" d="M14.8,76.87c3.5-.25,5.44,2,5.77,6.57l.8,11.06c6.61.13,37.38.71,51,.68,9.34-17.61,16.12-19,26.35-19.69l30.05-2.15c11.36-.82,13.34,13.26,14.83,21.11l31.63-2.27,5-.35c-3.48-2.24-3.8-6.52-4-9.22l-1.78-24.88-24,1.63c-13.92,1-26.92,1.65-38.06,2.34S92,62.8,85.48,63.16l-10.22.48,10.18-1c6.49-.57,15.74-1.49,26.87-2.4s24.09-2.08,38-3.12l23.95-1.81L174,51.4l-39.74,2.76c-21.8,1.52-42.17,2.73-59.62,3.88s-32,1.93-42.19,2.55l-16,.9,16-1.39c10.17-.84,24.68-2.13,42.12-3.5s37.76-3.06,59.56-4.66L173.81,49l-.14-1.88a10.5,10.5,0,0,1,1.7-7c-18.73.91-19-.91-63.27,2.27C62,46,19.93,56.19,15.84,57.45c-3.2,1-6.79,9.52-8.19,13.14l18-.18L7.1,72.9l.32,4.5Zm54,16,.51-1c.34-.68.78-1.71,1.46-3s1.5-2.76,2.57-4.43a42.31,42.31,0,0,1,4-5.41,25.34,25.34,0,0,1,6.18-5.16A23.94,23.94,0,0,1,92,70.93c3.09-.5,6.21-.72,9.37-1l9.61-.74,9.62-.64,9.32-.56a20.74,20.74,0,0,1,2.37,0,9.11,9.11,0,0,1,2.37.34,11.52,11.52,0,0,1,4.2,2,15.78,15.78,0,0,1,4.85,6.56,35,35,0,0,1,2,6.42c.41,1.94.71,3.64.91,5s.33,2.51.44,3.26.14,1.15.14,1.15l-1.07-4.31a51.43,51.43,0,0,0-3.74-10.93,14.9,14.9,0,0,0-4.65-5.65,9.55,9.55,0,0,0-3.54-1.46,8.79,8.79,0,0,0-2-.21,19.77,19.77,0,0,0-2.13.08l-9.3.77-9.61.74-9.62.64c-3.17.25-6.31.32-9.21.73a23.68,23.68,0,0,0-8,2.37,26.2,26.2,0,0,0-6,4.5A53.35,53.35,0,0,0,74.08,85c-1.19,1.55-2.13,3-2.92,4.15C69.64,91.5,68.76,92.86,68.76,92.86ZM26.89,87.55l1.6-.15c1-.07,2.47-.22,4.21-.3s3.78-.23,6-.3,4.51-.13,6.83-.18,4.66,0,6.84,0,4.22.08,6,.11,3.2.13,4.22.17l1.6.1-1.59.15c-1,.07-2.47.21-4.22.3s-3.77.22-5.95.29-4.51.14-6.84.18-4.65,0-6.83,0-4.22-.08-6-.11-3.2-.14-4.22-.17Z"/><path class="cls-1" d="M89.67,84.49a23,23,0,0,0,45,7.19,23.78,23.78,0,0,1-46.94-3.42,24,24,0,0,1,0-2.94C88.35,85,89,84.77,89.67,84.49Z"/><path class="cls-1" d="M116.43,85.76a4.81,4.81,0,0,0-.56-1.65c1.17-.64,2.54-1.47,3.88-2.37.85-.58,1.68-1.18,2.43-1.76l-2.42.17-.75.49c-1.33.91-2.61,1.88-3.63,2.73a5,5,0,0,0-1.32-1.15c.32-.53.65-1.1,1-1.73l-1.32.1c-.17.43-.34.85-.49,1.25a4.85,4.85,0,0,0-1.71-.32c0-.25,0-.51,0-.78l-1,.08c0,.24.08.47.11.7H111l-.27.06c-.18,0-.43.14-.74.24a5.27,5.27,0,0,0-2.12,1.55,5,5,0,0,0-1.15,3.31c0,.15,0,.34,0,.47a3.74,3.74,0,0,0,.09.52,6.21,6.21,0,0,0,.32.91,4.86,4.86,0,0,0,3,2.56,4.89,4.89,0,0,0,5-1.44,5.68,5.68,0,0,0,.84-1.22,6,6,0,0,0,.4-1.1,6.11,6.11,0,0,0,.15-1l0,.28v0c1.32,0,2.9,0,4.49-.11a47.84,47.84,0,0,0,5.19-.65,22.19,22.19,0,0,0,2.34-.55,23.5,23.5,0,0,0-2.39-.21,47.5,47.5,0,0,0-5.23.1C119.34,85.34,117.75,85.53,116.43,85.76Zm-.81.5a4.17,4.17,0,1,1-4.46-3.86A4.18,4.18,0,0,1,115.62,86.26Z"/><path class="cls-1" d="M112.15,89.58a3,3,0,0,1-1.39,0,3.3,3.3,0,0,1-1.3-.67,3.49,3.49,0,0,1-.86-1.2,2.66,2.66,0,0,1-.2-.71c0-.14,0-.21,0-.31s0-.24,0-.36a3,3,0,0,1,1.06-2.12,2.6,2.6,0,0,1,1.46-.61,2.52,2.52,0,0,1,.58,0,4.33,4.33,0,0,0-.51.22,2.82,2.82,0,0,0-1,.88,2.46,2.46,0,0,0-.46,1.62c0,.06,0,.16,0,.21a1.15,1.15,0,0,0,.06.25,4.14,4.14,0,0,0,.15.41,2.26,2.26,0,0,0,.57.73,2.18,2.18,0,0,0,.8.45,2.4,2.4,0,0,0,2.43-.58,2.85,2.85,0,0,0,.73-1.12,3.21,3.21,0,0,0,.14-.53,2,2,0,0,1,.11.57,2.63,2.63,0,0,1-.4,1.54A2.92,2.92,0,0,1,112.15,89.58Z"/><path class="cls-2" d="M286.22,84.22l21-1.51c2.62-5.12,6.65-12.85,10-18.61,5.43-9.38,3.6-14.07,31-16s25,11.27,26.15,27.25l12.18-.88c.11-3.24.48-14.35,1-19.8.57-6.28,5.05-6.39,9.81-6.47.63-2.74,1.61-7.2,1.83-9.37l-22.9.45,22.25-2.76c-2-2.75-7.65-7.44-7.65-7.44-21.36-.72-79.06,1-93.44,2-8.62.62-13.33,0-15.72-.6a12.31,12.31,0,0,1,2.95,7.42l.23,3.32c16.46-1.09,31.86-2,45.47-2.93,17.45-1.13,32-1.93,42.19-2.55l16-.9-16,1.39c-10.16.84-24.68,2.13-42.11,3.5-13.6,1.05-29,2.32-45.43,3.59l.34,4.71c6.82-.37,12.66-.65,17.14-.9l10.22-.48-10.19,1c-4.47.39-10.28.95-17.08,1.55l1.82,25.5a19.62,19.62,0,0,1-.44,5.17A41.5,41.5,0,0,0,286.22,84.22Zm19.43-4.69s.69-1.59,1.88-4.38,2.78-6.8,5.08-11.49c.57-1.18,1.22-2.4,1.86-3.62l1.95-3.85a28.53,28.53,0,0,1,2.41-4.07,14.31,14.31,0,0,1,3.69-3.54,28.08,28.08,0,0,1,9.68-3.73,99.82,99.82,0,0,1,10.33-1.58c3.48-.32,6.92-.61,10.4-.67a42.22,42.22,0,0,1,10.21.95,17.49,17.49,0,0,1,8.69,4.51,15.73,15.73,0,0,1,3.95,7.78,38.94,38.94,0,0,1,.81,7.14c.07,2.12.08,4,.1,5.47,0,3,0,4.76,0,4.76s-.24-1.71-.52-4.73c-.14-1.51-.3-3.34-.55-5.42a46.41,46.41,0,0,0-1.28-6.85,14.76,14.76,0,0,0-3.87-6.79,16.15,16.15,0,0,0-7.84-3.67,43.12,43.12,0,0,0-9.67-.67c-3.33.08-6.78.39-10.19.74a93.87,93.87,0,0,0-10.07,1.45,27.56,27.56,0,0,0-9,3.19,16.87,16.87,0,0,0-5.65,6.63c-.73,1.29-1.41,2.57-2.14,3.79s-1.43,2.34-2.06,3.46c-2.52,4.5-4.51,8.36-5.93,11S305.65,79.53,305.65,79.53Z"/><path class="cls-2" d="M173,98.49l24.58-2,28.18-2.11L254,92.49l24.6-1.57,17.4-1,6.61-.35-6.59.6L278.6,91.63l-24.57,2L225.85,95.7l-28.19,1.94-24.61,1.57-17.4,1-6.61.35,6.59-.6Z"/><path class="cls-1" d="M108.34,81l.52.91a4.67,4.67,0,0,0-.86.44c-.32-.39-.64-.81-1-1.25Z"/><path class="cls-1" d="M97.24,96.18A23,23,0,0,1,99,94.54a48.8,48.8,0,0,1,4.17-3.16c1-.7,2.09-1.35,3.06-1.91a5.53,5.53,0,0,0,.56.89c-.87.69-1.86,1.42-2.88,2.11a48.4,48.4,0,0,1-4.48,2.7A20.8,20.8,0,0,1,97.24,96.18Z"/><path class="cls-3" d="M115.62,86.26a4.17,4.17,0,1,0-3.86,4.46A4.17,4.17,0,0,0,115.62,86.26Zm-1.11.43a2.63,2.63,0,0,1-.4,1.54,2.92,2.92,0,0,1-2,1.35,3,3,0,0,1-1.39,0,3.3,3.3,0,0,1-1.3-.67,3.49,3.49,0,0,1-.86-1.2,2.66,2.66,0,0,1-.2-.71c0-.14,0-.21,0-.31s0-.24,0-.36a3,3,0,0,1,1.06-2.12,2.6,2.6,0,0,1,1.46-.61,2.52,2.52,0,0,1,.58,0,4.33,4.33,0,0,0-.51.22,2.82,2.82,0,0,0-1,.88,2.46,2.46,0,0,0-.46,1.62c0,.06,0,.16,0,.21a1.15,1.15,0,0,0,.06.25,4.14,4.14,0,0,0,.15.41,2.26,2.26,0,0,0,.57.73,2.18,2.18,0,0,0,.8.45,2.4,2.4,0,0,0,2.43-.58,2.85,2.85,0,0,0,.73-1.12,3.21,3.21,0,0,0,.14-.53A2,2,0,0,1,114.51,86.69Z"/><path class="cls-3" d="M344.73,69.82a4.17,4.17,0,1,0-3.86,4.46A4.17,4.17,0,0,0,344.73,69.82Zm-1.11.43a2.55,2.55,0,0,1-.4,1.54,2.92,2.92,0,0,1-2,1.35,3.12,3.12,0,0,1-1.39,0,3.45,3.45,0,0,1-1.3-.68,3.34,3.34,0,0,1-.85-1.19,2.73,2.73,0,0,1-.2-.72,1.89,1.89,0,0,1,0-.31c0-.14,0-.24,0-.36a3,3,0,0,1,1.06-2.11,2.62,2.62,0,0,1,1.47-.62,3,3,0,0,1,.58,0,2.89,2.89,0,0,0-.51.21,3,3,0,0,0-1,.88,2.6,2.6,0,0,0-.46,1.62,1.05,1.05,0,0,0,0,.21,1.5,1.5,0,0,0,.05.26,3.78,3.78,0,0,0,.16.41,2.16,2.16,0,0,0,.56.72,2.12,2.12,0,0,0,.8.45,2.33,2.33,0,0,0,.92.11,2.51,2.51,0,0,0,1.51-.68,3,3,0,0,0,.73-1.12,3.44,3.44,0,0,0,.14-.54A2,2,0,0,1,343.62,70.25Z"/><path class="cls-3" d="M.16,81.18a6.37,6.37,0,0,0,2.95,6.87,25.27,25.27,0,0,1,1.62,3.2c2,4.3,4.65,10.2,10.59,10.54s53.26.64,55.28.66H73l1-2,13.8.26a27.6,27.6,0,0,0,47.54-.29h6a4.63,4.63,0,0,0,4.61,2.91L304.77,92l2.18-.16,1-2,1.28-2.54,8.51-1.7A27.6,27.6,0,0,0,367.56,76l3-.22.26,3.67,3.84-.28,12.46-.89c6.16-.45,9.38-9.08,11.51-14.8l.51-1.36c.61-.15,1.56-.29,2.2-.38,2.65-.4,8.17-1.22,7.81-6.35-.27-3.7-4.14-6.06-7.79-7.47,1-4.25,1.81-8.61,1.69-10.3-.08-1.1-.26-3.66-9.72-11.51l-1-.84-1.32,0c-21.44-.72-79.28.95-93.85,2-10.41.74-14.44-.41-15.43-.78a4.77,4.77,0,0,0-.51-.13L243.31,0c-5.91.42-5.69,4.58-5.69,4.58h0l12.19,25.48-2.54.23-3.41.31.75-6.48a1.92,1.92,0,1,0-3.82-.44L240,31c-12.64,1.16-27.21,2.48-40.27,3.56l-3.6-5.28a5,5,0,0,0-4.45-2.16l-4.3.31a5,5,0,0,0-3.75,7.73l.43.63-.42,0c-11.79.85-17.38.82-23.86.8-5.77,0-12,0-23.49.49l-2.3-3.38a5,5,0,0,0-4.45-2.15l-4.3.31A5,5,0,0,0,120.72,38c-2.75.18-5.7.38-8.89.61-50.6,3.63-92.54,13.8-97.12,15.21C9.54,55.37,5.42,65.22,3.42,71l-.26.75.06.79.3,4.2A7.12,7.12,0,0,0,.16,81.18Zm133.08-44-6.5.36-1.42-2a1.9,1.9,0,0,0-1.14-.76,2.34,2.34,0,0,1,1.19-.42l4.3-.31a2.41,2.41,0,0,1,2.15,1Zm63.5-2.46-6,.48-2.94-4.15a1.92,1.92,0,0,0-1.4-.8,2.46,2.46,0,0,1,1.07-.35l4.3-.3a2.36,2.36,0,0,1,2.15,1ZM243.55,10l20.62,18.77-10.84,1Zm33.55,16.6h0a18.06,18.06,0,0,1-3.63,1.11l-6.06.51L240.48,3.72a3.25,3.25,0,0,1,2.17-1.06Zm5.21,14.77-11.6.79-68.33,4.73-26,1.93-.13-1.88c-.31-4.3,1.75-6.22,3-7,1.43-.08,3-.19,4.62-.3,27.91-2,76.4-6.77,84.5-7.35a33.78,33.78,0,0,0,9.44-1.82A9.37,9.37,0,0,1,282.07,38Zm.48,6.78-7.24.42c-11.13.7-24.14,1.39-38.05,2.34l-43.61,3-17.07,1.29-.28-3.91,26-1.81,68.3-5.07,11.59-.87Zm1.92,26.7a17.39,17.39,0,0,1-.42,4.54,44.27,44.27,0,0,0-.61,4.42L187.45,90.7c-8,.57-8.36-3.92-8.67-8.28L177,57.56l17.08-1.16,43.59-3.3c13.9-1,26.87-2.21,38-3.11l7.22-.62Zm104.43-1.57c.14-4.23.48-13.58.91-18.39.35-3.83,2.18-4,7.4-4.14h.19c2.13.66,7.47,2.54,7.64,4.92.21,3-8.13,1.55-9.34,4.1-.33.68-.81,2-1.42,3.64,0-.37,0-.74-.06-1.15-.37-3.78-.29-5.48,1.12-7.48s2.28-3.33,2.28-3.33c-4.88.35-6.28.56-6.89,4-.5,2.8-.74,13.06-.82,16.73A10.05,10.05,0,0,1,389.14,73.26Zm-72.21-.74c.63-1.16,1.25-2.3,1.87-3.41,0,.43,0,.86,0,1.29a23,23,0,0,0,45,4.84,23.77,23.77,0,0,1-46.86-2.72ZM345,67.67a5.11,5.11,0,0,1,.56,1.65c1.31-.22,2.9-.42,4.52-.54a47.35,47.35,0,0,1,5.23-.09,22.12,22.12,0,0,1,2.39.2,22.19,22.19,0,0,1-2.34.55,47.44,47.44,0,0,1-5.18.66c-1.6.11-3.17.14-4.49.11v0l0-.27a6.25,6.25,0,0,1-.15,1,5.55,5.55,0,0,1-.4,1.1,5.24,5.24,0,0,1-.84,1.22,5,5,0,0,1-3.09,1.6,4.81,4.81,0,0,1-3.71-1.13,4.59,4.59,0,0,1-1.2-1.6,4.31,4.31,0,0,1-.32-.91,3.43,3.43,0,0,1-.1-.52,3.38,3.38,0,0,1,0-.47,5,5,0,0,1,1.14-3.3,5.63,5.63,0,0,1,1.09-1,5.54,5.54,0,0,1,1-.55,7,7,0,0,1,.74-.23l.27-.07h-.3c-.22-1.3-.41-2.87-.53-4.46a50.11,50.11,0,0,1-.1-5.23c0-.16,0-.33,0-.48l.63-.1c0,.17.07.35.1.53a47.84,47.84,0,0,1,.65,5.19,45.07,45.07,0,0,1,.11,4.55,5.2,5.2,0,0,1,1.72.32c.46-1.25,1.08-2.72,1.79-4.18a49,49,0,0,1,2.53-4.57,21.57,21.57,0,0,1,1.38-2,23.34,23.34,0,0,1-.7,2.3,47.3,47.3,0,0,1-2,4.82c-.7,1.45-1.48,2.85-2.17,4a5,5,0,0,1,1.32,1.14c1-.85,2.3-1.81,3.64-2.72a47.11,47.11,0,0,1,4.48-2.7,23,23,0,0,1,2.17-1A23,23,0,0,1,353,62.14a47,47,0,0,1-4.16,3.16C347.53,66.21,346.15,67,345,67.67ZM328.53,78.73a21.84,21.84,0,0,1-2.17,1,21.74,21.74,0,0,1,1.75-1.65,49,49,0,0,1,4.16-3.16c1-.69,2.09-1.34,3.06-1.9a5,5,0,0,0,.56.88C335,74.61,334,75.34,333,76A46.84,46.84,0,0,1,328.53,78.73Zm5.24,4.54a46.37,46.37,0,0,1,2-4.82c.54-1.12,1.12-2.19,1.67-3.16a5.92,5.92,0,0,0,1,.44c-.41,1-.9,2.17-1.45,3.29a48,48,0,0,1-2.53,4.58,21.57,21.57,0,0,1-1.38,2A22.43,22.43,0,0,1,333.77,83.27ZM323.45,71.35a22.19,22.19,0,0,1,2.34-.55,48,48,0,0,1,5.18-.65c1.29-.09,2.57-.13,3.72-.12a1.38,1.38,0,0,0,0,.2c0,.21,0,.39,0,.62a1.8,1.8,0,0,1,0,.22c-1.11.16-2.36.3-3.62.4a47.35,47.35,0,0,1-5.23.09A23.5,23.5,0,0,1,323.45,71.35Zm1.68-8.72a21.43,21.43,0,0,1,2.3.69,47.3,47.3,0,0,1,4.82,2c1.23.6,2.43,1.25,3.46,1.86a5.27,5.27,0,0,0-.52.87c-1.09-.43-2.31-1-3.52-1.54A46.47,46.47,0,0,1,327.1,64,21.14,21.14,0,0,1,325.13,62.63Zm6.26-5.7.38-.18c.25.26.51.55.82.91a48.8,48.8,0,0,1,3.16,4.17c.83,1.24,1.61,2.51,2.23,3.62a5,5,0,0,0-.87.43c-.78-1-1.64-2.12-2.45-3.31a47.53,47.53,0,0,1-2.7-4.48C331.73,57.65,331.54,57.26,331.39,56.93Zm9.09,19.14a5.42,5.42,0,0,0,.81-.08,1.66,1.66,0,0,0,.21-.06c.17,1.13.32,2.41.41,3.69a47.57,47.57,0,0,1,.1,5.23,23.93,23.93,0,0,1-.21,2.4,23,23,0,0,1-.55-2.34,48.17,48.17,0,0,1-.65-5.19C340.51,78.45,340.47,77.2,340.48,76.07Zm9.72,8.27a21,21,0,0,1-1.65-1.76,47,47,0,0,1-3.16-4.16c-.75-1.11-1.44-2.24-2-3.26a6.35,6.35,0,0,0,.78-.64c.75.93,1.56,2,2.33,3.16a46.29,46.29,0,0,1,2.7,4.48A22.53,22.53,0,0,1,350.2,84.34Zm-1.31-9.44c-1.29-.64-2.56-1.32-3.63-2a4.53,4.53,0,0,0,.31-.92c1.18.45,2.55,1,3.9,1.69A46.58,46.58,0,0,1,354,76.24a22.23,22.23,0,0,1,2,1.38,20.38,20.38,0,0,1-2.3-.7A49.39,49.39,0,0,1,348.89,74.9Zm9.43,2a17.4,17.4,0,0,0,.78-2.26c.18-.72.3-1.39.43-2a21.44,21.44,0,0,0,.23-2.86v-1s0,.35.05,1a17.94,17.94,0,0,1,0,2.89c-.1.62-.19,1.3-.33,2a19.43,19.43,0,0,1-.68,2.35A18,18,0,0,1,356,82.2a19.71,19.71,0,0,1-5.13,4.73,18.93,18.93,0,0,1-7.32,2.76,19.88,19.88,0,0,1-8.34-.48,19.23,19.23,0,0,1-12.75-11,14.31,14.31,0,0,1-.76-2,16.1,16.1,0,0,1-.53-2.07,19.24,19.24,0,0,1-.29-2c-.11-.72-.05-1.39-.09-2.08a18.9,18.9,0,0,1,1.33-6.7l1.51-1.18c-.1.21-.21.41-.29.63A19.22,19.22,0,0,0,321.89,70a17.56,17.56,0,0,0,.1,1.93,15.88,15.88,0,0,0,.31,2,17.32,17.32,0,0,0,1.24,3.79,18.88,18.88,0,0,0,12,10.38,18.68,18.68,0,0,0,7.88.52,19.35,19.35,0,0,0,7-2.45,19.27,19.27,0,0,0,7.95-9.26Zm-72.1,7.35a41.5,41.5,0,0,1,.6-4.41,19.62,19.62,0,0,0,.44-5.17l-1.82-25.5c6.8-.6,12.61-1.16,17.08-1.55l10.19-1-10.22.48c-4.48.25-10.32.53-17.14.9L285,43.28c16.45-1.27,31.83-2.54,45.43-3.59,17.43-1.37,31.95-2.66,42.11-3.5l16-1.39-16,.9c-10.18.62-24.74,1.42-42.19,2.55-13.61.9-29,1.84-45.47,2.93l-.23-3.32a12.31,12.31,0,0,0-2.95-7.42c2.39.6,7.1,1.22,15.72.6,14.38-1,72.08-2.71,93.44-2,0,0,5.65,4.69,7.65,7.44l-22.25,2.76,22.9-.45c-.22,2.17-1.2,6.63-1.83,9.37-4.76.08-9.24.19-9.81,6.47-.49,5.45-.86,16.56-1,19.8l-12.18.88c-1.14-16,1.23-29.22-26.15-27.25s-25.55,6.65-31,16c-3.33,5.76-7.36,13.49-10,18.61ZM149,100.57l6.59-.6L173,98.49l24.58-2,28.18-2.11L254,92.49l24.6-1.57,17.4-1,6.61-.35-6.59.6L278.6,91.63l-24.57,2L225.85,95.7l-28.19,1.94-24.61,1.57-17.4,1ZM87.73,88.26a24,24,0,0,1,0-2.94c.63-.28,1.29-.55,2-.83a23,23,0,0,0,45,7.19,23.78,23.78,0,0,1-46.94-3.42Zm28.14-4.15a4.81,4.81,0,0,1,.56,1.65c1.32-.23,2.91-.42,4.53-.54a47.5,47.5,0,0,1,5.23-.1,23.5,23.5,0,0,1,2.39.21,22.19,22.19,0,0,1-2.34.55,47.84,47.84,0,0,1-5.19.65c-1.59.11-3.17.14-4.49.11v0l0-.28a6.11,6.11,0,0,1-.15,1,6,6,0,0,1-.4,1.1,5.68,5.68,0,0,1-.84,1.22,4.89,4.89,0,0,1-5,1.44,4.86,4.86,0,0,1-3-2.56,6.21,6.21,0,0,1-.32-.91,3.74,3.74,0,0,1-.09-.52c0-.13,0-.32,0-.47a5,5,0,0,1,1.15-3.31,5.27,5.27,0,0,1,2.12-1.55c.31-.1.56-.2.74-.24l.27-.06h-.31c0-.23-.07-.46-.11-.7l1-.08c0,.27,0,.53,0,.78a4.85,4.85,0,0,1,1.71.32c.15-.4.32-.82.49-1.25l1.32-.1c-.35.63-.68,1.2-1,1.73a5,5,0,0,1,1.32,1.15c1-.85,2.3-1.82,3.63-2.73l.75-.49,2.42-.17c-.75.58-1.58,1.18-2.43,1.76C118.41,82.64,117,83.47,115.87,84.11ZM108,82.32c-.32-.39-.64-.81-1-1.25l1.31-.1.52.91A4.67,4.67,0,0,0,108,82.32ZM99.42,95.17a20.8,20.8,0,0,1-2.18,1A23,23,0,0,1,99,94.54a48.8,48.8,0,0,1,4.17-3.16c1-.7,2.09-1.35,3.06-1.91a5.53,5.53,0,0,0,.56.89c-.87.69-1.86,1.42-2.88,2.11A48.4,48.4,0,0,1,99.42,95.17Zm5.23,4.53c.48-1.35,1.21-3.11,2-4.82.55-1.11,1.13-2.19,1.68-3.15a5.87,5.87,0,0,0,1,.43c-.41,1-.91,2.17-1.45,3.3a49,49,0,0,1-2.53,4.57c-.77,1.21-1.38,2-1.38,2A21.43,21.43,0,0,1,104.65,99.7ZM94.33,87.79a23,23,0,0,1,2.34-.55,48.17,48.17,0,0,1,5.19-.65c1.29-.09,2.57-.13,3.72-.13a1.52,1.52,0,0,0,0,.21,4.32,4.32,0,0,0,0,.62c0,.07,0,.14,0,.21-1.12.17-2.36.31-3.63.4a50,50,0,0,1-5.22.1A23.93,23.93,0,0,1,94.33,87.79Zm5.57-6.21,2.42-.18.81.38c1.24.61,2.44,1.26,3.47,1.86a6.25,6.25,0,0,0-.52.87c-1.1-.43-2.32-1-3.52-1.54C101.63,82.52,100.73,82,99.9,81.58ZM111.36,92.5a6.79,6.79,0,0,0,.81-.07l.22-.07c.17,1.14.31,2.41.41,3.7a47.31,47.31,0,0,1,.09,5.23,22.12,22.12,0,0,1-.2,2.39,22.19,22.19,0,0,1-.55-2.34,47.64,47.64,0,0,1-.66-5.19C111.4,94.89,111.36,93.63,111.36,92.5Zm9.72,8.27A23,23,0,0,1,119.44,99a47,47,0,0,1-3.16-4.16c-.75-1.11-1.45-2.25-2-3.27A5.52,5.52,0,0,0,115,91c.74.94,1.56,2,2.33,3.17a47.11,47.11,0,0,1,2.7,4.48A23,23,0,0,1,121.08,100.77Zm-1.3-9.44c-1.3-.63-2.56-1.32-3.63-2a4.75,4.75,0,0,0,.31-.92c1.18.45,2.55,1,3.9,1.69a49,49,0,0,1,4.57,2.53,21.57,21.57,0,0,1,2,1.38,23.34,23.34,0,0,1-2.3-.7A47.3,47.3,0,0,1,119.78,91.33Zm9.43,2a21.8,21.8,0,0,0,.78-2.26c.18-.72.3-1.39.43-2a21.09,21.09,0,0,0,.22-2.85c0-.66,0-1,0-1s0,.36.05,1a19.2,19.2,0,0,1,0,2.89c-.1.61-.19,1.3-.34,2a21.93,21.93,0,0,1-.67,2.35,18,18,0,0,1-2.79,5.16,19.47,19.47,0,0,1-5.12,4.72,18.93,18.93,0,0,1-7.32,2.76,19.88,19.88,0,0,1-8.34-.47A19.34,19.34,0,0,1,93.33,94.6a16.2,16.2,0,0,1-.75-2,15.84,15.84,0,0,1-.53-2.08,16.41,16.41,0,0,1-.29-2,16.09,16.09,0,0,1-.09-2.07,17.62,17.62,0,0,1,.27-2.83l1.14-.44a20.83,20.83,0,0,0-.3,3.28,17.69,17.69,0,0,0,.1,1.93,14.09,14.09,0,0,0,.31,2,17.65,17.65,0,0,0,1.23,3.79,18.86,18.86,0,0,0,12,10.38,18.67,18.67,0,0,0,7.88.53,19.41,19.41,0,0,0,7-2.45,19.39,19.39,0,0,0,8-9.26ZM14.8,76.87l-7.38.53L7.1,72.9l18.56-2.49-18,.18c1.4-3.62,5-12.15,8.19-13.14C19.93,56.19,62,46,112.1,42.41c44.25-3.18,44.54-1.36,63.27-2.27a10.5,10.5,0,0,0-1.7,7l.14,1.88-39.73,2.95c-21.8,1.6-42.13,3.31-59.56,4.66S42.57,59.26,32.4,60.1l-16,1.39,16-.9C42.62,60,57.17,59.18,74.62,58s37.82-2.36,59.62-3.88L174,51.4l.28,3.93-23.95,1.81c-13.91,1-26.88,2.22-38,3.12s-20.38,1.83-26.87,2.4l-10.18,1,10.22-.48c6.5-.36,15.79-.78,26.93-1.46s24.14-1.38,38.06-2.34l24-1.63,1.78,24.88c.19,2.7.51,7,4,9.22l-5,.35-31.63,2.27c-1.49-7.85-3.47-21.93-14.83-21.11l-30,2.15c-10.23.74-17,2.08-26.35,19.69-13.63,0-44.4-.55-51-.68l-.8-11.06C20.24,78.83,18.3,76.62,14.8,76.87ZM5.3,80.12l9.68-.7c1-.07,2.72-.19,3,4.2l1,14.44L17.4,98c-.07-1-.7-9.78-1-13.48-.22-3-.89-3.7-2.54-3.58l-7.64.55a11.44,11.44,0,0,1,5.49,6.89,15.9,15.9,0,0,1-.28,7.09C8.7,92,7.28,86,5.28,84.87S3.54,81.33,5.3,80.12Z"/><path class="cls-3" d="M312.61,63.66c.57-1.18,1.22-2.4,1.86-3.62l1.95-3.85a28.53,28.53,0,0,1,2.41-4.07,14.31,14.31,0,0,1,3.69-3.54,28.08,28.08,0,0,1,9.68-3.73,99.82,99.82,0,0,1,10.33-1.58c3.48-.32,6.92-.61,10.4-.67a42.22,42.22,0,0,1,10.21.95,17.49,17.49,0,0,1,8.69,4.51,15.73,15.73,0,0,1,3.95,7.78,38.94,38.94,0,0,1,.81,7.14c.07,2.12.08,4,.1,5.47,0,3,0,4.76,0,4.76s-.24-1.71-.52-4.73c-.14-1.51-.3-3.34-.55-5.42a46.41,46.41,0,0,0-1.28-6.85,14.76,14.76,0,0,0-3.87-6.79,16.15,16.15,0,0,0-7.84-3.67,43.12,43.12,0,0,0-9.67-.67c-3.33.08-6.78.39-10.19.74a93.87,93.87,0,0,0-10.07,1.45,27.56,27.56,0,0,0-9,3.19,16.87,16.87,0,0,0-5.65,6.63c-.73,1.29-1.41,2.57-2.14,3.79s-1.43,2.34-2.06,3.46c-2.52,4.5-4.51,8.36-5.93,11s-2.33,4.16-2.33,4.16.69-1.59,1.88-4.38S310.31,68.35,312.61,63.66Z"/><path class="cls-3" d="M70.73,88.86c.69-1.24,1.5-2.76,2.57-4.43a42.31,42.31,0,0,1,4-5.41,25.34,25.34,0,0,1,6.18-5.16A23.94,23.94,0,0,1,92,70.93c3.09-.5,6.21-.72,9.37-1l9.61-.74,9.62-.64,9.32-.56a20.74,20.74,0,0,1,2.37,0,9.11,9.11,0,0,1,2.37.34,11.52,11.52,0,0,1,4.2,2,15.78,15.78,0,0,1,4.85,6.56,35,35,0,0,1,2,6.42c.41,1.94.71,3.64.91,5s.33,2.51.44,3.26.14,1.15.14,1.15l-1.07-4.31a51.43,51.43,0,0,0-3.74-10.93,14.9,14.9,0,0,0-4.65-5.65,9.55,9.55,0,0,0-3.54-1.46,8.79,8.79,0,0,0-2-.21,19.77,19.77,0,0,0-2.13.08l-9.3.77-9.61.74-9.62.64c-3.17.25-6.31.32-9.21.73a23.68,23.68,0,0,0-8,2.37,26.2,26.2,0,0,0-6,4.5A53.35,53.35,0,0,0,74.08,85c-1.19,1.55-2.13,3-2.92,4.15-1.52,2.38-2.4,3.74-2.4,3.74l.51-1C69.61,91.13,70.05,90.1,70.73,88.86Z"/><path class="cls-3" d="M267.65,82.43c-4.66.5-10.1,1-15.94,1.54l-9,.76-9.29.71-9.3.62c-3.07.22-6.09.36-9,.54-5.84.33-11.3.58-16,.75s-8.59.24-11.32.33-4.31.06-4.31.06,1.55-.23,4.27-.56,6.59-.82,11.26-1.3,10.1-1,15.93-1.53c2.92-.24,5.93-.54,9-.76l9.29-.71,9.3-.62,9-.54c5.85-.32,11.31-.58,16-.75s8.59-.24,11.32-.33,4.3-.06,4.3-.06-1.55.23-4.26.56S272.31,82,267.65,82.43Z"/><path class="cls-3" d="M258.29,79.09c-3.43.3-7.43.7-11.72,1l-13.45,1.05-13.46.88c-4.29.28-8.31.45-11.75.64s-6.31.27-8.32.36l-3.15.11,3.14-.35c2-.2,4.85-.53,8.28-.83s7.43-.71,11.72-1l13.45-1L246.49,79c4.29-.28,8.31-.45,11.75-.65s6.31-.27,8.31-.36l3.16-.1-3.14.35C264.57,78.45,261.72,78.79,258.29,79.09Z"/><path class="cls-3" d="M200.92,43.68l-14.84,1.06a1.2,1.2,0,0,1-.17-2.39l14.84-1.07a1.2,1.2,0,0,1,.17,2.4Z"/><path class="cls-3" d="M268.39,27.12h-.14l-.13-.1L265,24.49c-1-.85-2-1.73-3.06-2.59-2-1.74-4-3.5-6-5.28S252,13,250.07,11.18s-3.86-3.7-5.71-5.63c2.14,1.6,4.23,3.27,6.29,5s4.11,3.41,6.12,5.16,4,3.53,6,5.32c1,.91,2,1.8,2.94,2.72l2.8,2.66a44.2,44.2,0,0,0,5.57-.64,27.07,27.07,0,0,1-2.79.83A21.66,21.66,0,0,1,268.39,27.12Z"/><path class="cls-3" d="M258.42,28.56c-1.29.18-2.58.34-3.88.47l-.35,0-.19-.34c-1.31-2.28-2.54-4.62-3.69-7-.59-1.18-1.14-2.38-1.68-3.59s-1-2.43-1.5-3.67c.76,1.08,1.49,2.19,2.18,3.31s1.37,2.26,2,3.41q1.86,3.29,3.52,6.68c1.17-.05,2.34-.08,3.52-.08s2.6,0,3.91.1C261,28.16,259.71,28.38,258.42,28.56Z"/><path class="cls-3" d="M32.7,87.1c1.75-.09,3.78-.23,6-.3s4.51-.13,6.83-.18,4.66,0,6.84,0,4.22.08,6,.11,3.2.13,4.22.17l1.6.1-1.59.15c-1,.07-2.47.21-4.22.3s-3.77.22-5.95.29-4.51.14-6.84.18-4.65,0-6.83,0-4.22-.08-6-.11-3.2-.14-4.22-.17l-1.6-.1,1.6-.15C29.51,87.33,31,87.18,32.7,87.1Z"/></svg>