<?xml version="1.0" encoding="utf-8"?>
<!-- Generator: Adobe Illustrator 26.0.1, SVG Export Plug-In . SVG Version: 6.00 Build 0)  -->
<svg version="1.1" id="Capa_1" xmlns="http://www.w3.org/2000/svg" xmlns:xlink="http://www.w3.org/1999/xlink" x="0px" y="0px"
	 viewBox="0 0 64 64" style="enable-background:new 0 0 64 64;" xml:space="preserve">
<g>
	<g>
		<path d="M48.4,13.5h-4.8c-1.4,0-2.6,1.2-2.6,2.6v4.8c0,1.4,1.2,2.6,2.6,2.6h4.8c1.4,0,2.6-1.2,2.6-2.6v-4.8
			C51,14.7,49.8,13.5,48.4,13.5z M49,20.9c0,0.3-0.3,0.6-0.6,0.6h-4.8c-0.3,0-0.6-0.3-0.6-0.6v-4.8c0-0.3,0.3-0.6,0.6-0.6h4.8
			c0.3,0,0.6,0.3,0.6,0.6V20.9z"/>
		<path d="M45.8,8.5H18.2C12.6,8.5,8,13.1,8,18.7v6.8v2v17.8c0,5.6,4.6,10.2,10.2,10.2h27.6c5.6,0,10.2-4.6,10.2-10.2V27.5v-2v-6.8
			C56,13.1,51.4,8.5,45.8,8.5z M54,45.3c0,4.5-3.7,8.2-8.2,8.2H18.2c-4.5,0-8.2-3.7-8.2-8.2V27.5h12.2c-2.6,2.5-4.2,6.1-4.2,10
			c0,7.7,6.3,14,14,14s14-6.3,14-14c0-3.9-1.6-7.5-4.2-10H54V45.3z M44,37.5c0,6.6-5.4,12-12,12s-12-5.4-12-12s5.4-12,12-12
			S44,30.9,44,37.5z M39.2,25.5c-2.1-1.3-4.5-2-7.2-2s-5.1,0.7-7.2,2H10v-6.8c0-4.5,3.7-8.2,8.2-8.2h27.6c4.5,0,8.2,3.7,8.2,8.2v6.8
			H39.2z"/>
		<path d="M23,37.5c0,5,4,9,9,9s9-4,9-9s-4-9-9-9S23,32.5,23,37.5z M39,37.5c0,3.9-3.1,7-7,7s-7-3.1-7-7s3.1-7,7-7S39,33.6,39,37.5z
			"/>
	</g>
</g>
</svg>
