<svg id="圖層_1" data-name="圖層 1" xmlns="http://www.w3.org/2000/svg" viewBox="0 0 238.46 140.77"><defs><style>.cls-1{fill:#fff;}.cls-2{fill:#bcad97;}.cls-3{fill:#302921;}</style></defs><path class="cls-1" d="M153.74,128.61c-4.26.19-9.24.44-14.56.73l-8.22.48-8.47.52-8.48.57-8.2.59c-5.32.4-10.29.79-14.54,1.15s-7.8.71-10.28.93l-3.9.38,3.92-.12c2.48-.1,6-.21,10.31-.41s9.24-.43,14.57-.73l8.21-.47,8.47-.53,8.48-.57,8.2-.59c5.33-.39,10.29-.78,14.54-1.15s7.8-.7,10.28-.92l3.9-.39-3.91.12C161.57,128.31,158,128.41,153.74,128.61Z"/><path class="cls-1" d="M100.57,107.31a10,10,0,0,0,8.11.14,9.89,9.89,0,0,0,5.73-6.52,9.39,9.39,0,0,0,.35-3.22c0-.39-.08-.71-.11-1.07a9.71,9.71,0,0,0-1.43-3.73,9.43,9.43,0,0,0-2.43-2.58A8.49,8.49,0,0,0,108.16,89a11.25,11.25,0,0,0-1.19-.32l-1-.14a8.23,8.23,0,0,0-1.44,0l-.51,0,.51,0a11.54,11.54,0,0,1,1.41.17c.29.07.62.14,1,.24a10.21,10.21,0,0,1,1.09.43,9.26,9.26,0,0,1,2.33,1.5,9.39,9.39,0,0,1,2,2.49,9.29,9.29,0,0,1,1.11,3.38,7.26,7.26,0,0,1,.07.92,7.84,7.84,0,0,1,0,1,10.58,10.58,0,0,1-.35,1.86,9.14,9.14,0,0,1-5,5.68,9.27,9.27,0,0,1-7.18.13,9.88,9.88,0,0,1-2.74-1.71,9.46,9.46,0,0,1-1.78-2.12,9,9,0,0,1-.57-1c-.14-.33-.25-.65-.37-.93a12.62,12.62,0,0,1-.35-1.38l-.09-.49,0,.5a9,9,0,0,0,.17,1.44c.08.3.16.63.27,1s.26.75.47,1.13a8.67,8.67,0,0,0,1.69,2.44A9.48,9.48,0,0,0,100.57,107.31Z"/><path class="cls-1" d="M109.18,98.41a4.68,4.68,0,0,1-1.14,2.7,4.66,4.66,0,0,1-1.61,1.18,4.81,4.81,0,0,1-1.9.41,4.75,4.75,0,0,1-3.2-1.22,5.21,5.21,0,0,1-.91-1.09,5.6,5.6,0,0,1-.48-1,6.2,6.2,0,0,1-.17-.71l0-.25v.26a4.17,4.17,0,0,0,.09.73,5,5,0,0,0,.38,1.1,4.14,4.14,0,0,0,.87,1.24,5,5,0,0,0,5.63,1.14,5.15,5.15,0,0,0,1.85-1.33,5.24,5.24,0,0,0,1.08-2,4.47,4.47,0,0,0,.18-1.65c0-.2,0-.37,0-.55a5.12,5.12,0,0,0-2-3.23,4.64,4.64,0,0,0-1.35-.71,5.22,5.22,0,0,0-1.14-.23,4.47,4.47,0,0,0-.74,0l-.26,0h.26a5.43,5.43,0,0,1,.73.09,5.33,5.33,0,0,1,1.06.34,4.93,4.93,0,0,1,1.2.77,4.7,4.7,0,0,1,1.62,3c0,.15,0,.32,0,.47A4,4,0,0,1,109.18,98.41Z"/><path class="cls-1" d="M153.39,123.15c-4.26.19-9.24.44-14.57.74l-8.21.47-8.48.52-8.47.58-8.21.59c-5.32.39-10.28.78-14.54,1.15s-7.79.7-10.27.92l-3.9.39,3.91-.13c2.49-.1,6-.2,10.31-.4s9.24-.44,14.57-.74l8.22-.47,8.47-.52,8.48-.58,8.2-.58c5.32-.4,10.29-.79,14.54-1.15s7.8-.71,10.28-.93l3.9-.38-3.92.12C161.21,122.85,157.66,123,153.39,123.15Z"/><path class="cls-1" d="M38.81,30a2.81,2.81,0,0,1,.22-.76,1.4,1.4,0,0,1,.26-.39,1.67,1.67,0,0,1,.42-.3,2.74,2.74,0,0,1,.55-.22,6.25,6.25,0,0,1,.62-.16c.43-.09.87-.15,1.29-.22l1.15-.19c.68-.12,1.13-.24,1.13-.24a7.26,7.26,0,0,0-1.15-.15,9.68,9.68,0,0,0-2.56.14,6,6,0,0,0-.69.2,2.34,2.34,0,0,0-.65.33,1.53,1.53,0,0,0-.51.5,1.47,1.47,0,0,0-.24.59,2.4,2.4,0,0,0,0,.87l.08.32S38.78,30.17,38.81,30Z"/><path class="cls-1" d="M21.77,31.07a3.37,3.37,0,0,1,.22-.76,1.25,1.25,0,0,1,.27-.39,1.45,1.45,0,0,1,.41-.3,3.11,3.11,0,0,1,.56-.22c.19-.06.41-.1.62-.15.42-.1.87-.16,1.28-.23l1.15-.19c.68-.12,1.13-.24,1.13-.24a7.26,7.26,0,0,0-1.15-.15,9.68,9.68,0,0,0-2.56.14,6,6,0,0,0-.69.2,2.65,2.65,0,0,0-.65.33,1.87,1.87,0,0,0-.51.5,1.45,1.45,0,0,0-.23.59,2.07,2.07,0,0,0,0,.88c0,.19.07.31.07.31S21.74,31.27,21.77,31.07Z"/><path class="cls-1" d="M108.2,102.94l.93,1.26a8.44,8.44,0,0,0,3.08-4.39l-1.51-.44A6.83,6.83,0,0,1,108.2,102.94Z"/><path class="cls-1" d="M55.84,28.87a3.23,3.23,0,0,1,.22-.76,1.14,1.14,0,0,1,.27-.39,1.33,1.33,0,0,1,.42-.3,2.74,2.74,0,0,1,.55-.22,5.61,5.61,0,0,1,.62-.16c.43-.09.87-.16,1.29-.23l1.14-.18c.68-.12,1.14-.25,1.14-.25a9.07,9.07,0,0,0-1.16-.15,10,10,0,0,0-2.55.14c-.24.07-.47.12-.7.21a2.8,2.8,0,0,0-.65.32,1.73,1.73,0,0,0-.5.51,1.31,1.31,0,0,0-.24.58,2.23,2.23,0,0,0,0,.88,2.35,2.35,0,0,0,.08.31S55.81,29.07,55.84,28.87Z"/><path class="cls-1" d="M202.4,17.88l-1,.06a18.89,18.89,0,0,0-2,.3,6.55,6.55,0,0,0-.92.27,2.8,2.8,0,0,0-.81.46,1.23,1.23,0,0,0-.43.69,1.66,1.66,0,0,0,0,.58,2.64,2.64,0,0,0,.07.35l0,.12s0-.17.08-.46a1.48,1.48,0,0,1,.17-.47.91.91,0,0,1,.41-.39,5.06,5.06,0,0,1,1.56-.36c.31,0,.63-.05,1-.09s.67-.06,1-.08c1.35-.12,2.71-.26,3.72-.43s1.69-.34,1.69-.34-.69-.12-1.71-.19c-.52,0-1.12,0-1.76,0C203.07,17.87,202.74,17.86,202.4,17.88Z"/><path class="cls-1" d="M140.09,83.24q-3.65.12-7.29.29-7.29.31-14.58.73l-7.29.43-7.28.46q-7.28.48-14.56,1l-.61,0,0,.59.5,6.3.53,6.29c.17,2.1.38,4.19.58,6.29s.39,4.19.62,6.28c0-2.1-.11-4.21-.19-6.31s-.14-4.21-.23-6.31l-.29-6.31-.29-5.7q7-.37,14-.82l7.28-.48,7.28-.51c4.85-.35,9.71-.73,14.55-1.15q3.65-.3,7.27-.66l3.64-.34c1.21-.11,2.42-.25,3.63-.37l-3.65.09Z"/><path class="cls-2" d="M76.62,126.6l90.87-5.88-2.92-45.16L73.69,81.44Zm86.08-7.77c-3.4.25-6.79.52-10.19.74l-10.2.7-10.2.63c-3.39.22-6.79.41-10.2.59s-6.8.38-10.2.54-6.8.34-10.21.48-6.81.28-10.21.39l-5.11.17c-1.7.07-3.41.09-5.11.14,1.69-.18,3.39-.38,5.09-.53l5.08-.49c3.39-.33,6.79-.64,10.18-.92s6.79-.57,10.19-.85,6.79-.52,10.18-.78,6.8-.5,10.2-.73l10.19-.68,10.2-.63c3.1-.2,6.2-.36,9.31-.53q-.25-4.42-.46-8.85-.25-4.89-.45-9.77l-.21-4.89-.16-4.89-.17-4.89-.13-4.89.51,4.86.46,4.87.46,4.88.43,4.87q.43,4.88.82,9.75t.76,9.75l.06.9ZM90,115.68l4.36-.39c2.9-.27,5.81-.52,8.71-.75q8.73-.71,17.45-1.33l8.72-.61,8.73-.57q8.44-.54,16.88-1l-.38-7-.37-7.64-.32-7.64c-.11-2.54-.21-5.09-.28-7.64q.38,3.81.7,7.61l.67,7.62.61,7.62.58,7.63,0,.58-.59,0q-8.73.65-17.45,1.22l-8.73.55-8.73.53q-8.73.51-17.47.92-4.38.23-8.74.39l-4.37.17-4.38.15Zm-1.14-1.47-1.9-29.39,65-4.2,1.9,29.39ZM76.27,82.37c3.58-.26,7.15-.54,10.73-.78l10.73-.72,10.73-.67c3.58-.23,7.16-.43,10.74-.63s7.16-.4,10.74-.57,7.16-.37,10.75-.51,7.16-.31,10.75-.43l5.37-.19c1.8-.07,3.59-.1,5.38-.15-1.78.18-3.57.38-5.35.54l-5.36.51q-5.35.51-10.71,1c-3.57.31-7.15.59-10.72.88s-7.15.55-10.73.81-7.15.53-10.73.76l-10.73.72-10.73.67c-3.28.21-6.56.38-9.85.56.18,3.12.35,6.25.5,9.37.17,3.43.34,6.86.48,10.29l.22,5.14.18,5.15.19,5.14.14,5.15-.52-5.12L78,114.12,77.51,109l-.45-5.13q-.45-5.13-.85-10.26c-.27-3.42-.54-6.84-.79-10.27l-.06-.9Z"/><path class="cls-1" d="M93.71,65.1c.06.4.1.79.17,1.19s.13.8.21,1.2c0-.41,0-.81.06-1.21s0-.81,0-1.21c0-.7,0-1.4,0-2.09,1.19-.06,2.38-.14,3.56-.26.64-.07,1.28-.14,1.92-.23s1.29-.19,1.93-.32c-.65,0-1.3-.06-2-.07l-1.94,0c-1.29,0-2.58.13-3.87.23l-.33,0,0,.32C93.53,63.49,93.61,64.3,93.71,65.1Z"/><path class="cls-1" d="M150.14,72.89c-4.27.19-9.24.44-14.57.73l-8.21.48-8.48.52-8.47.57-8.21.59c-5.32.4-10.28.79-14.54,1.16s-7.8.7-10.28.92l-3.89.38,3.91-.12c2.49-.1,6-.21,10.31-.41S97,77.28,102.28,77l8.21-.47L119,76l8.47-.57,8.21-.59c5.32-.39,10.29-.78,14.54-1.15s7.8-.7,10.28-.92l3.89-.39-3.91.12C158,72.59,154.4,72.69,150.14,72.89Z"/><path class="cls-1" d="M101.44,103.67l-.64,1.43a8.33,8.33,0,0,0,3.92.7,8.46,8.46,0,0,0,.88-.1l-.27-1.54c-.23,0-.47.06-.71.08A6.78,6.78,0,0,1,101.44,103.67Z"/><path class="cls-1" d="M74.83,44.27l84.5-5.46-.61-9.44-84.5,5.47Zm1.47-7.89,79.9-5.18.09,1.37-79.9,5.17Zm.14,2.13,79.9-5.17.09,1.37-79.9,5.17Zm.14,2.14,79.9-5.17.08,1.36L76.66,42Z"/><path class="cls-1" d="M137.55,108.69c-2.24.06-4.85.15-7.65.29-1.4.07-2.85.12-4.31.22l-4.45.26-4.45.31c-1.47.1-2.91.23-4.31.34-2.79.23-5.39.47-7.62.7s-4.09.47-5.39.61-2,.27-2,.27.75,0,2,0,3.18,0,5.43-.1,4.85-.15,7.65-.28c1.4-.07,2.85-.13,4.31-.22l4.45-.27,4.45-.31c1.47-.09,2.91-.23,4.31-.33,2.79-.23,5.39-.47,7.62-.71s4.09-.46,5.39-.61,2-.26,2-.26H143C141.67,108.63,139.79,108.62,137.55,108.69Z"/><path class="cls-1" d="M144.67,90.87a9.73,9.73,0,0,0-2.43-2.58,8.87,8.87,0,0,0-2.64-1.36,9,9,0,0,0-1.18-.31c-.38-.07-.72-.11-1-.15a9.11,9.11,0,0,0-1.44,0l-.51,0,.51,0a13.52,13.52,0,0,1,1.4.17c.3.08.63.15,1,.25a10.06,10.06,0,0,1,1.09.42,9.66,9.66,0,0,1,4.38,4,9.17,9.17,0,0,1,1.11,3.38c0,.3.08.63.07.91a7.94,7.94,0,0,1,0,1,7.82,7.82,0,0,1-.13.92,6,6,0,0,1-.23.93,8.84,8.84,0,0,1-1.87,3.39,9,9,0,0,1-3.12,2.29,9.11,9.11,0,0,1-3.69.8,9.33,9.33,0,0,1-3.48-.67,9.67,9.67,0,0,1-4.53-3.83,10.61,10.61,0,0,1-.56-1c-.14-.33-.25-.65-.37-.93a12,12,0,0,1-.35-1.37l-.09-.5,0,.51a7.86,7.86,0,0,0,.17,1.43c.08.3.16.64.27,1s.26.75.47,1.14a8.81,8.81,0,0,0,1.69,2.44,9.52,9.52,0,0,0,2.87,2.08,9.69,9.69,0,0,0,3.9.93,9.93,9.93,0,0,0,4.21-.79,9.89,9.89,0,0,0,5.73-6.52,9.46,9.46,0,0,0,.35-3.23c0-.38-.08-.71-.11-1.06A9.76,9.76,0,0,0,144.67,90.87Z"/><path class="cls-1" d="M139.65,100.9l.93,1.26a8.4,8.4,0,0,0,3.08-4.39l-1.51-.44A6.83,6.83,0,0,1,139.65,100.9Z"/><path class="cls-1" d="M140.63,96.38a4.54,4.54,0,0,1-.18,1,4.77,4.77,0,0,1-1,1.75,4.76,4.76,0,0,1-3.51,1.58,4.75,4.75,0,0,1-3.2-1.22,5,5,0,0,1-.91-1.09,5,5,0,0,1-.48-1,6.63,6.63,0,0,1-.18-.7l0-.26v.26a5.37,5.37,0,0,0,.08.74,4.84,4.84,0,0,0,.39,1.09,4.17,4.17,0,0,0,.87,1.25,5,5,0,0,0,3.47,1.54,5.17,5.17,0,0,0,2.16-.4A5.49,5.49,0,0,0,140,99.53a5.31,5.31,0,0,0,1.08-2,4.29,4.29,0,0,0,.18-1.12,3.24,3.24,0,0,0,0-.54,4.69,4.69,0,0,0-.06-.54,5.07,5.07,0,0,0-2-3.24,4.37,4.37,0,0,0-1.35-.7,5.3,5.3,0,0,0-1.14-.24,4.25,4.25,0,0,0-.74,0l-.26,0,.26,0a6.76,6.76,0,0,1,.72.08,4.73,4.73,0,0,1,1.07.35,4.88,4.88,0,0,1,1.2.76,4.7,4.7,0,0,1,1.62,3c0,.16,0,.33,0,.47A4.18,4.18,0,0,1,140.63,96.38Z"/><path class="cls-1" d="M132.89,101.64l-.64,1.43a8.33,8.33,0,0,0,3.92.7,8.46,8.46,0,0,0,.88-.11l-.27-1.54a5.51,5.51,0,0,1-.71.08A6.65,6.65,0,0,1,132.89,101.64Z"/><path class="cls-1" d="M52,86.53c.07.14.14.28.2.42s.26.54.39.8c.21.52.38,1,.54,1.46s.22.87.32,1.22.11.67.16.92c.08.51.13.77.13.77l-.06-.78c0-.25,0-.57-.09-.93s-.14-.79-.23-1.26-.27-1-.46-1.53l-.34-.84-.18-.44-.23-.44a13.78,13.78,0,0,0-2.64-3.67,14.91,14.91,0,0,0-10.3-4.46A15.16,15.16,0,0,0,32.85,79a15,15,0,0,0-8.62,9.82,10,10,0,0,0-.37,1.62,11.26,11.26,0,0,0-.18,1.65,5.59,5.59,0,0,0,0,.81l0,.78v.41l.05.4c0,.27.07.53.1.79a15,15,0,0,0,5.74,9.63,13.82,13.82,0,0,0,4,2.15l.47.17.46.12.88.23c.57.11,1.1.18,1.57.26l1.28.06a8.65,8.65,0,0,0,.94,0l.78,0-.78,0a8.39,8.39,0,0,1-.94,0L37,107.6c-.46-.1-1-.2-1.52-.35L34.6,107l-.44-.15-.44-.2A14.32,14.32,0,0,1,30,104.36a14.88,14.88,0,0,1-3.29-3.89,14.57,14.57,0,0,1-1.82-5.34l-.08-.74,0-.37V92.49l0-.37A10.9,10.9,0,0,1,25,90.64a12.41,12.41,0,0,1,.35-1.49A14.37,14.37,0,0,1,39.21,78.86,14.58,14.58,0,0,1,44.73,80,15,15,0,0,1,49,82.73a14.52,14.52,0,0,1,2.73,3.39Z"/><path class="cls-1" d="M39.48,33.17c-7.4.43-16,.87-25.31,1.45l-7,.44-1.79.11a5.52,5.52,0,0,0-1,.12,3.46,3.46,0,0,0-1,.39A3.71,3.71,0,0,0,1.9,37.21a3.65,3.65,0,0,0-.34,1,3.43,3.43,0,0,0-.06.57v.48c.3,4.86.61,9.8.91,14.73.67,9.87,1.34,19.75,2,29s1.3,17.88,1.83,25.29,1,13.56,1.38,17.87.56,6.78.56,6.78-.12-2.47-.32-6.79-.51-10.5-.94-17.91S6,92.19,5.44,82.93s-1.18-19.13-1.79-29C3.32,49,3,44.05,2.66,39.2a2.58,2.58,0,0,1,1.26-2.54,2.44,2.44,0,0,1,.69-.28,4.24,4.24,0,0,1,.8-.1l1.79-.12,7-.47c9.26-.62,17.89-1.3,25.29-1.83s13.56-1,17.88-1.38l6.78-.56-6.8.32C53.07,32.47,46.89,32.75,39.48,33.17Z"/><path class="cls-1" d="M64,90.13c.13.86.19,1.32.19,1.32s0-.46-.12-1.33a14.57,14.57,0,0,0-.18-1.59c-.12-.62-.26-1.34-.42-2.14s-.49-1.65-.81-2.58L62,82.39c-.1-.24-.2-.5-.32-.75l-.4-.74a23.66,23.66,0,0,0-4.54-6.15,25.8,25.8,0,0,0-7.47-5.16,25,25,0,0,0-9.93-2.23,25.82,25.82,0,0,0-10.65,2.1A25.21,25.21,0,0,0,14.23,85.93c-.12.45-.28.89-.36,1.35s-.17.91-.25,1.37a19.6,19.6,0,0,0-.32,2.76l-.06.69c0,.22,0,.44,0,.66,0,.45,0,.89,0,1.33,0,.24,0,.42,0,.69l.08.67c.05.45.1.89.16,1.33A24.86,24.86,0,0,0,17,106.32a25.84,25.84,0,0,0,6.07,6.74,23.54,23.54,0,0,0,6.69,3.71l.79.31.78.22,1.48.4c1,.21,1.86.33,2.67.48l2.17.14a15.76,15.76,0,0,0,1.6,0l1.34-.05H39.27c-.43,0-1,0-1.6-.06l-2.14-.23c-.79-.17-1.67-.33-2.62-.56l-1.44-.46c-.25-.08-.51-.15-.76-.24l-.77-.33a24.67,24.67,0,0,1-6.42-3.82,25,25,0,0,1-5.75-6.67,25.31,25.31,0,0,1-3.2-9.23c-.05-.42-.09-.85-.14-1.28l-.07-.64c0-.16,0-.42,0-.63,0-.44,0-.89,0-1.33,0-.22,0-.45,0-.67l.06-.64a19,19,0,0,1,.32-2.6c.09-.44.17-.87.25-1.31s.25-.86.36-1.29A24.81,24.81,0,0,1,29.15,70.5a24.71,24.71,0,0,1,10.22-2.08,25,25,0,0,1,9.55,2,25.36,25.36,0,0,1,12,10.71l.42.71c.12.25.22.49.34.73l.63,1.37c.36.91.63,1.76.9,2.52l.51,2.1C63.85,89.16,63.88,89.7,64,90.13Z"/><path class="cls-1" d="M31,96c1.95-.83,4.76-2.84,8-3,6-.39,11.27,5.46,10.88-.54a10.85,10.85,0,0,0-5.53-8.78,10.06,10.06,0,0,1,2.09,1.81,9.19,9.19,0,0,1,1.68,2.7,7.89,7.89,0,0,1,.43,1.23c.09.39.15.75.21,1.07a8.5,8.5,0,0,1,.06,1.51l0,.53-.14-.51c-.06-.16-.09-.37-.18-.59s-.19-.49-.3-.78-.28-.59-.45-.91-.36-.66-.63-1a9.94,9.94,0,0,0-1.88-2,9.74,9.74,0,0,0-2.73-1.52,9,9,0,0,0-3.3-.51l-.51,0h-.3l-.11,0a8.34,8.34,0,0,0-.87.16,6.5,6.5,0,0,0-.86.25,6,6,0,0,0-.83.33,9.06,9.06,0,0,0-2.9,2.16A8.8,8.8,0,0,0,31,90.77a10.79,10.79,0,0,0-.36,1.7l0,.21v1.18l0,.43A8.46,8.46,0,0,0,31,96Z"/><path class="cls-1" d="M65.48,122.65c.08.23.16.41.19.55l.06.2v-.21a3.58,3.58,0,0,0,0-.61,3.72,3.72,0,0,0-.25-.93,3.93,3.93,0,0,0-.68-1.08,4.13,4.13,0,0,0-2.94-1.4,4.25,4.25,0,0,0-1.86.32,4.75,4.75,0,0,0-1.62,1.15,4.82,4.82,0,0,0-.93,1.76,3.86,3.86,0,0,0-.15,1c0,.18,0,.29,0,.44s0,.32.06.48A4.17,4.17,0,0,0,59.12,127a3.72,3.72,0,0,0,1.16.53,3.63,3.63,0,0,0,.95.14,3.48,3.48,0,0,0,.6-.06l.21,0-.21,0c-.13,0-.33-.06-.57-.11a4.72,4.72,0,0,1-.81-.34,3.94,3.94,0,0,1-.9-.64,4.35,4.35,0,0,1-.75-1,3.89,3.89,0,0,1-.38-1.31c0-.12,0-.25,0-.34s0-.3,0-.4a4.38,4.38,0,0,1,.15-.68,3.39,3.39,0,0,1,.71-1.27,3.44,3.44,0,0,1,1.17-.88,3.64,3.64,0,0,1,2.74-.12,4.19,4.19,0,0,1,1.1.62,3.72,3.72,0,0,1,.75.8A4.49,4.49,0,0,1,65.48,122.65Z"/><path class="cls-2" d="M217.59,6.67l1.84-.11-.29-4.38-1.84.12L12,15.58l-1.84.12.28,4.38L12.24,20ZM21.23,17c5.59-.41,13.58-1.06,23.17-1.75s20.77-1.52,32.76-2.33l37.57-2.52,37.58-2.34c12-.75,23.19-1.35,32.79-1.91s17.6-.94,23.2-1.25l8.8-.44-8.79.7c-5.59.42-13.58,1.07-23.16,1.75s-20.78,1.53-32.77,2.33l-37.56,2.52L77.24,14.12c-12,.75-23.2,1.35-32.79,1.92s-17.6.94-23.2,1.25l-8.81.43Z"/><path class="cls-1" d="M34.37,134.2c-2.31.16-4.46.36-6.31.5s-3.38.31-4.46.41l-1.69.16,1.7-.05c1.08,0,2.62-.08,4.47-.17s4-.18,6.32-.32l7.25-.42,7.23-.51c2.31-.16,4.47-.36,6.31-.51s3.39-.3,4.46-.4l1.69-.17-1.7.05c-1.08,0-2.62.09-4.47.18s-4,.18-6.32.31l-7.24.43Z"/><path class="cls-1" d="M61.16,134.64c-2.65.09-5.74.23-9.06.4-1.65.09-3.36.16-5.1.28l-5.27.32-5.26.36-5.1.38c-3.3.26-6.39.52-9,.77s-4.84.5-6.38.65-2.42.28-2.42.28L16,138c1.55,0,3.76-.08,6.42-.18s5.74-.23,9.05-.4l5.1-.28,5.27-.32,5.27-.36c1.73-.11,3.44-.26,5.09-.38,3.31-.26,6.39-.52,9-.78s4.85-.49,6.39-.64l2.41-.28s-.88,0-2.43,0S63.81,134.54,61.16,134.64Z"/><path class="cls-1" d="M64.24,123.83a1.92,1.92,0,0,1-.1.51,2.45,2.45,0,0,1-.52.93,2.39,2.39,0,0,1-.85.63,2.61,2.61,0,0,1-2.77-.4,2.75,2.75,0,0,1-.52-.58,3,3,0,0,1-.29-.55,3.18,3.18,0,0,1-.11-.39l0-.15V124a2.61,2.61,0,0,0,0,.42,2.73,2.73,0,0,0,.67,1.35,2.8,2.8,0,0,0,2,.92,2.9,2.9,0,0,0,1.25-.22,3.22,3.22,0,0,0,1.09-.78,3.07,3.07,0,0,0,.62-1.17,2.4,2.4,0,0,0,.11-.66,2.81,2.81,0,0,0,0-.3,1.65,1.65,0,0,0,0-.32,2.8,2.8,0,0,0-2.6-2.35l-.41,0-.15,0,.15,0a3,3,0,0,1,.4.06,2.43,2.43,0,0,1,.58.21,2.57,2.57,0,0,1,.65.44,2.64,2.64,0,0,1,.85,1.66c0,.08,0,.18,0,.25A2.46,2.46,0,0,1,64.24,123.83Z"/><path class="cls-1" d="M20.82,102.22c-.1-.2-.19-.39-.28-.59-.18-.38-.35-.76-.52-1.11-.29-.74-.52-1.43-.74-2s-.3-1.21-.42-1.71-.15-.93-.22-1.28c-.1-.7-.16-1.07-.16-1.07s0,.37.1,1.08c0,.35,0,.79.14,1.3s.21,1.09.33,1.74.39,1.35.65,2.11l.49,1.16c.08.2.16.41.25.61l.33.61a19.08,19.08,0,0,0,3.69,5,20.88,20.88,0,0,0,6.1,4.23,20,20,0,0,0,8.12,1.84,20.92,20.92,0,0,0,8.71-1.71A21.31,21.31,0,0,0,54.87,107a21.52,21.52,0,0,0,4.37-8.1c.09-.37.23-.73.29-1.1l.21-1.12A17.19,17.19,0,0,0,60,94.45l0-.57v-.55c0-.36,0-.72,0-1.08,0-.19,0-.33,0-.57l-.06-.54c0-.37-.09-.73-.13-1.09a20.29,20.29,0,0,0-2.87-7.8,21.28,21.28,0,0,0-5-5.5,19.41,19.41,0,0,0-5.47-3l-.65-.24c-.21-.07-.43-.12-.64-.18L44,73c-.78-.16-1.52-.26-2.17-.37L40,72.51a10.42,10.42,0,0,0-1.3,0l-1.09,0,1.09,0c.35,0,.79,0,1.3.05l1.75.2c.64.14,1.36.27,2.12.47l1.18.37.61.2.62.27a20.7,20.7,0,0,1,9.86,8.55,20.37,20.37,0,0,1,2.58,7.49l.12,1,.06.51v.52c0,.36,0,.72,0,1.08v.54l-.05.52a17.16,17.16,0,0,1-.27,2.11l-.2,1.06c-.07.35-.2.69-.29,1,0,0,0,0,0,0l-3.43-1a16.39,16.39,0,0,1-6,8.6l2.11,2.87a20,20,0,0,1-8.42,3.62l-.61-3.54c-.56.09-1.13.16-1.71.2a16.23,16.23,0,0,1-7.69-1.37l-1.5,3.39a20.21,20.21,0,0,1-5.91-3.88,20,20,0,0,1-3.77-4.76Z"/><path class="cls-2" d="M35.62,46.9c.21.44.37.86.54,1.24s.23.74.32,1a6,6,0,0,1,.19.8l.15.67V50a12.27,12.27,0,0,0-.18-2c-.11-.41-.2-.88-.35-1.37-.08-.25-.17-.5-.27-.77a5.48,5.48,0,0,0-.34-.8,12.24,12.24,0,0,0-2.28-3.37,12.76,12.76,0,0,0-3.93-2.9,13.06,13.06,0,0,0-5.39-1.33,13.49,13.49,0,0,0-5.82,1.07,14.35,14.35,0,0,0-5,3.59,14.53,14.53,0,0,0-2.92,5.44,11.16,11.16,0,0,0-.33,1.5,13,13,0,0,0-.15,1.54l0,.39v.35l0,.68,0,.4.05.36.1.72a13.33,13.33,0,0,0,5.39,8.67A12.15,12.15,0,0,0,19,64a11.44,11.44,0,0,0,1.63.41c.51.08,1,.12,1.41.16a10.9,10.9,0,0,0,2-.07l.69-.07L24,64.37a7.8,7.8,0,0,1-.82-.09l-1.08-.19c-.39-.11-.83-.22-1.3-.37a14,14,0,0,1-1.46-.59,12.73,12.73,0,0,1-3.11-2.05,13,13,0,0,1-2.69-3.37,12.44,12.44,0,0,1-1.43-4.5l-.06-.62,0-.31V51l0-.29a13.94,13.94,0,0,1,.48-2.45,11.9,11.9,0,0,1,2.49-4.47,12.1,12.1,0,0,1,4.12-3,12.43,12.43,0,0,1,4.9-1.08,12.72,12.72,0,0,1,4.62.85,13,13,0,0,1,3.69,2.23,12.66,12.66,0,0,1,2.43,2.81A13.17,13.17,0,0,1,35.62,46.9Z"/><path class="cls-1" d="M34.22,48.67c.08.34.15.63.22.9a5.75,5.75,0,0,1,.11.67l.08.56,0-.57a12,12,0,0,0-.25-1.59c-.11-.33-.21-.71-.35-1.11a10.77,10.77,0,0,0-.55-1.24,10.08,10.08,0,0,0-1.94-2.64,11,11,0,0,0-3.2-2.22,10.55,10.55,0,0,0-4.25-1,11,11,0,0,0-4.57.9,10.72,10.72,0,0,0-6.2,7.06A7.65,7.65,0,0,0,13,49.6a7.75,7.75,0,0,0-.13,1.18,8.86,8.86,0,0,0,0,1.15A8.62,8.62,0,0,0,13,53.08a10.46,10.46,0,0,0,1.5,4.09,10.9,10.9,0,0,0,2.61,2.88A9.79,9.79,0,0,0,20,61.63a11.81,11.81,0,0,0,1.3.4l1.14.19a10.73,10.73,0,0,0,1.62.05l.57,0H24c-.19,0-.42,0-.69,0l-.91-.11c-.34-.07-.71-.14-1.12-.24A11.22,11.22,0,0,1,20,61.42a10.75,10.75,0,0,1-2.73-1.64,10.38,10.38,0,0,1-2.44-2.85A10.81,10.81,0,0,1,13.51,53c0-.36-.1-.73-.09-1.09a10.37,10.37,0,0,1,0-1.12,8.42,8.42,0,0,1,.14-1.11,7,7,0,0,1,.26-1.1,10.52,10.52,0,0,1,2.2-4,10.48,10.48,0,0,1,8-3.59,10.86,10.86,0,0,1,4.06.84,10.62,10.62,0,0,1,3.13,2,10.49,10.49,0,0,1,2,2.5,10.32,10.32,0,0,1,.6,1.2C34,48,34.1,48.35,34.22,48.67Z"/><path class="cls-1" d="M59.84,49.17,59.79,49c0-.09-.09-.22-.16-.39a3.14,3.14,0,0,0-.9-1.08,3.18,3.18,0,0,0-.78-.4A2.91,2.91,0,0,0,57,47a2.52,2.52,0,0,0-1,.25,2.41,2.41,0,0,0-.79.59,2.63,2.63,0,0,0-.49.86c0,.15-.08.32-.11.45a2.35,2.35,0,0,0,0,.28,1.76,1.76,0,0,0,0,.23,2.33,2.33,0,0,0,.08.46A5.93,5.93,0,0,1,57,49.36c1.86-.12,3.49,1.64,3.36-.22a3.35,3.35,0,0,0-2.63-3.07,3,3,0,0,1,1.51,1,2.72,2.72,0,0,1,.64,1.52,2.22,2.22,0,0,1,0,.45Z"/><path class="cls-1" d="M52.77,51.65a4.66,4.66,0,0,1-.53-1,6.35,6.35,0,0,1-.22-.71L52,49.68V50a4.22,4.22,0,0,0,.41,1.93,4.63,4.63,0,0,0,.87,1.34,5.2,5.2,0,0,0,3.68,1.71,5.46,5.46,0,0,0,2.32-.41,5.4,5.4,0,0,0,3.16-3.6,4.93,4.93,0,0,0,.18-1.22,5,5,0,0,0,0-.55c0-.23,0-.4-.07-.6a5.23,5.23,0,0,0-.82-2,5.08,5.08,0,0,0-1.35-1.38,4.88,4.88,0,0,0-1.44-.7,5.63,5.63,0,0,0-1.2-.2,4.73,4.73,0,0,0-.77,0l-.26,0,.26,0a4.79,4.79,0,0,1,.74.12,6.89,6.89,0,0,1,1.06.4A5.06,5.06,0,0,1,60.9,47a4.67,4.67,0,0,1,.53,1.72,3.54,3.54,0,0,1,0,.45,2.75,2.75,0,0,1,0,.51,5.33,5.33,0,0,1-.18.92,4.58,4.58,0,0,1-1,1.69,4.52,4.52,0,0,1-1.55,1.15,4.9,4.9,0,0,1-1.85.42,4.79,4.79,0,0,1-3.18-1.13A4.91,4.91,0,0,1,52.77,51.65Z"/><path class="cls-1" d="M24,124.34a3.58,3.58,0,0,0-.68-1.08,4.13,4.13,0,0,0-2.94-1.4,4.25,4.25,0,0,0-1.86.32,4.62,4.62,0,0,0-1.62,1.15,4.78,4.78,0,0,0-.93,1.75,3.93,3.93,0,0,0-.14,1,2.18,2.18,0,0,0,0,.45c0,.18,0,.32,0,.48a4.16,4.16,0,0,0,1.77,2.71,3.76,3.76,0,0,0,1.16.54,4,4,0,0,0,.95.13,4,4,0,0,0,.61-.05l.21,0-.21,0a5.41,5.41,0,0,1-.57-.12,4.25,4.25,0,0,1-.82-.33,4,4,0,0,1-1.65-1.66,3.76,3.76,0,0,1-.38-1.31c0-.11,0-.25,0-.34a1.59,1.59,0,0,1,0-.39,3.67,3.67,0,0,1,.14-.69A3.56,3.56,0,0,1,19,123.27a3.6,3.6,0,0,1,1.41-.33,3.74,3.74,0,0,1,2.43.82,4.33,4.33,0,0,1,.76.8,4.77,4.77,0,0,1,.43.77,3.3,3.3,0,0,1,.19.55l.06.21v-.22a3.27,3.27,0,0,0,0-.6A4.14,4.14,0,0,0,24,124.34Z"/><path class="cls-1" d="M22.75,126.51a3.28,3.28,0,0,1-.1.51,2.59,2.59,0,0,1-.52.93,2.69,2.69,0,0,1-.86.64,2.76,2.76,0,0,1-1,.23,2.69,2.69,0,0,1-1.75-.63,3.1,3.1,0,0,1-.52-.59,2.2,2.2,0,0,1-.28-.55c-.05-.16-.1-.3-.12-.39l0-.14v.14a1.7,1.7,0,0,0,0,.42,2.74,2.74,0,0,0,.68,1.36,2.84,2.84,0,0,0,2,.92,3,3,0,0,0,1.26-.23,2.93,2.93,0,0,0,1.71-1.94,2.93,2.93,0,0,0,.1-.66,1.45,1.45,0,0,0,0-.3,2.91,2.91,0,0,0,0-.32,2.87,2.87,0,0,0-1.17-1.86,2.7,2.7,0,0,0-1.43-.49,1.65,1.65,0,0,0-.42,0l-.15,0h.15a3.09,3.09,0,0,1,.4.07,2.43,2.43,0,0,1,.58.21,2.57,2.57,0,0,1,.65.44,2.64,2.64,0,0,1,.85,1.65,2.5,2.5,0,0,1,0,.25C22.75,126.33,22.76,126.44,22.75,126.51Z"/><path class="cls-2" d="M67.05,88.94a7.34,7.34,0,0,0-.11-1c-.13-.7-.27-1.51-.43-2.41s-.52-1.87-.86-2.93L65,81c-.12-.28-.22-.57-.35-.85l-.44-.85a27,27,0,0,0-5.07-7,28.55,28.55,0,0,0-19.75-8.55,29.07,29.07,0,0,0-12.17,2.34A28.84,28.84,0,0,0,10.69,84.9c-.14.52-.33,1-.42,1.55s-.19,1-.29,1.56a25.77,25.77,0,0,0-.35,3.18L9.58,92c0,.26,0,.5,0,.75,0,.5,0,1,0,1.5V95l.1.77c.06.5.12,1,.19,1.51a28.51,28.51,0,0,0,11,18.45,26.78,26.78,0,0,0,7.62,4.12l.89.33.89.24,1.68.43c1.1.21,2.11.33,3,.48l2.45.11a7.88,7.88,0,0,0,1,0l.82,0,1.5-.09-1.5,0-.82,0a7,7,0,0,1-1-.07l-2.39-.3c-.88-.21-1.86-.41-2.91-.69l-1.6-.53-.85-.28-.84-.38a27.33,27.33,0,0,1-7.09-4.34,28.46,28.46,0,0,1-6.29-7.45A27.7,27.7,0,0,1,12.07,97c0-.46-.09-.93-.14-1.4l-.08-.71v-.69c0-.49,0-1,0-1.49V92l.08-.7a21.67,21.67,0,0,1,.37-2.84c.09-.47.19-1,.28-1.43s.27-.94.39-1.42A27.45,27.45,0,0,1,39.42,65.9,27.8,27.8,0,0,1,50,68a28.36,28.36,0,0,1,8.2,5.28,27.28,27.28,0,0,1,5.22,6.47l.48.78c.14.27.26.54.39.81.25.52.5,1,.73,1.52.42,1,.74,2,1.06,2.79s.43,1.66.61,2.34a6.25,6.25,0,0,1,.19,1l.13.8c.16,1,.24,1.48.24,1.48s0-.52-.1-1.49C67.09,89.51,67.07,89.24,67.05,88.94Z"/><path class="cls-1" d="M15.18,54.91c-.14-.33-.25-.65-.36-.93a12.07,12.07,0,0,1-.34-1.37l-.09-.5,0,.51A8,8,0,0,0,14.59,54c.08.3.16.64.28,1a8.43,8.43,0,0,0,.47,1.12A8.76,8.76,0,0,0,17,58.58a9.81,9.81,0,0,0,2.86,2.06,10,10,0,0,0,8.05.13A9.82,9.82,0,0,0,33.6,54.3,9.22,9.22,0,0,0,34,51.11a7.17,7.17,0,0,0-.11-1.06A9.67,9.67,0,0,0,30,43.77a8.85,8.85,0,0,0-2.61-1.36,11.11,11.11,0,0,0-1.18-.32l-1-.15a9.37,9.37,0,0,0-1.44,0l-.5,0,.5,0a4.73,4.73,0,0,1,.6,0l.8.12c.3.07.63.14,1,.24a8.34,8.34,0,0,1,1.09.42,9.19,9.19,0,0,1,2.34,1.48,9.5,9.5,0,0,1,2.06,2.5,9.18,9.18,0,0,1,1.12,3.38,7.55,7.55,0,0,1,.07.92,8,8,0,0,1,0,1,7.54,7.54,0,0,1-.13.92c-.06.28-.11.55-.19.81l-1.42-.41a7.63,7.63,0,0,1-2.8,4l.91,1.24a8.91,8.91,0,0,1-1.74,1,9.33,9.33,0,0,1-2.11.64l-.26-1.54a5.29,5.29,0,0,1-.8.09,7.46,7.46,0,0,1-3.56-.63l-.65,1.47a9.61,9.61,0,0,1-2.56-1.64A9.4,9.4,0,0,1,15.74,56C15.5,55.6,15.36,55.23,15.18,54.91Z"/><path class="cls-1" d="M28.62,51.19,28.54,51c0-.16-.14-.38-.25-.66a6.19,6.19,0,0,0-.55-.89,5.33,5.33,0,0,0-.92-.92,5,5,0,0,0-1.3-.69A4.28,4.28,0,0,0,24,47.58a4.15,4.15,0,0,0-1.61.4A4.09,4.09,0,0,0,20,51.21a3,3,0,0,0,0,.46c0,.1,0,.26,0,.39a5.35,5.35,0,0,0,.14.8,10.28,10.28,0,0,1,3.74-1.36c3-.2,5.63,2.65,5.43-.35a5.43,5.43,0,0,0-3.55-4.76,4.93,4.93,0,0,1,1.78,1.33,4.48,4.48,0,0,1,.81,1.34,4.94,4.94,0,0,1,.28,1.14,4.47,4.47,0,0,1,0,.74C28.63,51.1,28.62,51.19,28.62,51.19Z"/><path class="cls-1" d="M30,49.1c.1.23.18.46.25.66a6.66,6.66,0,0,1,.22,1l.06.35s0-.13,0-.35a6.06,6.06,0,0,0-.13-1c-.07-.2-.13-.43-.21-.68a6.54,6.54,0,0,0-1.52-2.44,6.77,6.77,0,0,0-4.65-2,7,7,0,0,0-2.87.56,6.67,6.67,0,0,0-3.89,4.43A6.74,6.74,0,0,0,17,51.05a5.76,5.76,0,0,0,0,.72c0,.25.05.48.07.72A6.47,6.47,0,0,0,18,55a6.61,6.61,0,0,0,1.64,1.79,6.22,6.22,0,0,0,1.79,1,6.47,6.47,0,0,0,.82.23l.71.12a8.58,8.58,0,0,0,1,0l.35,0H24A7.58,7.58,0,0,1,23,58l-.68-.16a7.27,7.27,0,0,1-.77-.28,6.76,6.76,0,0,1-1.67-1,6.22,6.22,0,0,1-1.47-1.75,6.51,6.51,0,0,1-.81-2.39,5.06,5.06,0,0,1-.06-.66,5.2,5.2,0,0,1,0-.69,5.72,5.72,0,0,1,.24-1.34,6.47,6.47,0,0,1,3.57-4.06A6.3,6.3,0,0,1,24,45.12a6.71,6.71,0,0,1,2.47.49,6.53,6.53,0,0,1,1.93,1.24,6.62,6.62,0,0,1,1.22,1.52A5.68,5.68,0,0,1,30,49.1Z"/><path class="cls-1" d="M76.58,71.23l84.5-5.47-1.44-22.18L75.14,49ZM103,67.67l-10,.65-.43-6.68,10-.65Zm13.57-.88-10,.65-.43-6.68,10-.65Zm13.57-.87-10,.64-.44-6.68,10-.65ZM143.72,65l-10,.64L133.3,59l10-.64Zm13.57-.88-10,.65-.43-6.69,10-.64Zm-7.85-13a2.44,2.44,0,0,0,1.47.37,3,3,0,0,0,.54-.11l-.13,0a3.8,3.8,0,0,1-.37-.12,2.67,2.67,0,0,1-1-.71,2.33,2.33,0,0,1-.6-1.42,1.19,1.19,0,0,1,0-.19,1.57,1.57,0,0,1,0-.25,2.4,2.4,0,0,1,.1-.38,2.06,2.06,0,0,1,1.07-1.22,2,2,0,0,1,.81-.22,2.66,2.66,0,0,1,.79.08,2.74,2.74,0,0,1,.69.33,2.78,2.78,0,0,1,.83.92,3.52,3.52,0,0,1,.17.35l.05.13,0-.14a1.63,1.63,0,0,0,0-.41,2.42,2.42,0,0,0-.55-1.42,2.78,2.78,0,0,0-1.26-.88A3.12,3.12,0,1,1,148.4,50,2.76,2.76,0,0,0,149.44,51.17Zm-13.57.88a2.51,2.51,0,0,0,1.47.37,2.65,2.65,0,0,0,.54-.12l-.14,0-.36-.12a2.67,2.67,0,0,1-1-.71,2.35,2.35,0,0,1-.6-1.42,1.18,1.18,0,0,1,0-.19.9.9,0,0,1,0-.25,2.4,2.4,0,0,1,.1-.38,2.07,2.07,0,0,1,.41-.72A2,2,0,0,1,137,48a2,2,0,0,1,.81-.22,2.31,2.31,0,0,1,.78.08,2.92,2.92,0,0,1,.69.32,2.74,2.74,0,0,1,.84.93,2.34,2.34,0,0,1,.16.34l.06.13,0-.14a2.19,2.19,0,0,0,0-.4,2.46,2.46,0,0,0-.55-1.42,2.78,2.78,0,0,0-1.26-.88,3.12,3.12,0,1,1-3.69,4.18A2.73,2.73,0,0,0,135.87,52.05Zm-13.57.88a2.5,2.5,0,0,0,1.47.37,2.65,2.65,0,0,0,.54-.12l-.14,0a3.75,3.75,0,0,1-.36-.12,2.77,2.77,0,0,1-1-.71,2.37,2.37,0,0,1-.59-1.43,1.2,1.2,0,0,1,0-.19.82.82,0,0,1,0-.24,3.42,3.42,0,0,1,.09-.38,2.1,2.1,0,0,1,.42-.72,2,2,0,0,1,.66-.5,2,2,0,0,1,.81-.22,2.08,2.08,0,0,1,.78.08,2.57,2.57,0,0,1,.69.32,2.81,2.81,0,0,1,.84.92c.07.15.13.27.16.35l0,.13,0-.14a2.25,2.25,0,0,0,0-.41,2.46,2.46,0,0,0-.55-1.41,2.76,2.76,0,0,0-1.27-.88,3.12,3.12,0,1,1-3.68,4.18A2.67,2.67,0,0,0,122.3,52.93Zm-13.58.88a2.45,2.45,0,0,0,1.48.36,2.56,2.56,0,0,0,.54-.11l-.14,0a2.3,2.3,0,0,1-.37-.11,2.87,2.87,0,0,1-1-.71,2.38,2.38,0,0,1-.6-1.43c0-.06,0-.15,0-.19s0-.2,0-.24.06-.25.1-.38a2.1,2.1,0,0,1,.42-.72,2.21,2.21,0,0,1,.66-.51,2.32,2.32,0,0,1,2.28.19,2.81,2.81,0,0,1,.84.92c.06.15.13.26.16.35l0,.13,0-.14a2.07,2.07,0,0,0,0-.41,2.46,2.46,0,0,0-.56-1.41,2.72,2.72,0,0,0-1.26-.88,3.12,3.12,0,1,1-3.69,4.18A2.8,2.8,0,0,0,108.72,53.81Zm-13.57.88a2.51,2.51,0,0,0,1.47.36,2.19,2.19,0,0,0,.54-.11l-.13,0c-.09,0-.22-.07-.37-.11a2.87,2.87,0,0,1-1-.71,2.38,2.38,0,0,1-.6-1.43,1.2,1.2,0,0,1,0-.19,1.57,1.57,0,0,1,0-.25,2.4,2.4,0,0,1,.1-.38,2.1,2.1,0,0,1,.41-.71,2.3,2.3,0,0,1,.66-.51,2.42,2.42,0,0,1,.82-.22,2.62,2.62,0,0,1,.78.08,2.58,2.58,0,0,1,1.52,1.25c.07.15.14.26.17.35l0,.13,0-.14a2.07,2.07,0,0,0,0-.41,2.46,2.46,0,0,0-.56-1.41,2.79,2.79,0,0,0-1.26-.89,3.12,3.12,0,1,1-3.69,4.19A2.86,2.86,0,0,0,95.15,54.69Zm-13.57.87a2.44,2.44,0,0,0,1.47.37,2.19,2.19,0,0,0,.54-.11l-.13,0a2.2,2.2,0,0,1-.37-.12,2.67,2.67,0,0,1-1-.71,2.33,2.33,0,0,1-.6-1.42,1.2,1.2,0,0,1,0-.19,1.57,1.57,0,0,1,0-.25,2.4,2.4,0,0,1,.1-.38,2.06,2.06,0,0,1,1.07-1.22,2.16,2.16,0,0,1,.81-.22,2.59,2.59,0,0,1,.78.08,2.45,2.45,0,0,1,.69.33,2.71,2.71,0,0,1,.84.92A3.52,3.52,0,0,1,86,53l0,.13,0-.14a1.6,1.6,0,0,0,0-.41,2.49,2.49,0,0,0-.55-1.42,2.78,2.78,0,0,0-1.26-.88,3.12,3.12,0,1,1-3.69,4.19A2.7,2.7,0,0,0,81.58,55.56Zm-2.82,3.18,77.86-5,.08,1.2-77.86,5ZM79,62.52l10-.65.43,6.68-10,.65Z"/><path class="cls-1" d="M184.26,116.06a1.92,1.92,0,0,1-.1.51,2.45,2.45,0,0,1-.52.93,2.54,2.54,0,0,1-.85.64,2.81,2.81,0,0,1-1,.23,2.69,2.69,0,0,1-1.74-.64,2.53,2.53,0,0,1-.52-.58,3,3,0,0,1-.29-.55,3.18,3.18,0,0,1-.11-.39l0-.14v.14a2.61,2.61,0,0,0,0,.42,2.79,2.79,0,0,0,.67,1.36,2.84,2.84,0,0,0,2,.92,2.92,2.92,0,0,0,1.25-.23,2.91,2.91,0,0,0,1.71-2,2,2,0,0,0,.1-.65,1.5,1.5,0,0,0,0-.3,1.47,1.47,0,0,0,0-.32,2.82,2.82,0,0,0-1.16-1.86,2.7,2.7,0,0,0-1.44-.49,1.6,1.6,0,0,0-.41,0l-.15,0h.15a3,3,0,0,1,.4.06,3.79,3.79,0,0,1,.58.21,2.74,2.74,0,0,1,1.5,2.1c0,.08,0,.18,0,.25A2.3,2.3,0,0,1,184.26,116.06Z"/><path class="cls-2" d="M228.56,78.49a6,6,0,0,0-.11-1c-.12-.7-.26-1.51-.43-2.42s-.51-1.87-.86-2.92c-.2-.52-.42-1.06-.64-1.61-.12-.28-.23-.57-.36-.85l-.44-.85a26.76,26.76,0,0,0-5.06-7,28.55,28.55,0,0,0-19.75-8.55,29.07,29.07,0,0,0-12.17,2.34A28.89,28.89,0,0,0,172.2,74.45c-.13.52-.32,1-.41,1.54s-.2,1.05-.29,1.57a24,24,0,0,0-.35,3.18l-.06.79c0,.26,0,.5,0,.75l0,1.49v.8l.09.77c.07.5.13,1,.19,1.51a28.62,28.62,0,0,0,11,18.45,26.82,26.82,0,0,0,7.63,4.12l.89.33c.3.09.6.16.89.23l1.68.44c1.09.21,2.11.33,3,.48L199,111a7.9,7.9,0,0,0,1,0l.82,0,1.49-.09-1.5,0-.81,0a7,7,0,0,1-1-.07l-2.39-.31c-.88-.2-1.86-.4-2.91-.68l-1.6-.53-.85-.28-.84-.38a27.16,27.16,0,0,1-7.09-4.34,28.27,28.27,0,0,1-6.29-7.45,27.76,27.76,0,0,1-3.47-10.21l-.15-1.41-.07-.7V82.25c0-.25,0-.5,0-.75l.07-.7a21.71,21.71,0,0,1,.38-2.84c.09-.48.18-.95.28-1.43a13.52,13.52,0,0,1,.39-1.42,27.56,27.56,0,0,1,37-17.54,28.5,28.5,0,0,1,8.19,5.27,27.49,27.49,0,0,1,5.23,6.47l.47.79c.15.27.27.54.39.8l.74,1.53c.41,1,.73,1.95,1.05,2.79s.44,1.66.62,2.34a7.73,7.73,0,0,1,.19,1l.13.8c.16,1,.24,1.48.24,1.48l-.11-1.49C228.61,79.06,228.59,78.79,228.56,78.49Z"/><path class="cls-1" d="M185.48,113.89a4,4,0,0,0-.68-1.09,4.2,4.2,0,0,0-2.94-1.4,4.27,4.27,0,0,0-1.86.33,4.49,4.49,0,0,0-1.62,1.15,4.7,4.7,0,0,0-.93,1.75,3.52,3.52,0,0,0-.15,1c0,.19,0,.3,0,.44s0,.32.06.48a4.08,4.08,0,0,0,1.77,2.72,3.51,3.51,0,0,0,1.16.53,3.63,3.63,0,0,0,.95.14,2.7,2.7,0,0,0,.6-.06l.21,0-.21,0c-.13,0-.33-.07-.57-.12a4,4,0,0,1-.81-.33,4,4,0,0,1-.9-.65,4.35,4.35,0,0,1-.75-1,3.76,3.76,0,0,1-.38-1.31c0-.11,0-.25,0-.34s0-.3,0-.39a4.77,4.77,0,0,1,.15-.69,3.47,3.47,0,0,1,.71-1.27,3.57,3.57,0,0,1,2.58-1.2,3.74,3.74,0,0,1,1.33.21,3.9,3.9,0,0,1,1.1.61,4,4,0,0,1,.75.8,4.9,4.9,0,0,1,.44.77c.08.23.16.42.19.55l.06.2v-.21a3.61,3.61,0,0,0,0-.61A3.66,3.66,0,0,0,185.48,113.89Z"/><path class="cls-2" d="M197.14,36.44c.2.45.37.87.53,1.25s.24.74.33,1.05.13.58.19.8l.15.67v-.69a12.43,12.43,0,0,0-.19-2c-.1-.41-.2-.88-.34-1.38l-.27-.76a6.85,6.85,0,0,0-.34-.8,12.24,12.24,0,0,0-2.28-3.37A13.07,13.07,0,0,0,191,28.34,13.22,13.22,0,0,0,185.59,27a13.49,13.49,0,0,0-5.82,1.07,13.62,13.62,0,0,0-7.94,9,9.55,9.55,0,0,0-.33,1.5,10.86,10.86,0,0,0-.15,1.54l0,.39v.35l0,.68,0,.4.05.36.1.72a13.29,13.29,0,0,0,5.39,8.67,12.11,12.11,0,0,0,3.63,1.82,13.4,13.4,0,0,0,1.63.41c.52.08,1,.11,1.41.16a11,11,0,0,0,2-.07l.68-.07-.68-.06a7.53,7.53,0,0,1-.82-.09l-1.08-.19c-.4-.11-.84-.22-1.3-.37a14.09,14.09,0,0,1-1.47-.59,12.87,12.87,0,0,1-3.1-2,13,13,0,0,1-2.69-3.37,12.7,12.7,0,0,1-1.44-4.51l0-.61,0-.31V40.52l0-.29a10.73,10.73,0,0,1,.18-1.21,8.62,8.62,0,0,1,.3-1.24,11.88,11.88,0,0,1,2.49-4.48,12.13,12.13,0,0,1,4.11-3,12.48,12.48,0,0,1,4.91-1.08,12.71,12.71,0,0,1,4.62.84,13.27,13.27,0,0,1,3.69,2.24,12.7,12.7,0,0,1,2.43,2.81C196.69,35.53,196.88,36,197.14,36.44Z"/><path class="cls-1" d="M176.7,44.46c-.14-.33-.26-.65-.37-.93a12.61,12.61,0,0,1-.34-1.37l-.09-.5,0,.5a8.76,8.76,0,0,0,.17,1.43c.09.3.17.64.28,1s.26.74.47,1.12a8.81,8.81,0,0,0,1.69,2.42,9.36,9.36,0,0,0,2.86,2,9.54,9.54,0,0,0,3.87.92,9.93,9.93,0,0,0,4.17-.78,9.8,9.8,0,0,0,5.68-6.47,8.7,8.7,0,0,0,.35-2.16,7.08,7.08,0,0,0,0-1,8.62,8.62,0,0,0-.11-1.06,9.71,9.71,0,0,0-3.81-6.28A8.9,8.9,0,0,0,188.93,32a10,10,0,0,0-1.18-.32c-.37-.07-.71-.1-1-.15a9.24,9.24,0,0,0-1.43,0l-.51,0,.51,0a4.73,4.73,0,0,1,.6,0l.8.12c.3.07.62.14,1,.24a8.45,8.45,0,0,1,1.1.42,9.19,9.19,0,0,1,2.34,1.48,9.5,9.5,0,0,1,2.06,2.5,9.18,9.18,0,0,1,1.12,3.38,7.55,7.55,0,0,1,.07.92,8,8,0,0,1,0,1,6,6,0,0,1-.13.92,7.3,7.3,0,0,1-.18.81L192.59,43a7.61,7.61,0,0,1-2.79,4l.91,1.23a8.76,8.76,0,0,1-1.74,1,10.23,10.23,0,0,1-2.11.64l-.27-1.54a6.82,6.82,0,0,1-.79.09,7.56,7.56,0,0,1-3.56-.63l-.65,1.47A9.45,9.45,0,0,1,179,47.62a9.78,9.78,0,0,1-1.78-2.13A8.69,8.69,0,0,1,176.7,44.46Z"/><path class="cls-2" d="M70.65,34.42l2.63,40.63,90.88-5.88-2.63-40.63a5.07,5.07,0,0,1,.17-1.66L70.27,32.8A5.05,5.05,0,0,1,70.65,34.42Zm2.12-.85L160,27.92l.78,12.16L73.56,45.73Zm.92,14.2,87.23-5.65L162.53,67,75.3,72.68Z"/><path class="cls-1" d="M195.73,38.22c.09.33.16.63.23.89s.08.49.11.68l.08.56s0-.2-.05-.57a9.37,9.37,0,0,0-.25-1.59c-.1-.34-.2-.71-.34-1.11a10.93,10.93,0,0,0-.56-1.24A10,10,0,0,0,193,33.2a11.17,11.17,0,0,0-3.2-2.22,10.55,10.55,0,0,0-4.25-1,11.14,11.14,0,0,0-4.57.89A10.75,10.75,0,0,0,174.79,38a9.25,9.25,0,0,0-.26,1.16,9.43,9.43,0,0,0-.14,1.19,11.08,11.08,0,0,0,0,1.15c0,.4.08.77.11,1.15A10.63,10.63,0,0,0,176,46.72a10.88,10.88,0,0,0,2.61,2.88,9.87,9.87,0,0,0,2.86,1.58,10,10,0,0,0,1.31.39c.41.09.8.14,1.14.2a9.21,9.21,0,0,0,1.61,0l.57,0h-.57a5.88,5.88,0,0,1-.68,0l-.91-.1c-.34-.07-.72-.14-1.12-.24a11.22,11.22,0,0,1-1.26-.44,10.8,10.8,0,0,1-2.74-1.64A10.66,10.66,0,0,1,175,42.55a7.74,7.74,0,0,1-.09-1.08,6.94,6.94,0,0,1,0-1.12,9.74,9.74,0,0,1,.39-2.21,10.55,10.55,0,0,1,10.22-7.58,10.91,10.91,0,0,1,4.07.84,10.62,10.62,0,0,1,3.13,2.05,10.74,10.74,0,0,1,2,2.5,12.19,12.19,0,0,1,.6,1.2C195.5,37.53,195.62,37.89,195.73,38.22Z"/><path class="cls-1" d="M191.52,38.65c.1.23.17.46.25.66a8.38,8.38,0,0,1,.22,1l.06.35,0-.36a5.33,5.33,0,0,0-.14-1c-.06-.2-.12-.44-.2-.68a8.41,8.41,0,0,0-.34-.78,6.2,6.2,0,0,0-1.19-1.66,6.73,6.73,0,0,0-4.65-2,6.91,6.91,0,0,0-2.86.56,6.67,6.67,0,0,0-3.89,4.43,6.2,6.2,0,0,0-.25,1.48,5.76,5.76,0,0,0,0,.72,4.28,4.28,0,0,0,.07.72,6.46,6.46,0,0,0,1,2.55,6.81,6.81,0,0,0,1.65,1.79,6,6,0,0,0,1.79,1,8,8,0,0,0,.82.23c.25.05.49.08.7.11a5.74,5.74,0,0,0,1,0l.35,0h-.36a7.46,7.46,0,0,1-1-.09l-.68-.16c-.24-.09-.51-.15-.78-.28a7,7,0,0,1-1.66-1,6.42,6.42,0,0,1-1.48-1.75,6.88,6.88,0,0,1-.81-2.4c0-.21-.06-.44-.05-.65a5.24,5.24,0,0,1,0-.69,6.32,6.32,0,0,1,.25-1.34,6.42,6.42,0,0,1,1.34-2.42,6.68,6.68,0,0,1,2.23-1.65,6.4,6.4,0,0,1,2.64-.54,6.77,6.77,0,0,1,2.48.49,6.36,6.36,0,0,1,1.92,1.24,6.68,6.68,0,0,1,1.23,1.52A5.68,5.68,0,0,1,191.52,38.65Z"/><path class="cls-1" d="M190.14,40.74l-.09-.24a5,5,0,0,0-.25-.66,4.8,4.8,0,0,0-.55-.89,4.45,4.45,0,0,0-.92-.92,4.73,4.73,0,0,0-1.3-.69,4.25,4.25,0,0,0-1.54-.21,4.14,4.14,0,0,0-1.61.39,4,4,0,0,0-1.34,1,4.1,4.1,0,0,0-.82,1.45,5.09,5.09,0,0,0-.18.78,3.17,3.17,0,0,0,0,.46,2.63,2.63,0,0,0,0,.39,4.32,4.32,0,0,0,.14.8,10.14,10.14,0,0,1,3.74-1.36c3-.2,5.63,2.64,5.43-.36a5.43,5.43,0,0,0-3.55-4.75,4.93,4.93,0,0,1,1.78,1.33,4.32,4.32,0,0,1,.8,1.34,4.54,4.54,0,0,1,.29,1.14,4.33,4.33,0,0,1,0,.73Z"/><path class="cls-1" d="M182.34,91.77c-.1-.2-.19-.4-.28-.59l-.53-1.11c-.29-.74-.51-1.43-.73-2s-.3-1.21-.42-1.71a10.13,10.13,0,0,1-.22-1.28c-.1-.7-.16-1.08-.16-1.08s0,.38.09,1.09c0,.35,0,.79.14,1.3s.21,1.09.34,1.74.39,1.35.65,2.11c.16.37.32.76.48,1.16.09.2.17.4.26.61l.32.6a19,19,0,0,0,3.7,5,21,21,0,0,0,6.09,4.23,20,20,0,0,0,8.12,1.84,20.94,20.94,0,0,0,8.72-1.71,20.54,20.54,0,0,0,11.84-13.48c.1-.37.23-.73.3-1.1l.21-1.12a17.14,17.14,0,0,0,.26-2.27l0-.56v-.55c0-.36,0-.72,0-1.08,0-.19,0-.33,0-.57l-.07-.54c0-.37-.08-.73-.13-1.09a20.12,20.12,0,0,0-2.87-7.8,20.93,20.93,0,0,0-5-5.5,19.28,19.28,0,0,0-5.47-3l-.64-.24c-.21-.07-.43-.12-.64-.18l-1.21-.33c-.79-.16-1.52-.26-2.17-.37l-1.78-.11a10.42,10.42,0,0,0-1.3,0l-1.09,0,1.09,0a12.77,12.77,0,0,1,1.3.05l1.74.2c.65.14,1.36.27,2.13.47l1.17.37.62.2.62.27a20,20,0,0,1,5.21,3.13,20.2,20.2,0,0,1,4.65,5.42,20.56,20.56,0,0,1,2.58,7.49c0,.34.08.69.11,1l.06.52v.51c0,.36,0,.73,0,1.09v.54l-.05.52a15.39,15.39,0,0,1-.26,2.11L220,87.12a9.6,9.6,0,0,1-.29,1,.43.43,0,0,0,0,0l-3.43-1a16.45,16.45,0,0,1-6,8.6l2.1,2.87a19.84,19.84,0,0,1-3.83,2.23,20,20,0,0,1-4.59,1.39l-.6-3.54c-.57.09-1.14.16-1.72.2a16.38,16.38,0,0,1-7.69-1.37l-1.5,3.39a20.75,20.75,0,0,1-9.68-8.64C182.57,92.15,182.45,92,182.34,91.77Z"/><path class="cls-1" d="M225.47,79.68l.19,1.32s0-.46-.12-1.33c-.06-.43-.06-1-.18-1.59s-.27-1.34-.43-2.14-.48-1.65-.81-2.58l-.59-1.42c-.11-.24-.2-.5-.32-.75l-.4-.74a23.55,23.55,0,0,0-4.55-6.15,25.47,25.47,0,0,0-7.47-5.16,24.79,24.79,0,0,0-9.92-2.23A25.63,25.63,0,0,0,190.22,59a25.21,25.21,0,0,0-14.47,16.47c-.12.45-.28.89-.36,1.35s-.17.91-.26,1.36a21.4,21.4,0,0,0-.32,2.76l-.05.69c0,.23,0,.45,0,.67l0,1.33c0,.24,0,.42,0,.69l.07.67c.06.45.11.89.16,1.33a25,25,0,0,0,3.49,9.54,25.7,25.7,0,0,0,6.08,6.74,23.54,23.54,0,0,0,6.69,3.71c.26.11.53.21.78.3s.53.15.79.23l1.48.4c1,.2,1.86.33,2.66.47l2.18.15c.63,0,1.17,0,1.6,0l1.33,0h-1.33c-.43,0-1,0-1.6-.06l-2.14-.23c-.79-.17-1.68-.33-2.62-.56l-1.45-.46-.76-.24-.76-.33a24.72,24.72,0,0,1-6.43-3.82,24.78,24.78,0,0,1-8.94-15.9l-.15-1.28-.07-.64c0-.16,0-.42,0-.63,0-.44,0-.89,0-1.33,0-.22,0-.45,0-.67l.07-.64a19,19,0,0,1,.32-2.6c.08-.44.17-.87.25-1.31s.24-.86.36-1.29a24.81,24.81,0,0,1,13.83-15.74A24.71,24.71,0,0,1,200.89,58a25.26,25.26,0,0,1,9.55,2,25,25,0,0,1,7.35,4.84,24.64,24.64,0,0,1,4.62,5.88l.42.71c.13.24.23.49.34.73.22.47.44.93.64,1.37.35.91.62,1.76.9,2.52s.36,1.49.5,2.1A14.24,14.24,0,0,1,225.47,79.68Z"/><path class="cls-1" d="M222.68,124.19c-2.66.09-5.75.22-9.06.4-1.65.09-3.37.16-5.1.27l-5.27.32-5.27.37-5.09.38c-3.31.26-6.39.52-9,.77s-4.84.5-6.38.65-2.42.27-2.42.27.88,0,2.43,0,3.76-.08,6.41-.19,5.75-.22,9.06-.39l5.1-.28,5.27-.32,5.26-.36c1.74-.11,3.45-.26,5.1-.38,3.31-.26,6.39-.53,9-.78s4.84-.49,6.38-.64l2.42-.28s-.88,0-2.43,0S225.33,124.09,222.68,124.19Z"/><path class="cls-1" d="M195.89,123.75c-2.31.16-4.47.36-6.31.5s-3.38.31-4.46.4l-1.69.17,1.7,0c1.08,0,2.62-.08,4.47-.17s4-.18,6.32-.32l7.24-.43,7.24-.5c2.31-.16,4.46-.36,6.31-.51s3.38-.3,4.46-.4l1.69-.17-1.7,0c-1.08.05-2.62.09-4.47.18s-4,.17-6.32.31l-7.25.43Z"/><path class="cls-1" d="M213.51,76.08l.2.42.38.79c.22.53.38,1,.55,1.47s.22.86.31,1.22.12.67.17.92c.08.5.12.77.12.77l-.05-.78c0-.25,0-.57-.09-.94s-.15-.78-.23-1.26-.28-1-.46-1.52l-.34-.84-.18-.44c-.08-.15-.15-.3-.23-.44A13.62,13.62,0,0,0,211,71.78a14.91,14.91,0,0,0-10.31-4.46,15.08,15.08,0,0,0-6.34,1.23,15,15,0,0,0-8.63,9.81,14.3,14.3,0,0,0-.55,3.28,5.55,5.55,0,0,0,0,.81l0,.78v.41l.05.4c0,.26.07.53.1.79a14.86,14.86,0,0,0,5.74,9.63,13.78,13.78,0,0,0,4,2.14l.47.18.46.12.88.23c.57.11,1.1.18,1.57.26l1.28.06c.37,0,.68,0,.94,0l.78,0-.78,0a8.3,8.3,0,0,1-.94,0l-1.25-.16c-.46-.11-1-.21-1.52-.35l-.84-.28-.44-.14-.44-.2a14.43,14.43,0,0,1-3.71-2.27A14.88,14.88,0,0,1,188.24,90a14.39,14.39,0,0,1-1.82-5.34l-.08-.74,0-.37V82l0-.37a10.94,10.94,0,0,1,.2-1.48,9.88,9.88,0,0,1,.35-1.5,14.51,14.51,0,0,1,3-5.41,14.67,14.67,0,0,1,5-3.65,14.53,14.53,0,0,1,11.4-.11,14.81,14.81,0,0,1,4.28,2.76,14.58,14.58,0,0,1,2.74,3.39Z"/><path class="cls-1" d="M225.76,113.38a3,3,0,0,1-.1.5,2.49,2.49,0,0,1-.52.94,2.43,2.43,0,0,1-.86.63,2.53,2.53,0,0,1-1,.23,2.61,2.61,0,0,1-1.74-.63,3.1,3.1,0,0,1-.53-.58,3.24,3.24,0,0,1-.28-.56c-.05-.16-.1-.29-.12-.39l0-.14v.15c0,.09,0,.24,0,.42a2.8,2.8,0,0,0,.68,1.35,2.84,2.84,0,0,0,2,.92,2.9,2.9,0,0,0,1.25-.22,3.08,3.08,0,0,0,1.08-.78,3.17,3.17,0,0,0,.63-1.17,2.84,2.84,0,0,0,.1-.66,3,3,0,0,0,0-.3,3.11,3.11,0,0,0,0-.32,2.85,2.85,0,0,0-1.17-1.85,2.79,2.79,0,0,0-1.43-.5l-.42,0-.14,0h.14l.41.07a2.59,2.59,0,0,1,.58.21,3,3,0,0,1,.65.44,2.69,2.69,0,0,1,.85,1.66,2.18,2.18,0,0,1,0,.25A1.29,1.29,0,0,1,225.76,113.38Z"/><path class="cls-1" d="M227,112.19c.08.24.16.42.19.56l.05.2v-.21a2.65,2.65,0,0,0,0-.61,3.39,3.39,0,0,0-.26-.93,3.66,3.66,0,0,0-.67-1.08,4.13,4.13,0,0,0-2.94-1.4,4.27,4.27,0,0,0-1.87.32,4.67,4.67,0,0,0-1.61,1.15,4.5,4.5,0,0,0-.93,1.75,3.59,3.59,0,0,0-.15,1c0,.18,0,.29,0,.44a3.31,3.31,0,0,0,.06.48,4.16,4.16,0,0,0,1.76,2.72,3.94,3.94,0,0,0,1.16.53,4.19,4.19,0,0,0,1,.14,3.48,3.48,0,0,0,.6-.06l.21,0-.21,0a3.92,3.92,0,0,1-.57-.12,4.25,4.25,0,0,1-.82-.33,3.89,3.89,0,0,1-.89-.64,3.75,3.75,0,0,1-.75-1,3.56,3.56,0,0,1-.38-1.31,2.06,2.06,0,0,1,0-.34c0-.13,0-.3,0-.39a3.73,3.73,0,0,1,.15-.69,3.4,3.4,0,0,1,.71-1.27,3.45,3.45,0,0,1,1.17-.87,3.61,3.61,0,0,1,2.73-.12,4,4,0,0,1,1.86,1.42A4.85,4.85,0,0,1,227,112.19Z"/><path class="cls-1" d="M192.47,85.52c1.94-.83,4.75-2.84,8-3,6-.39,11.26,5.46,10.87-.55a10.84,10.84,0,0,0-5.52-8.77A10.06,10.06,0,0,1,207.93,75a9.28,9.28,0,0,1,1.68,2.69,9.69,9.69,0,0,1,.43,1.24c.09.39.15.75.21,1.07a8.5,8.5,0,0,1,.06,1.51l0,.52-.15-.5a6.07,6.07,0,0,0-.18-.59c-.09-.23-.19-.49-.29-.78s-.28-.59-.45-.91-.37-.67-.63-1a9.94,9.94,0,0,0-1.88-2A9.55,9.55,0,0,0,204,74.71a9,9,0,0,0-3.3-.51l-.51,0h-.29l-.11,0c-.29.06-.59.07-.88.16a6.36,6.36,0,0,0-.85.25,6.1,6.1,0,0,0-.84.33,8.64,8.64,0,0,0-4.66,5.31,7,7,0,0,0-.23.87,6.75,6.75,0,0,0-.13.83l0,.21V83.4l0,.44A8.46,8.46,0,0,0,192.47,85.52Z"/><path class="cls-1" d="M84.06,63c-1.3,0-2.58.13-3.87.23l-.33,0,0,.32c.08.8.16,1.6.26,2.4,0,.4.1.8.17,1.2s.13.8.21,1.2c0-.41,0-.81,0-1.22s0-.8,0-1.21c0-.69,0-1.39,0-2.08,1.19-.07,2.37-.14,3.56-.26.64-.07,1.28-.14,1.92-.23s1.28-.19,1.92-.32C87.29,63,86.64,63,86,63S84.7,63,84.06,63Z"/><path class="cls-1" d="M134.43,62.46c0,.4.1.8.17,1.2s.13.8.21,1.19c0-.4,0-.8.05-1.21s0-.81,0-1.21c0-.7,0-1.39,0-2.09,1.19-.06,2.37-.13,3.55-.26.65-.06,1.29-.13,1.93-.22s1.28-.2,1.92-.32c-.65,0-1.3-.06-1.94-.07s-1.3,0-1.94,0c-1.3,0-2.59.12-3.87.22l-.34,0,0,.32C134.25,60.86,134.33,61.66,134.43,62.46Z"/><path class="cls-1" d="M148,61.58c.06.4.1.8.17,1.2s.13.8.21,1.2c0-.41,0-.81.05-1.22s0-.8,0-1.21c0-.69,0-1.39,0-2.08,1.19-.07,2.37-.14,3.56-.26.64-.07,1.28-.14,1.92-.23s1.28-.19,1.92-.32c-.65,0-1.29-.06-1.94-.07s-1.3,0-1.94,0c-1.29,0-2.58.12-3.87.22l-.33,0,0,.32C147.82,60,147.9,60.78,148,61.58Z"/><path class="cls-1" d="M120.86,63.34c0,.4.1.8.17,1.2s.12.8.21,1.19c0-.4,0-.81.05-1.21s0-.81,0-1.21c0-.7,0-1.39,0-2.09,1.18-.06,2.37-.13,3.55-.26.64-.06,1.29-.14,1.93-.23s1.28-.19,1.92-.31c-.65-.05-1.3-.06-2-.07s-1.29,0-1.94,0c-1.29,0-2.58.12-3.87.22l-.33,0,0,.32C120.67,61.74,120.75,62.54,120.86,63.34Z"/><path class="cls-1" d="M107.28,64.22c.06.4.11.8.18,1.2s.12.79.21,1.19c0-.4,0-.81,0-1.21s0-.81,0-1.21c0-.7,0-1.39,0-2.09,1.18-.06,2.37-.13,3.55-.26.64-.06,1.29-.14,1.93-.23s1.28-.19,1.92-.32c-.65,0-1.3-.06-2-.07s-1.29,0-1.94,0c-1.29,0-2.58.12-3.87.22l-.33,0,0,.32C107.1,62.62,107.18,63.42,107.28,64.22Z"/><path class="cls-1" d="M221.36,38.72l-.05-.15c0-.09-.1-.23-.17-.39a2.86,2.86,0,0,0-1.68-1.48,2.81,2.81,0,0,0-.91-.12,2.4,2.4,0,0,0-1,.25,2.48,2.48,0,0,0-.78.59,2.42,2.42,0,0,0-.49.85,3.35,3.35,0,0,0-.11.46,2.16,2.16,0,0,0,0,.28,2,2,0,0,0,0,.23,2.33,2.33,0,0,0,.08.46,6,6,0,0,1,2.22-.8c1.86-.12,3.48,1.64,3.36-.21a3.37,3.37,0,0,0-2.63-3.07,3,3,0,0,1,1.51,1,2.8,2.8,0,0,1,.64,1.52,2,2,0,0,1,0,.44Z"/><path class="cls-1" d="M214.29,41.2a4.91,4.91,0,0,1-.53-1,6.85,6.85,0,0,1-.23-.71l-.06-.26v.27a3.92,3.92,0,0,0,.05.77,4.77,4.77,0,0,0,.35,1.16,4.9,4.9,0,0,0,.88,1.34,5.22,5.22,0,0,0,3.68,1.71,5.28,5.28,0,0,0,2.31-.42,5.66,5.66,0,0,0,2-1.43,5.74,5.74,0,0,0,1.16-2.16,4.93,4.93,0,0,0,.19-1.22,4.86,4.86,0,0,0,0-.55,3.66,3.66,0,0,0-.07-.6,5.25,5.25,0,0,0-2.16-3.41,4.93,4.93,0,0,0-1.45-.7,5.46,5.46,0,0,0-1.19-.2,4.73,4.73,0,0,0-.77.05l-.27,0,.27,0a4.52,4.52,0,0,1,.73.12,5.46,5.46,0,0,1,1.06.4,4.53,4.53,0,0,1,1.18.81,5.13,5.13,0,0,1,1,1.3,4.86,4.86,0,0,1,.52,1.72,3.64,3.64,0,0,1,0,.45,4,4,0,0,1,0,.51,4.57,4.57,0,0,1-.19.92,4.44,4.44,0,0,1-.94,1.68A4.64,4.64,0,0,1,220.27,43a4.9,4.9,0,0,1-1.86.42,5.11,5.11,0,0,1-1.75-.3,5,5,0,0,1-1.42-.84A4.65,4.65,0,0,1,214.29,41.2Z"/><path class="cls-1" d="M201,22.72c-7.41.43-16.05.87-25.31,1.45l-7.05.44-1.79.11a4.67,4.67,0,0,0-1,.12,3.65,3.65,0,0,0-1,.39,3.69,3.69,0,0,0-1.45,1.53,3.65,3.65,0,0,0-.34,1,5,5,0,0,0-.07.56v.49c.3,4.86.61,9.8.91,14.73.67,9.87,1.33,19.74,2,29s1.29,17.88,1.82,25.28,1.06,13.57,1.39,17.88l.55,6.78s-.11-2.47-.32-6.79-.51-10.5-.93-17.91-.87-16.05-1.45-25.31-1.18-19.13-1.79-29c-.34-4.93-.67-9.87-1-14.73a2.62,2.62,0,0,1,1.27-2.54,2.36,2.36,0,0,1,.68-.27,4.36,4.36,0,0,1,.8-.1l1.79-.12,7-.48c9.25-.61,17.88-1.29,25.29-1.82s13.56-1.05,17.87-1.38l6.78-.56-6.79.32C214.59,22,208.41,22.3,201,22.72Z"/><path class="cls-3" d="M226.8,19.25l-4.48.29L221.6,8.47,221.05,0l-3.88.25L11.83,13.54l-3.89.25.55,8.47.72,11.07-4.48.29A5.05,5.05,0,0,0,0,39l6.28,97a5.06,5.06,0,0,0,5.37,4.72l26-1.68,34.53-2.24,101-6.53,34.53-2.24,26-1.68a5.06,5.06,0,0,0,4.72-5.37l-6.28-97A5.06,5.06,0,0,0,226.8,19.25ZM10.12,15.7,12,15.58,217.3,2.3l1.84-.12.29,4.38-1.84.11L12.24,20l-1.84.12Zm57.47,119c-1.54.15-3.74.41-6.39.64s-5.72.52-9,.78c-1.65.12-3.36.27-5.09.38l-5.27.36-5.27.32-5.1.28c-3.31.17-6.4.3-9,.4S17.52,138,16,138l-2.43,0s.88-.12,2.42-.28,3.74-.41,6.38-.65,5.73-.51,9-.77l5.1-.38,5.26-.36,5.27-.32c1.74-.12,3.45-.19,5.1-.28,3.32-.17,6.41-.31,9.06-.4s4.86-.13,6.41-.18,2.43,0,2.43,0Zm-4.2-13.06a2.57,2.57,0,0,0-.65-.44,2.43,2.43,0,0,0-.58-.21,3,3,0,0,0-.4-.06l-.15,0,.15,0,.41,0a2.8,2.8,0,0,1,2.6,2.35,1.65,1.65,0,0,1,0,.32,2.81,2.81,0,0,1,0,.3,2.4,2.4,0,0,1-.11.66,3.07,3.07,0,0,1-.62,1.17,3.22,3.22,0,0,1-1.09.78,2.9,2.9,0,0,1-1.25.22,2.8,2.8,0,0,1-2-.92,2.73,2.73,0,0,1-.67-1.35,2.61,2.61,0,0,1,0-.42v-.15l0,.15a3.18,3.18,0,0,0,.11.39,3,3,0,0,0,.29.55,2.75,2.75,0,0,0,.52.58,2.61,2.61,0,0,0,2.77.4,2.39,2.39,0,0,0,.85-.63,2.45,2.45,0,0,0,.52-.93,1.92,1.92,0,0,0,.1-.51,2.46,2.46,0,0,0,0-.28c0-.07,0-.17,0-.25A2.64,2.64,0,0,0,63.39,121.64Zm.9-.56a4.19,4.19,0,0,0-1.1-.62,3.64,3.64,0,0,0-2.74.12,3.44,3.44,0,0,0-1.17.88,3.39,3.39,0,0,0-.71,1.27,4.38,4.38,0,0,0-.15.68c0,.1,0,.27,0,.4s0,.22,0,.34a3.89,3.89,0,0,0,.38,1.31,4.35,4.35,0,0,0,.75,1,3.94,3.94,0,0,0,.9.64,4.72,4.72,0,0,0,.81.34c.24,0,.44.1.57.11l.21,0-.21,0a3.48,3.48,0,0,1-.6.06,3.63,3.63,0,0,1-.95-.14,3.72,3.72,0,0,1-1.16-.53,4.17,4.17,0,0,1-1.77-2.72c0-.16-.05-.29-.06-.48s0-.26,0-.44a3.86,3.86,0,0,1,.15-1,4.82,4.82,0,0,1,.93-1.76A4.75,4.75,0,0,1,60,119.49a4.25,4.25,0,0,1,1.86-.32,4.13,4.13,0,0,1,2.94,1.4,3.93,3.93,0,0,1,.68,1.08,3.72,3.72,0,0,1,.25.93,3.58,3.58,0,0,1,0,.61v.21l-.06-.2c0-.14-.11-.32-.19-.55a4.49,4.49,0,0,0-.44-.77A3.72,3.72,0,0,0,64.29,121.08ZM30.59,93.67v-1l0-.21a10.79,10.79,0,0,1,.36-1.7,8.8,8.8,0,0,1,1.77-3.15,9.06,9.06,0,0,1,2.9-2.16,6,6,0,0,1,.83-.33,6.5,6.5,0,0,1,.86-.25,8.34,8.34,0,0,1,.87-.16l.11,0h.3l.51,0a9,9,0,0,1,3.3.51,9.74,9.74,0,0,1,2.73,1.52,9.94,9.94,0,0,1,1.88,2c.27.33.42.69.63,1s.31.63.45.91.2.55.3.78.12.43.18.59l.14.51,0-.53a8.5,8.5,0,0,0-.06-1.51c-.06-.32-.12-.68-.21-1.07a7.89,7.89,0,0,0-.43-1.23,9.19,9.19,0,0,0-1.68-2.7,10.06,10.06,0,0,0-2.09-1.81,10.85,10.85,0,0,1,5.53,8.78c.39,6-4.88.15-10.88.54-3.26.21-6.07,2.22-8,3a8.46,8.46,0,0,1-.32-1.68l0-.43ZM49,82.73A15,15,0,0,0,44.73,80a14.58,14.58,0,0,0-5.52-1.11A14.31,14.31,0,0,0,25.36,89.15,12.41,12.41,0,0,0,25,90.64a10.9,10.9,0,0,0-.19,1.48l0,.37V94l0,.37.08.74a14.57,14.57,0,0,0,1.82,5.34A14.88,14.88,0,0,0,30,104.36a14.32,14.32,0,0,0,3.71,2.27l.44.2.44.15.84.27c.55.15,1.06.25,1.52.35l1.25.16a8.39,8.39,0,0,0,.94,0l.78,0-.78,0a8.65,8.65,0,0,1-.94,0l-1.28-.06c-.47-.08-1-.15-1.57-.26l-.88-.23-.46-.12-.47-.17a13.82,13.82,0,0,1-4-2.15,15,15,0,0,1-5.74-9.63c0-.26-.06-.52-.1-.79l-.05-.4v-.41l0-.78a5.59,5.59,0,0,1,0-.81,11.26,11.26,0,0,1,.18-1.65,10,10,0,0,1,.37-1.62A15,15,0,0,1,32.85,79a15.16,15.16,0,0,1,6.35-1.23,14.91,14.91,0,0,1,10.3,4.46,13.78,13.78,0,0,1,2.64,3.67l.23.44.18.44.34.84c.19.55.32,1.07.46,1.53s.16.89.23,1.26.06.68.09.93l.06.78s0-.26-.13-.77c-.05-.25-.07-.56-.16-.92s-.2-.76-.32-1.22-.33-.94-.54-1.46c-.13-.26-.25-.53-.39-.8s-.13-.28-.2-.42l-.25-.41A14.52,14.52,0,0,0,49,82.73ZM24.94,107.56a20.21,20.21,0,0,0,5.91,3.88l1.5-3.39A16.23,16.23,0,0,0,40,109.42c.58,0,1.15-.11,1.71-.2l.61,3.54a20,20,0,0,0,8.42-3.62l-2.11-2.87a16.39,16.39,0,0,0,6-8.6l3.43,1s0,0,0,0c.09-.35.22-.69.29-1l.2-1.06a17.16,17.16,0,0,0,.27-2.11l.05-.52v-.54c0-.36,0-.72,0-1.08v-.52l-.06-.51-.12-1a20.37,20.37,0,0,0-2.58-7.49,20.7,20.7,0,0,0-9.86-8.55l-.62-.27-.61-.2-1.18-.37c-.76-.2-1.48-.33-2.12-.47L40,72.65c-.51-.06-.95,0-1.3-.05l-1.09,0,1.09,0a10.42,10.42,0,0,1,1.3,0l1.78.11c.65.11,1.39.21,2.17.37l1.21.33c.21.06.43.11.64.18l.65.24a19.41,19.41,0,0,1,5.47,3,21.28,21.28,0,0,1,5,5.5,20.29,20.29,0,0,1,2.87,7.8c0,.36.08.72.13,1.09l.06.54c0,.24,0,.38,0,.57,0,.36,0,.72,0,1.08v.55l0,.57a17.19,17.19,0,0,1-.26,2.26l-.21,1.12c-.06.37-.2.73-.29,1.1a21.52,21.52,0,0,1-4.37,8.1,21.31,21.31,0,0,1-7.48,5.38,20.92,20.92,0,0,1-8.71,1.71,20,20,0,0,1-8.12-1.84,20.88,20.88,0,0,1-6.1-4.23,19.08,19.08,0,0,1-3.69-5l-.33-.61c-.09-.2-.17-.41-.25-.61l-.49-1.16c-.26-.76-.45-1.47-.65-2.11s-.24-1.23-.33-1.74-.1-1-.14-1.3c-.06-.71-.1-1.08-.1-1.08s.06.37.16,1.07c.07.35.09.79.22,1.28s.26,1.07.42,1.71.45,1.31.74,2c.17.35.34.73.52,1.11.09.2.18.39.28.59l.35.58A20,20,0,0,0,24.94,107.56ZM63.19,86.45c-.27-.76-.54-1.61-.9-2.52l-.63-1.37c-.12-.24-.22-.48-.34-.73l-.42-.71a25.36,25.36,0,0,0-12-10.71,25,25,0,0,0-9.55-2A24.71,24.71,0,0,0,29.15,70.5,24.81,24.81,0,0,0,15.32,86.24c-.11.43-.28.85-.36,1.29s-.16.87-.25,1.31a19,19,0,0,0-.32,2.6l-.06.64c0,.22,0,.45,0,.67,0,.44,0,.89,0,1.33,0,.21,0,.47,0,.63l.07.64c.05.43.09.86.14,1.28a25.31,25.31,0,0,0,3.2,9.23,25,25,0,0,0,5.75,6.67,24.67,24.67,0,0,0,6.42,3.82l.77.33c.25.09.51.16.76.24l1.44.46c1,.23,1.83.39,2.62.56l2.14.23c.63.08,1.17,0,1.6.06h1.34l-1.34.05a15.76,15.76,0,0,1-1.6,0l-2.17-.14c-.81-.15-1.7-.27-2.67-.48l-1.48-.4-.78-.22-.79-.31a23.54,23.54,0,0,1-6.69-3.71A25.84,25.84,0,0,1,17,106.32a24.86,24.86,0,0,1-3.49-9.54c-.06-.44-.11-.88-.16-1.33l-.08-.67c0-.27,0-.45,0-.69,0-.44,0-.88,0-1.33,0-.22,0-.44,0-.66l.06-.69a19.6,19.6,0,0,1,.32-2.76c.08-.46.16-.92.25-1.37s.24-.9.36-1.35A25.21,25.21,0,0,1,28.7,69.46a25.82,25.82,0,0,1,10.65-2.1,25,25,0,0,1,9.93,2.23,25.8,25.8,0,0,1,7.47,5.16,23.66,23.66,0,0,1,4.54,6.15l.4.74c.12.25.22.51.32.75l.6,1.42c.32.93.56,1.8.81,2.58s.3,1.52.42,2.14A14.57,14.57,0,0,1,64,90.12c.08.87.12,1.33.12,1.33S64.08,91,64,90.13c-.07-.43-.1-1-.25-1.58ZM48.85,133.26c2.31-.13,4.47-.22,6.32-.31s3.39-.13,4.47-.18l1.7-.05-1.69.17c-1.07.1-2.61.26-4.46.4s-4,.35-6.31.51l-7.23.51-7.25.42c-2.31.14-4.47.22-6.32.32s-3.39.13-4.47.17l-1.7.05,1.69-.16c1.08-.1,2.61-.26,4.46-.41s4-.34,6.31-.5l7.24-.51Zm-27-8.93a2.57,2.57,0,0,0-.65-.44,2.43,2.43,0,0,0-.58-.21,3.09,3.09,0,0,0-.4-.07h-.15l.15,0a1.65,1.65,0,0,1,.42,0,2.7,2.7,0,0,1,1.43.49,2.87,2.87,0,0,1,1.17,1.86,2.91,2.91,0,0,1,0,.32,1.45,1.45,0,0,1,0,.3,2.93,2.93,0,0,1-.1.66,2.93,2.93,0,0,1-1.71,1.94,3,3,0,0,1-1.26.23,2.84,2.84,0,0,1-2-.92,2.74,2.74,0,0,1-.68-1.36,1.7,1.7,0,0,1,0-.42v-.14l0,.14c0,.09.07.23.12.39a2.2,2.2,0,0,0,.28.55,3.1,3.1,0,0,0,.52.59,2.69,2.69,0,0,0,1.75.63,2.76,2.76,0,0,0,1-.23,2.69,2.69,0,0,0,.86-.64,2.59,2.59,0,0,0,.52-.93,3.28,3.28,0,0,0,.1-.51c0-.07,0-.18,0-.28a2.5,2.5,0,0,0,0-.25A2.64,2.64,0,0,0,21.89,124.33Zm2.35,1.54v.22l-.06-.21a3.3,3.3,0,0,0-.19-.55,4.77,4.77,0,0,0-.43-.77,4.33,4.33,0,0,0-.76-.8,3.74,3.74,0,0,0-2.43-.82,3.6,3.6,0,0,0-1.41.33,3.56,3.56,0,0,0-1.88,2.14,3.67,3.67,0,0,0-.14.69,1.59,1.59,0,0,0,0,.39c0,.09,0,.23,0,.34a3.76,3.76,0,0,0,.38,1.31A4,4,0,0,0,19,129.8a4.25,4.25,0,0,0,.82.33,5.41,5.41,0,0,0,.57.12l.21,0-.21,0a4,4,0,0,1-.61.05,4,4,0,0,1-.95-.13,3.76,3.76,0,0,1-1.16-.54A4.16,4.16,0,0,1,15.85,127c0-.16,0-.3,0-.48a2.18,2.18,0,0,1,0-.45,3.93,3.93,0,0,1,.14-1,4.78,4.78,0,0,1,.93-1.75,4.62,4.62,0,0,1,1.62-1.15,4.25,4.25,0,0,1,1.86-.32,4.13,4.13,0,0,1,2.94,1.4,3.58,3.58,0,0,1,.68,1.08,4.14,4.14,0,0,1,.26.93A3.27,3.27,0,0,1,24.24,125.87ZM67,89.77l-.13-.8a6.25,6.25,0,0,0-.19-1c-.18-.68-.38-1.46-.61-2.34S65.4,83.88,65,82.88c-.23-.49-.48-1-.73-1.52-.13-.27-.25-.54-.39-.81l-.48-.78a27.28,27.28,0,0,0-5.22-6.47A28.36,28.36,0,0,0,50,68a27.59,27.59,0,0,0-31.31,7.2A27.45,27.45,0,0,0,13,85.56c-.12.48-.3.94-.39,1.42s-.19,1-.28,1.43a21.67,21.67,0,0,0-.37,2.84l-.08.7v.75c0,.5,0,1,0,1.49v.69l.08.71c.05.47.1.94.14,1.4a27.7,27.7,0,0,0,3.47,10.21,28.46,28.46,0,0,0,6.29,7.45A27.33,27.33,0,0,0,28.92,119l.84.38.85.28,1.6.53c1,.28,2,.48,2.91.69l2.39.3a7,7,0,0,0,1,.07l.82,0,1.5,0-1.5.09-.82,0a7.88,7.88,0,0,1-1,0l-2.45-.11c-.91-.15-1.92-.27-3-.48l-1.68-.43-.89-.24-.89-.33A26.78,26.78,0,0,1,21,115.75a28.51,28.51,0,0,1-11-18.45c-.07-.5-.13-1-.19-1.51L9.65,95v-.79c0-.5,0-1,0-1.5,0-.25,0-.49,0-.75l.05-.79A25.77,25.77,0,0,1,10,88c.1-.52.19-1,.29-1.56s.28-1,.42-1.55A28.84,28.84,0,0,1,27.22,66.07a29.07,29.07,0,0,1,12.17-2.34,28.55,28.55,0,0,1,19.75,8.55,27,27,0,0,1,5.07,7l.44.85c.13.28.23.57.35.85l.65,1.61c.34,1.06.6,2,.86,2.93s.3,1.71.43,2.41a7.34,7.34,0,0,1,.11,1c0,.3,0,.57.06.82.06,1,.1,1.49.1,1.49S67.13,90.74,67,89.77ZM28.36,49.06a4.48,4.48,0,0,0-.81-1.34,4.93,4.93,0,0,0-1.78-1.33,5.43,5.43,0,0,1,3.55,4.76c.2,3-2.43.15-5.43.35a10.28,10.28,0,0,0-3.74,1.36,5.35,5.35,0,0,1-.14-.8c0-.13,0-.29,0-.39a3,3,0,0,1,0-.46A4.07,4.07,0,0,1,22.36,48a4.15,4.15,0,0,1,1.61-.4,4.28,4.28,0,0,1,1.55.21,5,5,0,0,1,1.3.69,5.33,5.33,0,0,1,.92.92,6.19,6.19,0,0,1,.55.89c.11.28.21.5.25.66l.08.24s0-.09,0-.25a4.47,4.47,0,0,0,0-.74A4.94,4.94,0,0,0,28.36,49.06Zm0-2.21a6.53,6.53,0,0,0-1.93-1.24A6.71,6.71,0,0,0,24,45.12a6.3,6.3,0,0,0-2.65.55,6.47,6.47,0,0,0-3.57,4.06,5.72,5.72,0,0,0-.24,1.34,5.2,5.2,0,0,0,0,.69,5.06,5.06,0,0,0,.06.66,6.51,6.51,0,0,0,.81,2.39,6.22,6.22,0,0,0,1.47,1.75,6.76,6.76,0,0,0,1.67,1,7.27,7.27,0,0,0,.77.28L23,58a7.58,7.58,0,0,0,1,.09h.35l-.35,0a8.58,8.58,0,0,1-1,0L22.26,58a6.47,6.47,0,0,1-.82-.23,6.22,6.22,0,0,1-1.79-1A6.61,6.61,0,0,1,18,55a6.47,6.47,0,0,1-1-2.55c0-.24-.07-.47-.07-.72a5.76,5.76,0,0,1,0-.72,6.74,6.74,0,0,1,.25-1.48,6.67,6.67,0,0,1,3.89-4.43A7,7,0,0,1,24,44.58a6.77,6.77,0,0,1,4.65,2A6.54,6.54,0,0,1,30.16,49c.08.25.14.48.21.68a6.06,6.06,0,0,1,.13,1c0,.22,0,.35,0,.35l-.06-.35a6.66,6.66,0,0,0-.22-1c-.07-.2-.15-.43-.25-.66a5.68,5.68,0,0,0-.38-.73A6.62,6.62,0,0,0,28.4,46.85ZM17.51,58.07a9.61,9.61,0,0,0,2.56,1.64l.65-1.47a7.46,7.46,0,0,0,3.56.63,5.29,5.29,0,0,0,.8-.09l.26,1.54a9.33,9.33,0,0,0,2.11-.64,8.91,8.91,0,0,0,1.74-1l-.91-1.24a7.63,7.63,0,0,0,2.8-4l1.42.41c.08-.26.13-.53.19-.81a7.54,7.54,0,0,0,.13-.92,8,8,0,0,0,0-1,7.55,7.55,0,0,0-.07-.92,9.18,9.18,0,0,0-1.12-3.38,9.5,9.5,0,0,0-2.06-2.5,9.19,9.19,0,0,0-2.34-1.48,8.34,8.34,0,0,0-1.09-.42c-.35-.1-.68-.17-1-.24l-.8-.12a4.73,4.73,0,0,0-.6,0l-.5,0,.5,0a9.37,9.37,0,0,1,1.44,0l1,.15a11.11,11.11,0,0,1,1.18.32A8.85,8.85,0,0,1,30,43.77a9.67,9.67,0,0,1,3.81,6.28A7.17,7.17,0,0,1,34,51.11a9.22,9.22,0,0,1-.35,3.19,9.82,9.82,0,0,1-5.67,6.47A9.74,9.74,0,0,1,17,58.58a8.76,8.76,0,0,1-1.68-2.42A8.43,8.43,0,0,1,14.87,55c-.12-.36-.2-.7-.28-1a8,8,0,0,1-.18-1.42l0-.51.09.5A12.07,12.07,0,0,0,14.82,54c.11.28.22.6.36.93s.32.69.56,1A9.4,9.4,0,0,0,17.51,58.07ZM33.23,46.4a10.49,10.49,0,0,0-2-2.5,10.62,10.62,0,0,0-3.13-2A10.86,10.86,0,0,0,24.06,41a10.48,10.48,0,0,0-8,3.59,10.52,10.52,0,0,0-2.2,4,7,7,0,0,0-.26,1.1,8.42,8.42,0,0,0-.14,1.11,10.37,10.37,0,0,0,0,1.12c0,.36.07.73.09,1.09a10.81,10.81,0,0,0,1.36,3.92,10.38,10.38,0,0,0,2.44,2.85A10.75,10.75,0,0,0,20,61.42a11.22,11.22,0,0,0,1.26.44c.41.1.78.17,1.12.24l.91.11c.27,0,.5,0,.69,0h.57l-.57,0a10.73,10.73,0,0,1-1.62-.05L21.26,62a11.81,11.81,0,0,1-1.3-.4,9.79,9.79,0,0,1-2.87-1.58,10.9,10.9,0,0,1-2.61-2.88A10.46,10.46,0,0,1,13,53.08a8.62,8.62,0,0,1-.11-1.15,8.86,8.86,0,0,1,0-1.15A7.75,7.75,0,0,1,13,49.6a7.65,7.65,0,0,1,.27-1.17,10.72,10.72,0,0,1,6.2-7.06,11,11,0,0,1,4.57-.9,10.55,10.55,0,0,1,4.25,1,11,11,0,0,1,3.2,2.22,10.08,10.08,0,0,1,1.94,2.64A10.77,10.77,0,0,1,34,47.53c.14.4.24.78.35,1.11a12,12,0,0,1,.25,1.59l0,.57-.08-.56a5.75,5.75,0,0,0-.11-.67c-.07-.27-.14-.56-.22-.9S34,48,33.83,47.6A10.32,10.32,0,0,0,33.23,46.4Zm-.82-3.69a13,13,0,0,0-3.69-2.23,12.72,12.72,0,0,0-4.62-.85,12.43,12.43,0,0,0-4.9,1.08,12.1,12.1,0,0,0-4.12,3,11.9,11.9,0,0,0-2.49,4.47,13.94,13.94,0,0,0-.48,2.45l0,.29v1.31l0,.31.06.62a12.44,12.44,0,0,0,1.43,4.5,13,13,0,0,0,2.69,3.37,12.73,12.73,0,0,0,3.11,2.05,14,14,0,0,0,1.46.59c.47.15.91.26,1.3.37l1.08.19a7.8,7.8,0,0,0,.82.09l.69.06L24,64.5a10.9,10.9,0,0,1-2,.07c-.43,0-.9-.08-1.41-.16A11.44,11.44,0,0,1,19,64a12.15,12.15,0,0,1-3.64-1.82A13.33,13.33,0,0,1,10,53.51l-.1-.72-.05-.36,0-.4,0-.68V51l0-.39A13,13,0,0,1,10,49.07a11.16,11.16,0,0,1,.33-1.5,14.53,14.53,0,0,1,2.92-5.44,14.35,14.35,0,0,1,5-3.59,13.49,13.49,0,0,1,5.82-1.07,13.06,13.06,0,0,1,5.39,1.33,12.76,12.76,0,0,1,3.93,2.9,12.24,12.24,0,0,1,2.28,3.37,5.48,5.48,0,0,1,.34.8c.1.27.19.52.27.77.15.49.24,1,.35,1.37a12.27,12.27,0,0,1,.18,2v.69L36.67,50a6,6,0,0,0-.19-.8c-.09-.31-.2-.66-.32-1s-.33-.8-.54-1.24a13.17,13.17,0,0,0-.78-1.38A12.66,12.66,0,0,0,32.41,42.71Zm26.81,4.34a3,3,0,0,0-1.51-1,3.35,3.35,0,0,1,2.63,3.07c.13,1.86-1.5.1-3.36.22a5.93,5.93,0,0,0-2.22.79,2.33,2.33,0,0,1-.08-.46,1.76,1.76,0,0,1,0-.23,2.35,2.35,0,0,1,0-.28c0-.13.06-.3.11-.45a2.63,2.63,0,0,1,.49-.86,2.41,2.41,0,0,1,.79-.59A2.52,2.52,0,0,1,57,47a2.91,2.91,0,0,1,.92.12,3.18,3.18,0,0,1,.78.4,3.14,3.14,0,0,1,.9,1.08c.07.17.13.3.16.39l.05.15,0-.15a2.22,2.22,0,0,0,0-.45A2.72,2.72,0,0,0,59.22,47.05Zm-4.08,6.5a5.21,5.21,0,0,0,1.76.3,4.9,4.9,0,0,0,1.85-.42,4.52,4.52,0,0,0,1.55-1.15,4.58,4.58,0,0,0,1-1.69,5.33,5.33,0,0,0,.18-.92,2.75,2.75,0,0,0,0-.51,3.54,3.54,0,0,0,0-.45A4.67,4.67,0,0,0,60.9,47a5.06,5.06,0,0,0-2.18-2.11,6.89,6.89,0,0,0-1.06-.4,4.79,4.79,0,0,0-.74-.12l-.26,0,.26,0a4.73,4.73,0,0,1,.77,0,5.63,5.63,0,0,1,1.2.2,4.88,4.88,0,0,1,1.44.7,5.08,5.08,0,0,1,1.35,1.38,5.23,5.23,0,0,1,.82,2c0,.2.06.37.07.6a5,5,0,0,1,0,.55,4.93,4.93,0,0,1-.18,1.22,5.4,5.4,0,0,1-3.16,3.6,5.46,5.46,0,0,1-2.32.41,5.2,5.2,0,0,1-3.68-1.71,4.63,4.63,0,0,1-.87-1.34A4.22,4.22,0,0,1,52,50v-.27l.07.26a6.35,6.35,0,0,0,.22.71,4.66,4.66,0,0,0,.53,1,4.91,4.91,0,0,0,.95,1.07A5.2,5.2,0,0,0,55.14,53.55Zm2.27-21.07c-4.32.33-10.48.85-17.88,1.38s-16,1.21-25.29,1.83l-7,.47-1.79.12a4.24,4.24,0,0,0-.8.1,2.44,2.44,0,0,0-.69.28A2.58,2.58,0,0,0,2.66,39.2c.32,4.85.66,9.79,1,14.72.61,9.88,1.22,19.75,1.79,29s1,17.9,1.45,25.31.71,13.59.94,17.91.32,6.79.32,6.79-.21-2.46-.56-6.78-.85-10.47-1.38-17.87S5,92.25,4.38,83s-1.29-19.13-2-29c-.3-4.93-.61-9.87-.91-14.73v-.48a3.43,3.43,0,0,1,.06-.57,3.65,3.65,0,0,1,.34-1,3.71,3.71,0,0,1,1.46-1.53,3.46,3.46,0,0,1,1-.39,5.52,5.52,0,0,1,1-.12l1.79-.11,7.05-.44c9.26-.58,17.91-1,25.31-1.45s13.59-.7,17.91-.93l6.8-.32ZM21.62,30.2a1.45,1.45,0,0,1,.23-.59,1.87,1.87,0,0,1,.51-.5,2.65,2.65,0,0,1,.65-.33,6,6,0,0,1,.69-.2,9.68,9.68,0,0,1,2.56-.14,7.26,7.26,0,0,1,1.15.15s-.45.12-1.13.24L25.13,29c-.41.07-.86.13-1.28.23-.21.05-.43.09-.62.15a3.11,3.11,0,0,0-.56.22,1.45,1.45,0,0,0-.41.3,1.25,1.25,0,0,0-.27.39,3.37,3.37,0,0,0-.22.76c0,.2-.06.32-.06.32s0-.12-.07-.31A2.07,2.07,0,0,1,21.62,30.2Zm17-1.1a1.47,1.47,0,0,1,.24-.59,1.53,1.53,0,0,1,.51-.5,2.34,2.34,0,0,1,.65-.33,6,6,0,0,1,.69-.2,9.68,9.68,0,0,1,2.56-.14,7.26,7.26,0,0,1,1.15.15s-.45.12-1.13.24l-1.15.19c-.42.07-.86.13-1.29.22a6.25,6.25,0,0,0-.62.16,2.74,2.74,0,0,0-.55.22,1.67,1.67,0,0,0-.42.3,1.4,1.4,0,0,0-.26.39,2.81,2.81,0,0,0-.22.76c0,.2-.06.32-.06.32L38.67,30A2.4,2.4,0,0,1,38.65,29.1Zm17-1.11a1.31,1.31,0,0,1,.24-.58,1.73,1.73,0,0,1,.5-.51,2.8,2.8,0,0,1,.65-.32c.23-.09.46-.14.7-.21a10,10,0,0,1,2.55-.14,9.07,9.07,0,0,1,1.16.15s-.46.13-1.14.25l-1.14.18c-.42.07-.86.14-1.29.23a5.61,5.61,0,0,0-.62.16,2.74,2.74,0,0,0-.55.22,1.33,1.33,0,0,0-.42.3,1.14,1.14,0,0,0-.27.39,3.23,3.23,0,0,0-.22.76c0,.2-.05.31-.05.31a2.35,2.35,0,0,1-.08-.31A2.23,2.23,0,0,1,55.69,28Zm9.59,1.71-1.14.07L64,27.82a2.39,2.39,0,0,0-2.53-2.22l-4.05.27a2.37,2.37,0,0,0-2.22,2.52l.13,1.95-8.24.53L47,28.92a2.36,2.36,0,0,0-2.52-2.21L40.41,27a2.37,2.37,0,0,0-2.22,2.52l.12,2L30.07,32,29.94,30a2.37,2.37,0,0,0-2.52-2.22l-4.05.26a2.39,2.39,0,0,0-2.22,2.53l.13,1.95-8.19.53L12.38,22,217.72,8.72l.71,11.07-6.23.4,0-.46a3.18,3.18,0,0,0-3.38-3l-9.46.61a3.19,3.19,0,0,0-3,3.39l0,.45-30.13,1.95h0L142.58,24.7l-.1-1.54a.89.89,0,0,0-.94-.83l-7.24.47a.87.87,0,0,0-.82.94l.1,1.54-2.15.14-.1-1.54a.9.9,0,0,0-1-.83l-7.24.47a.88.88,0,0,0-.82.94l.1,1.54-2.15.14-.1-1.54a.89.89,0,0,0-.94-.83l-7.24.47a.89.89,0,0,0-.83.94l.1,1.54-2.15.14-.1-1.54a.87.87,0,0,0-.94-.82l-7.24.46a.9.9,0,0,0-.83.95l.1,1.54L98,27.58,97.85,26a.88.88,0,0,0-.94-.82l-7.24.47a.89.89,0,0,0-.83.94l.1,1.54L65.28,29.7ZM206.86,18.09s-.67.18-1.69.34-2.37.31-3.72.43c-.33,0-.67,0-1,.08s-.65,0-1,.09a5.06,5.06,0,0,0-1.56.36.91.91,0,0,0-.41.39,1.48,1.48,0,0,0-.17.47c-.06.29-.08.46-.08.46l0-.12a2.64,2.64,0,0,1-.07-.35,1.66,1.66,0,0,1,0-.58,1.23,1.23,0,0,1,.43-.69,2.8,2.8,0,0,1,.81-.46,6.55,6.55,0,0,1,.92-.27,18.89,18.89,0,0,1,2-.3l1-.06c.34,0,.67,0,1,0,.64,0,1.24,0,1.76,0C206.17,18,206.86,18.09,206.86,18.09ZM164.07,128.47c-2.48.22-6,.57-10.28.92s-9.21.76-14.54,1.15l-8.2.59-8.48.57-8.47.53-8.21.47c-5.33.3-10.31.55-14.57.73s-7.83.31-10.31.41l-3.92.12,3.9-.38c2.48-.22,6-.57,10.28-.93s9.22-.75,14.54-1.15l8.2-.59,8.48-.57,8.47-.52,8.22-.48c5.32-.29,10.3-.54,14.56-.73s7.83-.3,10.32-.41l3.91-.12Zm-.35-5.46c-2.48.22-6,.57-10.28.93s-9.22.75-14.54,1.15l-8.2.58-8.48.58-8.47.52-8.22.47c-5.33.3-10.3.55-14.57.74s-7.82.3-10.31.4l-3.91.13,3.9-.39c2.48-.22,6-.57,10.27-.92s9.22-.76,14.54-1.15l8.21-.59,8.47-.58,8.48-.52,8.21-.47c5.33-.3,10.31-.55,14.57-.74s7.82-.3,10.31-.4l3.92-.12Zm3.77-2.29L76.62,126.6,73.69,81.44l90.88-5.88Zm-7-48c-2.48.22-6,.57-10.28.92s-9.22.76-14.54,1.15l-8.21.59L119,76l-8.48.53-8.21.47c-5.33.3-10.3.55-14.57.73s-7.82.31-10.31.41l-3.91.12,3.89-.38c2.48-.22,6-.57,10.28-.92s9.22-.76,14.54-1.16l8.21-.59,8.47-.57,8.48-.52,8.21-.48c5.33-.29,10.3-.54,14.57-.73s7.82-.3,10.31-.41l3.91-.12Zm1.06-44.21,2.63,40.63L73.28,75.05,70.65,34.42a5.05,5.05,0,0,0-.38-1.62l91.43-5.92A5.07,5.07,0,0,0,161.53,28.54Zm67.57,95.71c-1.54.15-3.74.4-6.38.64s-5.72.52-9,.78c-1.65.12-3.36.27-5.1.38l-5.26.36-5.27.32L193,127c-3.31.17-6.41.3-9.06.39s-4.86.14-6.41.19-2.43,0-2.43,0,.88-.11,2.42-.27,3.73-.41,6.38-.65,5.72-.51,9-.77l5.09-.38,5.27-.37,5.27-.32c1.73-.11,3.45-.18,5.1-.27,3.31-.18,6.4-.31,9.06-.4s4.86-.13,6.41-.18,2.43,0,2.43,0Zm-4.19-13.06a3,3,0,0,0-.65-.44,2.59,2.59,0,0,0-.58-.21l-.41-.07h-.14l.14,0,.42,0a2.79,2.79,0,0,1,1.43.5,2.85,2.85,0,0,1,1.17,1.85,3.11,3.11,0,0,1,0,.32,3,3,0,0,1,0,.3,2.84,2.84,0,0,1-.1.66,3.17,3.17,0,0,1-.63,1.17,3.08,3.08,0,0,1-1.08.78,2.9,2.9,0,0,1-1.25.22,2.84,2.84,0,0,1-2-.92,2.8,2.8,0,0,1-.68-1.35c0-.18,0-.33,0-.42v-.15l0,.14c0,.1.07.23.12.39a3.24,3.24,0,0,0,.28.56,3.1,3.1,0,0,0,.53.58,2.61,2.61,0,0,0,1.74.63,2.53,2.53,0,0,0,1-.23,2.43,2.43,0,0,0,.86-.63,2.49,2.49,0,0,0,.52-.94,3,3,0,0,0,.1-.5,1.29,1.29,0,0,0,0-.28,2.18,2.18,0,0,0,0-.25A2.69,2.69,0,0,0,224.91,111.19Zm.89-.56a3.79,3.79,0,0,0-1.1-.62,3.61,3.61,0,0,0-2.73.12,3.45,3.45,0,0,0-1.17.87,3.4,3.4,0,0,0-.71,1.27,3.73,3.73,0,0,0-.15.69c0,.09,0,.26,0,.39a2.06,2.06,0,0,0,0,.34,3.56,3.56,0,0,0,.38,1.31,3.75,3.75,0,0,0,.75,1,3.89,3.89,0,0,0,.89.64,4.25,4.25,0,0,0,.82.33,3.92,3.92,0,0,0,.57.12l.21,0-.21,0a3.48,3.48,0,0,1-.6.06,4.19,4.19,0,0,1-1-.14,3.94,3.94,0,0,1-1.16-.53,4.16,4.16,0,0,1-1.76-2.72,3.31,3.31,0,0,1-.06-.48c0-.15,0-.26,0-.44a3.59,3.59,0,0,1,.15-1,4.5,4.5,0,0,1,.93-1.75,4.67,4.67,0,0,1,1.61-1.15,4.27,4.27,0,0,1,1.87-.32,4.13,4.13,0,0,1,2.94,1.4,3.66,3.66,0,0,1,.67,1.08,3.39,3.39,0,0,1,.26.93,2.65,2.65,0,0,1,0,.61V113l-.05-.2c0-.14-.11-.32-.19-.56a4.85,4.85,0,0,0-.44-.76A3.78,3.78,0,0,0,225.8,110.63ZM192.11,83.22v-1l0-.21a6.75,6.75,0,0,1,.13-.83,7,7,0,0,1,.23-.87A8.64,8.64,0,0,1,197.18,75a6.1,6.1,0,0,1,.84-.33,6.36,6.36,0,0,1,.85-.25c.29-.09.59-.1.88-.16l.11,0h.29l.51,0a9,9,0,0,1,3.3.51,9.55,9.55,0,0,1,2.74,1.52,9.94,9.94,0,0,1,1.88,2c.26.32.42.68.63,1s.31.63.45.91.2.55.29.78a6.07,6.07,0,0,1,.18.59l.15.5,0-.52a8.5,8.5,0,0,0-.06-1.51c-.06-.32-.12-.68-.21-1.07a9.69,9.69,0,0,0-.43-1.24A9.28,9.28,0,0,0,207.93,75a10.06,10.06,0,0,0-2.09-1.81,10.84,10.84,0,0,1,5.52,8.77c.39,6-4.87.16-10.87.55-3.27.21-6.08,2.22-8,3a8.46,8.46,0,0,1-.32-1.68l0-.44Zm18.41-10.94a14.81,14.81,0,0,0-4.28-2.76,14.34,14.34,0,0,0-19.36,9.17,9.88,9.88,0,0,0-.35,1.5,10.94,10.94,0,0,0-.2,1.48l0,.37v1.53l0,.37.08.74A14.39,14.39,0,0,0,188.24,90a14.88,14.88,0,0,0,3.29,3.89,14.43,14.43,0,0,0,3.71,2.27l.44.2.44.14.84.28c.55.14,1.06.24,1.52.35l1.25.16a8.3,8.3,0,0,0,.94,0l.78,0-.78,0c-.26,0-.57,0-.94,0l-1.28-.06c-.47-.08-1-.15-1.57-.26L196,96.9l-.46-.12-.47-.18a13.78,13.78,0,0,1-4-2.14,14.86,14.86,0,0,1-5.74-9.63c0-.26-.07-.53-.1-.79l-.05-.4v-.41l0-.78a5.55,5.55,0,0,1,0-.81,14.3,14.3,0,0,1,.55-3.28,15,15,0,0,1,8.63-9.81,15.08,15.08,0,0,1,6.34-1.23A14.91,14.91,0,0,1,211,71.78a13.62,13.62,0,0,1,2.64,3.67c.08.14.15.29.23.44l.18.44.34.84c.18.55.32,1.07.46,1.52s.16.9.23,1.26.06.69.09.94l.05.78s0-.27-.12-.77c-.05-.25-.07-.56-.17-.92s-.19-.76-.31-1.22-.33-.94-.55-1.47l-.38-.79-.2-.42-.25-.41A14.58,14.58,0,0,0,210.52,72.28ZM186.46,97.11a20.29,20.29,0,0,0,5.9,3.88l1.5-3.39A16.38,16.38,0,0,0,201.55,99c.58,0,1.15-.11,1.72-.2l.6,3.54a20,20,0,0,0,4.59-1.39,19.84,19.84,0,0,0,3.83-2.23l-2.1-2.87a16.45,16.45,0,0,0,6-8.6l3.43,1a.43.43,0,0,1,0,0,9.6,9.6,0,0,0,.29-1l.21-1.05a15.39,15.39,0,0,0,.26-2.11l.05-.52V82.9c0-.36,0-.73,0-1.09V81.3l-.06-.52c0-.34-.07-.69-.11-1a20.56,20.56,0,0,0-2.58-7.49,20.2,20.2,0,0,0-4.65-5.42,20,20,0,0,0-5.21-3.13l-.62-.27-.62-.2-1.17-.37c-.77-.2-1.48-.33-2.13-.47l-1.74-.2a12.77,12.77,0,0,0-1.3-.05l-1.09,0,1.09,0a10.42,10.42,0,0,1,1.3,0l1.78.11c.65.11,1.38.21,2.17.37l1.21.33c.21.06.43.11.64.18l.64.24a19.28,19.28,0,0,1,5.47,3,20.93,20.93,0,0,1,5,5.5,20.12,20.12,0,0,1,2.87,7.8c.05.36.09.72.13,1.09l.07.54c0,.24,0,.38,0,.57,0,.36,0,.72,0,1.08v.55l0,.56a17.14,17.14,0,0,1-.26,2.27l-.21,1.12c-.07.37-.2.73-.3,1.1A20.54,20.54,0,0,1,208.91,102a20.94,20.94,0,0,1-8.72,1.71,20,20,0,0,1-8.12-1.84A21,21,0,0,1,186,97.6a19,19,0,0,1-3.7-5L182,92c-.09-.21-.17-.41-.26-.61-.16-.4-.32-.79-.48-1.16-.26-.76-.45-1.48-.65-2.11s-.24-1.23-.34-1.74-.09-1-.14-1.3C180,84.33,180,84,180,84s.06.38.16,1.08a10.13,10.13,0,0,0,.22,1.28q.18.75.42,1.71c.22.62.44,1.31.73,2l.53,1.11c.09.19.18.39.28.59s.23.38.34.58A20.49,20.49,0,0,0,186.46,97.11ZM224.71,76c-.28-.76-.55-1.61-.9-2.52-.2-.44-.42-.9-.64-1.37-.11-.24-.21-.49-.34-.73l-.42-.71a24.64,24.64,0,0,0-4.62-5.88A25,25,0,0,0,210.44,60a25.26,25.26,0,0,0-9.55-2,24.71,24.71,0,0,0-10.22,2.08,24.81,24.81,0,0,0-13.83,15.74c-.12.43-.28.85-.36,1.29s-.17.87-.25,1.31a19,19,0,0,0-.32,2.6l-.07.64c0,.22,0,.45,0,.67,0,.44,0,.89,0,1.33,0,.21,0,.47,0,.63l.07.64.15,1.28a24.78,24.78,0,0,0,8.94,15.9,24.72,24.72,0,0,0,6.43,3.82l.76.33.76.24,1.45.46c.94.23,1.83.39,2.62.56l2.14.23c.62.08,1.17,0,1.6.06h1.33l-1.33,0c-.43,0-1,.07-1.6,0l-2.18-.15c-.8-.14-1.7-.27-2.66-.47l-1.48-.4c-.26-.08-.52-.14-.79-.23s-.52-.19-.78-.3a23.54,23.54,0,0,1-6.69-3.71,25.7,25.7,0,0,1-6.08-6.74A25,25,0,0,1,175,86.33c0-.44-.1-.88-.16-1.33l-.07-.67c0-.27,0-.45,0-.69l0-1.33c0-.22,0-.44,0-.67l.05-.69a21.4,21.4,0,0,1,.32-2.76c.09-.45.17-.91.26-1.36s.24-.9.36-1.35A25.21,25.21,0,0,1,190.22,59a25.63,25.63,0,0,1,10.65-2.1,24.79,24.79,0,0,1,9.92,2.23,25.47,25.47,0,0,1,7.47,5.16,23.55,23.55,0,0,1,4.55,6.15l.4.74c.12.25.21.51.32.75l.59,1.42c.33.93.57,1.8.81,2.58s.3,1.51.43,2.14.12,1.16.18,1.59c.08.87.12,1.33.12,1.33l-.19-1.32a14.24,14.24,0,0,0-.26-1.58C225.07,77.49,224.9,76.79,224.71,76Zm-14.34,46.81c2.31-.14,4.47-.22,6.32-.31s3.39-.13,4.47-.18l1.7,0-1.69.17c-1.08.1-2.61.26-4.46.4s-4,.35-6.31.51l-7.24.5-7.24.43c-2.31.14-4.47.22-6.32.32s-3.39.13-4.47.17l-1.7,0,1.69-.17c1.08-.09,2.61-.25,4.46-.4s4-.34,6.31-.5l7.23-.51Zm-27-8.93a2.62,2.62,0,0,0-.65-.45,3.79,3.79,0,0,0-.58-.21,3,3,0,0,0-.4-.06h-.15l.15,0a1.6,1.6,0,0,1,.41,0,2.7,2.7,0,0,1,1.44.49,2.82,2.82,0,0,1,1.16,1.86,1.47,1.47,0,0,1,0,.32,1.5,1.5,0,0,1,0,.3,2,2,0,0,1-.1.65,2.91,2.91,0,0,1-1.71,2,2.92,2.92,0,0,1-1.25.23,2.84,2.84,0,0,1-2-.92,2.79,2.79,0,0,1-.67-1.36,2.61,2.61,0,0,1,0-.42v-.14l0,.14a3.18,3.18,0,0,0,.11.39,3,3,0,0,0,.29.55,2.53,2.53,0,0,0,.52.58,2.69,2.69,0,0,0,1.74.64,2.81,2.81,0,0,0,1-.23,2.54,2.54,0,0,0,.85-.64,2.45,2.45,0,0,0,.52-.93,1.92,1.92,0,0,0,.1-.51,2.3,2.3,0,0,0,0-.28c0-.07,0-.17,0-.25A2.64,2.64,0,0,0,183.41,113.88Zm2.35,1.54v.21l-.06-.2c0-.13-.11-.32-.19-.55a4.9,4.9,0,0,0-.44-.77,4,4,0,0,0-.75-.8,3.9,3.9,0,0,0-1.1-.61,3.74,3.74,0,0,0-1.33-.21,3.57,3.57,0,0,0-2.58,1.2,3.47,3.47,0,0,0-.71,1.27,4.77,4.77,0,0,0-.15.69c0,.09,0,.26,0,.39s0,.23,0,.34a3.76,3.76,0,0,0,.38,1.31,4.35,4.35,0,0,0,.75,1,4,4,0,0,0,.9.65,4,4,0,0,0,.81.33c.24,0,.44.11.57.12l.21,0-.21,0a2.7,2.7,0,0,1-.6.06,3.63,3.63,0,0,1-.95-.14,3.51,3.51,0,0,1-1.16-.53,4.08,4.08,0,0,1-1.77-2.72c0-.16-.05-.29-.06-.48s0-.25,0-.44a3.52,3.52,0,0,1,.15-1,4.7,4.7,0,0,1,.93-1.75,4.49,4.49,0,0,1,1.62-1.15,4.27,4.27,0,0,1,1.86-.33,4.2,4.2,0,0,1,2.94,1.4,4,4,0,0,1,.68,1.09,3.66,3.66,0,0,1,.25.92A3.61,3.61,0,0,1,185.76,115.42Zm42.73-36.1-.13-.8a7.73,7.73,0,0,0-.19-1c-.18-.68-.39-1.46-.62-2.34s-.64-1.79-1.05-2.79l-.74-1.53c-.12-.26-.24-.53-.39-.8l-.47-.79a27.49,27.49,0,0,0-5.23-6.47,28.5,28.5,0,0,0-8.19-5.27,27.43,27.43,0,0,0-37,17.54,13.52,13.52,0,0,0-.39,1.42c-.1.48-.19,1-.28,1.43a21.71,21.71,0,0,0-.38,2.84l-.07.7c0,.25,0,.5,0,.75v2.18l.07.7.15,1.41a27.76,27.76,0,0,0,3.47,10.21,28.27,28.27,0,0,0,6.29,7.45,27.16,27.16,0,0,0,7.09,4.34l.84.38.85.28,1.6.53c1.05.28,2,.48,2.91.68l2.39.31a7,7,0,0,0,1,.07l.81,0,1.5,0-1.49.09-.82,0a7.9,7.9,0,0,1-1,0l-2.46-.11c-.9-.15-1.92-.27-3-.48l-1.68-.44c-.29-.07-.59-.14-.89-.23l-.89-.33a26.82,26.82,0,0,1-7.63-4.12,28.62,28.62,0,0,1-11-18.45c-.06-.5-.12-1-.19-1.51l-.09-.77v-.8l0-1.49c0-.25,0-.49,0-.75l.06-.79a24,24,0,0,1,.35-3.18c.09-.52.19-1,.29-1.57s.28-1,.41-1.54a28.89,28.89,0,0,1,16.54-18.83,29.07,29.07,0,0,1,12.17-2.34,28.55,28.55,0,0,1,19.75,8.55,26.76,26.76,0,0,1,5.06,7l.44.85c.13.28.24.57.36.85.22.55.44,1.09.64,1.61.35,1,.61,2,.86,2.92s.31,1.72.43,2.42a6,6,0,0,1,.11,1c0,.3.05.57.06.82l.11,1.49S228.65,80.29,228.49,79.32ZM189.87,38.61a4.32,4.32,0,0,0-.8-1.34,4.93,4.93,0,0,0-1.78-1.33,5.43,5.43,0,0,1,3.55,4.75c.2,3-2.43.16-5.43.36a10.14,10.14,0,0,0-3.74,1.36,4.32,4.32,0,0,1-.14-.8,2.63,2.63,0,0,1,0-.39,3.17,3.17,0,0,1,0-.46,5.09,5.09,0,0,1,.18-.78,4.1,4.1,0,0,1,.82-1.45,4,4,0,0,1,1.34-1,4.14,4.14,0,0,1,1.61-.39,4.25,4.25,0,0,1,1.54.21,4.73,4.73,0,0,1,1.3.69,4.45,4.45,0,0,1,.92.92,4.8,4.8,0,0,1,.55.89,5,5,0,0,1,.25.66l.09.24,0-.26a4.33,4.33,0,0,0,0-.73A4.54,4.54,0,0,0,189.87,38.61Zm0-2.21A6.36,6.36,0,0,0,188,35.16a6.77,6.77,0,0,0-2.48-.49,6.4,6.4,0,0,0-2.64.54,6.68,6.68,0,0,0-2.23,1.65,6.42,6.42,0,0,0-1.34,2.42,6.32,6.32,0,0,0-.25,1.34,5.24,5.24,0,0,0,0,.69c0,.21,0,.44.05.65a6.88,6.88,0,0,0,.81,2.4,6.42,6.42,0,0,0,1.48,1.75,7,7,0,0,0,1.66,1c.27.13.54.19.78.28l.68.16a7.46,7.46,0,0,0,1,.09h.36l-.35,0a5.74,5.74,0,0,1-1,0c-.21,0-.45-.06-.7-.11a8,8,0,0,1-.82-.23,6,6,0,0,1-1.79-1,6.81,6.81,0,0,1-1.65-1.79,6.46,6.46,0,0,1-1-2.55,4.28,4.28,0,0,1-.07-.72,5.76,5.76,0,0,1,0-.72,6.2,6.2,0,0,1,.25-1.48,6.67,6.67,0,0,1,3.89-4.43,6.91,6.91,0,0,1,2.86-.56,6.73,6.73,0,0,1,4.65,2,6.2,6.2,0,0,1,1.19,1.66,8.41,8.41,0,0,1,.34.78c.08.24.14.48.2.68a5.33,5.33,0,0,1,.14,1l0,.36-.06-.35a8.38,8.38,0,0,0-.22-1c-.08-.2-.15-.43-.25-.66a5.68,5.68,0,0,0-.38-.73A6.68,6.68,0,0,0,189.91,36.4ZM179,47.62a9.45,9.45,0,0,0,2.56,1.64l.65-1.47a7.56,7.56,0,0,0,3.56.63,6.82,6.82,0,0,0,.79-.09l.27,1.54a10.23,10.23,0,0,0,2.11-.64,8.76,8.76,0,0,0,1.74-1L189.8,47a7.61,7.61,0,0,0,2.79-4l1.43.41a7.3,7.3,0,0,0,.18-.81,6,6,0,0,0,.13-.92,8,8,0,0,0,0-1,7.55,7.55,0,0,0-.07-.92,9.18,9.18,0,0,0-1.12-3.38,9.5,9.5,0,0,0-2.06-2.5,9.19,9.19,0,0,0-2.34-1.48,8.45,8.45,0,0,0-1.1-.42c-.35-.1-.67-.17-1-.24l-.8-.12a4.73,4.73,0,0,0-.6,0l-.51,0,.51,0a9.24,9.24,0,0,1,1.43,0c.31.05.65.08,1,.15a10,10,0,0,1,1.18.32,8.9,8.9,0,0,1,2.62,1.36,9.71,9.71,0,0,1,3.81,6.28,8.62,8.62,0,0,1,.11,1.06,7.08,7.08,0,0,1,0,1,8.7,8.7,0,0,1-.35,2.16,9.8,9.8,0,0,1-5.68,6.47,9.93,9.93,0,0,1-4.17.78,9.54,9.54,0,0,1-3.87-.92,9.36,9.36,0,0,1-2.86-2,8.81,8.81,0,0,1-1.69-2.42c-.21-.38-.32-.78-.47-1.12s-.19-.7-.28-1a8.76,8.76,0,0,1-.17-1.43l0-.5.09.5a12.61,12.61,0,0,0,.34,1.37c.11.28.23.6.37.93a8.69,8.69,0,0,0,.55,1A9.78,9.78,0,0,0,179,47.62ZM194.75,36a10.74,10.74,0,0,0-2-2.5,10.62,10.62,0,0,0-3.13-2.05,10.91,10.91,0,0,0-4.07-.84,10.57,10.57,0,0,0-10.22,7.58,9.74,9.74,0,0,0-.39,2.21,6.94,6.94,0,0,0,0,1.12,7.74,7.74,0,0,0,.09,1.08,10.66,10.66,0,0,0,3.79,6.78A10.8,10.8,0,0,0,181.56,51a11.22,11.22,0,0,0,1.26.44c.4.1.78.17,1.12.24l.91.1a5.88,5.88,0,0,0,.68,0h.57l-.57,0a9.21,9.21,0,0,1-1.61,0c-.34-.06-.73-.11-1.14-.2a10,10,0,0,1-1.31-.39,9.87,9.87,0,0,1-2.86-1.58A10.88,10.88,0,0,1,176,46.72a10.63,10.63,0,0,1-1.51-4.09c0-.38-.11-.75-.11-1.15a11.08,11.08,0,0,1,0-1.15,9.43,9.43,0,0,1,.14-1.19,9.25,9.25,0,0,1,.26-1.16A10.75,10.75,0,0,1,181,30.91a11.14,11.14,0,0,1,4.57-.89,10.55,10.55,0,0,1,4.25,1A11.17,11.17,0,0,1,193,33.2,10,10,0,0,1,195,35.84a10.93,10.93,0,0,1,.56,1.24c.14.4.24.77.34,1.11a9.37,9.37,0,0,1,.25,1.59c0,.37.05.57.05.57l-.08-.56c0-.19,0-.42-.11-.68s-.14-.56-.23-.89-.23-.69-.38-1.07A12.19,12.19,0,0,0,194.75,36Zm-.82-3.69A13.27,13.27,0,0,0,190.24,30a12.71,12.71,0,0,0-4.62-.84,12.48,12.48,0,0,0-4.91,1.08,12.13,12.13,0,0,0-4.11,3,11.88,11.88,0,0,0-2.49,4.48,8.62,8.62,0,0,0-.3,1.24,10.73,10.73,0,0,0-.18,1.21l0,.29v1.31l0,.31,0,.61a12.7,12.7,0,0,0,1.44,4.51,13,13,0,0,0,2.69,3.37,12.87,12.87,0,0,0,3.1,2,14.09,14.09,0,0,0,1.47.59c.46.15.9.26,1.3.37l1.08.19a7.53,7.53,0,0,0,.82.09l.68.06-.68.07a11,11,0,0,1-2,.07c-.42,0-.89-.08-1.41-.16a13.4,13.4,0,0,1-1.63-.41,12.11,12.11,0,0,1-3.63-1.82,13.29,13.29,0,0,1-5.39-8.67l-.1-.72-.05-.36,0-.4,0-.68v-.35l0-.39a10.86,10.86,0,0,1,.15-1.54,9.55,9.55,0,0,1,.33-1.5,13.62,13.62,0,0,1,7.94-9A13.49,13.49,0,0,1,185.59,27,13.22,13.22,0,0,1,191,28.34a13.07,13.07,0,0,1,3.93,2.91,12.24,12.24,0,0,1,2.28,3.37,6.85,6.85,0,0,1,.34.8l.27.76c.14.5.24,1,.34,1.38a12.43,12.43,0,0,1,.19,2v.69l-.15-.67c-.06-.22-.09-.49-.19-.8s-.2-.66-.33-1.05-.33-.8-.53-1.25-.45-.91-.78-1.37A12.7,12.7,0,0,0,193.93,32.26Zm26.81,4.34a3,3,0,0,0-1.51-1,3.37,3.37,0,0,1,2.63,3.07c.12,1.85-1.5.09-3.36.21a6,6,0,0,0-2.22.8,2.33,2.33,0,0,1-.08-.46,2,2,0,0,1,0-.23,2.16,2.16,0,0,1,0-.28,3.35,3.35,0,0,1,.11-.46,2.42,2.42,0,0,1,.49-.85,2.48,2.48,0,0,1,.78-.59,2.4,2.4,0,0,1,1-.25,2.81,2.81,0,0,1,.91.12,2.86,2.86,0,0,1,1.68,1.48c.07.16.14.3.17.39l.05.15v-.16a2,2,0,0,0,0-.44A2.8,2.8,0,0,0,220.74,36.6Zm-4.08,6.5a5.11,5.11,0,0,0,1.75.3,4.9,4.9,0,0,0,1.86-.42,4.64,4.64,0,0,0,1.55-1.16,4.44,4.44,0,0,0,.94-1.68,4.57,4.57,0,0,0,.19-.92,4,4,0,0,0,0-.51,3.64,3.64,0,0,0,0-.45,4.86,4.86,0,0,0-.52-1.72,5.13,5.13,0,0,0-1-1.3,4.53,4.53,0,0,0-1.18-.81,5.46,5.46,0,0,0-1.06-.4,4.52,4.52,0,0,0-.73-.12l-.27,0,.27,0a4.73,4.73,0,0,1,.77-.05,5.46,5.46,0,0,1,1.19.2,4.93,4.93,0,0,1,1.45.7A5.25,5.25,0,0,1,224,38.1a3.66,3.66,0,0,1,.07.6,4.86,4.86,0,0,1,0,.55,4.93,4.93,0,0,1-.19,1.22,5.74,5.74,0,0,1-1.16,2.16,5.66,5.66,0,0,1-2,1.43,5.28,5.28,0,0,1-2.31.42,5.22,5.22,0,0,1-3.68-1.71,4.9,4.9,0,0,1-.88-1.34,4.77,4.77,0,0,1-.35-1.16,3.92,3.92,0,0,1-.05-.77v-.27l.06.26a6.85,6.85,0,0,0,.23.71,4.91,4.91,0,0,0,.53,1,4.65,4.65,0,0,0,1,1.06A5,5,0,0,0,216.66,43.1ZM218.92,22c-4.31.33-10.47.85-17.87,1.38s-16,1.21-25.29,1.82l-7,.48-1.79.12a4.36,4.36,0,0,0-.8.1,2.36,2.36,0,0,0-.68.27,2.62,2.62,0,0,0-1.27,2.54c.33,4.86.66,9.8,1,14.73.61,9.88,1.22,19.75,1.79,29s1,17.9,1.45,25.31.7,13.59.93,17.91.32,6.79.32,6.79l-.55-6.78c-.33-4.31-.85-10.48-1.39-17.88s-1.2-16-1.82-25.28-1.29-19.13-2-29c-.3-4.93-.61-9.87-.91-14.73v-.49a5,5,0,0,1,.07-.56,3.65,3.65,0,0,1,.34-1,3.69,3.69,0,0,1,1.45-1.53,3.65,3.65,0,0,1,1-.39,4.67,4.67,0,0,1,1-.12l1.79-.11,7.05-.44c9.26-.58,17.9-1,25.31-1.45s13.59-.7,17.91-.93l6.79-.32Z"/><path class="cls-3" d="M44.45,16c9.59-.57,20.79-1.17,32.79-1.92l37.58-2.34,37.56-2.52c12-.8,23.18-1.65,32.77-2.33s17.57-1.33,23.16-1.75l8.79-.7-8.8.44c-5.6.31-13.61.69-23.2,1.25s-20.8,1.16-32.79,1.91l-37.58,2.34L77.16,12.94c-12,.81-23.17,1.66-32.76,2.33S26.82,16.61,21.23,17l-8.79.7,8.81-.43C26.85,17,34.85,16.6,44.45,16Z"/><path class="cls-3" d="M160,27.92,72.77,33.57l.79,12.16,87.22-5.65Zm-.67,10.89-84.5,5.46-.61-9.43,84.5-5.47Z"/><path class="cls-3" d="M160.92,42.12,73.69,47.77,75.3,72.68,162.53,67Zm.16,23.64-84.5,5.47L75.14,49l84.5-5.46Z"/><path class="cls-3" d="M151.89,80.62l-65,4.2,1.9,29.39,65-4.2Zm-56.35,21c-.11-.37-.19-.7-.27-1a9,9,0,0,1-.17-1.44l0-.5.09.49a12.62,12.62,0,0,0,.35,1.38c.12.28.23.6.37.93a9,9,0,0,0,.57,1,9.46,9.46,0,0,0,1.78,2.12,9.88,9.88,0,0,0,2.74,1.71,9.27,9.27,0,0,0,7.18-.13,9.14,9.14,0,0,0,5-5.68,10.58,10.58,0,0,0,.35-1.86,7.84,7.84,0,0,0,0-1,7.26,7.26,0,0,0-.07-.92,9.29,9.29,0,0,0-1.11-3.38,9.39,9.39,0,0,0-2-2.49,9.26,9.26,0,0,0-2.33-1.5,10.21,10.21,0,0,0-1.09-.43c-.35-.1-.68-.17-1-.24a11.54,11.54,0,0,0-1.41-.17l-.51,0,.51,0a8.23,8.23,0,0,1,1.44,0l1,.14a11.25,11.25,0,0,1,1.19.32,8.49,8.49,0,0,1,2.63,1.36,9.43,9.43,0,0,1,2.43,2.58,9.71,9.71,0,0,1,1.43,3.73c0,.36.11.68.11,1.07a9.39,9.39,0,0,1-.35,3.22,9.89,9.89,0,0,1-5.73,6.52,10,10,0,0,1-8.11-.14,9.48,9.48,0,0,1-2.87-2.08A8.67,8.67,0,0,1,96,102.79C95.8,102.41,95.69,102,95.54,101.66Zm13.62-4.22a4.7,4.7,0,0,0-1.62-3,4.93,4.93,0,0,0-1.2-.77,5.33,5.33,0,0,0-1.06-.34,5.43,5.43,0,0,0-.73-.09h-.26l.26,0a4.47,4.47,0,0,1,.74,0,5.22,5.22,0,0,1,1.14.23,4.64,4.64,0,0,1,1.35.71,5.12,5.12,0,0,1,2,3.23c0,.18,0,.35,0,.55a4.47,4.47,0,0,1-.18,1.65,5.24,5.24,0,0,1-1.08,2,5.15,5.15,0,0,1-1.85,1.33,5,5,0,0,1-5.63-1.14,4.14,4.14,0,0,1-.87-1.24,5,5,0,0,1-.38-1.1,4.17,4.17,0,0,1-.09-.73v-.26l0,.25a6.2,6.2,0,0,0,.17.71,5.6,5.6,0,0,0,.48,1,5.21,5.21,0,0,0,.91,1.09,4.75,4.75,0,0,0,3.2,1.22,4.81,4.81,0,0,0,1.9-.41,4.66,4.66,0,0,0,1.61-1.18,4.68,4.68,0,0,0,1.14-2.7,4,4,0,0,0,0-.5C109.2,97.76,109.17,97.59,109.16,97.44Zm1.54,1.93,1.51.44a8.44,8.44,0,0,1-3.08,4.39l-.93-1.26A6.83,6.83,0,0,0,110.7,99.37Zm-5.1,6.33a8.46,8.46,0,0,1-.88.1,8.33,8.33,0,0,1-3.92-.7l.64-1.43a6.78,6.78,0,0,0,3.18.57c.24,0,.48,0,.71-.08ZM143,108.86c-1.3.15-3.15.39-5.39.61s-4.83.48-7.62.71c-1.4.1-2.84.24-4.31.33l-4.45.31-4.45.27c-1.46.09-2.91.15-4.31.22-2.8.13-5.41.23-7.65.28s-4.12.07-5.43.1-2,0-2,0,.74-.11,2-.27,3.15-.38,5.39-.61,4.83-.47,7.62-.7c1.4-.11,2.84-.24,4.31-.34l4.45-.31,4.45-.26c1.46-.1,2.91-.15,4.31-.22,2.8-.14,5.41-.23,7.65-.29s4.12-.06,5.42-.09H145S144.29,108.71,143,108.86Zm3.23-12.15a8.87,8.87,0,0,1-.36,2.19,9.89,9.89,0,0,1-5.73,6.52,9.93,9.93,0,0,1-4.21.79,9.69,9.69,0,0,1-3.9-.93,9.52,9.52,0,0,1-2.87-2.08,8.81,8.81,0,0,1-1.69-2.44c-.21-.39-.32-.79-.47-1.14s-.19-.7-.27-1a7.86,7.86,0,0,1-.17-1.43l0-.51.09.5a12,12,0,0,0,.35,1.37c.12.28.23.6.37.93a10.61,10.61,0,0,0,.56,1,9.67,9.67,0,0,0,4.53,3.83,9.33,9.33,0,0,0,3.48.67,9.11,9.11,0,0,0,3.69-.8,9,9,0,0,0,3.12-2.29,8.84,8.84,0,0,0,1.87-3.39,6,6,0,0,0,.23-.93,7.82,7.82,0,0,0,.13-.92,7.94,7.94,0,0,0,0-1c0-.28,0-.61-.07-.91a9.17,9.17,0,0,0-1.11-3.38,9.66,9.66,0,0,0-4.38-4,10.06,10.06,0,0,0-1.09-.42c-.35-.1-.68-.17-1-.25a13.52,13.52,0,0,0-1.4-.17l-.51,0,.51,0a9.11,9.11,0,0,1,1.44,0c.31,0,.65.08,1,.15a9,9,0,0,1,1.18.31,8.87,8.87,0,0,1,2.64,1.36,9.73,9.73,0,0,1,3.86,6.32c0,.35.11.68.11,1.06A8.93,8.93,0,0,1,146.22,96.71Zm-5.61-1.31a4.7,4.7,0,0,0-1.62-3,4.88,4.88,0,0,0-1.2-.76,4.73,4.73,0,0,0-1.07-.35,6.76,6.76,0,0,0-.72-.08l-.26,0,.26,0a4.25,4.25,0,0,1,.74,0,5.3,5.3,0,0,1,1.14.24,4.37,4.37,0,0,1,1.35.7,5.07,5.07,0,0,1,2,3.24,4.69,4.69,0,0,1,.06.54,3.24,3.24,0,0,1,0,.54,4.29,4.29,0,0,1-.18,1.12,5.31,5.31,0,0,1-1.08,2,5.49,5.49,0,0,1-1.85,1.33,5.17,5.17,0,0,1-2.16.4,5,5,0,0,1-3.47-1.54,4.17,4.17,0,0,1-.87-1.25,4.84,4.84,0,0,1-.39-1.09,5.37,5.37,0,0,1-.08-.74v-.26l0,.26a6.63,6.63,0,0,0,.18.7,5,5,0,0,0,.48,1,5,5,0,0,0,.91,1.09,4.75,4.75,0,0,0,3.2,1.22,4.76,4.76,0,0,0,3.51-1.58,4.77,4.77,0,0,0,1-1.75,4.54,4.54,0,0,0,.18-1,4.18,4.18,0,0,0,0-.51C140.65,95.73,140.62,95.56,140.61,95.4Zm1.54,1.93,1.51.44a8.4,8.4,0,0,1-3.08,4.39l-.93-1.26A6.83,6.83,0,0,0,142.15,97.33Zm-5.1,6.33a8.46,8.46,0,0,1-.88.11,8.33,8.33,0,0,1-3.92-.7l.64-1.43a6.65,6.65,0,0,0,3.18.56,5.51,5.51,0,0,0,.71-.08Zm6.71-20.27-3.64.34q-3.63.36-7.27.66c-4.84.42-9.7.8-14.55,1.15l-7.28.51-7.28.48q-7,.45-14,.82l.29,5.7.29,6.31c.09,2.1.15,4.21.23,6.31s.15,4.21.19,6.31c-.23-2.09-.43-4.19-.62-6.28s-.41-4.19-.58-6.29L89,93.12l-.5-6.3,0-.59.61,0q7.27-.57,14.56-1l7.28-.46,7.29-.43q7.29-.41,14.58-.73,3.64-.16,7.29-.29l3.65-.13,3.65-.09C146.18,83.14,145,83.28,143.76,83.39Z"/><path class="cls-3" d="M90,115.94l4.37-.17q4.37-.17,8.74-.39,8.73-.41,17.47-.92l8.73-.53,8.73-.55q8.73-.57,17.45-1.22l.59,0,0-.58-.58-7.63-.61-7.62-.67-7.62q-.33-3.8-.7-7.61c.07,2.55.17,5.1.28,7.64l.32,7.64.37,7.64.38,7q-8.44.47-16.88,1l-8.73.57-8.72.61q-8.73.62-17.45,1.33c-2.9.23-5.81.48-8.71.75l-4.36.39-4.36.41Z"/><rect class="cls-3" x="76.26" y="33.79" width="80.07" height="1.37" transform="translate(-1.98 7.58) rotate(-3.7)"/><rect class="cls-3" x="76.4" y="35.93" width="80.07" height="1.37" transform="translate(-2.12 7.59) rotate(-3.7)"/><rect class="cls-3" x="76.54" y="38.07" width="80.07" height="1.37" transform="translate(-2.26 7.61) rotate(-3.7)"/><path class="cls-3" d="M89,61.87l-10,.65.43,6.68,10-.65Zm-3,1.5c-.64.09-1.28.16-1.92.23-1.19.12-2.37.19-3.56.26,0,.69,0,1.39,0,2.08,0,.41,0,.81,0,1.21s0,.81,0,1.22c-.08-.4-.14-.8-.21-1.2s-.12-.8-.17-1.2c-.1-.8-.18-1.6-.26-2.4l0-.32.33,0c1.29-.1,2.57-.2,3.87-.23.64,0,1.29,0,1.94,0s1.29,0,1.94.07C87.3,63.18,86.66,63.28,86,63.37Z"/><path class="cls-3" d="M93,68.32l10-.65L102.57,61l-10,.65Zm.75-6c1.29-.1,2.58-.19,3.87-.23l1.94,0c.65,0,1.3,0,2,.07-.64.13-1.28.23-1.93.32s-1.28.16-1.92.23c-1.18.12-2.37.2-3.56.26,0,.69,0,1.39,0,2.09,0,.4,0,.8,0,1.21s0,.8-.06,1.21c-.08-.4-.14-.8-.21-1.2s-.11-.79-.17-1.19c-.1-.8-.18-1.61-.25-2.41l0-.32Z"/><path class="cls-3" d="M106.58,67.44l10-.65-.43-6.68-10,.65Zm.75-6c1.29-.1,2.58-.19,3.87-.22.65,0,1.29,0,1.94,0s1.3,0,2,.07c-.64.13-1.28.23-1.92.32s-1.29.17-1.93.23c-1.18.13-2.37.2-3.55.26,0,.7,0,1.39,0,2.09,0,.4,0,.8,0,1.21s0,.81,0,1.21c-.09-.4-.15-.8-.21-1.19s-.12-.8-.18-1.2c-.1-.8-.18-1.6-.25-2.41l0-.32Z"/><path class="cls-3" d="M120.16,66.56l10-.64-.43-6.69-10,.65Zm.74-6c1.29-.1,2.58-.19,3.87-.22.65,0,1.3,0,1.94,0s1.3,0,2,.07c-.64.12-1.28.22-1.92.31s-1.29.17-1.93.23c-1.18.13-2.37.2-3.55.26,0,.7,0,1.39,0,2.09,0,.4,0,.81,0,1.21s0,.81-.05,1.21c-.09-.39-.14-.79-.21-1.19s-.12-.8-.17-1.2c-.11-.8-.19-1.6-.26-2.4l0-.32Z"/><path class="cls-3" d="M133.73,65.68l10-.64-.43-6.68-10,.64Zm.75-6c1.28-.1,2.57-.19,3.87-.22.64,0,1.29,0,1.94,0s1.29,0,1.94.07c-.64.12-1.28.22-1.92.32s-1.28.16-1.93.22c-1.18.13-2.36.2-3.55.26,0,.7,0,1.39,0,2.09,0,.4,0,.81,0,1.21s0,.81-.05,1.21c-.08-.39-.14-.79-.21-1.19s-.12-.8-.17-1.2c-.1-.8-.18-1.6-.26-2.4l0-.32Z"/><path class="cls-3" d="M147.3,64.81l10-.65-.43-6.68-10,.64Zm.75-6c1.29-.1,2.58-.19,3.87-.22.64,0,1.29,0,1.94,0s1.29,0,1.94.07c-.64.13-1.28.22-1.92.32s-1.28.16-1.92.23c-1.19.12-2.37.19-3.56.26,0,.69,0,1.39,0,2.08,0,.41,0,.81,0,1.21s0,.81-.05,1.22c-.08-.4-.14-.8-.21-1.2s-.11-.8-.17-1.2c-.1-.8-.18-1.6-.25-2.4l0-.32Z"/><rect class="cls-3" x="78.72" y="56.21" width="78.02" height="1.21" transform="translate(-3.42 7.72) rotate(-3.7)"/><path class="cls-3" d="M76.21,93.6q.41,5.13.85,10.26l.45,5.13.48,5.13.48,5.13.52,5.12-.14-5.15-.19-5.14-.18-5.15-.22-5.14c-.14-3.43-.31-6.86-.48-10.29-.15-3.12-.32-6.25-.5-9.37,3.29-.18,6.57-.35,9.85-.56l10.73-.67,10.73-.72c3.58-.23,7.16-.49,10.73-.76s7.15-.52,10.73-.81,7.15-.57,10.72-.88,7.14-.62,10.71-1l5.36-.51c1.78-.16,3.57-.36,5.35-.54-1.79,0-3.58.08-5.38.15l-5.37.19q-5.38.18-10.75.43c-3.59.14-7.17.33-10.75.51s-7.16.37-10.74.57-7.16.4-10.74.63l-10.73.67L87,81.59c-3.58.24-7.15.52-10.73.78l-.91.06.06.9C75.67,86.76,75.94,90.18,76.21,93.6Z"/><path class="cls-3" d="M162.79,108.12q-.39-4.87-.82-9.75l-.43-4.87-.46-4.88-.46-4.87-.51-4.86.13,4.89.17,4.89.16,4.89.21,4.89q.19,4.88.45,9.77.21,4.43.46,8.85c-3.11.17-6.21.33-9.31.53l-10.2.63-10.19.68q-5.1.34-10.2.73c-3.39.26-6.79.5-10.18.78s-6.79.54-10.19.85-6.79.59-10.18.92l-5.08.49c-1.7.15-3.4.35-5.09.53,1.7,0,3.41-.07,5.11-.14l5.11-.17c3.4-.11,6.81-.24,10.21-.39s6.81-.31,10.21-.48,6.8-.35,10.2-.54,6.81-.37,10.2-.59l10.2-.63,10.2-.7c3.4-.22,6.79-.49,10.19-.74l.91-.06-.06-.9Q163.19,113,162.79,108.12Z"/><path class="cls-3" d="M83.63,56.37a3.12,3.12,0,0,0,.6-6.14,2.78,2.78,0,0,1,1.26.88A2.49,2.49,0,0,1,86,52.53a1.6,1.6,0,0,1,0,.41l0,.14L86,53a3.52,3.52,0,0,0-.17-.35,2.71,2.71,0,0,0-.84-.92,2.45,2.45,0,0,0-.69-.33,2.59,2.59,0,0,0-.78-.08,2.16,2.16,0,0,0-.81.22,2.06,2.06,0,0,0-1.07,1.22,2.4,2.4,0,0,0-.1.38,1.57,1.57,0,0,0,0,.25,1.2,1.2,0,0,0,0,.19,2.33,2.33,0,0,0,.6,1.42,2.67,2.67,0,0,0,1,.71,2.2,2.2,0,0,0,.37.12l.13,0a2.19,2.19,0,0,1-.54.11,2.44,2.44,0,0,1-1.47-.37,2.7,2.7,0,0,1-1-1.14A3.12,3.12,0,0,0,83.63,56.37Z"/><path class="cls-3" d="M97.2,55.49a3.12,3.12,0,0,0,.6-6.14,2.79,2.79,0,0,1,1.26.89,2.46,2.46,0,0,1,.56,1.41,2.07,2.07,0,0,1,0,.41l0,.14,0-.13c0-.09-.1-.2-.17-.35a2.58,2.58,0,0,0-1.52-1.25,2.62,2.62,0,0,0-.78-.08,2.42,2.42,0,0,0-.82.22,2.3,2.3,0,0,0-.66.51,2.1,2.1,0,0,0-.41.71,2.4,2.4,0,0,0-.1.38,1.57,1.57,0,0,0,0,.25,1.2,1.2,0,0,0,0,.19,2.38,2.38,0,0,0,.6,1.43,2.87,2.87,0,0,0,1,.71c.15,0,.28.1.37.11l.13,0a2.19,2.19,0,0,1-.54.11,2.51,2.51,0,0,1-1.47-.36,2.86,2.86,0,0,1-1-1.15A3.12,3.12,0,0,0,97.2,55.49Z"/><path class="cls-3" d="M110.77,54.61a3.12,3.12,0,0,0,.6-6.13,2.72,2.72,0,0,1,1.26.88,2.46,2.46,0,0,1,.56,1.41,2.07,2.07,0,0,1,0,.41l0,.14,0-.13c0-.09-.1-.2-.16-.35a2.81,2.81,0,0,0-.84-.92,2.24,2.24,0,0,0-2.28-.19,2.21,2.21,0,0,0-.66.51,2.1,2.1,0,0,0-.42.72c0,.13-.07.27-.1.38s0,.16,0,.24,0,.13,0,.19a2.38,2.38,0,0,0,.6,1.43,2.87,2.87,0,0,0,1,.71,2.3,2.3,0,0,0,.37.11l.14,0a2.56,2.56,0,0,1-.54.11,2.45,2.45,0,0,1-1.48-.36,2.8,2.8,0,0,1-1-1.15A3.13,3.13,0,0,0,110.77,54.61Z"/><path class="cls-3" d="M124.34,53.73a3.12,3.12,0,0,0,.6-6.13,2.76,2.76,0,0,1,1.27.88,2.46,2.46,0,0,1,.55,1.41,2.25,2.25,0,0,1,0,.41l0,.14,0-.13c0-.08-.09-.2-.16-.35a2.81,2.81,0,0,0-.84-.92,2.57,2.57,0,0,0-.69-.32,2.08,2.08,0,0,0-.78-.08,2,2,0,0,0-.81.22,2,2,0,0,0-.66.5,2.1,2.1,0,0,0-.42.72,3.42,3.42,0,0,0-.09.38.82.82,0,0,0,0,.24,1.2,1.2,0,0,0,0,.19,2.37,2.37,0,0,0,.59,1.43,2.77,2.77,0,0,0,1,.71,3.75,3.75,0,0,0,.36.12l.14,0a2.65,2.65,0,0,1-.54.12,2.5,2.5,0,0,1-1.47-.37,2.67,2.67,0,0,1-1-1.15A3.09,3.09,0,0,0,124.34,53.73Z"/><path class="cls-3" d="M137.92,52.85a3.12,3.12,0,0,0,.6-6.13,2.78,2.78,0,0,1,1.26.88,2.46,2.46,0,0,1,.55,1.42,2.19,2.19,0,0,1,0,.4l0,.14-.06-.13a2.34,2.34,0,0,0-.16-.34,2.74,2.74,0,0,0-.84-.93,2.92,2.92,0,0,0-.69-.32,2.31,2.31,0,0,0-.78-.08A2,2,0,0,0,137,48a2,2,0,0,0-.66.5,2.07,2.07,0,0,0-.41.72,2.4,2.4,0,0,0-.1.38.9.9,0,0,0,0,.25,1.18,1.18,0,0,0,0,.19,2.35,2.35,0,0,0,.6,1.42,2.67,2.67,0,0,0,1,.71l.36.12.14,0a2.65,2.65,0,0,1-.54.12,2.51,2.51,0,0,1-1.47-.37,2.73,2.73,0,0,1-1-1.15A3.11,3.11,0,0,0,137.92,52.85Z"/><path class="cls-3" d="M151.49,52a3.12,3.12,0,0,0,.6-6.14,2.78,2.78,0,0,1,1.26.88,2.42,2.42,0,0,1,.55,1.42,1.63,1.63,0,0,1,0,.41l0,.14-.05-.13a3.52,3.52,0,0,0-.17-.35,2.78,2.78,0,0,0-.83-.92,2.74,2.74,0,0,0-.69-.33,2.66,2.66,0,0,0-.79-.08,2,2,0,0,0-.81.22,2.06,2.06,0,0,0-1.07,1.22,2.4,2.4,0,0,0-.1.38,1.57,1.57,0,0,0,0,.25,1.19,1.19,0,0,0,0,.19,2.33,2.33,0,0,0,.6,1.42,2.67,2.67,0,0,0,1,.71,3.8,3.8,0,0,0,.37.12l.13,0a3,3,0,0,1-.54.11,2.44,2.44,0,0,1-1.47-.37,2.76,2.76,0,0,1-1-1.14A3.12,3.12,0,0,0,151.49,52Z"/></svg>