<svg id="圖層_1" data-name="圖層 1" xmlns="http://www.w3.org/2000/svg" viewBox="0 0 6599.83 204.36"><defs><style>.cls-1{fill:#fff;}</style></defs><path class="cls-1" d="M182,163q45,4.68,81.64,9.62-16.9,15.86-31.72,31.72l-15.86-3.64q-61.09-13.78-82.68-18.2-54.07,14-99.32,21.06Q21.33,188.76,0,170a564.55,564.55,0,0,0,85.54-7h-65V82.68a58.64,58.64,0,0,1-7.28-1q-7.8-1-11.44-1.3Q10.4,58.25,12.61,45.5a153.73,153.73,0,0,0,2.21-26.26V5.2l117-1.56a53.24,53.24,0,0,0-2.21,12.09c-.26,4.07-.39,9.15-.39,15.21l-63.7.78a29,29,0,0,1-.26,4.42h64V58.76h-8.06v9.36h7.28a87.83,87.83,0,0,0,6.76-18.85,93.3,93.3,0,0,0,2.08-16.77H137V5.2L254,3.64a53.24,53.24,0,0,0-2.21,12.09c-.26,4.07-.39,9.15-.39,15.21L183,32v4.16h68.38V58.76H238.16v9.36h6.5V163ZM74.88,58.76H62.66l-1.82,9.36h14Zm110.24,32h-105v4.42h105Zm0,22.36h-105v4.42h105Zm0,22.36h-105v4.42h105ZM112.06,163l20.54,14.3q13.78-10.14,22.1-14.3ZM181.22,58.76l-1.82,9.36h12.48V58.76Z"/><path class="cls-1" d="M523.38,154.18A125.85,125.85,0,0,0,508.3,175.5a194.23,194.23,0,0,0-12.48,28.6,113.24,113.24,0,0,1-22.75-10.92,87,87,0,0,1-17.55-14.82,36.15,36.15,0,0,1,.78,7q0,13.53-22.62,15.08-23.65,1-43.16,1-20.28,0-39.26-1-12.74-.78-19-3.77T326,188a52.53,52.53,0,0,1,.26-6q-13.51,13.78-36.66,22.1a194.23,194.23,0,0,0-12.48-28.6,125.85,125.85,0,0,0-15.08-21.32q20.54-1.56,33.8-6.24L277.16,143q-13.52-3.37-11.7-2.86a180.34,180.34,0,0,0,9-26.52,139.93,139.93,0,0,0,3.51-23.4q.78-12,.78-34.84V7.8l140.66.26L419.12.52h46.54q0,5.21-.26,7.54h6.24L478.92,0a118.91,118.91,0,0,1,21.32,8.06h14V48.88H482.82l16.9,12.48q-3.12,4.94-8.84,14.82,19,10.92,24.7,12.22,2.08,25,2.08,49.92,0,11.18-10.66,11.18-14,0-30.42-8.58Q491.66,151.84,523.38,154.18Zm-57.46-19.76q-4.94-3.9-10.14-8.58a114.43,114.43,0,0,1-17.94,14.82q-10.92-17.67-16.9-26.78v19.24H370.5v3.12H333.32V81.38h87.62V92l10.92-5.46q-6-15.6-9.1-37.7H328.9a47,47,0,0,0-.13,6.24c.09,2.43.13,4.25.13,5.46q0,29.39-1,45.11t-3.64,31.85a144.1,144.1,0,0,0,23.4,10.66h25c-.87-.69-1.86-1.43-3-2.21a25.7,25.7,0,0,1-3.51-3l45.76-9.88q7,4.95,18.2,11.7l2.86,1.69c1,.61,2.25,1.34,3.64,2.21A112.25,112.25,0,0,0,465.92,134.42ZM333.32,53.3h87.62V77H333.32Zm37.18,56.94h12V100.1h-12Zm36.53,52a2,2,0,0,0,1.17-2.08,12.4,12.4,0,0,0-.78-3.38l-18.72,4.68a108.44,108.44,0,0,0-11.7-9.88l-2.34,7.28a6.85,6.85,0,0,0-.26,2.08,2.18,2.18,0,0,0,.91,2.08,7.09,7.09,0,0,0,3.25.52q20.28,0,24.18-.52A14.84,14.84,0,0,0,407,162.24Zm7.15-7.28a69.11,69.11,0,0,0,12.74,1,106.85,106.85,0,0,0,12.74-.78l-3.12-5.72ZM479.44,48.88H465.92a112.75,112.75,0,0,0,1.56,12.48A104.44,104.44,0,0,0,479.44,48.88Zm8.06,45.76a106.76,106.76,0,0,0-.78-11.18q-1,1.56-2.34,3.77c-.87,1.48-1.82,3-2.86,4.55,1.56,2.77,3.38,4.51,5.46,5.2C487.33,97,487.5,96.2,487.5,94.64Z"/><path class="cls-1" d="M703,35.1h-175V6H773V35.1H764.4V80.6q0,5.2-6.5,7.54t-21.06,3.38q-14.57,1-49.14,2.34V90.74H536.64v-51h157.3v19c6.07-.86,9.1-2.17,9.1-3.9Zm72.8,60.06v29.12H765.7V181q0,9.1-6.89,13.39t-24,5.72q-17.16,1.43-52.26,1.43-.53-2.34-1.17-5.72c-.43-2.25-1-4.94-1.69-8.06h-81.9v4.68h-61.1V129h157.3v30.16q3.9-.26,5.2-1.43a4.84,4.84,0,0,0,1.3-3.77V124.28H528.06V95.16ZM633.62,59.8H597.74V66h35.88Zm0,94.12H597.74v6.5h35.88Z"/><path class="cls-1" d="M1014,163q45,4.68,81.64,9.62-16.91,15.86-31.72,31.72l-15.86-3.64q-61.11-13.78-82.68-18.2-54.09,14-99.32,21.06Q853.31,188.76,832,170a564.66,564.66,0,0,0,85.54-7h-65V82.68a58.33,58.33,0,0,1-7.28-1q-7.8-1-11.44-1.3,8.58-22.1,10.79-34.84a153.73,153.73,0,0,0,2.21-26.26V5.2l117-1.56a52.7,52.7,0,0,0-2.21,12.09c-.26,4.07-.39,9.15-.39,15.21l-63.7.78a29,29,0,0,1-.26,4.42h64V58.76h-8.06v9.36h7.28a88.37,88.37,0,0,0,6.76-18.85,94.21,94.21,0,0,0,2.08-16.77H969V5.2l117-1.56a52.7,52.7,0,0,0-2.21,12.09c-.26,4.07-.39,9.15-.39,15.21L1015,32v4.16h68.38V58.76h-13.26v9.36h6.5V163ZM906.88,58.76H894.66l-1.82,9.36h14Zm110.24,32h-105v4.42h105Zm0,22.36h-105v4.42h105Zm0,22.36h-105v4.42h105ZM944.06,163l20.54,14.3q13.77-10.14,22.1-14.3Zm69.16-104.26-1.82,9.36h12.48V58.76Z"/><path class="cls-1" d="M1355.38,154.18a125.29,125.29,0,0,0-15.08,21.32,194.23,194.23,0,0,0-12.48,28.6,113.24,113.24,0,0,1-22.75-10.92,87,87,0,0,1-17.55-14.82,36.15,36.15,0,0,1,.78,7q0,13.53-22.62,15.08-23.67,1-43.16,1-20.28,0-39.26-1-12.75-.78-19-3.77T1158,188a50.27,50.27,0,0,1,.26-6q-13.53,13.78-36.66,22.1a194.23,194.23,0,0,0-12.48-28.6,125.85,125.85,0,0,0-15.08-21.32q20.54-1.56,33.8-6.24L1109.16,143q-13.53-3.37-11.7-2.86a180.34,180.34,0,0,0,9-26.52,139.93,139.93,0,0,0,3.51-23.4q.78-12,.78-34.84V7.8l140.66.26-.26-7.54h46.54q0,5.21-.26,7.54h6.24L1310.92,0a119.19,119.19,0,0,1,21.32,8.06h14V48.88h-31.46l16.9,12.48q-3.12,4.94-8.84,14.82,19,10.92,24.7,12.22,2.07,25,2.08,49.92,0,11.18-10.66,11.18-14,0-30.42-8.58Q1323.66,151.84,1355.38,154.18Zm-57.46-19.76q-5-3.9-10.14-8.58a115.36,115.36,0,0,1-17.94,14.82q-10.92-17.67-16.9-26.78v19.24H1202.5v3.12h-37.18V81.38h87.62V92l10.92-5.46q-6-15.6-9.1-37.7H1160.9a45.37,45.37,0,0,0-.13,6.24c.08,2.43.13,4.25.13,5.46q0,29.39-1,45.11t-3.64,31.85a144.1,144.1,0,0,0,23.4,10.66h25c-.87-.69-1.87-1.43-3-2.21a25.7,25.7,0,0,1-3.51-3l45.76-9.88q7,4.95,18.2,11.7c.86.52,1.82,1.08,2.86,1.69s2.25,1.34,3.64,2.21A112.41,112.41,0,0,0,1297.92,134.42ZM1165.32,53.3h87.62V77h-87.62Zm37.18,56.94h12V100.1h-12Zm36.53,52a2,2,0,0,0,1.17-2.08,12.4,12.4,0,0,0-.78-3.38l-18.72,4.68a108.44,108.44,0,0,0-11.7-9.88l-2.34,7.28a6.55,6.55,0,0,0-.26,2.08,2.18,2.18,0,0,0,.91,2.08,7.06,7.06,0,0,0,3.25.52q20.28,0,24.18-.52A14.84,14.84,0,0,0,1239,162.24Zm7.15-7.28a69,69,0,0,0,12.74,1,107,107,0,0,0,12.74-.78l-3.12-5.72Zm65.26-106.08h-13.52a108.16,108.16,0,0,0,1.56,12.48A104.44,104.44,0,0,0,1311.44,48.88Zm8.06,45.76a106.76,106.76,0,0,0-.78-11.18q-1,1.56-2.34,3.77c-.87,1.48-1.82,3-2.86,4.55,1.56,2.77,3.38,4.51,5.46,5.2C1319.32,97,1319.5,96.2,1319.5,94.64Z"/><path class="cls-1" d="M1535,35.1h-175V6H1605V35.1h-8.58V80.6q0,5.2-6.5,7.54t-21.06,3.38q-14.56,1-49.14,2.34V90.74H1368.64v-51h157.3v19c6.06-.86,9.1-2.17,9.1-3.9Zm72.8,60.06v29.12H1597.7V181q0,9.1-6.89,13.39t-24,5.72q-17.16,1.43-52.26,1.43-.52-2.34-1.17-5.72t-1.69-8.06h-81.9v4.68h-61.1V129h157.3v30.16q3.9-.26,5.2-1.43a4.87,4.87,0,0,0,1.3-3.77V124.28H1360.06V95.16ZM1465.62,59.8h-35.88V66h35.88Zm0,94.12h-35.88v6.5h35.88Z"/><path class="cls-1" d="M1846,163q45,4.68,81.64,9.62-16.91,15.86-31.72,31.72l-15.86-3.64q-61.11-13.78-82.68-18.2-54.09,14-99.32,21.06Q1685.31,188.76,1664,170a564.66,564.66,0,0,0,85.54-7h-65V82.68a58.33,58.33,0,0,1-7.28-1q-7.8-1-11.44-1.3,8.58-22.1,10.79-34.84a153.73,153.73,0,0,0,2.21-26.26V5.2l117-1.56a52.7,52.7,0,0,0-2.21,12.09c-.26,4.07-.39,9.15-.39,15.21l-63.7.78a29,29,0,0,1-.26,4.42h64V58.76h-8.06v9.36h7.28a88.37,88.37,0,0,0,6.76-18.85,94.21,94.21,0,0,0,2.08-16.77H1801V5.2l117-1.56a52.7,52.7,0,0,0-2.21,12.09c-.26,4.07-.39,9.15-.39,15.21L1847,32v4.16h68.38V58.76h-13.26v9.36h6.5V163ZM1738.88,58.76h-12.22l-1.82,9.36h14Zm110.24,32h-105v4.42h105Zm0,22.36h-105v4.42h105Zm0,22.36h-105v4.42h105ZM1776.06,163l20.54,14.3q13.77-10.14,22.1-14.3Zm69.16-104.26-1.82,9.36h12.48V58.76Z"/><path class="cls-1" d="M2187.38,154.18a125.29,125.29,0,0,0-15.08,21.32,194.23,194.23,0,0,0-12.48,28.6,113.24,113.24,0,0,1-22.75-10.92,87,87,0,0,1-17.55-14.82,36.15,36.15,0,0,1,.78,7q0,13.53-22.62,15.08-23.67,1-43.16,1-20.28,0-39.26-1-12.75-.78-19-3.77T1990,188a50.27,50.27,0,0,1,.26-6q-13.53,13.78-36.66,22.1a194.23,194.23,0,0,0-12.48-28.6,125.85,125.85,0,0,0-15.08-21.32q20.54-1.56,33.8-6.24L1941.16,143q-13.53-3.37-11.7-2.86a180.34,180.34,0,0,0,9-26.52,139.93,139.93,0,0,0,3.51-23.4q.78-12,.78-34.84V7.8l140.66.26-.26-7.54h46.54q0,5.21-.26,7.54h6.24L2142.92,0a119.19,119.19,0,0,1,21.32,8.06h14V48.88h-31.46l16.9,12.48q-3.12,4.94-8.84,14.82,19,10.92,24.7,12.22,2.07,25,2.08,49.92,0,11.18-10.66,11.18-14,0-30.42-8.58Q2155.66,151.84,2187.38,154.18Zm-57.46-19.76q-5-3.9-10.14-8.58a115.36,115.36,0,0,1-17.94,14.82q-10.92-17.67-16.9-26.78v19.24H2034.5v3.12h-37.18V81.38h87.62V92l10.92-5.46q-6-15.6-9.1-37.7H1992.9a45.37,45.37,0,0,0-.13,6.24c.08,2.43.13,4.25.13,5.46q0,29.39-1,45.11t-3.64,31.85a144.1,144.1,0,0,0,23.4,10.66h25c-.87-.69-1.87-1.43-3-2.21a25.7,25.7,0,0,1-3.51-3l45.76-9.88q7,4.95,18.2,11.7c.86.52,1.82,1.08,2.86,1.69s2.25,1.34,3.64,2.21A112.41,112.41,0,0,0,2129.92,134.42ZM1997.32,53.3h87.62V77h-87.62Zm37.18,56.94h12V100.1h-12Zm36.53,52a2,2,0,0,0,1.17-2.08,12.4,12.4,0,0,0-.78-3.38l-18.72,4.68a108.44,108.44,0,0,0-11.7-9.88l-2.34,7.28a6.55,6.55,0,0,0-.26,2.08,2.18,2.18,0,0,0,.91,2.08,7.06,7.06,0,0,0,3.25.52q20.28,0,24.18-.52A14.84,14.84,0,0,0,2071,162.24Zm7.15-7.28a69,69,0,0,0,12.74,1,107,107,0,0,0,12.74-.78l-3.12-5.72Zm65.26-106.08h-13.52a108.16,108.16,0,0,0,1.56,12.48A104.44,104.44,0,0,0,2143.44,48.88Zm8.06,45.76a106.76,106.76,0,0,0-.78-11.18q-1,1.56-2.34,3.77c-.87,1.48-1.82,3-2.86,4.55,1.56,2.77,3.38,4.51,5.46,5.2C2151.32,97,2151.5,96.2,2151.5,94.64Z"/><path class="cls-1" d="M2367,35.1h-175V6H2437V35.1h-8.58V80.6q0,5.2-6.5,7.54t-21.06,3.38q-14.57,1-49.14,2.34V90.74H2200.64v-51h157.3v19c6.06-.86,9.1-2.17,9.1-3.9Zm72.8,60.06v29.12H2429.7V181q0,9.1-6.89,13.39t-24,5.72q-17.16,1.43-52.26,1.43-.52-2.34-1.17-5.72t-1.69-8.06h-81.9v4.68h-61.1V129h157.3v30.16q3.9-.26,5.2-1.43a4.87,4.87,0,0,0,1.3-3.77V124.28H2192.06V95.16ZM2297.62,59.8h-35.88V66h35.88Zm0,94.12h-35.88v6.5h35.88Z"/><path class="cls-1" d="M2678,163q45,4.68,81.64,9.62-16.91,15.86-31.72,31.72l-15.86-3.64q-61.11-13.78-82.68-18.2-54.09,14-99.32,21.06Q2517.31,188.76,2496,170a564.66,564.66,0,0,0,85.54-7h-65V82.68a58.33,58.33,0,0,1-7.28-1q-7.8-1-11.44-1.3,8.58-22.1,10.79-34.84a153.73,153.73,0,0,0,2.21-26.26V5.2l117-1.56a52.7,52.7,0,0,0-2.21,12.09c-.26,4.07-.39,9.15-.39,15.21l-63.7.78a29,29,0,0,1-.26,4.42h64V58.76h-8.06v9.36h7.28a88.37,88.37,0,0,0,6.76-18.85,94.21,94.21,0,0,0,2.08-16.77H2633V5.2l117-1.56a52.7,52.7,0,0,0-2.21,12.09c-.26,4.07-.39,9.15-.39,15.21L2679,32v4.16h68.38V58.76h-13.26v9.36h6.5V163ZM2570.88,58.76h-12.22l-1.82,9.36h14Zm110.24,32h-105v4.42h105Zm0,22.36h-105v4.42h105Zm0,22.36h-105v4.42h105ZM2608.06,163l20.54,14.3q13.77-10.14,22.1-14.3Zm69.16-104.26-1.82,9.36h12.48V58.76Z"/><path class="cls-1" d="M3019.38,154.18a125.29,125.29,0,0,0-15.08,21.32,194.23,194.23,0,0,0-12.48,28.6,113.24,113.24,0,0,1-22.75-10.92,87,87,0,0,1-17.55-14.82,36.15,36.15,0,0,1,.78,7q0,13.53-22.62,15.08-23.67,1-43.16,1-20.28,0-39.26-1-12.75-.78-19-3.77T2822,188a50.27,50.27,0,0,1,.26-6q-13.53,13.78-36.66,22.1a194.23,194.23,0,0,0-12.48-28.6,125.85,125.85,0,0,0-15.08-21.32q20.53-1.56,33.8-6.24L2773.16,143q-13.53-3.37-11.7-2.86a180.34,180.34,0,0,0,9-26.52,139.93,139.93,0,0,0,3.51-23.4q.78-12,.78-34.84V7.8l140.66.26-.26-7.54h46.54q0,5.21-.26,7.54h6.24L2974.92,0a119.19,119.19,0,0,1,21.32,8.06h14V48.88h-31.46l16.9,12.48q-3.12,4.94-8.84,14.82,19,10.92,24.7,12.22,2.07,25,2.08,49.92,0,11.18-10.66,11.18-14,0-30.42-8.58Q2987.66,151.84,3019.38,154.18Zm-57.46-19.76q-5-3.9-10.14-8.58a115.36,115.36,0,0,1-17.94,14.82q-10.92-17.67-16.9-26.78v19.24H2866.5v3.12h-37.18V81.38h87.62V92l10.92-5.46q-6-15.6-9.1-37.7H2824.9a45.37,45.37,0,0,0-.13,6.24c.08,2.43.13,4.25.13,5.46q0,29.39-1,45.11t-3.64,31.85a144.1,144.1,0,0,0,23.4,10.66h25c-.87-.69-1.87-1.43-3-2.21a25.7,25.7,0,0,1-3.51-3l45.76-9.88q7,4.95,18.2,11.7c.86.52,1.82,1.08,2.86,1.69s2.25,1.34,3.64,2.21A112.41,112.41,0,0,0,2961.92,134.42ZM2829.32,53.3h87.62V77h-87.62Zm37.18,56.94h12V100.1h-12Zm36.53,52a2,2,0,0,0,1.17-2.08,12.4,12.4,0,0,0-.78-3.38l-18.72,4.68a108.44,108.44,0,0,0-11.7-9.88l-2.34,7.28a6.55,6.55,0,0,0-.26,2.08,2.18,2.18,0,0,0,.91,2.08,7.06,7.06,0,0,0,3.25.52q20.28,0,24.18-.52A14.84,14.84,0,0,0,2903,162.24Zm7.15-7.28a69,69,0,0,0,12.74,1,107,107,0,0,0,12.74-.78l-3.12-5.72Zm65.26-106.08h-13.52a108.16,108.16,0,0,0,1.56,12.48A104.44,104.44,0,0,0,2975.44,48.88Zm8.06,45.76a106.76,106.76,0,0,0-.78-11.18q-1,1.56-2.34,3.77c-.87,1.48-1.82,3-2.86,4.55,1.56,2.77,3.38,4.51,5.46,5.2C2983.32,97,2983.5,96.2,2983.5,94.64Z"/><path class="cls-1" d="M3199,35.1h-175V6H3269V35.1h-8.58V80.6q0,5.2-6.5,7.54t-21.06,3.38q-14.57,1-49.14,2.34V90.74H3032.64v-51h157.3v19c6.06-.86,9.1-2.17,9.1-3.9Zm72.8,60.06v29.12H3261.7V181q0,9.1-6.89,13.39t-24,5.72q-17.16,1.43-52.26,1.43-.52-2.34-1.17-5.72t-1.69-8.06h-81.9v4.68h-61.1V129h157.3v30.16q3.9-.26,5.2-1.43a4.87,4.87,0,0,0,1.3-3.77V124.28H3024.06V95.16ZM3129.62,59.8h-35.88V66h35.88Zm0,94.12h-35.88v6.5h35.88Z"/><path class="cls-1" d="M3510,163q45,4.68,81.64,9.62-16.91,15.86-31.72,31.72l-15.86-3.64q-61.11-13.78-82.68-18.2-54.09,14-99.32,21.06Q3349.31,188.76,3328,170a564.66,564.66,0,0,0,85.54-7h-65V82.68a58.33,58.33,0,0,1-7.28-1q-7.8-1-11.44-1.3,8.58-22.1,10.79-34.84a153.73,153.73,0,0,0,2.21-26.26V5.2l117-1.56a52.7,52.7,0,0,0-2.21,12.09c-.26,4.07-.39,9.15-.39,15.21l-63.7.78a29,29,0,0,1-.26,4.42h64V58.76h-8.06v9.36h7.28a88.37,88.37,0,0,0,6.76-18.85,94.21,94.21,0,0,0,2.08-16.77H3465V5.2l117-1.56a52.7,52.7,0,0,0-2.21,12.09c-.26,4.07-.39,9.15-.39,15.21L3511,32v4.16h68.38V58.76h-13.26v9.36h6.5V163ZM3402.88,58.76h-12.22l-1.82,9.36h14Zm110.24,32h-105v4.42h105Zm0,22.36h-105v4.42h105Zm0,22.36h-105v4.42h105ZM3440.06,163l20.54,14.3q13.77-10.14,22.1-14.3Zm69.16-104.26-1.82,9.36h12.48V58.76Z"/><path class="cls-1" d="M3851.38,154.18a125.29,125.29,0,0,0-15.08,21.32,194.23,194.23,0,0,0-12.48,28.6,113.24,113.24,0,0,1-22.75-10.92,87,87,0,0,1-17.55-14.82,36.15,36.15,0,0,1,.78,7q0,13.53-22.62,15.08-23.67,1-43.16,1-20.28,0-39.26-1-12.75-.78-19-3.77T3654,188a50.27,50.27,0,0,1,.26-6q-13.53,13.78-36.66,22.1a194.23,194.23,0,0,0-12.48-28.6,125.85,125.85,0,0,0-15.08-21.32q20.53-1.56,33.8-6.24L3605.16,143q-13.53-3.37-11.7-2.86a180.34,180.34,0,0,0,9-26.52,139.93,139.93,0,0,0,3.51-23.4q.78-12,.78-34.84V7.8l140.66.26-.26-7.54h46.54q0,5.21-.26,7.54h6.24L3806.92,0a119.19,119.19,0,0,1,21.32,8.06h14V48.88h-31.46l16.9,12.48q-3.12,4.94-8.84,14.82,19,10.92,24.7,12.22,2.07,25,2.08,49.92,0,11.18-10.66,11.18-14,0-30.42-8.58Q3819.66,151.84,3851.38,154.18Zm-57.46-19.76q-5-3.9-10.14-8.58a115.36,115.36,0,0,1-17.94,14.82q-10.92-17.67-16.9-26.78v19.24H3698.5v3.12h-37.18V81.38h87.62V92l10.92-5.46q-6-15.6-9.1-37.7H3656.9a45.37,45.37,0,0,0-.13,6.24c.08,2.43.13,4.25.13,5.46q0,29.39-1,45.11t-3.64,31.85a144.1,144.1,0,0,0,23.4,10.66h25c-.87-.69-1.87-1.43-3-2.21a25.7,25.7,0,0,1-3.51-3l45.76-9.88q7,4.95,18.2,11.7c.86.52,1.82,1.08,2.86,1.69s2.25,1.34,3.64,2.21A112.41,112.41,0,0,0,3793.92,134.42ZM3661.32,53.3h87.62V77h-87.62Zm37.18,56.94h12V100.1h-12Zm36.53,52a2,2,0,0,0,1.17-2.08,12.4,12.4,0,0,0-.78-3.38l-18.72,4.68a108.44,108.44,0,0,0-11.7-9.88l-2.34,7.28a6.55,6.55,0,0,0-.26,2.08,2.18,2.18,0,0,0,.91,2.08,7.06,7.06,0,0,0,3.25.52q20.28,0,24.18-.52A14.84,14.84,0,0,0,3735,162.24Zm7.15-7.28a69,69,0,0,0,12.74,1,107,107,0,0,0,12.74-.78l-3.12-5.72Zm65.26-106.08h-13.52a108.16,108.16,0,0,0,1.56,12.48A104.44,104.44,0,0,0,3807.44,48.88Zm8.06,45.76a106.76,106.76,0,0,0-.78-11.18q-1,1.56-2.34,3.77c-.87,1.48-1.82,3-2.86,4.55,1.56,2.77,3.38,4.51,5.46,5.2C3815.32,97,3815.5,96.2,3815.5,94.64Z"/><path class="cls-1" d="M4031,35.1h-175V6H4101V35.1h-8.58V80.6q0,5.2-6.5,7.54t-21.06,3.38q-14.57,1-49.14,2.34V90.74H3864.64v-51h157.3v19c6.06-.86,9.1-2.17,9.1-3.9Zm72.8,60.06v29.12H4093.7V181q0,9.1-6.89,13.39t-24,5.72q-17.16,1.43-52.26,1.43-.52-2.34-1.17-5.72t-1.69-8.06h-81.9v4.68h-61.1V129h157.3v30.16q3.9-.26,5.2-1.43a4.87,4.87,0,0,0,1.3-3.77V124.28H3856.06V95.16ZM3961.62,59.8h-35.88V66h35.88Zm0,94.12h-35.88v6.5h35.88Z"/><path class="cls-1" d="M4342,163q45,4.68,81.64,9.62-16.91,15.86-31.72,31.72l-15.86-3.64q-61.11-13.78-82.68-18.2-54.09,14-99.32,21.06Q4181.31,188.76,4160,170a564.66,564.66,0,0,0,85.54-7h-65V82.68a58.33,58.33,0,0,1-7.28-1q-7.8-1-11.44-1.3,8.58-22.1,10.79-34.84a153.73,153.73,0,0,0,2.21-26.26V5.2l117-1.56a52.7,52.7,0,0,0-2.21,12.09c-.26,4.07-.39,9.15-.39,15.21l-63.7.78a29,29,0,0,1-.26,4.42h64V58.76h-8.06v9.36h7.28a88.37,88.37,0,0,0,6.76-18.85,94.21,94.21,0,0,0,2.08-16.77H4297V5.2l117-1.56a52.7,52.7,0,0,0-2.21,12.09c-.26,4.07-.39,9.15-.39,15.21L4343,32v4.16h68.38V58.76h-13.26v9.36h6.5V163ZM4234.88,58.76h-12.22l-1.82,9.36h14Zm110.24,32h-105v4.42h105Zm0,22.36h-105v4.42h105Zm0,22.36h-105v4.42h105ZM4272.06,163l20.54,14.3q13.77-10.14,22.1-14.3Zm69.16-104.26-1.82,9.36h12.48V58.76Z"/><path class="cls-1" d="M4683.38,154.18a125.29,125.29,0,0,0-15.08,21.32,194.23,194.23,0,0,0-12.48,28.6,113.24,113.24,0,0,1-22.75-10.92,87,87,0,0,1-17.55-14.82,36.15,36.15,0,0,1,.78,7q0,13.53-22.62,15.08-23.67,1-43.16,1-20.28,0-39.26-1-12.75-.78-19-3.77T4486,188a50.27,50.27,0,0,1,.26-6q-13.53,13.78-36.66,22.1a194.23,194.23,0,0,0-12.48-28.6,125.85,125.85,0,0,0-15.08-21.32q20.54-1.56,33.8-6.24L4437.16,143q-13.53-3.37-11.7-2.86a180.34,180.34,0,0,0,9-26.52,139.93,139.93,0,0,0,3.51-23.4q.78-12,.78-34.84V7.8l140.66.26-.26-7.54h46.54q0,5.21-.26,7.54h6.24L4638.92,0a119.19,119.19,0,0,1,21.32,8.06h14V48.88h-31.46l16.9,12.48q-3.12,4.94-8.84,14.82,19,10.92,24.7,12.22,2.07,25,2.08,49.92,0,11.18-10.66,11.18-14,0-30.42-8.58Q4651.66,151.84,4683.38,154.18Zm-57.46-19.76q-5-3.9-10.14-8.58a115.36,115.36,0,0,1-17.94,14.82q-10.92-17.67-16.9-26.78v19.24H4530.5v3.12h-37.18V81.38h87.62V92l10.92-5.46q-6-15.6-9.1-37.7H4488.9a45.37,45.37,0,0,0-.13,6.24c.08,2.43.13,4.25.13,5.46q0,29.39-1,45.11t-3.64,31.85a144.1,144.1,0,0,0,23.4,10.66h25c-.87-.69-1.87-1.43-3-2.21a25.7,25.7,0,0,1-3.51-3l45.76-9.88q7,4.95,18.2,11.7c.86.52,1.82,1.08,2.86,1.69s2.25,1.34,3.64,2.21A112.41,112.41,0,0,0,4625.92,134.42ZM4493.32,53.3h87.62V77h-87.62Zm37.18,56.94h12V100.1h-12Zm36.53,52a2,2,0,0,0,1.17-2.08,12.4,12.4,0,0,0-.78-3.38l-18.72,4.68a108.44,108.44,0,0,0-11.7-9.88l-2.34,7.28a6.55,6.55,0,0,0-.26,2.08,2.18,2.18,0,0,0,.91,2.08,7.06,7.06,0,0,0,3.25.52q20.28,0,24.18-.52A14.84,14.84,0,0,0,4567,162.24Zm7.15-7.28a69,69,0,0,0,12.74,1,107,107,0,0,0,12.74-.78l-3.12-5.72Zm65.26-106.08h-13.52a108.16,108.16,0,0,0,1.56,12.48A104.44,104.44,0,0,0,4639.44,48.88Zm8.06,45.76a106.76,106.76,0,0,0-.78-11.18q-1.05,1.56-2.34,3.77c-.87,1.48-1.82,3-2.86,4.55,1.56,2.77,3.38,4.51,5.46,5.2C4647.32,97,4647.5,96.2,4647.5,94.64Z"/><path class="cls-1" d="M4863,35.1h-175V6H4933V35.1h-8.58V80.6q0,5.2-6.5,7.54t-21.06,3.38q-14.57,1-49.14,2.34V90.74H4696.64v-51h157.3v19c6.06-.86,9.1-2.17,9.1-3.9Zm72.8,60.06v29.12H4925.7V181q0,9.1-6.89,13.39t-24.05,5.72q-17.16,1.43-52.26,1.43-.53-2.34-1.17-5.72t-1.69-8.06h-81.9v4.68h-61.1V129h157.3v30.16q3.9-.26,5.2-1.43a4.87,4.87,0,0,0,1.3-3.77V124.28H4688.06V95.16ZM4793.62,59.8h-35.88V66h35.88Zm0,94.12h-35.88v6.5h35.88Z"/><path class="cls-1" d="M5174,163q45,4.68,81.64,9.62-16.91,15.86-31.72,31.72l-15.86-3.64q-61.11-13.78-82.68-18.2-54.09,14-99.32,21.06Q5013.31,188.76,4992,170a564.66,564.66,0,0,0,85.54-7h-65V82.68a58.33,58.33,0,0,1-7.28-1q-7.8-1-11.44-1.3,8.58-22.1,10.79-34.84a153.73,153.73,0,0,0,2.21-26.26V5.2l117-1.56a52.7,52.7,0,0,0-2.21,12.09c-.26,4.07-.39,9.15-.39,15.21l-63.7.78a29,29,0,0,1-.26,4.42h64V58.76h-8.06v9.36h7.28a88.37,88.37,0,0,0,6.76-18.85,94.21,94.21,0,0,0,2.08-16.77H5129V5.2l117-1.56a52.7,52.7,0,0,0-2.21,12.09c-.26,4.07-.39,9.15-.39,15.21L5175,32v4.16h68.38V58.76h-13.26v9.36h6.5V163ZM5066.88,58.76h-12.22l-1.82,9.36h14Zm110.24,32h-105v4.42h105Zm0,22.36h-105v4.42h105Zm0,22.36h-105v4.42h105ZM5104.06,163l20.54,14.3q13.77-10.14,22.1-14.3Zm69.16-104.26-1.82,9.36h12.48V58.76Z"/><path class="cls-1" d="M5515.38,154.18a125.29,125.29,0,0,0-15.08,21.32,194.23,194.23,0,0,0-12.48,28.6,113.24,113.24,0,0,1-22.75-10.92,87,87,0,0,1-17.55-14.82,36.15,36.15,0,0,1,.78,7q0,13.53-22.62,15.08-23.67,1-43.16,1-20.28,0-39.26-1-12.75-.78-19-3.77T5318,188a50.27,50.27,0,0,1,.26-6q-13.53,13.78-36.66,22.1a194.23,194.23,0,0,0-12.48-28.6,125.85,125.85,0,0,0-15.08-21.32q20.54-1.56,33.8-6.24L5269.16,143q-13.53-3.37-11.7-2.86a180.34,180.34,0,0,0,9-26.52,139.93,139.93,0,0,0,3.51-23.4q.78-12,.78-34.84V7.8l140.66.26-.26-7.54h46.54q0,5.21-.26,7.54h6.24L5470.92,0a119.19,119.19,0,0,1,21.32,8.06h14V48.88h-31.46l16.9,12.48q-3.12,4.94-8.84,14.82,19,10.92,24.7,12.22,2.07,25,2.08,49.92,0,11.18-10.66,11.18-14,0-30.42-8.58Q5483.66,151.84,5515.38,154.18Zm-57.46-19.76q-5-3.9-10.14-8.58a115.36,115.36,0,0,1-17.94,14.82q-10.92-17.67-16.9-26.78v19.24H5362.5v3.12h-37.18V81.38h87.62V92l10.92-5.46q-6-15.6-9.1-37.7H5320.9a45.37,45.37,0,0,0-.13,6.24c.08,2.43.13,4.25.13,5.46q0,29.39-1,45.11t-3.64,31.85a144.1,144.1,0,0,0,23.4,10.66h25c-.87-.69-1.87-1.43-3-2.21a25.7,25.7,0,0,1-3.51-3l45.76-9.88q7,4.95,18.2,11.7c.86.52,1.82,1.08,2.86,1.69s2.25,1.34,3.64,2.21A112.41,112.41,0,0,0,5457.92,134.42ZM5325.32,53.3h87.62V77h-87.62Zm37.18,56.94h12V100.1h-12Zm36.53,52a2,2,0,0,0,1.17-2.08,12.4,12.4,0,0,0-.78-3.38l-18.72,4.68a108.44,108.44,0,0,0-11.7-9.88l-2.34,7.28a6.55,6.55,0,0,0-.26,2.08,2.18,2.18,0,0,0,.91,2.08,7.06,7.06,0,0,0,3.25.52q20.28,0,24.18-.52A14.84,14.84,0,0,0,5399,162.24Zm7.15-7.28a69,69,0,0,0,12.74,1,107,107,0,0,0,12.74-.78l-3.12-5.72Zm65.26-106.08h-13.52a108.16,108.16,0,0,0,1.56,12.48A104.44,104.44,0,0,0,5471.44,48.88Zm8.06,45.76a106.76,106.76,0,0,0-.78-11.18q-1.05,1.56-2.34,3.77c-.87,1.48-1.82,3-2.86,4.55,1.56,2.77,3.38,4.51,5.46,5.2C5479.32,97,5479.5,96.2,5479.5,94.64Z"/><path class="cls-1" d="M5695,35.1h-175V6H5765V35.1h-8.58V80.6q0,5.2-6.5,7.54t-21.06,3.38q-14.57,1-49.14,2.34V90.74H5528.64v-51h157.3v19c6.06-.86,9.1-2.17,9.1-3.9Zm72.8,60.06v29.12H5757.7V181q0,9.1-6.89,13.39t-24.05,5.72q-17.16,1.43-52.26,1.43-.53-2.34-1.17-5.72t-1.69-8.06h-81.9v4.68h-61.1V129h157.3v30.16q3.9-.26,5.2-1.43a4.87,4.87,0,0,0,1.3-3.77V124.28H5520.06V95.16ZM5625.62,59.8h-35.88V66h35.88Zm0,94.12h-35.88v6.5h35.88Z"/><path class="cls-1" d="M6006,163q45,4.68,81.63,9.62-16.89,15.86-31.71,31.72l-15.87-3.64q-61.1-13.78-82.67-18.2-54.09,14-99.33,21.06Q5845.32,188.76,5824,170a564.66,564.66,0,0,0,85.54-7h-65V82.68a58.88,58.88,0,0,1-7.29-1q-7.8-1-11.44-1.3,8.59-22.1,10.79-34.84a152.72,152.72,0,0,0,2.21-26.26V5.2l117-1.56a53.24,53.24,0,0,0-2.21,12.09c-.26,4.07-.39,9.15-.39,15.21l-63.7.78a27.76,27.76,0,0,1-.26,4.42h64V58.76h-8.06v9.36h7.28a87.29,87.29,0,0,0,6.76-18.85,92.41,92.41,0,0,0,2.08-16.77H5961V5.2l117-1.56a53.24,53.24,0,0,0-2.21,12.09c-.26,4.07-.38,9.15-.38,15.21L6007,32v4.16h68.38V58.76h-13.27v9.36h6.5V163ZM5898.88,58.76h-12.23l-1.82,9.36h14.05Zm110.23,32h-105v4.42h105Zm0,22.36h-105v4.42h105Zm0,22.36h-105v4.42h105ZM5936.05,163l20.54,14.3q13.78-10.14,22.1-14.3Zm69.16-104.26-1.82,9.36h12.49V58.76Z"/><path class="cls-1" d="M6347.38,154.18a125.92,125.92,0,0,0-15.09,21.32,194.23,194.23,0,0,0-12.48,28.6,113.5,113.5,0,0,1-22.75-10.92,87,87,0,0,1-17.55-14.82,35.39,35.39,0,0,1,.78,7q0,13.53-22.62,15.08-23.66,1-43.16,1-20.27,0-39.26-1-12.73-.78-19-3.77T6150,188a53,53,0,0,1,.25-6q-13.52,13.78-36.66,22.1a194.23,194.23,0,0,0-12.48-28.6,125.22,125.22,0,0,0-15.07-21.32q20.54-1.56,33.8-6.24L6101.15,143q-13.51-3.37-11.69-2.86a181.36,181.36,0,0,0,9-26.52,137.9,137.9,0,0,0,3.51-23.4q.8-12,.78-34.84V7.8l140.67.26-.27-7.54h46.54a74.5,74.5,0,0,1-.26,7.54h6.24L6302.92,0a119.1,119.1,0,0,1,21.31,8.06h14V48.88h-31.46l16.9,12.48q-3.12,4.94-8.83,14.82,19,10.92,24.7,12.22,2.07,25,2.07,49.92,0,11.18-10.65,11.18-14.06,0-30.42-8.58Q6315.64,151.84,6347.38,154.18Zm-57.46-19.76q-5-3.9-10.15-8.58a114.43,114.43,0,0,1-17.94,14.82q-10.92-17.67-16.9-26.78v19.24H6194.5v3.12h-37.19V81.38h87.62V92l10.92-5.46q-6-15.6-9.1-37.7h-93.86a48.8,48.8,0,0,0-.13,6.24c.09,2.43.13,4.25.13,5.46q0,29.39-1,45.11t-3.64,31.85a144.49,144.49,0,0,0,23.4,10.66h25c-.87-.69-1.87-1.43-3-2.21a26.27,26.27,0,0,1-3.5-3l45.75-9.88q7,4.95,18.21,11.7c.86.52,1.81,1.08,2.85,1.69s2.26,1.34,3.65,2.21A112.56,112.56,0,0,0,6289.92,134.42ZM6157.31,53.3h87.62V77h-87.62Zm37.19,56.94h12V100.1h-12Zm36.52,52a2,2,0,0,0,1.17-2.08,12.67,12.67,0,0,0-.77-3.38l-18.73,4.68a108.41,108.41,0,0,0-11.69-9.88l-2.35,7.28a6.85,6.85,0,0,0-.26,2.08,2.2,2.2,0,0,0,.91,2.08,7.12,7.12,0,0,0,3.25.52q20.29,0,24.18-.52A14.77,14.77,0,0,0,6231,162.24Zm7.15-7.28a69.15,69.15,0,0,0,12.75,1,106.68,106.68,0,0,0,12.73-.78l-3.11-5.72Zm65.26-106.08h-13.51a110.57,110.57,0,0,0,1.55,12.48A103.66,103.66,0,0,0,6303.43,48.88Zm8.07,45.76a107.25,107.25,0,0,0-.79-11.18q-1,1.56-2.33,3.77c-.88,1.48-1.83,3-2.87,4.55,1.57,2.77,3.38,4.51,5.46,5.2C6311.32,97,6311.5,96.2,6311.5,94.64Z"/><path class="cls-1" d="M6527,35.1h-175V6H6597V35.1h-8.58V80.6q0,5.2-6.5,7.54t-21.06,3.38q-14.57,1-49.14,2.34V90.74H6360.63v-51h157.3v19c6.07-.86,9.11-2.17,9.11-3.9Zm72.79,60.06v29.12h-10.14V181q0,9.1-6.89,13.39t-24.05,5.72q-17.16,1.43-52.25,1.43c-.35-1.56-.75-3.47-1.17-5.72s-1-4.94-1.7-8.06h-81.9v4.68h-61.1V129h157.3v30.16q3.91-.26,5.2-1.43a4.84,4.84,0,0,0,1.3-3.77V124.28H6352.05V95.16ZM6457.61,59.8h-35.88V66h35.88Zm0,94.12h-35.88v6.5h35.88Z"/></svg>